<?xml version="1.0" encoding="UTF-8"?>
<svg id="Calque_2" data-name="Calque 2" xmlns="http://www.w3.org/2000/svg" xmlns:xlink="http://www.w3.org/1999/xlink" viewBox="0 0 832.87 832.87">
  <defs>
    <style>
      .cls-1 {
        fill: url(#Dégradé_sans_nom_4);
        stroke: #000;
        stroke-miterlimit: 10;
        stroke-width: 8.5px;
      }

      .cls-2 {
        fill: url(#Dégradé_sans_nom_2);
      }
    </style>
    <radialGradient id="Dégradé_sans_nom_4" data-name="Dégradé sans nom 4" cx="416.43" cy="416.43" fx="416.43" fy="416.43" r="412.18" gradientUnits="userSpaceOnUse">
      <stop offset="0" stop-color="#f01048"/>
      <stop offset="1" stop-color="#bfab9b"/>
    </radialGradient>
    <linearGradient id="Dégradé_sans_nom_2" data-name="Dégradé sans nom 2" x1="253.75" y1="446.23" x2="615.35" y2="446.23" gradientUnits="userSpaceOnUse">
      <stop offset="0" stop-color="#5d585a"/>
      <stop offset=".98" stop-color="#aeb9b0"/>
    </linearGradient>
  </defs>
  <g id="fond">
    <circle class="cls-1" cx="416.43" cy="416.43" r="412.18"/>
  </g>
  <g id="Calque_1-2" data-name="Calque 1">
    <path class="cls-2" d="M343.93,72.81c-3.45,3.76-29.36,32.51-30.77,36.14s-11.83,1.73-13.72,10.26c-1.89,8.52-3.18,29.44-3.18,29.44,0,0,5.07-.41,7.28,2.12s3.79,14.52,3.79,15.46,4.1,11.05,4.1,11.05c0,0,2.84,8.52,1.58,8.84s-1.58,6-1.58,8.21,2.21,8.84,3.47,8.84-26.82,.32-28.09,.95-6.31,7.26-6,12.31,4.73,18.62,9.15,19.25,17.04,5.68,21.14,4.1-2.52,5.68-3.16,6.63-3.47,9.78,.63,11.68,14.2,6,15.15,6,5.64,4.79,5.35,6.82,6.33,16.85,6.01,17.8-7.58,5.83-8.05,6.23-38.02,25.33-39.92,28.17-11.99,15.15-17.36,60.91-12.94,122.76-12.94,122.76c0,0-4.1,45.44-2.84,47.65s19.25,75.42,19.25,77.63,9.78,35.98,10.41,48.6c.63,12.62-.95,59.64,.63,64.69s9.47,58.38,9.47,58.38c0,0,88.68,33.45,169.78,21.46,81.1-11.99,84.26-29.35,84.26-29.35l9.15-45.44,35.98-78.58s19.57-93.73,20.51-145.17,2.64-130.09,1.58-131.6c-7.57-10.73-62.49-59.96-62.49-59.96l-33.77-32.5s-27.14-25.88-26.82-26.82,.95-4.1,.95-4.1c0,0,7.26-3.16,15.15-29.66,0,0,2.84-3.47,5.36-6.63s12.62-17.99,14.83-24.93c2.21-6.94,4.42-21.78,2.84-25.25-1.58-3.47-16.09-16.09-18.93-15.15s-5.05-11.68-5.05-11.68c0,0-6-30.93-27.46-51.76s-39.45-37.55-49.23-37.87-40.71-5.05-46.71-3.79-36.29,4.1-39.76,7.89Z"/>
    <path d="M337.9,82.25c-2.81,3.16-5.36,6.61-8.48,9.43-11.41,10.32-17.63,23.93-23.38,37.63-4.46,10.62-3.85,21.69,1.03,32.69,1.76-.35,3.45-.56,5.07-1.02,8.44-2.42,12.87,4.55,18.77,8.05,.39,.23,.57,1.77,.26,2.05-.61,.55-1.66,.94-2.47,.87-2.99-.27-5.95-1-8.93-1.12-9.74-.37-10.8,1.4-5.98,10.8,2.97-5.68,8.06-7.32,13.26-5.72,4.48,1.37,8.41,4.59,12.87,7.16v-18.16c.44,0,.88,0,1.31,0,4.21,10.37-.93,20.69-.89,31.67,1.81,.31,3.86,.4,5.72,1.04,2.35,.8,5.62,1.45,6.6,3.22,2.47,4.45,5.9,3.53,9.68,3.4,7.29-.25,14.6-.07,22.61-.47-6.12-3.79-8.1-9.58-6.45-15.58,1.5-5.48,4.05-11.19,7.71-15.43,6.28-7.29,17.08-6.88,25.9-.28,9.19,6.88,10.31,16.72,3.44,30.2q3.1,2.91,5.2,13.58c4.79,.15,8.67-.56,13.29-3.69,16.22-11.01,31.83-23.25,50.5-30.26,1.19-.45,2.82-2.01,2.81-3.05-.08-8.99-1.25-17.53-8.64-24.17-2.17-1.94-3.42-5.74-3.68-8.81-.67-7.91-.51-15.88-.77-23.82-.38-11.19-3.64-21.11-12.32-28.83-5.42-4.82-10.08-10.6-15.88-14.85-7.34-5.39-15.99-8.09-25.21-8.84-10.25-.83-20.47-2.68-30.71-2.73-7.64-.04-15.34,1.84-22.94,3.27-5.28,.99-10.45,2.59-15.62,4.09-3.7,1.08-7.31,2.45-11.33,3.27,2.57-1.58,4.94-3.83,7.73-4.64,11.83-3.45,23.63-7.44,35.74-9.38,12.36-1.98,24.89-.67,37.34,2.02,9.54,2.06,18.81,4.27,27.02,9.66,3.16,2.08,6.29,4.36,8.94,7.05,3.39,3.44,6.3,6.72,11.42,8.43,3.75,1.25,6.43,6.04,9.31,9.48,1.57,1.87,2.36,4.37,3.84,6.33,6.11,8.1,12.96,15.71,18.38,24.23,6.6,10.37,9.12,22.23,9.07,34.56,0,1.39,0,2.78,0,3.36,4.79,1.21,9.73,1.32,13.31,3.59,10.47,6.61,12.71,15.12,9.43,27.54-4.04,15.32-10.83,29.79-21.41,42.12-1.99,2.31-3.81,5.35-4.29,8.28-1.57,9.73-5.99,17.64-13.34,23.76,11.8,11.55,23.44,23.08,35.24,34.44,9.49,9.14,19.03,18.24,28.84,27.03,8.99,8.04,18.9,15.09,27.45,23.55,10.22,10.11,19.84,20.91,28.92,32.07,5.55,6.81,5.18,15.88,5.14,24.24-.15,31.29-.06,62.61-1.21,93.87-.96,26.03-2.42,52.13-5.72,77.94-2.75,21.52-8.52,42.64-12.88,63.96-1.43,7-2.44,14.1-4.01,21.07-1.04,4.62-1.92,9.58-4.3,13.53-10.9,18.11-17.71,37.99-25.73,57.36-1.27,3.08-2.58,6.18-4.29,9.02-.62,1.02-2.48,1.29-3.77,1.9-.19-1.39-.98-3.06-.48-4.13,10.22-21.68,17.43-44.69,29.63-65.56,3.9-6.68,4.44-15.41,6.12-23.29,4.89-22.83,10.39-45.57,14.09-68.59,2.69-16.71,3.12-33.81,4.16-50.76,1.15-18.56,2.24-37.14,2.64-55.73,.52-23.99,.01-48.01,.57-72,.38-16.2-8.68-26.98-19.27-37.14-13.06-12.53-26.35-24.82-39.42-37.33-9.16-8.77-18.12-17.77-27.2-26.63-1.42-1.39-3.08-2.54-5.44-3.21,1.56,4.07,3.55,8.03,4.6,12.23,4.33,17.35,6.34,35.01,6.19,52.91-.1,11.61-.27,23.22-.13,34.83,.05,4.09-1.63,6.14-5.4,7.12-7.2,1.88-14.36,3.92-21.18,5.79,6.48,9.35,12.92,18.42,19.03,27.73,.78,1.19,.46,4.61-.46,5.18-15.07,9.23-21.32,25.05-28.91,39.52-11.58,22.08-22.55,44.53-32.61,67.34-10.69,24.25-20,49.1-29.92,73.69-.57,1.42-1.19,2.81-2.17,4.09,2.04-13.81,3.34-27.67,9.56-40.57,6.33-13.16,11.27-26.99,17.67-40.11,14.28-29.25,28.77-58.42,43.93-87.23,3.94-7.49,10.66-13.51,16.26-20.4-3.49-5.19-7.51-11.44-11.81-17.49-1.82-2.56-4.36-4.61-6.33-7.08-3.42-4.29-2.32-7.15,2.85-8.44,7.23-1.81,14.47-3.63,21.59-5.83,1.49-.46,3.51-2.59,3.51-3.95-.09-24.93,1.6-49.93-3.06-74.7-3.38-17.96-10.33-33.92-23.76-46.69-3.42-3.25-6.47-6.89-9.9-10.13-.85-.81-2.57-1.3-3.74-1.08-4.8,.88-9.53,2.08-14.76,3.27-1.25,5.18,1.04,9.92,4.29,13.99,3.84,4.81,8.36,9.08,12.57,13.59,6.83,7.32,13.66,14.66,16.24,24.77,2.88,11.3,.53,22.02-3.5,32.6-1.41,3.7-2.78,7.48-3.55,11.34-3.27,16.57-7.83,32.65-15.38,47.88-7.32,14.76-7.99,31.31-11.71,47.04-3.61,15.25-7.28,30.5-11.48,45.59-2.46,8.86-5.73,17.52-9.1,26.09-7.67,19.49-15.77,38.81-23.31,58.34-1.35,3.49-.73,7.71-1.19,11.57-5.42,45.85-7.14,91.91-8.29,138.02-.06,2.38-.14,4.82-.72,7.09-.28,1.08-1.78,1.85-2.73,2.76-.8-1.18-2.31-2.39-2.28-3.55,.32-13.19,.76-26.37,1.41-39.55,.79-15.88,1.4-31.78,2.85-47.6,1.74-18.98,4.65-37.85,6.27-56.83,.65-7.66-.78-15.49-1.26-23.24-.79-12.84-1.65-25.68-2.36-38.53-.96-17.38-4.23-34.36-8.7-51.12-5.97-22.39-12.2-44.72-18.2-67.1-2.63-9.8-4.99-19.67-7.28-28.77-2.09-.37-3.68-.65-5.27-.93,1.19-1.23,2.38-2.45,4.2-4.32-4.17-12.1-8.75-24.95-12.98-37.91-1.88-5.75-3.08-11.73-4.71-18.1-9.45-1.54-9.63,1.1-24.51-10.23,.16,2.69,.28,4.94,.43,7.18,1.38,20.29,2.79,40.57,4.12,60.87,.16,2.43,.9,3.77,3.54,4.06,5.04,.55,10.08,1.26,15.08,2.11,1.73,.29,4.49,.88,4.77,1.89,.45,1.62-.42,3.91-1.34,5.57-4.15,7.5-8.4,14.94-12.84,22.26-2.02,3.34-1.86,6.41-.59,9.94,10.31,28.55,21.19,56.92,30.54,85.78,8.17,25.22,14.83,50.94,21.61,76.58,1.65,6.25,1.17,13.07,1.67,19.63l-1.18,.12c-3.64-13.75-7.1-27.56-10.97-41.25-8.29-29.36-16.35-58.78-27.62-87.22-6.96-17.57-12.71-35.62-19.12-53.41-1.57-4.34-1.42-8.2,.99-12.27,4.34-7.32,8.33-14.84,12.63-22.56-5.44-.83-10.87-1.69-16.31-2.48-3.55-.52-4.96-2.33-5.12-6.08-.8-19.05-2.49-38.08-2.62-57.12-.07-10.49-1.88-20.27-5.18-30.03-.79-2.34-.8-5-.87-7.52-.13-4.73-.04-9.47-.04-15.88-15.34,10.73-29.52,20.64-43.42,30.36,1.22,2.91,2.11,5.03,3,7.15-.4,.24-.8,.49-1.2,.73-1.5-1.26-3.01-2.52-5.26-4.4-1.9,3.55-4.36,6.64-5.27,10.12-3.47,13.36-7.6,26.69-9.37,40.32-3.94,30.38-7.04,60.89-9.65,91.42-2.29,26.73-5.87,53.43-4.5,80.38,.07,1.43,.06,2.88,.35,4.27,4.5,21.77,8.78,43.6,13.68,65.28,2.83,12.54,7.49,24.69,9.88,37.3,2.81,14.79,6.2,30.01,5.32,44.81-.77,12.99,1.29,25.6,.99,38.39-.06,2.37,1.49,4.73,1.86,7.16,.45,2.92,.73,5.94,.45,8.85-.1,1.08-2.02,2.74-3.11,2.74-1.08,0-2.84-1.59-3.12-2.76-.79-3.37-1.53-6.91-1.31-10.32,1.57-23.94-.12-47.71-3.9-71.3-1.72-10.77-4.93-21.29-7.25-31.97-4.42-20.32-8.69-40.68-13.04-61.02-.87-4.04-1.48-8.18-2.85-12.05-4.55-12.83-3.89-25.82-2.45-39.07,2.06-18.95,3.24-38,4.99-56.99,.73-7.91,2.09-15.75,2.95-23.65,2.55-23.36,4.87-46.75,7.58-70.1,.71-6.11,2.3-12.15,3.9-18.11,2.63-9.81,5.2-19.67,8.62-29.21,1.43-3.98,4.28-8.15,7.66-10.61,12.29-8.95,24.91-17.46,37.73-25.64,7.06-4.51,7.75-5.13,4.25-12.58-2.42-5.15-4.84-10.31-7.59-15.28-.54-.98-2.57-1.41-3.97-1.58-8.65-1.02-15.61-8.15-14.24-15.21,.52-2.68,2.26-5.13,3.72-8.29-2.34-.19-4.62-.57-6.91-.54-13.92,.17-26.93-10.95-23.47-29.09,.15-.78,.32-1.56,.5-2.33,.55-2.35,.41-6.03,1.81-6.76,2.61-1.36,6.11-1.24,9.24-1.31,7.11-.15,14.23-.05,22-.05-3.81-5.02-2.51-9.98-1.46-15.35,.66-3.37-1.36-7.26-2.17-10.92-.45-.17-.89-.33-1.34-.5-2.03,2.75-4.06,5.5-5.42,7.36-4.92-1.52-8.26-2.55-11.82-3.65,1.76-8.15,8.23-11.45,14.69-16.6-2.25-3.37-4.61-6.85-6.92-10.36-.68-1.03-1.78-2.19-1.72-3.23,.53-8.45-2.46-16.95,1.09-25.41,1.97-4.69,5.47-7.13,9.43-9.52,2.29-1.39,5.4-2.64,6.38-4.77,5.33-11.57,15.13-18.94,24.74-26.7Zm-26.17,108.92c2.66-1.73,5.18-4.59,8.02-4.96,6.49-.84,13.33-1.14,17.98,5.57,1.2-5.67-2.06-11.38-7.32-13.62-4.75-2.02-11.28-.35-13.85,3.82-1.81,2.94-3.23,6.13-4.82,9.22,.22,9.08,4.25,12.82,12.04,10.79-6.53-3.32-3.62-8.52-2.68-13.33-.33-.3-.67-.59-1-.89-2.3,1.98-4.6,3.95-7.08,6.09-.37-.78-.83-1.74-1.28-2.7Zm67.03,147c2.46,6.11,5,11.27,6.63,16.71,3.3,11.01,9.11,20.11,18.18,27.24,5.96,4.69,11.58,9.81,17.46,14.6,4.39,3.57,7.87,2.31,11.75-1.73,7.08-7.36,14.37-14.74,22.54-20.79,7.31-5.41,15.91-9.09,23.97-13.46,7.06-3.83,11.32-12.73,9.25-20.57-1.25-4.74-3.05-9.36-4.94-13.9-6.23-14.96-12.2-29.98-14.08-46.28-.13-1.1-1.42-2.3-2.47-3.02-5.26-3.6-7.43-7.47-5.76-12.85,1.69-5.44,5.65-9.31,11.35-13.19-.5,1.93-.5,2.62-.82,3.06-1.6,2.16-3.24,4.31-4.96,6.38-4.86,5.82-2.82,13.01,4.57,14.69,8.88,2.03,16.65-1.07,23.22-6.92,4.66-4.14,6.69-9.84,8.1-15.88,.85-3.62,2.05-7.57,4.32-10.38,9.06-11.2,16.43-23.02,18.81-37.61,.74-4.5,.61-7.95-2.76-11.25-3.44-3.38-7.66-3.86-11.47-2.28-8.12,3.37-16.68,6.35-21.22,15.04-1.97,3.77-4.49,7.26-6.74,10.83-1.8-2.89-1.05-6.07,.94-9.2,4.81-7.58,10.23-14,19.13-17.66,9.19-3.77,17.32-6.47,24.96,3.1-1.49-13.47-12.71-22.86-25.02-16-11.31,6.3-22.31,14.07-24.04,29.61-4.05-7.34-.05-12.43,3.59-17.69-1.67,.26-2.88,.61-3.93,1.23-12,7.15-24,14.29-35.93,21.55-2.83,1.72-5.78,3.5-8,5.88-2.84,3.03-5.98,4.58-10.03,4.51-3.23-.05-5.48,.64-5.28,4.77,.08,1.69-1,3.71-2.11,5.16-6.81,8.94-14.03,17.25-27.17,13.64-.25-.07-.58,.19-.88,.3-4.13,12.11-12.48,17.99-25.67,14.28-4.75-1.34-10.26-2.11-14.95-1.04-7.43,1.7-14.47,5.16-22.07,8.03,.66,1.36,1.36,2.81,1.83,3.79,6.07-1.36,11.42-2.77,16.85-3.72,3.5-.61,7.5-1.67,10.61-.6,8.71,3,17.53,2.3,26.39,2.37,9.99,.08,18.23-3.25,23.3-11.22-.33-2.37-.57-4.06-.81-5.76,1.67,.4,3.38,.68,5,1.22,2.36,.8,4.74,1.63,6.94,2.77,1.08,.56,1.78,1.85,2.65,2.81-1.04,.72-2,1.71-3.15,2.06-.98,.3-2.29,.13-3.27-.29-3.47-1.46-5.61,.2-7.84,2.62-2.23,2.41-4.57,5.01-7.4,6.52-12.22,6.54-25.54,5.43-38.11,2.62-9.35-2.09-17.86-.17-26.73,.62-.81,.07-1.55,.89-2.72,1.6,6.5,7.46,7.09,16.23,6.67,25.29-.16,3.33-.67,6.83,.1,9.98,1.44,5.92,2.25,12.87,5.91,17.18,7.03,8.27,16.69,12.34,28.05,8.84,9.81-3.02,20.13-4.98,29.27-9.41,12.39-6,23.54-14.5,35.81-20.78,10.36-5.31,15.7-13.87,19.73-23.96,.58-1.45,1.25-2.87,1.88-4.31,.5,.18,1.01,.37,1.51,.55-.59,2.35-.95,4.8-1.84,7.03-1.06,2.64-3.14,4.95-3.82,7.65-2.07,8.31-7.88,13.21-14.79,17.13-14.21,8.06-28.51,15.98-42.81,23.89-1.36,.75-2.97,1.09-4.49,1.47-4.27,1.05-8.56,2.02-13.22,3.11Zm48.65,104.21c.07,13.9-2.72,27.66-5.76,41.44-1.99,9.02-4.65,17.8-3.09,27.64,3.18,20.05,4.99,40.32,7.18,60.52,.81,7.51,1.11,15.07,1.64,22.61,1.29-.95,1.83-2,2.2-3.11,7.79-23.01,15.68-45.98,23.22-69.07,1.28-3.92,2.15-8.56,1.35-12.49-4.55-22.32-9.66-44.52-14.42-66.04-4.71-.57-8.52-1.03-12.33-1.5Zm35.55-12.83c4.68-10.47,9.34-20.85,13.96-31.25,4.44-9.97,8.32-20.01,16.65-27.95,10.71-10.2,13.72-31.6,6-43.9-5.32-8.47-12.75-15.61-19.23-23.34-.53,.4-1.05,.79-1.58,1.19,2.4,3.84,4.81,7.68,7.2,11.53,2.81,4.53,6.16,8.83,8.3,13.65,5.89,13.27-5.3,31.12-15.23,35.81-10.91,5.15-21.3,11.59-31.34,18.33-4.97,3.34-8.66,8.6-12.78,12.83,2.31,2.81,4.43,4.65,5.61,6.96,3.24,6.35,5.8,13.07,9.25,19.3,1.36,2.45,4.17,4.37,6.73,5.79,1.81,1,4.31,.75,6.44,1.05Zm-93.87-171.77c9.37,.78,16.38-4.52,16.71-12.42-13.45-1.05-25.2-5.02-32.95-17.45-3.21-5.16-4.5-10.14-3.26-15.72,.87-3.89,.88-7.03-3.26-8.61-3.8-1.45-7.2,.35-9.09,4.66-1.96,4.49-2.94,9.64-5.74,13.49-5.07,6.97-10.85,13.49-16.93,19.61-4.87,4.91-7.37,10.48-4.55,14.1,2.66,3.42,5.93,5.73,10.68,6.22,6.2,.64,11.8-.07,17.47-2.78,5.41-2.59,11.1-5.02,16.93-6.17,5.21-1.03,10.78-.22,17.41-.22-1.75,2.7-2.48,3.82-3.43,5.29Zm127.64,117.62c-.84-.4-1.67-.8-2.51-1.2-3.01,4.83-6.44,9.45-8.95,14.53-4.15,8.37-7.78,17.01-11.5,25.59-2.08,4.8-5.2,9.63-5.47,14.58-.27,4.9-2.91,5.06-5.55,4.7-6-.83-12.56-.85-16.35-7.38-5.25,14.34-4.97,18.85-.46,32.2,3.08,9.13,5.29,18.57,7.65,27.93,1.66,6.61,2.92,13.32,4.36,19.99,1.41-1.67,2.1-3.27,2.47-4.95,3.44-15.62,7.03-31.22,10.16-46.91,2.81-14.08,7.1-27.47,13.08-40.62,5.58-12.26,8.8-25.6,13.07-38.46Zm-144.46-165.51c.87,4.99,.28,10.02,2.51,12.7,4.25,5.1,9.66,9.62,15.4,12.99,8,4.7,17.45,4.2,26.43,4.45,8.2,.23,15.75-4.49,17.49-11.45,1.54-6.14,1.44-12.69,2.02-18.69h-63.86Zm33.27,170.66c-.32,.14-.63,.28-.95,.42,10.17,36.59,20.34,73.18,30.51,109.77,.42-.06,.85-.11,1.27-.17,.88-3.48,1.85-6.95,2.64-10.46,3.17-14.09,6.56-28.23,4.59-42.79-.79-5.83-3.34-11.28-8.9-14.62-.92-.56-1.37-1.96-1.97-3.01-1.53-2.71-2.8-5.6-4.59-8.12-3.48-4.91-7.33-9.56-10.87-14.42-3.99-5.47-7.82-11.06-11.73-16.6Zm-51.66-172.71c-4.94,0-9.62,.03-14.29,0-9.48-.08-18.97-.42-28.44-.12-2.3,.07-5.6,1.63-6.61,3.5-3.25,6-.32,16.99,5.06,21.08,7.38,5.61,15.92,5.42,24.51,4.48,1-.11,2.11-.84,2.85-1.6,7.66-7.81,15.26-15.68,16.92-27.33Zm94.24,194.13c-1.86-.37-5.08-1.02-8.58-1.73-.86,2.98-1.36,6.17-2.69,8.97-2.23,4.69-.95,8.6,1.7,12.47,1.08,1.57,2.1,3.17,3.21,4.72,2.84,3.99,5.51,8.13,8.64,11.88,2.36,2.83,6.89,2.81,8.23,.31,1.17-2.18,2.36-4.44,2.99-6.81,1.36-5.06,2.46-9.76-2.36-14.39-4.2-4.03-6.99-9.52-11.15-15.42Zm-16,9.48c.57-.14,1.13-.27,1.7-.41,1.06-3.27,2.41-6.49,3.06-9.85,.28-1.41-.46-3.58-1.51-4.58-2.85-2.72-6.1-5.04-9.23-7.46-11.53-8.93-21.03-19.2-24.12-34.2-1.1-5.33-3.27-10.44-4.9-15.5-5.12,.52-4.98,3.95-4.27,6.52,1.67,6.08,3.32,12.35,6.25,17.86,3.86,7.25,8.81,13.95,13.55,20.71,6.36,9.06,12.96,17.95,19.46,26.91Zm-18.92-230.86c-3.56,1.15-8.02,1.35-10.49,3.67-4.45,4.19-2.42,12.78,2.74,16.26,7.59,5.11,15.76,4.26,23.8,2,1.96-.55,4.04-3.53,4.56-5.75,.76-3.23-.55-6.36-4.73-8.09,.43,5.65-.91,10.15-6.38,11.77-4.3,1.28-8.13-.6-10.42-4.07-3.25-4.92-1.64-9.95,.91-15.8Zm100.57-3.79c.77,.14,1.55,.28,2.32,.42,5.45-10.28,5.19-21.37,3-32.51-2.35-11.98-9.69-20.06-21.18-25.6,0,1.84,.12,2.8-.02,3.72-.67,4.34,.59,6.97,5.31,8.17,2.91,.74,6.19,2.47,7.98,4.78,7.13,9.16,5.76,19.98,4.78,30.55-.33,3.53-1.43,6.99-2.18,10.48Zm-108.61,3.02c14.07-4.99,23.56,1.81,31.7,12,3.53-7.16-2.97-17.97-13.42-21.42-6.94-2.29-15.77,2.15-18.28,9.42Zm105.08-8.62l1.46,.11c.47-1.56,1.39-3.14,1.34-4.69-.2-6.63-.3-13.31-1.17-19.87-1.03-7.81-6.18-12.3-13.98-14.93,.18,3.5,.33,6.45,.48,9.23,8.62,2.82,10.14,5.16,10.43,13.95,.18,5.41,.94,10.8,1.44,16.2Zm-190.6-35.29c2.8-6.32,5.6-12.64,8.81-19.88-7.73,4.26-11.63,12.59-8.81,19.88Zm176.12-31.01c.51,11.05,.91,11.55,12.2,15.5-4.28-5.45-7.92-10.07-12.2-15.5Zm26.41,66.43c4.8-.69,6.16-10.91,2.78-17.24-.83,5.14-1.81,11.23-2.78,17.24Zm-21.62-26.91c-.68,.35-1.36,.7-2.04,1.05-.53,4.44,1.61,7.29,5.51,9.09,.48-.26,.96-.52,1.44-.78-1.63-3.12-3.27-6.24-4.9-9.36Z"/>
    <path d="M549.83,497.65c.17,1.07,.77,2.3,.44,3.17-5.95,15.62-4.53,32.04-4.59,48.14-.09,23.5,1.03,47.01,1.88,70.5,.17,4.65-1.11,8.42-3.07,12.59-9.92,21.11-20.18,42.13-28.68,63.82-8.04,20.51-14.75,41.62-20.69,62.86-3.96,14.15-5.52,28.98-8.17,43.5-.91,4.99-1.7,10.01-2.95,14.92-.37,1.45-2.13,2.54-3.25,3.8-.92-1.44-2.45-2.82-2.61-4.34-.2-1.95,.74-4,1.12-6.03,2.92-15.44,4.86-31.14,8.95-46.26,5.97-22.04,13.39-43.7,20.36-65.47,8.07-25.22,20.11-48.68,32.32-72.06,.78-1.5,1.59-3.23,1.6-4.86,.03-7.78,.07-15.57-.4-23.33-1.68-27.64-1.79-55.27,.71-82.84,.57-6.22,3.27-12.24,4.99-18.35,.68,.09,1.35,.17,2.03,.26Z"/>
    <path d="M290.21,473.28c.17,1.3,.53,2.6,.48,3.89-1.26,33.8,2.38,67.24,6.81,100.67,2.38,17.94,3.01,36.1,5.36,54.04,2.83,21.56,6.93,42.95,9.97,64.49,1.97,13.97,3.04,28.07,4.47,42.12,.14,1.41,.3,2.95-.11,4.26-.36,1.14-1.5,2.04-2.29,3.05-.89-1.11-2.37-2.13-2.57-3.35-1.13-7.05-1.96-14.15-2.88-21.23-2.38-18.24-4.9-36.47-7.09-54.74-3.21-26.8-6.23-53.62-9.25-80.44-2.15-19.09-4.88-38.16-6.03-57.31-.96-15.97-.06-32.06,.2-48.1,.04-2.5,1.05-4.98,1.6-7.47,.44,.04,.88,.09,1.32,.13Z"/>
    <path d="M371.69,170.28c3.03-6.26,6.61-10.13,12.21-12.15,14.63-5.27,29.31-8.4,43.2,1.39,4.36,3.07,7.51,7.93,10.95,12.18,.64,.8,.04,2.61,0,3.95-1.39-.24-2.97-.15-4.14-.79-3.8-2.09-7.45-4.45-11.52-6.92-1.81,3.81-3.97,3.25-6.86,.37-3.36-3.34-7.65-4.79-12.56-4.75-9.15,.08-18,.81-25.7,6.62-1.02,.77-3.13,.11-5.58,.11Z"/>
    <path d="M477.33,282.24c8.29,2.39,12.85,8.85,16.77,15.98-5.59-5.33-11.18-10.65-16.77-15.98Z"/>
    <path d="M486.42,279.16c7.93,2.26,9.25,10.37,14.55,14.96-.47,.4-.93,.81-1.4,1.21-4.38-5.39-8.77-10.78-13.15-16.18Z"/>
    <path d="M292.54,374.15c3.53,7.33,2.71,12.31-2.62,16.94,.89-5.77,1.66-10.77,2.62-16.94Z"/>
    <path d="M360.85,344.38c-.55,5.91-1.1,11.81-1.65,17.72-1.01-6.06-2.72-12.16,1.65-17.72Z"/>
    <path d="M350.05,364.62v-15.77c.32,0,.65,0,.97,0v15.7c-.32,.03-.65,.05-.97,.08Z"/>
    <path d="M294.71,340.09c3.52,4.69,3.33,8.33-.59,11.8,.18-3.52,.35-7.04,.59-11.8Z"/>
    <path d="M490.99,416.16c1.47,1.62,2.59,2.84,3.7,4.07-1.02,.68-2.32,2.13-3.02,1.88-1.55-.54-2.79-1.94-4.16-2.99,.95-.8,1.89-1.61,3.48-2.97Z"/>
    <path d="M604.36,397.17c-3.58,1.85-6.43,3.32-9.65,4.99,2.44-5.4,4.72-6.71,9.65-4.99Z"/>
    <path d="M508.28,224.44c.38-3.87,.93-7.73,1.09-11.6,.17-4.09-2.29-4.94-5.64-3.69-6.48,2.42-9.56,7.86-12.87,13.97,0-1.68-.46-3.52,.08-5.01,2.05-5.63,5.01-10.92,10.98-12.96,2.65-.91,6.48-.84,8.77,.49,1.75,1.02,2.95,4.9,2.59,7.22-.64,4.11-2.65,8.01-4.08,12-.31-.14-.62-.29-.92-.43Z"/>
  </g>
</svg>