<svg id="Groupe_48" data-name="Groupe 48" xmlns="http://www.w3.org/2000/svg" xmlns:xlink="http://www.w3.org/1999/xlink" width="186.905" height="363.059" viewBox="0 0 186.905 363.059">
  <defs>
    <clipPath id="clip-path">
      <path id="Tracé_665" data-name="Tracé 665" d="M100.055,2.881c-4.914.855-16.879,3.2-20.511,4.273s-15.383,3.2-18.375,6.837c-.826,1-4.386,5.973-5.291,10.465s-3.255,16.67-4.11,19.661-.213,14.956-.213,14.956-1.5-3.846-4.914-2.564-7.478,5.128-7.478,6.2,2.991,11.751,3.846,14.528,4.7,14.315,5.342,14.743a39.135,39.135,0,0,0,4.914,1.5,50.659,50.659,0,0,1-.9,6.707c-.591,2.267-1.873,3.122,2.187,9.318S64.8,127.871,64.8,127.871a33.282,33.282,0,0,1,1.5,7.264c0,2.564-.855,9.4-.855,9.4s-.214,1.709-.641,3.632.427,9.828-.855,11.11l-4.914,4.914s-7.264,8.76-9.187,10.9-3.632,6.837-5.982,7.905S17.37,203.506,10.106,206.07,2.414,219.1,2.414,219.1s0,35.681,1.282,38.031,4.487,24.784,4.914,26.28,7.264,42.3,7.051,44.868.589,15.627.589,15.627S52.3,364.562,99.541,364.565h.007A147.305,147.305,0,0,0,180.5,340.954s1.39-15.449,1.818-16.3,5.982-28.63,5.128-30.126-2.991-38.672-2.564-42.945.427-33.758-1.282-34.827-27.562-13.673-29.484-14.742-21.366-19.977-22.862-20.618-7.692-8.974-11.217-15.49c-.875-1.616-5.555-1.816-4.273-4.807s.214-14.635.214-14.635.107-8.546.107-9.187,2.777-17.093,2.777-17.093c1.709-.855,7.905-11.751,8.76-13.674s1.709-9.615,1.709-10.256a6.338,6.338,0,0,1,2.564-3.418c1.068-.427,2.991-8.332,5.128-11.11s4.892-11.554,4.475-12.294a56.087,56.087,0,0,1-3.144-7.8c-.263-1.483-3.468-4.26-5.391-2.978s-2.564-2.564-2.564-2.564l.855-11.751s1.709-12.179,2.35-13.674-2.564-13.674-5.342-15.17-15.6-7.478-15.6-8.119c0-.588-6.47-4.59-11.333-4.59a7.425,7.425,0,0,0-1.273.1" transform="translate(-2.414 -2.778)" fill="none"/>
    </clipPath>
    <linearGradient id="linear-gradient" x1="-0.006" y1="1" x2="-0.003" y2="1" gradientUnits="objectBoundingBox">
      <stop offset="0" stop-color="#5d585a"/>
      <stop offset="0.978" stop-color="#aeb9b0"/>
      <stop offset="1" stop-color="#aeb9b0"/>
    </linearGradient>
    <clipPath id="clip-path-2">
      <rect id="Rectangle_12" data-name="Rectangle 12" width="186.905" height="363.059" fill="none"/>
    </clipPath>
  </defs>
  <g id="Groupe_45" data-name="Groupe 45" transform="translate(1.105 1.272)">
    <g id="Groupe_44" data-name="Groupe 44" clip-path="url(#clip-path)">
      <rect id="Rectangle_11" data-name="Rectangle 11" width="185.882" height="361.789" transform="translate(0 0)" fill="url(#linear-gradient)"/>
    </g>
  </g>
  <g id="Groupe_47" data-name="Groupe 47">
    <g id="Groupe_46" data-name="Groupe 46" clip-path="url(#clip-path-2)">
      <path id="Tracé_666" data-name="Tracé 666" d="M174.666,339.447c.8-3.73,1.537-7.475,2.409-11.189,1.563-6.647,3.207-13.275,4.817-19.912.961-3.964,1.947-7.922,2.869-11.895.3-1.308,1.2-2.7-.286-3.926-.14-.115-.069-.517-.057-.784.372-8.217-.638-16.33-1.784-24.436a28.139,28.139,0,0,1-.233-3.864c-.029-12.062-.025-24.125-.053-36.187-.008-3.183-.094-6.368-1.511-9.324-.3-.621-.674-1.2-1.006-1.789l-3.954,4.729c-.474-2.33.089-3.626,2.7-5.973a7.656,7.656,0,0,0-4.393-3.26c-4.891-1.553-9.093-4.3-13.328-7.1-5.5-3.637-11.241-6.915-16.819-10.441a56.077,56.077,0,0,1-5.4-4.051c-1.665-1.359-3.242-2.83-4.825-4.286-.58-.534-1.07-1.168-1.767-1.941-.335,1.093-.662,2.124-.967,3.162a137.02,137.02,0,0,0-4.347,22.305c-.793,6.557-1.376,13.14-2.078,19.708-.268,2.512-1.646,3.261-3.88,1.987-2.8-1.6-5.78-1.851-9.245-1.621a29.885,29.885,0,0,0,1.48,3.9,55.018,55.018,0,0,1,5.371,13.926,2.681,2.681,0,0,1-.831,1.959c-1.218,1.275-2.717,2.293-3.87,3.618a62.336,62.336,0,0,0-10.126,15.852c-2.29,5.213-4.456,10.482-6.558,15.773-1.752,4.411-2.1,9.037-2.128,13.773-.056,8.389-.474,16.774-.709,25.162-.113,4.036-.133,8.075-.237,12.111-.034,1.34-.2,2.677-.305,4.015h-4.2c.319-6.611.516-13.232,1-19.831.4-5.522,1.2-11.014,1.7-16.53a62.906,62.906,0,0,0,.428-9.339c-.458-7.8-1.716-15.433-5.907-22.3a40.588,40.588,0,0,1-2.956-6.268,31.02,31.02,0,0,0-14.928-16.494,11.521,11.521,0,0,0-3.881-.782c-1.191-.147-1.608-.6-1.235-1.814,1.011-3.285,1.882-6.615,2.95-9.88.85-2.6,1.894-5.128,2.882-7.676.283-.732.669-1.424,1.232-2.6-1.155.335-1.836.542-2.523.73-1.34.367-2.669.8-4.029,1.063-1.171.229-1.956-.356-1.842-1.59.388-4.2-.66-8.244-1.4-12.3-.725-3.953-1.859-7.83-2.591-11.782A53.667,53.667,0,0,0,53.039,187.9c-1.767-3.535-3.854-6.909-5.992-10.7-1.373,1.342-2.489,2.452-3.626,3.54-2.249,2.154-4.541,4.265-6.758,6.453a57.027,57.027,0,0,1-11.352,8.429c-6.329,3.724-12.491,7.735-18.716,11.637a12.73,12.73,0,0,0-1.254,1.023c1.911,1.215,4.379,5.371,4.9,8.879l-5.851-8.095c-1.214,1.992-2.14,3.584-2.152,5.668-.035,6.076-.222,12.151-.344,18.226a112.246,112.246,0,0,0,3.02,27.847A182.829,182.829,0,0,1,8.13,282.664c.324,2.966,1,5.893,1.521,8.837.038.212.082.423.12.634q4.052,22.777,8.1,45.555c.1.579.129,1.171.191,1.756-1.49,1.718-3.124,6.152-4.2,0-.577-4.861-1.139-9.724-1.734-14.583-.929-7.581-1.913-15.155-2.8-22.74-.325-2.767-.189-5.616-.787-8.311-.253-1.137-.8-2.279-.979-3.527-.353-2.424-1.128-4.807-1.278-7.235-.6-9.762-2.8-19.253-4.51-28.836a119.807,119.807,0,0,1-1.551-27.99c.221-3.808.306-7.631.277-11.445a9.082,9.082,0,0,1,3.237-7.266,62.158,62.158,0,0,1,7.7-5.265c8.016-4.916,15.946-9.938,23.108-16.086,2.119-1.819,4.441-3.4,6.616-5.154a43.648,43.648,0,0,0,4.173-3.729c.548-.573.546-1.649,1.054-2.29q5.863-7.386,11.851-14.67a6.02,6.02,0,0,1,1.984-1.6A3.673,3.673,0,0,0,62.5,155c-.119-3.155-.239-6.319-.588-9.453-.177-1.589.83-2.257,1.622-3.221a3.428,3.428,0,0,0,.934-1.972c-.146-3.973-.467-7.938-.669-11.909-.132-2.582-1.753-4.453-2.95-6.531-1.634-2.837-3.237-5.693-4.943-8.486a56.126,56.126,0,0,0-4.112-6.159,10.427,10.427,0,0,1-1.511-11.735,20.9,20.9,0,0,0,.773-2.5c-3.562-.546-5.515-2.5-6-5.914a8.868,8.868,0,0,0-.571-1.675c-1.511-4.193-3.007-8.391-4.543-12.574-.721-1.962-1.692-3.848-2.254-5.851C35.657,59.8,42.162,53.831,47.8,54.725a6.6,6.6,0,0,0,.833,0c0-1.063,0-2.106,0-3.15,0-1.015.01-2.03.01-3.045,0-.267.091-.622-.044-.787-2.095-2.567-.119-5.013.252-7.482.13-.866.844-1.628,1.1-2.494a17.4,17.4,0,0,0,.423-2.726c.09-.677.119-1.364.238-2.035.4-2.258,1.011-4.494,1.221-6.768.66-7.123,3.069-13.527,9.663-16.089C68.06,7.6,74.7,5.255,81.328,2.9c1.662-.589,3.459-.781,5.158-1.282A28.919,28.919,0,0,1,96.659.039a32.276,32.276,0,0,1,13.565,4.2,24.228,24.228,0,0,1,3.41,2.373,7.007,7.007,0,0,1,1.108,1.59c4.289-.56,7.889,1.306,11.173,3.867,7.265,5.664,7.655,13.37,5.933,21.491-.548,2.582-1.869,5-2.83,7.5-1.2,1.8-2.941,3.308-3.074,5.688-1.748-.345-1.479-1.7-1.2-2.791.989-3.849,2.1-7.668,3.19-11.491a5.474,5.474,0,0,1,.568-1.054l.388.069c-.112,1.691-.225,3.382-.354,5.331,2.9-5.475,2.731-14.984-.437-18.7,3.085,7.281.738,12.08-2.654,15.3-1.577-6.775-7.172-10.6-10.972-15.8a30.372,30.372,0,0,1,5.324,3.672c1.666,1.416,3.215,2.97,4.845,4.492-1.18-6.5-5.489-9.658-11.949-10.861a3.774,3.774,0,0,1,4.209-.763c5.853,1.749,9.36,5.655,10.349,11.744a6.363,6.363,0,0,0,.276.884,8.641,8.641,0,0,0-.041-2.78c-.881-5.245-3.55-9.188-8.54-11.283a8.513,8.513,0,0,0-3.283-.437c-1.026.008-2.156.692-2.687-.855-.036-.1-.6-.114-.875-.028a10.783,10.783,0,0,0-1.945.766q-6.086,3.313-12.137,6.69a18.367,18.367,0,0,0-2.06,1.542c-1.916,1.464-3.8,2.968-5.754,4.384-1.609,1.169-3.374,2.132-4.921,3.372a13.934,13.934,0,0,1-6.794,2.722A47.231,47.231,0,0,1,58.36,29.543c-.444-.123-1.208-.107-1.433.166-1.627,1.978-3.153,4.039-4.711,6.074l.4.33c1.92-2.04,3.649-4.362,6.754-4.7-2.08,2.317-4.321,4.456-5.655,7.292,1.07-.771,1.957-1.717,2.972-2.5.979-.751,2.09-1.329,3.144-1.983l.226.346-6.612,7.679,5.022-2.533.249.366-6.269,6.912.36.323,4.5-2.005.475.645c-1.678,2.033-4.94,2.762-5.354,5.862,2.5-2,3.032-2.226,5.071-1.917-2.32,1.761-4.079,3.635-4.364,6.574l2.794-1.826.319.324c-1.852,1.585-3.571,3.239-3.316,5.919l-1.306-2.076-.33.039.577,2.774c-.9-1.279-1.485-2.7-2.28-3.989a3.856,3.856,0,0,0-1.9-1.781c-4-.944-8.922,3.689-8.459,7.821,2.368-4.832,6.493-5.4,10.144-1.4.779.852,1.556,1.705,2.374,2.6.393-1.41.761-2.728,1.128-4.047l3.173-2.578.1.269-3.717,8.15,1.4,3.217c.455-1.33.444-2.627.746-3.848a27.056,27.056,0,0,1,1.4-3.546l.646.206c-.069.522-.125,1.046-.209,1.566-.135.832-.264,1.667-.439,2.49-.436,2.045-.042,4.16-.241,6.138-.876,8.7-1.527,17.473-4.682,25.778a5.2,5.2,0,0,0,.383,4.81c1.06,1.677,2.062,3.392,3.148,5.05,1.027,1.566,2.244,3.017,3.176,4.634,1.5,2.6,2.834,5.3,4.234,7.962,1.29,2.452,2.574,4.908,3.935,7.5-1.634-.085-1,.87-.976,1.479.22,4.827.645,9.654.6,14.478a3.2,3.2,0,0,0,2.129,3.466,102.383,102.383,0,0,0,11.872,4.479c3.187.85,6.626.762,9.955,1.076,2.315.218,4.632.413,6.949.615,6.135.535,11.3-2.113,16.332-5.09a2.26,2.26,0,0,0,.762-1.628c.243-4.4.31-8.8.626-13.192.226-3.144.753-6.266,1.13-9.276a3.714,3.714,0,0,1-4.773.739c.389-.182.713-.347,1.048-.486.726-.3,1.739-.379,2.14-.917a68.584,68.584,0,0,0,5.26-7.716c2.826-5.124,5.426-10.375,8.016-15.624a6.408,6.408,0,0,0,.514-3.118c-.184-2.885-.546-5.76-.842-8.639-.451-4.385-.974-8.765-1.334-13.158-.261-3.179-1.57-6.293-.625-9.564.108-.374-.151-.853-.24-1.284l-.389.045c0,.651.048,1.307-.014,1.952a16.374,16.374,0,0,1-.353,1.756l-.811-.143c.336-2.556.671-5.112,1.053-8.034l-1.375,2.024a8.588,8.588,0,0,1-.061-1.472c.441-2.528.824-5.072,1.4-7.572.552-2.4,1.312-4.753,1.98-7.128l.993.487c.419-1.21.932-2.674,1.433-4.143.229-.671.433-1.351.649-2.027l1.637-.866V56.736c.9-.121,1.624-.212,2.34-.315,2.6-.375,4.585.592,5.321,3.051.826,2.76,1.316,5.623,1.909,8.45.509,2.425-1,4.339-1.75,6.432-1.7,4.753-3.456,9.484-5.236,14.206a11.007,11.007,0,0,1-1.518,2.987,13.433,13.433,0,0,1-2.558,1.954,40.072,40.072,0,0,1-.037,4.389,12.833,12.833,0,0,1-.983,4.323c-2.428,4.909-4.85,9.84-7.645,14.543a36.985,36.985,0,0,0-4.772,15.767c-.32,3.368-.54,6.748-.693,10.128a2.372,2.372,0,0,0,.865,1.626,2.744,2.744,0,0,1,.906,3.528,12.7,12.7,0,0,0-.957,3.312c-.327,2.93-.494,5.878-.725,8.819,2.424.881,3.612,2.538,4.645,4.639a45.809,45.809,0,0,0,4.891,7.689c2.976,3.856,5.811,7.963,9.429,11.14,3.823,3.357,7.562,7,12.482,9.038,2.642,1.094,4.96,2.972,7.428,4.489,1.646,1.012,3.292,2.024,4.95,3.015,1.752,1.048,3.49,2.124,5.284,3.1,3.253,1.761,6.4,3.856,9.85,5.085,6.238,2.223,9.414,6.663,10.623,12.845a24.76,24.76,0,0,1,.365,4.656c.031,10.394-.148,20.792.079,31.181.139,6.389.964,12.759,1.316,19.147.3,5.37.617,10.763.425,16.128-.123,3.405-1.278,6.761-1.77,10.168-.644,4.466-1.248,8.948-1.589,13.445-.571,7.536-3.421,14.648-3.951,22.18-.038.53-1.21.679-1.33,1.2-1.507,0-2.035.369-3.541.369m-54.149-169.86a88.818,88.818,0,0,1-2.494,8.545c-1.952,4.89-4.336,9.607-6.3,14.492-2.527,6.281-4.7,12.705-7.24,18.979-3.555,8.771-7.316,17.457-10.964,26.191a1.868,1.868,0,0,0-.1,1.35c1.215,2.458,1.253,5.081,1.274,7.728q.128,16.065.3,32.13c.008.752.109,1.5.164,2.225,2.22-4.812,4.342-9.563,6.593-14.252,3.475-7.24,7.87-13.811,14.109-19.018a1.885,1.885,0,0,0,.389-1.65c-.657-2.042-1.413-4.057-2.238-6.038-1.522-3.653-3.168-7.255-4.663-10.919-.792-1.941-.109-2.84,2-2.884,3.655-.078,7.3-.1,10.748,2.031.119-.794.2-1.308.271-1.825.967-7.567,1.971-15.129,2.883-22.7a108.862,108.862,0,0,1,4.7-20.564,3.025,3.025,0,0,0-.575-2.289c-2.2-3.029-4.511-5.976-6.793-8.944-.671-.873-1.374-1.722-2.064-2.585M92.363,278.751a10.029,10.029,0,0,0,.18-1.005c.017-10.93.064-21.86,0-32.789a17.933,17.933,0,0,0-.9-4.4c-.092-.346-.708-.872-.944-.807-1.315.358-1.745-.567-2.216-1.4-1.007-1.775-1.943-3.591-2.945-5.37-.737-1.308-1.656-2.527-2.278-3.884-1.385-3.023-2.62-6.114-3.941-9.166-1.686-3.9-3.472-7.752-5.075-11.683-1.645-4.032-2.879-8.247-4.728-12.177-2.789-5.927-5.968-11.669-8.951-17.5a22.554,22.554,0,0,1-1.37-3.263c-1.207-3.706-2.469-7.409-2.007-11.792l-9.556,12.087c10.719,15.074,14.857,32.282,16.574,50.516,1.089-.3,2.2-.646,3.335-.924a29.093,29.093,0,0,1,3.6-.76c1.355-.154,1.766.5,1.228,1.769a15.676,15.676,0,0,1-.988,2.031c-3.286,5.406-3.565,11.775-5.765,17.426a24.04,24.04,0,0,1,3.775,1.2,33.679,33.679,0,0,1,16.22,17.665c1.943,4.7,4.35,9.207,6.747,14.218m-4.389-123.2c-4.422-.22-8.553-.515-12.493-2.235-3.835-1.673-7.849-2.935-11.894-4.418.957,5.407-.478,10.685-2.161,15.928-.308.958-1.039,1.991-.875,2.855.923,4.843,2.316,9.546,5.2,13.642,8.834-7.262,17.068-14.95,22.22-25.772m-9.743,16.835c-4.041,3.54-7.086,7.951-11.929,9.9l13.934,32.949c.242-3.137.459-6.219.723-9.3.6-6.986,1.537-13.91,4.095-20.5a9.941,9.941,0,0,1,1.451-2.659c.883-1.09.725-1.748-.3-2.68-2.712-2.479-5.295-5.1-7.979-7.713m11.6-16.824c1.712,4.121,21.965,22.652,25.782,23.655.443-1.693.8-3.417,1.352-5.078.639-1.929.023-3.539-.815-5.235a14.407,14.407,0,0,1-1.807-4.919c-.266-3.354-.08-6.748-.01-10.123.028-1.358.239-2.712.417-4.6-7.655,5.568-15.748,7.954-24.919,6.3m10.339,13.274-5.5,10.766c7.212,8.044,9.6,17.736,9.9,28.243q5.188-13.462,10.394-26.968c-6.334-2.5-9.718-8.188-14.792-12.041M54.134,73.681a11.729,11.729,0,0,1-1.214-2.54,17.441,17.441,0,0,0-5.475-9.086,3.805,3.805,0,0,0-5.534.488,10.073,10.073,0,0,0-1.066,3.116,6.432,6.432,0,0,0-.449,2.891c.513,2.016,1.378,3.942,2.086,5.909,1.652,4.592,3.25,9.2,4.987,13.763a5.152,5.152,0,0,0,1.822,2.109c1.682,1.211,2.187,1.079,2.576-.973.975-5.123,2.887-10.143,2.265-15.678M127.4,71.239l-.586-.21a11.4,11.4,0,0,1,.567-1.871c1.073-2.167,2.24-4.287,3.31-6.455a3.539,3.539,0,0,1,3.953-2.129,11.268,11.268,0,0,1,3.06,1.505c-.154-.459-.384-1.219-.663-1.961a4.121,4.121,0,0,0-5.907-2.1,1.764,1.764,0,0,0-.547.733c-.659,1.277-1.261,2.584-1.948,3.845-1.942,3.56-3.22,7.192-2.436,11.4.6,3.212.737,6.507,1.152,9.756.278,2.18.647,4.35,1.056,6.509.088.463.528.858.806,1.285.422-.28,1-.467,1.234-.86a14.072,14.072,0,0,0,1.214-2.759c.809-2.5,1.371-5.089,2.352-7.513,1.409-3.481,3.1-6.846,4.668-10.264a1.388,1.388,0,0,0,.039-.456l-.3-.262-.217.62c-.617-1.851-1.2-3.814-1.938-5.721-.357-.929-.844-1.87-2.166-1.82-1.348.051-1.9.919-2.5,1.95-1.335,2.3-2.793,4.525-4.2,6.781M54.569,22.95c.881-1.2,1.6-2.126,2.269-3.089a3.913,3.913,0,0,1,3.23-1.8c2.415-.094,4.828-.271,7.243-.324,2.569-.057,5.272.506,7.682-.113a96.544,96.544,0,0,0,15.868-5.207c2.925-1.324,5.717-3,8.793-4.119l-2.419.553,3.615-2.932-.276-.456c-1.017.422-2.061.787-3.044,1.276-2.591,1.289-5.043,2.976-7.759,3.868a80.022,80.022,0,0,1-10.96,2.5C72.524,14.228,66.2,15.167,59.9,16.173c-2.6.415-5.329,3.717-5.328,6.777M92.111,182.464c.137,4.257-5.112,10.431-8.053,9.825-.238,1.575-.474,3.141-.752,4.977.628-.283.963-.414,1.28-.579,3.977-2.08,6.973-5.338,10.084-8.452.971-.972,2.566-2.033,2.576-3.066.012-1.2-1.4-2.411-2.209-3.611-.052-.077-.184-.1-.108-.062a10.576,10.576,0,0,1-7.615,1.04l-2.661,7.553c3.886-1.26,5.261-4.581,7.459-7.624m10.623,23.47c-5.46,6.937-12.711,10.512-20.824,12.872l1.127,2.225A27.718,27.718,0,0,1,86.6,220.3c7.238-.512,11.885-5.21,16.421-10.093a1.25,1.25,0,0,0,.211-.891c-.109-.993-.286-1.979-.5-3.383m-19.989-2.283c4.857-2.481,9.7-4.248,13.449-7.975,1.3-1.291,2.842-2.338,4.539-3.711l-2.1-4.58c-4.3,5.715-8.659,11.036-15.761,13.451-.033.706-.073,1.579-.13,2.816M94.079,16.51l-.308-.52a39.26,39.26,0,0,1-4.687,1.586c-4.015.838-7.966,1.84-12.175,1.818-4.053-.022-8.1.9-12.168,1.275A13.216,13.216,0,0,0,57.469,23.4,6.294,6.294,0,0,0,56.5,24.71l.417.3a10.3,10.3,0,0,1,6.448-2.1,34.541,34.541,0,0,0,6.592-.335q9.983-1.849,19.893-4.079a21,21,0,0,0,4.231-1.987m8.449,183.852c-2.659,1.892-5.1,3.814-7.72,5.451-3.995,2.5-7.6,5.924-12.867,5.789v3.509a69.581,69.581,0,0,0,7.655-3.181c4.311-2.4,8.453-5.113,12.649-7.72a1.047,1.047,0,0,0,.4-.766c0-1.012-.072-2.024-.121-3.082m-20.209,6.174c-.075.665-.184,1.624-.318,2.816a27.007,27.007,0,0,0,4.078-1.427c3.765-2.067,7.457-4.267,11.175-6.42,1.519-.879,3.042-1.751,4.537-2.669a.943.943,0,0,0,.387-.765c-.294-1.43-.663-2.846-1.115-4.712-4.452,7.282-11.506,9.982-18.745,13.178m13.709-41.124c-2.986,4.78-6.963,8.161-12.547,9.516,1.955,2.248,2.083,2.416,4.121.868,2.761-2.1,5.289-4.5,7.946-6.732a26.779,26.779,0,0,1,2.216-1.528c-.276.951-.265,2.186-.878,2.8-2.368,2.381-4.916,4.586-7.44,6.808a20.951,20.951,0,0,1-2.371,1.563l1.34.873a20.334,20.334,0,0,1,2.483-1.743c2.851-1.4,5.618-2.821,6.712-6.154.315-.961.933-1.819,1.287-2.771a1.4,1.4,0,0,0-.2-1.224c-.824-.82-1.765-1.523-2.668-2.279m2.566,56.468,3.438-8.174-.316-.25c-4.236,6.035-10.541,8.928-17.223,11.264l1.049,2.706c.986-.577,1.93-1.212,2.943-1.7,2.075-1.009,4.161-2.006,6.3-2.878a29.632,29.632,0,0,1,3.814-.964M108.381,4.8c-1.747-.451-3.243-1.758-5.425-.795-1.583.7-3.563.527-5.371.681-8.568.728-16.8,2.964-24.956,5.543a9.915,9.915,0,0,0-1.143.6,20.742,20.742,0,0,0,2.393-.158c4.784-.975,9.586-1.876,14.336-3,6.622-1.57,13.12-3.906,20.167-2.871M80.693,172.512c2.732,1.647,11.031-3.351,14.442-8.206l-1.284-1.9c-3.239,5.011-8.249,7.334-13.158,10.1M85.954,24.018,65.538,27.4c6.789.866,14.175,1.519,20.416-3.381m.628,206.135,1.437,2.33,6.716-1.58,2.141-5.424a40.946,40.946,0,0,1-4.969,3.157,36.686,36.686,0,0,1-5.325,1.517m-6.714-60.27.564.809,12.908-8.866L91.655,160c-.239.225-.4.355-.533.5-1.772,1.937-3.463,3.958-5.345,5.781a18.121,18.121,0,0,1-3.363,2.167c-.833.5-1.7.955-2.546,1.43m4.534-5.349.353.342,5.916-5.81-1.718-2.23-4.551,7.7M56.014,28.89q-.012-.239-.022-.478l-2.875.216c-.269,1.459-.518,2.81-.815,4.423l3.713-4.161M103.9,11.8c-3.373-.079-5.114,2.447-7.21,4.407L103.9,11.8M93.812,233.039l-3.487,1.535,1.771,2.269,1.716-3.8" transform="translate(0 0)"/>
      <path id="Tracé_667" data-name="Tracé 667" d="M324.459,644.26q.983-7.755,1.965-15.51c1.021-8.113,1.847-16.255,3.1-24.331,1.624-10.465,3.558-20.883,5.422-31.309.615-3.439,1.421-6.844,2.154-10.261a3.592,3.592,0,0,1,.325-.715l.54-.038a22.441,22.441,0,0,1,.486,4.832c-.489,4.369-1.263,8.706-1.9,13.059-.8,5.469-1.531,10.95-2.38,16.411-1.478,9.506-1.4,19.151-2.627,28.677-.825,6.4-1.707,12.791-2.564,19.186Z" transform="translate(-175.948 -304.813)"/>
      <path id="Tracé_668" data-name="Tracé 668" d="M72.654,667.262c-.184-4.571-.253-9.151-.58-13.712-.531-7.4-1.045-14.818-1.917-22.187-.826-6.984-2.136-13.91-3.158-20.873a31.133,31.133,0,0,1-.215-5.977c.3,1.576.541,3.164.9,4.726.565,2.454,1.145,4.908,1.836,7.328.532,1.864.137,3.974.692,5.6,3.495,10.279,2.992,21.1,4.663,31.614.707,4.45.9,8.982,1.33,13.478Z" transform="translate(-36.189 -327.815)"/>
      <path id="Tracé_669" data-name="Tracé 669" d="M179.639,582.2c1.519,4.992,1.891,10.158,2.141,15.342l-.616.093q-1.049-7.675-2.1-15.349l.572-.086" transform="translate(-97.105 -315.713)"/>
      <path id="Tracé_670" data-name="Tracé 670" d="M190.185,606.867c1.884,4.633,1.631,9.427,1.282,14.226l-.531.04q-.376-7.133-.751-14.266" transform="translate(-103.134 -329.092)"/>
      <path id="Tracé_671" data-name="Tracé 671" d="M33.642,491.733l-3.277-6.357a2.4,2.4,0,0,1,2.687,1.1,4.91,4.91,0,0,1,.59,5.26" transform="translate(-16.466 -263.159)"/>
      <path id="Tracé_672" data-name="Tracé 672" d="M197.577,634.545c-1.6-.135-1.93-2.111-.814-4.43l.814,4.43" transform="translate(-106.345 -341.699)"/>
      <path id="Tracé_673" data-name="Tracé 673" d="M172.543,568.462l1.075,7.478-.38.067-1.362-7.419.668-.126" transform="translate(-93.204 -308.266)"/>
      <path id="Tracé_674" data-name="Tracé 674" d="M51.829,534.483l-1.57-4.923.4-.15c.746,1.575,1.883,3,1.7,4.93l-.53.142" transform="translate(-27.254 -287.089)"/>
      <path id="Tracé_675" data-name="Tracé 675" d="M60.549,583.377c1.437.836.655,2.6,1.078,3.873l-1.572-3.616.494-.257" transform="translate(-32.567 -316.354)"/>
      <path id="Tracé_676" data-name="Tracé 676" d="M264.32,558.62a30.732,30.732,0,0,1,4.758-.582c4.231.143,8.454.5,12.682.73,3.734.206,7.471.361,11.233.54l.887-6.094.583-.082a6.373,6.373,0,0,1,.487,1.75c-.018,1.285-.259,2.567-.3,3.853-.048,1.408-.633,1.987-2.091,1.949-5.949-.154-11.9-.291-17.848-.305-2.994-.007-5.988.263-8.982.41-.268.013-.534.056-.8.068-3.09.143-3.517-.361-2.87-3.412a9.05,9.05,0,0,1,.528-2.015c.171-.36.788-.839,1.037-.756a1.582,1.582,0,0,1,.953,1.061,16.4,16.4,0,0,1-.251,2.885" transform="translate(-141.966 -299.952)"/>
      <path id="Tracé_677" data-name="Tracé 677" d="M264.679,576.12c2.05-1.779,5.493-2.57,7.5-1.76-2.267,1.943-5.056,1.115-7.5,1.76" transform="translate(-143.53 -311.292)"/>
      <path id="Tracé_678" data-name="Tracé 678" d="M233.685,584.072q-.375,4.56-.75,9.12l-.464-.033q.319-4.564.639-9.128l.575.042" transform="translate(-126.064 -316.708)"/>
      <path id="Tracé_679" data-name="Tracé 679" d="M299.366,573.067c.956.069,1.921.089,2.863.24.25.04.437.484.652.742-.3.16-.64.5-.9.448-.906-.175-1.786-.486-2.676-.745q.032-.343.064-.686" transform="translate(-162.306 -310.763)"/>
      <path id="Tracé_680" data-name="Tracé 680" d="M317.45,572.244l4.484-.8.123.717a7.838,7.838,0,0,1-4.554.56c-.017-.158-.035-.317-.053-.476" transform="translate(-172.147 -309.882)"/>
      <path id="Tracé_681" data-name="Tracé 681" d="M377.587,500.368l-1.5,3.371c-.727-1.649-.076-3.044,1.5-3.371" transform="translate(-203.785 -271.34)"/>
      <path id="Tracé_682" data-name="Tracé 682" d="M163.3,106.473c3.124-1.061,5.309,1.116,7.327,3.652a4.778,4.778,0,0,1,.312.366c1.547,2.408.932,8.562-1.074,10.882a7.857,7.857,0,0,1-9.177,1.542,24.761,24.761,0,0,1-4.644-3.026c-2.728-2.539-2.368-5.762-1.287-8.914.973-2.833,4.162-4.546,8.542-4.5m-2.9,5.957a8.584,8.584,0,0,0-4.816,3.661c-.254.34-.04,1.221.216,1.721,1.156,2.257,3.323,3.184,5.49,4.217a6.492,6.492,0,0,0,8.727-2.614c1.521-2.516-.184-4.764-2.908-5.71-.173,2.032-.052,4.3-2.546,5.047-1.993.6-3.419-.609-4.6-1.986-1.139-1.322-.6-2.7.442-4.336m10.416,2.546a6.585,6.585,0,0,0-3.221-6.4,8.672,8.672,0,0,0-9.063.014c-2.418,1.355-3.123,3.558-3.091,6.249a7.814,7.814,0,0,1,7.48-3.325c2.806.332,5.649.777,7.895,3.465m-5.074-.848c-.387,1.437-.559,3.066-2.565,2.507-2.255-.628-.317-2.362-.875-3.443a3.345,3.345,0,0,0-.982,3.717c.475.94,2.445,1.434,3.624.91,1.222-.543,1.533-1.8.8-3.691" transform="translate(-83.483 -57.589)"/>
      <path id="Tracé_683" data-name="Tracé 683" d="M229.593,118.015c.021,5.539-2.813,8.886-7.455,8.944-5.177.065-9.633-3.515-9.72-7.565-.136-6.415,3.481-9.058,9.03-9.162a7.818,7.818,0,0,1,8.144,7.784m-15.807-.159c5.188-2.508,10.186-3.87,14.953.947-.034-1.307.063-2.711-.54-3.676-1.762-2.82-4.325-4.387-7.821-3.806-.735.122-1.445.4-2.181.52-3.065.48-4.762,2.715-4.412,6.016m11.413-.115c-.787,4.4-1.946,5.792-4.817,5.4a4.411,4.411,0,0,1-2.967-1.588c-.647-1.113-.544-2.663-.759-4-3.593,1.156-4.135,3.119-1.256,5.709a11.667,11.667,0,0,0,3.809,2.282c2.613.924,5.177.812,7.366-1.266,2.779-2.639,2.354-4.9-1.377-6.541m-1.665-.342c-.556,1.894-1.084,3.331-3.3,2.988-1.479-.23-1.24-1.2-1.229-2.246-1.133,1.163-1.23,2.257-.4,3.039s3.191.8,4.259.055c1.349-.937,1.351-2.14.671-3.836M222,119.025q.012-.238.024-.476a11.446,11.446,0,0,0-1.887.059,9.165,9.165,0,0,0-.01,1.547L222,119.025" transform="translate(-115.188 -59.775)"/>
      <path id="Tracé_684" data-name="Tracé 684" d="M151.283,79.819c5.272.487,9.329,2.2,12.416,5.854.274.324.213.932.308,1.408-.5.075-1.071.341-1.493.191a42.784,42.784,0,0,1-5.665-2.265,6.894,6.894,0,0,0-7.463.135c-1.348.86-2.685,1.745-4.082,2.519a2.664,2.664,0,0,1-1.551.225,4.835,4.835,0,0,1-.522-2.515c.53-2.274,2.532-3.234,4.4-4.167a32.256,32.256,0,0,1,3.656-1.386" transform="translate(-77.648 -43.284)"/>
      <path id="Tracé_685" data-name="Tracé 685" d="M215.14,93.173a5.458,5.458,0,0,1,1.508.32c2.32,1.581,4.893,1.348,7.482,1.154a44.842,44.842,0,0,1,4.832-.162,3.522,3.522,0,0,1,2.053.722,43.231,43.231,0,0,1,3.632,3.637c.274.3.51,1.016.347,1.247a1.714,1.714,0,0,1-1.319.65,2.771,2.771,0,0,1-1.867-.735c-1.159-1.67-2.685-1.342-4.168-.923-4.778,1.348-8.647-.3-11.984-3.592-.409-.4-.313-1.32-.516-2.318" transform="translate(-116.666 -50.526)"/>
      <path id="Tracé_686" data-name="Tracé 686" d="M195.2,257.394c-1.435,6.449-5.422,9.8-11.535,9.7-3.159-.052-6.311-.488-9.469-.7-3.645-.241-7.3-.38-10.94-.645a3.915,3.915,0,0,1-3.658-3.114c-.557-2.131-1.158-4.254-1.593-6.41a26.362,26.362,0,0,1-.248-3.63l.5-.081c.2.874.38,1.755.616,2.62.6,2.177,1.288,4.33,1.8,6.525a2.8,2.8,0,0,0,2.7,2.518c3.111.176,6.233.186,9.339.419,3.908.293,7.8.849,11.708,1.091a7.9,7.9,0,0,0,7.823-4.116c.8-1.375,1.837-2.615,2.956-4.182" transform="translate(-85.546 -136.937)"/>
      <path id="Tracé_687" data-name="Tracé 687" d="M195.793,157.977a9.251,9.251,0,0,1-7.433,1.081c-.513-.157-1.145.124-1.72.111-.677-.015-1.588.121-1.98-.25-.991-.94-2.076-.876-3.261-.868a3.314,3.314,0,0,1-3.089-3.282c.018-.336.389-.653.6-.979.24.232.634.428.695.7.442,1.975,1.7,2.069,3.489,2.093,2.033.027,4.056.812,6.082,1.272.209.047.41.132.618.183,3.859.943,6.439-1.187,5.855-5.059-1.043-6.9-2.221-13.788-3.421-20.668a29.26,29.26,0,0,1-.03-8.085l.4-.019c.068.661.187,1.322.2,1.985.089,6.885,1.981,13.467,3.3,20.151a56.91,56.91,0,0,1,.912,8.8c.036.937-.8,1.909-1.239,2.864Z" transform="translate(-96.692 -67.354)"/>
      <path id="Tracé_688" data-name="Tracé 688" d="M162.4,221.321a38.41,38.41,0,0,0,4.433.333c3.695-.151,7.391-.359,11.073-.69,5.026-.451,9.966-.4,14.716,1.615a4.056,4.056,0,0,0,1.734.249c.943-.047,1.878-.229,1.835-1.725l1.553,2.144a14.7,14.7,0,0,1-2.38.666,7.085,7.085,0,0,1-3.132-.033,28.865,28.865,0,0,0-13.929-1.591c-4.053.392-8.111.747-12.174,1.007-1.421.092-2.883-.1-3.729-1.976" transform="translate(-88.069 -119.699)"/>
      <path id="Tracé_689" data-name="Tracé 689" d="M189.578,144.552a21.009,21.009,0,0,1-.014,2.449c-.478,4.044-1,8.081-1.511,12.122a1.875,1.875,0,0,1-.072.634c-.333.6-.715,1.175-1.077,1.76a5.616,5.616,0,0,1-.423-1.919c.725-4.762,1.535-9.51,2.331-14.261a4.766,4.766,0,0,1,.308-.844l.46.06" transform="translate(-101.117 -78.355)"/>
      <path id="Tracé_690" data-name="Tracé 690" d="M231.25,206.712l-1.785-7.293a5.894,5.894,0,0,1,1.436,1.008c1.081,1.375,1.326,4.84.349,6.285" transform="translate(-124.434 -108.141)"/>
      <path id="Tracé_691" data-name="Tracé 691" d="M236.165,200.157a4.116,4.116,0,0,1,2.842,2.733,6.646,6.646,0,0,1-.932,5.345l-.594-.1c.239-1.371.826-2.8.621-4.1s-1.2-2.486-1.936-3.883" transform="translate(-128.068 -108.541)"/>
      <path id="Tracé_692" data-name="Tracé 692" d="M167.574,205.736c-.649-2.138.259-3.527,1.146-4.854.747-1.116,1.281-1.24,2.07-.99l-3.216,5.844" transform="translate(-90.753 -108.339)"/>
      <path id="Tracé_693" data-name="Tracé 693" d="M129.544,237.239c-1.875-.682-2.347-4.532-.484-6.464.165,2.2.323,4.313.484,6.464" transform="translate(-69.346 -125.145)"/>
      <path id="Tracé_694" data-name="Tracé 694" d="M260.164,222.779c.538,1.446-.408,3.746-1.6,4.051-.249.064-.753-.065-.81-.224a1.25,1.25,0,0,1,.078-1.019c.716-.953,1.518-1.842,2.332-2.808" transform="translate(-139.736 -120.809)"/>
      <path id="Tracé_695" data-name="Tracé 695" d="M248.671,260.519c-.4-1.8.431-3.175,2.568-4.441.165,1.395-.689,2.91-2.568,4.441" transform="translate(-134.796 -138.866)"/>
      <path id="Tracé_696" data-name="Tracé 696" d="M190.4,240.081c-1.158-1.586-.785-3.891.388-4.431.17-.078.871.448.84.565-.317,1.2-.735,2.372-1.228,3.865" transform="translate(-102.867 -127.784)"/>
      <path id="Tracé_697" data-name="Tracé 697" d="M164.287,198.9l-2.5,4.957a3.733,3.733,0,0,1,2.5-4.957" transform="translate(-87.589 -107.861)"/>
      <path id="Tracé_698" data-name="Tracé 698" d="M158.794,221.427c-.444-1.48-.254-2.584.776-3.365.321-.243.951-.079,1.44-.1a3.74,3.74,0,0,1-.332,1.223c-.509.722-1.131,1.363-1.884,2.243" transform="translate(-85.989 -118.178)"/>
      <path id="Tracé_699" data-name="Tracé 699" d="M222.814,200.706c2.495,1.073,3.256,2.86,2.057,4.691-.665-1.514-1.365-3.113-2.057-4.691" transform="translate(-120.828 -108.839)"/>
      <path id="Tracé_700" data-name="Tracé 700" d="M135.281,231.916v5.227l-.519-.006a9.488,9.488,0,0,1,.065-5.3l.454.081" transform="translate(-72.888 -125.72)"/>
      <path id="Tracé_701" data-name="Tracé 701" d="M178.735,201.968l-3.016,3.883a2.1,2.1,0,0,1,.388-2.562,3.1,3.1,0,0,1,2.628-1.321" transform="translate(-95.138 -109.515)"/>
      <path id="Tracé_702" data-name="Tracé 702" d="M262.961,207.372c1.22,2.036,1.207,3.571-.214,4.841-.1-1.737-.2-3.32-.295-4.9l.509.061" transform="translate(-142.323 -112.421)"/>
      <path id="Tracé_703" data-name="Tracé 703" d="M268.94,205.939c-.1-1.739-.192-3.41-.283-5.028,1.534,1.342,1.693,4.009.283,5.028" transform="translate(-145.687 -108.95)"/>
      <path id="Tracé_704" data-name="Tracé 704" d="M265.28,230.5a3.663,3.663,0,0,1-3.418,4.077l3.418-4.077" transform="translate(-142.003 -124.996)"/>
      <path id="Tracé_705" data-name="Tracé 705" d="M216.453,194.75c1.681-.055,2.634-.759,2.547-2.791.284.4.883.9.79,1.174a3.862,3.862,0,0,1-1.287,2.042c-.429.257-1.332-.277-2.024-.457l-.027.032" transform="translate(-117.378 -104.096)"/>
      <path id="Tracé_706" data-name="Tracé 706" d="M200.169,207.5l.833-4.247c1.317,1.093,1.033,2.928-.833,4.247" transform="translate(-108.548 -110.22)"/>
      <path id="Tracé_707" data-name="Tracé 707" d="M207.485,207.965l-.746-4.529c.491.3,1.148.5,1.17.76.11,1.241.049,2.5.049,3.747l-.474.022" transform="translate(-112.111 -110.319)"/>
      <path id="Tracé_708" data-name="Tracé 708" d="M214.976,238.776l-1.064-4.359c.588.454,1.3.72,1.391,1.127a20.28,20.28,0,0,1,.255,3.19l-.582.042" transform="translate(-116 -127.12)"/>
      <path id="Tracé_709" data-name="Tracé 709" d="M183.717,202.5l-2.205,3.908c-.939-1.606-.241-2.968,2.205-3.908" transform="translate(-98.212 -109.811)"/>
      <path id="Tracé_710" data-name="Tracé 710" d="M121.478,228.911l.848,4.758a3.481,3.481,0,0,1-.848-4.758" transform="translate(-65.56 -124.134)"/>
      <path id="Tracé_711" data-name="Tracé 711" d="M273.464,208.886a3.377,3.377,0,0,1-1.129,4.842l1.129-4.842" transform="translate(-147.682 -113.275)"/>
      <path id="Tracé_712" data-name="Tracé 712" d="M219.809,237.888c-.295-1.007-.605-2.009-.867-3.024-.038-.146.166-.509.239-.5.29.021.693.057.836.25a3.1,3.1,0,0,1,.192,3.341Z" transform="translate(-118.725 -127.089)"/>
      <path id="Tracé_713" data-name="Tracé 713" d="M201.26,270.467v-3.06l.54-.174a8.364,8.364,0,0,1,.659,2.086c.026.457-.449.943-.7,1.416l-.5-.268" transform="translate(-109.139 -144.915)"/>
      <path id="Tracé_714" data-name="Tracé 714" d="M124.957,215.655l-1.012,4.478c-1.01-1.971-.729-3.161,1.012-4.478" transform="translate(-66.897 -116.945)"/>
      <path id="Tracé_715" data-name="Tracé 715" d="M217.145,202.577c1.884.553,2.545,2.049,1.63,3.624l-1.63-3.624" transform="translate(-117.753 -109.854)"/>
      <path id="Tracé_716" data-name="Tracé 716" d="M114.362,211.711l-1.4,3.518c-.768-1.853-.389-2.979,1.4-3.518" transform="translate(-61.051 -114.807)"/>
      <path id="Tracé_717" data-name="Tracé 717" d="M208.97,238.237q-.395-1.652-.789-3.3a2.675,2.675,0,0,1,1.507,3.092l-.718.212" transform="translate(-112.892 -127.4)"/>
      <path id="Tracé_718" data-name="Tracé 718" d="M195.883,203.942l-1.23,3.345c-1.073-1.4-.763-2.365,1.23-3.345" transform="translate(-105.227 -110.594)"/>
      <path id="Tracé_719" data-name="Tracé 719" d="M186.419,237.761c-.965-1.415-.533-2.171.319-2.775.191-.135.563-.016.852-.013l-1.171,2.788" transform="translate(-100.793 -127.394)"/>
      <path id="Tracé_720" data-name="Tracé 720" d="M197.561,235.743c-.169,1-.339,2-.557,3.292-1.067-1.332-.982-2.182.033-3.42l.524.128" transform="translate(-106.417 -127.769)"/>
      <path id="Tracé_721" data-name="Tracé 721" d="M212.474,203.241c.549,1.127,1.877,1.971.949,4.06-.584-1.538-1.025-2.7-1.468-3.869l.519-.191" transform="translate(-114.939 -110.214)"/>
      <path id="Tracé_722" data-name="Tracé 722" d="M216.446,271.8v-4.223a3.261,3.261,0,0,1,0,4.223" transform="translate(-117.374 -145.104)"/>
      <path id="Tracé_723" data-name="Tracé 723" d="M172.591,263.962l-.993,2.447c-.909-1.4-.741-1.835.993-2.447" transform="translate(-92.76 -143.141)"/>
      <path id="Tracé_724" data-name="Tracé 724" d="M165.632,255.943c-.86-1.772-.677-2.283,1.086-3l-1.086,3" transform="translate(-89.548 -137.167)"/>
      <path id="Tracé_725" data-name="Tracé 725" d="M187.522,207.929l.977-2.814.618.21-.973,2.815-.622-.211" transform="translate(-101.69 -111.23)"/>
      <path id="Tracé_726" data-name="Tracé 726" d="M118.932,208.988l1.38-2.932.566.243-1.246,2.964-.7-.275" transform="translate(-64.494 -111.74)"/>
      <path id="Tracé_727" data-name="Tracé 727" d="M166.25,481.668a10.244,10.244,0,0,1-1.043,1.944c-.185.225-.827.073-1.261.092-.012-.4-.2-.969,0-1.162a12.355,12.355,0,0,1,1.819-1.3l.488.431" transform="translate(-88.855 -260.965)"/>
      <path id="Tracé_728" data-name="Tracé 728" d="M102.974,159.468A8.647,8.647,0,0,1,100,151.693a3.081,3.081,0,0,1,2.755-2.333c1.3.022,2.146,1.021,2.454,3.13a9.548,9.548,0,0,0-.962-.99c-.473-.352-1.291-1.008-1.441-.887-.515.415-1.157,1.138-1.115,1.7.142,1.912.542,3.807.872,5.7a13.854,13.854,0,0,0,.411,1.455" transform="translate(-54.177 -80.995)"/>
      <path id="Tracé_729" data-name="Tracé 729" d="M282.9,157.148c.812.043,1.792-.18,2.389.2a3.427,3.427,0,0,1,1.362,2.129c.336,2.1-.991,5.029-3.046,6.645.179-.488.384-.969.534-1.467.417-1.38.9-2.749,1.192-4.156.262-1.253-.084-2.249-1.649-2.318a2.616,2.616,0,0,1-.817-.343l.034-.689" transform="translate(-153.391 -85.204)"/>
    </g>
  </g>
</svg>
