<svg xmlns="http://www.w3.org/2000/svg" xmlns:xlink="http://www.w3.org/1999/xlink" width="173.633" height="363.059" viewBox="0 0 173.633 363.059">
  <defs>
    <linearGradient id="linear-gradient" y1="0.5" x2="1" y2="0.5" gradientUnits="objectBoundingBox">
      <stop offset="0" stop-color="#5d585a"/>
      <stop offset="0.98" stop-color="#aeb9b0"/>
    </linearGradient>
  </defs>
  <g id="Fichier_4" data-name="Fichier 4" transform="translate(-44.665 -10.545)">
    <g id="Calque_1" data-name="Calque 1" transform="translate(44.665 10.545)">
      <path id="Tracé_1" data-name="Tracé 1" d="M292.292,64.319c-1.637,1.785-13.935,15.43-14.6,17.153s-5.615.821-6.512,4.87-1.509,13.973-1.509,13.973,2.406-.195,3.455,1.006,1.8,6.892,1.8,7.338,1.946,5.245,1.946,5.245,1.348,4.044.75,4.2-.75,2.848-.75,3.9,1.049,4.2,1.647,4.2-12.73.152-13.333.451-2.995,3.446-2.848,5.843,2.245,8.838,4.343,9.137,8.088,2.7,10.034,1.946-1.2,2.7-1.5,3.147-1.647,4.642.3,5.544a67.376,67.376,0,0,0,7.191,2.848c.451,0,2.677,2.273,2.539,3.237s3,8,2.853,8.449-3.6,2.767-3.821,2.957-18.046,12.023-18.948,13.371-5.691,7.191-8.24,28.91-6.142,58.266-6.142,58.266-1.946,21.568-1.348,22.616,9.137,35.8,9.137,36.846,4.642,17.077,4.941,23.067-.451,28.307.3,30.7,4.495,27.709,4.495,27.709,42.091,15.877,80.584,10.186S389.042,407.5,389.042,407.5l4.343-21.567,17.077-37.3s9.289-44.488,9.735-68.9,1.253-61.745.75-62.462c-3.593-5.093-29.66-28.459-29.66-28.459l-16.029-15.426s-12.882-12.284-12.73-12.73.451-1.946.451-1.946,3.446-1.5,7.191-14.078c0,0,1.348-1.647,2.544-3.147s5.99-8.539,7.039-11.833,2.1-10.338,1.348-11.985-7.637-7.637-8.985-7.191-2.4-5.544-2.4-5.544-2.848-14.681-13.034-24.567S337.962,62.539,333.32,62.387s-19.322-2.4-22.17-1.8-17.225,1.946-18.871,3.745Z" transform="translate(-248.904 -59.599)" fill="url(#linear-gradient)"/>
      <path id="Tracé_2" data-name="Tracé 2" d="M288.788,67.816a55.609,55.609,0,0,1-4.025,4.476c-5.416,4.9-8.368,11.358-11.1,17.861a18.978,18.978,0,0,0,.489,15.516c.835-.166,1.638-.266,2.406-.484,4.006-1.149,6.109,2.16,8.909,3.821a1.026,1.026,0,0,1,.123.973,1.723,1.723,0,0,1-1.172.413c-1.419-.128-2.824-.475-4.239-.532-4.623-.176-5.126.665-2.838,5.126a5.027,5.027,0,0,1,6.294-2.715c2.126.65,3.992,2.179,6.109,3.4V107.05h.622c2,4.922-.441,9.82-.423,15.032a16.961,16.961,0,0,1,2.715.494c1.115.38,2.668.688,3.133,1.528,1.172,2.112,2.8,1.675,4.594,1.614,3.46-.119,6.93-.033,10.732-.223a6.313,6.313,0,0,1-3.061-7.395,19.151,19.151,0,0,1,3.659-7.324c2.981-3.46,8.107-3.266,12.293-.133,4.362,3.265,4.893,7.936,1.633,14.334q1.471,1.381,2.468,6.446a9.66,9.66,0,0,0,6.308-1.751c7.7-5.226,15.108-11.035,23.969-14.363.565-.214,1.338-.954,1.334-1.448-.038-4.267-.593-8.32-4.1-11.472a6.754,6.754,0,0,1-1.747-4.182c-.318-3.754-.242-7.537-.366-11.306-.18-5.311-1.728-10.02-5.848-13.684-2.573-2.288-4.784-5.031-7.537-7.048a23.024,23.024,0,0,0-11.966-4.2c-4.865-.394-9.716-1.272-14.576-1.3-3.626-.019-7.281.873-10.888,1.552-2.506.47-4.96,1.229-7.414,1.941-1.756.513-3.47,1.163-5.378,1.552,1.22-.75,2.345-1.818,3.669-2.2,5.615-1.638,11.216-3.531,16.964-4.452a47.905,47.905,0,0,1,17.723.959c4.528.978,8.928,2.027,12.825,4.585a25.872,25.872,0,0,1,4.243,3.346c1.609,1.633,2.99,3.19,5.42,4,1.78.593,3.052,2.867,4.419,4.5.745.888,1.12,2.074,1.823,3,2.9,3.845,6.151,7.457,8.724,11.5a29.763,29.763,0,0,1,4.3,16.4v1.595c2.274.574,4.618.627,6.318,1.7,4.969,3.137,6.033,7.177,4.476,13.072a49.8,49.8,0,0,1-10.162,19.992,8.606,8.606,0,0,0-2.036,3.93,17.861,17.861,0,0,1-6.332,11.277c5.6,5.482,11.125,10.955,16.726,16.346,4.5,4.338,9.032,8.657,13.689,12.829,4.267,3.816,8.971,7.162,13.029,11.178a190.51,190.51,0,0,1,13.726,15.222c2.634,3.232,2.459,7.537,2.44,11.505-.071,14.851-.029,29.717-.574,44.554-.456,12.355-1.149,24.743-2.715,36.993-1.305,10.214-4.044,20.239-6.113,30.358-.679,3.322-1.158,6.692-1.9,10a21.676,21.676,0,0,1-2.041,6.422c-5.174,8.6-8.406,18.031-12.212,27.225a31.593,31.593,0,0,1-2.036,4.281c-.294.484-1.177.612-1.789.9-.09-.66-.465-1.452-.228-1.96,4.851-10.29,8.273-21.212,14.063-31.117,1.851-3.171,2.107-7.314,2.9-11.054,2.321-10.836,4.932-21.629,6.688-32.555,1.277-7.931,1.481-16.048,1.974-24.093.546-8.809,1.063-17.628,1.253-26.452.247-11.386,0-22.787.271-34.174.18-7.689-4.12-12.806-9.146-17.628-6.2-5.947-12.507-11.78-18.71-17.718-4.348-4.163-8.6-8.434-12.91-12.64a5.832,5.832,0,0,0-2.582-1.524,51.7,51.7,0,0,1,2.183,5.8,99.878,99.878,0,0,1,2.938,25.113c-.047,5.511-.128,11.021-.062,16.532a3,3,0,0,1-2.563,3.379c-3.417.892-6.816,1.861-10.053,2.748,3.076,4.438,6.132,8.743,9.032,13.162a2.593,2.593,0,0,1-.218,2.459c-7.153,4.381-10.119,11.89-13.722,18.758-5.5,10.48-10.7,21.136-15.478,31.962-5.074,11.51-9.493,23.3-14.2,34.976a7.964,7.964,0,0,1-1.03,1.941c.968-6.555,1.585-13.133,4.538-19.256,3-6.246,5.349-12.81,8.387-19.038,6.778-13.883,13.655-27.728,20.851-41.4,1.87-3.555,5.06-6.412,7.717-9.683-1.656-2.463-3.565-5.43-5.605-8.3-.864-1.215-2.069-2.188-3-3.36-1.623-2.036-1.1-3.394,1.353-4.006,3.432-.859,6.868-1.723,10.247-2.767a2.729,2.729,0,0,0,1.666-1.875c-.043-11.833.759-23.7-1.452-35.455-1.6-8.524-4.9-16.1-11.277-22.161-1.623-1.543-3.071-3.27-4.7-4.808a2.32,2.32,0,0,0-1.775-.513c-2.278.418-4.523.987-7.006,1.552-.593,2.459.494,4.708,2.036,6.64,1.823,2.283,3.968,4.31,5.966,6.45,3.242,3.474,6.484,6.958,7.708,11.757,1.367,5.363.252,10.451-1.661,15.473a33.979,33.979,0,0,0-1.685,5.382,89.614,89.614,0,0,1-7.3,22.726c-3.474,7.006-3.792,14.861-5.558,22.327-1.713,7.238-3.455,14.476-5.449,21.639a126.619,126.619,0,0,1-4.319,12.383c-3.64,9.251-7.485,18.421-11.064,27.69-.641,1.657-.346,3.659-.565,5.492-2.573,21.762-3.389,43.624-3.935,65.509a15.254,15.254,0,0,1-.342,3.365c-.133.513-.845.878-1.3,1.31-.38-.56-1.1-1.134-1.082-1.685.152-6.26.361-12.516.669-18.772.375-7.537.665-15.084,1.353-22.593.826-9.009,2.207-17.965,2.976-26.974.309-3.636-.37-7.352-.6-11.031-.375-6.094-.783-12.189-1.12-18.288a119.676,119.676,0,0,0-4.129-24.263c-2.834-10.627-5.791-21.226-8.638-31.848-1.248-4.651-2.368-9.336-3.455-13.655l-2.5-.441c.565-.584,1.13-1.163,1.993-2.05-1.979-5.743-4.153-11.842-6.161-17.993-.892-2.729-1.462-5.567-2.236-8.591-4.485-.731-4.571.522-11.633-4.856.076,1.277.133,2.345.2,3.408.655,9.63,1.324,19.256,1.956,28.891.076,1.153.427,1.789,1.68,1.927,2.392.261,4.784.6,7.158,1,.821.138,2.131.418,2.264.9a4.036,4.036,0,0,1-.636,2.644c-1.97,3.56-3.987,7.091-6.094,10.565a5.054,5.054,0,0,0-.28,4.718c4.893,13.551,10.058,27.016,14.5,40.714,3.878,11.97,7.039,24.178,10.257,36.348.783,2.966.555,6.2.793,9.317l-.56.057c-1.728-6.526-3.37-13.081-5.207-19.579-3.935-13.935-7.76-27.9-13.109-41.4-3.3-8.339-6.033-16.907-9.075-25.35a6.365,6.365,0,0,1,.47-5.824c2.06-3.474,3.954-7.044,5.995-10.708-2.582-.394-5.159-.8-7.741-1.177-1.685-.247-2.354-1.106-2.43-2.886-.38-9.042-1.182-18.074-1.244-27.111a44.719,44.719,0,0,0-2.459-14.253,12.388,12.388,0,0,1-.413-3.569c-.062-2.245-.019-4.495-.019-7.537-7.281,5.093-14.011,9.8-20.609,14.41.579,1.381,1,2.387,1.424,3.394-.19.114-.38.233-.569.346-.712-.6-1.429-1.2-2.5-2.088-.9,1.685-2.069,3.152-2.5,4.8-1.647,6.341-3.607,12.668-4.447,19.137-1.87,14.419-3.341,28.9-4.58,43.391-1.087,12.687-2.786,25.36-2.136,38.151a13.072,13.072,0,0,0,.166,2.027c2.136,10.333,4.167,20.694,6.493,30.984,1.343,5.952,3.555,11.719,4.689,17.7,1.334,7.02,2.943,14.244,2.525,21.268-.365,6.166.612,12.151.47,18.221-.028,1.125.707,2.245.883,3.4a17.117,17.117,0,0,1,.214,4.2,1.986,1.986,0,0,1-1.476,1.3,2.075,2.075,0,0,1-1.481-1.31,17.094,17.094,0,0,1-.622-4.9,150.951,150.951,0,0,0-1.851-33.842c-.816-5.112-2.34-10.105-3.441-15.174-2.1-9.645-4.125-19.308-6.189-28.962a46.176,46.176,0,0,0-1.353-5.719c-2.16-6.09-1.846-12.255-1.163-18.544.978-8.994,1.538-18.036,2.368-27.05.346-3.754.992-7.476,1.4-11.225,1.21-11.088,2.311-22.189,3.6-33.272a60.3,60.3,0,0,1,1.851-8.6c1.248-4.656,2.468-9.336,4.091-13.864a11.185,11.185,0,0,1,3.636-5.036c5.833-4.248,11.823-8.287,17.908-12.17,3.351-2.141,3.678-2.435,2.017-5.971-1.149-2.444-2.3-4.894-3.6-7.252-.256-.465-1.22-.669-1.884-.75-4.106-.484-7.409-3.868-6.759-7.219a19.726,19.726,0,0,1,1.766-3.935c-1.111-.09-2.193-.271-3.28-.256-6.607.081-12.782-5.2-11.14-13.807.071-.37.152-.74.237-1.106.261-1.115.195-2.862.859-3.209a10.318,10.318,0,0,1,4.386-.622c3.375-.071,6.754-.024,10.442-.024-1.808-2.383-1.191-4.737-.693-7.286.313-1.6-.645-3.446-1.03-5.183-.214-.081-.422-.157-.636-.237-.964,1.305-1.927,2.611-2.573,3.493l-5.61-1.732c.835-3.868,3.906-5.435,6.972-7.879-1.068-1.6-2.188-3.251-3.285-4.917-.323-.489-.845-1.039-.816-1.533.252-4.011-1.168-8.045.517-12.061.935-2.226,2.6-3.384,4.476-4.519,1.087-.66,2.563-1.253,3.028-2.264,2.53-5.492,7.181-8.99,11.743-12.673Zm-12.421,51.7c1.263-.821,2.459-2.179,3.807-2.354,3.08-.4,6.327-.541,8.534,2.644a5.823,5.823,0,0,0-3.474-6.465c-2.255-.959-5.354-.166-6.574,1.813-.859,1.4-1.533,2.91-2.288,4.376.1,4.31,2.017,6.085,5.715,5.121-3.1-1.576-1.718-4.044-1.272-6.327-.157-.142-.318-.28-.475-.422-1.092.94-2.183,1.875-3.36,2.891-.176-.37-.394-.826-.608-1.282Zm31.815,69.772c1.168,2.9,2.373,5.349,3.147,7.931a25.023,25.023,0,0,0,8.629,12.929c2.829,2.226,5.5,4.656,8.287,6.93,2.084,1.694,3.735,1.1,5.577-.821a87.555,87.555,0,0,1,10.7-9.868c3.47-2.568,7.551-4.314,11.377-6.389a8.958,8.958,0,0,0,4.39-9.763,51.435,51.435,0,0,0-2.345-6.6c-2.957-7.1-5.791-14.23-6.683-21.966a2.606,2.606,0,0,0-1.172-1.433c-2.5-1.709-3.526-3.546-2.734-6.1.8-2.582,2.682-4.419,5.387-6.26a6.592,6.592,0,0,1-.389,1.452c-.759,1.025-1.538,2.046-2.354,3.028-2.307,2.762-1.338,6.175,2.169,6.972,4.215.964,7.9-.508,11.021-3.285,2.212-1.965,3.175-4.67,3.845-7.537a12.471,12.471,0,0,1,2.05-4.927c4.3-5.316,7.8-10.926,8.928-17.851.351-2.136.289-3.773-1.31-5.34a4.817,4.817,0,0,0-5.444-1.082c-3.854,1.6-7.917,3.014-10.072,7.139-.935,1.789-2.131,3.446-3.2,5.14-.854-1.372-.5-2.881.446-4.367,2.283-3.6,4.856-6.645,9.08-8.382,4.362-1.789,8.221-3.071,11.847,1.471-.707-6.393-6.033-10.85-11.876-7.594-5.368,2.99-10.589,6.678-11.41,14.054-1.922-3.484-.024-5.9,1.7-8.4a5.081,5.081,0,0,0-1.865.584c-5.7,3.394-11.391,6.783-17.054,10.228a17.54,17.54,0,0,0-3.8,2.791,6.052,6.052,0,0,1-4.761,2.141c-1.533-.024-2.6.3-2.506,2.264a4.227,4.227,0,0,1-1,2.449c-3.232,4.243-6.659,8.187-12.9,6.474-.119-.033-.275.09-.418.142-1.96,5.748-5.923,8.539-12.184,6.778a15.017,15.017,0,0,0-7.1-.494c-3.526.807-6.868,2.449-10.475,3.811.313.645.646,1.334.869,1.8,2.881-.646,5.42-1.315,8-1.766,1.661-.29,3.56-.793,5.036-.285,4.134,1.424,8.32,1.092,12.526,1.125,4.742.038,8.653-1.543,11.059-5.325-.157-1.125-.271-1.927-.384-2.734.793.19,1.6.323,2.373.579a23.59,23.59,0,0,1,3.294,1.315c.513.266.845.878,1.258,1.334a6.09,6.09,0,0,1-1.5.978,2.44,2.44,0,0,1-1.552-.138c-1.647-.693-2.663.095-3.721,1.244a14.453,14.453,0,0,1-3.512,3.095c-5.8,3.1-12.122,2.577-18.088,1.244-4.438-.992-8.477-.081-12.687.294-.384.033-.736.422-1.291.759,3.085,3.541,3.365,7.7,3.166,12a17,17,0,0,0,.048,4.737c.683,2.81,1.068,6.109,2.805,8.154,3.337,3.925,7.922,5.857,13.314,4.2,4.656-1.433,9.554-2.364,13.893-4.466,5.881-2.848,11.173-6.882,17-9.863,4.917-2.52,7.452-6.583,9.365-11.372.275-.688.593-1.362.892-2.046.237.085.479.176.717.261a26.081,26.081,0,0,1-.873,3.337c-.5,1.253-1.49,2.349-1.813,3.631-.983,3.944-3.74,6.27-7.02,8.131-6.745,3.826-13.532,7.585-20.319,11.339a8.832,8.832,0,0,1-2.131.7c-2.027.5-4.063.959-6.275,1.476Zm23.091,49.462c.033,6.6-1.291,13.128-2.734,19.669-.944,4.281-2.207,8.449-1.467,13.119,1.509,9.516,2.368,19.137,3.408,28.725.384,3.564.527,7.153.778,10.732a2.781,2.781,0,0,0,1.044-1.476c3.7-10.921,7.442-21.824,11.021-32.783a12.252,12.252,0,0,0,.641-5.928c-2.16-10.594-4.585-21.131-6.844-31.345-2.236-.271-4.044-.489-5.852-.712Zm16.873-6.09c2.221-4.969,4.433-9.9,6.626-14.832,2.107-4.732,3.949-9.5,7.9-13.266,5.083-4.841,6.512-15,2.848-20.837-2.525-4.02-6.052-7.409-9.127-11.078l-.75.565q1.709,2.734,3.417,5.473a55.891,55.891,0,0,1,3.94,6.479c2.8,6.3-2.516,14.771-7.229,17a115.283,115.283,0,0,0-14.875,8.7c-2.359,1.585-4.11,4.082-6.066,6.09a22.2,22.2,0,0,1,2.663,3.3c1.538,3.014,2.753,6.2,4.39,9.16a8.112,8.112,0,0,0,3.194,2.748,9.135,9.135,0,0,0,3.057.5Zm-44.554-81.528c4.447.37,7.775-2.145,7.931-5.9-6.384-.5-11.961-2.383-15.639-8.282a9.57,9.57,0,0,1-1.547-7.461c.413-1.846.418-3.337-1.547-4.087-1.8-.688-3.417.166-4.314,2.212-.93,2.131-1.4,4.576-2.724,6.4a80.556,80.556,0,0,1-8.036,9.308c-2.312,2.33-3.5,4.974-2.16,6.692a7.06,7.06,0,0,0,5.069,2.952,14.9,14.9,0,0,0,8.292-1.32,34.454,34.454,0,0,1,8.036-2.928c2.473-.489,5.117-.1,8.263-.1-.831,1.282-1.177,1.813-1.628,2.511Zm60.583,55.827-1.191-.57c-1.429,2.292-3.057,4.485-4.248,6.9-1.97,3.973-3.693,8.074-5.458,12.146-.987,2.278-2.468,4.571-2.6,6.92-.128,2.326-1.381,2.4-2.634,2.231-2.848-.394-5.961-.4-7.76-3.5-2.492,6.806-2.359,8.947-.218,15.283,1.462,4.333,2.511,8.814,3.631,13.257.788,3.137,1.386,6.322,2.069,9.488a5.242,5.242,0,0,0,1.172-2.349c1.633-7.414,3.337-14.818,4.822-22.265a87.543,87.543,0,0,1,6.208-19.28c2.648-5.819,4.177-12.151,6.2-18.255ZM295.608,128.4c.413,2.368.133,4.756,1.191,6.028a28.331,28.331,0,0,0,7.309,6.166c3.8,2.231,8.282,1.993,12.545,2.112,3.892.109,7.475-2.131,8.3-5.435.731-2.914.683-6.023.959-8.871H295.6Zm15.791,81-.451.2,14.481,52.1c.2-.028.4-.052.6-.081.418-1.652.878-3.3,1.253-4.965,1.5-6.688,3.114-13.4,2.179-20.31a9.108,9.108,0,0,0-4.224-6.939c-.437-.266-.65-.93-.935-1.429a43.075,43.075,0,0,0-2.179-3.854c-1.652-2.33-3.479-4.538-5.159-6.844-1.894-2.6-3.712-5.249-5.567-7.879Zm-24.52-81.975c-2.345,0-4.566.014-6.783,0-4.5-.038-9-.2-13.5-.057a4.225,4.225,0,0,0-3.137,1.661c-1.543,2.848-.152,8.064,2.4,10.005,3.5,2.663,7.556,2.573,11.633,2.126a2.5,2.5,0,0,0,1.353-.759c3.636-3.707,7.243-7.442,8.031-12.972Zm44.73,92.141c-.883-.176-2.411-.484-4.072-.821A27.684,27.684,0,0,1,326.26,223c-1.058,2.226-.451,4.082.807,5.919.513.745,1,1.5,1.524,2.24,1.348,1.894,2.615,3.859,4.1,5.639,1.12,1.343,3.27,1.334,3.906.147a15.389,15.389,0,0,0,1.419-3.232c.645-2.4,1.168-4.632-1.12-6.83-1.993-1.913-3.318-4.518-5.292-7.319Zm-7.594,4.5c.271-.066.536-.128.807-.195a40.3,40.3,0,0,0,1.452-4.675,2.768,2.768,0,0,0-.717-2.174,54.476,54.476,0,0,0-4.381-3.541c-5.473-4.239-9.982-9.113-11.448-16.233a71.3,71.3,0,0,0-2.326-7.357c-2.43.247-2.364,1.875-2.027,3.095a41.24,41.24,0,0,0,2.966,8.477,96.542,96.542,0,0,0,6.431,9.83c3.019,4.3,6.151,8.52,9.236,12.772Zm-8.98-109.575c-1.69.546-3.807.641-4.979,1.742-2.112,1.989-1.149,6.066,1.3,7.718,3.6,2.425,7.48,2.022,11.3.949a4.12,4.12,0,0,0,2.164-2.729c.361-1.533-.261-3.019-2.245-3.84.2,2.682-.432,4.818-3.028,5.586a4.3,4.3,0,0,1-4.946-1.932c-1.543-2.335-.778-4.723.432-7.5Zm47.734-1.8,1.1.2c2.587-4.879,2.463-10.143,1.424-15.43-1.115-5.686-4.6-9.521-10.053-12.151a14.644,14.644,0,0,1-.009,1.766c-.318,2.06.28,3.308,2.52,3.878a7.292,7.292,0,0,1,3.788,2.269c3.384,4.348,2.734,9.483,2.269,14.5a43.268,43.268,0,0,1-1.035,4.974Zm-51.55,1.433c6.678-2.368,11.182.859,15.046,5.7,1.675-3.4-1.41-8.529-6.37-10.167A7.291,7.291,0,0,0,311.219,114.127Zm49.875-4.091.693.052a7.612,7.612,0,0,0,.636-2.226,93.243,93.243,0,0,0-.555-9.431c-.489-3.707-2.933-5.838-6.635-7.086.086,1.661.157,3.061.228,4.381,4.091,1.338,4.813,2.449,4.951,6.621C360.5,104.914,360.857,107.472,361.094,110.035Zm-90.466-16.75c1.329-3,2.658-6,4.182-9.436C271.141,85.872,269.29,89.825,270.628,93.285Zm83.593-14.718c.242,5.245.432,5.482,5.791,7.357C357.98,83.337,356.253,81.144,354.221,78.567Zm12.535,31.53c2.278-.327,2.924-5.178,1.32-8.183C367.682,104.354,367.217,107.244,366.756,110.1ZM356.495,97.324l-.968.5a3.925,3.925,0,0,0,2.615,4.314l.683-.37q-1.16-2.221-2.326-4.443Z" transform="translate(-248.267 -58.616)"/>
      <path id="Tracé_3" data-name="Tracé 3" d="M367.43,157.035c1.438-2.971,3.137-4.808,5.8-5.767,6.944-2.5,13.912-3.987,20.5.66,2.069,1.457,3.565,3.764,5.2,5.781.3.38.019,1.239,0,1.875a6.507,6.507,0,0,1-1.965-.375c-1.8-.992-3.536-2.112-5.468-3.284-.859,1.808-1.884,1.543-3.256.176a8.019,8.019,0,0,0-5.961-2.255c-4.343.038-8.544.384-12.2,3.142-.484.365-1.486.052-2.648.052Z" transform="translate(-310.871 -106.053)"/>
      <path id="Tracé_4" data-name="Tracé 4" d="M473.08,277.98c3.935,1.134,6.1,4.2,7.96,7.585Q477.06,281.77,473.08,277.98Z" transform="translate(-366.375 -173.862)"/>
      <path id="Tracé_5" data-name="Tracé 5" d="M482.17,274.9c3.764,1.073,4.39,4.922,6.906,7.1-.223.19-.441.384-.665.574q-3.118-3.838-6.242-7.68Z" transform="translate(-371.151 -172.244)"/>
      <path id="Tracé_6" data-name="Tracé 6" d="M286.9,369.9c1.675,3.479,1.286,5.843-1.244,8.04C286.082,375.2,286.448,372.828,286.9,369.9Z" transform="translate(-267.912 -222.153)"/>
      <path id="Tracé_7" data-name="Tracé 7" d="M355.107,340.13q-.391,4.208-.783,8.411C353.844,345.664,353.032,342.769,355.107,340.13Z" transform="translate(-303.688 -206.513)"/>
      <path id="Tracé_8" data-name="Tracé 8" d="M345.8,352.085V344.6h.46v7.452c-.152.014-.309.024-.46.038Z" transform="translate(-299.507 -208.861)"/>
      <path id="Tracé_9" data-name="Tracé 9" d="M290.15,335.83c1.671,2.226,1.581,3.954-.28,5.6C289.955,339.76,290.036,338.089,290.15,335.83Z" transform="translate(-270.123 -204.254)"/>
      <path id="Tracé_10" data-name="Tracé 10" d="M484.912,411.9c.7.769,1.229,1.348,1.756,1.932-.484.323-1.1,1.011-1.433.892a8.042,8.042,0,0,1-1.975-1.419c.451-.38.9-.764,1.652-1.41Z" transform="translate(-371.724 -244.218)"/>
      <path id="Tracé_11" data-name="Tracé 11" d="M595.04,392.537c-1.7.878-3.052,1.576-4.58,2.368C591.618,392.343,592.7,391.721,595.04,392.537Z" transform="translate(-428.043 -233.869)"/>
      <path id="Tracé_12" data-name="Tracé 12" d="M494.782,209.726c.18-1.837.442-3.669.517-5.506.081-1.941-1.087-2.345-2.677-1.751-3.076,1.149-4.538,3.731-6.109,6.631a7.358,7.358,0,0,1,.038-2.378c.973-2.672,2.378-5.183,5.212-6.151a5.608,5.608,0,0,1,4.163.233c.831.484,1.4,2.326,1.229,3.427a32.369,32.369,0,0,1-1.937,5.7c-.147-.066-.294-.138-.437-.2Z" transform="translate(-373.388 -133.042)"/>
    </g>
  </g>
</svg>
