<svg id="Groupe_53" data-name="Groupe 53" xmlns="http://www.w3.org/2000/svg" xmlns:xlink="http://www.w3.org/1999/xlink" width="183.484" height="363.059" viewBox="0 0 183.484 363.059">
  <defs>
    <clipPath id="clip-path">
      <path id="Tracé_730" data-name="Tracé 730" d="M93.422,8.137C90.259,9.719,80.136,15.413,77.6,19.209c-.784,1.177-5.061,7.909-9.49,10.124S52.3,36.609,51.665,37.558,50.716,48,50.716,51.477s6.327,11.389,6.327,15.184-1.265,15.5-1.582,19.3a9.5,9.5,0,0,1-2.214,5.694s-5.694-4.113-8.225-3.164-8.114,4.786-7.221,6.664.261,8.521,1.526,10.1,4.745,9.174,6.327,10.439,7.5,6.776,9.129,10.506,5.423,9.108,4.791,14.486.949,19.613.316,24.042.633,7.276-1.581,7.592-34.8,11.705-37.645,13.287-14.552,6.643-16.134,11.7S3.264,221.987,7.06,227.048,11.8,238.437,17.5,254.57,38.694,321,40.592,326.381s8.225,26.889,8.857,27.839,51.5,30.4,74.15-5.521-1.074.459-1.074.459l13.6-36.7,37.012-80.984s10.012-17.264,10.226-22.868a53.675,53.675,0,0,0-2-16.359c-1.582-6.326.317-20.246,0-24.675s-10.123-28.155-7.593-33.532,5.062-22.777,6.011-28.471-.317-30.369-.317-30.369-15.5-34.482-17.082-37.012-7.909-6.643-14.236-15.184S118.413,7.5,113.668,6.873a51.951,51.951,0,0,0-6.259-.306c-5.38,0-11.825.49-13.987,1.57" transform="translate(-3.633 -6.567)" fill="none"/>
    </clipPath>
    <linearGradient id="linear-gradient" x1="-0.006" y1="0.952" x2="-0.003" y2="0.952" gradientUnits="objectBoundingBox">
      <stop offset="0" stop-color="#5d585a"/>
      <stop offset="0.978" stop-color="#aeb9b0"/>
      <stop offset="1" stop-color="#aeb9b0"/>
    </linearGradient>
    <clipPath id="clip-path-2">
      <rect id="Rectangle_14" data-name="Rectangle 14" width="183.484" height="363.059" fill="none"/>
    </clipPath>
  </defs>
  <g id="Groupe_50" data-name="Groupe 50" transform="translate(1.74 3.145)">
    <g id="Groupe_49" data-name="Groupe 49" clip-path="url(#clip-path)">
      <rect id="Rectangle_13" data-name="Rectangle 13" width="180.633" height="378.051" transform="translate(-0.685 0)" fill="url(#linear-gradient)"/>
    </g>
  </g>
  <g id="Groupe_52" data-name="Groupe 52">
    <g id="Groupe_51" data-name="Groupe 51" clip-path="url(#clip-path-2)">
      <path id="Tracé_731" data-name="Tracé 731" d="M77.934,249.891c-2.067-7.506-4.17-15-6.192-22.52C69.4,218.647,66.617,210,64.967,201.143c-1.431-7.682-.465-15.443,3.985-22.26a15.727,15.727,0,0,1,3.911-3.671c1.709-1.273,3.617-2.274,5.387-3.472.272-.183.262-.784.272-.819a79.72,79.72,0,0,1-11.5.273c-2.476-.2-5.045-1.028-7.423.538a1.031,1.031,0,0,1-.8.047c-3.288-1.19-6.245.275-9.248,1.185-4.373,1.325-8.677,2.893-13.08,4.108C29.492,179,22.595,181.169,16.411,185c-4.127,2.556-8.029,5.554-10.378,10.007A15.515,15.515,0,0,0,4.2,200.04c-.674,5.166-1.071,10.281,1.112,15.363q5.424,12.627,10.218,25.522c1.92,5.135,3.287,10.476,4.949,15.71,3.7,11.662,7.611,23.261,11.1,34.985,3.351,11.251,6.283,22.627,9.4,33.948a4.384,4.384,0,0,0,.5,1.578c2.764,3.381,3.013,7.7,4.42,11.587,1.061,2.93,2.3,5.8,3.457,8.691.1.258.245.5.348.758.525,1.3.548,2.534-.929,3.17-1.355.583-2.335-.156-2.838-1.363-1.363-3.265-2.855-6.5-3.9-9.868-6.176-19.85-12.237-39.736-18.341-59.608-3.552-11.565-6.907-23.2-10.741-34.667-2.331-6.973-5.467-13.673-8.125-20.542-1.553-4.014-3.52-8.017-4.172-12.2-1.51-9.692-.936-18.955,7.35-26.169A53.753,53.753,0,0,1,26.93,176.317c5.4-1.761,10.9-3.2,16.352-4.816,4.109-1.217,8.188-2.536,12.312-3.7,1.4-.4,1.378-1.378,1.4-2.42.1-5.284.091-10.572.28-15.853a62.3,62.3,0,0,0-1.09-14.508c-1.545-7.746-5.765-13.978-10.738-19.841-3.9-4.6-8.286-8.99-9.48-15.2a21.064,21.064,0,0,1-.056-8.251c1.228-5.63,7.738-8.438,13.065-6.022.8.363,1.611.709,2.69,1.184a25.925,25.925,0,0,0,.564-3.687c.021-6.107.033-12.216-.129-18.32a11.778,11.778,0,0,0-1.209-4.181C47.725,53.438,47,45.856,47.667,38.039a6.341,6.341,0,0,1,3.7-5.356c4.681-2.569,9.39-5.1,13.927-7.912a53.039,53.039,0,0,0,6.057-5.006c.664-.565,1.284-1.183,2.021-1.866.514,2.479.073,3.041-7.778,10.75,1.233-.594,2.5-1.133,3.691-1.8a16.185,16.185,0,0,1,3.94-1.9,3.628,3.628,0,0,1-.338,1.265c-2.352,3.119-4.8,6.144-8.465,7.849A15.743,15.743,0,0,0,57.613,40.8c5.4-4.914,11.014-9.346,18.577-9.847l.478.825-4.5,2.916,6.994-1.721.233.641c-.1.231-.146.615-.307.672-3.042,1.075-3.716,4.024-4.785,6.464-1.12,2.556-1.576,5.4-2.373,8.1A15.7,15.7,0,0,1,70.546,52.7c-2.15,3.475-4.471,6.844-6.74,10.244a6.148,6.148,0,0,1-1.168,1.46C59.07,67.22,58.3,70.97,58.28,75.339c-.042,9.451-.525,18.9-.761,28.352a33.088,33.088,0,0,0,2.069,13.234c2.018,5.144,3.237,10.612,4.66,15.977.8,3.009,1.1,6.154,1.99,9.13A14.95,14.95,0,0,0,75.448,152.2c7.148,2.942,14.024,6.564,20.941,10.044,5.4,2.717,10.833,5.283,16.879,6.178,6.6.978,11.682-1.256,15.063-7.167a17.658,17.658,0,0,1,2.473-3.075c4.132-4.464,8.373-8.832,12.385-13.4a6.668,6.668,0,0,0,1.087-3.866c.414-9.232.034-18.516,1.912-27.645.91-4.423,1.772-8.858,2.806-13.253a4.357,4.357,0,0,0-.854-4.278c-1.375-1.476-2.906-2.808-4.525-4.35L141.7,97.037l6.45,4.248-.386,1.064c-7.395-4.949-15.218-6.046-23.61-2.919.528-4,2.91-5.832,6.1-7.066,1.6-.616,2.978-1.853,4.6-2.336,5.462-1.63,10.3-.609,14.09,3.951.294.353.632.67,1.456,1.536,1.09-4.945,2.112-9.368,2.965-13.825.074-.384-.9-1.315-1.5-1.423a14.223,14.223,0,0,0-8.945,1.026c-3.312,1.594-6.7,3.035-9.962,4.725-3.678,1.905-6.312.256-8.83-2.361-.316-.329.02-1.287.075-2.376,3.071,2.651,5.95,2.106,8.7,1.092a36.008,36.008,0,0,0,6.1-3.123,18.569,18.569,0,0,1,12.138-2.78c.478.057.963.066,1.444.089a1.72,1.72,0,0,0,.366-.118c.4-3.225-.319-6.367-1.125-9.518-.93-3.634-1.874-7.271-2.6-10.948a34.018,34.018,0,0,0-7.572-15.311,85.183,85.183,0,0,0-5.8-6.522,46.721,46.721,0,0,0-21.3-11.621,17.611,17.611,0,0,1-3.581-1.085c-3.967-2.033-7.417-.661-10.73,1.5-3.015,1.972-5.808,4.328-8.957,6.039a45.278,45.278,0,0,1-8.719,3.285c-.823.245-1.944-.509-2.928-.805a21.566,21.566,0,0,1,1.311-2.539c3.147-4.555,7.75-7.491,12.085-10.7,1.992-1.476,4.18-2.688,6.441-4.122-.291-.033-.523-.131-.7-.068C91.19,16.777,84,20.1,79.62,27.488A10.8,10.8,0,0,1,77.511,29.5c-.842-.933-2.148-1.738-2.449-2.822-1.515-5.464-1-10.567,3.267-14.846,3.95-3.963,8.335-7.082,13.924-8.294,5.075-1.1,10.116-2.356,15.171-3.543h5c6.042,1.81,12.1,3.578,18.118,5.462a12.048,12.048,0,0,1,4.084,1.988c5.7,4.744,11.59,9.268,16.295,15.131,2.013,2.509,4.888,4.328,6.874,6.854A145.751,145.751,0,0,1,168.3,44.13c5.348,8.883,8.628,18.716,10.765,28.786a71.645,71.645,0,0,1,1.006,26.967c-1.184,6.969-2.562,13.906-3.628,20.892a50.339,50.339,0,0,0-.168,7.861c.065,10.1,2.086,19.846,4.963,29.492a48.609,48.609,0,0,1-.264,30.037c.886,2.8,1.88,4.821,2.106,6.92.372,3.446.441,6.967-1.609,10.1a5.6,5.6,0,0,0-.826,2.13c-1.111,7.054-4.49,13.3-7.214,19.736-3.979,9.4-8.325,18.659-12.815,27.831-9.2,18.8-17.2,38.13-25.461,57.344-3.02,7.022-5.855,14.128-8.568,21.274-1.2,3.17-1.889,6.537-2.827,9.809-.3,1.059-.6,2.5-2.056,1.963-1.407-.522-.729-1.857-.409-2.907,4.608-15.107,10.708-29.639,16.9-44.137,4.153-9.717,8.081-19.534,12.4-29.174,5.173-11.537,10.646-22.94,16.015-34.389,2.092-4.462,4.431-8.816,6.343-13.353,2.692-6.389,5.1-12.9,7.612-19.365.822-2.116.631-6.279-.415-10.8-5.992,7.852-11.243,16.431-19.485,22.618l-.8-1.273L148.41,223.571l-.578-.257c.281-1.851.561-3.7.789-5.206l-13.4,8.452-1.718-2.782c-.881,1.446-1.663,2.577-2.292,3.788a224.938,224.938,0,0,0-15.106,37.9c-2.647,8.633-6.849,16.555-10.367,24.792a63.728,63.728,0,0,0-4.04,13.078c-.549,2.9.367,6.06.388,9.105.069,9.6.044,19.206,0,28.808a12.2,12.2,0,0,1-.54,3.888c-.226.651-1.211,1.038-1.854,1.544-.394-.719-1.129-1.439-1.126-2.156.023-5.352.239-10.7.3-16.055.061-5.149.014-10.3,0-15.448,0-.754-.062-1.508-.106-2.492-2.04.872-2.879-.1-3.437-1.8-.226-.69-.944-1.218-1.415-1.79,1.573-1.2,2-1.114,4.308,1.1.381-1.858.736-2.142-2.059-5.654-3.392-4.262-4.61-9.3-6.192-14.206-3.926-12.168-7.581-24.424-11.357-36.641a17.566,17.566,0,0,0-.729-1.714Zm7.4-236.946C81.353,15,76.8,19.936,78.079,23.9c2.373-3.619,4.792-7.306,7.212-10.992l7.085-3.221-.261-.529c-2.475.84-4.99,1.6-6.786,3.791m37.995,215.9-.162.047c7.727-4.3,11.337-11.2,12.058-19.726.725-8.569.03-16.984-4.325-24.667a53.707,53.707,0,0,0-4.138-5.482c-.995,3.13-.725,4.99,1.563,6.655a9.1,9.1,0,0,1,3.2,4.428c1.879,6.335.623,12.3-4.525,16.462-5.39,4.362-11.449,7.871-18.735,8.23a5.018,5.018,0,0,0-1.079.426,37.106,37.106,0,0,1,3.468,3.29,21.878,21.878,0,0,1,2.414,3.877c.888,1.728,1.568,3.563,2.435,5.3,2.217,4.45,4.15,4.755,7.652,1.272a1.063,1.063,0,0,1,.172-.116M56.345,113.471l.007.049c-.035-.485-.041-.975-.109-1.455-.628-4.4-.244-8.929-2.442-13.125a17.706,17.706,0,0,0-6.1-7.188c-1.59-1-3.332-2.192-5.331-.552-.281.231-.974-.043-1.476-.083.094-.561-.008-1.3.315-1.652a4.161,4.161,0,0,1,4.964-.941,15.838,15.838,0,0,1,8.891,8.854c.248.581.519,1.153.99,2.2.967-3.466,1-6.351-1.286-8.495-1.84-1.728-3.982-3.553-6.313-4.251-6.189-1.853-10.261.2-11.3,6.316a13.227,13.227,0,0,0,1.484,9.5c2.532,3.956,5.351,7.728,8.073,11.56,2.04,2.872,4.162,5.687,6.173,8.578a63.7,63.7,0,0,0,3.649,5.53c.672.777,2.606,1.5,3.15,1.108.87-.627,1.168-2.176,1.482-3.393.133-.516-.264-1.2-.494-1.775-1.432-3.6-2.885-7.186-4.332-10.777m18.74,86.319a52.8,52.8,0,0,0,4.485,5.122c2.591,2.287,5.4,4.541,8.906,5.031,5.134.72,10.348.853,15.5,1.485,7.858.964,14-3.095,20.363-6.618,2.737-1.516,1.694-4.54,2.7-6.745.065-.142-.362-.506-.556-.77a5.266,5.266,0,0,1-.933-1.31c-1.316-4.113-2.5-8.266-2.082-12.659.265-2.764.556-5.531,1.009-8.268.435-2.627,1.093-5.218,1.655-7.832a17.355,17.355,0,0,1-3.376,1.937,21.816,21.816,0,0,1-15.449-.726c-.8-.345-1.421-1.147-2.232-1.458-2.7-1.036-5.526-1.761-8.155-2.94-5.945-2.665-11.8-5.534-17.7-8.3a10.431,10.431,0,0,0-1.564-.412,45.484,45.484,0,0,0,1.658,6.7c2.763,6.629,2.565,13.415,1.524,20.3-.561,3.7-1.273,7.4-1.628,11.12a7.479,7.479,0,0,1-4.126,6.347m51.145,30.442-.325-.293c-.565.441-1.111.909-1.7,1.315a30.664,30.664,0,0,1-3.466,2.273c-2.5,1.26-4.317.989-5.734-1.382-1.724-2.886-2.825-6.141-4.467-9.084-1.418-2.541-3.216-4.868-4.883-7.344-2.761,3.447-5.046,6.577-7.623,9.444-2.872,3.195-5.859,6.356-10,7.978-2.855,1.119-4.785.62-6.82-1.553-.985-1.052-2.017-2.06-3.027-3.089l-.6.387c7.01,23.031,13.061,46.363,21.318,68.869,3.02-6.644,6.047-13.014,8.814-19.5,1.794-4.2,3.213-8.566,4.793-12.86,3.716-10.1,7.4-20.21,11.174-30.286a43.755,43.755,0,0,1,2.541-4.881M78.984,174.684l-.78-.445a9.6,9.6,0,0,0-1.8,1.249q-3,3.288-5.875,6.7a6.6,6.6,0,0,0-1.615,2.632c-1.075,5.427-1.445,10.961-.027,16.321a123.39,123.39,0,0,0,5,14.351c1.6,3.974,3.248,7.992,6.5,11.037a27.651,27.651,0,0,1,3.462,3.6,2.316,2.316,0,0,0,3.234.808,7.958,7.958,0,0,0,2.359-1.29c3.542-3.5,7.061-7.028,10.462-10.665a25.123,25.123,0,0,0,2.52-3.917,3.02,3.02,0,0,0-.564-.34,3.254,3.254,0,0,0-.619-.06c-7.619-.24-15.019-1.037-21.362-6.054-3.467-2.742-6.594-5.5-7.151-10.207-.114-.962-.44-1.9-.612-2.854-1.277-7.121-1.232-13.8,5.771-18.358.64-.416.75-1.65,1.106-2.5m69.487,22.238.484.13c1.757-4.72,4.031-9.321,5.148-14.189,1.562-6.807,3.5-13.64,3.24-20.739-.1-2.833-.887-5.637-1.036-8.471-.574-10.965-1.343-21.935-1.374-32.9a64.106,64.106,0,0,1,2.226-17.3c2.846-10.146,5.327-20.28,5.816-30.844.537-11.634-.453-23.065-4.4-34.1-.747-2.086-1.858-4.042-2.8-6.057.586,3.134,1.73,6.051,2.306,9.077,1.022,5.376,1.547,10.846,2.555,16.226a73.907,73.907,0,0,1-.074,26.478,50.565,50.565,0,0,1-1.358,6.733,167.651,167.651,0,0,0-7.964,52.765c.1,11.47.12,22.941.146,34.412.01,4.172-.011,8.321-1.508,12.351a44.7,44.7,0,0,0-1.4,6.429m11.869-43.9c0-5.287.024-10.573,0-15.86-.083-15.044,2.789-29.574,7.506-43.791a7.283,7.283,0,0,0,.4-2.237c.014-7.445.148-14.9-.111-22.333-.093-2.684-1.159-5.334-1.782-8l-.531.141c-.228,5.6-.307,11.215-.735,16.8-.3,3.934-1.026,7.839-1.653,11.742-1.409,8.763-5.166,16.942-5.569,26.033a172.275,172.275,0,0,0,2.484,37.5m-4.054,53.781.825.433c2.665-4.371,5.365-8.721,7.987-13.117a46.348,46.348,0,0,0,6.8-21.422c.352-6.354-1.2-12.433-2.665-18.508-2.155-8.953-2.486-17.9.02-26.8,2.7-9.6,6.662-18.9,6.708-29.121.011-2.335.327-4.669.5-7L175.9,91.2c-.343,1.6-.661,3.212-1.032,4.808-2.463,10.625-4.883,21.259-7.426,31.864a65.189,65.189,0,0,0-1.431,21.756c.462,4.685,1.316,9.332,1.733,14.02a62.6,62.6,0,0,1-1.224,19.281c-1.463,6.564-3.344,12.9-7.376,18.433a40.7,40.7,0,0,0-2.86,5.443M156.18,57.383l.679-.276c-.075-1.164-.054-2.343-.239-3.49a102.155,102.155,0,0,0-6.066-23.068c-4.083-9.885-11.553-16.082-20.571-20.5-4.967-2.434-10.646-3.523-16.1-4.8a17.118,17.118,0,0,0-10.416,1.158,2.591,2.591,0,0,0,1.444.158c8.193-2.029,15.179,1.5,21.876,5.265A52.258,52.258,0,0,1,137.9,20.492c4.6,4.6,8.822,9.63,10.834,16.091q2.629,8.441,5.484,16.811a32.919,32.919,0,0,0,1.96,3.989M139.78,209.4c3.688-3.969,7.57-24.332,5.886-28.334l-16.519-2.852c7.9,9.186,10.022,19.721,10.633,31.186M107.247,12.531c4.917,1.927,9.829,3.909,14.783,5.779,8.931,3.371,14.7,10.335,20.236,17.617,1.276,1.679,2.827,3.149,4.252,4.715-4.592-19.777-26.979-31.318-39.271-28.111m67.459,143.476a51.9,51.9,0,0,1-4.44,39.155c9.708-12.064,9-25.368,4.44-39.155M57.165,131.383a83.069,83.069,0,0,1,2.662,26.1c-.137,2.705-.114,5.421-.065,8.131.009.478.5.948.775,1.422a4.493,4.493,0,0,0,.648-1.515c.039-2.639.008-5.281-.061-7.921-.121-4.576-.2-9.157-.465-13.725-.2-3.39-.816-6.757-.97-10.147-.079-1.732-.69-2.4-2.524-2.346m96.057,65.442c4.753-3.5,9.419-20.056,7.412-27.116-1.052,9.163-3.943,17.79-7.342,26.269a3.25,3.25,0,0,0-.07.847m-90.8-66.035-.564.055Q63.11,148.921,64.366,167l.707.361c.175-.366.543-.759.5-1.1-1.582-11.773-.769-23.78-3.152-35.473m-3.1-74.782c1.144-2.938,2.147-5.941,3.474-8.793A53.615,53.615,0,0,1,66.771,40.3a30.089,30.089,0,0,1,3.161-3.511c-8.3,3.627-10.389,10.914-10.61,19.221m85.512,99.653-.914.092.882,21.6,1.217-.063q-.593-10.813-1.185-21.626m-.191-8.908-.8-.153c-1.85,1.7-2.873,11.465-1.381,14.646l2.183-14.493m-94.3-99.176.666.083a18.969,18.969,0,0,1,4.819-13.4c-1.878.946-4.447,1.091-4.8,3.646-.437,3.2-.477,6.445-.689,9.672m82.821,43.591L128.817,95.6l.386.477,5.714-.677-1.75-4.233M70.5,42.252c-3.535,2.93-1.8,7.717-4.053,11.1,3.574-2.917,2.7-7.4,4.053-11.1M173.1,78.4l-.234.021v10.3l.7-.028L173.1,78.4M56.216,44.293l-.762-.2q-.46,3.04-.919,6.081l.317.065,1.364-5.944" transform="translate(0)"/>
      <path id="Tracé_732" data-name="Tracé 732" d="M71,459.763a16.534,16.534,0,0,1,1.144,2c2.18,6,4.528,11.948,6.444,18.033,2.523,8.015,5.141,16.044,6.915,24.241,2.174,10.041,3.452,20.274,5.244,30.4,1.15,6.5,2.629,12.939,3.768,19.44.79,4.512,1.151,9.1,1.887,13.62.781,4.8,1.779,9.568,2.683,14.349.026.137.086.267.105.4.218,1.523.681,3.368-1.364,3.8-2.02.425-2.513-1.374-2.763-2.91-1.314-8.093-2.5-16.206-3.87-24.289-.777-4.589-1.964-9.11-2.712-13.7-1.028-6.309-1.745-12.668-2.721-18.986A293.164,293.164,0,0,0,77.9,488.841c-1.765-6.063-3.573-12.115-5.235-18.207-.8-2.944-1.33-5.964-1.933-8.96a7.71,7.71,0,0,1,.27-1.911" transform="translate(-36.846 -239.577)"/>
      <path id="Tracé_733" data-name="Tracé 733" d="M272.855,497.618a5.193,5.193,0,0,1-.1,1.361c-1.586,4.52-3.266,9.007-4.805,13.543-2.633,7.757-5.235,15.525-7.753,23.32-1.859,5.755-3.59,11.552-5.327,17.346q-3.921,13.081-7.76,26.187c-1.492,5.124-2.966,10.258-4.248,15.437-.459,1.855-.226,3.871-.516,5.782-.111.729-.8,1.369-1.232,2.049-.414-.679-1.263-1.42-1.175-2.025a154.1,154.1,0,0,1,2.7-15.977c2.011-7.867,4.556-15.6,6.911-23.376,4.17-13.774,8.1-27.63,12.663-41.274,2.371-7.091,5.861-13.808,8.887-20.676a10.943,10.943,0,0,1,1.363-1.889l.389.192" transform="translate(-125.025 -259.203)"/>
      <path id="Tracé_734" data-name="Tracé 734" d="M176.221,147.339c-2.827-1.544-5.786-2.888-8.451-4.675-5.407-3.624-10.614-7.548-15.983-11.231-3.18-2.182-7.187-.969-10.139,1.12-1.3.919-1.6,1.587-2.964,2.395-.574.341-1.5.089-2.266.106.208-.711.2-1.656.66-2.095,2.6-2.458,4.918-5.328,8.648-6.259a14.4,14.4,0,0,1,8.56.517c6.564,2.32,11.547,6.765,16.238,11.66,1.775,1.852,3.6,3.663,5.3,5.575a9.543,9.543,0,0,1,1.122,2.194l-.73.693" transform="translate(-71.086 -65.8)"/>
      <path id="Tracé_735" data-name="Tracé 735" d="M179.5,186.609c-8.949-5.261-18.7-3.73-28.245-3.9,2.379-9.062,8.971-13.047,19.62-10.354,5.968,1.51,10.588,9.068,8.625,14.251m-7.359-11.628-2.445,5.977,8.54,2.978c-1.654-3.8-1.76-7.925-6.1-8.956M160.9,180.03c-.26-2.106-.486-3.936-.713-5.78-3.918.633-6.164,3.143-7.634,6.992l8.347-1.212m6.261-3.94-1.64-2.647c-.272.323-.808.684-.768.963.141,1,.1,2.364,2.408,1.684" transform="translate(-78.816 -89.382)"/>
      <path id="Tracé_736" data-name="Tracé 736" d="M239.042,192.969c.018.127.1.32.045.372-4.563,4.359-4.094,10.385-5.208,15.871-1.245,6.132,1.03,11.655,3.249,17.139a19.36,19.36,0,0,0,2.948,5.436c.783.907,2.539.969,3.858,1.411l.445-.651-1.272-3.1.337-.457c.8.631,1.933,1.109,2.319,1.935a4,4,0,0,1,.01,3.092c-.273.552-1.624.679-2.515.775-.579.063-1.206-.409-1.8-.391a4.409,4.409,0,0,0-1.852.552c-.53.282-.944,1.1-1.42,1.114-3.712.075-7.427.017-11.14-.027a1.379,1.379,0,0,1-.738-.362c-1.49-1.2-2.965-2.419-4.392-3.588,1.314-.911,2.72-.766,4.257,1.157a4.689,4.689,0,0,0,4.149,1.815c2.009-.026,4.028.21,6.026.083.924-.059,2.3-.494,2.588-1.148a3.363,3.363,0,0,0-.47-2.979,20.827,20.827,0,0,1-4.4-8.885c-2.084-7.773-2.518-15.644.246-23.33.824-2.291,2.7-4.2,4.1-6.283l.636.444" transform="translate(-115.634 -100.322)"/>
      <path id="Tracé_737" data-name="Tracé 737" d="M185.155,277.785c-1.368-2.827.135-4.72,3.266-4.975a17.543,17.543,0,0,0,1.5,2.428A29.657,29.657,0,0,0,206.5,284.5a31.958,31.958,0,0,0,16.364-.542,3.718,3.718,0,0,1-3.425,2.881c-9.274,1.209-18.009-.032-25.539-6.105-1.708-1.378-3.183-3.046-4.771-4.575-1.945-1.873-2.268-1.8-3.407.713a10.237,10.237,0,0,1-.564.91" transform="translate(-96.218 -142.158)"/>
      <path id="Tracé_738" data-name="Tracé 738" d="M227.307,657.357l5.53-24.742c1.588,4.416-1.488,19.573-4.817,24.875l-.713-.132" transform="translate(-118.447 -329.648)"/>
      <path id="Tracé_739" data-name="Tracé 739" d="M221.986,614.722c-.845,2.255-1.541,4.425-2.507,6.467a2.359,2.359,0,0,1-2.048.789c-.386-.061-.989-1.311-.829-1.811a51.343,51.343,0,0,1,2.537-6.306,1.853,1.853,0,0,1,1.664-.711c.483.146.763.971,1.182,1.572" transform="translate(-112.855 -319.491)"/>
      <path id="Tracé_740" data-name="Tracé 740" d="M180.331,604.955c.385.1.487.1.512.144a58.2,58.2,0,0,1,3.963,6.9c.375.886-1.317,1.544-1.859.69a50.1,50.1,0,0,1-3.27-6.634c-.108-.243.458-.785.654-1.1" transform="translate(-93.621 -315.235)"/>
      <path id="Tracé_741" data-name="Tracé 741" d="M67.8,424.754c.529.087,1.036.013,1.252.231,1.826,1.839,3.367,3.89,3.286,6.63-.019.637-.791,1.251-1.217,1.876-.447-.449-1.131-.824-1.3-1.361-.729-2.333-1.308-4.714-2.022-7.377" transform="translate(-35.329 -221.334)"/>
      <path id="Tracé_742" data-name="Tracé 742" d="M228.589,591.024c1.565-2.792,3.115-5.591,4.743-8.345.064-.109,1.2.125,1.26.354.429,1.6-3.637,7.926-5.341,8.459l-.662-.469" transform="translate(-119.115 -303.613)"/>
      <path id="Tracé_743" data-name="Tracé 743" d="M157.861,515.392c-.087.615.023,1.4-.319,1.792a2.139,2.139,0,0,1-1.615.251,48.169,48.169,0,0,1-2.46-7.8c2.86.995,2.811,4.018,4.436,5.814,0,0-.041-.061-.041-.061" transform="translate(-79.969 -265.567)"/>
      <path id="Tracé_744" data-name="Tracé 744" d="M170.8,573.3c1.3.821,3.693,5.707,3.2,6.921a1.751,1.751,0,0,1-1.6.648c-1.109-.579-2.214-6.36-1.6-7.569" transform="translate(-88.91 -298.741)"/>
      <path id="Tracé_745" data-name="Tracé 745" d="M245.153,551.814l3.9-9.012c1.854,1.491-.659,8.194-3.206,9.307l-.693-.3" transform="translate(-127.746 -282.847)"/>
      <path id="Tracé_746" data-name="Tracé 746" d="M145.818,483.157c-1.876-1.662-3.657-7.256-2.888-8.808,2.045,1.181,4.085,7.137,2.888,8.808" transform="translate(-74.383 -247.177)"/>
      <path id="Tracé_747" data-name="Tracé 747" d="M54.314,397.5c2.052-.5,2.915.71,3.689,1.794a17.762,17.762,0,0,1,1.82,3.467,1.344,1.344,0,0,1-.5,1.205,1.262,1.262,0,0,1-1.211-.3c-1.271-1.941-2.448-3.942-3.8-6.164" transform="translate(-28.302 -207.073)"/>
      <path id="Tracé_748" data-name="Tracé 748" d="M131.926,442.012c.553,1.645.944,2.747,1.292,3.862a30.047,30.047,0,0,1,.879,3.176,1.675,1.675,0,0,1-.366,1.264,1.181,1.181,0,0,1-1.1,0c-1.2-.7-2.006-6.3-.709-8.306" transform="translate(-68.4 -230.327)"/>
      <path id="Tracé_749" data-name="Tracé 749" d="M216.229,262.267c-2.135,2-2.236,4.066.074,6.627-1.231,0-2.242.275-2.908-.087a2.378,2.378,0,0,1-.871-2.062,17.866,17.866,0,0,1,1.625-4.428c.238-.459,1.213-.535,1.851-.786l.228.736" transform="translate(-110.732 -136.281)"/>
      <path id="Tracé_750" data-name="Tracé 750" d="M129.724,676.109q-.782-6.4-1.563-12.8l.6-.069c1.315,4.175,2.2,8.4,1.477,12.818l-.516.055" transform="translate(-66.783 -345.604)"/>
      <path id="Tracé_751" data-name="Tracé 751" d="M128.129,412.141c.48.455,1.26.843,1.381,1.38a25.185,25.185,0,0,1,.5,4.483c.014.342-.446.806-.8,1.012-.142.082-.833-.345-.875-.606-.323-1.98-.548-3.976-.8-5.967l.6-.3" transform="translate(-66.452 -214.762)"/>
      <path id="Tracé_752" data-name="Tracé 752" d="M263.743,503.418c1.14,2.125-.442,6.579-2,6.895-.27.055-1.09-.895-1.005-1.077.859-1.849,1.852-3.635,3.008-5.818" transform="translate(-135.863 -262.325)"/>
      <path id="Tracé_753" data-name="Tracé 753" d="M162.217,542.938c3,1.347,4.127,4.533,2.342,6.944l-2.342-6.944" transform="translate(-84.529 -282.918)"/>
      <path id="Tracé_754" data-name="Tracé 754" d="M95.163,659.7l-1.981-9.149a8.368,8.368,0,0,1,1.981,9.149" transform="translate(-48.556 -338.997)"/>
      <path id="Tracé_755" data-name="Tracé 755" d="M153.876,665.907l-2.439,2.213c-.466-.655-1.333-1.335-1.294-1.957.048-.761.857-1.474,1.337-2.209l2.4,1.953" transform="translate(-78.237 -345.978)"/>
      <path id="Tracé_756" data-name="Tracé 756" d="M279.175,476.143c-.541,1.463-1.033,2.948-1.667,4.37a1.3,1.3,0,0,1-1.188.362c-.337-.291-.7-1.049-.55-1.321.766-1.346,1.7-2.6,2.574-3.882l.831.471" transform="translate(-143.681 -247.867)"/>
      <path id="Tracé_757" data-name="Tracé 757" d="M141.55,364.134c1.421-1.534,2.493-2.732,3.624-3.872a.945.945,0,0,1,.906-.105,1.373,1.373,0,0,1,.323,1.046c-.3,1.492-2.39,2.91-4.853,2.931" transform="translate(-73.76 -187.634)"/>
      <path id="Tracé_758" data-name="Tracé 758" d="M131.961,373.351c.949,2.555-.291,4.636-2.809,4.89l2.809-4.89" transform="translate(-67.3 -194.549)"/>
      <path id="Tracé_759" data-name="Tracé 759" d="M45.537,393.131,40.6,390.22c0-.181.01-.362.015-.543a6.828,6.828,0,0,1,2.5.054,3.378,3.378,0,0,1,2.424,3.4" transform="translate(-21.158 -203.006)"/>
      <path id="Tracé_760" data-name="Tracé 760" d="M247.139,310.21l-4.051.48q-.06-.466-.118-.931l4.075-.671q.047.56.094,1.122" transform="translate(-126.609 -161.062)"/>
      <path id="Tracé_761" data-name="Tracé 761" d="M250.635,471.041c-1.335.154-2.668.391-4,.419a2.3,2.3,0,0,1-1.411-.777,2.759,2.759,0,0,1-.286-3.784c1.084-1.6,3.93-2.6,5.294-1.855a2.921,2.921,0,0,1,1.464,3.88,14.118,14.118,0,0,1-1.217,2.164l.161-.046" transform="translate(-127.311 -242.197)"/>
      <path id="Tracé_762" data-name="Tracé 762" d="M180.922,467.206c.028,2.543-.9,3.615-2.486,3.624-1.168.006-2.06-.387-2.054-1.732.009-1.791,1.206-3.41,2.528-3.161a5.69,5.69,0,0,1,2.011,1.268" transform="translate(-91.911 -242.781)"/>
      <path id="Tracé_763" data-name="Tracé 763" d="M108.962,221.893c-1.811,1.48-2.226,1.34-3.289-.724-.948-1.843-2.232-3.528-3.04-5.423a26.824,26.824,0,0,1-1.652-5.878c-.092-.529.751-1.542,1.373-1.772.469-.174,1.268.545,1.947,1.139-2.129.182-1.915,1.439-1.341,2.495,1.586,2.915,3.321,5.748,5,8.609.317.537.664,1.056,1,1.594a.261.261,0,0,0,0-.039" transform="translate(-52.617 -108.422)"/>
      <path id="Tracé_764" data-name="Tracé 764" d="M284.661,387.557c-1.478-2.357-2.846-4.49-4.118-6.678-.079-.136.6-1.035.908-1.026,1.746.047,4.761,5.385,4,6.984-.105.221-.385.359-.793.721" transform="translate(-146.184 -197.936)"/>
      <path id="Tracé_765" data-name="Tracé 765" d="M291.517,402.7a8.2,8.2,0,0,1,1.284,1.783,22.632,22.632,0,0,1,1.166,4.168c.087.518-.448,1.14-.7,1.715-.462-.213-1.262-.347-1.331-.65-.506-2.212-.864-4.458-1.27-6.694l.849-.323" transform="translate(-151.464 -209.839)"/>
    </g>
  </g>
</svg>
