<svg xmlns="http://www.w3.org/2000/svg" xmlns:xlink="http://www.w3.org/1999/xlink" width="337.488" height="784" viewBox="0 0 337.488 784"><defs><clipPath id="a"><rect width="337.174" height="783.19" fill="none"/></clipPath><clipPath id="b"><path d="M189.608,98.306c-5.614,1.123-8.966,6.02-10.678,10.35,3.964.194,8.058.1,12.172,0,8.5-.2,17.087-.4,24.792,1.97-.821-6.079-5.827-12.026-10.761-12.568a73.621,73.621,0,0,0-7.961-.556,36.866,36.866,0,0,0-7.565.8" transform="translate(-178.93 -97.503)" fill="none"/></clipPath><linearGradient id="c" x1="-5.036" y1="19.733" x2="-5.008" y2="19.733" gradientUnits="objectBoundingBox"><stop offset="0" stop-color="#3b2f35"/><stop offset="0.027" stop-color="#3b2f35"/><stop offset="0.321" stop-color="#5d585a"/><stop offset="0.978" stop-color="#aeb9b0"/><stop offset="1" stop-color="#aeb9b0"/></linearGradient><clipPath id="d"><path d="M192.056,121.427a76.14,76.14,0,0,0-8.73-.312c3.026,7.261,8.145,10.233,15.922,9.247,7.712-.979,14.547-7.024,15.4-13.665-6.93,5.887-14.764,5.308-22.6,4.73" transform="translate(-183.326 -116.697)" fill="none"/></clipPath><linearGradient id="e" x1="-5.623" y1="20.688" x2="-5.593" y2="20.688" gradientUnits="objectBoundingBox"><stop offset="0" stop-color="#3b2f35"/><stop offset="0.027" stop-color="#3b2f35"/><stop offset="0.129" stop-color="#5d585a"/><stop offset="0.978" stop-color="#aeb9b0"/><stop offset="1" stop-color="#aeb9b0"/></linearGradient><clipPath id="g"><path d="M125.294,103.011c-4.877.926-8.366,4.655-9.186,10.734,11.431-3.519,24.428-.391,36.54,1.094-1.711-4.329-5.175-11.5-13.308-12.486a41.758,41.758,0,0,0-5.078-.331,46.711,46.711,0,0,0-8.968.989" transform="translate(-116.108 -102.022)" fill="none"/></clipPath><linearGradient id="h" x1="-3.341" y1="19.809" x2="-3.313" y2="19.809" gradientUnits="objectBoundingBox"><stop offset="0" stop-color="#5d585a"/><stop offset="0.083" stop-color="#5d585a"/><stop offset="0.321" stop-color="#5d585a"/><stop offset="0.978" stop-color="#aeb9b0"/><stop offset="1" stop-color="#aeb9b0"/></linearGradient><clipPath id="i"><path d="M131.709,135.343c7.778.987,12.9-1.985,15.922-9.246a75.93,75.93,0,0,0-8.731.311c-7.833.578-15.668,1.158-22.6-4.73.858,6.642,7.693,12.687,15.4,13.665" transform="translate(-116.304 -121.678)" fill="none"/></clipPath><linearGradient id="j" x1="-3.52" y1="20.744" x2="-3.49" y2="20.744" gradientUnits="objectBoundingBox"><stop offset="0" stop-color="#5d585a"/><stop offset="0.423" stop-color="#aeb9b0"/><stop offset="1" stop-color="#aeb9b0"/></linearGradient></defs><g transform="translate(-1072.512 -69)"><g transform="translate(1072.512 69.5)"><g clip-path="url(#a)"><path d="M210.443,97.815c9.473,7.806,10.113,20.625,1.5,28.732-7.34,6.909-19.635,5.913-26.264,2.2-9.283-5.2-11.286-11.969-7.544-22.068.407-1.1-.114-5.718,9.405-8.61-2.214,0-11.368,5.784-13.677,5.784-.135-3.088-1.224-6.913-1.109-9.9a3.457,3.457,0,0,1,1.91-2.406c10.762-4.26,21.739-9.992,32.5-14.257,4.057-1.608,7.435-1.463,10.138,2.344,4.414,6.217,8.815,14.02,13.089,20.33.594.876-.011,2.556-.061,3.863a35.155,35.155,0,0,1-3.156-1.808c-3.661-2.611-8.307-13.9-12.684-14.594-5.543-.883-27.672,10.824-26.85,10.624,13.154-3.192,21.145-1.595,22.8-.231m5.135,14.554c-10.559-2.345-25.92-1.934-34.145-.911-3.048.378-1.174,3.25.616,4.09a32.54,32.54,0,0,0,8.611,3.063c8.982,1.38,18.079,2.549,24.918-6.242m-35.866-4.912c12.113-1.485,23.65-2.319,35.081,1.2-.82-6.079-6.316-11.271-11.245-10.676-4.973.6-9.924,1.419-14.911,1.866-4.785.429-7.215,3.28-8.926,7.609m3.559,13.452c3.026,7.259,8.145,10.231,15.923,9.244,7.711-.978,14.546-7.023,15.4-13.665-9.519,8.087-20.744,3.974-31.327,4.421" transform="translate(-0.893 -0.394)"/><path d="M184.879,132.5c4.916,3.2,9.863,6.193,16.6,4.845-4.617,3.191-13.513.558-16.6-4.845" transform="translate(-0.956 -0.685)"/><path d="M145.476,138.081a13.446,13.446,0,0,1-14.576,5.177l14.576-5.177" transform="translate(-0.677 -0.714)"/></g><g transform="translate(178.005 96.999)"><g clip-path="url(#b)"><rect width="35.492" height="35.342" transform="matrix(0.71, -0.704, 0.704, 0.71, -6.562, 6.503)" fill="url(#c)"/></g></g><g transform="translate(182.378 116.094)"><g clip-path="url(#d)"><rect width="32.341" height="32.675" transform="translate(-7.323 7.533) rotate(-45.81)" fill="url(#e)"/></g></g><g clip-path="url(#a)"><path d="M122.511,99.4c-2.653-.11-5.772-1.158-7.859-.13-3.977,1.957-7.349,5.122-11.01,7.733a35.158,35.158,0,0,1-3.156,1.809c-.05-1.307-.654-2.986-.061-3.863,4.274-6.31,8.81-12.444,13.224-18.661,2.7-3.807,6.081-3.951,10.138-2.343,10.761,4.264,21.6,8.326,32.365,12.586a3.459,3.459,0,0,1,1.91,2.406c.114,2.987-.168,5.99-.3,9.079h-6.416c.532,1.45.933,2.551,1.339,3.649,3.743,10.1,1.739,16.864-7.544,22.068-6.629,3.715-18.924,4.712-26.264-2.2-8.612-8.107-9.178-22.682,1.5-28.732a15.949,15.949,0,0,0,2.337-1.979q-.1-.712-.2-1.424m17.647,24.2a32.576,32.576,0,0,0,8.611-3.063c1.79-.84,3.638-3.545.616-4.091-7.17-1.3-24.009-1.953-34.145.911,6.839,8.791,15.935,7.621,24.918,6.243m2.022-18.765c-4.986-.447-9.937-1.264-14.911-1.865-4.928-.6-10.425,4.6-11.245,10.676,11.431-3.519,22.969-2.685,35.081-1.2-1.711-4.33-4.141-7.181-8.926-7.61m-25.96,16.642c.858,6.641,7.693,12.686,15.4,13.665,7.778.987,12.9-1.985,15.922-9.244-10.583-.448-21.809,3.666-31.327-4.421" transform="translate(-0.518 -0.429)"/></g><g transform="translate(115.508 101.495)"><g clip-path="url(#g)"><rect width="34.826" height="34.976" transform="matrix(0.704, -0.71, 0.71, 0.704, -6.408, 6.466)" fill="url(#h)"/></g></g><g transform="translate(115.703 121.049)"><g clip-path="url(#i)"><rect width="32.676" height="32.342" transform="matrix(0.717, -0.697, 0.697, 0.717, -7.323, 7.119)" fill="url(#j)"/></g></g></g><rect width="337" height="784" transform="translate(1073 69)" fill="none"/></g></svg>