<svg xmlns="http://www.w3.org/2000/svg" xmlns:xlink="http://www.w3.org/1999/xlink" width="337.488" height="784" viewBox="0 0 337.488 784"><defs><clipPath id="a"><path d="M179.612,696.1c-.238-.457,1.678-2.265,2.819-3.179,4.667-3.743,7.292.464,11.1,2.985-3.551,2-6.526,4.167-9.853,5.187a.33.33,0,0,1-.1.014c-.9,0-2.985-3.125-3.968-5.007m-5.444-47.577a7.659,7.659,0,0,1,2.654-5.18c.714-.579,3.057.716,4.588,1.346a23.963,23.963,0,0,1,3.223,1.869c.9.548,1.776,1.127,2.663,1.693a8.723,8.723,0,0,1-2.395,1.691c-2.244.613-4.566.948-7.928,1.6-.638-.635-2.83-1.85-2.806-3.022m-.8-46.834a5.162,5.162,0,0,1,.468-4.946c.917-.931,3.456-.962,4.955-.44,2.159.752,4.021,2.361,6.706,4.039-.589.538-2.066,2.138-2.239,2.007-1.486-1.123-3.1-.5-4.684.118a7.946,7.946,0,0,1-2.745.742,2.827,2.827,0,0,1-2.461-1.52m1.708-28.918c.2,3.287.408,6.574.64,10.3-3.208-1.919-3.5-5.747-.64-10.3m-2.042-10.142c-.348-2.163-.573-4.646.229-6.561.378-.9,3.349-1.407,4.832-.986,2.1.6,3.915,2.215,5.786,3.358a70.864,70.864,0,0,1-7.248,4.979,1.683,1.683,0,0,1-.779.146c-1.124,0-2.758-.555-2.819-.936m4.8-14.774a2.2,2.2,0,0,1-.929-1.9c.518-2.27,1.292-4.483,1.971-6.716l1.391.1c1.615,2.646.34,5.359-.434,7.994-.087.3-.964.6-1.579.6a1.028,1.028,0,0,1-.42-.072m4.184-18.487,4.316-12.922c2.038,3.424-.169,10.9-2.959,13.321l-1.357-.4m7.272-25.146c-1.051-4.7,1.322-8.631,2.867-12.748l1.5.415q-1.315,6.366-2.63,12.732l-1.74-.4m5.739-17.907q.945-4.944,1.89-9.887l2.044.351q-.752,4.983-1.5,9.965l-2.432-.43m11.153-25,.935.6-5.1,8.415c-1.4-3.589-.153-5.833,4.162-9.015m90.065,168.454c2.568-31.769,2.255-63.744.685-95.653-.784-15.918-.976-31.869-1.208-47.809-.151-10.342,3.085-20.088,6.163-29.789q5.22-16.448,10.947-32.733a56.643,56.643,0,0,1,12.78-20.831l.962.5a36.434,36.434,0,0,1-2.1,4.355,122.963,122.963,0,0,0-16.9,39.025,97.56,97.56,0,0,1-3.825,12.075c-5.4,14.215-6.9,28.823-5.967,43.811,2.288,36.795,4.731,73.6,2.11,110.481-1.862,26.194-3.875,52.382-6.305,78.527a75.56,75.56,0,0,1-2.47,11.6c2.993-28.26,3.835-57.509,5.132-73.557M250.4,368.986a109.792,109.792,0,0,1-1.291,16.271c-1.967,11.748-5.529,23.529-2.7,35.389,1.993,8.372,6,16.26,9.054,24.386a23.67,23.67,0,0,1,.762,3.611,20.414,20.414,0,0,1-4.461.784,4.136,4.136,0,0,1-2.743-1.5c-3.994-5.157-8.509-10.065-11.559-15.751-2.532-4.721-3.223-10.419-4.85-15.646-1.664-5.343-3.027-10.79-7.945-14.477-2.378-1.783-3.986-1.759-6.357-.085-3.739,2.64-5.686,5.6-5.083,10.492.538,4.352-.194,8.847.041,13.257.492,9.256-2.278,17.292-7.664,24.788-7.665,10.671-12.4,22.732-15.752,35.412-3.691,13.969-7.654,27.865-11.536,41.783a32.211,32.211,0,0,1-2,5.069c-4.052,7.843-5.367,16.388-5.579,25.012-.337,13.789.433,27.615-.123,41.388-.745,18.417.89,36.645,2.418,54.943,2.039,24.439,3.438,95.585,5.061,120.06.212,3.208-9.639,7.447-.439,9.638,3,.714,10.421,1.2,20.02,1.2H198c19.833-.011,48.745-2.044,67.193-8.21A15.052,15.052,0,0,0,270,774.071l40.39-12.16c.463-10.85,1.268-21.7,1.327-32.546.186-34.737,17.319-94.232,17.876-128.961.479-29.887,2.012-59.758,3.144-89.634.975-25.707,2.214-51.406,2.986-77.119.305-10.165-.363-20.359-.528-30.54-.059-3.551-1.4-6.034-4.786-7.571-10.578-4.806-21.277-9.4-31.566-14.776-13.257-6.927-26.158-14.533-39.215-21.842-3.366-1.883-6.744-3.741-9.939-5.512.26,5.13.8,10.358.711,15.576" transform="translate(-170.427 -353.41)" fill="none"/></clipPath><linearGradient id="b" x1="-0.049" y1="1.343" x2="-0.047" y2="1.343" gradientUnits="objectBoundingBox"><stop offset="0" stop-color="#f01048"/><stop offset="0.917" stop-color="#544045"/><stop offset="1" stop-color="#544045"/></linearGradient><clipPath id="c"><path d="M73.8,375.378c-8.613,6.105-17.608,11.674-26.173,17.844-10.525,7.581-20.71,15.636-31.17,23.312-3.527,2.589-7.457,4.62-11.179,6.946-3.426,2.142-4.091,5.285-3.2,9.009,7.174,29.958,14.706,59.837,21.364,89.91,4.484,20.251,7.432,40.84,11.611,61.165,3.855,18.747,4.2,38.125,10.5,56.444,1.589,4.623,1.57,9.774,2.625,14.609,4.142,18.977,8.538,37.9,12.589,56.9,1.815,8.507,5.737,51.091,7.231,59.667H72c-2.846-20.346-6.481-74.733-6.784-95.283-.242-16.452-2.43-32.869-3.6-49.313-.82-11.492-1.322-23.005-2.078-34.5-1-15.233-1.641-30.512-3.3-45.677-1.962-17.958-4.608-35.853-7.411-53.7-1.6-10.175-5.5-19.76-8.6-29.555C36.33,450.82,29.3,441,21.792,431.176c-1.642-2.149-4.578-3.308-6.923-4.916a18.123,18.123,0,0,1-4.114-3.471c4.315-.724,7.743.971,10.532,3.883a117.687,117.687,0,0,1,7.823,9.152c8.876,11.41,14.343,24.319,18.193,38.285,6.3,22.846,9.855,46.086,11.948,69.592,1.034,11.6,1.217,23.282,1.995,34.913,1.154,17.237,2.6,34.455,3.727,51.694,1.337,20.453,2.226,40.938,3.769,61.373,1.149,15.212,2.657,65.2,4.211,80.377,28.476,8.762,68.469,11.82,102.475,11.82-1.046-13.893-2.183-74.432-3.223-88.325-1.373-18.307-3.218-36.6-3.977-54.928-.786-19-.575-38.046-.689-57.073-.068-11.186.086-22.372.138-33.558,0-.183.01-.364.027-.545.529-5.567,1.062-11.134,1.548-16.237.141.226.77,1.243,1.516,2.446,2.457-3.1,2.645-6.186,1.345-9.752-8.476-23.263-16.628-46.649-25.35-69.819-3.2-8.494-7.708-16.489-11.534-24.751-3.2-6.907-6.3-13.862-9.392-20.815-1.324-2.973-3.15-5.227-7.125-5.492.523,1.72.967,3.182,1.414,4.65l-.991.418c-1.192-2.158-2.386-4.319-3.927-7.106a43.14,43.14,0,0,0-5.025,4.7c-4.413,5.551-8.047,11.851-13.05,16.775-6.18,6.081-13.411,11.1-20.251,16.5a70.591,70.591,0,0,1-7.472,5.174,20.747,20.747,0,0,1-6.492,2.847c-1.332.253-3.713-.642-4.236-1.7-.565-1.15-.023-3.536.915-4.621,4.719-5.464,9.7-10.7,14.636-15.977,11.1-11.873,16.07-25.918,13.792-42.02-.823-5.811-3.508-11.355-5.462-17.392-3.115,2.922-5.663,5.911-8.767,8.112" transform="translate(-1.715 -367.266)" fill="none"/></clipPath><linearGradient id="d" x1="-0.007" y1="1.003" x2="-0.001" y2="1.003" gradientUnits="objectBoundingBox"><stop offset="0" stop-color="#f01048"/><stop offset="1" stop-color="#544045"/></linearGradient><clipPath id="e"><rect width="337.174" height="783.19" fill="none"/></clipPath><clipPath id="f"><path d="M138.744,171.258c.128-4.537,3.16-4.833,6.393-5-5.606,3.473-6.478,9.784-2.009,15.686-3.919-.507-4.616-2.494-4.384-10.684m45.791-7.776c2.775,3.874,2.976,14.3.821,16.528-.261-5.255-.517-10.418-.821-16.528M156.1,111.8c.843,17.082,2.41,34.188-1.5,51.089q.751-25.544,1.5-51.089m15.179,69.636a8.081,8.081,0,0,0,4.372-9.14c-1.915-9.713-3.757-19.442-5.882-29.107-2.719-12.354-4.83-24.737-3.655-37.457.1-1.06.192-2.124.352-3.176.027-.184.367-.319,1.754-1.435-2.014,26.1,7.573,49.573,10.162,74.2l5.414,1.276c-6.937,3.592-12.663,7-18.747,9.559-4.331,1.821-8.617.936-11.91-3.123a9.466,9.466,0,0,0-4.341-2.567c-3.534-1.151-3.573-1.025-4.042-6.1,4.064,2.229,8.352,2.624,10.246,6.985a4.569,4.569,0,0,0,1.852,2.058,9.856,9.856,0,0,0,4.811,1.259c3.394,0,6.587-1.7,9.614-3.232m34.908-120a9.892,9.892,0,0,1-4.135,9.813c-3.424,2.449-7.357,4.174-10.983,6.357a15.789,15.789,0,0,0-3.405,2.976,21.026,21.026,0,0,0-1.958,3.014,23.028,23.028,0,0,1-2.8-3.518,5.42,5.42,0,0,1-.363-3.155c.575-3.842,1.311-7.659,2.022-11.682-4.015,4.076-3.931,9.174-3.84,14.214.08,4.357-1.688,5.8-5.14,3.216-4.139-3.1-7.6-7.1-11.576-10.916-2.186,2.434-5.129,5.642-7.987,8.922-2.281,2.615-5.98,2.641-5.847.082.285-5.509-4.917-6.423-7.155-9.915-.043,3.2.578,6.256.785,9.337.075,1.091-.86,2.25-1.333,3.378a10.776,10.776,0,0,1-2.961-1.509c-3.8-3.813-7.476-7.75-11.2-11.643-.355,1.9.239,3.277.3,4.674a34.186,34.186,0,0,1-.488,5.081c-1.8-.55-3.9-.689-5.341-1.733-3.209-2.319-6.093-5.091-9.218-7.771-2.528,2.049-.836-.636-2.177-2.453-1.392-1.885-4.361.074-4.178,2.409.168,2.118-.379,5.041-.261,7.712.414,9.3-1.466,14.1-1.827,19.28,6.618,15.344,6.594,29.831.33,45.748-1.674,4.256-2.982,10.092-1.4,13.938,5.132,12.467,11.744,24.319,17.645,36.476,1.374,2.831,2.921,5.884,3.127,8.923.578,8.541.507,12.018.676,20.585.076,3.79.176,7.532,3.389,10.312,4.242,3.673,8.4,7.44,12.642,11.114,2.071,1.793,4.41,3.3,6.341,5.224,3.955,3.945,7.472,6.9,11.621,10.615,5.212,4.667,11.451,4.8,16.725.152a94.961,94.961,0,0,0,9.4-9.422,61.366,61.366,0,0,1,6.247-6.595c8.027-6.817,14.319-14.153,12.918-25.937-.747-6.285-.19-7.7.431-14.049.755-7.7,2.175-15.345,3.368-23.005a11.826,11.826,0,0,1,1.027-3.324c2.5-5.159,5.106-10.262,7.607-15.418,4.706-9.709,4.711-20,2.92-30.246-1.8-10.281-.183-18.1.661-29.548.241-6.387.446-9.851.722-14.46.21-3.486-2.165-7.692-1.7-11.207,1.084-8.193-3.066-9.279-9.626-5.543-1.488.849-2.619,3.362-4.683,4.142.9-7.009,6.467-12.548,1.268-18.826a9.071,9.071,0,0,0-.6,4.18" transform="translate(-103.342 -57.256)" fill="none"/></clipPath><linearGradient id="g" x1="-0.654" y1="3.338" x2="-0.646" y2="3.338" gradientUnits="objectBoundingBox"><stop offset="0" stop-color="#3b2f35"/><stop offset="0.027" stop-color="#3b2f35"/><stop offset="0.087" stop-color="#5d585a"/><stop offset="0.978" stop-color="#aeb9b0"/><stop offset="1" stop-color="#aeb9b0"/></linearGradient><clipPath id="h"><path d="M174.15,483.964c.344-.562,1.28-1.235,1.763-1.116.563.138,1,1.05,1.342,1.705.148.287-.12.77-.142,1.166-.145,2.763-.276,5.526-.45,9.1-3.136-3.139-4.1-8.252-2.513-10.855m-8.656-23.546c.9,4.09,1.729,7.871,2.562,11.664a7.38,7.38,0,0,1-2.562-11.664m9.012,2.478c-.285-2.933-.82-6.333,3.091-8.119v12.531c-1.438-1.966-2.966-3.12-3.091-4.412m8.268-21.837,2.217-6.582c.393-.177.787-.354,1.179-.532.376,1.395,1.425,3.092.968,4.114-.668,1.49-2.415,2.5-3.7,3.709l-.663-.708m9.765-10.069,1.126-.21c2,2.176,2.928,4.517.4,8.463-.633-3.435-1.077-5.844-1.522-8.253m-7.656-173.645a56.421,56.421,0,0,1-5.9,6.055c-5.191,4.867-16,6.992-21.956-1.152-2.963-4.053-6.881-5.944-10.521-9.774,1.237,17.981,2.6,18.25,3.438,35.327a24.91,24.91,0,0,1-2.389,11.623c-4.137,8.525-8.9,16.757-13.638,24.974a157.822,157.822,0,0,1-27.072,35.207c-1.839,1.77-2.251,3.244-.849,5.549,3.546,5.827,6.812,11.824,10.29,17.691a11.066,11.066,0,0,0,2.713,2.892c10.385,8.167,15.7,18.589,14.545,32.035a8.955,8.955,0,0,0,.878,4.232c5.518,12.187,11.569,24.152,16.6,36.536,6.188,15.233,11.583,30.791,17.247,46.235,2.277,6.207,4.361,12.485,6.86,19.673,4.164-14.075,8.186-26.825,11.681-39.718,3.5-12.926,8.267-25.256,16.115-36.135a36.981,36.981,0,0,0,7.284-24.887c-.249-3.871.147-7.782.024-11.666-.432-13.525,2.892-25.241,13.947-34.309,6.388-5.241,6.4-11.556.144-18.045-1.293-1.342-2.3-2.961-3.49-4.4-8.7-10.5-17.217-21.171-26.2-31.427-5.877-6.712-9.941-14.4-10.4-23-1.117-20.953.414-25.026,5.464-45.508a17.6,17.6,0,0,0,.023-3.255c-2.056,2.215-3.54,3.655-4.837,5.247" transform="translate(-105.155 -252.1)" fill="none"/></clipPath><linearGradient id="i" x1="-0.826" y1="1.955" x2="-0.818" y2="1.955" gradientUnits="objectBoundingBox"><stop offset="0" stop-color="#3b2f35"/><stop offset="0.027" stop-color="#3b2f35"/><stop offset="0.321" stop-color="#5d585a"/><stop offset="1" stop-color="#aeb9b0"/></linearGradient><clipPath id="j"><path d="M129.888,313.688c-12.54,11.43-25.137,22.8-37.349,34.578-6.816,6.573-7.948,17.218-4.335,25.773,6.359,15.055,5.511,29.809-3.179,43.773-2.852,4.581-6.413,8.719-9.244,12.515l3.845,5.564c5.953-5.4,12.52-10.823,18.406-16.905,3.584-3.7,6.253-8.342,9.092-12.717,3.947-6.077,8.469-11.141,16.685-10.921q.5-.925,1.012-1.851c-2.017-1.5-4.1-2.912-6.034-4.514-3.135-2.6-6.567-4.993-9.137-8.088a50.821,50.821,0,0,1-6.987-11.221c-5.873-12.828-6.079-17.394,2.57-27.245a163.214,163.214,0,0,1,25.291-22.768c4.884-3.655,8.343-8.788,11.137-15.495-4.483,3.6-8.309,6.364-11.773,9.522" transform="translate(-75.78 -304.166)" fill="none"/></clipPath><linearGradient id="k" x1="-1.144" y1="3.648" x2="-1.129" y2="3.648" xlink:href="#d"/><clipPath id="l"><path d="M193.009,313.713c3.732,3.942,7.175,8.216,11.251,11.762,10.472,9.109,18.285,20.185,24.547,32.4,5.527,10.778,4.449,16.357-4.451,24.5-2.91,2.662-5.3,5.9-7.933,8.868,6.291-.891,9.188,3.262,11.248,7.322a203.049,203.049,0,0,1,9.635,22.415c1.38,3.792,2.607,6.522,7.593,5.345-4.229-13.189-1.6-26.34,1.31-39.2,2.057-9.1,2.164-18.028,1.613-27.119-.357-5.89-2.884-10.492-8.524-13.029a22.309,22.309,0,0,1-4.119-2.471q-17.544-13.059-35.019-26.211c-2.218-1.675-4.211-3.654-6.309-5.492l-.842.919" transform="translate(-193.009 -312.794)" fill="none"/></clipPath><linearGradient id="m" x1="-3.468" y1="4.115" x2="-3.45" y2="4.115" xlink:href="#d"/><clipPath id="n"><path d="M223.894,130.827a11.132,11.132,0,0,0-.416,2.3c3.4,0,6.7-.424,9.845.105,4.072.683,5.132,5.329,2.161,8.242-1.378,1.352-2.788,2.67-4.183,4,.133-1.909,1.188-3.352,1.915-4.943a25.729,25.729,0,0,0,1.145-4.125c-2.47-.361-5.086-1.375-7.362-.865-1.662.371-2.878,2.748-4.293,4.23l.8.752,4.029-1.141-4.33,6.972c.154.084.308.165.462.249l4.977-5.377.707.712q-3.435,5.681-6.869,11.362l.9.523,4.677-6,.817.555a16.147,16.147,0,0,1-.871,2.034c-1.941,3.26-4.211,6.359-5.824,9.771A141.484,141.484,0,0,0,216.4,174.7c-.353,1.03.723,3.669,1.192,3.68,2.572.069,6.361.513,7.521-.942,3.843-4.82,8.393-10.038,9.629-15.764,2.057-9.539,3.9-18.873,9.784-26.85,3.57-4.847,1.149-9.163-.884-13.465-.413-.874-2.126-1.493-3.291-1.588q-.231-.018-.475-.018c-5.227,0-14.356,6.318-15.978,11.074" transform="translate(-216.326 -119.753)" fill="none"/></clipPath><linearGradient id="o" x1="-3.027" y1="10.529" x2="-3.012" y2="10.529" gradientUnits="objectBoundingBox"><stop offset="0" stop-color="#5d585a"/><stop offset="0.027" stop-color="#3b2f35"/><stop offset="0.736" stop-color="#aeb9b0"/><stop offset="1" stop-color="#aeb9b0"/></linearGradient><clipPath id="p"><path d="M97.287,160.415l1.522-.775,5.57,8.059-1.519,1.038-5.573-8.322M84.076,127.082a24.5,24.5,0,0,0-.712,23.137q3.7,8,7.493,15.945a7.6,7.6,0,0,0,1.473,2.3q5.835,5.465,11.791,10.8c2.161,1.934,4.405,3.823,8.075,2.68-2.83-6.482-5.388-12.785-8.35-18.89a22.581,22.581,0,0,0-4.78-5.84c-.589-.576-2.012-.3-3.81-.491-5.613-6.184-6.709-9.464-3.744-12.463,3.392-3.431,6.408-3.054,10.966,1.545a7.123,7.123,0,0,0-.723-8.862c-2.872-3.518-5.779-7.009-8.675-10.506a6.074,6.074,0,0,0-4.523-2.543c-1.7,0-3.31,1.052-4.481,3.187" transform="translate(-80.806 -123.895)" fill="none"/></clipPath><linearGradient id="q" x1="-0.918" y1="11.197" x2="-0.903" y2="11.197" gradientUnits="objectBoundingBox"><stop offset="0" stop-color="#5d585a"/><stop offset="0.002" stop-color="#5d585a"/><stop offset="0.027" stop-color="#3b2f35"/><stop offset="0.9" stop-color="#aeb9b0"/><stop offset="1" stop-color="#aeb9b0"/></linearGradient><clipPath id="r"><path d="M88.982,116.761c-7.092,3.413-11.93,13.417-10.711,21.317,1.143-3.574,2.05-7.344,3.54-10.868,2.525-5.973,9.822-6.9,13.048-1.625,2.861,4.684,6.824,8.692,10.386,13.1,2.771-5.507,2.36-9.559-1.61-13.444a82.191,82.191,0,0,0-9.694-8.3,4.677,4.677,0,0,0-2.591-.648,5.706,5.706,0,0,0-2.369.464" transform="translate(-78.083 -116.297)" fill="none"/></clipPath><linearGradient id="s" x1="-2.475" y1="29.81" x2="-2.443" y2="29.81" xlink:href="#i"/><clipPath id="t"><path d="M245.628,111.453l.122.069-.136-.137c0,.023.009.046.014.069m-19.42,12.1c2.7-1.5,5.118-2.861,7.561-4.187,6.392-3.474,10.8-1.777,13.068,5,.322.962.692,1.908,1.042,2.862l.818-.3-3.068-15.475a8.6,8.6,0,0,0-4.224-1.112c-6.512,0-12.846,7.259-15.2,13.209" transform="translate(-226.208 -110.341)" fill="none"/></clipPath><linearGradient id="u" x1="-7.914" y1="24.791" x2="-7.878" y2="24.791" xlink:href="#i"/><clipPath id="v"><path d="M96.058,144.369c-1.542.723-3.361,2.59-3.49,4.117-.134,1.575,1.236,3.816,2.626,4.833s3.629.885,6.275,1.412c-1.936-2.562-3.468-4.587-5-6.613l1.058-.956,3.935,2.845a5.144,5.144,0,0,0-1.5-3.379c-1.064-.9-2.734-2.313-3.637-2.313a.628.628,0,0,0-.272.055" transform="translate(-92.559 -144.314)" fill="none"/></clipPath><linearGradient id="w" x1="-10.176" y1="61.408" x2="-10.066" y2="61.408" xlink:href="#i"/><clipPath id="x"><path d="M243.618,435.669c3.665,3.526,4.318,9.029,10.2,11.956-2.357-5.419-4.245-9.758-6.288-14.455l-3.909,2.5" transform="translate(-243.618 -433.17)" fill="none"/></clipPath><linearGradient id="y" x1="-23.768" y1="24.37" x2="-23.67" y2="24.37" xlink:href="#i"/><clipPath id="z"><path d="M62.09,445.438q.6.625,1.2,1.251l8.685-5.545c-.832-1.773-1.472-3.137-2.331-4.97l-7.558,9.264" transform="translate(-62.09 -436.174)" fill="none"/></clipPath><linearGradient id="aa" x1="-6.246" y1="33.215" x2="-6.146" y2="33.215" xlink:href="#d"/></defs><g transform="translate(-1072.512 -69)"><g transform="translate(1072.512 69.5)"><g transform="translate(169.546 351.583)"><g clip-path="url(#a)"><rect width="457.443" height="255.917" transform="translate(-92.051 411.908) rotate(-77.665)" fill="url(#b)"/></g></g><g transform="translate(1.706 365.368)"><g clip-path="url(#c)"><rect width="174.246" height="416.612" transform="translate(-0.532)" fill="url(#d)"/></g></g><g clip-path="url(#e)"><path d="M175.42,781.98c-1.046-13.893-2.182-74.432-3.223-88.325-1.373-18.308-3.217-36.595-3.976-54.928-.787-19-.576-38.046-.69-57.073-.067-11.185.087-22.372.139-33.558,0-.182.01-.364.027-.545.529-5.567,1.061-11.134,1.548-16.237l1.515,2.446c2.458-3.1,2.645-6.186,1.346-9.751-8.477-23.264-16.628-46.65-25.35-69.819-3.2-8.495-7.709-16.489-11.535-24.752-3.2-6.907-6.3-13.862-9.392-20.815-1.324-2.973-3.149-5.226-7.125-5.492.523,1.72.968,3.182,1.414,4.65l-.99.419-3.928-7.107a43.145,43.145,0,0,0-5.024,4.7c-4.414,5.551-8.048,11.852-13.051,16.775-6.18,6.081-13.411,11.1-20.251,16.5a70.3,70.3,0,0,1-7.472,5.174,20.737,20.737,0,0,1-6.492,2.847c-1.332.253-3.713-.642-4.235-1.7-.565-1.15-.023-3.536.914-4.621,4.719-5.464,9.7-10.7,14.636-15.977,11.1-11.872,16.07-25.918,13.792-42.02-.822-5.81-3.507-11.355-5.462-17.392-3.115,2.923-5.663,5.911-8.767,8.112-8.612,6.106-17.608,11.675-26.173,17.844C37.088,398.9,26.9,406.961,16.445,414.636c-3.527,2.589-7.457,4.621-11.179,6.946-3.427,2.142-4.092,5.286-3.2,9.009,7.173,29.958,14.706,59.837,21.364,89.91,4.484,20.252,7.432,40.84,11.611,61.165,3.854,18.747,4.2,38.125,10.5,56.444,1.588,4.622,1.57,9.774,2.624,14.609,4.142,18.978,8.538,37.9,12.59,56.9,1.815,8.507,5.736,51.092,7.23,59.667H63.963c-5.241-24.638-13.555-83.155-18.255-107.9-2.274-11.976-4.557-23.887-7.418-35.754-2.812-11.668-3.5-23.844-5.264-35.775-2.121-14.316-4-28.685-6.733-42.887-2.375-12.351-5.835-24.491-8.729-36.744-5.45-23.081-10.929-46.156-16.172-69.284A59.586,59.586,0,0,1,.007,427.068a10.779,10.779,0,0,1,7.3-10.505,28.29,28.29,0,0,0,5.866-3.409c17.215-12.245,34.45-24.463,51.55-36.867,5.834-4.232,11.34-8.925,16.891-13.534a5.5,5.5,0,0,0,1.481-3.114c1.254-7.012,5.049-12.363,9.872-17.5,10.669-11.364,22.581-21.261,34.639-31.021,4.668-3.777,9.7-7.135,14.121-11.174,1.912-1.747,5.238-6.119,5.138-13.981-.092-7.216-1.185-14.418-1.83-21.627-1.064-11.907-6.582-20.928-17-26.984-3.647-2.119-4.97-5.765-4.978-9.941-.015-8.422-.332-11.743-.054-20.153.141-4.293-1.908-7.6-3.555-11.112-1.815-3.87-4.066-7.533-6.283-11.571-5.57,1.761-9.148-1.559-12.765-5.42-3.081-3.29-6.75-6.02-10.047-9.117a11.35,11.35,0,0,1-2.148-3.265c-3.384-6.819-6.947-13.564-9.959-20.546-1.539-3.566-3.159-7.677-2.816-11.363.771-8.326,4.1-15.68,11.55-20.595,3.55-2.343,6.195-1.282,8.9,1.21,2.688,2.475,5.434,4.889,8.156,7.329l.941-.077c2.55-3.062,1.81-4.157,1.663-6.864-.6-11.085-.357-12.878-3.174-19.521-.36-.851.223-3.354.19-4.258-.2-5.311,4.614-9.489.854-12.958-3.137-2.892-6.449-6.062-4.381-10.033,1.367-2.626-6.766-4.149-9.7-4.332-3.539-.219-4.413-1.811-3.764-5.321C87.825,53.157,88,46.665,89.477,40.47c.665-2.789,3.265-5.244,5.332-7.537,2.857-3.172,3.862-6.036,6.893-9.051,7.82-7.78,11.215-14.6,21.253-19.369,8.294-3.944,16.8-4.584,25.81-3.036,4.927.846,10.091.585,15.131.4,3.318-.121,6.591-1.185,9.914-1.5,8.207-.773,16.3-.765,23.655,3.964a17.314,17.314,0,0,0,5.97,2.256c10.683,2.07,18.035,8.018,26.8,13.876,2.685,1.795,1.591,5.091,3.334,7.987.633,1.052-.12,2.942-.758,4.491.375,2.4,3.737,4.587-.136,7.139,1.1,1.708,1.981,3.349,3.118,4.788,1.483,1.878,2.517,3.1-.4,5.03-1.5.995-1.28,4.313-2.619,5.931-2.247,2.715.642,3.753,1.181,5.54,1.367,4.53,3.719,8.9-1.172,13.19-3.336,2.929-5.739-.337-8.071,3.459-1.288,2.1-1.078,11.468-1.433,14.1-1.052,7.811-1.852,20.066-3.012,29.039,4.249-3.407,11.114-9.994,14.5-12.449,3.519-2.55,7.284-1.578,9.814,2.233-7.832-4.489-16.667,4.748-19.542,12.028,2.7-1.5,5.118-2.86,7.561-4.188,6.392-3.473,10.8-1.776,13.068,5,.322.962.693,1.908,1.042,2.862l.818-.3q-1.54-7.773-3.082-15.544c1.127,2.178,2.621,4.245,3.314,6.554,2.225,7.413-.542,13.859-4.354,20.048-4.436,7.2-6.163,15.265-7.86,23.452a33.9,33.9,0,0,1-10.459,18.141c-2.888,2.652-9.109,1.884-12.875-1.437-.6,2.124-1.275,3.983-1.647,5.9-2.858,14.747-5.3,24.45-3.648,39.543a17.153,17.153,0,0,1-5.875,15.148c-6.9,6.051-9.312,13.909-11.026,22.192-3.546,17.136-5.33,17.63-3.246,35.152.75,6.3,2.47,11.376,8.381,15.363,13.28,8.955,25.917,18.867,38.82,28.385,4.478,3.3,8.793,6.871,13.5,9.806,4.268,2.66,9.042,4.488,13.462,6.922,8.536,4.7,16.887,9.741,25.488,14.316,7.066,3.758,14.358,7.1,21.594,10.529,7.119,3.379,14.4,6.427,21.4,10.037,4.982,2.57,7.382,6.8,7.21,12.8-.222,7.758.732,15.549.516,23.308-.49,17.67-1.381,35.329-2.122,52.992-.09,2.14-.359,4.275-.371,6.413-.116,21.189-2.417,56.692-2.792,77.876-.508,28.685-7.871,72.075-8.324,100.761-.347,21.993-8.907,39.721-9.058,61.716-.077,11.118-.615,22.234-.944,33.35h-4.017c.464-10.849,1.269-21.7,1.327-32.546.186-34.737,13.888-73.353,14.444-108.081.48-29.888,5.444-80.638,6.577-110.514.974-25.707,2.212-51.406,2.985-77.118.305-10.166-.362-20.359-.528-30.541-.058-3.552-1.4-6.033-4.786-7.571-10.578-4.806-21.277-9.4-31.566-14.776C284.71,372.01,271.808,364.4,258.751,357.1c-3.365-1.883-6.744-3.741-9.939-5.512.26,5.13.8,10.358.712,15.576a109.959,109.959,0,0,1-1.292,16.272c-1.966,11.748-5.529,23.528-2.7,35.388,1.994,8.372,6,16.26,9.055,24.387a23.751,23.751,0,0,1,.761,3.61,20.462,20.462,0,0,1-4.461.784,4.138,4.138,0,0,1-2.743-1.5c-3.993-5.157-8.509-10.065-11.559-15.751-2.532-4.721-3.223-10.418-4.85-15.645-1.663-5.344-3.027-10.79-7.945-14.478-2.377-1.782-3.986-1.759-6.357-.084-3.738,2.639-5.686,5.6-5.082,10.491.538,4.353-.194,8.848.04,13.258.492,9.256-2.277,17.291-7.663,24.788-7.666,10.67-12.4,22.732-15.752,35.413-3.691,13.968-7.654,27.865-11.537,41.782a32.079,32.079,0,0,1-2,5.069c-4.051,7.844-5.367,16.388-5.578,25.012-.338,13.789.433,27.614-.124,41.389-.745,18.417.891,36.644,2.418,54.941,2.04,24.439,3.438,95.586,5.061,120.06.213,3.209.413,6.42.619,9.629ZM163.478,71.46c-2.186,2.435-5.128,5.642-7.988,8.922-2.28,2.616-5.979,2.641-5.847.083.285-5.51-4.917-6.424-7.155-9.916-.043,3.2.578,6.257.786,9.338.074,1.09-.861,2.249-1.334,3.377a10.753,10.753,0,0,1-2.96-1.508c-3.8-3.814-7.477-7.751-11.2-11.644-.356,1.9.237,3.277.3,4.674a34.307,34.307,0,0,1-.488,5.081c-1.8-.55-3.9-.689-5.341-1.733-3.21-2.319-6.093-5.091-9.219-7.771-4.6,3.726-1.128-.967-5.049-1.971-.683,2.016-.112,2.637-.723,4.217-1.78,4.61-.32,9.562,1.687,14.1,1.355,3.062-.623,6.2.7,9.279,6.618,15.344,1.532,31.156-4.731,47.073-1.674,4.256-2.982,10.092-1.4,13.938,5.132,12.468,11.744,24.319,17.645,36.476,1.375,2.831,2.921,5.885,3.127,8.923.579,8.541.507,12.018.676,20.585.076,3.79.177,7.532,3.389,10.312,4.242,3.673,8.4,7.441,12.643,11.114,2.07,1.793,4.41,3.3,6.34,5.224,3.955,3.946,7.472,6.9,11.621,10.615,5.212,4.666,11.452,4.8,16.726.152a94.951,94.951,0,0,0,9.4-9.422,61.661,61.661,0,0,1,6.247-6.595c8.028-6.817,14.319-14.152,12.918-25.936-.747-6.286-.19-7.7.432-14.05.754-7.7,2.175-15.345,3.368-23a12.263,12.263,0,0,1,1.069-3.411c2.481-5.13,5.079-10.2,7.565-15.331,4.707-9.709,4.712-20,2.921-30.247-1.8-10.28-4.066-20.619-.787-30.511,1.458-4.4.567-10.935.844-15.544.21-3.486-1.734-6.169-2.892-9.52-2.461-7.124.055-6.818-6.505-3.08a39.706,39.706,0,0,1-5.287,2.04c.9-7.008,6.467-12.548,1.269-18.825a9.05,9.05,0,0,0-.6,4.178,9.892,9.892,0,0,1-4.135,9.813c-3.424,2.45-7.358,4.175-10.984,6.358a15.863,15.863,0,0,0-3.405,2.976,21.065,21.065,0,0,0-1.958,3.015,23.148,23.148,0,0,1-2.8-3.519,5.42,5.42,0,0,1-.362-3.155c.575-3.842,1.31-7.659,2.021-11.683-4.015,4.077-3.931,9.175-3.839,14.215.079,4.358-1.688,5.8-5.141,3.216-4.139-3.1-7.6-7.1-11.576-10.916m-17.52,179.712c1.237,17.982,2.6,18.25,3.439,35.328a24.913,24.913,0,0,1-2.389,11.623c-4.137,8.525-8.9,16.756-13.638,24.973A157.782,157.782,0,0,1,106.3,358.3c-1.838,1.77-2.251,3.244-.849,5.549,3.546,5.827,6.812,11.824,10.291,17.692a11.077,11.077,0,0,0,2.712,2.892c10.385,8.166,15.7,18.588,14.545,32.034a8.953,8.953,0,0,0,.878,4.232c5.519,12.187,11.569,24.152,16.6,36.536,6.188,15.233,11.583,30.791,17.248,46.235,2.277,6.207,4.36,12.485,6.86,19.673,4.163-14.075,8.186-26.825,11.68-39.718,3.5-12.927,8.268-25.256,16.115-36.135a36.98,36.98,0,0,0,7.284-24.886c-.249-3.873.147-7.782.023-11.666-.431-13.526,2.894-25.241,13.948-34.31,6.389-5.241,6.4-11.556.144-18.046-1.293-1.341-2.3-2.96-3.49-4.4-8.7-10.5-17.216-21.17-26.2-31.427-5.877-6.711-9.941-14.4-10.4-23-1.117-20.953.414-25.026,5.464-45.507a17.591,17.591,0,0,0,.024-3.256c-2.057,2.215-3.541,3.655-4.838,5.247a56.326,56.326,0,0,1-5.9,6.055c-5.191,4.868-16,6.992-21.956-1.152-2.962-4.053-6.881-5.944-10.521-9.774m-22.541,142.6,1.012-1.851c-2.017-1.5-4.1-2.912-6.034-4.514-3.135-2.6-6.567-4.993-9.137-8.088a50.819,50.819,0,0,1-6.986-11.221c-5.873-12.827-6.08-17.393,2.569-27.245a163.166,163.166,0,0,1,25.291-22.768c4.884-3.656,8.343-8.788,11.137-15.495-4.483,3.6-8.309,6.364-11.773,9.523-12.539,11.429-25.137,22.8-37.348,34.578-6.817,6.573-7.949,17.217-4.335,25.772,6.358,15.056,5.51,29.809-3.18,43.773-2.851,4.581-6.413,8.72-9.243,12.515l3.844,5.564c5.953-5.4,12.52-10.823,18.406-16.905,3.584-3.7,6.253-8.342,9.093-12.716,3.946-6.077,8.469-11.142,16.684-10.922m92.01-4.153c6.291-.89,9.187,3.262,11.247,7.322a203.13,203.13,0,0,1,9.635,22.416c1.381,3.792,2.607,6.523,7.594,5.345-4.23-13.189-1.6-26.339,1.309-39.2,2.057-9.1,2.164-18.029,1.613-27.119-.357-5.891-2.884-10.492-8.524-13.029a22.4,22.4,0,0,1-4.119-2.471q-17.544-13.06-35.018-26.212c-2.219-1.675-4.212-3.653-6.309-5.491l-.843.918c3.732,3.942,7.176,8.216,11.251,11.762,10.472,9.109,18.285,20.185,24.548,32.4,5.527,10.777,4.449,16.356-4.451,24.495-2.911,2.662-5.3,5.9-7.933,8.868m6.933-257.113c3.4,0,6.7-.424,9.845.105,4.072.683,5.132,5.329,2.162,8.243-1.378,1.351-2.788,2.669-4.184,4,.134-1.909,1.188-3.352,1.916-4.944a25.715,25.715,0,0,0,1.144-4.124c-2.47-.361-5.086-1.375-7.362-.865-1.661.371-2.877,2.748-4.293,4.23l.806.752,4.028-1.141-4.33,6.972.463.249,4.976-5.377.707.712-6.869,11.362.9.523,4.676-6,.818.555a16.151,16.151,0,0,1-.872,2.034c-1.941,3.26-4.21,6.359-5.823,9.772a141.338,141.338,0,0,0-5.792,14.514c-.353,1.03.724,3.668,1.192,3.681,2.572.068,6.361.512,7.521-.943,3.843-4.82,8.394-10.039,9.629-15.763,2.057-9.54,3.906-18.874,9.784-26.852,3.57-4.846,1.149-9.163-.884-13.465-.413-.874-2.126-1.493-3.291-1.587-5.127-.413-14.78,6.151-16.453,11.057a11.265,11.265,0,0,0-.416,2.3m-120.3,12.657a7.126,7.126,0,0,0-.723-8.862c-2.873-3.518-5.779-7.008-8.676-10.506-2.944-3.557-6.778-3.418-9,.645a24.5,24.5,0,0,0-.713,23.137q3.7,8,7.493,15.945a7.559,7.559,0,0,0,1.474,2.3q5.835,5.466,11.79,10.8c2.162,1.934,4.405,3.823,8.075,2.681-2.83-6.483-5.388-12.786-8.35-18.89a22.548,22.548,0,0,0-4.78-5.841c-.589-.576-2.011-.3-3.81-.49-5.612-6.184-6.708-9.464-3.744-12.463,3.392-3.432,6.408-3.055,10.967,1.544m-24.194-7.689c1.143-3.574,2.05-7.344,3.54-10.868,2.525-5.972,9.823-6.9,13.048-1.625,2.861,4.684,6.825,8.693,10.386,13.1,2.772-5.508,2.36-9.56-1.609-13.445a82.293,82.293,0,0,0-9.695-8.3,5.813,5.813,0,0,0-4.958-.183c-7.093,3.412-11.93,13.416-10.712,21.316m18.124,9.9,1.058-.956,3.936,2.845a5.145,5.145,0,0,0-1.5-3.379c-1.184-1-3.113-2.634-3.91-2.259-1.542.724-3.36,2.59-3.49,4.117-.134,1.575,1.236,3.817,2.626,4.833s3.63.885,6.276,1.412l-5-6.612M252.556,445.386c-2.357-5.418-4.245-9.758-6.287-14.455l-3.91,2.5c3.666,3.526,4.318,9.029,10.2,11.956M69.327,433.921l-7.557,9.263,1.2,1.251,8.685-5.544-2.331-4.97" transform="translate(0 0)"/><path d="M72.051,771.47c-2.845-20.346-6.481-74.733-6.784-95.283-.242-16.451-2.429-32.869-3.6-49.313-.82-11.491-1.323-23.005-2.078-34.5-1-15.235-1.641-30.513-3.3-45.678-1.962-17.959-4.608-35.853-7.412-53.7-1.6-10.174-5.5-19.76-8.6-29.555-3.9-12.329-10.935-22.151-18.44-31.973-1.643-2.149-4.579-3.308-6.922-4.916a18.09,18.09,0,0,1-4.116-3.471c4.316-.724,7.744.971,10.533,3.883a117.63,117.63,0,0,1,7.822,9.151C38.033,447.521,43.5,460.43,47.35,474.4c6.3,22.847,9.855,46.087,11.949,69.593,1.034,11.6,1.217,23.282,1.995,34.912,1.153,17.238,2.6,34.456,3.726,51.7,1.338,20.453,2.226,40.937,3.769,61.374,1.149,15.212,3.972,65.2,5.526,80.376-1.339,0-.925-.876-2.264-.876" transform="translate(-0.056 -2.186)"/><path d="M266.131,774.435c4.233-35.787,27.709-108.508,30.61-144.4,2.569-31.77,2.255-63.745.685-95.653-.783-15.918-.976-31.869-1.208-47.81-.15-10.341,3.085-20.088,6.163-29.788q5.22-16.449,10.948-32.734a56.641,56.641,0,0,1,12.779-20.831l.962.5a36.384,36.384,0,0,1-2.1,4.356,123.448,123.448,0,0,0-15.957,35.3c-1.68,6.2-3.618,12.332-5.715,18.4-4.63,13.394-5.9,27.135-5.024,41.212,2.289,36.794,4.732,73.6,2.111,110.48-1.862,26.194-3.876,52.382-6.305,78.528-1.411,15.189-22,67.307-23.933,82.448Z" transform="translate(-1.376 -2.084)"/><path d="M193.581,697.666c-3.552,2-6.527,4.167-9.853,5.187-.84.258-3.047-3.038-4.068-4.994-.238-.456,1.678-2.264,2.819-3.179,4.666-3.742,7.291.465,11.1,2.987" transform="translate(-0.929 -3.583)"/><path d="M176.994,653.055c-.637-.635-2.83-1.85-2.806-3.021a7.661,7.661,0,0,1,2.654-5.181c.714-.578,3.057.716,4.588,1.347a23.959,23.959,0,0,1,3.223,1.868c.9.548,1.777,1.127,2.663,1.693a8.721,8.721,0,0,1-2.395,1.691c-2.245.614-4.566.948-7.928,1.6" transform="translate(-0.9 -3.332)"/><path d="M183.887,559.49a70.965,70.965,0,0,1-7.247,4.98c-.868.471-3.52-.3-3.6-.791-.349-2.162-.573-4.645.229-6.56.378-.9,3.349-1.408,4.831-.987,2.1.6,3.916,2.215,5.786,3.357" transform="translate(-0.893 -2.874)"/><path d="M185.506,601.607c-.589.537-2.066,2.137-2.239,2.006-3.268-2.473-7.18,3.5-9.89-.661a5.159,5.159,0,0,1,.468-4.946c.917-.93,3.457-.962,4.955-.44,2.159.752,4.021,2.361,6.706,4.04" transform="translate(-0.894 -3.087)"/><path d="M182.077,530.219l4.316-12.922c2.038,3.425-.169,10.9-2.959,13.322l-1.357-.4" transform="translate(-0.941 -2.674)"/><path d="M193.756,492.61q-1.315,6.366-2.63,12.731l-1.74-.4c-1.05-4.7,1.323-8.631,2.867-12.748l1.5.415" transform="translate(-0.978 -2.544)"/><path d="M180.3,540.3c1.615,2.645.34,5.358-.434,7.992-.11.375-1.494.763-2,.526a2.2,2.2,0,0,1-.929-1.9c.517-2.27,1.291-4.482,1.971-6.715l1.391.1" transform="translate(-0.914 -2.792)"/><path d="M195.156,486.958q.946-4.942,1.891-9.886l2.043.351-1.5,9.965-2.433-.431" transform="translate(-1.009 -2.466)"/><path d="M207.278,462.48l-5.1,8.415c-1.4-3.59-.153-5.833,4.163-9.015l.934.6" transform="translate(-1.042 -2.387)"/><path d="M175.086,573.915c.2,3.287.409,6.573.64,10.3-3.208-1.92-3.5-5.747-.64-10.3" transform="translate(-0.895 -2.966)"/></g><g transform="translate(102.808 56.96)"><g clip-path="url(#f)"><rect width="140.149" height="219.228" transform="translate(-22.076 2.184) rotate(-5.881)" fill="url(#g)"/></g></g><g transform="translate(104.611 250.797)"><g clip-path="url(#h)"><rect width="125.988" height="272.349" transform="translate(-0.566 0)" fill="url(#i)"/></g></g><g transform="translate(75.388 302.594)"><g clip-path="url(#j)"><rect width="65.881" height="131.725" transform="translate(0)" fill="url(#k)"/></g></g><g transform="translate(192.011 311.177)"><g clip-path="url(#l)"><rect width="55.363" height="114.704" transform="translate(0 0)" fill="url(#m)"/></g></g><g transform="translate(215.208 119.134)"><g clip-path="url(#n)"><rect width="65.476" height="63.274" transform="translate(-29.658 32.963) rotate(-48.294)" fill="url(#o)"/></g></g><g transform="translate(80.388 123.255)"><g clip-path="url(#p)"><rect width="67.393" height="58.923" transform="matrix(0.531, -0.848, 0.848, 0.531, -27.691, 42.517)" fill="url(#q)"/></g></g><g transform="translate(77.679 115.696)"><g clip-path="url(#r)"><rect width="30.963" height="22.392" transform="translate(-1.031)" fill="url(#s)"/></g></g><g transform="translate(225.039 109.771)"><g clip-path="url(#t)"><rect width="28.083" height="27.379" transform="matrix(0.767, -0.642, 0.642, 0.767, -8.309, 6.949)" fill="url(#u)"/></g></g><g transform="translate(92.08 143.568)"><g clip-path="url(#v)"><rect width="9.036" height="10.416" transform="translate(-0.125 0)" fill="url(#w)"/></g></g><g transform="translate(242.359 430.931)"><g clip-path="url(#x)"><rect width="10.197" height="14.455" fill="url(#y)"/></g></g><g transform="translate(61.769 433.92)"><g clip-path="url(#z)"><rect width="9.889" height="10.515" transform="translate(0)" fill="url(#aa)"/></g></g><g clip-path="url(#e)"><path d="M144.971,174.594c4.064,2.23,8.351,2.624,10.245,6.985a4.58,4.58,0,0,0,1.852,2.058c5.237,2.858,10.007.262,14.425-1.973a8.081,8.081,0,0,0,4.372-9.141c-1.915-9.712-3.755-19.441-5.882-29.107-2.719-12.353-4.829-24.737-3.655-37.456.1-1.061.193-2.124.352-3.176.027-.184.368-.319,1.754-1.436-2.014,26.1,7.573,49.574,10.163,74.2l5.414,1.275c-6.938,3.593-12.664,7-18.748,9.56-4.33,1.82-8.617.935-11.91-3.123a9.466,9.466,0,0,0-4.341-2.567c-3.533-1.152-3.573-1.026-4.041-6.1" transform="translate(-0.749 -0.524)"/><path d="M132.384,200.962c0,1.841-.426,2.207,2.109,3.615,6.924,2.261,13.619,5.794,20.846,3.936a13.583,13.583,0,0,1,7.1.5c2.492.79,4.377,1.448,6.274-1.13.589-.8,2.478-1.066,3.689-.913,8.783,1.117,17.546-.514,26.315.718.689-1.08-1.239-6.985.047-6.824.168.474.719,6.71.723,7.186v.014a1.391,1.391,0,0,1-1.514,1.3c-7.848-.425-15.54,1.581-23.237.976a3.607,3.607,0,0,0-2.3.434c-4.364,3.383-9.018,2.792-14.047,1.8-7.79-1.529-14.24-4.641-22.116-5.687a21.269,21.269,0,0,1-2.921-.563c-5.257-1.561-3.931-1.8-3.916-1.867,2.228-10.724,7.953-10.423,4.277-7.471a4.721,4.721,0,0,0-1.325,3.976" transform="translate(-0.668 -1.009)"/><path d="M154.862,163.173q.752-25.544,1.5-51.089c.843,17.081,2.41,34.187-1.5,51.089" transform="translate(-0.8 -0.579)"/><path d="M145.321,166.822c-5.607,3.472-6.478,9.784-2.009,15.685-3.92-.506-4.617-2.494-4.384-10.683.128-4.537,3.16-4.833,6.393-5" transform="translate(-0.718 -0.862)"/><path d="M184.957,164.035c2.775,3.874,2.976,14.3.821,16.527-.261-5.255-.517-10.418-.821-16.527" transform="translate(-0.956 -0.848)"/><path d="M177.956,455.832v12.53c-1.439-1.965-2.966-3.12-3.091-4.411-.285-2.934-.821-6.334,3.091-8.119" transform="translate(-0.903 -2.356)"/><path d="M177.016,496.018c-3.136-3.14-4.1-8.253-2.512-10.854.344-.563,1.28-1.236,1.763-1.117.563.137,1,1.05,1.342,1.705.148.287-.121.769-.142,1.166-.145,2.763-.276,5.526-.451,9.1" transform="translate(-0.898 -2.502)"/><path d="M165.8,461.5c.9,4.089,1.728,7.87,2.562,11.664A7.38,7.38,0,0,1,165.8,461.5" transform="translate(-0.847 -2.385)"/><path d="M186.573,434.891c.375,1.395,1.424,3.092.967,4.113-.667,1.491-2.414,2.5-3.7,3.71l-.663-.709,2.217-6.581,1.179-.532" transform="translate(-0.947 -2.248)"/><path d="M194.119,431.711c2,2.176,2.928,4.516.4,8.462l-1.523-8.253,1.126-.209" transform="translate(-0.998 -2.231)"/><path d="M98.9,159.826l5.57,8.059-1.519,1.038q-2.786-4.16-5.573-8.322l1.522-.775" transform="translate(-0.503 -0.826)"/></g><g clip-path="url(#e)"><path d="M154.634,119c0,9.617-8.683,17.415-19.393,17.415s-19.393-7.8-19.393-17.415,8.683-17.414,19.393-17.414,19.393,7.8,19.393,17.414" transform="translate(-0.599 -0.525)" fill="#f4dac9"/><path d="M216.773,114.139c0,9.617-8.683,17.415-19.393,17.415s-19.393-7.8-19.393-17.415,8.683-17.415,19.393-17.415,19.393,7.8,19.393,17.415" transform="translate(-0.92 -0.5)" fill="#f4dac9"/></g></g><rect width="337" height="784" transform="translate(1073 69)" fill="none"/></g></svg>