<svg xmlns="http://www.w3.org/2000/svg" xmlns:xlink="http://www.w3.org/1999/xlink" width="337.488" height="784" viewBox="0 0 337.488 784"><defs><clipPath id="a"><rect width="337.174" height="783.19" fill="none"/></clipPath></defs><g transform="translate(-1072.512 -69)"><g transform="translate(1072.512 69.5)"><g clip-path="url(#a)"><path d="M143.116,124.485a8.95,8.95,0,1,1-8.95-8.949,8.95,8.95,0,0,1,8.95,8.949" transform="translate(-0.647 -4.805)"/><path d="M136.858,123.8a2.57,2.57,0,1,1-2.57-2.57,2.569,2.569,0,0,1,2.57,2.57" transform="translate(-0.681 -4.834)" fill="#f9dfcd"/><path d="M206.891,119.23a8.949,8.949,0,1,1-8.949-8.95,8.95,8.95,0,0,1,8.949,8.95" transform="translate(-0.977 -4.777)"/><path d="M200.632,118.55a2.57,2.57,0,1,1-2.57-2.57,2.569,2.569,0,0,1,2.57,2.57" transform="translate(-1.01 -4.807)" fill="#f9dfcd"/></g></g><rect width="337" height="784" transform="translate(1073 69)" fill="none"/></g></svg>