<svg id="Groupe_2" data-name="Groupe 2" xmlns="http://www.w3.org/2000/svg" xmlns:xlink="http://www.w3.org/1999/xlink" width="26" height="22.724" viewBox="0 0 26 22.724">
  <defs>
    <clipPath id="clip-path">
      <rect id="Rectangle_8" data-name="Rectangle 8" width="26" height="22.724" fill="none"/>
    </clipPath>
  </defs>
  <g id="Groupe_1" data-name="Groupe 1" clip-path="url(#clip-path)">
    <path id="Tracé_17" data-name="Tracé 17" d="M12.967,21.1A14.519,14.519,0,0,1,7.9,20.256a.328.328,0,0,0-.333.045,13.859,13.859,0,0,1-5.048,2.253,13.177,13.177,0,0,1-1.793.168.683.683,0,0,1-.664-.483.707.707,0,0,1,.123-.778,10.145,10.145,0,0,0,1.625-2.488,8.562,8.562,0,0,0,.6-2.163.358.358,0,0,0-.095-.247A9.726,9.726,0,0,1,.736,14.072a8.654,8.654,0,0,1-.7-3.009A9.09,9.09,0,0,1,2.506,4.328,12.646,12.646,0,0,1,8.017.789,15.347,15.347,0,0,1,11.409.081a16.016,16.016,0,0,1,3.61.045A13.5,13.5,0,0,1,23.1,3.891a9.4,9.4,0,0,1,2.834,5.625,8.636,8.636,0,0,1-.913,5.058,11.091,11.091,0,0,1-4.048,4.349,13.459,13.459,0,0,1-5.416,1.97c-.856.124-1.723.178-2.584.264l0-.055m-8.689-1.75.053.063C4.952,19.047,5.59,18.7,6.19,18.3a2.5,2.5,0,0,1,2.173-.414c.351.1.695.229,1.047.325a13.146,13.146,0,0,0,4.971.377,13.411,13.411,0,0,0,3.977-1.016,8.936,8.936,0,0,0,4.506-4.131,6.061,6.061,0,0,0,.1-5.578,8.8,8.8,0,0,0-4.489-4.287A13.767,13.767,0,0,0,9.833,2.81,10.157,10.157,0,0,0,4.819,5.421,7.263,7.263,0,0,0,2.443,10.26a6.076,6.076,0,0,0,.372,2.47,7.183,7.183,0,0,0,1.356,2.248,2.5,2.5,0,0,1,.677,2,16.808,16.808,0,0,1-.337,1.648c-.057.248-.155.487-.234.73" transform="translate(0 0)" fill="#fff"/>
    <path id="Tracé_18" data-name="Tracé 18" d="M141.428,219.542a1.611,1.611,0,1,1-1.615,1.611,1.542,1.542,0,0,1,1.615-1.611" transform="translate(-134.119 -210.601)" fill="#fff"/>
    <path id="Tracé_19" data-name="Tracé 19" d="M281.333,222.754a1.612,1.612,0,1,1,1.635-1.586,1.538,1.538,0,0,1-1.635,1.586" transform="translate(-268.346 -210.591)" fill="#fff"/>
    <path id="Tracé_20" data-name="Tracé 20" d="M421.158,222.772a1.611,1.611,0,1,1,1.639-1.582,1.537,1.537,0,0,1-1.639,1.582" transform="translate(-402.481 -210.609)" fill="#fff"/>
  </g>
</svg>
