<?xml version="1.0" encoding="UTF-8"?><svg id="personnage3" xmlns="http://www.w3.org/2000/svg" xmlns:xlink="http://www.w3.org/1999/xlink" viewBox="0 0 1080 1080"><defs><style>.cls-1,.cls-2,.cls-3,.cls-4,.cls-5,.cls-6,.cls-7,.cls-8,.cls-9{stroke-width:0px;}.cls-2{fill:#757473;}.cls-3{fill:#3b2f35;}.cls-4{fill:#beaa9a;}.cls-5{fill:#aeb9b0;}.cls-6{fill:url(#Dégradé_sans_nom_28);}.cls-7{fill:url(#Dégradé_sans_nom_24);}.cls-8{fill:url(#Dégradé_sans_nom_27);}.cls-9{fill:url(#Dégradé_sans_nom_23);}</style><linearGradient id="Dégradé_sans_nom_27" x1="280.85" y1="72.27" x2="378.32" y2="129.2" gradientUnits="userSpaceOnUse"><stop offset="0" stop-color="#f01048"/><stop offset=".88" stop-color="#3b2f35"/></linearGradient><linearGradient id="Dégradé_sans_nom_28" x1="356.07" y1="179.33" x2="328.6" y2="101.51" gradientUnits="userSpaceOnUse"><stop offset="0" stop-color="#757473"/><stop offset=".82" stop-color="#aeb9b0"/></linearGradient><linearGradient id="Dégradé_sans_nom_23" x1="322.52" y1="430.82" x2="340.04" y2="523.12" gradientUnits="userSpaceOnUse"><stop offset="0" stop-color="#757473"/><stop offset=".72" stop-color="#aeb9b0"/></linearGradient><linearGradient id="Dégradé_sans_nom_24" x1="387.34" y1="411.2" x2="402.99" y2="515.74" gradientUnits="userSpaceOnUse"><stop offset="0" stop-color="#757473"/><stop offset=".72" stop-color="#aeb9b0"/></linearGradient></defs><path class="cls-8" d="m342.33,76.47c-1.72.9-5.33,2.42-8.73,3.39s-8.24,5.82-8.24,5.82c0,0-4.85,0-5.82,1.45s-2.42,5.82-3.39,7.76,0,6.79-.48,8.24,0,1.94-3.39,5.33-4.36,5.33-5.82,6.79-.97,8.73-.97,8.73c0,0,2.91,2.42,1.45,4.36s-2.91,6.79-1.45,7.76,5.33,4.85,4.36,6.79,0,4.36,2.42,8.24c2.42,3.88.97,7.27,5.33,5.82s6.3-.97,6.3-.97c0,0-3.88,2.91.97,3.88s6.79,2.42,7.27.97-1.45-4.36-2.42-6.79-2.42-7.03-2.42-7.03c0,0,3.39-10.91,5.33-16.24s1.45-4.85,7.27-11.15c5.82-6.3,8.73-5.82,14.06-7.76s6.79-5.33,12.12-2.91,9.7.97,9.7,6.3,5.82,5.33,5.33,10.67,2.91,16.97,2.91,19.88,5.82,10.67,5.82,10.67c.97-1.45.97,3.39,7.27,0s9.7-4.85,11.15-8.73,4.36-15.03,6.3-20.37,4.85-11.15,1.94-16-5.82-20.37-9.21-21.82-8.24-8.73-9.7-10.67-8.24-9.7-12.12-9.7-11.15.97-14.55,2.91-4.36,5.33-7.27,6.3-4.85.97-8.73-2.42-3.39-4.36-12.61.48Z"/><path class="cls-3" d="m313.18,200.54c-.96,3.47-4.08,5.08-6.34,7.51-4.31,4.63-8.58,9.51-11.1,15.31-2.88,6.65-3.54,13.94-3.1,21.16.49,8.11,4.21,14.73,13.15,17.12,9.92,2.66,19.37,1.33,28.36-3,7.26-3.5,14.6-5.43,22.73-5.72,11.71-.41,23.33-.92,34.81,2.05,2.39.62,4.81.5,7.24.1,10.23-1.68,18.26-7.21,24.81-14.86,6.45-7.53,5.24-18.7-1.88-25.72-5.42-5.34-11.94-8.76-18.66-11.93-2.75-1.3-5.39-1.86-6.14,2.42-.16.9-.89,1.72-1.38,2.55-3.32,5.66-8.45,9.32-13.87,12.69-10.72,6.66-22.03,11.27-34.96,10.87-15.01-.47-29.56-12.94-32.15-27.73-.16-.92.12-2.01-1.52-2.84Z"/><path class="cls-2" d="m306.69,202.96c.85,2.7,1.97,2.21,3.21.89,1.85-1.97,2.6-4.34,2.64-7.02.07-3.98-.79-4.78-4.09-2.66-9.61,6.16-18.56,13.28-23.59,23.83-5.15,10.8-7.72,22.58-11.22,33.99-1.48,4.84-2.25,10.04-.85,15.14,2.23,8.11,2.23,16.65,4.77,24.71.43,1.36.69,2.95.42,4.32-.88,4.42.76,8.45,1.58,12.6.2,1.01.74,2.48,2.18,1.48,2.68-1.88,3.3-.4,3.72,1.93.24,1.32.66,2.6,1.06,3.88.27.88.38,2.25,1.75,1.72,1.29-.5.53-1.62.26-2.52-.83-2.78-1.52-5.59-1.56-9.43,1.06,2.12,1.88,4.24,3.63,2.73,1.17-1.01-.14-2.65-1.06-3.78-.54-.66-1.15-1.26-1.68-1.93-3.11-3.93-4.68-8.21-3.2-13.28,1-3.44,1.48-7.15.66-10.51-1.66-6.77,1.06-12.08,4.38-17.43.95-1.53,1.45-3.34,2.23-4.99.62-1.3.62-2.54.11-3.87-1.7-4.44-1.78-9.11-1.46-13.73.61-8.97,1.99-17.61,8.64-24.62,3.03-3.19,6.74-6.16,7.46-11.45Z"/><path class="cls-2" d="m439.42,323.69c2.4-1.9,4.05-3.03,4.45-5.29,1.26-7.08,1.52-14.03-2.37-20.51-.53-.89-.59-2.54-1.9-2.29-1.42.28-.66,1.83-.76,2.82-.48,5.28,1,10.71-1.2,15.87-.19.44-.34.98.18,1.31.6.38,1.18.18,1.59-.35.54-.69,1.1-1.5,2.06-.96,1.22.68.16,1.74.22,2.63.14,2.15-1.83,3.59-2.29,6.77Z"/><path class="cls-2" d="m389.12,191.71c.32,2.89.46,4.97,2.63,5.41,2.26.46,4.33,1.27,6.42,2.18.81.36,1.91.91,2.66-.09.67-.89.23-1.91-.29-2.71-2.11-3.29-4.89-5.57-8.98-5.93-1.76-.16-2.53.42-2.44,1.15Z"/><path class="cls-2" d="m314.76,191.36c-1.17.51-2.06,1.25-1.63,2.75.21.72.08,2.15,1.22,1.71,1.37-.52,1.12-2.27,1.5-3.5.22-.7-.29-1.09-1.1-.96Z"/><path class="cls-5" d="m283.82,312.45c-1,2.58-1.36,4.23-.11,5.79.15.19,1.1.12,1.24-.11,1.12-1.83-.05-3.27-1.13-5.68Z"/><path class="cls-6" d="m350.81,101.69c-.73,1.21-2.91,6.55-4.85,6.3s-2.91,0-3.39,2.18.48,5.58-.97,4.85-2.18-4.36-3.88-3.88-1.21,4.12-1.45,5.09,1.94.48,1.21,3.64-2.18,4.12-2.67,7.76-1.21,5.82-.24,9.46,2.18,8.97,2.18,8.97c0,0-5.33-15.27-6.06-16s-3.64-2.67-6.55-2.67-4.36-.24-5.58,2.91-2.42,6.3-1.45,8.73.24,7.03,3.64,7.52,5.09-.97,6.55.48,2.18,6.55,3.39,9.94,4.12,8.24,5.82,10.18,1.7,3.64.48,4.85-2.91,5.09-5.82,6.79-9.94,6.3-11.4,8.24-4.61,5.82-4.61,9.21,1.21,16.97,5.82,19.4,10.91,14.06,19.88,13.82,21.82-.97,24-2.18,7.03-2.91,10.67-5.58,10.67-4.61,12.61-8,7.52-7.52,8-10.18-.97-3.64-3.64-4.61-5.33-3.88-4.85-5.82-2.42-6.79-3.88-7.27-5.09-1.7-4.85-3.15,2.67-3.64,3.39-7.27,4.85-12.61,5.33-14.3,1.45-6.79,1.21-8.97-4.85-5.58-3.88-8.97.97-7.03,1.45-10.67-1.45-12.85-3.15-16-6.3-11.88-7.52-13.09-1.94,0-4.61.97-6.3,2.67-9.7,1.7-10.67-2.91-11.15-5.33"/><path class="cls-4" d="m355.42,135.39c-.77.77-3.39,2.91-3.64,4.85s1.45,5.82,2.67,6.55,3.15,3.39,4.36,2.18,3.15-1.45,3.88-4.85.48-5.09-.73-6.79-6.06-2.42-6.55-1.94Z"/><path class="cls-4" d="m377.24,134.42s-5.09,1.21-5.33,2.91-.24,6.3,1.45,7.27,3.88,1.21,4.85.24,3.15-1.7,3.39-3.39.73-2.42-.73-4.61-3.64-2.42-3.64-2.42Z"/><path class="cls-3" d="m293.84,256.86c-.97,1.94-5.58,7.03-6.06,11.4s-1.21,8-1.21,10.91.73,5.82,0,9.46-2.42,6.06-.24,8.73,5.58,7.27,5.58,9.21.73,2.91-.97,3.15-2.42-.73-2.91,0,2.42,3.88,1.45,6.06-1.21,2.42-2.67,3.15-4.85.48-4.85.48c0,0,.48,24,.48,33.22s3.39,47.52,3.64,51.16-2.18,12.61,9.21,15.52,43.4,7.52,48.25,7.03,34.91,2.18,42.67-2.67c7.76-4.85,20.85-7.03,24.25-8s6.3-2.18,8.97-4.36,5.58-4.12,6.06-5.58,4.36.73,5.58-5.33,7.27-77.34,6.79-79.28-1.45-7.27-1.21-10.67,1.94-14.79-.97-23.52-9.46-20.85-10.91-24.25-9.21-12.85-9.21-12.85c0,0-12.61,6.79-15.52,6.55s-13.58-2.67-18.43-2.42-16.73-.73-19.64-.48-12.61,1.21-15.76,1.7-14.55,6.3-18.43,7.27-20.37,3.64-25.46-.73-8.49-4.85-8.49-4.85Z"/><path class="cls-9" d="m302.56,422.46c.55,2.51,13.27,46.32,11.88,47.28-1.28.88.97,6.06,4.36,4.12s6.3-1.94,6.79-5.58,3.39-10.91,5.82-16.49c2.42-5.58,5.58-16.73,7.03-19.64s2.91-7.27-.24-7.03-10.18-1.21-14.55-1.21-12.12-.97-14.55-.97-6.55-.48-6.55-.48Z"/><path class="cls-7" d="m404.15,415.67c-1.45,1.7-21.82,7.03-25.22,7.76s-8.97,2.91-9.7,3.88,2.67,7.76,3.88,9.94,3.88,8.24,5.09,12.12,2.18,9.46,2.91,11.64.73,6.3,2.42,7.27,4.12,3.64,6.55,2.42,5.82-3.64,6.06-6.55,3.39-17.21,3.88-19.88,3.64-11.15,4.85-14.55,3.64-7.03,4.12-11.15-4.85-2.91-4.85-2.91Z"/><path class="cls-1" d="m381.36,467.8c.97,3.15,4.12,6.06,6.55,7.27s8.24,2.42,9.46.48,3.15-4.85,2.18-6.06-2.42-5.82-3.39-5.33-.97,3.88-2.42,4.61-3.15,3.15-5.82,1.45-6.79-3.39-6.79-3.39"/><path class="cls-1" d="m314.2,469.49s.73,3.15,2.67,3.39,4.61-2.18,5.58-2.18.97,1.21,1.21,2.42-.48,5.09-1.7,5.82-2.91,2.91-4.85,3.15-4.85.97-5.58-1.21-1.94-3.88-1.21-6.06,3.88-5.33,3.88-5.33Z"/><path class="cls-1" d="m337.34,171.01c-.71-3.45-3.6-5.73-4.76-8.96-.43-1.2-1.64-.7-2.58-.64-3.2.23-5.68-1.22-7.62-3.57-1.67-2.02-3.52-3.01-6.23-2.53-2.52.45-4.36-.48-4.45-3.41-.04-1.32-.64-2.31-1.6-3.16-.82-.73-1.93-1.54-1.84-2.63.4-4.66-2.58-8.26-3.64-12.45-.09-.35-.23-.79-.11-1.08,2.33-5.33-.86-10.65,0-15.98.1-.6-.06-1.46.29-1.76,3.52-3.13,5.05-7.96,8.85-10.71,1.63-1.18,1.88-1.81,1.42-3.71-.82-3.36-.99-6.86,2.44-9.23,1.01-.7,1.09-1.87,1.44-2.89.79-2.34,2.18-3.77,4.83-3.54.6.05,1.55.21,1.76-.09,2.33-3.35,6.33-3.74,9.4-5.67,2.12-1.33,4.01-2.65,6.5-2.77,1.6-.07,2.66-.85,3.77-1.91,3.13-2.98,6.53-2.8,9.58.35.93.96,1.82,1.98,2.81,2.88,2.34,2.16,5.28,1.8,6.95-.94,2.94-4.82,7.48-6.84,12.78-7.33,6.93-.64,14.35-.86,18.42,5.83,2.75,4.52,6.93,7.26,9.92,11.08,3.03,3.88,6.3,8.28,6.88,13.68.11,1.03.67,1.78,1.35,2.52.65.71,1.58,1.51,1.65,2.33.61,7.5,4.38,14.76.42,22.63-1.57,3.12-1.46,7.26-2.88,10.81-1.42,3.57-3.94,6.68-4.35,10.69-.14,1.34-1.14,2.54-2.56,2.84-1.48.31-2.11,1.46-3.08,2.35-3.36,3.1-7.12,5.4-11.96,3.71-1.6-.56-1.82.31-2.25,1.44-2.7,7.17-5.38,14.36-8.24,21.47-.82,2.04.23,2.84,1.69,3.24,1.97.54,3.45,1.66,4.89,3,1.8,1.67,3.87,2.45,6.41,2.86,4.12.67,7.42,3.11,8.93,7.25.94,2.57,2.44,4.26,4.99,5.4,5.91,2.65,11.42,6.02,15.95,10.77,6.96,7.29,10.34,21.46-.29,30.56-6.73,5.76-7.68,4.3-.5,11.86,4.52,4.77,7.12,10.79,9.49,16.77,2.19,5.52,4.72,10.98,5.74,16.93.39,2.26,2.2,3.77,3.45,5.54,5.49,7.8,4.91,16.33,3.02,24.97-.4,1.84-2.06,3.13-3.5,4.12-2.6,1.79-2.81,4.19-2.98,6.97-1.15,18.86-2.49,37.71-4.37,56.52-.35,3.51-.9,7.01-1.43,10.5-.21,1.38-.14,3.46-2.04,3.23-1.53-.19-.73-2.13-.63-3.18.99-10.68,2.13-21.34,3.19-32.01.91-9.09,1.77-18.19,2.68-27.29.33-3.27.84-6.53,1.09-9.8.25-3.3,1.48-6.68-.72-9.86-.7-1.02-.52-2.4-.28-3.58,3.98-19.69-1.61-37.4-11.3-54.19-1.93-3.35-4.67-6.22-6.99-9.35-1.3-1.74-2.64-.65-3.87-.07-6.08,2.9-12.16,5.72-19.17,4.98-1.81-.19-3.68-.18-5.43-.64-13.02-3.44-26.17-1.24-39.26-.9-5.21.14-9.7,3.05-14.34,5.17-11.63,5.3-23.4,6.17-35.37,1.19-1.35-.56-2.88-1.02-3.65-2.32-1.52-2.56-1.81-1.88-3.3.35-5.19,7.81-6.41,16.25-5.38,25.3.11.94-.03,1.99-.35,2.89-2.02,5.68-.38,10.54,3.27,14.92,1.22,1.47,1.88,3.12,2.22,4.94.21,1.12.24,2.48-1.33,2.44-3.06-.07-2.62,1.74-2.17,3.63.44,1.86,1.67,4.22-.48,5.31-2.59,1.3-5.72,1.04-8.54.4-1.19-.27-1.08-2.03-1.1-3.25-.12-8.71-2.15-17.17-3.89-25.61-1.61-7.76-2.4-15.64-3.88-23.42-1.33-7.04.02-14.28,2.43-21.24,2.76-7.95,5.04-16.06,7.6-24.08,3.33-10.42,11.32-17.11,19.16-23.91,3.24-2.81,6.83-4.99,10.84-6.63,10.6-4.36,19.07-11.58,26.23-20.42-3.12,7.66-9.6,12.09-15.99,16.54-2.32,1.61-3.87,3.46-4.7,6.2-2.31,7.6.14,13.98,4.29,20.26,7.2,10.88,21.15,16.91,34.23,14.24,6.76-1.38,13.16-3.6,19.2-6.65,7.49-3.79,14.69-8.14,19.67-15.31,2.73-3.92,2.63-4.77-1.68-6.56-4.51-1.87-8.18-4.84-11.33-8.56,1.16.34,2.15.95,3.19,1.47.69.35,1.31,1.45,2.19.62.79-.74.02-1.6-.23-2.36-1.81-5.52-5.9-7.79-11.68-6.52,1.78-1.76,4.72-2.46,5.4-5.19,1.83-7.38,5.83-13.92,7.91-21.19,1.19-4.17.98-8-2.2-11.22-2.31-2.34-2.17-4.82-.91-7.56,1.98-4.31,1.57-8.58.52-13.17-1.77-7.78-7.3-13.74-9.46-21.27-.41-1.44-1.58-1.26-2.67-.59-5.16,3.18-10.7,2.53-16.32,1.84-2.37-.29-3.94-2.49-5.78-2.59-2.04-.11-1.65,3.81-4.02,4.46-3.27.9-4.39,3.11-4.12,6.34.22,2.63-1.14,2.23-2.6,1.17-.68-.49-1.2-1.2-1.77-1.82-.43-.46-.91-.97-1.52-.52-.32.23-.45.83-.5,1.28-.13,1.13,0,2.68.85,3.04,3.1,1.32,1.39,2.73.35,4.22-.99,1.41-1.5,3.04-2.15,4.62-2.94,7.19,4.37,12.74,3.08,19.67-.12.67,1.55,1.59.02,2.31-1,.47-2.19-.05-2.44-1.01-.7-2.78-2.41-5.34-2.91-7.9-.57-2.9-2.33-5.13-2.93-7.99-.78-3.7-6.13-5.13-9.06-3.14-3,2.04-4.7,7.9-3.25,11.23,3.16,7.23,5.2,8.57,10.79,7.07-1.5,3.06-3.54,3.68-6.94,1.86-1.29-.69-2-1.19-3.3.32-1.9,2.2-3.49,1.02-4.88-1.67,2.21.39,5.17,1.89,4.7-1.56-.38-2.81-1.37-5.79-4.44-7.51-1.94-1.08-4.08-2.54-4.16-6.08,1.61,1.1,2.99,1.68,3.83,2.7,1.86,2.28,2.08.97,2.56-.84.37-1.39.86-2.92,1.76-3.98,2.37-2.78.94-4.22-1.67-4.91-2.86-.75-4.22-3.16-6.1-4.93-1.13-1.05-1.16-2.77.51-4.07,1.28,5.19,11.4,11.58,16.33,10.53,4.61-.98,8.33-5.32,8.08-9.79-.16-2.96.69-5.2,3.29-6.7.91.52.54,1.6,1.02,2.27.26.37.69.82,1.08.86.72.07,1.08-.57,1.05-1.2-.11-2.93,1.85-3.94,4.15-4.81,2.57-.97,3.3-3.02,2.97-5.61-.17-1.35-1.03-2.83.71-4.15.8,1.56,1.71,2.92,2.8,4.2,2.65,3.11,6.2,3.06,9.69,3.33,1.86.14,4.19.64,3.82-2.64,0-.01.44-.09.67-.12,3.64-.44,4.83-3.01,4.88-6.15.03-1.68.79-1.78,1.99-1.81,3.82-.09,4.63-2.58,4.43-5.73-.2-3.16.22-4.28,3.3-6.92-1.79,3.48-2.19,7.22-2.57,11-.08.79-1.07,1.96-1.83,2.13-4.63,1.04-4.54,5.72-7.07,8.37,1.09.82,1.92.39,2.64.03,3.27-1.63,4.51-.57,5.5,2.93,1.52,5.39,4.71,10.03,8.51,14.18.29.31,1.49.53.34,1.1-2.07,1.03-1,2.56-.56,3.74,1.81,4.76,2.14,9.47.23,14.26-1.1,2.76-.44,5.31,1.21,7.56,1.48,2.02,2.56,4.02,2.51,6.66-.04,2.32,2.87,4.56,4.74,3.55,2.9-1.55,7.36-1.18,7.96-5.91.09-.74.78-.88,1.41-.85,3.18.19,3.41-2.06,3.64-4.34.09-.84-.04-1.94.43-2.46,5.16-5.65,4.69-13.53,7.93-19.93.38-.76.23-1.96-.04-2.84-.38-1.21-.64-2.23.06-3.46.78-1.38.19-2.66-.43-4.11-1.69-3.95-2.58-8.21-4.13-12.25-1.99-5.22-5.73-9.27-7.56-14.41-.14-.4-.66-.77-1.09-.95-3.41-1.43-6.46-3.1-6.88-7.41-.08-.77-1.22-1.44-1.89-2.15-4.77-5.02-10.88-5.87-17.2-4.88-4.82.75-9.55,2.35-11.75,7.53-.47,1.12-1.22,1.22-2.4,1.53-4.16,1.07-6.18-1.64-8.44-4.08-1.69-1.82-4.15-3.6-6.01-2.03-2.9,2.45-6.12,3.61-9.53,4.72-.52.17-.89.79-1.35,1.19-3.38,2.96-8.45,3.2-11.32,7.01-.1.13-.47.1-.71.07-2.89-.47-4.29.94-4.81,3.66-.13.66-.53,1.46-1.06,1.83-3.55,2.47-3.36,5.72-1.8,9.07.88,1.89.87,2.86-1.39,3.33-2.89.6-4.37,2.56-4.39,5.49,0,1.27-.36,1.93-1.6,2.46-2.61,1.11-5.06,6.44-4.49,9.22.25,1.19.86,2.05,2.01,2.37,2.93.81,2.06,1.58.33,3.14-2.24,2.03-2.76,4.4-.8,7.4,1.16,1.78.55,4.65,3.12,5.86.06.03-.08.69-.25.99-2.91,5.11,3.81,7.35,3.51,11.7-.01.18.92.71,1.21.59,3.43-1.48,7.03,2.66,10.37-.6-2.21,3.76-1.23,5.98,2.83,6.58,2.1.31,3.52,0,2.36-2.7-.47-1.09-1.34-2.23-.71-3.69,1.45.71,1.59,2.02,2.09,3.08,1.5,3.2,3.26,6.25,5.01,9.32,5.19,9.11,14.53,12.16,23.16,16.27,4.63,2.21,9.27,4.62,14.59,2.08-3.19,3.78-6.34,4.35-11.34,1.85-8.97-4.48-18.57-7.87-25.96-15.09Zm-24.16,29.53c-.96,3.47-4.08,5.08-6.34,7.51-4.31,4.63-8.58,9.51-11.1,15.31-2.88,6.65-3.54,13.94-3.1,21.16.49,8.11,4.21,14.73,13.15,17.12,9.92,2.66,19.37,1.33,28.36-3,7.26-3.5,14.6-5.43,22.73-5.72,11.71-.41,23.33-.92,34.81,2.05,2.39.62,4.81.5,7.24.1,10.23-1.68,18.26-7.21,24.81-14.86,6.45-7.53,5.24-18.7-1.88-25.72-5.42-5.34-11.94-8.76-18.66-11.93-2.75-1.3-5.39-1.86-6.14,2.42-.16.9-.89,1.72-1.38,2.55-3.32,5.66-8.45,9.32-13.87,12.69-10.72,6.66-22.03,11.27-34.96,10.87-15.01-.47-29.56-12.94-32.15-27.73-.16-.92.12-2.01-1.52-2.84Zm-6.49,2.42c.85,2.7,1.97,2.21,3.21.89,1.85-1.97,2.6-4.34,2.64-7.02.07-3.98-.79-4.78-4.09-2.66-9.61,6.16-18.56,13.28-23.59,23.83-5.15,10.8-7.72,22.58-11.22,33.99-1.48,4.84-2.25,10.04-.85,15.14,2.23,8.11,2.23,16.65,4.77,24.71.43,1.36.69,2.95.42,4.32-.88,4.42.76,8.45,1.58,12.6.2,1.01.74,2.48,2.18,1.48,2.68-1.88,3.3-.4,3.72,1.93.24,1.32.66,2.6,1.06,3.88.27.88.38,2.25,1.75,1.72,1.29-.5.53-1.62.26-2.52-.83-2.78-1.52-5.59-1.56-9.43,1.06,2.12,1.88,4.24,3.63,2.73,1.17-1.01-.14-2.65-1.06-3.78-.54-.66-1.15-1.26-1.68-1.93-3.11-3.93-4.68-8.21-3.2-13.28,1-3.44,1.48-7.15.66-10.51-1.66-6.77,1.06-12.08,4.38-17.43.95-1.53,1.45-3.34,2.23-4.99.62-1.3.62-2.54.11-3.87-1.7-4.44-1.78-9.11-1.46-13.73.61-8.97,1.99-17.61,8.64-24.62,3.03-3.19,6.74-6.16,7.46-11.45Zm132.73,120.72c2.4-1.9,4.05-3.03,4.45-5.29,1.26-7.08,1.52-14.03-2.37-20.51-.53-.89-.59-2.54-1.9-2.29-1.42.28-.66,1.83-.76,2.82-.48,5.28,1,10.71-1.2,15.87-.19.44-.34.98.18,1.31.6.38,1.18.18,1.59-.35.54-.69,1.1-1.5,2.06-.96,1.22.68.16,1.74.22,2.63.14,2.15-1.83,3.59-2.29,6.77Zm-50.3-131.98c.32,2.89.46,4.97,2.63,5.41,2.26.46,4.33,1.27,6.42,2.18.81.36,1.91.91,2.66-.09.67-.89.23-1.91-.29-2.71-2.11-3.29-4.89-5.57-8.98-5.93-1.76-.16-2.53.42-2.44,1.15Zm-56.46-59.63c.47-2.36.87-4.38,1.3-6.53-4.28,1.05-4.51,2.12-1.3,6.53Zm-17.91,59.28c-1.17.51-2.06,1.25-1.63,2.75.21.72.08,2.15,1.22,1.71,1.37-.52,1.12-2.27,1.5-3.5.22-.7-.29-1.09-1.1-.96Zm-30.94,121.09c-1,2.58-1.36,4.23-.11,5.79.15.19,1.1.12,1.24-.11,1.12-1.83-.05-3.27-1.13-5.68Z"/><path class="cls-1" d="m425.46,405.59c-3.08,3.92-6.11,7.76-11.27,8.86-2.06.44-3.16,1.95-4.1,3.82-6.9,13.67-8.51,28.91-12.92,43.32-.52,1.69.19,2.94,1.14,4.35,1.71,2.52,3.47,5.29,1.09,8.36-2.28,2.93-5.37,3.48-8.87,2.71-4.05-.89-6.66-3.9-9.58-6.44-.44-.38-.7-1.44-.5-2.01,2.03-5.88-1.32-10.9-2.61-16.19-1.83-7.48-5.34-14.39-8.14-21.54-.58-1.47-1.23-2.48-3.18-2.22-7.31.95-14.58-.24-21.84-.87-2.21-.19-3.31.27-3.98,2.52-4.02,13.45-9.18,26.48-15.01,39.24-.67,1.47-.95,2.96-1.05,4.57-.38,5.79-6.43,10.02-12.02,8.5-1.88-.51-2.99-1.74-2.88-3.7.15-2.67.14-5.6,2.1-7.59,2.29-2.33,1.91-4.78,1.16-7.37-2.73-9.35-5.55-18.67-8.25-28.02-.98-3.38-1.9-6.81-2.46-10.28-.35-2.13-1.37-2.9-3.27-3.18-3.21-.47-5.99-2.02-8.62-3.79-3.2-2.15-4.89-5-5.11-9.11-.59-10.95-2.45-21.77-3.07-32.75-.72-12.95-.44-25.87-.41-38.8.01-5.07.08-10.14,1.23-15.17,1.23,4.08,1.01,8.34.87,12.45-.81,23.6.73,47.06,3.81,70.45,1.23,9.33,3.33,11.33,12.65,13.55,9.57,2.28,19.34,2.13,29,3.15,10.27,1.08,20.52,2.43,30.87,2.84,3.2.13,6.26.07,9.39-.66,11.84-2.76,23.6-5.76,35.2-9.41,1.84-.58,3.77-.98,5.68-1.25,6.1-.84,10.74-4.21,14.96-8.35Zm-17.3,12.83c.12-1.93-1.06-1.57-2.14-1.21-4.15,1.37-8.25,2.92-12.44,4.14-6.64,1.93-13.31,3.78-20.03,5.38-3.06.72-3.36,1.9-1.98,4.47,1.6,3,2.95,6.14,4.3,9.27,3.48,8.07,5.49,16.62,8.11,24.97.99,3.13,3.68,3.35,6.07,3.74,2.29.38,2.98-1.65,3.47-3.49,1.84-6.81,3.73-13.61,5.47-20.45,2.09-8.25,3.57-16.69,8.16-24.09.5-.81.69-1.82,1.02-2.72Zm-102.34,5.55c-1.27-.16-2.61-.36-2.02,1.72.83,2.92,1.56,5.87,2.42,8.78,3.34,11.17,6.71,22.33,10.08,33.5.47,1.55-.1,3.9,1.97,4.33,2.28.48,3.55-1.68,4.96-3.1.57-.57.78-1.5,1.13-2.27,5.58-12.17,10.03-24.8,15.06-37.2.9-2.23,0-2.76-2.04-2.93-10.52-.89-21.04-1.87-31.56-2.82Zm5.5,53.49c-.12,1.75.12,3.18,2.16,3.67,3.42.83,8.33-1.89,9.42-5.28.29-.92.8-1.93-.16-2.69-.8-.63-1.58-.1-2.31.4-2.06,1.41-3.99.99-5.5-.79-1.67-1.97-2.35-1.02-2.83.77-.34,1.28-.52,2.61-.78,3.92Zm81.49-2.14c2.24.12,4.08-.68,5.28-2.59,1.4-2.23,0-4.28-1.37-5.52-1.22-1.1-1.84,1.07-2.42,1.89-2.07,2.94-4.58,2.7-7.37,1.41-.83-.38-1.84-1.41-2.5-.23-.6,1.08.76,1.62,1.46,2.18,2.02,1.62,4.25,2.82,6.93,2.85Z"/><path class="cls-1" d="m375.44,135.1c2.4-1.23,4.54-.85,6.07,1.37,1.53,2.24,1.52,4.82-.21,6.78-1.58,1.78-2.14,2.98-.73,5.24,1.15,1.84,1.11,4.33-.44,6.18-1.48,1.77-3.56,1.75-5.7,1.23-2.12-.51-4.28-.76-6.48-.43-1.07.16-2.18.24-2.81-1.35,3.68.62,7.21.02,10.73.86,2.5.59,4.34-.74,4.44-3.48.09-2.55-1.04-4.24-3.93-3.99-3.4.3-4.39-2.11-5-4.68-.55-2.29-1.5-4.88,1.74-6.18-.26,1.06-.8,2.14-.72,3.17.18,2.48,1.28,4.62,3.98,4.97,2.7.35,4.28-1.43,5.13-3.8,1-2.77-1.36-6.76-6.06-5.89Z"/><path class="cls-1" d="m356.59,158.3c2.58-.23,3.44.96,4.53,1.6,1.3.76,3.1,1.79,4.04.96,2.67-2.36,5.18.7,7.76-.21.86-.3,2.23.85,2.29,1.9.1,1.49-1.41.83-2.23,1.04-6.19,1.56-11.13-.81-16.4-5.29Z"/><path class="cls-1" d="m357.55,134.85c3.1.05,6.56,3.26,6.57,6.1.02,4.3-2.97,8.26-6.16,8.15-3.48-.12-6.94-3.73-6.85-7.15.1-3.73,3.2-7.15,6.44-7.09Zm-5.53,7.25c.05,2.31,3.77,5.84,6.16,5.84,2.31,0,4.83-3.18,4.72-5.98-.14-3.68-2.34-6.34-5.21-6.3-3.04.04-5.74,3.1-5.67,6.44Z"/><path class="cls-1" d="m325.08,90.89c-.76,4.5,1.42,7.67,2.15,11.11.72,3.35.5,7.42,4.23,9.72-4.33-1.4-9.2-16.69-6.38-20.83Z"/><path class="cls-1" d="m369.96,85.1c-.44,1.4-1.13,2.47-1.04,3.46.59,6.28-4.56,7.95-8.4,10.52-2.05,1.37-4.21.19-6.3-2.97,1.27-.15,1.55,1.01,2.25,1.38.97.51,1.89,1.1,3.06.88,2.35-.44,2.53-3.59,5.72-3.8,2.53-.16,2.51-4.1,2.43-6.57-.06-1.74.4-2.47,2.28-2.9Z"/><path class="cls-1" d="m335.23,87.77c-3.29,3.15,1.38,7.01-2.05,9.51,3.01,2.14,2.34,6.11,4.32,8.76-.18.1-.46.35-.56.29-1.48-.87-5.28-9.21-4.77-10.74.4-1.23.25-2.36.11-3.57-.2-1.77-.02-3.43,2.95-4.25Z"/><path class="cls-1" d="m318.13,107.8c.35,3.05-.28,5.84,3.3,5.75.41-.01.97.52.69,1.06-2.09,4.14,1.59,3.43,3.54,4.61-1.6.74-3.21.88-4.75-.34-2.6-2.07-4.29-7.54-2.79-11.09Z"/><path class="cls-1" d="m387.6,113.4c6.49-2.8,12.85-3.64,19.43-2.59-3.84-.97-7.2,2.5-11.1,1.05-1.31-.49-1.9.7-2.79,1.24-1.73,1.06-3.53,2-5.54.3Z"/><path class="cls-1" d="m345.64,80.81c-.17,1.01-1.62,1.66-.98,2.87,1.01,1.89,1.62,3.21-1.41,4-1.64.43-.99,2.79-.91,4.31.1,2.06,1.02,3.9,1.99,5.71-2.81-1.36-3.52-4.14-3.13-6.55.61-3.7,2.18-7.23,3.34-10.84.37.17.73.33,1.1.5Z"/><path class="cls-1" d="m392.42,89.61c-.42,3.95-8.69,11.45-12.13,11.21,3.04-4.71,9.11-6.26,12.13-11.21Z"/><path class="cls-1" d="m397.82,102.34c-4.39,3.41-10.18,2.69-14.86,5.33,1.92-1.08,3.99-1.66,4.63-4.1.05-.2.73-.48.91-.38,3.34,1.93,6.19-.36,9.32-.86Z"/><path class="cls-1" d="m404.6,131.55c-4.13.14-7.98,1.31-11.85,2.54-1.09.34-2.23-.05-2.62-1.35-.12-.4-.02-1.05.25-1.34.53-.57.72.14,1.06.43,1.69,1.41,3.46.75,5.11-.04,2.64-1.26,5.3-.84,8.05-.24Z"/><path class="cls-1" d="m407.56,118.94c-1.59,4.64-3.21,5.81-7.38,4.51-2.15-.67-3.54.8-5.28.94-.25-.98.56-.79.76-1.13,1.17-1.97,2-2.73,4.6-1.12,2.9,1.8,5.87.46,7.29-3.2Z"/><path class="cls-1" d="m328.19,137.09c-1.28-1.38-.41-3.68-2.68-3.88-2.36-.21-3.31,1.57-4.54,3.56-.88-2.18-.21-3.4,1.16-4.37,1.54-1.09,3.27-1.1,4.83-.27,1.82.97,1.65,2.76,1.23,4.97Z"/><path class="cls-1" d="m363.4,166.47c3.09,1.75,6.52,1.23,10.54,1.29-4.31,1.69-7.12,1.32-10.54-1.29Z"/><path class="cls-1" d="m381.8,125.85c-2.5-1.05-4.85-1.27-7.51.68.21-2.37,1.42-2.9,2.88-3.06,1.97-.22,3.78.02,4.64,2.37Z"/><path class="cls-1" d="m398.79,141.69c-2.76-.84-5.82.22-7.45-2.93,1.91,2.34,5.8-1.17,7.45,2.93Z"/><path class="cls-1" d="m352.02,127.92c1.37-3.66,3.41-4.41,6.74-2.76-2.62-.48-4.55.89-6.74,2.76Z"/><path class="cls-1" d="m378.09,139.48c-.08,1.16-.77,1.49-1.74,1.34-.93-.14-1.59-.66-1.59-1.67,0-1,.58-1.65,1.58-1.58,1.13.07,1.66.86,1.75,1.91Z"/><path class="cls-1" d="m358.06,139.15c1.09.2,2.25.44,2.24,1.85,0,1.07-.76,1.82-1.79,1.96-1.26.17-2.1-.43-2.09-1.82,0-1.08.44-1.86,1.64-1.98Z"/></svg>