<?xml version="1.0" encoding="UTF-8"?><svg id="personnage6" xmlns="http://www.w3.org/2000/svg" xmlns:xlink="http://www.w3.org/1999/xlink" viewBox="0 0 1080 1080"><defs><style>.cls-1{fill:url(#Dégradé_sans_nom_8);}.cls-1,.cls-2,.cls-3,.cls-4,.cls-5,.cls-6,.cls-7,.cls-8,.cls-9{stroke-width:0px;}.cls-2{fill:url(#Dégradé_sans_nom_9);}.cls-3{fill:url(#Dégradé_sans_nom_4);}.cls-4{fill:url(#Dégradé_sans_nom_8-3);}.cls-5{fill:url(#Dégradé_sans_nom_8-2);}.cls-7{fill:#757473;}.cls-8{fill:#3b2f35;}.cls-9{fill:#beaa9a;}</style><linearGradient id="Dégradé_sans_nom_4" x1="47.13" y1="282.24" x2="140.85" y2="282.24" gradientUnits="userSpaceOnUse"><stop offset="0" stop-color="#3b2f35"/><stop offset=".48" stop-color="#aeb9b0"/></linearGradient><linearGradient id="Dégradé_sans_nom_8" x1="71.94" y1="393.99" x2="94.43" y2="393.99" gradientUnits="userSpaceOnUse"><stop offset="0" stop-color="#f01048"/><stop offset=".56" stop-color="#aeb9b0"/></linearGradient><linearGradient id="Dégradé_sans_nom_9" x1="114.3" y1="395.64" x2="96.16" y2="392.81" gradientUnits="userSpaceOnUse"><stop offset="0" stop-color="#f01048"/><stop offset=".93" stop-color="#aeb9b0"/></linearGradient><linearGradient id="Dégradé_sans_nom_8-2" x1="98.87" y1="359.9" x2="117.94" y2="359.9" xlink:href="#Dégradé_sans_nom_8"/><linearGradient id="Dégradé_sans_nom_8-3" x1="72.07" y1="355.9" x2="88.36" y2="355.9" xlink:href="#Dégradé_sans_nom_8"/></defs><path class="cls-8" d="m143.64,468.27c1.14-3.57,2.18-7.17,3.44-10.7.93-2.61,1.36-5.24,1.16-7.99-.04-.53-.09-1.17-.77-1.26-.65-.08-.91.5-1.09,1-.74,2.02-1.44,4.05-2.7,5.9,1.09-3.1,2.24-6.18,3.25-9.3.86-2.67,1.54-5.25.29-8.19-.7-1.65.11-3.88-.2-5.77-.91-5.56-2.03-11.08-3.09-16.61-.24-1.26-.62-2.49-1.15-4.58,1.97,2.21,1.36,4.78,3.29,6.38,1.03-2.25-.43-4.58.81-7.12.8,4.56.52,8.66.97,12.71,1.98,17.94,2.25,35.96,1.99,54-.02,1.73-.28,3.46-.39,5.19-.04.57.18,1.17.81,1.2.31.01.79-.4.95-.73,5.28-11.15,11.94-21.82,13.23-34.44.62-6.08-1.14-12.04-2.42-17.98-2.63-12.19-5.24-24.39-7.75-36.61-1.9-9.26-6.4-17.32-11.81-24.81-3.81-5.27-7.38-10.71-11.15-16-2.42-3.4-5.13-6.37-8.16-9.17-1.58-1.46-1.88-.99-2.9.64-5.75,9.23-6.61,19.81-8.55,30.08-3.83,20.24-7.34,40.54-11.32,60.75-.95,4.84-2.98,9.53-4.94,14.11-2.72,6.36-4.74,12.6-3.64,19.78,1.05,6.85-.16,13.89.79,20.82,1.68,12.25,3.95,24.4,6.04,36.59.64,3.74,1.14,7.51,1.44,11.29.2,2.44,1.25,3.39,3.54,2.82,9.89-2.47,19.62-5.44,28.73-10.1,1.94-.99,3.38-2.95,5.08-4.43.8-.69,1.53-1.55,2.74-1.52.05.22.19.51.12.58-6.56,6.24-8.46,14.62-10.71,22.93-2.98,10.99-6.59,21.82-9.4,32.85-3.78,14.81-5.79,29.99-8.61,45.01-1.6,8.52-3.82,16.95-4.49,25.61-1.11,14.3-3.69,28.37-5.9,42.5-.47,2.98-1.49,5.85-1.41,8.95.07,2.87,1.32,4.37,4.08,4.97,4.65,1.01,9.27,2.15,13.88,3.32,2.34.6,4.76,1.21,4.24,4.61-.54,3.54-2.31,5.36-5.73,5.32-7.22-.08-14.12-1.96-20.89-4.24-2.57-.87-3.38-3.1-3.25-5.78.16-3.25.13-6.52.15-9.78,0-.76-.02-1.78-.95-1.8-.91-.02-1.03.99-1.05,1.75-.08,3.69-.16,7.39-.18,11.09-.02,2.87-1.08,4.55-3.94,5.88-5.82,2.69-12.01,4.39-17.73,7.25-2.09,1.05-3.35.42-3.35-2.09,0-1.3.13-2.63-.04-3.91-.37-2.81.85-4.68,3.35-5.62,5.02-1.88,8.83-5.4,12.53-9.07,1.81-1.8,3.43-3.28.69-6.12-2.09-2.16-.72-5.82-1.51-8.78-1.5-5.61-.8-11.46-1.11-17.18-.58-10.78-3.69-21.17-4.36-31.87-.82-13.12-3.8-25.93-4.52-39.07-.81-14.71-2.12-29.43-5.22-43.92-1.38-6.46-2.13-13.05-3.21-19.57-.21-1.27-.21-3.06-1.01-3.67-6.34-4.84-5.32-12.33-6.43-18.76-1.5-8.66-5.08-16.09-9.24-23.66-6.82-12.42-14.06-24.76-16.91-38.95-.56-2.77-.28-5.58.4-8.38,4.21-17.39,9.91-34.4,13.29-51.98,1.22-6.36,4.55-11.68,6.87-17.49,3.22-8.07,6.95-15.92,12.2-22.92,1.43-1.91,2.88-3.8,4.35-5.68,1.04-1.32,1.26-2.38-.39-3.48-8.75-5.83-8.95-14.29-7.29-23.47,1.01-5.57,2.58-10.98,3.97-16.45.51-2.01.43-3.31-2.02-3.75-1.71-.31-3.18-1.36-4.32-2.74-3.48-4.18-6.19-8.92-8.71-13.66-3.02-5.68-.35-12.43,5.35-15.49.19-.1.47-.13.57-.29,4.64-6.97,12.85-11.06,15.69-19.44,1.75-5.16,4.2-9.97,6.64-14.81,2.72-5.38,7.23-8.83,12.06-11.97,1.81-1.18,3.98-1.74,6.22-1.56,11.34.92,20.79,6.21,24.5,17.13,2.29,6.77,4.92,13.42,7.54,20.07,1.45,3.68,4.52,6.02,7.54,8.34.55.42,1.19.45,1.86.35,7.09-1.02,9.29,6.62,6.85,11.05-1.15,2.09-2.29,4.19-3.5,6.25-1.27,2.18-2.13,4.48-2.74,6.93-.94,3.75-2.95,6.54-7.25,6.66-2.09.06-1.87,1.39-1.57,2.72,1.02,4.55,2.45,9.04,3.06,13.64,1.29,9.73,1.41,19.37-5.84,27.32-1.25,1.37-.3,2.3.67,2.92,6.78,4.36,10.59,11.24,14.96,17.63,2.75,4.03,6.09,7.58,8.77,11.71,7.87,12.15,9.95,26.04,12.48,39.78,1.43,7.8,3.25,15.5,5.03,23.2,2.2,9.51,1.1,18.46-2.54,27.34-2.6,6.34-5.31,12.65-8.88,18.47-4.93,8.04-4.94,17.32-7.25,26.02-.9,3.36-1.8,6.71-2.87,10.01-.32.98-.49,2.93-2,2.36-1.3-.5-.04-1.93.25-2.84,3.47-10.81,6.33-21.8,5.58-33.21-.48-7.38,1.58-14.53.94-21.85-.07-.82.52-2.09-.45-2.32-1.24-.3-1.28,1.09-1.55,1.96-.75,2.45-1.49,4.91-2.24,7.36-.21-.07-.43-.13-.64-.2Z"/><path class="cls-8" d="m45.58,445.82c-1.39,1.43-.96,2.56-.94,3.58.18,10.67,1.84,21.21,3.75,31.65,2.85,15.57,7.11,30.85,9.81,46.47.11.62.32,1.28.65,1.81,3.52,5.63,15.98,11.15,22.14,9.16,4.53-1.46,9.2-2.4,13.67-4.08,2.38-.89,3.33-2.25,2.81-4.64-1.53-7.11-2.37-14.33-3.63-21.48-1.83-10.29-3.3-20.56-2.85-31.05.13-2.92-.08-5.87-.29-8.79-.49-7-.41-13.9,2.91-20.36.54-1.05,1.1-2.19.51-3.42-2.55-5.38-4.38-11.04-6.39-16.63-7.18-19.93-13.05-40.19-15.99-61.22-.64-4.62-1.75-9.39-.58-13.91.73-2.82-.09-4.79-1.07-7.02-.76-1.74-1.7-1.75-2.79-.21-2.06,2.93-4.14,5.84-6.24,8.73-4.76,6.56-7.62,14.1-11.07,21.35-3.78,7.96-6.91,16.1-8.42,24.84-.81,4.7-1.7,9.43-3.18,13.95-2.26,6.92-4.13,13.93-5.85,21-.97,3.99-2.34,7.92-2.83,11.96-.73,6.01,1.86,11.48,3.83,16.97,3.17,8.82,8.37,16.66,12.21,25.17.57,1.27,1.32,2.68,3.61,3.67-5.86-24.7-6.68-49.12-5.26-73.68.96,1.85-.15,4.13,1.54,6.79.73-4.14,1.31-7.42,1.89-10.71-.88,11.16,4.92,21.09,5.5,31.89-.46-.5-.81-1.03-1-1.61-1.91-5.86-4.5-11.57-4.02-17.98.06-.74.09-1.61-.78-1.96-.63-.25-1.03.22-1.22.75-1.87,5.22-2.82,10.68-.89,15.92,1.39,3.78,2.4,7.65,3.65,11.46,1.89,5.73,3.64,11.5,5.44,17.26-3.46-8.19-6.31-16.57-8.67-25.63Z"/><path class="cls-3" d="m63.37,285.06c-2.12-2.47-.29-5.29-1.42-6.43-2.6-2.61-3.71-6.08-6.06-8.79-1.74-2.01-3.12-1.91-4.96-.56-3.42,2.53-4.99,9.09-2.75,13.07,2.28,4.05,4.78,8,7.5,11.76,3.26,4.5,4.48,4.55,9.36.76-2.36,4.69-2.16,9.18-3.24,13.44-1.75,6.95-3.38,13.92-2.95,21.19.37,6.2,5.18,11.81,11.32,12.28,5.19.39,10.24-.74,15.36-3.71-.44,1.49-2.96,2.44-.72,3.39,3.91,1.66,8.25,3.49,12.1.83,2.93-2.03,5.45-1.78,8.42-1.08,1.57.37,3.21.49,4.83.6,8.73.6,14.33-3.21,16.7-11.66,2.06-7.36,2.07-14.83-.13-22.17-1.64-5.45-1.63-11.2-3.51-16.67.97.53,1.58,1.22,2.18,1.92,1.75,2.03,3.65,2.07,5.69.47,1.24-.98,2.15-2.23,2.41-3.76.77-4.52,3.29-8.22,5.4-12.13.57-1.05,1.18-2.09,1.6-3.2,1.03-2.77-.24-6.45-2.57-7.72-2.45-1.33-5.32-.43-7.31,2.37-1.15,1.62-1.56,3.56-2.1,5.44-.54,1.88-1.03,3.77-1.64,5.62-.26.79-.54,1.8-1.55,1.91-1.12.11-1.27-1.01-1.66-1.73-2.44-4.46-1.86-9.52-2.76-14.29-1.42-7.56-.21-15.3-2.32-22.89-3.2-11.52-9.25-19.61-21.52-22.18-4.3-.9-7.74.05-11.34,2.25-6.69,4.1-10.02,10.64-13.1,17.35-2.03,4.42-4.04,8.93-3.99,13.98.09,10.23-3.66,19.74-5.26,30.32Z"/><path class="cls-1" d="m93.42,437.83c.64-1.04.92-1.29.92-1.54-.03-7.28.15-14.56-.2-21.82-.67-13.67-.72-27.33-.04-41,.32-6.4.22-12.81.32-19.22.04-2.43-1.98-3.69-3.56-4.04-1.92-.43-1.74,1.93-2.09,3.33-2.34,9.46-5.05,18.85-5.74,28.65-.05.66.26,1.81-.77,1.89-1.36.1-1.02-1.22-1.03-1.94-.22-9.09-3.24-17.43-6.74-25.63-.56-1.31-.55-2.99-2.57-3.65,1.97,29.42,10.77,57.08,21.48,84.99Z"/><path class="cls-2" d="m113.27,359.55c-.29-.1-.59-.21-.88-.31-.75,1.4-1.54,2.77-2.23,4.2-3.03,6.26-5.1,12.91-7.71,19.35-.51,1.25-.24,3.72-2.25,3.3-1.57-.33-.73-2.48-.68-3.78.34-9.11.9-18.21,1.14-27.32.06-2.13-.03-5.43-2.79-5.36-1.84.05-2.56,3.04-2.53,5.33.2,14.11-.98,28.19-.08,42.32.81,12.67.9,25.39,1.32,38.09.02.54.07,1.1,1.7,1.25,4.37-25.76,9.51-51.45,15-77.08Z"/><path class="cls-5" d="m101.4,367.47s-.06,0-.09,0c0,2.39-.02,4.77.01,7.16,0,.71-.32,1.77.6,1.98,1.18.27,1.23-.95,1.49-1.7,2.11-5.93,4.53-11.72,7.53-17.25,2.11-3.9,4.22-7.81,6.38-11.69,1.17-2.11.69-3.08-1.76-2.72-3.01.44-6,.37-9.03.09-2.89-.27-4.76,2.24-7.15,3.39-.89.43-.5,1.35.17,1.87,1.65,1.28,1.89,3,1.86,4.93-.06,4.65-.02,9.3-.02,13.96Z"/><path class="cls-4" d="m81.02,342.03c-2.26.76-4.36,1.73-6.56,2.14-2.93.55-2.76,1.82-1.63,4.01,3.28,6.34,5.94,12.96,8.35,19.69.26.73.09,2.03,1.3,1.88,1.01-.13,1.02-1.36,1.16-2.13.81-4.71,1.99-9.35,3.79-13.73,1.63-3.98,1.35-6.87-2.69-8.98-1.4-.73-2.25-2.31-3.71-2.88Z"/><path class="cls-8" d="m95.11,347.39c.19-1.23-.13-2.03-1.41-2.11-1.01-.06-1.79.37-1.55,1.48.29,1.32.35,3.34,1.83,3.43,1.58.09.69-1.91,1.13-2.8Z"/><path class="cls-7" d="m120.52,340.69s-7.66,20.27-8.28,23.71-8.53,54.15-9.46,59.06c-.93,4.91-2.4,12.46-3.91,18.19-1.16,4.4-8.26,16.99-8.38,22.65-.14,6.42,2.38,40.43,5.93,51.26,3.69,11.27,1.17,26.29,4.92,26.28,3.76,0,20.66-5.73,25.84-8.18,5.18-2.45,13.23-7.23,13.11-7.81s1.67-4.78,4-11.29,5.68-22.33,4.75-23.58c-2.08-2.8,14.54-27.34,15.78-33.48s.06-22.98-.68-26.22-3.89-25.97-6.8-33.39-8.65-21.27-10.67-24.44-14.81-22.24-14.81-22.24l-11.34-10.53"/><path class="cls-9" d="m106.58,273.36c1.9-.28,3.53-.38,5.09-.77,2.17-.55,2.13-2.45,2.16-4.2.01-.62.09-1.58-.72-1.56-1.6.03-2.84.86-3.47,2.42-.12.3-.17.65-.36.9-1.1,1.5-2.46,1.68-3.89.54-.57-.46-.86-1.42-1.47-1.66-1.19-.48-2.84-1.71-3.7-.05-.73,1.4.51,2.68,1.93,3.2,1.51.55,3.11.85,4.42,1.19Z"/><path class="cls-9" d="m87.61,268.48c-1.69.04-2.39.94-2.94,2.05-.75,1.51-2.09,1.67-3.58,1.6-1.38-.07-2-1-2.75-1.97-1.01-1.31-2.6-1.4-4.13-1.41-.5,0-.81.39-.79.84.07,1.67,1.04,2.83,2.36,3.66,4.84,3.06,10.57.85,11.83-4.79Z"/><path class="cls-6" d="m143.64,468.27c1.14-3.57,2.18-7.17,3.44-10.7.93-2.61,1.36-5.24,1.16-7.99-.04-.53-.09-1.17-.77-1.26-.65-.08-.91.5-1.09,1-.74,2.02-1.44,4.05-2.7,5.9,1.09-3.1,2.24-6.18,3.25-9.3.86-2.67,1.54-5.25.29-8.19-.7-1.65.11-3.88-.2-5.77-.91-5.56-2.03-11.08-3.09-16.61-.24-1.26-.62-2.49-1.15-4.58,1.97,2.21,1.36,4.78,3.29,6.38,1.03-2.25-.43-4.58.81-7.12.8,4.56.52,8.66.97,12.71,1.98,17.94,2.25,35.96,1.99,54-.02,1.73-.28,3.46-.39,5.19-.04.57.18,1.17.81,1.2.31.01.79-.4.95-.73,5.28-11.15,11.94-21.82,13.23-34.44.62-6.08-1.14-12.04-2.42-17.98-2.63-12.19-5.24-24.39-7.75-36.61-1.9-9.26-6.4-17.32-11.81-24.81-3.81-5.27-7.38-10.71-11.15-16-2.42-3.4-5.13-6.37-8.16-9.17-1.58-1.46-1.88-.99-2.9.64-5.75,9.23-6.61,19.81-8.55,30.08-3.83,20.24-7.34,40.54-11.32,60.75-.95,4.84-2.98,9.53-4.94,14.11-2.72,6.36-4.74,12.6-3.64,19.78,1.05,6.85-.16,13.89.79,20.82,1.68,12.25,3.95,24.4,6.04,36.59.64,3.74,1.14,7.51,1.44,11.29.2,2.44,1.25,3.39,3.54,2.82,9.89-2.47,19.62-5.44,28.73-10.1,1.94-.99,3.38-2.95,5.08-4.43.8-.69,1.53-1.55,2.74-1.52.05.22.19.51.12.58-6.56,6.24-8.46,14.62-10.71,22.93-2.98,10.99-6.59,21.82-9.4,32.85-3.78,14.81-5.79,29.99-8.61,45.01-1.6,8.52-3.82,16.95-4.49,25.61-1.11,14.3-3.69,28.37-5.9,42.5-.47,2.98-1.49,5.85-1.41,8.95.07,2.87,1.32,4.37,4.08,4.97,4.65,1.01,9.27,2.15,13.88,3.32,2.34.6,4.76,1.21,4.24,4.61-.54,3.54-2.31,5.36-5.73,5.32-7.22-.08-14.12-1.96-20.89-4.24-2.57-.87-3.38-3.1-3.25-5.78.16-3.25.13-6.52.15-9.78,0-.76-.02-1.78-.95-1.8-.91-.02-1.03.99-1.05,1.75-.08,3.69-.16,7.39-.18,11.09-.02,2.87-1.08,4.55-3.94,5.88-5.82,2.69-12.01,4.39-17.73,7.25-2.09,1.05-3.35.42-3.35-2.09,0-1.3.13-2.63-.04-3.91-.37-2.81.85-4.68,3.35-5.62,5.02-1.88,8.83-5.4,12.53-9.07,1.81-1.8,3.43-3.28.69-6.12-2.09-2.16-.72-5.82-1.51-8.78-1.5-5.61-.8-11.46-1.11-17.18-.58-10.78-3.69-21.17-4.36-31.87-.82-13.12-3.8-25.93-4.52-39.07-.81-14.71-2.12-29.43-5.22-43.92-1.38-6.46-2.13-13.05-3.21-19.57-.21-1.27-.21-3.06-1.01-3.67-6.34-4.84-5.32-12.33-6.43-18.76-1.5-8.66-5.08-16.09-9.24-23.66-6.82-12.42-14.06-24.76-16.91-38.95-.56-2.77-.28-5.58.4-8.38,4.21-17.39,9.91-34.4,13.29-51.98,1.22-6.36,4.55-11.68,6.87-17.49,3.22-8.07,6.95-15.92,12.2-22.92,1.43-1.91,2.88-3.8,4.35-5.68,1.04-1.32,1.26-2.38-.39-3.48-8.75-5.83-8.95-14.29-7.29-23.47,1.01-5.57,2.58-10.98,3.97-16.45.51-2.01.43-3.31-2.02-3.75-1.71-.31-3.18-1.36-4.32-2.74-3.48-4.18-6.19-8.92-8.71-13.66-3.02-5.68-.35-12.43,5.35-15.49.19-.1.47-.13.57-.29,4.64-6.97,12.85-11.06,15.69-19.44,1.75-5.16,4.2-9.97,6.64-14.81,2.72-5.38,7.23-8.83,12.06-11.97,1.81-1.18,3.98-1.74,6.22-1.56,11.34.92,20.79,6.21,24.5,17.13,2.29,6.77,4.92,13.42,7.54,20.07,1.45,3.68,4.52,6.02,7.54,8.34.55.42,1.19.45,1.86.35,7.09-1.02,9.29,6.62,6.85,11.05-1.15,2.09-2.29,4.19-3.5,6.25-1.27,2.18-2.13,4.48-2.74,6.93-.94,3.75-2.95,6.54-7.25,6.66-2.09.06-1.87,1.39-1.57,2.72,1.02,4.55,2.45,9.04,3.06,13.64,1.29,9.73,1.41,19.37-5.84,27.32-1.25,1.37-.3,2.3.67,2.92,6.78,4.36,10.59,11.24,14.96,17.63,2.75,4.03,6.09,7.58,8.77,11.71,7.87,12.15,9.95,26.04,12.48,39.78,1.43,7.8,3.25,15.5,5.03,23.2,2.2,9.51,1.1,18.46-2.54,27.34-2.6,6.34-5.31,12.65-8.88,18.47-4.93,8.04-4.94,17.32-7.25,26.02-.9,3.36-1.8,6.71-2.87,10.01-.32.98-.49,2.93-2,2.36-1.3-.5-.04-1.93.25-2.84,3.47-10.81,6.33-21.8,5.58-33.21-.48-7.38,1.58-14.53.94-21.85-.07-.82.52-2.09-.45-2.32-1.24-.3-1.28,1.09-1.55,1.96-.75,2.45-1.49,4.91-2.24,7.36-.21-.07-.43-.13-.64-.2Zm-98.06-22.46c-1.39,1.43-.96,2.56-.94,3.58.18,10.67,1.84,21.21,3.75,31.65,2.85,15.57,7.11,30.85,9.81,46.47.11.62.32,1.28.65,1.81,3.52,5.63,15.98,11.15,22.14,9.16,4.53-1.46,9.2-2.4,13.67-4.08,2.38-.89,3.33-2.25,2.81-4.64-1.53-7.11-2.37-14.33-3.63-21.48-1.83-10.29-3.3-20.56-2.85-31.05.13-2.92-.08-5.87-.29-8.79-.49-7-.41-13.9,2.91-20.36.54-1.05,1.1-2.19.51-3.42-2.55-5.38-4.38-11.04-6.39-16.63-7.18-19.93-13.05-40.19-15.99-61.22-.64-4.62-1.75-9.39-.58-13.91.73-2.82-.09-4.79-1.07-7.02-.76-1.74-1.7-1.75-2.79-.21-2.06,2.93-4.14,5.84-6.24,8.73-4.76,6.56-7.62,14.1-11.07,21.35-3.78,7.96-6.91,16.1-8.42,24.84-.81,4.7-1.7,9.43-3.18,13.95-2.26,6.92-4.13,13.93-5.85,21-.97,3.99-2.34,7.92-2.83,11.96-.73,6.01,1.86,11.48,3.83,16.97,3.17,8.82,8.37,16.66,12.21,25.17.57,1.27,1.32,2.68,3.61,3.67-5.86-24.7-6.68-49.12-5.26-73.68.96,1.85-.15,4.13,1.54,6.79.73-4.14,1.31-7.42,1.89-10.71-.88,11.16,4.92,21.09,5.5,31.89-.46-.5-.81-1.03-1-1.61-1.91-5.86-4.5-11.57-4.02-17.98.06-.74.09-1.61-.78-1.96-.63-.25-1.03.22-1.22.75-1.87,5.22-2.82,10.68-.89,15.92,1.39,3.78,2.4,7.65,3.65,11.46,1.89,5.73,3.64,11.5,5.44,17.26-3.46-8.19-6.31-16.57-8.67-25.63Zm17.79-160.75c-2.12-2.47-.29-5.29-1.42-6.43-2.6-2.61-3.71-6.08-6.06-8.79-1.74-2.01-3.12-1.91-4.96-.56-3.42,2.53-4.99,9.09-2.75,13.07,2.28,4.05,4.78,8,7.5,11.76,3.26,4.5,4.48,4.55,9.36.76-2.36,4.69-2.16,9.18-3.24,13.44-1.75,6.95-3.38,13.92-2.95,21.19.37,6.2,5.18,11.81,11.32,12.28,5.19.39,10.24-.74,15.36-3.71-.44,1.49-2.96,2.44-.72,3.39,3.91,1.66,8.25,3.49,12.1.83,2.93-2.03,5.45-1.78,8.42-1.08,1.57.37,3.21.49,4.83.6,8.73.6,14.33-3.21,16.7-11.66,2.06-7.36,2.07-14.83-.13-22.17-1.64-5.45-1.63-11.2-3.51-16.67.97.53,1.58,1.22,2.18,1.92,1.75,2.03,3.65,2.07,5.69.47,1.24-.98,2.15-2.23,2.41-3.76.77-4.52,3.29-8.22,5.4-12.13.57-1.05,1.18-2.09,1.6-3.2,1.03-2.77-.24-6.45-2.57-7.72-2.45-1.33-5.32-.43-7.31,2.37-1.15,1.62-1.56,3.56-2.1,5.44-.54,1.88-1.03,3.77-1.64,5.62-.26.79-.54,1.8-1.55,1.91-1.12.11-1.27-1.01-1.66-1.73-2.44-4.46-1.86-9.52-2.76-14.29-1.42-7.56-.21-15.3-2.32-22.89-3.2-11.52-9.25-19.61-21.52-22.18-4.3-.9-7.74.05-11.34,2.25-6.69,4.1-10.02,10.64-13.1,17.35-2.03,4.42-4.04,8.93-3.99,13.98.09,10.23-3.66,19.74-5.26,30.32Zm30.15,383.95c-.31,6.22.91,15.44.16,24.67-.08.94.01,1.9,1.17,1.9,1.26,0,2.72.08,3.42-1.31.38-.75.54-1.65.64-2.5,1.76-13.86,4.33-27.59,5.63-41.53,1.46-15.67,5.81-30.87,8.5-46.36,1.89-10.89,4.27-21.71,7.44-32.32,3.57-11.95,7.31-23.85,10.99-35.77.25-.79,1.08-1.63.34-2.39-.78-.79-1.62.13-2.36.41-8.57,3.38-17.29,6.24-26.37,7.88-4.13.74-4.18.62-4.78-3.75-.12-.85-.01-1.96-1.2-1.95-1.11.01-1.11,1.06-1.25,1.95-.54,3.53-1.07,7.04-1.09,10.65-.02,3.24.49,6.47.37,9.67-.39,10.29-1.44,20.56-1.61,30.85-.24,14.22.21,28.46.23,42.68.02,11.39-.08,22.8-.25,37.21Zm-30.21-129.69c1.13,6.28,2.41,13.01,3.88,19.65,2.98,13.42,4.15,27.05,5.22,40.64,1.12,14.19,4.03,28.1,5.21,42.27.61,7.33,2.41,14.54,3.41,21.85,1.37,10,.54,20.19,2.46,30.15.22,1.13-.16,2.52,1.46,2.87,1.6.35,3.17.59,4.57-.73,1.66-1.56,1.97-3.61,2.08-5.66.16-3.04.07-6.09.1-9.13.18-19.23-.47-38.47.55-57.7.25-4.66,1.2-9.76-.27-13.91-1.54-4.34.09-7.81.23-11.66.06-1.63-.14-3.28.1-4.88.23-1.5-1.93-.87-1.65-2.22.94-4.53,1.85-8.8,1.04-13.75-.65-3.98,0-8.74,1.27-13.08,1.17-4.02-.82-8.34.63-12.45.09-.26-.09-.89-.18-.89-2.87-.26-1.21-2.09-1.01-3.21.43-2.45,1.06-4.87,1.69-7.29.61-2.34.33-3.28-2.44-2.35-3.17,1.06-6.41,1.99-9.64,2.83-5.71,1.48-11.14-.22-16.3-2.76-1.21-.59-2.46-1.61-2.4,1.41Zm30.1-101.49c.64-1.04.92-1.29.92-1.54-.03-7.28.15-14.56-.2-21.82-.67-13.67-.72-27.33-.04-41,.32-6.4.22-12.81.32-19.22.04-2.43-1.98-3.69-3.56-4.04-1.92-.43-1.74,1.93-2.09,3.33-2.34,9.46-5.05,18.85-5.74,28.65-.05.66.26,1.81-.77,1.89-1.36.1-1.02-1.22-1.03-1.94-.22-9.09-3.24-17.43-6.74-25.63-.56-1.31-.55-2.99-2.57-3.65,1.97,29.42,10.77,57.08,21.48,84.99Zm19.86-78.28c-.29-.1-.59-.21-.88-.31-.75,1.4-1.54,2.77-2.23,4.2-3.03,6.26-5.1,12.91-7.71,19.35-.51,1.25-.24,3.72-2.25,3.3-1.57-.33-.73-2.48-.68-3.78.34-9.11.9-18.21,1.14-27.32.06-2.13-.03-5.43-2.79-5.36-1.84.05-2.56,3.04-2.53,5.33.2,14.11-.98,28.19-.08,42.32.81,12.67.9,25.39,1.32,38.09.02.54.07,1.1,1.7,1.25,4.37-25.76,9.51-51.45,15-77.08Zm-11.87,7.91s-.06,0-.09,0c0,2.39-.02,4.77.01,7.16,0,.71-.32,1.77.6,1.98,1.18.27,1.23-.95,1.49-1.7,2.11-5.93,4.53-11.72,7.53-17.25,2.11-3.9,4.22-7.81,6.38-11.69,1.17-2.11.69-3.08-1.76-2.72-3.01.44-6,.37-9.03.09-2.89-.27-4.76,2.24-7.15,3.39-.89.43-.5,1.35.17,1.87,1.65,1.28,1.89,3,1.86,4.93-.06,4.65-.02,9.3-.02,13.96Zm-20.38-25.43c-2.26.76-4.36,1.73-6.56,2.14-2.93.55-2.76,1.82-1.63,4.01,3.28,6.34,5.94,12.96,8.35,19.69.26.73.09,2.03,1.3,1.88,1.01-.13,1.02-1.36,1.16-2.13.81-4.71,1.99-9.35,3.79-13.73,1.63-3.98,1.35-6.87-2.69-8.98-1.4-.73-2.25-2.31-3.71-2.88Zm7.45,364.96c0-1.73,0-3.46,0-5.19,0-.87.07-1.85-1.1-2.02-1.07-.16-1.97.28-2.26,1.38-.4,1.5-1.06,2.82-2.15,3.93-3.84,3.93-7.42,8.18-12.81,10.14-.5.18-.97.48-1.43.76-2.31,1.42-1.74,3.77-1.17,5.53.69,2.12,2.39.4,3.52.04,3.39-1.08,6.77-2.22,10.04-3.61,7.8-3.33,7.21-1.49,7.36-10.96Zm5.63-1.29s.03,0,.05,0c0,1.63-.02,3.25,0,4.88.02,1.38.43,2.7,1.76,3.25,6.33,2.62,12.98,3.97,19.78,4.59,1.76.16,2.9-.89,3.17-2.61.31-1.94-1.35-1.97-2.54-2.21-4.34-.88-8.44-2.63-12.83-3.38-4.45-.76-5.56-2.53-5.2-7.03.06-.75.2-1.5.29-2.26.14-1.18.51-2.61-1.24-2.77-1.58-.14-3.12.29-3.22,2.33-.08,1.73-.02,3.47-.02,5.2Zm-37.47-440.44c-.58,2.82,1.12,4.87,2.37,7.05.37.66.63,2.17,1.6,1.33.74-.63,1.87-2.58.8-3.21-2.17-1.29-1.58-4.61-4.76-5.17Zm38.48,82.12c.19-1.23-.13-2.03-1.41-2.11-1.01-.06-1.79.37-1.55,1.48.29,1.32.35,3.34,1.83,3.43,1.58.09.69-1.91,1.13-2.8Z"/><path class="cls-6" d="m105.99,499.92c-2.35,1.3-4.1,1.89-5.58,3.03-1.11.86-2.48,0-3.27-1.24-.68-1.06-1.14-2.14-.12-3.26,1-1.11,2.48-1.53,3.48-.64,1.39,1.24,2.91,1.86,5.5,2.1Zm-6.04,1.74c.82-.17,1.44-.65,1.38-1.51-.08-1.12-.83-1.74-1.96-1.66-.93.07-1.25.77-1.14,1.61.13.95.67,1.56,1.71,1.56Z"/><path class="cls-6" d="m95.66,475.21c.23,1.37-.77,2.81.67,3.91.54.41,1.17.5,1.8.09,1.2-.79.52-1.93.51-3.66.96,1.97,2.71,1.54,4.15,2.63-1.58.71-2.89,1.14-3.97,2.23-1.21,1.21-2.79.52-3.99-.66-1.92-1.89-.3-3.18.84-4.54Z"/><path class="cls-6" d="m95.8,458.46c.7.99-.46,1.85.24,2.62.5.55.93,1.35,1.78,1.15.95-.22,1.05-.97.61-1.78-.33-.61-.61-1.22.33-1.51.28-.09.69-.07.92.08.82.51.28,1.12.01,1.66-.51,1.02-.6,2.42-2.14,2.53-1.19.09-2.13-.53-2.73-1.44-.79-1.2-.21-2.23.97-3.33Z"/><path class="cls-6" d="m144.29,493.8c-1.22,5.16-3.18,10.04-6.02,14.54,2.01-4.85,4.02-9.7,6.02-14.54Z"/><path class="cls-6" d="m49.49,468.87c1.33,7.42,2.65,14.83,3.98,22.25-2.28-7.25-3.72-14.66-3.98-22.25Z"/><path class="cls-6" d="m46.56,436.31c.29,6.37,2.92,12.26,3.91,18.51-2.55-5.89-3.98-12.02-3.91-18.51Z"/><path class="cls-6" d="m69.29,329.93c1.44-4.92.83-9.68,4.98-13.04,5.03-4.08,10.11-7.8,16.92-8.02.84-.03,1.82-.53,2.09.73.24,1.11.12,2.35-1.14,2.73-9.31,2.83-16.31,8.55-21.28,16.88-.09.15-.37.18-1.57.73Z"/><path class="cls-6" d="m117.31,330.01c-1.7-3.28-3.21-5.88-4.44-8.61-2.61-5.82-7.45-8.12-13.36-8.8-1.1-.13-2.24-.09-2.44-1.55-.23-1.63-.38-2.89,2.15-2.7,9.37.72,16.36,6.11,19.04,15.2.59,1.98-.15,3.97-.95,6.46Z"/><path class="cls-6" d="m105.83,303c-.43,1.96-1.81,2.44-3.53,2.42-.97-.01-2.32-.53-2.85-.07-4.38,3.83-9.14-.15-13.63.81-.73.16-1.76.09-2.29-.87.38-.91,1.12-.37,1.65-.35,2.14.11,3.02-.58,2.37-2.88-1.09-3.86.04-7.45,1.62-11.3,1.24,1.26.75,2.36.51,3.44-.46,2.11-1.09,4.2-.67,6.42.58,3.13,2.49,5.03,5.06,4.97,3.1-.07,5.93-2.61,6.1-5.64.24-4.24-1.37-8.08-2.89-11.9-1.8-4.56-2.4-12.72-.85-18,.29,3.75.67,6.58.68,9.42,0,2.91.93,5.49,1.96,8.14,1.81,4.65,3.38,9.38,2.29,14.52-.39,1.84.59,2.01,2.05,1.7.8-.17,1.18-1.37,2.41-.82Z"/><path class="cls-6" d="m80.42,274.96c-4.28.17-7.07-1.43-7.98-4.58-.76-2.63.07-3.55,2.78-3.09,3.84.65,7.68,1.03,11.49-.21.62-.2,1.26-.53,1.78.08.56.65.35,1.4.12,2.14-1.35,4.29-3.05,5.47-8.19,5.67Zm7.19-6.48c-1.69.04-2.39.94-2.94,2.05-.75,1.51-2.09,1.67-3.58,1.6-1.38-.07-2-1-2.75-1.97-1.01-1.31-2.6-1.4-4.13-1.41-.5,0-.81.39-.79.84.07,1.67,1.04,2.83,2.36,3.66,4.84,3.06,10.57.85,11.83-4.79Z"/><path class="cls-6" d="m107.49,274.13c-1.91.2-4.02-.27-6-1.15-1.84-.81-2.38-2.48-2.08-4.34.36-2.17,2.11-1.41,3.38-1.3,3.2.27,6.25-.09,9.07-1.74,2.2-1.29,2.83-.31,2.92,1.87.21,5.2-1.28,6.66-7.29,6.66Zm-.91-.77c1.9-.28,3.53-.38,5.09-.77,2.17-.55,2.13-2.45,2.16-4.2.01-.62.09-1.58-.72-1.56-1.6.03-2.84.86-3.47,2.42-.12.3-.17.65-.36.9-1.1,1.5-2.46,1.68-3.89.54-.57-.46-.86-1.42-1.47-1.66-1.19-.48-2.84-1.71-3.7-.05-.73,1.4.51,2.68,1.93,3.2,1.51.55,3.11.85,4.42,1.19Z"/><path class="cls-6" d="m74.79,263.54c-.54.07-1.15.15-1.47-.37-.42-.69.02-1.33.56-1.65,2.52-1.49,3.42-4.05,4.45-6.54.24-.59.56-1.21,1.01-1.64.99-.94,2.08-2.42,3.55-1.42,1.7,1.15-.09,2.22-.59,3.25-.9,1.84-1.93,3.62-2.8,5.47-.96,2.04-2.74,2.59-4.71,2.89Z"/><path class="cls-6" d="m104.2,251.81c3.15,2.31,6.43,4.02,10.06,4.99.97.26,1.59.85,1.2,1.87-.47,1.23-1.46,1.74-2.81,1.7-3.82-.11-7.88-4.09-8.45-8.56Z"/><path class="cls-6" d="m128.7,282.8c1.64-4.52,2.06-9.75,7.35-12.11-4.56,2.79-4.95,8.04-7.35,12.11Z"/><path class="cls-6" d="m132.44,281.66c-.16-2.43.71-4.15,2.78-5.1-.45,2-1.16,3.85-2.78,5.1Z"/><path class="cls-6" d="m52.71,277.99c1.09-.61,2.08-.37,3.03.23.77.48,1.58,1.25,1.04,2.07-.83,1.28-1.4-.07-1.87-.56-.65-.68-1.84-.64-2.21-1.73Z"/><path class="cls-6" d="m54.2,273.49c2.87.77,3.4,3.24,4.24,5.49-1.41-1.83-2.83-3.66-4.24-5.49Z"/></svg>