<?xml version="1.0" encoding="UTF-8"?><svg id="personnage4" xmlns="http://www.w3.org/2000/svg" xmlns:xlink="http://www.w3.org/1999/xlink" viewBox="0 0 1080 1080"><defs><style>.cls-1{fill:url(#Dégradé_sans_nom_6-14);}.cls-1,.cls-2,.cls-3,.cls-4,.cls-5,.cls-6,.cls-7,.cls-8,.cls-9,.cls-10,.cls-11,.cls-12,.cls-13,.cls-14,.cls-15,.cls-16,.cls-17,.cls-18,.cls-19,.cls-20,.cls-21{stroke-width:0px;}.cls-2{fill:url(#Dégradé_sans_nom_6-13);}.cls-3{fill:url(#Dégradé_sans_nom_6-10);}.cls-4{fill:url(#Dégradé_sans_nom_6-11);}.cls-5{fill:url(#Dégradé_sans_nom_6-12);}.cls-6{fill:url(#Dégradé_sans_nom_8);}.cls-7{fill:url(#Dégradé_sans_nom_6);}.cls-8{fill:url(#Dégradé_sans_nom_8-2);}.cls-9{fill:url(#Dégradé_sans_nom_6-4);}.cls-10{fill:url(#Dégradé_sans_nom_6-2);}.cls-11{fill:url(#Dégradé_sans_nom_6-3);}.cls-12{fill:url(#Dégradé_sans_nom_6-5);}.cls-13{fill:url(#Dégradé_sans_nom_6-7);}.cls-14{fill:url(#Dégradé_sans_nom_6-6);}.cls-15{fill:url(#Dégradé_sans_nom_6-9);}.cls-16{fill:url(#Dégradé_sans_nom_6-8);}.cls-18{fill:#757473;}.cls-19{fill:#3b2f35;}.cls-20{fill:#585254;}.cls-21{fill:#aeb9b0;}</style><linearGradient id="Dégradé_sans_nom_8" x1="668.45" y1="104.56" x2="681.26" y2="104.56" gradientUnits="userSpaceOnUse"><stop offset="0" stop-color="#f01048"/><stop offset=".56" stop-color="#aeb9b0"/></linearGradient><linearGradient id="Dégradé_sans_nom_8-2" x1="693.69" y1="107.06" x2="704.08" y2="107.06" xlink:href="#Dégradé_sans_nom_8"/><linearGradient id="Dégradé_sans_nom_6" x1="711.29" y1="74.58" x2="721.7" y2="74.58" gradientUnits="userSpaceOnUse"><stop offset="0" stop-color="#3b2f35"/><stop offset=".56" stop-color="#aeb9b0"/></linearGradient><linearGradient id="Dégradé_sans_nom_6-2" x1="660.53" y1="78.28" x2="665.37" y2="78.28" xlink:href="#Dégradé_sans_nom_6"/><linearGradient id="Dégradé_sans_nom_6-3" x1="676.93" y1="64.42" x2="685.12" y2="64.42" xlink:href="#Dégradé_sans_nom_6"/><linearGradient id="Dégradé_sans_nom_6-4" x1="716.27" y1="84.62" x2="718.3" y2="84.62" xlink:href="#Dégradé_sans_nom_6"/><linearGradient id="Dégradé_sans_nom_6-5" x1="668.32" y1="72.71" x2="672.98" y2="72.71" xlink:href="#Dégradé_sans_nom_6"/><linearGradient id="Dégradé_sans_nom_6-6" x1="682.61" y1="68.97" x2="687.81" y2="68.97" xlink:href="#Dégradé_sans_nom_6"/><linearGradient id="Dégradé_sans_nom_6-7" x1="718.57" y1="87.44" x2="720.69" y2="87.44" xlink:href="#Dégradé_sans_nom_6"/><linearGradient id="Dégradé_sans_nom_6-8" x1="683.3" y1="64.59" x2="687.84" y2="64.59" xlink:href="#Dégradé_sans_nom_6"/><linearGradient id="Dégradé_sans_nom_6-9" x1="624.81" y1="353.05" x2="647.67" y2="353.05" xlink:href="#Dégradé_sans_nom_6"/><linearGradient id="Dégradé_sans_nom_6-10" x1="638.33" y1="319.13" x2="650.54" y2="319.13" xlink:href="#Dégradé_sans_nom_6"/><linearGradient id="Dégradé_sans_nom_6-11" x1="680.06" y1="167.41" x2="695.37" y2="167.41" xlink:href="#Dégradé_sans_nom_6"/><linearGradient id="Dégradé_sans_nom_6-12" x1="736.68" y1="279.95" x2="743.63" y2="279.95" xlink:href="#Dégradé_sans_nom_6"/><linearGradient id="Dégradé_sans_nom_6-13" x1="743.11" y1="288.19" x2="747.96" y2="288.19" xlink:href="#Dégradé_sans_nom_6"/><linearGradient id="Dégradé_sans_nom_6-14" x1="657.41" y1="393.99" x2="750.76" y2="393.99" xlink:href="#Dégradé_sans_nom_6"/></defs><path class="cls-21" d="m672.26,116.72c1.21.25,2.4.29,3.61-.11,2.24-.74,3.44-2.3,3.23-4.58-.21-2.41-2.38-1.37-3.65-1.54-4.58-.59-7.24-2.81-8.31-7.51-.36-1.59-.91-2.86-2.76-2.39-2.01.5-5.3-.74-5.33,2.94-.04,4.56,1.25,10.31,7.23,12.15,1.97.61,3.95.95,5.98,1.04Z"/><path class="cls-21" d="m695.04,110.87c1.26,2.13,1.01,5.2,3.45,6.28,4.77,2.1,9.55,1.52,14.12-.88,3.99-2.1,4.41-5.48,3.59-9.48-.37-1.8-.44-3.49-2.78-3.66-2.09-.15-3.64.12-4.42,2.61-1.42,4.57-4.09,6.12-9.06,5.97-1.64-.05-3.12-.68-4.9-.84Z"/><path class="cls-6" d="m681.26,104.47c-2.51.12-5.45,2.04-6.19-2.17-.39-2.21-2.45-2.94-4.76-2.05-2.23.86-2.16,2.55-1.32,4.27.57,1.17,1.37,2.32,2.34,3.17,2.01,1.76,4.49,1.83,6.94,1.23,2.14-.52,2.51-2.36,2.98-4.44Z"/><path class="cls-8" d="m700.52,110.77c1.05-.2,2.6-.16,3.36-1.3.83-1.25-1.19-1.33-1.38-2.31-.13-.69-.51-1.36-.5-2.04.03-1.6-.84-1.85-2.14-1.74-.91.08-1.82.05-2.73.1-1.24.07-2.78-.49-3.28,1.33-.45,1.64.09,3.03,1.39,4.06,1.46,1.17,3.17,1.77,5.28,1.9Z"/><path class="cls-21" d="m694.56,122.32c-.4-5.08-.34-9.56-1.2-13.98-.67-3.48-2.42-5.32-5.51-5.58-3.32-.28-4.64,2.01-5.64,4.6-1.65,4.26-2.26,8.67-1.99,13.24.05.79.61,2.19-.64,2.27-1.18.08-.78-1.42-1.11-2.2-.5-1.2.27-3.43-2.47-2.75-4.29,1.06-8.49.75-12.5-1.28-2.17-1.1-3.47-.73-3.42,2.08.11,6.46-1.57,12.72-2.21,19.1-.94,9.35-1.59,13.6,9.91,18.53,2.28.98,4.66,1.43,7.06,1.89,4.27.82,8.76.29,12.85,2.28.93.45,2.23.32,3.33.2,6.12-.65,12.05-2.03,17.41-5.22,5.71-3.4,12.36-11.33,10.88-20.7-.82-5.2-2.88-9.99-4.02-15.05-.39-1.75-1.45-1.81-3.02-1.2-4.07,1.6-8.24,2.33-12.49.58q-4.27-1.76-5.23,3.2Z"/><path class="cls-21" d="m701.48,74.57c.18-1.3-.29-3.14-1.2-4.91-1.66-3.22-3.48-3.68-6.62-1.85-2.07,1.21-3.58,2.98-5.31,4.55-1.99,1.81-4.31,3.54-7.12,2.6-5.18-1.74-11.38,1.19-12.71,6.4-.5,1.97-.83,4-1.04,6.03-.16,1.61-.4,2.81-2.16,3.6-1.64.74-1.7,2.65-1.69,4.31,0,.94.11,1.92,1.24,2.2,1.02.26,1.92-.17,2.27-1.11.78-2.09,2.33-1.88,4.01-1.65,3.88.53,7.83.55,10.83,3.92.77.87,2.54,1.67,4.18,1.5,1.67-.17,3.27.13,4.72.95,1.36.77,2.17.58,3.35-.66,3.89-4.1,11.88-5.36,17.07-2.96.79.36,1.58.54,2.28-.09.94-.86.67-1.83.11-2.77-1.33-2.24-2.31-4.52-1.33-7.22.48-1.32-.66-1.95-1.48-2.73-1.17-1.1-2.98-1.53-3.52-3.27-.6-1.95-1.44-2.59-3.09-.85-.84.89-1.42.16-1.91-.57-.96-1.44-1.05-3.06-.88-5.41Z"/><path class="cls-21" d="m725.77,109.29c-2.67.93-3.62,4.32-7.07,4.27-1.66-.02-2.51,1.71-2.56,3.33-.05,1.61-.02,3.67,1.5,4.37,1.5.69,2.91-.72,3.72-2.02,2.46-3.98,4.94-7.89,8.36-11.19,1.78-1.72,1.48-5.64-.16-7.69-1.76-2.21-4.08-2.48-6.61-1.63-1.02.34-1.9.99-1.79,2.18.12,1.3,1.2,1.42,2.27,1.53,1.03.11,2.23-.45,3.1.63-6.06,3.83-6.17,3.96-5.93,7.29,1.8.12,3.05-1.98,5.15-1.08Z"/><path class="cls-21" d="m649.44,101.61c-3.16,2.1-3.58,5.85-1.06,8.06,1.17,1.02,2.19,2.11,3.06,3.37,1.73,2.51,3.46,5.02,5.21,7.52.34.48.63,1.17,1.36,1.06.76-.11.84-.86.85-1.43.07-3.49,1.71-7.39-2.67-9.73-.5-.27-2.28-1.41-.42-2.17,2.54-1.04,1.73-2.63,1.07-4.22-.66-1.61-1.96-2.42-3.69-1.82-1.83.63-2.25,2.2-2.12,3.96.09,1.28.84,2.48.49,4.08-3.07-2.34-3.18-5.27-2.09-8.67Z"/><path class="cls-21" d="m716.45,106.01c.23.92,0,2.49,1.21,2.42,1.56-.09,1.72-1.78,1.84-3.08.08-.93-.18-2.05-1.32-2.05-1.74,0-1.55,1.52-1.73,2.71Z"/><path class="cls-7" d="m714.8,73.83c1.49,1.88,2.99,3.76,4.47,5.65.36.46.55,1.22,1.32,1.02.66-.18.74-.91.95-1.47.44-1.21-.04-2.17-.76-3.11-1.38-1.79-2.97-3.37-4.77-4.74-1.23-.94-2.21-3.28-3.84-2.33-1.47.86-.65,3.19-.66,4.88,0,1.11.25,2.33,1.71,2.52,2.09.27.54-1.81,1.57-2.41Z"/><path class="cls-10" d="m660.53,79.86c.21,1.12.56,2.63,1.75,2.43,1.9-.32,3.32-1.93,3.06-3.89-.19-1.46-1.4-2.78-2.15-4.16-1.66,1.5-2.07,3.56-2.65,5.62Z"/><path class="cls-11" d="m676.93,68.08c3.56-.78,4.78-3.28,6.82-4.65.71-.47,1.82-1.15,1.17-2.13-.73-1.1-1.87-.26-2.73.13-2.61,1.18-3.23,3.93-5.26,6.66Z"/><path class="cls-9" d="m717.81,80.15c-2.08,3.14-1.13,6.15-1.55,8.93,1-2.69,2.93-5.23,1.55-8.93Z"/><path class="cls-12" d="m672.98,68.65c-2.43,1.67-3.08,4.54-4.51,6.91-.24.4-.25,1.09.46,1.2.69.11,1.23-.33,1.31-.99.33-2.59,2.09-4.57,2.74-7.12Z"/><path class="cls-14" d="m682.61,71c1.88-.69,3.21-1.07,4.44-1.68.62-.3.99-1.11.62-1.83-.44-.87-1.24-.52-1.82-.18-1.24.73-2.7,1.31-3.24,3.69Z"/><path class="cls-13" d="m720.37,83.9c-.5,2.27-2.26,4.26-1.68,7.09,2.48-2.1,2.14-4.58,1.68-7.09Z"/><path class="cls-16" d="m683.45,66.41c1.77-.46,3.24-1.37,4.33-2.83.23-.31-.2-.89-.62-.79-1.77.4-3,1.55-3.85,3.12-.03.06.05.18.14.5Z"/><path class="cls-15" d="m642.03,349.68c.91-.77,1.41-.39,1.93-.06.81.53,1.52,1.57,2.67.69,1.01-.77,1.11-1.88,1-3.05-.22-2.27-1.03-4.32-2.04-6.36-1.7-3.42-4.92-5.32-7.38-7.97-1.62-1.74-3.12-2.01-5.07-.92-2.34,1.32-4.13,3.28-5.99,5.15-.49.49-1.07,1.6-.51,1.89,2.61,1.35.87,2.98.55,4.58-.32,1.61-.35,3.25.12,4.85.17.57.4,1.24,1.15,1.27.77.03,1-.61,1.14-1.21.29-1.27.52-2.56,2.45-2.89-.46,1.7-1.01,3.11-1.17,4.56-.14,1.33.64,2.49,2.04,2.62,1.43.14,1.06-1.21,1.14-2.03.14-1.42.69-2.43,2.47-3.05-1.51,3.95-2.94,7.6,1.78,10.93-4.02-.11-4.51-3.64-6.69-4.99-2.24-1.38-4.19-3.27-6.69-4.73-.04.58-.19.98-.06,1.12,3.94,4.27,8.53,7.82,12.95,11.54,1.27,1.07,2.29.31,2.43-1.36.19-2.28-.23-4.53-.76-7.59,2.75,2.92,2.41,5.68,1.89,8.32-.69,3.5-1.68,6.94-2.52,10.41-.29,1.21-.65,2.7.84,3.18,1.75.56,1.88-1.13,2.12-2.27.85-3.99,1.92-7.97,2.34-12.01.38-3.7,2.65-7.94-2.13-10.66Z"/><path class="cls-3" d="m650.54,314.97c-1.24-2.58-2.48-5.25-3.83-7.86-.38-.74-.62-1.95-1.79-1.78-.97.15-.91,1.27-1.12,1.99-1.65,5.66-3.21,11.34-4.85,17-1.19,4.1-.85,5.27,2.36,7.81,1.58,1.26,2.76,1.13,3.45-.89.98-2.88,1.91-5.79,2.93-8.66.88-2.49,1.85-4.95,2.85-7.62Z"/><path class="cls-4" d="m693.5,164.54c.94-2.48-.73-2.47-2.52-2.51-2.02-.04-4.08-.06-5.97-.95-1.75-.82-2.67-.28-2.93,1.64-.09.68-.48,1.33-.77,1.98-1.98,4.48-1.9,4.76,2.35,7.34.95.58,1.92,1.16,2.94,1.58,2.79,1.14,5.47.04,8.11-.68,1.08-.3.57-1.32.32-2.09-.67-2.02-1.5-4-1.53-6.31Z"/><path class="cls-5" d="m743.57,281.79c-.01-1.52.25-3.06-.27-4.56-.66-1.88-4.3-4.02-5.71-3.03-2.17,1.52.17,2.96.52,4.45.48,2.09,2.68,2.99,3.38,4.91.32.87-.2,2.56,1.17,2.37,1.32-.19.81-1.85.9-2.91.03-.41,0-.82.01-1.23Z"/><path class="cls-2" d="m747.96,287.9c-.39-1.15-1.37-3.14-1.74-2.74-1.09,1.19-2.97,1.99-3.11,3.83-.09,1.14.66,2.36,1.94,2.28,1.9-.13,2.51-1.73,2.91-3.36Z"/><path class="cls-20" d="m619.69,353.3s7.77,1.29,13.13,6.53,20.8,14.06,20.8,14.06c0,0,4.24,2.74,2.71,4.67s-1.88,34.67-2.71,37.11,4.18,15.01-.22,14.81-11.98,1.78-15.22,1.2-39.49-41.98-39.49-41.98c0,0,2.86-33.29,3.07-33.54s17.94-2.86,17.94-2.86Z"/><path class="cls-17" d="m623.29,342.23c-1.34.44-1.39,1.6-1.58,2.52-.99,4.9-1.88,9.82-2.81,14.73-.2,1.04-.46,2.24,1.03,2.34,1.31.08,1.6-1.09,1.64-2.15.09-2.99.98-5.84,1.41-8.76.42-2.82,1.97-5.59.32-8.68Z"/><path class="cls-19" d="m764.34,254.92c-2.75-2.02-3.48-4.32-4.62-6.33-1.74-3.08-1.98-3.16-4.58-.65-5.94,5.74-11.83,11.54-17.77,17.29-1.29,1.25-2.6,2.42-1.65,4.46.92,1.98,2.58,2.88,4.67,2.82,1.81-.05,3.65-.19,5.42-.55,12.68-2.6,25.25-5.37,35.94-13.48,4.61-3.5,6.12-7.57,3.18-12.63-4.59-7.9-10.88-14.54-16.77-21.41-7.64-8.91-16.46-16.68-24.98-24.76-4.95-4.7-10.68-8.71-14.64-14.33-3.97-5.64-8.88-9.21-15.7-10.62-6.93-1.43-6.99-1.64-8.48,5.29-.04.2-.08.4-.12.6-.65,3.3-1.29,6.61-1.96,9.91-.25,1.24-.61,2.51-2.21,2.46-1.5-.05-1.66-1.23-1.73-2.42-.11-1.89-1.07-3.49-1.79-5.18-1.22-2.86-2.88-4.8-6.45-4.01-1.35.3-2.97.32-4.24-.14-3.03-1.09-3.91.77-4.97,2.91-.72,1.45-.32,3.46-2.35,4.8,0-5.64-2.09-10.42-3.32-15.4-.24-.99-.4-2.31-2.03-2.21-3.75.23-10.53,5.61-11.81,9.34-2.2,6.38-1.47,12.92-1.13,19.44.02.4.12.82.28,1.19.15.36.36.85.65.95.57.18.91-.31,1.13-.79.25-.56.41-1.17.7-1.7,1.7-3.05,2.32-6.66,4.9-9.33.53,4.51.52,8.88-1.18,13.14-3.87,9.72-9.78,18.37-14.28,27.75-2.94,6.12-7.03,11.75-7.92,18.8-.48,3.85-1.09,7.68-1.26,11.55-.45,10.19-1.42,20.38,1.5,30.43,2.61,8.96,7.27,17.06,10.55,25.74.76,2.02,2.13,4.11,4.32,5.4,2.5,1.48,4.64.43,7.38-.99-2.63,2.89-2.59,2.81.25,4.38,3.06,1.68,6.21,3.02,9.65,3.76,2.04.44,4.02,1.22,5.55-1.74-.62,2.42.42,3.13,2.13,3.2,3.49.14,6.96.21,10.45.52,3.61.33,7.46-.76,11.07-1.74,6.97-1.89,12.59-6.3,17.76-11.05,8-7.34,12.63-16.93,16.46-26.92.39-1.01.17-1.99.09-3.01-.23-3.09-2.16-5.43-3.34-8.11-.26-.6.08-1.59-.86-1.71-.91-.12-1.02.85-1.33,1.44-1.87,3.46-3.66,6.96-6.16,10.04.7-1.78,1.65-3.43,2.49-5.13,1.31-2.65,2.61-5.31,3.76-8.03.32-.76.43-2.07-.74-2.32-1.07-.23-1.01,1.01-1.3,1.71-1.67,3.95-3.2,7.97-5.03,11.84-1.36,2.88-2.94,5.7-5.44,7.86,4.2-6.32,7.3-13.16,9.8-20.28.63-1.81,1.5-3.71.72-5.65-2.77-6.93-4.74-14.12-7.17-21.16-.78-2.26-1.01-4.84-2.92-7.39-.61,3.62-1.57,6.41-2.96,9.05.23-1.51.87-2.93,1.08-4.4.47-3.38,2.42-6.53,1.48-10.13-.78-2.96-1.61-5.92-2.16-8.92-1.24-6.7-4.3-12.97-4.64-19.89-.15-3.07-.78-6.13-.22-9.24.79,3.04,1.32,6.1,1.62,9.18.34,3.53,1.99,5.83,5.07,7.75,8.3,5.17,16.32,10.81,24.57,16.07,5.17,3.29,9.46,7.77,14.94,10.64,2.7,1.41,5.6,2.52,7.97,4.51.45.38,1.12.72.88,1.45-.27.82-.99.34-1.54.43-1.47.25-2.9-.2-4.37-.37.1,1.71,2.06,2.18,2.05,4.02-1.31-.19-3.81-2.47-2.32,2.03Z"/><path class="cls-1" d="m742.59,294.48s-15.2,21.84-23.08,28.87-22.63,8.48-26.75,9.07c-4.12.6-9.76,1.74-14.55.53s-12.72-5.14-12.72-5.14l-8.08-3.32,8.78,65.74s1.84,29.51,2.01,42.55c.17,13.04,3.27,51.16,3.27,51.16,0,0,5.37,5.25,4.58,0-.8-5.25,16.72-114.49,16.72-114.49l14.54,18.69,22.16,105.35,7.52-3.03,7.28-128.65v-15.68s6.39-2.39,6.5-4.88-4.8-37.06-5.22-39.34,1.1-7.02-2.95-7.44Z"/><path class="cls-18" d="m729.92,504.44c0,1.96,0,4.51,0,7.05,0,1.5.61,2.29,2.26,1.99,3.62-.68,7.07-1.82,10.29-3.61,1.88-1.04,2.38-2.43,1-4.24-2.55-3.33-4.63-6.91-5.86-10.95-.46-1.5-1.17-1.26-2.5-.98-4.37.93-6.22,3.23-5.1,7.71.19.76-.04,1.62-.1,3.01Z"/><path class="cls-18" d="m675.74,490.13c-.04-1.01.96-2.69-.45-2.92-1.77-.28-4.17-1.17-5.48.49-3.02,3.82-7.37,6.07-10.55,9.69-4.04,4.59-4.16,4.45,1.27,7.57,1.73.99,3.14.74,4.19-.93,2.26-3.61,5.46-6.32,8.63-9.02,1.62-1.38,2.7-2.7,2.4-4.89Z"/><path class="cls-18" d="m699.88,179.68c-3.74,1.03-2.93,2.98-1.83,5.01.44.8.78,1.66,1.26,2.44.35.58.49,1.5,1.34,1.49.9-.01,1.02-.97,1.18-1.58,1.15-4.52,2.28-9.05,3.27-13.61.41-1.89-1.25-2.31-2.58-2.81-.92-.35-2.04-1.04-2.59.37-.96,2.45-3.05,3.14-5.26,3.6-1.66.35-1.28,1.03-.7,2.11,1.13,2.13,3.4,1.83,5.91,2.98Z"/><path class="cls-18" d="m684.17,174.37c-.18-1.97-2-2.22-3.18-3.02-1.58-1.08-3.25-4.05-4.61-3-2.4,1.85.23,4.4.8,6.65.1.39.24.83.51,1.1,1.13,1.11,2.54,2.37,4.04,1.94,1.46-.41,1.79-2.32,2.44-3.67Z"/><path class="cls-17" d="m662.78,334.92c-1.83.21-1.63,1.45-1.37,2.72,3.05,14.5,4.3,29.24,5.45,43.97,1.01,12.92,1.13,25.93,2.62,38.78,1.42,12.26.75,24.49,1.05,36.73.13,5.1.44,10.19,1.07,15.26.26,2.12.2,4.29.18,6.43,0,.94.26,2.44-1.18,2.37-1.37-.06-.97-1.53-1.08-2.49-1.86-15.27-.78-30.62-1.32-45.91-.32-9.06-1.53-18.08-1.97-27.16-.41-8.26-.82-16.52-1.41-24.77-.53-7.34-1.92-14.58-2.21-21.92-.39-9.74-2.54-19.19-4.05-28.75-.57-3.62-3.05-5.93-4.9-8.69-.71-1.07-1.04-3.06-2.35-2.94-1.52.15-1.61,2.21-1.99,3.49-1.23,4.19-2.73,8.3-3.54,12.63-.38,2.01.17,3.3,1.29,4.71,3.94,4.95,3.38,8.97-.14,14.18-2.03,3.01-2.78,7.17-1.94,11.08.25,1.18,1.52,1.83,2.67,2.35.92.41,1.84.86,2.7,1.39,4.31,2.69,6.57,5.96,6.18,11.69-.9,13.23-1.95,26.49-1.36,39.79.12,2.74.6,5.49.12,8.25-.21,1.21-.52,2.19-1.92,2.37-4.27.54-7.84,3.2-12.12,3.93-3.28.55-5.64.03-7.65-2.7-4.27-5.83-8.27-11.87-13.55-16.91-6.43-6.15-11.48-13.54-17.45-20.11-.94-1.04-1.77-2.07-3.39-2.37-2.1-.4-2.04-2.4-1.85-3.99.51-4.25.89-8.56,1.9-12.7,1.27-5.24.94-10.56,1.48-15.82.4-3.95,1.09-4.61,4.92-5.26,3.72-.63,7.39-1.49,11.1-2.17,1.58-.29,2.32-.95,2.77-2.66.85-3.22,1.86-6.23,3.99-9.21,1.9-2.66,3.15-5.91,5.87-8.12.55-.45,1.1-1.18,1.71-1.24,4.2-.42,4.85-3.72,5.81-6.86,2.14-7.03,4.3-14.05,6.51-21.05.46-1.45.47-2.74-.14-4.15-4.72-10.96-4.64-22.43-3.53-34,.44-4.56.61-9.14,1.16-13.71.95-7.91,5.2-14.31,8.74-21.06,1.33-2.53,2.55-5.18,4.28-7.41,4.72-6.07,4.89-12.93,4.27-20.11-.57-6.5-.79-13.02.29-19.54,1.01-6.11,4.72-9.84,10.14-12.01,3.45-1.38,6.55-2.84,7.57-6.83.52-2.03,2.56-2.02,5.04-2.77-3.18-1.43-5.75-1.17-8.11-1.72-5.96-1.39-11.52-3.42-15.46-8.49-1.87-2.4-2.51-5.06-2.07-8.05.77-5.24,1.45-10.5,2.21-15.75.23-1.61-.07-2.68-1.39-3.96-2.7-2.62-3.76-6.52-6.5-9.21-1.09-1.07-1.84-2.54-3.03-3.43-2.86-2.12-2.47-7.74.24-10.2,2.81-2.55,6.07-4.26,10.05-2.84,2.6.92,4.08.14,4.71-2.58.45-1.98,1.14-3.9,1.83-6.23-2.15.98-2.18,3.05-3.53,4.88-.03-2.99-2.1-5.31-.21-7.94.19-.26-.12-.97-.32-1.42-1.02-2.27-.99-4.64-.21-6.88,1.71-4.91,3.63-9.76,5.46-14.63.07-.19.2-.36.26-.56,1.33-4.2,6.11-4.24,8.64-7.29,2.8-3.39,7.03-1.9,10.86-.96,4.04.99,8.23,1.36,11.31,4.71.89.97,2.11.15,3.14-.28,4.52-1.9,7.18-1.22,10.11,2.69,3.01,4.02,6.31,7.68,10.33,10.76,4.76,3.65,5.8,7.88,3.96,13.59-.91,2.82-2.69,5.28-3.13,8.29-.32,2.21.18,3.36,2.72,2.96,3.4-.53,6.61-.29,8.39,3.33,1.73,3.53.95,7.35-2.1,10.31-2.08,2.02-3.68,4.36-5.12,6.84-1.08,1.86-2.16,3.77-4.19,4.75-2.23,1.08-2.41,2.61-1.57,4.78,1.52,3.93,2.44,8.06,1.89,12.27-1.37,10.43-8.24,16.2-17.39,19.85-1.79.72-3.68,1.21-5.56,1.7-1.19.31-2.07.81-2.3,2.11-.21,1.18.39,1.86,1.27,2.54,4.81,3.72,9.99,6.64,16.11,7.53,6.75.98,12.01,3.95,16.24,9.69,5.64,7.67,13.33,13.48,20.38,19.82,12.55,11.3,24.08,23.52,34.34,36.93,2.1,2.74,4.13,5.55,4.57,9.21.62,5.05-1.55,8.36-5.46,11.4-7,5.44-15.09,8.43-23.22,11.37-3.72,1.34-7.69,1.96-11.53,2.97-1.1.29-2.95.09-2.77,1.74.21,1.92-.57,4.08,1.23,5.77,5.41,5.08,3.74,8.54-.21,11.25-1.16.8-1.02,1.45-.73,2.53,3.73,14.08,5.91,28.36,5.44,42.98-.11,3.54.03,7.06-4.26,8.5-1.05.36-.87,1.55-.82,2.44.5,8.29-.32,16.55-.67,24.8-.52,12.12-1.89,24.19-2.77,36.29-.76,10.38-1.05,20.81-2.07,31.16-1.35,13.63-.6,27.37-2.43,40.97-.19,1.41-.39,2.83-.54,4.25-.18,1.73-.47,3.44,1.61,4.46.94.46,1.15,1.66,1.39,2.64.93,3.75,2.99,6.88,5.28,9.91,2.31,3.04,1.5,6.6-1.87,8.49-3.69,2.08-7.67,3.25-11.87,3.65-3.41.32-3.99-.43-4.18-3.86-.29-5.3,1.38-10.6.04-15.86-3.22-12.55-4.41-25.47-6.96-38.16-1.78-8.88-2.52-18.03-4.75-26.8-3.49-13.75-5.66-27.79-9.54-41.45-1.5-5.3-4.99-9.01-7.84-13.28-.95-1.43-2.3-2.59-3.5-3.84-.54-.56-.97-1.51-1.91-1.32-1.03.21-.87,1.31-.99,2.04-1.55,9.36-3.25,18.71-4.48,28.12-.95,7.31-2.67,14.45-3.87,21.7-3.05,18.3-7.3,36.44-7.49,55.14-.01,1.14-.11,2.1.78,3.08,1.38,1.53.64,3.53.61,5.31-.06,4-.58,7.69-4.44,10.31-3.01,2.04-5.43,4.89-7.42,8.07-1.45,2.31-3.81,2.32-5.96,1.19-2.43-1.28-4.68-2.9-6.99-4.4-1.65-1.07-1.24-2.02.12-3.07,5.87-4.51,11.84-8.91,16.23-15.02.63-.88,1.28-1.38,2.14-.26,1.3,1.67,2.27,1.01,2.27-.65,0-5.49,1.62-10.95.31-16.47-.18-.74-.03-1.64.2-2.39,2.57-8.43,1.88-17.48,4.91-25.82.11-.31-.1-.75-.21-1.43-2.29,1.7-1.93,4.58-3.76,6.21,1.75-3.93,2.54-8.22,4.8-11.95.92-1.51.88-3.32,1.22-5.01,3.71-18.71,6.06-37.67,10.16-56.31.3-1.38.04-2.38-.81-3.36-1.88-2.15-3.75-4.31-5.64-6.46-.4-.45-1.09-.94-.65-1.53.67-.89,1.26.01,1.77.38,2.87,2.07,4.61,5.16,6.88,7.77,4.6,5.3,8.83,10.92,13.36,16.3,3.47,4.13,3.63,9.24,4.42,14.12,1.68,10.5,4.48,20.73,6.88,31.07,2.17,9.34,3.81,18.78,5.05,28.31.71,5.45,2.39,10.79,3.02,16.25.66,5.69,1.74,11.29,2.58,16.94.27,1.8.7,3.29,2.98,2.85,1.88-.36,3.72-.48,3.93-3.28.95-12.53,1.17-25.09,1.92-37.62.94-15.77,1.38-31.59,3.33-47.3.84-6.78.64-13.68,1.48-20.46,1.93-15.55,1.4-31.2,2.3-46.79.04-.63-.28-1.45.78-1.97.68,2.43.29,4.87.54,7.24.09.87-.02,2.01,1.2,2.19,1.29.19,1.31-1.01,1.65-1.81,1.29-3.05.78-6.26.77-9.4-.01-4.24.52-8.54-.66-12.71-.32-.02-.65-.05-.97-.07-.15,3.49-.3,6.98-.46,10.47.03-8.35-.75-16.66-1.03-24.99-.12-3.48-.81-6.88-1.75-10.22-.23-.8-.65-1.56-1.63-1.58-.68,0-1.11.5-1.39,1.06-.35.72-.97,1.58-.37,2.28.76.89,1.27-.67,2.07-.51.32.96-.35,1.43-.99,1.6-3.53.92-3.91,3.61-3.91,6.61,0,1.62-.22,2.45-2.13,3.7-2.59,1.69-5.01,4.95-5.36,8.71-.12,1.3.21,2.67-.87,3.73-.2-.07-.44-.08-.54-.2-.59-.71.35-2.49-1.22-2.34-1.45.14-1.08,1.66-1.18,2.76-.15,1.62-.4,3.23-.71,4.83-.06.29-.57.69-.88.7-.73.02-.64-.58-.57-1.09.07-.51.13-1.01.15-1.52.11-1.95-.61-2.44-2.34-1.4-2.54,1.52-4.56,3.72-7.19,5.19-3.61,2.01-7.3,3.61-11.38,4.27-.92.15-1.9.23-2.46,1.05-.6.88-.57,2-.3,2.96.36,1.26,1.51.77,2.35.69,2.34-.24,4.59-.85,6.73-1.82.54-.24.52-1.62,1.54-.81.26.21.39.71.41,1.09.05.98-.56,1.53-1.43,1.71-2.49.52-4.98,1.04-7.49,1.44-1.3.21-2.15.54-2.72,1.96-1.44,3.64-3.66,4.26-7.82,2.25,3.09-1.4,4.05-3.88,3.97-6.94-.02-.86.07-1.86-1.12-1.71-4.02.49-7.89-.72-11.85-.84-1.21-.04-2.79-.1-2.48,1.76.29,1.79-.86,4.44,2.19,4.95,1.66.28,3.41.13,5.11,1.58-2.54,1.09-4.85.73-7.04.27-1.41-.29-1.5-1.77-1.48-3.04,0-.41.01-.82.02-1.23.05-4.69-1.83-6.51-6.51-6.42-1.02.02-1.39.43-1.62,1.39-1.01,4.23-3.65,5.29-7.47,3.1-.62-.36-1.28-.64-1.6-1.35,1.46-.24,3.12,1.97,4.12.39.95-1.49,1.6-3.98.99-5.45-.85-2.04-3.58-2.38-5.72-2.95-1.15-.31-1.62.56-1.97,1.45-.78,1.98-.3,3.81.89,5.43.39.53,1.16.78,1.76,1.16Zm101.56-80c-2.75-2.02-3.48-4.32-4.62-6.33-1.74-3.08-1.98-3.16-4.58-.65-5.94,5.74-11.83,11.54-17.77,17.29-1.29,1.25-2.6,2.42-1.65,4.46.92,1.98,2.58,2.88,4.67,2.82,1.81-.05,3.65-.19,5.42-.55,12.68-2.6,25.25-5.37,35.94-13.48,4.61-3.5,6.12-7.57,3.18-12.63-4.59-7.9-10.88-14.54-16.77-21.41-7.64-8.91-16.46-16.68-24.98-24.76-4.95-4.7-10.68-8.71-14.64-14.33-3.97-5.64-8.88-9.21-15.7-10.62-6.93-1.43-6.99-1.64-8.48,5.29-.04.2-.08.4-.12.6-.65,3.3-1.29,6.61-1.96,9.91-.25,1.24-.61,2.51-2.21,2.46-1.5-.05-1.66-1.23-1.73-2.42-.11-1.89-1.07-3.49-1.79-5.18-1.22-2.86-2.88-4.8-6.45-4.01-1.35.3-2.97.32-4.24-.14-3.03-1.09-3.91.77-4.97,2.91-.72,1.45-.32,3.46-2.35,4.8,0-5.64-2.09-10.42-3.32-15.4-.24-.99-.4-2.31-2.03-2.21-3.75.23-10.53,5.61-11.81,9.34-2.2,6.38-1.47,12.92-1.13,19.44.02.4.12.82.28,1.19.15.36.36.85.65.95.57.18.91-.31,1.13-.79.25-.56.41-1.17.7-1.7,1.7-3.05,2.32-6.66,4.9-9.33.53,4.51.52,8.88-1.18,13.14-3.87,9.72-9.78,18.37-14.28,27.75-2.94,6.12-7.03,11.75-7.92,18.8-.48,3.85-1.09,7.68-1.26,11.55-.45,10.19-1.42,20.38,1.5,30.43,2.61,8.96,7.27,17.06,10.55,25.74.76,2.02,2.13,4.11,4.32,5.4,2.5,1.48,4.64.43,7.38-.99-2.63,2.89-2.59,2.81.25,4.38,3.06,1.68,6.21,3.02,9.65,3.76,2.04.44,4.02,1.22,5.55-1.74-.62,2.42.42,3.13,2.13,3.2,3.49.14,6.96.21,10.45.52,3.61.33,7.46-.76,11.07-1.74,6.97-1.89,12.59-6.3,17.76-11.05,8-7.34,12.63-16.93,16.46-26.92.39-1.01.17-1.99.09-3.01-.23-3.09-2.16-5.43-3.34-8.11-.26-.6.08-1.59-.86-1.71-.91-.12-1.02.85-1.33,1.44-1.87,3.46-3.66,6.96-6.16,10.04.7-1.78,1.65-3.43,2.49-5.13,1.31-2.65,2.61-5.31,3.76-8.03.32-.76.43-2.07-.74-2.32-1.07-.23-1.01,1.01-1.3,1.71-1.67,3.95-3.2,7.97-5.03,11.84-1.36,2.88-2.94,5.7-5.44,7.86,4.2-6.32,7.3-13.16,9.8-20.28.63-1.81,1.5-3.71.72-5.65-2.77-6.93-4.74-14.12-7.17-21.16-.78-2.26-1.01-4.84-2.92-7.39-.61,3.62-1.57,6.41-2.96,9.05.23-1.51.87-2.93,1.08-4.4.47-3.38,2.42-6.53,1.48-10.13-.78-2.96-1.61-5.92-2.16-8.92-1.24-6.7-4.3-12.97-4.64-19.89-.15-3.07-.78-6.13-.22-9.24.79,3.04,1.32,6.1,1.62,9.18.34,3.53,1.99,5.83,5.07,7.75,8.3,5.17,16.32,10.81,24.57,16.07,5.17,3.29,9.46,7.77,14.94,10.64,2.7,1.41,5.6,2.52,7.97,4.51.45.38,1.12.72.88,1.45-.27.82-.99.34-1.54.43-1.47.25-2.9-.2-4.37-.37.1,1.71,2.06,2.18,2.05,4.02-1.31-.19-3.81-2.47-2.32,2.03Zm-69.78-132.6c-.4-5.08-.34-9.56-1.2-13.98-.67-3.48-2.42-5.32-5.51-5.58-3.32-.28-4.64,2.01-5.64,4.6-1.65,4.26-2.26,8.67-1.99,13.24.05.79.61,2.19-.64,2.27-1.18.08-.78-1.42-1.11-2.2-.5-1.2.27-3.43-2.47-2.75-4.29,1.06-8.49.75-12.5-1.28-2.17-1.1-3.47-.73-3.42,2.08.11,6.46-1.57,12.72-2.21,19.1-.94,9.35-1.59,13.6,9.91,18.53,2.28.98,4.66,1.43,7.06,1.89,4.27.82,8.76.29,12.85,2.28.93.45,2.23.32,3.33.2,6.12-.65,12.05-2.03,17.41-5.22,5.71-3.4,12.36-11.33,10.88-20.7-.82-5.2-2.88-9.99-4.02-15.05-.39-1.75-1.45-1.81-3.02-1.2-4.07,1.6-8.24,2.33-12.49.58q-4.27-1.76-5.23,3.2Zm-55.83,277.29c0-1.38-.17-3.54.03-5.66.43-4.6-1.67-7.78-5.27-10.25-1.26-.86-2.64-1.6-3.75-2.63-7.68-7.2-16.51-12.99-24.33-20.03-.58-.52-1.13-1.45-2.02-1.16-1.14.37-.75,1.55-.8,2.41-.46,8.25-2.09,16.39-2.03,24.7.01,1.99.25,3.46,1.57,4.95,10.54,11.9,22.37,22.59,32.52,34.85.48.58.91,1.56,1.92,1.15.82-.33.57-1.23.6-1.9.46-8.56,2.05-17.05,1.55-26.43Zm62.76-325.05c.18-1.3-.29-3.14-1.2-4.91-1.66-3.22-3.48-3.68-6.62-1.85-2.07,1.21-3.58,2.98-5.31,4.55-1.99,1.81-4.31,3.54-7.12,2.6-5.18-1.74-11.38,1.19-12.71,6.4-.5,1.97-.83,4-1.04,6.03-.16,1.61-.4,2.81-2.16,3.6-1.64.74-1.7,2.65-1.69,4.31,0,.94.11,1.92,1.24,2.2,1.02.26,1.92-.17,2.27-1.11.78-2.09,2.33-1.88,4.01-1.65,3.88.53,7.83.55,10.83,3.92.77.87,2.54,1.67,4.18,1.5,1.67-.17,3.27.13,4.72.95,1.36.77,2.17.58,3.35-.66,3.89-4.1,11.88-5.36,17.07-2.96.79.36,1.58.54,2.28-.09.94-.86.67-1.83.11-2.77-1.33-2.24-2.31-4.52-1.33-7.22.48-1.32-.66-1.95-1.48-2.73-1.17-1.1-2.98-1.53-3.52-3.27-.6-1.95-1.44-2.59-3.09-.85-.84.89-1.42.16-1.91-.57-.96-1.44-1.05-3.06-.88-5.41Zm19.71,143.04c-1.9.65-1.13,2.15-.87,3.22,3.36,13.76,6.45,27.59,11.21,40.97,1.19,3.36,1.87,3.53,4.58,1.1,6.6-5.91,13.14-11.9,19.82-17.73,1.84-1.61,1.34-2.26-.3-3.63-9.71-8.15-20.9-14.21-30.87-22-1.03-.8-2.32-1.26-3.58-1.93Zm-68.04,194.12c.22-3.97-.28-9.38.36-14.79.64-5.46.94-10.96,1.29-16.45.07-1.03.49-2.51-.85-2.98-1.01-.35-1.85.66-2.57,1.38-2.26,2.24-4.69,4.18-7.72,5.37-2.27.89-3.27,2.59-3.22,5.27.13,8.16,1.11,16.31.06,24.48-.62,4.85-.75,9.77-1.34,14.63-.35,2.85.65,3.2,3.24,2.99,3.17-.25,5.68-2.27,8.72-2.62,1.74-.2,2.11-1.07,2.07-2.67-.1-4.39-.03-8.78-.03-14.61Zm-24.27-42.83c-.7-1.94-3.34-1.92-3.94-3.94-.6-2.05-1.68-2.85-3.75-1.34-1.11.81-2.56.87-3.72-.1-1.17-.99-1.08-2.31-.63-3.66.45-1.36.9-2.71,1.23-4.1.35-1.48.15-2.42-1.83-1.89-2.55.68-5.18,1.03-7.73,1.71-1.31.35-3.41-.06-3.76,1.36-.37,1.52,1.47,2.51,2.61,3.44,9.85,8.05,19.76,16.04,29.62,24.08,1.01.83,1.87,1.14,2.94.19,1.39-1.23,3.08-1.9,4.74-2.71,3.64-1.77,6.26-4.8,8.95-8.02-2.28,1.16-3.5-.63-5.36-1.85.78,2.69-1.58,3.64-1.5,5.95-.53-.65-.81-.85-.9-1.12-.81-2.35-1.66-3.89-3.78-.83-.69.99-2.17,1.01-3.42,1-1.71,0-3.49-.38-2.48-2.54,2.16-4.6-.79-8.01-2.3-11.78-.25-.63-.76-1.48-1.56-.96-.83.53-.03,1.24.21,1.87.85,2.2,2.62,4.05,2.24,6.74-1.55-2.66-3.05-5.41-3.8-8.36-.77-3.02-2.57-5-4.86-6.76-.62-.47-1.22-1.41-2.07-.77-.83.63-.15,1.52.12,2.23,1.55,4.07,3.14,8.12,4.71,12.18Zm13.15-19.22c.91-.77,1.41-.39,1.93-.06.81.53,1.52,1.57,2.67.69,1.01-.77,1.11-1.88,1-3.05-.22-2.27-1.03-4.32-2.04-6.36-1.7-3.42-4.92-5.32-7.38-7.97-1.62-1.74-3.12-2.01-5.07-.92-2.34,1.32-4.13,3.28-5.99,5.15-.49.49-1.07,1.6-.51,1.89,2.61,1.35.87,2.98.55,4.58-.32,1.61-.35,3.25.12,4.85.17.57.4,1.24,1.15,1.27.77.03,1-.61,1.14-1.21.29-1.27.52-2.56,2.45-2.89-.46,1.7-1.01,3.11-1.17,4.56-.14,1.33.64,2.49,2.04,2.62,1.43.14,1.06-1.21,1.14-2.03.14-1.42.69-2.43,2.47-3.05-1.51,3.95-2.94,7.6,1.78,10.93-4.02-.11-4.51-3.64-6.69-4.99-2.24-1.38-4.19-3.27-6.69-4.73-.04.58-.19.98-.06,1.12,3.94,4.27,8.53,7.82,12.95,11.54,1.27,1.07,2.29.31,2.43-1.36.19-2.28-.23-4.53-.76-7.59,2.75,2.92,2.41,5.68,1.89,8.32-.69,3.5-1.68,6.94-2.52,10.41-.29,1.21-.65,2.7.84,3.18,1.75.56,1.88-1.13,2.12-2.27.85-3.99,1.92-7.97,2.34-12.01.38-3.7,2.65-7.94-2.13-10.66Zm87.89,154.76c0,1.96,0,4.51,0,7.05,0,1.5.61,2.29,2.26,1.99,3.62-.68,7.07-1.82,10.29-3.61,1.88-1.04,2.38-2.43,1-4.24-2.55-3.33-4.63-6.91-5.86-10.95-.46-1.5-1.17-1.26-2.5-.98-4.37.93-6.22,3.23-5.1,7.71.19.76-.04,1.62-.1,3.01Zm-57.66-387.72c1.21.25,2.4.29,3.61-.11,2.24-.74,3.44-2.3,3.23-4.58-.21-2.41-2.38-1.37-3.65-1.54-4.58-.59-7.24-2.81-8.31-7.51-.36-1.59-.91-2.86-2.76-2.39-2.01.5-5.3-.74-5.33,2.94-.04,4.56,1.25,10.31,7.23,12.15,1.97.61,3.95.95,5.98,1.04Zm-21.72,198.25c-1.24-2.58-2.48-5.25-3.83-7.86-.38-.74-.62-1.95-1.79-1.78-.97.15-.91,1.27-1.12,1.99-1.65,5.66-3.21,11.34-4.85,17-1.19,4.1-.85,5.27,2.36,7.81,1.58,1.26,2.76,1.13,3.45-.89.98-2.88,1.91-5.79,2.93-8.66.88-2.49,1.85-4.95,2.85-7.62Zm44.5-204.1c1.26,2.13,1.01,5.2,3.45,6.28,4.77,2.1,9.55,1.52,14.12-.88,3.99-2.1,4.41-5.48,3.59-9.48-.37-1.8-.44-3.49-2.78-3.66-2.09-.15-3.64.12-4.42,2.61-1.42,4.57-4.09,6.12-9.06,5.97-1.64-.05-3.12-.68-4.9-.84Zm-19.31,379.26c-.04-1.01.96-2.69-.45-2.92-1.77-.28-4.17-1.17-5.48.49-3.02,3.82-7.37,6.07-10.55,9.69-4.04,4.59-4.16,4.45,1.27,7.57,1.73.99,3.14.74,4.19-.93,2.26-3.61,5.46-6.32,8.63-9.02,1.62-1.38,2.7-2.7,2.4-4.89Zm17.76-325.58c.94-2.48-.73-2.47-2.52-2.51-2.02-.04-4.08-.06-5.97-.95-1.75-.82-2.67-.28-2.93,1.64-.09.68-.48,1.33-.77,1.98-1.98,4.48-1.9,4.76,2.35,7.34.95.58,1.92,1.16,2.94,1.58,2.79,1.14,5.47.04,8.11-.68,1.08-.3.57-1.32.32-2.09-.67-2.02-1.5-4-1.53-6.31Zm32.27-55.26c-2.67.93-3.62,4.32-7.07,4.27-1.66-.02-2.51,1.71-2.56,3.33-.05,1.61-.02,3.67,1.5,4.37,1.5.69,2.91-.72,3.72-2.02,2.46-3.98,4.94-7.89,8.36-11.19,1.78-1.72,1.48-5.64-.16-7.69-1.76-2.21-4.08-2.48-6.61-1.63-1.02.34-1.9.99-1.79,2.18.12,1.3,1.2,1.42,2.27,1.53,1.03.11,2.23-.45,3.1.63-6.06,3.83-6.17,3.96-5.93,7.29,1.8.12,3.05-1.98,5.15-1.08Zm-76.33-7.68c-3.16,2.1-3.58,5.85-1.06,8.06,1.17,1.02,2.19,2.11,3.06,3.37,1.73,2.51,3.46,5.02,5.21,7.52.34.48.63,1.17,1.36,1.06.76-.11.84-.86.85-1.43.07-3.49,1.71-7.39-2.67-9.73-.5-.27-2.28-1.41-.42-2.17,2.54-1.04,1.73-2.63,1.07-4.22-.66-1.61-1.96-2.42-3.69-1.82-1.83.63-2.25,2.2-2.12,3.96.09,1.28.84,2.48.49,4.08-3.07-2.34-3.18-5.27-2.09-8.67Zm50.44,78.07c-3.74,1.03-2.93,2.98-1.83,5.01.44.8.78,1.66,1.26,2.44.35.58.49,1.5,1.34,1.49.9-.01,1.02-.97,1.18-1.58,1.15-4.52,2.28-9.05,3.27-13.61.41-1.89-1.25-2.31-2.58-2.81-.92-.35-2.04-1.04-2.59.37-.96,2.45-3.05,3.14-5.26,3.6-1.66.35-1.28,1.03-.7,2.11,1.13,2.13,3.4,1.83,5.91,2.98Zm-18.62-75.21c-2.51.12-5.45,2.04-6.19-2.17-.39-2.21-2.45-2.94-4.76-2.05-2.23.86-2.16,2.55-1.32,4.27.57,1.17,1.37,2.32,2.34,3.17,2.01,1.76,4.49,1.83,6.94,1.23,2.14-.52,2.51-2.36,2.98-4.44Zm19.26,6.3c1.05-.2,2.6-.16,3.36-1.3.83-1.25-1.19-1.33-1.38-2.31-.13-.69-.51-1.36-.5-2.04.03-1.6-.84-1.85-2.14-1.74-.91.08-1.82.05-2.73.1-1.24.07-2.78-.49-3.28,1.33-.45,1.64.09,3.03,1.39,4.06,1.46,1.17,3.17,1.77,5.28,1.9Zm14.28-36.93c1.49,1.88,2.99,3.76,4.47,5.65.36.46.55,1.22,1.32,1.02.66-.18.74-.91.95-1.47.44-1.21-.04-2.17-.76-3.11-1.38-1.79-2.97-3.37-4.77-4.74-1.23-.94-2.21-3.28-3.84-2.33-1.47.86-.65,3.19-.66,4.88,0,1.11.25,2.33,1.71,2.52,2.09.27.54-1.81,1.57-2.41Zm-30.63,100.54c-.18-1.97-2-2.22-3.18-3.02-1.58-1.08-3.25-4.05-4.61-3-2.4,1.85.23,4.4.8,6.65.1.39.24.83.51,1.1,1.13,1.11,2.54,2.37,4.04,1.94,1.46-.41,1.79-2.32,2.44-3.67Zm59.4,107.42c-.01-1.52.25-3.06-.27-4.56-.66-1.88-4.3-4.02-5.71-3.03-2.17,1.52.17,2.96.52,4.45.48,2.09,2.68,2.99,3.38,4.91.32.87-.2,2.56,1.17,2.37,1.32-.19.81-1.85.9-2.91.03-.41,0-.82.01-1.23Zm-120.29,60.43c-1.34.44-1.39,1.6-1.58,2.52-.99,4.9-1.88,9.82-2.81,14.73-.2,1.04-.46,2.24,1.03,2.34,1.31.08,1.6-1.09,1.64-2.15.09-2.99.98-5.84,1.41-8.76.42-2.82,1.97-5.59.32-8.68Zm37.25-262.37c.21,1.12.56,2.63,1.75,2.43,1.9-.32,3.32-1.93,3.06-3.89-.19-1.46-1.4-2.78-2.15-4.16-1.66,1.5-2.07,3.56-2.65,5.62Zm16.4-11.78c3.56-.78,4.78-3.28,6.82-4.65.71-.47,1.82-1.15,1.17-2.13-.73-1.1-1.87-.26-2.73.13-2.61,1.18-3.23,3.93-5.26,6.66Zm71.04,219.82c-.39-1.15-1.37-3.14-1.74-2.74-1.09,1.19-2.97,1.99-3.11,3.83-.09,1.14.66,2.36,1.94,2.28,1.9-.13,2.51-1.73,2.91-3.36Zm-59.08-109.8c-1.28.8-3.67-1.11-3.96,1.05-.17,1.28,2.34.84,3.64.98,1.43.15,3.86.45,3.86-1.09,0-1.84-2.32-.14-3.54-.94Zm27.57-72.08c.23.92,0,2.49,1.21,2.42,1.56-.09,1.72-1.78,1.84-3.08.08-.93-.18-2.05-1.32-2.05-1.74,0-1.55,1.52-1.73,2.71Zm1.36-25.86c-2.08,3.14-1.13,6.15-1.55,8.93,1-2.69,2.93-5.23,1.55-8.93Zm-44.84-11.5c-2.43,1.67-3.08,4.54-4.51,6.91-.24.4-.25,1.09.46,1.2.69.11,1.23-.33,1.31-.99.33-2.59,2.09-4.57,2.74-7.12Zm9.63,2.35c1.88-.69,3.21-1.07,4.44-1.68.62-.3.99-1.11.62-1.83-.44-.87-1.24-.52-1.82-.18-1.24.73-2.7,1.31-3.24,3.69Zm15.99,264.21c-.39,1.83-.81,3.66-1.17,5.5-.1.53-.59,1.29.33,1.51.72.17,1.03-.54,1.23-1.1.68-1.93.81-3.89-.39-5.9Zm21.76-251.31c-.5,2.27-2.26,4.26-1.68,7.09,2.48-2.1,2.14-4.58,1.68-7.09Zm-36.92-17.49c1.77-.46,3.24-1.37,4.33-2.83.23-.31-.2-.89-.62-.79-1.77.4-3,1.55-3.85,3.12-.03.06.05.18.14.5Zm-20.18,136.45c.25.1.5.2.75.31,1.07-1.65,1.94-3.36,1.18-5.61-.64,1.77-1.29,3.53-1.93,5.3Z"/><path class="cls-17" d="m709.06,375.1c-4.28-1.95-6.59-5.93-9.41-9.38,3.8,2.44,6.09,6.45,9.41,9.38Z"/><path class="cls-17" d="m673.98,347.88c3.53,2.49,7.74,3.76,11.41,6.03-4.06-1.48-8.21-2.81-11.41-6.03Z"/><path class="cls-17" d="m709.12,370.02c2.68,2.51,4.53,5.64,5.37,9.35-1.79-3.12-3.58-6.23-5.37-9.35Z"/><path class="cls-17" d="m671.57,347.93c1,1.46,1.99,2.92,2.99,4.38-1.62-.96-3.02-2.11-2.99-4.38Z"/><path class="cls-17" d="m680.93,418.17c-.67,2.1-1.34,4.19-2,6.29-.2-.06-.4-.13-.6-.19.7-2.11,1.4-4.23,2.1-6.34.17.08.34.16.51.24Z"/><path class="cls-17" d="m729.46,301.68c2.27-3.64,4.45-7.33,6.58-11.06-1.5,4.11-3.58,7.86-6.58,11.06Z"/><path class="cls-17" d="m694.63,144.89c-1.02.93-.72,2.13-.72,3.16,0,2.3-1.23,2.55-3.17,2.44-2.42-.14-1.65-1.85-1.42-2.87.81-3.7.39-7.24-.96-10.81-2.35,4.38-.59,9.48-2.81,13.98v-12.23c-.3-.03-.61-.07-.91-.1-1.06,1.98-1.05,4.25-1.23,6.44-.13,1.52-.05,3.06-.07,4.59,0,.54-.15,1.08-.79,1.08-.65,0-.77-.57-.78-1.09-.05-1.53-.05-3.06-.11-4.59-.02-.6-.06-1.38-.77-1.5-.91-.16-1.13.69-1.34,1.36-.15.48-.2,1-.3,1.5-.27,1.24-.1,3.79-.56,3.56-1.63-.82-4.08-.04-5.01-2.28-.2-.47-.56-.76-1.12-.92-7.22-2.1-9.25-10.25-3.85-15.68,1.75-1.76,4.04-2.94,4.48-5.83.17-1.13,1.5-1.88,2.95-1.66.6.9-.43.96-.71,1.36-1.41,1.92-.96,3.79,1.33,4.07,1.69.21,2.71,1.05,3.89,2.02,3.18,2.63,6.97,2.57,10.7-.02.93-.65,1.53-1.46,3.12-.96,1.95.61,3.05-1.31,2.16-3.31-.23-.51-1.02-.83-.54-1.58,6.61,2.85,12.05,12.05,11.2,18.91-.27,2.21-5.81,4.97-7.82,3.84-.88-.49-.45-1.48-.59-2.24-.13-.69-.08-1.7-.92-1.73-1.17-.04-.89,1.13-.98,1.87-.12.91-.11,1.83-.15,2.75-.03.64-.18,1.37-.89,1.4-.81.04-.77-.77-.84-1.36-.14-1.16.43-2.41-.45-3.57Z"/><path class="cls-17" d="m628.53,361.89c1.43,3.06,2.86,6.12,4.29,9.19-2.56-2.51-3.52-5.82-4.29-9.19Z"/></svg>