<?xml version="1.0" encoding="UTF-8"?><svg id="personnage14" xmlns="http://www.w3.org/2000/svg" xmlns:xlink="http://www.w3.org/1999/xlink" viewBox="0 0 1080 1080"><defs><style>.cls-1{fill:url(#Dégradé_sans_nom_4);}.cls-1,.cls-2,.cls-3,.cls-4,.cls-5,.cls-6,.cls-7,.cls-8{stroke-width:0px;}.cls-3{fill:#757473;}.cls-4{fill:#3b2f35;}.cls-5{fill:#585254;}.cls-6{fill:#beaa9a;}.cls-7{fill:url(#Dégradé_sans_nom_30);}.cls-8{fill:url(#Dégradé_sans_nom_27);}</style><linearGradient id="Dégradé_sans_nom_27" x1="582.71" y1="717.38" x2="771.78" y2="718.99" gradientUnits="userSpaceOnUse"><stop offset="0" stop-color="#f01048"/><stop offset=".88" stop-color="#3b2f35"/></linearGradient><linearGradient id="Dégradé_sans_nom_4" x1="732.16" y1="526.81" x2="829.44" y2="526.81" gradientUnits="userSpaceOnUse"><stop offset="0" stop-color="#3b2f35"/><stop offset=".48" stop-color="#aeb9b0"/></linearGradient><linearGradient id="Dégradé_sans_nom_30" x1="853.95" y1="772.99" x2="889.48" y2="772.99" gradientUnits="userSpaceOnUse"><stop offset="0" stop-color="#757473"/><stop offset=".48" stop-color="#aeb9b0"/></linearGradient></defs><path class="cls-8" d="m743.22,615.35c-1.08.25-.59-3.43-2.61-1.04-6.12,7.24-12.47,14.29-18.37,21.7-2.14,2.69-6.64,4.85-3.94,9.7.11.21-.19.7-.38,1.01-3.4,5.76-3.84,12.4-5.63,18.64-3.19,11.13-5.15,22.35-4.38,33.96.12,1.89-.57,3.62-1.33,5.33-6.76,15.25-12.79,30.58-13.75,47.67-.87,15.39,1.04,29.51,9.89,42.65,4.92,7.31,10.37,14.46,13.55,22.87.36.95,1.16,1.55,1.98,2.13,3.57,2.53,7.46,4.27,11.79,4.98,5,.82,9.82,2.31,14.59,3.99,3.28,1.15,6.64,2.01,10.09,2.05,10.97.13,21.94.06,32.91.1,2.26,0,4.38-.59,6.5-1.23,8.93-2.71,17.55-6.56,26.83-7.99,3.98-.62,7.59-1.94,11.05-3.88,8.5-4.76,13.88-11.52,14.54-21.65.81-12.57-1.79-24.8-3.34-37.14-1.11-8.79-3.12-17.44-3.49-26.37-.18-4.18-.33-8.45-1.23-12.72-3.16,6.95-4.77,14.39-8.37,21.07,1.13-4.4,2.66-8.59,2.89-13.28.18-3.66,2.27-7.23,3.53-10.83,2.08-5.94,1.65-11.44-1.86-16.91-2.63-4.11-4.72-8.62-6.08-13.38,2,1.69,2.46,4.24,3.84,6.23.88,1.26,1.2,3.93,2.68,3.53,2.04-.55-.03-2.7.27-4.17.19-.9-.31-1.93-.38-2.9-.07-1-.82-2.44.89-2.69,1.4-.2,2.13.62,2.35,2.18.92,6.59,1.73,13.21,3.04,19.72,1.46,7.29,2.22,15.08,9.93,19.3-.97.61-1.45.11-1.99-.11-.99-.41-1.95-1.66-3-.94-1.3.89-.16,2.27-.03,3.41.41,3.53,3.21,4.03,5.92,4.21,4.37.3,8.47-1.51,12.72-2,8.47-.98,12.68-6.71,16.3-13.41,1.56-2.88-.35-5.14-2-6.38-1.71-1.29-1.94,1.78-3.1,2.61-.25.18-.6.22-1.5.52,1.93-3.86,3.21-7.65,2.21-11.32-2.63-9.68-2.81-19.75-5.13-29.46-2.43-10.18-3.81-20.61-7.57-30.47-.8-2.09-1.88-3.75-3.82-4.76-6.83-3.52-12.54-8.64-18.75-13.04-8.14-5.77-16.25-11.6-23.45-18.56-1.94-1.88-3.13-1.19-4.1,1.01-.96,2.15-2.19,4.18-3.99,5.74-10.91,9.47-22.87,15.98-38.03,14.86-7.68-.57-14.35-3.17-20.48-7.51-2.38-1.68-3.79-4.18-4.58-6.99-.48-1.73-.43-4.6-2.27-4.53-2.03.07-.42,3-1.36,4.46Z"/><path class="cls-1" d="m732.19,501.62c1.34-2.02,2.2-4.36,4.3-5.45,4.45-2.3,8.4-4.77,7.82-10.73-.06-.62.64-1.3.97-1.96,1.72-3.48,4.95-4.92,8.26-6.42,4.8-2.18,8.22-5.77,10.34-10.96-.73.07-.99.04-1.19.12-6.41,2.75-10.6.26-11.01-6.55-.07-1.23,0-2.37-1.34-3.18-2.8-1.7-1.1-3.4.62-4,4.59-1.61,9.14-3.19,12.94-7.53.37,3-.87,4.2-2.01,5.15-2.72,2.27-1.29,3,1.06,3.78,1.03.34,2.7-.03,2.79,1.82.21,4.31.61,8.61-1.55,12.66-2.88,5.41-7.47,8.64-12.93,11.07-4.59,2.04-7.37,7.82-5.96,11.53,1.47,3.88,4.72,5.09,10.64,3.84,2.59-.54,5.1-.69,7.65.19,1.55.54,3.75.89,4.59-.22,2.23-2.95,5.18-1.88,7.7-1.73,9.86.58,14.32,3.87,14.95,14.74.55,9.39-2.83,18.55-1.45,28,.35,2.41.05,4.92.05,7.38-.38,0-.76,0-1.13,0,.26-6.67-.78-13.21-1.63-19.76-.16-1.22-.16-2.43-1.08-3.44-2.28-2.54-3.53-5.56-3.9-8.95-.25-2.35-.48-4.44-3.21-5.67-1.93-.88-3.94-.69-5.79-.99-2.42-.4-4.27-.88-5.74-3.12-.29,2.33-2.08,4.59-3.54,4.1-2.12-.7-3.92-2.89-4.35-5.62-2,1.11-.57,3.35-2.01,4.34-1.53,0-.61-2.1-1.96-2.24-1.15,2.78-1.17,2.93-3.87,2.5-1.37-.22-2.16-.2-2.33,1.32-.12,1.1-.89.77-1.61.9-3.12.59-6.62,1.78-7.24,4.89-.58,2.89-2.33,6.17-1.45,8.76,2.61,7.68,4.08,15.96,8.8,22.66,2.09,2.96,2.98,5.97,4.03,9.18,6.54,20.08,9.14,40.15.01,60.19-1.29,2.82-1.23,4.8,1.31,6.67,10.54,7.79,22.44,8.84,34.48,5.62,6.03-1.61,11.66-5.25,16.9-8.99,3.47-2.48,6.56-4.31,5.16-10.31-1.84-7.93-1.68-16.4-1.82-24.65-.4-23.58-1.08-47.19,2.22-70.65.47-3.35.58-5.97-2.83-7.68-.53-.26-1.19-1-.18-2.3,3.61,4.6,6.7,2.03,9.83-.79,1.46-1.31,3.14-2.38,4.69-3.61,3.04-2.41,5.42-5.4,7.14-8.87,2.17-4.37.96-10.79-2.34-12.75-5.15-3.07-9.3-2.11-13.2,2.87-2.12,2.72-4.51,5.22-6.63,7.94-2.52,3.24-5.31,6.29-4.83,11.02.27,2.74-.2,5.61-1.53,8.79-1.22-3.2.25-5.73-.36-8.33-2.24-9.6-1.05-18.61,5.09-26.64,1.98-2.59,2.72-5.47,2.11-8.71-1.76-9.39-7.77-16.2-13.89-22.93-.6-.66-1.63-.82-2.43-.45-2.17,1.01-2.83-.23-3.31-1.98-.54-1.96-1.85-3.49-3.13-4.98-1.45-1.71-3.25-3.67-5.56-3.06-4.38,1.16-9.36,1.49-11.75,6.5-.5,1.05-1.53,2.26-2.57,2.58-4.81,1.46-8.73,4.29-12.83,7.05-2.24,1.51-3.68,2.56-4.14,5.32-2.24,13.4-4.96,26.65-11.41,38.86-2.21,4.18-3.7,8.78-3.46,13.82Z"/><path class="cls-4" d="m749.9,1010.38c.44-.1,1.62-.14,2.57-.63,5.73-2.9,12.03-3.4,18.2-4.45,2.01-.34,4.01-.65,3.9-3.43-.16-4.08-2.25-7.57-4.63-7.86-9.58-1.17-18.06,2.31-26.45,6.21-.88.41-1.74.95-1.79,2.14-.17,3.75,3.85,8.05,8.19,8.01Z"/><path class="cls-4" d="m774.83,994.37c2.07,1.06,1.7,2.88,1.85,4.53.77,8.45,2.53,10.11,10.81,10.25,1.97.03,3.94.16,5.9-.01,3.04-.27,6.16.24,9.12-.92,2.38-.94,3.08-2.16,1.27-4.39-1.65-2.05-3.46-3.62-5.99-4.62-2.9-1.14-6.31-1.45-8.28-4.43-.45-.68-1.24-.57-2.01-.39-4.14.94-8.27.38-12.66-.02Z"/><path class="cls-5" d="m817.77,522.24c.57-2.58-1.35-3.53-1.95-5.1-.29-.77-.48-1.9-1.56-1.79-1.38.13-1.12,1.43-1.17,2.34-.24,4.23,1.74,8.13,1.89,12.33.04,1.07,1.53,1.53,2.6,1.78.8.19,1.8-.41,1.16-1.13-2.56-2.86-2.03-5.85-.98-8.43Z"/><path class="cls-5" d="m812.6,467.53c-2.04,2.56-3.43,5.05-1.43,8.25,3.23-2.52,3.52-4.14,1.43-8.25Z"/><path class="cls-5" d="m811.12,523.83c-1.87,2.41.07,4.57-.03,6.68,0,.19.52.55.81.56.51.01,1.03-.38.93-.89-.42-2.03.12-4.33-1.7-6.35Z"/><path class="cls-5" d="m761.94,432.52c-1.32.74-2.77,1.55-3.11,3.21-.19.92.86.98,1.58.99,1.7.01,2.29-1.1,2.46-2.56.08-.7.27-1.52-.93-1.63Z"/><path class="cls-3" d="m720.24,824.82c3.64-.73,21.82,5.82,26.19,7.27,4.36,1.45,18.91,3.64,25.46,2.91s25.46-3.64,28.37-4.36,18.18-5.09,21.82-6.55,13.09-3.64,14.55-6.55,9.46-11.64,9.46-11.64c0,0,0,19.64-2.18,26.19-2.18,6.55-6.55,25.46-9.46,29.09s-10.18,21.82-12.37,28.37c-2.18,6.55-8.73,23.28-10.18,26.19s-4.36,11.64-7.27,16.73-5.09,5.09-5.09,10.91.73,12.37-1.45,15.27-6.55,4.36-7.27,6.55.73,4.36,2.18,6.55-2.91,5.09-3.64,7.27.73,13.09.73,13.09c0,0-2.91,2.91-7.27,2.18-4.36-.73-10.1-1.86-10.1-1.86l-12.93-1.29s1.29-8.08.65-10.02-3.23-5.17-1.94-6.14,2.59-4.85,0-5.5-3.88-.65-1.94-4.85-7.11-43.32-9.37-52.05c-2.26-8.73-15.84-56.25-16.16-57.87s-5.17-12.61-5.17-12.61l-5.58-17.3Z"/><path class="cls-7" d="m880.99,724.45s-7.76,7.27-10.18,7.76-16,3.39-17.46,3.88-3.39,1.45-3.39,1.45c0,0,3.88,18.43,3.88,23.28s-1.94,18.91-3.88,21.82-3.88,20.37-3.88,23.28-.97,16.97-.48,15.52,5.33-10.18,7.27-13.58,14.06-19.4,16-23.76,5.33-11.15,7.27-16c1.94-4.85,4.85-17.94,4.85-24.25v-19.4Z"/><path class="cls-6" d="m757.9,453.62c-1.05-.57-4.12,1.05-4.12,1.05,0,0-1.54,2.99-1.62,3.72s.32,4.36.81,4.93,2.75,3.96,4.12,3.48,4.04-.57,5.25-1.37,2.1-2.1,2.51-3.39-.24-5.09-.48-5.98-1.7-2.51-3.39-2.75-3.07.32-3.07.32Z"/><path class="cls-6" d="m773.82,455.56c-.16.4-2.91,1.7-3.72,3.15s-1.78,3.56-1.78,5.09-.08,2.59,1.7,3.48,6.22,2.26,7.68,1.86,2.99-1.29,3.96-3.31,1.29-5.33.89-6.14-.65-2.99-2.26-3.48-6.47-.65-6.47-.65Z"/><path class="cls-2" d="m845.55,809.93c-2.64,4.45-7.9,7.02-8.3,13.09-1.79-2.27-5.54-1.56-7.85,1.08-.65.74-1.05,1.71-1.76,2.36-1.21,1.1-2.54,4.18-3.81-.12-.45-1.53-1.88-.43-2.88-.27-8.11,1.28-15.29,5.32-23.04,7.67-2,.61-4.01,1.59-6.03,1.64-15.71.38-31.48,2.13-47.05-1.7-.24-.06-.48-.12-.73-.14-1.18-.12-2.6-1.72-3.34-.68-1.07,1.49,1.15,2.02,1.81,3.06.38.61,1.27,1.19.73,1.89-.72.95-1.54.15-2.22-.34-1.21-.88-2.66-1.95-2.8-3.33-.35-3.48-2.92-4.16-5.43-5.08-.67-.25-1.43-.78-2.06-.15-.86.87.11,1.52.47,2.24.38.74.7,1.52,1.22,2.65-2.6-.12-3.41-1.73-4.12-3.4-.29-.67-.25-1.54-.66-2.1-1.24-1.68-3.4-2.92-5.02-2.27-1.68.67-.53,2.88.14,4.25,1.92,3.91,2,8.68,5.53,11.82-.17,7.9,3.96,14.57,6.8,21.43,6.39,15.4,8.73,31.85,13.54,47.62,4.23,13.86,7.14,27.94,9.08,42.23.56,4.16,2.85,8.55-.18,12.81-.7.98.39,1.57,1.22,1.8,3.87,1.07,3.79,3.55,1.95,6.2-1.58,2.27-1.54,3.95.1,6.23,1.63,2.27,1.76,5.1.28,7.69-1.45,2.54-.11,3.44,2.13,3.61,2.7.2,5.42.23,8.13.21,2.16-.01,2.53-1.6,2.4-3.3-.05-.68-1.05-1.52-.86-1.95,3.14-7.05-1.19-15.24,3.41-22.08,1.45-2.15-.6-2.78-1.98-3.42-2.83-1.31-3.46-2.78-.49-4.63,1.33-.82,1.58-2.05,1.71-3.46,1.85-19.44,2.64-38.9,2.28-58.43-.22-11.97-.04-23.95-.04-36.57,1.45,1.42,1.19,2.76,1.22,3.93.48,20.25,1.04,40.5,1.35,60.76.13,8.39-.97,16.74-1.88,25.08-.37,3.42.46,6.94-.87,10.27,5.04,4.4.41,8.66-.22,12.96-.39,2.67-1.33,5.28.61,7.8.6.77.26,1.88-.27,2.81-1.23,2.16-1.66,4.53-2.19,6.94-.47,2.15.4,2.78,1.85,3.25,3.23,1.04,6.52,1.06,9.82.27.67-.16,1.53-1.22,1.93-.47,2.59,4.82,8.06,4.21,11.97,6.5,2.69,1.58,4.44,3.94,5.76,6.5,1.03,2,.3,4.26-2.04,5.24-1.68.71-3.51,1.32-5.31,1.45-5.78.4-11.58.68-17.35-.06-2.14-.27-4.52-.15-5.37-2.99-.38-1.27-1.51-.82-2.51-.6-7.29,1.64-14.74,2.28-21.84,5.16-6.59,2.67-14.21-4.06-13.69-11.33.13-1.75,1.34-2.44,2.73-3.15,4-2.05,8.32-2.94,12.67-3.81,1.67-.33,4.02-.08,4.26-2.68.36-3.89,4.23-7.82.04-11.67-1.86-1.71-2.22-3.61-.84-5.59,1.64-2.36.74-3.49-1.53-4.41-2.45-.99-3.1-2.96-1.75-5.09,1.93-3.04,1.24-6.15.85-9.31-2.06-16.93-7.28-33.18-10.64-49.8-4.71-23.27-13.3-45.13-21.01-67.36-.53-1.52-.75-3.14-1.26-4.6-1.29-3.66-1.15-8.16-5.45-10.3-.67-.33-1.19-1.3-1.46-2.09-3.11-9.28-8.91-17.12-14.32-24.98-8.52-12.39-10.99-25.83-10.21-40.38.61-11.37,1.42-22.68,5.76-33.39,2.5-6.17,4.9-12.38,7.61-18.45,1.1-2.47,1.71-4.91,1.5-7.51-1.14-14.36,3.46-27.82,6.64-41.47.7-3.01.92-6.06,1.53-9.07.73-3.65,2.12-6.7,4.56-9.49,8.74-10.01,17.38-20.1,26.01-30.2.94-1.1,1.58-2.49,2.28-3.78.95-1.76,1.93-3.84,3.77-4.43,5.55-1.79,5.72-6.24,5.49-10.68-.47-9.1-.32-18.33-3.03-27.13-1.71-5.56-3.03-11.23-6.69-16.2-3.49-4.74-5.19-10.59-6.74-16.35-.39-1.45-.5-3.16-2.35-4.3,0,3.69-.31,7.08.09,10.39.38,3.22.48,6.38.23,9.58-.05.68.22,1.64-.86,1.7-.77.04-.92-.7-1-1.32-1.12-9.1-4.5-17.65-6.44-26.54-.65-2.97-.65-6.17,1.14-8.99.54-.85.97-1.77.78-2.79-1.41-7.49,1.49-14.03,4.55-20.5,4.84-10.22,7.5-21.09,9.67-32.12.12-.59.21-1.23-.4-1.67-.23,0-.51-.08-.68.01-1.3.71-2.03,3.32-3.64,2.28-2.03-1.31.63-2.66.84-4.08.12-.8.9-1.68.01-2.39-.66-.53-1.38.02-2.07.27-1.69.61-3.38,1.38-5.59.51,1.68-1.86,3.92-2.28,5.67-3.47.6-.41,1.34-.78,1.22-1.67-.1-.72-.72-.97-1.36-1.03-3.23-.32-1.74-1.62-.45-2.58,4.05-3.06,8.46-5.52,13.06-7.65,3.6-1.66,7.19-3.47,10.03-6.19,4.3-4.11,9.35-4.13,14.1-2.28,5.36,2.09,10.98,3.51,15.66,7.7,5.9,5.28,10.27,11.24,13.02,18.51.85,2.25,1.88,3.89,4.09,5.31,3.82,2.45,5.28,6.7,5.65,11.11.42,5.05.27,5.03,5.06,4.34,3.92-.56,7.64.38,9.95,3.55,2.88,3.95,2.84,8.7.96,13.08-2.3,5.35-6.46,9.32-11.21,12.53-2.19,1.48-2.82,3.26-3.22,5.77-.83,5.24-.5,10.02,2.94,14.3.76.94.58,2.02.28,3.17-1.39,5.38-.71,6.62,4.59,9,.52.24.99.59,2.13,1.28-3.58.65-6.45.07-9.2-.37-5.03-.81-8.04,1.29-7.99,6.27.14,13.46.25,26.93.62,40.39.18,6.4.93,12.77,1.41,19.16.07.99.12,1.9,1.02,2.63,9.14,7.41,18.18,14.93,27.81,21.72,5.02,3.54,9.81,7.41,14.71,11.12.39.3.76.7,1.21.84,10.7,3.41,12.07,13,14.14,21.89,2.21,9.48,4.16,19.04,5.69,28.65,1.16,7.3,1.84,14.65,4.33,21.67.25.69.19,1.56.59,2.13,3.72,5.26,2.39,10.98,2.21,16.85-.42,13.89-2.62,27.48-5.35,41.02-.98,4.86-3.48,9.25-6.03,13.47-6.11,10.12-12.81,19.87-18.47,30.26-.3.55-.72,1.25-1.38.89-1.14-.62-.33-1.43,0-2.19,3.05-6.92,7.85-12.8,11.49-19.36,3.11-5.6,7.07-10.68,9.73-16.56,4.87-10.76,5.31-22.47,7.22-33.85.63-3.75.48-7.63.66-11.45.04-.86.12-1.85-.93-2.16-.65-.19-1.12.38-1.47.91-4.96,7.55-13.3,7.45-20.74,8.65-7.64,1.24-7.4.83-5.62,8.56,2.05,8.86,4.33,17.46,1.76,27.18-3.32,12.57-4.8,25.64-6.14,38.74-1.67,16.32-3.3,32.91-10.95,48.33-7.1,14.31-12.6,29.45-18.2,44.48-4.08,10.95-8.04,22.02-14.29,32.01-3.92,6.26-3.73,13.41-4.84,20.27-.63,3.92-1.42,7.55-5.03,9.78-1.63,1-1.55,2.12-.49,3.32,2.93,3.31,2.22,6.19-.77,9-2.01,1.88-2.75,4.28-2.64,7.04.04.95.51,2.67-1.09,2.64-1.32-.03-.67-1.59-.76-2.47-.39-3.71.13-7.12,3.22-9.71,1.82-1.53,1.22-3.11.07-4.88-2.63-4.05-2.52-4.37,1.43-7.27,2.05-1.5,2.82-3.74,3.26-6.04.61-3.14,1.39-6.35,1.31-9.52-.14-6.04,2.6-10.87,5.32-15.89,7.72-14.23,13.78-29.22,19.14-44.45,3.45-9.8,7.87-19.19,12.12-28.58,5.76-12.7,8.75-25.85,10.01-39.53.27-2.95,1.93-5.55,1.41-8.77Zm-102.33-194.59c-1.08.25-.59-3.43-2.61-1.04-6.12,7.24-12.47,14.29-18.37,21.7-2.14,2.69-6.64,4.85-3.94,9.7.11.21-.19.7-.38,1.01-3.4,5.76-3.84,12.4-5.63,18.64-3.19,11.13-5.15,22.35-4.38,33.96.12,1.89-.57,3.62-1.33,5.33-6.76,15.25-12.79,30.58-13.75,47.67-.87,15.39,1.04,29.51,9.89,42.65,4.92,7.31,10.37,14.46,13.55,22.87.36.95,1.16,1.55,1.98,2.13,3.57,2.53,7.46,4.27,11.79,4.98,5,.82,9.82,2.31,14.59,3.99,3.28,1.15,6.64,2.01,10.09,2.05,10.97.13,21.94.06,32.91.1,2.26,0,4.38-.59,6.5-1.23,8.93-2.71,17.55-6.56,26.83-7.99,3.98-.62,7.59-1.94,11.05-3.88,8.5-4.76,13.88-11.52,14.54-21.65.81-12.57-1.79-24.8-3.34-37.14-1.11-8.79-3.12-17.44-3.49-26.37-.18-4.18-.33-8.45-1.23-12.72-3.16,6.95-4.77,14.39-8.37,21.07,1.13-4.4,2.66-8.59,2.89-13.28.18-3.66,2.27-7.23,3.53-10.83,2.08-5.94,1.65-11.44-1.86-16.91-2.63-4.11-4.72-8.62-6.08-13.38,2,1.69,2.46,4.24,3.84,6.23.88,1.26,1.2,3.93,2.68,3.53,2.04-.55-.03-2.7.27-4.17.19-.9-.31-1.93-.38-2.9-.07-1-.82-2.44.89-2.69,1.4-.2,2.13.62,2.35,2.18.92,6.59,1.73,13.21,3.04,19.72,1.46,7.29,2.22,15.08,9.93,19.3-.97.61-1.45.11-1.99-.11-.99-.41-1.95-1.66-3-.94-1.3.89-.16,2.27-.03,3.41.41,3.53,3.21,4.03,5.92,4.21,4.37.3,8.47-1.51,12.72-2,8.47-.98,12.68-6.71,16.3-13.41,1.56-2.88-.35-5.14-2-6.38-1.71-1.29-1.94,1.78-3.1,2.61-.25.18-.6.22-1.5.52,1.93-3.86,3.21-7.65,2.21-11.32-2.63-9.68-2.81-19.75-5.13-29.46-2.43-10.18-3.81-20.61-7.57-30.47-.8-2.09-1.88-3.75-3.82-4.76-6.83-3.52-12.54-8.64-18.75-13.04-8.14-5.77-16.25-11.6-23.45-18.56-1.94-1.88-3.13-1.19-4.1,1.01-.96,2.15-2.19,4.18-3.99,5.74-10.91,9.47-22.87,15.98-38.03,14.86-7.68-.57-14.35-3.17-20.48-7.51-2.38-1.68-3.79-4.18-4.58-6.99-.48-1.73-.43-4.6-2.27-4.53-2.03.07-.42,3-1.36,4.46Zm-11.03-113.72c1.34-2.02,2.2-4.36,4.3-5.45,4.45-2.3,8.4-4.77,7.82-10.73-.06-.62.64-1.3.97-1.96,1.72-3.48,4.95-4.92,8.26-6.42,4.8-2.18,8.22-5.77,10.34-10.96-.73.07-.99.04-1.19.12-6.41,2.75-10.6.26-11.01-6.55-.07-1.23,0-2.37-1.34-3.18-2.8-1.7-1.1-3.4.62-4,4.59-1.61,9.14-3.19,12.94-7.53.37,3-.87,4.2-2.01,5.15-2.72,2.27-1.29,3,1.06,3.78,1.03.34,2.7-.03,2.79,1.82.21,4.31.61,8.61-1.55,12.66-2.88,5.41-7.47,8.64-12.93,11.07-4.59,2.04-7.37,7.82-5.96,11.53,1.47,3.88,4.72,5.09,10.64,3.84,2.59-.54,5.1-.69,7.65.19,1.55.54,3.75.89,4.59-.22,2.23-2.95,5.18-1.88,7.7-1.73,9.86.58,14.32,3.87,14.95,14.74.55,9.39-2.83,18.55-1.45,28,.35,2.41.05,4.92.05,7.38-.38,0-.76,0-1.13,0,.26-6.67-.78-13.21-1.63-19.76-.16-1.22-.16-2.43-1.08-3.44-2.28-2.54-3.53-5.56-3.9-8.95-.25-2.35-.48-4.44-3.21-5.67-1.93-.88-3.94-.69-5.79-.99-2.42-.4-4.27-.88-5.74-3.12-.29,2.33-2.08,4.59-3.54,4.1-2.12-.7-3.92-2.89-4.35-5.62-2,1.11-.57,3.35-2.01,4.34-1.53,0-.61-2.1-1.96-2.24-1.15,2.78-1.17,2.93-3.87,2.5-1.37-.22-2.16-.2-2.33,1.32-.12,1.1-.89.77-1.61.9-3.12.59-6.62,1.78-7.24,4.89-.58,2.89-2.33,6.17-1.45,8.76,2.61,7.68,4.08,15.96,8.8,22.66,2.09,2.96,2.98,5.97,4.03,9.18,6.54,20.08,9.14,40.15.01,60.19-1.29,2.82-1.23,4.8,1.31,6.67,10.54,7.79,22.44,8.84,34.48,5.62,6.03-1.61,11.66-5.25,16.9-8.99,3.47-2.48,6.56-4.31,5.16-10.31-1.84-7.93-1.68-16.4-1.82-24.65-.4-23.58-1.08-47.19,2.22-70.65.47-3.35.58-5.97-2.83-7.68-.53-.26-1.19-1-.18-2.3,3.61,4.6,6.7,2.03,9.83-.79,1.46-1.31,3.14-2.38,4.69-3.61,3.04-2.41,5.42-5.4,7.14-8.87,2.17-4.37.96-10.79-2.34-12.75-5.15-3.07-9.3-2.11-13.2,2.87-2.12,2.72-4.51,5.22-6.63,7.94-2.52,3.24-5.31,6.29-4.83,11.02.27,2.74-.2,5.61-1.53,8.79-1.22-3.2.25-5.73-.36-8.33-2.24-9.6-1.05-18.61,5.09-26.64,1.98-2.59,2.72-5.47,2.11-8.71-1.76-9.39-7.77-16.2-13.89-22.93-.6-.66-1.63-.82-2.43-.45-2.17,1.01-2.83-.23-3.31-1.98-.54-1.96-1.85-3.49-3.13-4.98-1.45-1.71-3.25-3.67-5.56-3.06-4.38,1.16-9.36,1.49-11.75,6.5-.5,1.05-1.53,2.26-2.57,2.58-4.81,1.46-8.73,4.29-12.83,7.05-2.24,1.51-3.68,2.56-4.14,5.32-2.24,13.4-4.96,26.65-11.41,38.86-2.21,4.18-3.7,8.78-3.46,13.82Zm17.71,508.76c.44-.1,1.62-.14,2.57-.63,5.73-2.9,12.03-3.4,18.2-4.45,2.01-.34,4.01-.65,3.9-3.43-.16-4.08-2.25-7.57-4.63-7.86-9.58-1.17-18.06,2.31-26.45,6.21-.88.41-1.74.95-1.79,2.14-.17,3.75,3.85,8.05,8.19,8.01Zm91.94-284.49c-1,1.57-.62,2.95-.52,4.25.64,8.23,1.62,16.39,3.23,24.51,1.57,7.95,2.25,16.08,3.32,24.13.13.95-.12,2.2,1,2.57.9.3,1.18-.71,1.27-1.41.88-7.17,3.87-13.97,3.27-21.44-.36-4.51-1.98-8.61-2.99-12.9-.93-3.93-.27-8.67-5.08-11.01-.86-.42-.97-2.42-1.4-3.7-.54-1.6-.58-3.41-2.11-5Zm-67.01,268.48c2.07,1.06,1.7,2.88,1.85,4.53.77,8.45,2.53,10.11,10.81,10.25,1.97.03,3.94.16,5.9-.01,3.04-.27,6.16.24,9.12-.92,2.38-.94,3.08-2.16,1.27-4.39-1.65-2.05-3.46-3.62-5.99-4.62-2.9-1.14-6.31-1.45-8.28-4.43-.45-.68-1.24-.57-2.01-.39-4.14.94-8.27.38-12.66-.02Zm-17.11-540.43c-2.36.12-3.85,1.8-4.65,3.88-.85,2.22-.99,4.72.94,6.52,1.81,1.69,4.14,2.11,6.49,1.15,1.58-.65,2.81-1.04,3.26-2.77.47-1.82.53-3.65,0-4.91-.47-1.11-.53-1.58-2-2.67-1.15-.85-2.49-1.04-4.04-1.21Zm60.05,68.31c.57-2.58-1.35-3.53-1.95-5.1-.29-.77-.48-1.9-1.56-1.79-1.38.13-1.12,1.43-1.17,2.34-.24,4.23,1.74,8.13,1.89,12.33.04,1.07,1.53,1.53,2.6,1.78.8.19,1.8-.41,1.16-1.13-2.56-2.86-2.03-5.85-.98-8.43Zm-5.17-54.71c-2.04,2.56-3.43,5.05-1.43,8.25,3.23-2.52,3.52-4.14,1.43-8.25Zm-1.48,56.3c-1.87,2.41.07,4.57-.03,6.68,0,.19.52.55.81.56.51.01,1.03-.38.93-.89-.42-2.03.12-4.33-1.7-6.35Zm-49.18-91.31c-1.32.74-2.77,1.55-3.11,3.21-.19.92.86.98,1.58.99,1.7.01,2.29-1.1,2.46-2.56.08-.7.27-1.52-.93-1.63Z"/><path class="cls-2" d="m773.47,840.6c.11,1.08.15,2.18.34,3.24.64,3.59.64,7.76,6.16,7.16.62-.07,1.32.23,1.18,1.02-.06.33-.64.7-1.05.82-3.54,1.09-6.36-.58-7.11-4.24-.54-2.66-.55-5.35.48-8Z"/><path class="cls-2" d="m810.71,835.5c1.92-1.86,3.86-3.72,5.53-6.4-.01,3.51-.11,3.62-5.53,6.4Z"/><path class="cls-2" d="m836.99,745.71c-3.8,10.56-8.47,20.68-14.66,30.03,5.03-9.95,10.07-19.9,14.66-30.03Z"/><path class="cls-2" d="m722.76,698.61c9.29-4.69,24.91-3.65,31.39,1.92-12.94-4.94-14.82-5.04-31.39-1.92Z"/><path class="cls-2" d="m826.95,791.21c3.94-7.64,8.36-14.99,12.24-22.66-2.87,8.2-7.15,15.65-12.24,22.66Z"/><path class="cls-2" d="m823.06,802.35c4.68-5.83,9-11.98,13.56-17.95-3.57,6.68-8.02,12.71-13.56,17.95Z"/><path class="cls-2" d="m871.87,720.03c-3.39,3.83-7.54,6.31-12.67,7.07,4.25-2.31,8.32-4.93,12.67-7.07Z"/><path class="cls-2" d="m822.39,785.52c3.48-6.29,6.96-12.57,10.44-18.86-2.94,6.55-5.64,13.23-10.44,18.86Z"/><path class="cls-2" d="m834.43,738.88c-.96,5.5-2.91,10.75-5.78,15.68,1.93-5.23,3.86-10.45,5.78-15.68Z"/><path class="cls-2" d="m750.3,624.35c1.58,1.68,3.17,3.36,5.3,5.61-2.74-1.51-4.18-3.32-5.3-5.61Z"/><path class="cls-2" d="m780.47,455.72c-1.31-3.1-4.24-4.84-5.54-7.78,1.12-.86,1.84-.15,2.3.48,2.73,3.7,6.55,5.8,10.71,7.37,2.16.81,3.01,2.25,2,4.28-.9,1.81-2.5,1.72-4.06.68-2.07-1.38-2.32,0-2.26,1.57.14,3.31-1.23,5.98-4.15,7.18-3.26,1.34-6.54.34-9.4-1.68-2.45-1.73-2.2-4.32-1.67-6.72.64-2.91,2.18-5.25,5.45-5.79,2.19-.36,4.36-.31,6.63.41Zm1.77,6.77c-.01-3.31-2.65-5.77-6.28-5.85-3.43-.08-6.68,3.08-6.61,6.45.06,3.28,3.08,5.53,7.35,5.49,3.12-.03,5.56-2.71,5.54-6.09Z"/><path class="cls-2" d="m821.56,479.58c-7.99,2.2-12.01,6.06-12.53,13.89,3.85-3.81,6.39-8.53,11.75-9.47-3.86,2.45-6.91,5.72-9.7,9.27-.57.72-1.09,1.74-2.35,1.23-1.04-.43-1.41-1.15-1.31-2.32.47-5.81,6.53-12.4,12.27-13.21.65-.09,1.41-.3,1.88.6Z"/><path class="cls-2" d="m766.33,606.17c-.09-12.88-.91-25.7-2.31-38.23,2.12,4.73,4.04,32.24,2.31,38.23Z"/><path class="cls-2" d="m753.59,538.49c5.68,2.67,10.62.37,15.67-2.11-2.6,5.64-11.85,6.94-15.67,2.11Z"/><path class="cls-2" d="m765.44,511.03c-1.14,2.88-3.3,3.38-5.63,3.11-2.63-.31-5.02-1.23-6.97-4.79,4.67,1.7,8.34,4.19,12.6,1.68Z"/><circle class="cls-2" cx="760.25" cy="461.46" r="2.42"/><circle class="cls-2" cx="775.95" cy="463.12" r="2.3"/></svg>