<?xml version="1.0" encoding="UTF-8"?><svg id="Personnage1" xmlns="http://www.w3.org/2000/svg" xmlns:xlink="http://www.w3.org/1999/xlink" viewBox="0 0 1080 1080"><defs><style>.cls-1{fill:url(#Dégradé_sans_nom_27-2);}.cls-1,.cls-2,.cls-3,.cls-4,.cls-5,.cls-6,.cls-7,.cls-8,.cls-9,.cls-10,.cls-11,.cls-12,.cls-13,.cls-14,.cls-15,.cls-16{stroke-width:0px;}.cls-2{fill:url(#Dégradé_sans_nom_27-3);}.cls-3{fill:url(#Dégradé_sans_nom_28-6);}.cls-4{fill:url(#Dégradé_sans_nom_28-9);}.cls-5{fill:url(#Dégradé_sans_nom_28-7);}.cls-6{fill:url(#Dégradé_sans_nom_28-8);}.cls-7{fill:url(#Dégradé_sans_nom_28-5);}.cls-8{fill:url(#Dégradé_sans_nom_28-4);}.cls-9{fill:url(#Dégradé_sans_nom_28-3);}.cls-10{fill:url(#Dégradé_sans_nom_28-2);}.cls-12{fill:#3b2f35;}.cls-13{fill:#585254;}.cls-14{fill:#beaa9a;}.cls-15{fill:url(#Dégradé_sans_nom_28);}.cls-16{fill:url(#Dégradé_sans_nom_27);}</style><linearGradient id="Dégradé_sans_nom_27" x1="855.56" y1="184.49" x2="890.98" y2="184.49" gradientUnits="userSpaceOnUse"><stop offset="0" stop-color="#f01048"/><stop offset=".88" stop-color="#3b2f35"/></linearGradient><linearGradient id="Dégradé_sans_nom_28" x1="809.75" y1="218.58" x2="871.63" y2="218.58" gradientUnits="userSpaceOnUse"><stop offset="0" stop-color="#757473"/><stop offset=".82" stop-color="#aeb9b0"/></linearGradient><linearGradient id="Dégradé_sans_nom_27-2" x1="818.36" y1="130" x2="870.67" y2="130" xlink:href="#Dégradé_sans_nom_27"/><linearGradient id="Dégradé_sans_nom_27-3" x1="817.66" y1="147.63" x2="874.72" y2="147.63" xlink:href="#Dégradé_sans_nom_27"/><linearGradient id="Dégradé_sans_nom_28-2" x1="811.71" y1="168.76" x2="825.11" y2="168.76" xlink:href="#Dégradé_sans_nom_28"/><linearGradient id="Dégradé_sans_nom_28-3" x1="807.43" y1="193.07" x2="816.96" y2="193.07" xlink:href="#Dégradé_sans_nom_28"/><linearGradient id="Dégradé_sans_nom_28-4" x1="827.84" y1="128.47" x2="838.65" y2="128.47" xlink:href="#Dégradé_sans_nom_28"/><linearGradient id="Dégradé_sans_nom_28-5" x1="803.77" y1="208.71" x2="809.06" y2="208.71" xlink:href="#Dégradé_sans_nom_28"/><linearGradient id="Dégradé_sans_nom_28-6" x1="854.67" y1="403.9" x2="862.79" y2="403.9" xlink:href="#Dégradé_sans_nom_28"/><linearGradient id="Dégradé_sans_nom_28-7" x1="834.86" y1="412.24" x2="844.49" y2="412.24" xlink:href="#Dégradé_sans_nom_28"/><linearGradient id="Dégradé_sans_nom_28-8" x1="810.77" y1="182.04" x2="815.61" y2="182.04" xlink:href="#Dégradé_sans_nom_28"/><linearGradient id="Dégradé_sans_nom_28-9" x1="853.69" y1="389.52" x2="899.71" y2="389.52" xlink:href="#Dégradé_sans_nom_28"/></defs><path class="cls-16" d="m879.3,201.22l.1.08c-.6,1.93-3.01,1.85-4.15,3.73,3.35-.2,6.43-.38,9.2-1.66,1.54-.71,3.95-.91,4.47-2.13.91-2.12,2.12-4.29,2.05-6.86-.17-5.46-2.27-10.18-4.69-14.96-2.92-5.77-6.34-11-11.6-14.86-.94-.69-1.79-1.13-1.76.66.07,4.12-2.08,6.71-5.5,8.68-.89.51-2.47.89-2.34,2.54-1.57-.56-3.18-.45-4.75-.08-.62.15-1.23.84-.97,1.54.29.76.98.24,1.45.04,1.38-.58,3.07-.32,4.21-1.55.84.18,2.07-.92,2.49.49.34,1.15-.9,1.6-1.62,2.13-.5.37-1.25.44-1.91.59-1.32.3-2.65.52-3.96.84-.78.19-1.57.61-1.41,1.55.19,1.16,1.2.63,1.89.67,1.93.12,3.41-1.74,5.55-1.39-.47,1.09-1.39,1.08-2.17,1.29-1.67.45-3.36.84-5.02,1.33-1.51.45-2.22,1.94-1.18,2.8,1.35,1.12,3.34.14,5.06.03,1.51-.09.67-1.47,1.02-2.2,6.61,2.1,9.12.57,11.39-6.84.91,4.11-1.14,7.58-5.01,8.45-.68.15-1.23.33-1.71.92-2.66,3.29-6.21,4.43-10.82,4.36,3.18-2.16,7.12-1.5,9.33-4.52-2.6.71-5.12,1.94-7.8,1.31-2.75-.64-2.59,1.32-2.77,2.84-.25,2.11,1.45,1.58,2.6,1.62,1.86.07,3.62-.3,5.3-1.19,2.49-1.3,5.04-2.47,7.87-3.84-.31.57-.39.88-.59,1.05-4.03,3.51-8.91,4.69-14.05,5.16-.65.06-1.46-.26-1.84.49-.47.92.62.96.94,1.45,1.58,2.36,4.38,3.08,6.37,4.86,2.31,2.07,4.79,3.25,8.02,2.91,2.94-.31,5.55-1.52,8.3-2.35Z"/><path class="cls-15" d="m822.94,150.61c-1.67,1.55-4.04,2.63-3.88,5.8,1.62-.93,2.61-2.42,4.58-2.35,1.47.05,3.95,1.04,4.31-.6.39-1.79-2.24-2.18-3.64-3.07,1.26.16,2.52.33,3.8.49.13-3.3-2.7-2.61-4.14-3.37-2.58-1.36-3.57,1.77-5.65,3.08.17-1.59-.22-2.87,1.36-3.54,1.79-.76,3.29-2.42,5.6-1.08,4.16,2.41,5.98,7.75,4.35,12.84-1.74,5.43-5.17,9.8-8.6,14.15-.66.84-1.28,1.5-.87,2.49.44,1.07,1.51,1.11,2.48.98,3.88-.54,7.73-.18,11.54.51,1.73.32,2.98.02,3.69-2.16.04,3.63,1.26,4.96,4.16,5,4.58.07,8.47,4.7,7.73,9.26-.15.91-.24,1.97-1.55,2.07q-.87-7-1.96-7.88c-.44,1.31.77,3.27-1.62,3.91-.19-1.1-.37-2.14-.55-3.18-.25-1.46-1.33-2.23-2.47-2.94-.32,1.31-2.76.59-2.45,2.62.08.52-.46,1.3-1.36.94-.12-1.28-.17-2.54-.39-3.77-.09-.53-.48-1.16-1.2-1.02-.92.17-.41.86-.39,1.37.05,1.31.65,2.78-.95,3.79-.81-1.48.45-3.27-1.16-4.63-.96,1.68-.06,4.41-3.23,4.84.72-1.89,1.18-3.57.82-5.45-.34-1.79-1.98-1.27-2.82-2.09-.41-.39-1.05-.23-1.13.33-.24,1.73-2.45,2.21-2.45,4.08,0,.44-.15,1.33-1.02.96-.62-.26-.46-.97-.59-1.52-.32-1.34,1.92-1.72,1.22-3.22-2.02.46-2.31,2.35-2.98,3.59-1.67-.22,0-2.2-1.58-2.26-.65-.02-1.26.14-1.68.87-.75,1.28-1.34,2.32.58,3.12.87.36,1.68.99,2.37,1.66,3.24,3.15,6.65,4.34,11.17,2.37,2.44-1.06,5.42-.99,7.93,1.44-4.19-.2-8.01-.35-11.84.67-2.38.63-4.83-.1-6.32-2.28-.9-1.32-2.21-1.76-3.42-1.82-1.23-.07-1.15,1.56-1.64,2.45-.74,1.34-.42,2.68,0,3.95,2.12,6.23,3.91,12.52,4.3,19.15.16,2.79,2.91,5.03,5.54,4.76,3.8-.39,9.63-5.13,10.64-8.9.41-1.52,1.23-2.62,2.33-3.63-1.17,3.92-1.51,8.82-5.41,10.67-6.81,3.22-6.57,8.74-6.33,14.63.08,1.84.04,3.69-.02,5.53-.03.86-.12,1.75-.39,2.57-2.61,8.04-7.22,14.8-13.39,20.47-3.35,3.08-5.01,6.59-4.55,11.21.52,5.31.63,10.66,1.16,15.97.35,3.61.3,7.51,3.23,10.23,1.57,1.46,2.92,3.08,4.03,4.81,1.27,1.97,2.35,1.63,3.69.4,1.55-1.42,2.93-3.05,4.61-4.3,4.13-3.07,7.5-6.95,10.94-10.65,4.13-4.44,7.38-9.71,11.08-14.55,3.96-5.17,6.47-11.08,9.75-16.58,1.26-2.11.45-3.61-2.03-4.59.02,1.49,2.16,2.89.24,4.37-2.57-1.65-2.43-4.7-3.65-7.03-1.97-3.74-4.28-7.52-5.13-11.56-.9-4.28-.68-8.93.17-13.32.79-4.07,2.54-8,3-12.09.68-6.11,2.66-11.9,3.75-17.89.73-3.99,2.8-7.61,2.97-11.8.17-4.04.99-4.64,5.09-5.21,3.94-.55,7.89-4.07,8.74-7.91.56-2.54-.1-4.84-2.05-6.58-2.12-1.88-4.43-2.45-7.14-.94-2.19,1.22-2.71,3.91-4.91,5.28.06-.47.09-.76.14-1.04.12-.67,1.39-1.06.48-1.95-.18-.18-.57-.33-.77-.26-.92.34-.64,1.3-.91,1.97-.5,1.26.15,2.85-1.18,4.35-.78-2.84.05-4.98.85-7.28,1.38-4.01,3.37-7.98-.18-12.2-3.12-3.72-7.09-6.4-10.45-9.79-1-1.01-2.06-.87-3.18-.28-2.64,1.39-5.27,2.79-7.93,4.16-.54.28-1.26,1.04-1.74.2-.46-.79.44-1.16,1.01-1.47,2.02-1.07,3.25-2.92,5.18-4.41-6.82-1.95-9.29,4.87-14.49,6.4.46-2.59,3.82-2.27,3.67-4.85-1.14-.19-2.07.18-3.06.6-2.16.9-3.29,2.94-5.03,4.31-3.78,2.98-4.49,8.33-1.61,12.63.66-2.64,1.69-4.88,4.79-5.05Z"/><path class="cls-12" d="m796,288.94c.48.78.16,1.53-.23,2.14-3.53,5.57-3.48,11.99-4.16,18.18-.76,6.96.19,13.96.08,20.95-.02,1.36.42,2.68.54,3.98.5,5.44,3.21,10.45,3.44,15.83.4,9.25,2.63,18.22,3.81,27.34,1.38,10.68,3.76,21.29,6.54,31.76.47,1.78,1.35,2.07,2.85,2.06,6.49-.02,12.98-.09,19.46.05,3.92.08,7.76-.09,11.3-1.88,3.6-1.82,8-1.49,11.2-4.42,1.88-1.73,3.55-3.7,6-4.8,1.97-.89,2.39-2.74,2.19-4.86-.17-1.83-.18-3.69-.02-5.52.88-9.81,1.95-19.59,3.24-29.37,1.57-11.95,2.93-24.05,2.66-36.22-.08-3.68-.32-7.47.72-11.26,1.04.76.92,1.69.9,2.53-.09,3.71.6,7.34,1.2,10.96,1.26,7.63,2.98,15.19,4.08,22.84,1.07,7.48,2.34,8.16,8.67,3.63.71-.51,1.35-1.12,2.1-1.56,2.98-1.74,6.12-3.68,9.43-3.99,3.47-.33,6.38-2.15,9.73-2.52.78-.09,1.27-.57,1.17-1.38-.67-5.44-.09-11.04-2.24-16.3-1.75-4.29-3.46-8.61-4.81-13.03-1.4-4.59-3.17-9.03-4.78-13.53-1.65-4.61-3.73-9.06-5.48-13.64-1.26-3.3-1.99-6.89-3.89-9.89-2.03-3.19-4.43-6.15-6.76-9.14-1.17-1.51-2.25-3.53-3.83-4.18-4.23-1.73-6.68-5.27-9.61-8.34-.95-.99-1.15-.9-2.12.04-2.34,2.27-2.68,5.48-4.18,8.14-2.41,4.27-5.23,8.22-7.97,12.24-4.04,5.93-8.74,11.33-13.88,16.32-2.93,2.85-6,5.56-8.8,8.52-2.8,2.96-6.19,2.83-8.51-.71-1.01-1.54-2.09-2.92-3.88-4.19-.42,2.16,1.01,3.94.29,5.84-.76-2.95-1.58-5.84-3.62-8.27,1.24-.47,1.46,1.33,2.63.33-2.53-3.31-2.34-7.22-2.27-11.09.1-6.1-.75-12.11-1.73-18.18-1.64,4.41-.97,9.33-2.59,14.09-1.17-1.39-.63-2.42-.45-3.42.37-2.1.86-4.18,1.18-6.29.14-.9.41-2.03-.7-2.6-1.13-.58-2.07-.12-2.78.83-1.02,1.36-2.36,2.29-3.93,2.87-1.63.59-2.12,1.74-1.96,3.39.11,1.15.17,2.35,0,3.49-.45,2.93-.16,6.54-1.79,8.59-1.97,2.5-1.29,4.52-1.57,7.16,1.95-.88,1.73-2.86,3.16-3.51Z"/><path class="cls-1" d="m836.99,130.67c-.01.28-.02.56-.03.84,3.87-1.11,6.62,1.07,9.68,2.63,4.1,2.09,7.12,5.47,10.39,8.45,3.98,3.63,7.85,7.41,12,10.86.65.54,1.57,1.06,1.54-.34-.08-3.5.74-7.13-1.77-10.31-1.91-2.42-3.45-5.13-5.16-7.71.18-.12.36-.24.54-.36,2.05,2.73,4.09,5.45,6.44,8.57,0-2.3.03-4.09-.01-5.89-.02-.71.41-1.8-.65-1.95-1.65-.24-.05,1.58-1,2-1.27-1.93-2.47-3.77-3.89-5.94,2.02.42,1.74,2.82,3.63,2.75.64-2.49-2.7-3.82-1.85-6.35,1.85.15,1.54,2.36,2.99,3,1.04-2.38-1.17-3.24-1.99-4.67-2.7-4.71-6.66-8.49-11.23-10.85-6.51-3.36-12.92-7.14-20.09-9.12-2.81-.77-4.34-.07-5.57,2.65-.55,1.23-1.17,2.33-2.07,3.41-4.33,5.19-7.41,11.16-10.17,17.3-.32.71-.54,1.45-.04,2.3,1.3-.3,2.14-1.2,2.83-2.26,2.52-3.86,6.59-5.77,10.36-7.9,1.66-.94,4.02-.53,5.61,1.17.79.85,1.75,1.45,2.65,2.16,2.6,2.06,4.63,4.67,6.33,7.57-1.9-1.42-3.5-3.11-5.12-4.8-.49-.51-.89-1.66-1.75-1.01-.94.71.34.96.6,1.45.33.61-.26.84-.65,1.06-.83.46-1.68.85-2.53,1.27Z"/><path class="cls-2" d="m874.17,163.14c.18-.18.36-.36.55-.53-2.26-2.72-4.1-5.83-6.94-8.02-7.22-5.59-13-12.8-20.32-18.26-3.22-2.4-6.6-4.87-11.02-4.03-2.93.55-5.84,1.22-8.71,2.02-2.88.8-5.71,1.78-8.52,2.79-1.29.46-1.87,1.74-1.33,2.83.63,1.27,1.76.17,2.41-.27,1.59-1.06,3.19-2.06,5.08-2.4,2.4-.44,4.57-1.54,6.88-2.18,4.23-1.17,8.71-1.8,12.46,1.17,2.46,1.95,4.99,3.88,7.32,5.96,6.33,5.66,12.32,11.69,18.46,17.57,1.2,1.15,2.46,2.25,3.7,3.37Z"/><path class="cls-10" d="m811.71,174.65c.68.96-.33,2.74.87,2.57,1.87-.26,4.99.02,5.38-1.67.61-2.64,2.35-4.01,3.64-5.95,1.05-1.58,2.74-2.74,3.27-4.68.21-.78.64-1.75-.64-1.6-2.07.24-3.17-1.08-4.45-2.23-.86-.77-1.81-1.33-2.64.02-2.6,4.23-3.96,8.93-5.42,13.54Z"/><path class="cls-9" d="m807.43,201.31c1.27-.27,1.79-1.26,2.6-.34,1.54,1.74,1.82.14,1.88-.9.29-4.75,3.16-8.66,4.17-13.16.17-.77,1.75-1.61.18-2.34-1.47-.68-1.76.84-2.15,1.7-2.19,4.85-3.94,9.88-6.68,15.04Z"/><path class="cls-14" d="m827.86,156.07c-1.02,1.11-.92,3.37-3.02,3-1.54-.27-2.47-1.56-3.84-3.1-.04,1.9-2.49,2.83-.75,4.26,1.39,1.14,2.49,3.58,5.06,2.26,2.28-1.17,3.25-3.49,2.54-6.42Z"/><path class="cls-8" d="m827.84,132.32c2.08-.12,4-.47,5.36-2.24,1.01-1.3,2.31-2.24,3.9-2.8.66-.23,2.11-.23,1.31-1.57-.51-.85-1.25-1.59-2.59-.65-2.95,2.08-5.7,4.35-7.98,7.26Z"/><path class="cls-7" d="m803.79,209.94c-.13,1.42.45,2.42,1.75,2.65,1.27.22,3.04-.26,3.36-1.13.78-2.18-1.59-.13-1.96-1.13-.35-.96-.82-1.88-1.03-2.86-.07-.3.65-.33.97-.12.59.4,1.13,1.33,1.84.27.6-.9-.12-1.68-.6-2.32-.73-.97-1.52-.4-2.22.17-1.46,1.16-2.05,2.73-2.1,4.48Z"/><path class="cls-3" d="m862.12,399.73c-2.5,2.8-4.98,5.56-7.45,8.33,1.67-1.34,4.82.87,5.65-2.46.49-1.95,3.91-2.96,1.8-5.87Z"/><path class="cls-5" d="m844.49,410.58c-3.43.43-6.54,1.8-9.63,3.22,3.73.51,6.76-1.1,9.63-3.22Z"/><path class="cls-6" d="m810.77,184.4c1.6-1.46,5.25-.86,4.8-4.73-2.45.92-3.81,2.64-4.8,4.73Z"/><path class="cls-13" d="m901.71,344.78c-2.49,1.04-14.72,4.47-16.68,5.44s-10.28,6.85-10.28,6.85c0,0-.98,14.19-2.94,21.05-1.96,6.85-3.43,21.54-6.85,23.49s-10.77,10.77-11.26,9.3-8.15-.67-9.21-.33-15.75,3.76-19.66,2.78-17.13-.49-17.13-.49c0,0,2.45,18.6,3.43,26.43.98,7.83,16.64,65.1,16.64,67.54s5.87,33.77,6.36,36.22c.49,2.45,4.4,9.79,2.94,9.3s-11.26,1.96-13.21,2.94.98,9.3.98,9.3c0,0-.49,4.89,3.92,3.92s1.96.49,8.81-.49c6.85-.98,17.13,0,19.58-.49s9.79-2.45,4.4-5.87c-5.38-3.43-14.68-4.4-15.17-5.87s1.47-23.98,3.43-29.37c1.96-5.38,5.38-50.41,5.38-52.37s5.87-40.13,5.87-40.13l2.94-1.47s2.94-9.3,4.89-12.73c1.96-3.43-2.94-7.34-.49-10.77,2.45-3.43,5.87-13.21,7.34-16.15s6.36-15.66,8.32-18.11,11.26-16.64,12.73-18.6,4.94-11.32,4.94-11.32Z"/><path class="cls-4" d="m899.71,346.31s-15.41,4.75-17.17,4.99-7.31,4.8-7.79,5.78-1.79,9.46-2.45,13.38-1.31,19.58-3.92,22.84-14.36,16.97-14.68,17.62,4.24,4.57,4.24,9.79,4.24,13.7,6.04,11.75,6.36-13.7,6.36-18.27,6.53-24.15,6.53-24.15c0,0,9.79-18.27,11.09-20.88s7.83-8.48,8.81-13.05c.98-4.57,2.94-9.79,2.94-9.79Z"/><path class="cls-14" d="m840.49,154.28c-.33-.49-2.61.49-2.77.98s-.98,4.24-.33,5.22,3.26,2.45,3.75,2.28,3.43-.49,4.08-.98,3.1-2.77,2.94-3.26-2.45-3.26-3.43-3.43-4.24-.82-4.24-.82Z"/><path class="cls-13" d="m838.21,152.16l4.4-1.47,4.24.33,1.96,2.77s.82,3.1.16,3.26-.98,0-2.28-.65-1.79-1.63-3.26-1.79-3.1-.98-4.24-.82-.98-1.63-.98-1.63Z"/><path class="cls-13" d="m827.95,153.46c-.02-1.63-.67-2.77-1.98-2.93s-1.33-.16-3.03.08-2.68,1.39-3.49,1.88-1.31,4.08-1.31,4.08c0,0-.14-.38,2.87-.6l3.01-.22,3.94-2.29Z"/><path class="cls-11" d="m788.16,316.7c1.03-3.66,1.34-7.43,1.4-11.2.11-7.51,1.65-14.81,2.74-22.19.58-3.93,2.05-7.73,1.79-11.81-.15-2.23,2.15-2.82,3.35-3.94,3.7-3.45,7.77-6.5,11.75-9.64.53-.42,1.41-.37,2.05-.69,4.94-2.5,8.02-6.86,11.06-11.26,5.56-8.04,4.48-17.35,5.18-26.34.1-1.28-.52-1.38-1.5-1.53-3.92-.6-6.6-3.71-6.59-7.59.02-5.76-.56-11.41-2.81-16.79-.18-.44-.25-.95-1.23-1.13-.93,3.15-3.05,6.57-2.55,9.54.79,4.66-1.36,7.58-3.61,10.77-1.2,1.69-3.02,2.02-4.92,1.43-1.96-.6-1.65-2.39-1.78-3.89-.4-4.49,2.27-7.94,4.29-11.45,1.94-3.37,2.82-7.18,4.97-10.42.41-.61.66-2.3-.15-2.19-1.36.19-2.88-1.22-4.04.26-.51.66-.8,1.5-1.39,2.65-.63-1.35-.65-2.34-.15-3.24,1.25-2.25,2.05-4.8,4.22-6.44.85-.65.66-1.53.62-2.39-.23-5.16,1.06-9.79,4.02-14.14,1.65-2.42,3.55-5.09,1.28-8.59-1.61-2.47-.37-5.61-.42-8.65-.49.2-.87.28-1.16.48-.73.52-1.76,1.23-2.29.4-.66-1.02.74-1.45,1.38-1.77,1.65-.81,2.09-2.1,2.05-3.78-.24-8.04,1.97-15.47,6.4-22.04,1.65-2.45,2.71-5.44,5.51-7.27,1.24-.81,1.56-3.12,2.63-4.61,1.42-1.98,3.15-2.76,5.49-2.18,5.43,1.34,10.46,3.44,15.44,6.16,3.66,2,7.45,3.79,10.75,6.34,3.9,3.01,7.39,6.68,9.17,11.25,1.22,3.14,1.17,6.86,1.27,10.34.13,4.65.12,9.34-.34,13.97-.27,2.76.71,4.72,2.35,6.51,5.44,5.97,10.07,12.5,13.94,19.57,2.97,5.42,4.68,11.12,4.01,17.47-.57,5.42-3.18,7.09-7.44,8.45-3.18,1.02-6.67,1.06-10.03,1.48-5.86.75-10.3-2.37-14.73-5.5-.71-.5-1.46-.95-2.17-1.44-1-.7-1.99-2.3-3.02-1.86-1.16.5-1.1,2.32-1.16,3.64-.35,7.32-3.07,14.15-4.28,21.29-1.12,6.62-.52,12.89,2.89,18.77.15.25.24.53.35.8,1.15,2.73,2.46,4.96,5.44,6.54,5.82,3.09,9.5,8.81,14.26,13.24,4.75,4.42,8.18,9.93,11.76,15.21,2.36,3.48,3.47,7.94,4.77,12.01.97,3.03,2.22,6.04,3.55,8.74,3.66,7.48,5.53,15.58,8.64,23.24,2.02,4.97,4.15,10.65,3.35,16.58-.2,1.48.27,3.07.48,4.6.42,3.04-.6,3.51-3.45,3.75-3.31.28-6.54,1.62-9.79,2.56-4.42,1.28-8.35,3.48-11.8,6.53-.67.59-1.37,1.02-2.33.99-.8-.02-1.41.31-.9,1.23.46.82.08,1.54-.53,1.66-2.53.53-2.33,2.54-2.43,4.3-.52,9.21-1.63,18.4-3.93,27.27-2.05,7.92-5.52,15.42-12.59,20.49-1.47,1.05-3.02,2.24-2.19,4.72-1.01-1.93-3.9-1.31-4.31-4.27-.21-1.52-2.7-.7-3.9.09-2.84,1.87-5.91,3.18-9.06,4.4-1.93.74-3.87,1.1-5.92,1.17-7.75.25-15.44-.06-23.01-2.01-1.48-.38-2.44,1.54-1.83,3.72,1.32,4.75,2.83,9.45,4.03,14.23,2.29,9.18,4.92,18.29,6.97,27.52,1.9,8.57,3.63,17.16,6.2,25.56,2.86,9.33,4.44,18.97,6.59,28.47,1.04,4.58,2.33,9.05,3.98,13.57.33-3.23.95-6.47.95-9.7.01-13.4.73-26.82-.15-40.21-1.07-16.4-.81-32.81-.87-49.22,0-1.38,0-2.77.4-4.15.93,2.31,1.14,4.66,1.21,7.03.44,14.85.64,29.71,1.41,44.55.65,12.61,1.19,25.22.97,37.84-.11,6.39-.74,12.78-1.02,19.17-.25,5.93.47,11.77,1.55,17.61.74,3.98.99,8.06,1.22,12.12.11,1.99.72,2.8,2.75,2.69,5.66-.33,11.39.58,16.98-.61-1.6-5.89-6.75-5.35-10.99-6.37-2.88-.69-4.71-3.69-4.14-6.59,1.72-8.77,1.71-17.8,3.28-26.54,2.9-16.19,2.61-32.64,5.1-48.88,1.77-11.56,3.74-23.12,5.09-34.76.17-1.43.65-2.83,1.09-4.21.97-3.06,1.02-5.94-.52-8.95-1.44-2.82-2.38-5.89-3.53-8.85-.46-1.19-.53-2.5.61-3.15,1.34-.77,2.16.62,2.59,1.5,1.83,3.83,5.05,7.01,5.3,11.63,3.22-5.1,3.44-10.96,5.23-16.38.82,3.63.75,7.24-.7,10.59-1.1,2.55-1.95,5.24-3.52,7.61-1.13,1.71-.7,3.56.42,5.18.53.76.96,1.42.39,2.35-.32.52-.77.55-1.25.46-1.11-.19-.91-1.13-.9-1.85.01-1.04-.44-1.79-1.38-1.94-1.25-.19-1.29,1.01-1.42,1.77-.87,5.15-1.7,10.3-2.46,15.47-1.58,10.82-3.29,21.63-4.6,32.49-.88,7.31-1.09,14.7-1.72,22.04-1.18,13.72-2.62,27.41-4.42,41.06-.11.87-.24,1.73-.3,2.6-.27,4.02.63,5.05,4.66,5.68,3.05.48,6.07,1.12,9.12,1.64.8.14,1.76.21,1.74,1.15-.03,1.32.47,1.67,1.67,2.1,1.89.67,1.78,2.09.15,3.38-2.54,2.01-5.34,2.89-8.58,2.87-5.03-.03-10.07.14-15.1.28-2.51.07-3.9-.85-3.56-3.57.39-3.15-1.57-5.67-2.45-8.46-.43-1.36.83-3.8-1.54-4.06-1.41-.15-2.96.71-4.42,1.22-1.72.61-3.95.88-4.97,2.11-1.34,1.62,1.04,3.13,1.55,4.79.48,1.55-.48,3.9,1.62,4.56,1.5.47,3.28-.02,4.9.16,1.46.16,3.87-1.03,4.09,1.36.24,2.63-2.33,1.86-3.88,2.14-1.23.22-2.49.43-3.74.43-4.21,0-5.47-1.21-5.7-5.49-.09-1.71-.67-3.27-1.57-4.6-1.84-2.73-.42-6.02,2.95-6.68,2.84-.56,5.64-1.31,8.47-1.91,1.17-.25,1.47-.65,1.31-1.97-1.23-10.08-3.03-20.02-5.37-29.92-1.73-7.3-3.37-14.66-4.74-22.08-1.19-6.43-3.79-12.61-4.98-19.04-1.23-6.65-2.69-13.27-4.23-19.82-1.71-7.23-3.53-14.47-5.15-21.71-1.79-7.98-4.44-15.73-5.03-24.07-.48-6.76-3.04-13.35-4.37-20.08-1.49-7.6-2.26-15.35-4.06-22.87-1.25-5.23-3.06-10.33-3.16-15.75-.14-7.83-2.78-15.16-4.19-22.74-.37-1.99-.5-4.02-.75-6.02,0-2.72,0-5.44,0-8.16Zm91.15-115.48l.1.08c-.6,1.93-3.01,1.85-4.15,3.73,3.35-.2,6.43-.38,9.2-1.66,1.54-.71,3.95-.91,4.47-2.13.91-2.12,2.12-4.29,2.05-6.86-.17-5.46-2.27-10.18-4.69-14.96-2.92-5.77-6.34-11-11.6-14.86-.94-.69-1.79-1.13-1.76.66.07,4.12-2.08,6.71-5.5,8.68-.89.51-2.47.89-2.34,2.54-1.57-.56-3.18-.45-4.75-.08-.62.15-1.23.84-.97,1.54.29.76.98.24,1.45.04,1.38-.58,3.07-.32,4.21-1.55.84.18,2.07-.92,2.49.49.34,1.15-.9,1.6-1.62,2.13-.5.37-1.25.44-1.91.59-1.32.3-2.65.52-3.96.84-.78.19-1.57.61-1.41,1.55.19,1.16,1.2.63,1.89.67,1.93.12,3.41-1.74,5.55-1.39-.47,1.09-1.39,1.08-2.17,1.29-1.67.45-3.36.84-5.02,1.33-1.51.45-2.22,1.94-1.18,2.8,1.35,1.12,3.34.14,5.06.03,1.51-.09.67-1.47,1.02-2.2,6.61,2.1,9.12.57,11.39-6.84.91,4.11-1.14,7.58-5.01,8.45-.68.15-1.23.33-1.71.92-2.66,3.29-6.21,4.43-10.82,4.36,3.18-2.16,7.12-1.5,9.33-4.52-2.6.71-5.12,1.94-7.8,1.31-2.75-.64-2.59,1.32-2.77,2.84-.25,2.11,1.45,1.58,2.6,1.62,1.86.07,3.62-.3,5.3-1.19,2.49-1.3,5.04-2.47,7.87-3.84-.31.57-.39.88-.59,1.05-4.03,3.51-8.91,4.69-14.05,5.16-.65.06-1.46-.26-1.84.49-.47.92.62.96.94,1.45,1.58,2.36,4.38,3.08,6.37,4.86,2.31,2.07,4.79,3.25,8.02,2.91,2.94-.31,5.55-1.52,8.3-2.35Zm-56.36-50.6c-1.67,1.55-4.04,2.63-3.88,5.8,1.62-.93,2.61-2.42,4.58-2.35,1.47.05,3.95,1.04,4.31-.6.39-1.79-2.24-2.18-3.64-3.07,1.26.16,2.52.33,3.8.49.13-3.3-2.7-2.61-4.14-3.37-2.58-1.36-3.57,1.77-5.65,3.08.17-1.59-.22-2.87,1.36-3.54,1.79-.76,3.29-2.42,5.6-1.08,4.16,2.41,5.98,7.75,4.35,12.84-1.74,5.43-5.17,9.8-8.6,14.15-.66.84-1.28,1.5-.87,2.49.44,1.07,1.51,1.11,2.48.98,3.88-.54,7.73-.18,11.54.51,1.73.32,2.98.02,3.69-2.16.04,3.63,1.26,4.96,4.16,5,4.58.07,8.47,4.7,7.73,9.26-.15.91-.24,1.97-1.55,2.07q-.87-7-1.96-7.88c-.44,1.31.77,3.27-1.62,3.91-.19-1.1-.37-2.14-.55-3.18-.25-1.46-1.33-2.23-2.47-2.94-.32,1.31-2.76.59-2.45,2.62.08.52-.46,1.3-1.36.94-.12-1.28-.17-2.54-.39-3.77-.09-.53-.48-1.16-1.2-1.02-.92.17-.41.86-.39,1.37.05,1.31.65,2.78-.95,3.79-.81-1.48.45-3.27-1.16-4.63-.96,1.68-.06,4.41-3.23,4.84.72-1.89,1.18-3.57.82-5.45-.34-1.79-1.98-1.27-2.82-2.09-.41-.39-1.05-.23-1.13.33-.24,1.73-2.45,2.21-2.45,4.08,0,.44-.15,1.33-1.02.96-.62-.26-.46-.97-.59-1.52-.32-1.34,1.92-1.72,1.22-3.22-2.02.46-2.31,2.35-2.98,3.59-1.67-.22,0-2.2-1.58-2.26-.65-.02-1.26.14-1.68.87-.75,1.28-1.34,2.32.58,3.12.87.36,1.68.99,2.37,1.66,3.24,3.15,6.65,4.34,11.17,2.37,2.44-1.06,5.42-.99,7.93,1.44-4.19-.2-8.01-.35-11.84.67-2.38.63-4.83-.1-6.32-2.28-.9-1.32-2.21-1.76-3.42-1.82-1.23-.07-1.15,1.56-1.64,2.45-.74,1.34-.42,2.68,0,3.95,2.12,6.23,3.91,12.52,4.3,19.15.16,2.79,2.91,5.03,5.54,4.76,3.8-.39,9.63-5.13,10.64-8.9.41-1.52,1.23-2.62,2.33-3.63-1.17,3.92-1.51,8.82-5.41,10.67-6.81,3.22-6.57,8.74-6.33,14.63.08,1.84.04,3.69-.02,5.53-.03.86-.12,1.75-.39,2.57-2.61,8.04-7.22,14.8-13.39,20.47-3.35,3.08-5.01,6.59-4.55,11.21.52,5.31.63,10.66,1.16,15.97.35,3.61.3,7.51,3.23,10.23,1.57,1.46,2.92,3.08,4.03,4.81,1.27,1.97,2.35,1.63,3.69.4,1.55-1.42,2.93-3.05,4.61-4.3,4.13-3.07,7.5-6.95,10.94-10.65,4.13-4.44,7.38-9.71,11.08-14.55,3.96-5.17,6.47-11.08,9.75-16.58,1.26-2.11.45-3.61-2.03-4.59.02,1.49,2.16,2.89.24,4.37-2.57-1.65-2.43-4.7-3.65-7.03-1.97-3.74-4.28-7.52-5.13-11.56-.9-4.28-.68-8.93.17-13.32.79-4.07,2.54-8,3-12.09.68-6.11,2.66-11.9,3.75-17.89.73-3.99,2.8-7.61,2.97-11.8.17-4.04.99-4.64,5.09-5.21,3.94-.55,7.89-4.07,8.74-7.91.56-2.54-.1-4.84-2.05-6.58-2.12-1.88-4.43-2.45-7.14-.94-2.19,1.22-2.71,3.91-4.91,5.28.06-.47.09-.76.14-1.04.12-.67,1.39-1.06.48-1.95-.18-.18-.57-.33-.77-.26-.92.34-.64,1.3-.91,1.97-.5,1.26.15,2.85-1.18,4.35-.78-2.84.05-4.98.85-7.28,1.38-4.01,3.37-7.98-.18-12.2-3.12-3.72-7.09-6.4-10.45-9.79-1-1.01-2.06-.87-3.18-.28-2.64,1.39-5.27,2.79-7.93,4.16-.54.28-1.26,1.04-1.74.2-.46-.79.44-1.16,1.01-1.47,2.02-1.07,3.25-2.92,5.18-4.41-6.82-1.95-9.29,4.87-14.49,6.4.46-2.59,3.82-2.27,3.67-4.85-1.14-.19-2.07.18-3.06.6-2.16.9-3.29,2.94-5.03,4.31-3.78,2.98-4.49,8.33-1.61,12.63.66-2.64,1.69-4.88,4.79-5.05Zm-26.94,138.33c.48.78.16,1.53-.23,2.14-3.53,5.57-3.48,11.99-4.16,18.18-.76,6.96.19,13.96.08,20.95-.02,1.36.42,2.68.54,3.98.5,5.44,3.21,10.45,3.44,15.83.4,9.25,2.63,18.22,3.81,27.34,1.38,10.68,3.76,21.29,6.54,31.76.47,1.78,1.35,2.07,2.85,2.06,6.49-.02,12.98-.09,19.46.05,3.92.08,7.76-.09,11.3-1.88,3.6-1.82,8-1.49,11.2-4.42,1.88-1.73,3.55-3.7,6-4.8,1.97-.89,2.39-2.74,2.19-4.86-.17-1.83-.18-3.69-.02-5.52.88-9.81,1.95-19.59,3.24-29.37,1.57-11.95,2.93-24.05,2.66-36.22-.08-3.68-.32-7.47.72-11.26,1.04.76.92,1.69.9,2.53-.09,3.71.6,7.34,1.2,10.96,1.26,7.63,2.98,15.19,4.08,22.84,1.07,7.48,2.34,8.16,8.67,3.63.71-.51,1.35-1.12,2.1-1.56,2.98-1.74,6.12-3.68,9.43-3.99,3.47-.33,6.38-2.15,9.73-2.52.78-.09,1.27-.57,1.17-1.38-.67-5.44-.09-11.04-2.24-16.3-1.75-4.29-3.46-8.61-4.81-13.03-1.4-4.59-3.17-9.03-4.78-13.53-1.65-4.61-3.73-9.06-5.48-13.64-1.26-3.3-1.99-6.89-3.89-9.89-2.03-3.19-4.43-6.15-6.76-9.14-1.17-1.51-2.25-3.53-3.83-4.18-4.23-1.73-6.68-5.27-9.61-8.34-.95-.99-1.15-.9-2.12.04-2.34,2.27-2.68,5.48-4.18,8.14-2.41,4.27-5.23,8.22-7.97,12.24-4.04,5.93-8.74,11.33-13.88,16.32-2.93,2.85-6,5.56-8.8,8.52-2.8,2.96-6.19,2.83-8.51-.71-1.01-1.54-2.09-2.92-3.88-4.19-.42,2.16,1.01,3.94.29,5.84-.76-2.95-1.58-5.84-3.62-8.27,1.24-.47,1.46,1.33,2.63.33-2.53-3.31-2.34-7.22-2.27-11.09.1-6.1-.75-12.11-1.73-18.18-1.64,4.41-.97,9.33-2.59,14.09-1.17-1.39-.63-2.42-.45-3.42.37-2.1.86-4.18,1.18-6.29.14-.9.41-2.03-.7-2.6-1.13-.58-2.07-.12-2.78.83-1.02,1.36-2.36,2.29-3.93,2.87-1.63.59-2.12,1.74-1.96,3.39.11,1.15.17,2.35,0,3.49-.45,2.93-.16,6.54-1.79,8.59-1.97,2.5-1.29,4.52-1.57,7.16,1.95-.88,1.73-2.86,3.16-3.51Zm40.99-158.27c-.01.28-.02.56-.03.84,3.87-1.11,6.62,1.07,9.68,2.63,4.1,2.09,7.12,5.47,10.39,8.45,3.98,3.63,7.85,7.41,12,10.86.65.54,1.57,1.06,1.54-.34-.08-3.5.74-7.13-1.77-10.31-1.91-2.42-3.45-5.13-5.16-7.71.18-.12.36-.24.54-.36,2.05,2.73,4.09,5.45,6.44,8.57,0-2.3.03-4.09-.01-5.89-.02-.71.41-1.8-.65-1.95-1.65-.24-.05,1.58-1,2-1.27-1.93-2.47-3.77-3.89-5.94,2.02.42,1.74,2.82,3.63,2.75.64-2.49-2.7-3.82-1.85-6.35,1.85.15,1.54,2.36,2.99,3,1.04-2.38-1.17-3.24-1.99-4.67-2.7-4.71-6.66-8.49-11.23-10.85-6.51-3.36-12.92-7.14-20.09-9.12-2.81-.77-4.34-.07-5.57,2.65-.55,1.23-1.17,2.33-2.07,3.41-4.33,5.19-7.41,11.16-10.17,17.3-.32.71-.54,1.45-.04,2.3,1.3-.3,2.14-1.2,2.83-2.26,2.52-3.86,6.59-5.77,10.36-7.9,1.66-.94,4.02-.53,5.61,1.17.79.85,1.75,1.45,2.65,2.16,2.6,2.06,4.63,4.67,6.33,7.57-1.9-1.42-3.5-3.11-5.12-4.8-.49-.51-.89-1.66-1.75-1.01-.94.71.34.96.6,1.45.33.61-.26.84-.65,1.06-.83.46-1.68.85-2.53,1.27Zm29.61,204.51c-.05.93-.1,1.6-.12,2.27-.35,9.96-.5,19.94-1.09,29.89-.46,7.71-1.8,15.35-1.77,23.11,0,1.95.02,3.92-.85,5.71-1.17,2.41,1.1,1.03,1.61,1.56,1.19,1.22,1.16-.13,1.33-.67.8-2.47,1.53-4.95,2.27-7.44,2.65-8.94,3.06-18.3,5.03-27.37.26-1.19.38-2.51-1.57-2.71-.93-.1-1.18-1.07-1.29-2.03-.76-6.63-1.56-13.25-2.36-19.87-.1-.84.11-1.85-1.18-2.44Zm7.57-172.04c.18-.18.36-.36.55-.53-2.26-2.72-4.1-5.83-6.94-8.02-7.22-5.59-13-12.8-20.32-18.26-3.22-2.4-6.6-4.87-11.02-4.03-2.93.55-5.84,1.22-8.71,2.02-2.88.8-5.71,1.78-8.52,2.79-1.29.46-1.87,1.74-1.33,2.83.63,1.27,1.76.17,2.41-.27,1.59-1.06,3.19-2.06,5.08-2.4,2.4-.44,4.57-1.54,6.88-2.18,4.23-1.17,8.71-1.8,12.46,1.17,2.46,1.95,4.99,3.88,7.32,5.96,6.33,5.66,12.32,11.69,18.46,17.57,1.2,1.15,2.46,2.25,3.7,3.37Zm-62.46,11.51c.68.96-.33,2.74.87,2.57,1.87-.26,4.99.02,5.38-1.67.61-2.64,2.35-4.01,3.64-5.95,1.05-1.58,2.74-2.74,3.27-4.68.21-.78.64-1.75-.64-1.6-2.07.24-3.17-1.08-4.45-2.23-.86-.77-1.81-1.33-2.64.02-2.6,4.23-3.96,8.93-5.42,13.54Zm-4.27,26.67c1.27-.27,1.79-1.26,2.6-.34,1.54,1.74,1.82.14,1.88-.9.29-4.75,3.16-8.66,4.17-13.16.17-.77,1.75-1.61.18-2.34-1.47-.68-1.76.84-2.15,1.7-2.19,4.85-3.94,9.88-6.68,15.04Zm20.43-45.24c-1.02,1.11-.92,3.37-3.02,3-1.54-.27-2.47-1.56-3.84-3.1-.04,1.9-2.49,2.83-.75,4.26,1.39,1.14,2.49,3.58,5.06,2.26,2.28-1.17,3.25-3.49,2.54-6.42Zm-.02-23.75c2.08-.12,4-.47,5.36-2.24,1.01-1.3,2.31-2.24,3.9-2.8.66-.23,2.11-.23,1.31-1.57-.51-.85-1.25-1.59-2.59-.65-2.95,2.08-5.7,4.35-7.98,7.26Zm-24.05,77.62c-.13,1.42.45,2.42,1.75,2.65,1.27.22,3.04-.26,3.36-1.13.78-2.18-1.59-.13-1.96-1.13-.35-.96-.82-1.88-1.03-2.86-.07-.3.65-.33.97-.12.59.4,1.13,1.33,1.84.27.6-.9-.12-1.68-.6-2.32-.73-.97-1.52-.4-2.22.17-1.46,1.16-2.05,2.73-2.1,4.48Zm58.33,189.79c-2.5,2.8-4.98,5.56-7.45,8.33,1.67-1.34,4.82.87,5.65-2.46.49-1.95,3.91-2.96,1.8-5.87Zm-17.62,10.85c-3.43.43-6.54,1.8-9.63,3.22,3.73.51,6.76-1.1,9.63-3.22Zm-33.72-226.18c1.6-1.46,5.25-.86,4.8-4.73-2.45.92-3.81,2.64-4.8,4.73Zm48.79-32.92c-2.36,6.74-2.39,6.91-1.44,8.6.45-2.76,2.18-5.04,1.44-8.6Z"/><path class="cls-11" d="m866.91,412.69c1.67-4.68,3.45-9.32,4.97-14.05,2.01-6.25,5.11-12.02,7.76-17.98,1.01-2.27,2.5-4.37,4.02-6.35,2.86-3.74,5.06-7.91,7.94-11.65,1.52-1.98,2.46-4.54,3.45-6.89.99-2.35,2.6-3.4,4.71-4.19-4.63,8.76-9.82,17.16-15.46,25.32-4.13,5.97-7.06,12.63-9.82,19.35-2.29,5.57-4.18,11.32-7.57,16.45Z"/><path class="cls-11" d="m840.89,290.19c-1.41,2.78-3.89,4.65-6.37,6.53,1.46-2.75,3.9-4.62,6.37-6.53Z"/><path class="cls-11" d="m847.44,160.43c-1.47,2.81-6.71,3.5-9.17,1.12-2.58-2.49-1.23-5.42-.61-8.18.45-2,2.12-2.6,3.93-2.79,1.05-.11,2.12-.13,3.18-.06,1.9.14,4.03.12,4.9,2.26.92,2.26-.42,6.27-2.33,7.76.3-.96.35-1.92.14-2.91.98-.15,1.22-.81,1.13-1.68-.22-2.01-.77-3.78-2.98-4.48-2.5-.79-5.13.13-6.68,2.52,3.36.2,7.25-.84,8.61,3.71-.77-.67-1.52-1.32-2.25.07-.62,1.18-1.68,1.11-2.76.85-1.15-.28-1.4-1.14-1.44-2.2-.02-.62.29-1.44-.6-1.73-.85-.27-1.48.26-2.04.79-1.59,1.48-1.31,4.03.57,5.13,2.84,1.66,5.64,1.59,8.41-.18Z"/><path class="cls-11" d="m841.36,146.66c3.56-2.36,8.17-1.48,9.76,1.72.34.68.92,1.5.07,2.05-.7.44-1.16-.29-1.54-.89-1.49-2.32-3.64-2.96-6.24-2.4-.66.14-1.32.32-2.04-.47Z"/><path class="cls-11" d="m858.24,170.49c-.37-4.43,4.91-9.48,8.6-6.92-4.15.96-6.85,3.35-8.6,6.92Z"/><path class="cls-11" d="m829.41,178.39c-.01,2.33-.61,3.59-2.12,5.16-.52-2.41.31-3.64,2.12-5.16Z"/><path class="cls-11" d="m831.2,113.82c1.89-.65,3.69-.35,5.51.42q-1.13.56-5.51-.42Z"/><path class="cls-11" d="m879.3,201.22c-.06-.45.18-1.26-.39-1.24-2.88.09-5.58-1.75-8.53-.8-2.92.94-5.63.38-8.53-1.29,3.82-1.41,7.6-2.11,11.11-3.65.73-.32,2.36.33,3.67-.59,3.05-2.14,4.78-4.94,4.89-8.93,2.19,3.28,1.33,4.95-6.69,13.49,5.2,2.05,7.39-2.15,10.43-4.69-1.15,3.24-3.36,5.62-5.86,7.78,0,0-.1-.08-.1-.08Z"/><path class="cls-11" d="m857.8,195.69c6.75-1.11,12.55-2.52,17.02-7.13-3.01,5.31-10.62,8.62-17.02,7.13Z"/></svg>