<?xml version="1.0" encoding="UTF-8"?><svg id="personnage10" xmlns="http://www.w3.org/2000/svg" xmlns:xlink="http://www.w3.org/1999/xlink" viewBox="0 0 1080 1080"><defs><style>.cls-1{fill:#525252;opacity:.72;}.cls-1,.cls-2,.cls-3,.cls-4,.cls-5,.cls-6,.cls-7,.cls-8,.cls-9{stroke-width:0px;}.cls-2{fill:url(#Dégradé_sans_nom_6);}.cls-3{fill:url(#Dégradé_sans_nom_4);}.cls-5{fill:#757473;}.cls-6{fill:#3b2f35;}.cls-7{fill:#beaa9a;}.cls-8{fill:#aeb9b0;}.cls-9{fill:url(#Dégradé_sans_nom_13);}</style><linearGradient id="Dégradé_sans_nom_13" x1="612.15" y1="293.13" x2="585.23" y2="294.46" gradientUnits="userSpaceOnUse"><stop offset=".69" stop-color="#3b2f35"/><stop offset="1" stop-color="#aeb9b0"/></linearGradient><linearGradient id="Dégradé_sans_nom_4" x1="579.75" y1="287.59" x2="681.33" y2="287.59" gradientUnits="userSpaceOnUse"><stop offset="0" stop-color="#3b2f35"/><stop offset=".48" stop-color="#aeb9b0"/></linearGradient><linearGradient id="Dégradé_sans_nom_6" x1="587.36" y1="519.91" x2="711.49" y2="519.91" gradientUnits="userSpaceOnUse"><stop offset="0" stop-color="#3b2f35"/><stop offset=".56" stop-color="#aeb9b0"/></linearGradient></defs><path class="cls-5" d="m605.14,198.25c-3.5,0-5.25,0-9.19,3.5s-8.32,11.38-10.07,14.45c-1.75,3.06-3.5,26.7-4.38,28.45s2.19,3.94,2.19,3.94l11.82-3.5s3.94-1.31,2.63-7.44-.44-14.01.44-19.7c.88-5.69,1.75-3.5,5.69-7.44s4.82-5.69,6.57-5.69,6.57-4.38,9.63-4.38,9.63,2.63,9.63,2.63l-24.95-4.82Z"/><path class="cls-9" d="m581.5,270.04l14.01,1.31s1.75,19.26,4.38,22.32,7.44,12.69,7.44,12.69c0,0-1.75,3.94-6.57,6.57s-16.63,8.32-17.51,5.25-1.75-14.45-2.63-17.51.88-16.63,0-18.82.88-11.82.88-11.82Z"/><path class="cls-3" d="m606.02,208.31c-3.06,1.75-7.88,7.88-9.19,10.51s2.63,17.51,1.31,18.82-2.19,9.63-3.5,9.63-8.32.44-10.94,1.31-3.94,5.25-3.94,9.19,1.31,14.01,5.69,14.45,10.07-.88,10.07-.88c0,0,.44,14.88,3.94,20.57,3.5,5.69,7.88,14.45,7.88,14.45,0,0-5.69,11.82-7.44,10.94s-10.51,3.94-10.51,3.94c0,0,8.32,22.32,13.57,26.26,5.25,3.94,16.2,10.94,16.2,10.94,6.13,3.5,13.13,5.69,14.01,7s8.75,7,13.13,8.75,7.44-.44,9.63-3.5,10.94-11.82,11.82-16.63c.88-4.82,8.32-17.07,8.75-19.7s4.82-17.07,4.82-17.07c0,0,.44-7.44-2.63-7-3.06.44-11.82-9.63-13.13-9.63s-3.5-5.25-3.5-7.44,3.5-12.69-3.94-31.52c-7.44-18.82-.57-25.17-4.38-27.58-3.56-2.25-6.34-13.22-8.32-15.76-1.94-2.49-12.26-9.63-13.57-11.82-1.31-2.19-5.25-7-11.38-6.13s-14.45,7.88-14.45,7.88Z"/><path class="cls-8" d="m578,327.82c-.88,1.31,2.19,17.51,7,21.01,4.82,3.5,11.38,13.13,11.82,16.2.44,3.06,6.13,19.26,4.82,24.08-1.31,4.82-3.94,8.32-7.44,10.07s-6.57,2.19-8.32,4.38-6.57,12.69-7.44,15.76c-.88,3.06,3.94,29.33,3.94,34.14s4.82,30.64,4.82,33.27,2.63,12.26,4.38,14.88,6.57,8.32,6.57,11.38.88,6.13-1.75,5.25-6.57-7.44-6.57-7.44l3.94,14.45s1.75,2.19.88,3.94-2.19,6.57-4.38,3.5-8.32-10.07-10.07-14.45-7.44-26.26-7.44-31.08-8.75-28.45-9.63-33.27c-.88-4.82-8.75-21.01-9.63-24.51s1.75-23.64,2.19-28.45,2.19-31.08,3.5-34.58,5.25-19.26,7.44-22.76c2.19-3.5,11.38-15.76,11.38-15.76Z"/><path class="cls-8" d="m697.07,311.18s2.63,21.89,2.19,26.26.44,17.95.44,21.01,7,15.32,8.75,19.7c1.75,4.38,7.88,14.01,7,19.26s-1.31,17.95-5.69,21.45c-4.38,3.5-4.38,9.19-3.94,10.94s.88,14.88.44,16.63-1.31,21.01-2.19,24.51,0,15.32,0,17.95-.44,19.26,1.31,22.32,1.31,4.38,1.31,4.38c0,0,7-59.53,8.32-65.22,1.31-5.69,6.13-27.58,6.57-32.39.44-4.82,1.31-31.52,1.31-34.14s-4.38-34.14-4.38-37.65-.88-17.07-4.82-21.89c-3.94-4.82-16.63-13.13-16.63-13.13Z"/><path class="cls-8" d="m648.04,589.15c-3.94.44-25.83,1.75-29.33,3.06s-.88,11.82.44,17.95c1.31,6.13,8.75,28.89,8.75,33.27s4.82,51.65,5.25,55.16,1.75,18.39,1.75,18.39c0,0-9.63,4.38-12.26,7.88-2.63,3.5-14.45,11.82-6.57,11.82s14.45-4.82,18.82-6.57c4.38-1.75,7.88-6.13,7.44-10.51s-.88-14.88,0-21.45,2.63-48.15,3.06-53.84c.44-5.69,1.75-28.02,1.75-31.96s.88-23.2.88-23.2Z"/><path class="cls-8" d="m705.39,580.4c-3.94.88-17.07,3.06-20.57,3.94s-11.38,3.06-11.38,3.06c0,0,10.51,16.2,11.38,24.08.88,7.88,1.31,26.7,1.31,31.96s-.88,54.28-1.31,58.66c-.44,4.38-1.31,23.64-1.31,25.83s1.31,9.63,8.75,9.63,18.82-.88,18.82-.88c0,0,10.94-1.75,5.25-4.82-5.69-3.06-22.32-3.94-23.2-9.63s-1.31-14.01.88-28.45c2.19-14.45,6.57-42.9,7.44-48.59.88-5.69,4.82-18.82,4.82-24.08s2.19-12.69.88-21.45-1.75-19.26-1.75-19.26Z"/><path class="cls-6" d="m617.4,727.92c-1.31,1.31-11.38,15.76-11.38,15.76,0,0,3.06,7,6.57,3.94,3.5-3.06,14.01-9.19,15.76-11.38s10.51-5.25,12.26-6.13,3.94-4.82,2.63-7.44-5.69.88-9.19,4.38c-3.5,3.5-10.94,9.63-14.88,8.75-3.94-.88-1.75-7.88-1.75-7.88Z"/><path class="cls-6" d="m716.77,733.61c0-1.75-3.06,3.94-5.69,3.06-2.63-.88-14.45-1.31-17.95-2.19-3.5-.88-9.63-6.57-9.63-6.57,0,0-.88,7.44,5.69,10.51,6.57,3.06,11.38,5.69,15.76,6.57,4.38.88,11.82,7,14.88,4.82,3.06-2.19,8.75-4.82,7.44-8.75-1.31-3.94-7.44-8.32-8.75-8.32s-1.75.88-1.75.88Z"/><path class="cls-6" d="m704.39,427.62h0c.2-1.67,1.96-3.1.94-5.24-2,1.13-2.65,3.41-4.69,4.31-.1-1.41,1.7-1.93,1.04-3.04-.71-1.21-1.91-.04-2.88-.18-2.4-.36-4.53.39-5.84,1.31-3.55-5-10.47-3.25-14.48-7.92,3.89,1.23,7.35,1.61,10.23,3.38,3.52,2.17,7.29,2.27,11.12,1.99,6.02-.45,10.43-3.74,12.47-9.18,3.43-9.15,1.82-18.47-1.21-27.33-2.01-5.89-5.54-11.26-8.1-16.98-3.01-6.73-4.68-13.77-4.48-21.25.28-10.71.48-21.43-.95-32.1-.35-2.59-.88-4.77-4.25-4.85-2.06-.05-4.1-.76-6.17-1-5.78-.67-5.88-.51-5.98,5.25-.05,2.89.19,5.75-.71,8.64-3.51,11.21-7.51,22.19-12.97,32.64-3.72,7.13-7.03,14.45-14.63,18.49-2.45,1.31-4.96,2.67-7.37.53-1.85-1.64-3.85-3-5.91-4.24-6.22-3.77-11.83-8.43-19.06-10.68-9.12-2.83-15.96-9.11-21.47-16.92-4.36-6.17-7.2-12.99-9.48-20.12-.3-.96-.26-2.19-1.66-2.36-1.14-.14-6.55,3.59-6.81,4.73-1.65,7.05-1.35,13.88,2.88,20.03,1.42,2.07,3.59,3.62,5.11,5.64,7.72,10.27,12.43,21.68,13.12,34.66.45,8.33-1.15,12.55-7.1,14.52-2.85.94-5.19,2.33-7.56,3.96-2.72,1.88-3.27,4.63-3.32,7.62-.01.71.2,1.47.9,1.77.8.33,1.26-.31,1.71-.86,1.37-1.69,2.74-3.39,4.11-5.08.31.3.61.59.92.89-1.89,2.13-3.84,4.21-5.64,6.41-1.16,1.41-1.31,6.93-.17,7.65,1.59,1.01,2.7-.66,4.04-1.09.17-.05.36,0,.55,0-5.02,2.2-5.59,6.35-4.91,11.04.38,2.65.78,5.3,1.25,7.93,1.2,6.68,5.33,10.86,11.52,13.16,4.23,1.57,8.35,3.52,12.89,4.18,8.49,1.23,16.55,4.76,25.26,4.81,5.36.03,10.75-.51,16.06-.03,9.21.83,17.59-2.74,26.31-4.37,5.43-1.02,10.55-3.59,15.84-5.4,4.87-1.67,7.66-5.38,9.72-9.78,2.11-4.52.96-9.42,1.46-14.13.11-1.07-.79-1.28-1.64-1.41Z"/><path class="cls-2" d="m592.01,477.51c.57,1.3.69,2.64-.74,3.34-2.63,1.29-2,3.37-1.51,5.4.75,3.08.87,6.3,2.54,9.18.59,1.01,2.24,1.96,1.55,3.29-2.07,3.97.71,6.83,2.84,8.81,3.11,2.89,1.25,6.9,3.43,9.8.5.66-.69,1.5-1.72,1.68-2.67.47-4.74-.29-6-3.07.09,4.16,1.38,7.73,2.92,11.19.83,1.86.76,3.8-.59,4.83-2.66,2.03-2.26,4.57-2.11,7.24.15,2.56.3,5.11.33,7.67.13,12.69,1.06,25.33,2.11,37.97.24,2.89,1.41,3.69,4.11,3.79,3.36.12,6.7.86,10.06,1.1,6.24.45,12.4.95,18.76.04,7.12-1.02,14.32-2.45,21.46-2.48,11.02-.06,21.74-2.34,32.61-3.4,8.21-.8,16.16-3.95,24.33-5.59,3.61-.72,4.84-2.59,5.02-5.82.04-.81.11-1.63.1-2.44-.2-15.18-3.2-30.05-5.42-44.98-1.7-11.42-3.52-22.75-3.01-34.33.15-3.49.03-6.99-.04-10.48-.02-.84.29-1.93-1.49-2.5-2.83,13.72-13.26,21.51-23.26,29.66,3.02-3.3,5.68-6.87,8.36-10.45,1.36-1.81,1.53-4.89,3.34-5.54,3.72-1.34,5.16-4.45,7.08-7.18,4.01-5.7,4.44-12.59,5.81-19.15.09-.41-.05-1.01-.31-1.33-1.21-1.47-.41-2.83.04-4.26.81-2.61,2.85-4.82,2.51-7.8-.09-.76.32-1.75-.69-2.13-.73-.27-1.24.44-1.84.76-1.74.93-2.36,3.23-4.48,3.68-5.58,1.17-10.53,4.1-16.04,5.6-11.77,3.19-23.27,7.58-35.83,6.2-1.14-.13-2.32.1-3.49.13-7.85.2-15.59-.53-22.98-3.36-8.03-3.08-16.75-3.86-24.62-7.45-2.09-.95-3,.84-1.98,1.96,2.19,2.4,1.32,5.84,3.38,8.14.43.49.6,1.21.9,1.82-1.48-1.19-2.56-2.55-3.47-4.02-1.01-1.65-1.41-3.73-3.45-4.64-.82-.37-1.52-1.47-2.45-1.04-1.21.56-.5,1.85-.59,2.83-.19,1.91.42,3.59,1.07,5.38.98,2.7,3.32,5.24,1.66,8.49-2.5.68-1.75,2.58-1.55,4.24.08.69.26,1.52,1.13,1.49,1.37-.05,1.94-1.06,2.21-2.28Z"/><path class="cls-7" d="m618.71,240.16c-1.42.66-2.19,4.05-2.19,4.92s.44,3.06,1.75,3.5,2.3,1.64,3.94,0,2.52-2.85,2.52-3.83.22-2.85-1.53-3.5-4.49-1.09-4.49-1.09Z"/><path class="cls-7" d="m637.32,237.53c-1.64.11-3.83,3.28-3.72,4.05s.44,2.85,1.75,3.5,2.52,1.09,3.39.33,1.86-1.53,2.41-2.85-.55-6.13-1.64-5.91-2.19.88-2.19.88Z"/><path class="cls-1" d="m617.4,238.85c-1.97.33-10.62,1.75-11.49,2.52s-3.5,1.31-2.52,3.28,4.92,10.18,7.55,10.51,10.94.55,12.59-.33,3.61-3.61,4.49-4.82,2.3-5.14,2.3-7.11-1.31-4.49-2.19-4.92-10.72.88-10.72.88Z"/><path class="cls-1" d="m647.17,232.17c-.98.55-9.63,2.85-10.51,3.5s-3.06,2.85-3.06,4.16-.98,6.13-.33,7.33,1.97,3.61,3.83,3.28,6.24-.55,7.88-1.2,5.47-2.19,6.57-3.06,2.3-3.72,2.52-5.36.22-6.24-.88-7.11-6.02-1.53-6.02-1.53Z"/><path class="cls-4" d="m708.32,736.28c1.72-.17,3.47-.25,5.17-.56.9-.16,1.85-.72,1.91-1.78.07-1.22-1.04-1.51-1.93-1.6-5.67-.56-10.72-2.85-15.83-5.16-2.57-1.16-4.48-2.86-4.95-5.44-.84-4.63-2.37-9.17-1.63-14.06,2.92-19.31,5.78-38.64,8.46-57.98,1.24-8.99,3.61-17.76,4.95-26.7,1.51-10.1,3.12-20.27,1.17-30.55-.3-1.59-.26-3.24-.29-4.87-.01-.54.25-1.09.63-2.57,1.95,9.85,3.02,18.72,2.09,27.93-1.21,11.97-4.52,23.5-6.43,35.3-2.3,14.22-3.85,28.56-5.73,42.85-.47,3.57-.6,7.25-1.59,10.68-1.91,6.62.39,13.02.46,19.52.02,1.85,1.32,2.45,2.89,2.96,7.62,2.49,15.17,5.2,22.82,7.59,4.43,1.38,5.01,5.73,7.22,8.76,1.03,1.41-.63,3.2-1.72,4.61-4.16,5.37-4.66,5.53-10.94,2.92-7.73-3.22-15.59-6.04-23.88-7.48-5.21-.91-11.1-7.03-9.5-14.4,1.13-5.22.6-10.76,1.01-16.16,2.3-30.2,2.5-60.45,1.66-90.72-.21-7.41-3.56-13.88-6.17-20.57-1.18-3.02-2.86-5.84-4.08-8.84-.63-1.55-1.56-1.86-2.97-1.59-6.42,1.19-12.85,2.24-19.41,1.92-1.96-.1-2.66.97-2.79,2.76-.39,5.34-.97,10.67-1.22,16.01-.82,17.91-.43,35.86-1.51,53.77-.89,14.75-1.94,29.47-3.86,44.14-.42,3.22.68,6.64,1.13,9.95.33,2.42.69,4.83,1.13,7.23.74,3.99-1.66,6.82-4.68,7.67-5.76,1.61-10.08,5.18-14.62,8.57-3.74,2.79-7.98,4.71-11.92,7.16-2.62,1.62-5.15.87-7.02-1-1.82-1.82-1.68-4.63-.24-6.48,5.83-7.51,11.84-14.9,20.49-19.5,2.14-1.14,4.1-2.62,6.1-4,.97-.67,1.16-1.73.98-2.81-2.65-16.09-1.94-32.44-4.18-48.61-1.96-14.18-5.3-28.07-7.44-42.18-.54-3.53-1.73-6.99-2.92-10.38-1.8-5.13-1.64-10.55-2.67-15.78-.5-2.52-1.64-3.65-4.44-3.8-4.04-.22-8.1-.92-12.05-1.84-2.12-.49-4.81,1.71-6.14-.62-.93-1.65-.35-4.1-.66-6.16-1-6.71-.66-13.48-1.12-20.22-.63-9.29-.73-18.61-1.06-27.92-.03-.82.05-1.74-.73-2.23-5.97-3.79-7.3-10.5-10.15-16.22-6.45-12.91-6.06-27.58-10.36-41.06-1.8-5.64-3.22-11.4-5.13-17-2.28-6.7-5.25-13.15-7.18-19.99-.47-1.66-1.08-3.46-2.17-4.74-3.41-4.02-3.6-8.65-3.19-13.51.98-11.82,2.9-23.54,4.02-35.35.68-7.13,1.49-14.32,2.57-21.41,1.2-7.88,3.86-15.46,7.96-22.49,4-6.86,8.75-13.1,14.08-18.92,1.14-1.24.84-2.61.67-3.95-1.38-11.1-2.37-22.22-1.94-33.43.17-4.42.21-8.86.69-13.25.55-4.98-1.26-9.63-1.51-14.48-.28-5.63,2.13-10.83,2.35-16.46.28-7.27.56-14.69,3.29-21.65,2.59-6.58,5.73-12.86,10.6-18.26-.46,2.97.47,5.54,1.94,7.85.79,1.24.35,2.15.04,3.26-.32,1.15-1.34,2.24-.28,3.93,1.31-3.29,4.68-5.69,2.29-9.64-.51-.84-.08-1.5.56-2.14.7-.69.41-1.5.05-2.26-1.83-3.85-1.78-3.71,2.52-4.97,9.38-2.75,18.81-2.38,28.3-.86,2.08.33,3.93,1.15,4.63,3.19,1.38,4.01,4.6,6.62,7.14,9.71,4.33,5.28,7.96,10.78,8.34,17.87.05.94.13,2.12.95,2.54,5.38,2.75,3.75,7.56,3.3,11.78-.25,2.36-.33,4.54.3,6.81,1.76,6.38,3.52,12.72,6.04,18.91,3,7.38,3.22,15.45,3.27,23.37.02,3.37.49,6.23,3.53,8.16.19.12.36.31.49.5,4.12,6.01,10.25,7.42,17.01,7.68,12.55.48,22.1,6.97,29.59,16.3,3.63,4.52,4.42,10.64,4.76,16.55.53,9.05,1.6,18.05,2.58,27.06,2,18.3,2.34,36.59-.83,54.94-2.59,14.99-6.08,29.85-7.66,45-1.04,9.94-1.43,19.96-2.59,29.88-.9,7.7-2.96,15.28-3.04,23.06-.05,4.37.79,8.77,1.47,13.11,2.14,13.57,3.47,27.2,3.74,40.94.06,3.06-1.12,4.93-4.3,5.76-5.15,1.35-10.06,3.58-15.57,3.5-1.92-.03-3.76,1.05-5.52,2.03-2.81,1.56-5.93,2.06-9.11,1.95-2.75-.09-3.25,1.23-2.35,3.49.47,1.19.97,2.39,1.65,3.46,6.97,10.84,9.24,22.7,8.86,35.5-.49,16.53.12,33.09-.25,49.63-.3,13.36-1.29,26.7-2.12,40.04-.14,2.28-.71,4.53-.83,6.86-.3,5.96,2.47,10.17,8.31,11.16,6.6,1.13,12.86,3.2,18.88,6.03,2.78,1.31,5.83,1.54,8.68,2.51,1.83.63,3.52-.36,4.2-1.7.78-1.55,2.44-3.15.81-5.42-1.49-2.08-3.41-3.45-5.44-4.8-1.18-.79-2.14-.41-2.97.73-2.2,3.02-5.11,2.4-7.97,1.21Zm-3.93-308.66h0c.2-1.67,1.96-3.1.94-5.24-2,1.13-2.65,3.41-4.69,4.31-.1-1.41,1.7-1.93,1.04-3.04-.71-1.21-1.91-.04-2.88-.18-2.4-.36-4.53.39-5.84,1.31-3.55-5-10.47-3.25-14.48-7.92,3.89,1.23,7.35,1.61,10.23,3.38,3.52,2.17,7.29,2.27,11.12,1.99,6.02-.45,10.43-3.74,12.47-9.18,3.43-9.15,1.82-18.47-1.21-27.33-2.01-5.89-5.54-11.26-8.1-16.98-3.01-6.73-4.68-13.77-4.48-21.25.28-10.71.48-21.43-.95-32.1-.35-2.59-.88-4.77-4.25-4.85-2.06-.05-4.1-.76-6.17-1-5.78-.67-5.88-.51-5.98,5.25-.05,2.89.19,5.75-.71,8.64-3.51,11.21-7.51,22.19-12.97,32.64-3.72,7.13-7.03,14.45-14.63,18.49-2.45,1.31-4.96,2.67-7.37.53-1.85-1.64-3.85-3-5.91-4.24-6.22-3.77-11.83-8.43-19.06-10.68-9.12-2.83-15.96-9.11-21.47-16.92-4.36-6.17-7.2-12.99-9.48-20.12-.3-.96-.26-2.19-1.66-2.36-1.14-.14-6.55,3.59-6.81,4.73-1.65,7.05-1.35,13.88,2.88,20.03,1.42,2.07,3.59,3.62,5.11,5.64,7.72,10.27,12.43,21.68,13.12,34.66.45,8.33-1.15,12.55-7.1,14.52-2.85.94-5.19,2.33-7.56,3.96-2.72,1.88-3.27,4.63-3.32,7.62-.01.71.2,1.47.9,1.77.8.33,1.26-.31,1.71-.86,1.37-1.69,2.74-3.39,4.11-5.08.31.3.61.59.92.89-1.89,2.13-3.84,4.21-5.64,6.41-1.16,1.41-1.31,6.93-.17,7.65,1.59,1.01,2.7-.66,4.04-1.09.17-.05.36,0,.55,0-5.02,2.2-5.59,6.35-4.91,11.04.38,2.65.78,5.3,1.25,7.93,1.2,6.68,5.33,10.86,11.52,13.16,4.23,1.57,8.35,3.52,12.89,4.18,8.49,1.23,16.55,4.76,25.26,4.81,5.36.03,10.75-.51,16.06-.03,9.21.83,17.59-2.74,26.31-4.37,5.43-1.02,10.55-3.59,15.84-5.4,4.87-1.67,7.66-5.38,9.72-9.78,2.11-4.52.96-9.42,1.46-14.13.11-1.07-.79-1.28-1.64-1.41Zm-112.38,49.89c.57,1.3.69,2.64-.74,3.34-2.63,1.29-2,3.37-1.51,5.4.75,3.08.87,6.3,2.54,9.18.59,1.01,2.24,1.96,1.55,3.29-2.07,3.97.71,6.83,2.84,8.81,3.11,2.89,1.25,6.9,3.43,9.8.5.66-.69,1.5-1.72,1.68-2.67.47-4.74-.29-6-3.07.09,4.16,1.38,7.73,2.92,11.19.83,1.86.76,3.8-.59,4.83-2.66,2.03-2.26,4.57-2.11,7.24.15,2.56.3,5.11.33,7.67.13,12.69,1.06,25.33,2.11,37.97.24,2.89,1.41,3.69,4.11,3.79,3.36.12,6.7.86,10.06,1.1,6.24.45,12.4.95,18.76.04,7.12-1.02,14.32-2.45,21.46-2.48,11.02-.06,21.74-2.34,32.61-3.4,8.21-.8,16.16-3.95,24.33-5.59,3.61-.72,4.84-2.59,5.02-5.82.04-.81.11-1.63.1-2.44-.2-15.18-3.2-30.05-5.42-44.98-1.7-11.42-3.52-22.75-3.01-34.33.15-3.49.03-6.99-.04-10.48-.02-.84.29-1.93-1.49-2.5-2.83,13.72-13.26,21.51-23.26,29.66,3.02-3.3,5.68-6.87,8.36-10.45,1.36-1.81,1.53-4.89,3.34-5.54,3.72-1.34,5.16-4.45,7.08-7.18,4.01-5.7,4.44-12.59,5.81-19.15.09-.41-.05-1.01-.31-1.33-1.21-1.47-.41-2.83.04-4.26.81-2.61,2.85-4.82,2.51-7.8-.09-.76.32-1.75-.69-2.13-.73-.27-1.24.44-1.84.76-1.74.93-2.36,3.23-4.48,3.68-5.58,1.17-10.53,4.1-16.04,5.6-11.77,3.19-23.27,7.58-35.83,6.2-1.14-.13-2.32.1-3.49.13-7.85.2-15.59-.53-22.98-3.36-8.03-3.08-16.75-3.86-24.62-7.45-2.09-.95-3,.84-1.98,1.96,2.19,2.4,1.32,5.84,3.38,8.14.43.49.6,1.21.9,1.82-1.48-1.19-2.56-2.55-3.47-4.02-1.01-1.65-1.41-3.73-3.45-4.64-.82-.37-1.52-1.47-2.45-1.04-1.21.56-.5,1.85-.59,2.83-.19,1.91.42,3.59,1.07,5.38.98,2.7,3.32,5.24,1.66,8.49-2.5.68-1.75,2.58-1.55,4.24.08.69.26,1.52,1.13,1.49,1.37-.05,1.94-1.06,2.21-2.28Zm24.77-167.12c-3.33-.05-5.36-.69-7.12-2.07-1.35-1.06-2.2-1.24-3.27.53-1.12,1.86-2.66,3.52-4.23,5.04-1.45,1.41-1.99,2.75-.96,4.61,3.17,5.75,3.73,12.41,6.31,18.39.71,1.64.77,3.54.82,5.44.08,3.03-.98,6.92,1.77,8.88,4.12,2.94,8.06,6.65,13.15,7.73,4.62.98,8.4,3.28,12.13,5.84,3.35,2.29,6.65,4.66,9.89,7.1,2.56,1.93,5.15,2.18,7.71.31,2.44-1.78,4.71-3.8,6.43-6.35,5.55-8.2,9.38-17.31,13.87-26.07,2.91-5.67,3.57-11.99,5.88-17.81.97-2.45.95-5.26.51-7.95-.24-1.45-.72-2.73-2.24-3.27-2.96-1.05-5.01-3.29-7.18-5.38-.9-.87-1.78-2.2-3.2-1.64-1.6.63-1.41,2.32-1.29,3.67.61,6.8-.59,13.46-1.71,20.09-.61,3.59-.57,7.92-5.6,8.94-.44.09-.69.92-1.13,1.29-1.98,1.66-2.67,4.14-3.97,6.62-.75-1.89-.37-3.32.04-4.75,1.61-5.59,3.05-11.19,3.31-17.06.24-5.46.82-10.91,1.2-16.37.05-.78.07-1.78-.82-2.13-.76-.3-1.34.4-1.68.97-1.99,3.3-5.35,4.33-8.59,5.94-5.71,2.82-11.3,2.59-16.97.89-2.54-.76-5.66-1.12-6.98-4.21,4.14,3.13,9.18,3.32,13.92,3.96,5.7.77,11.49-.84,15.5-4.77,3.46-3.39,5.73-8.15,7.98-12.57,4.58-8.98,2.2-18.01-.93-26.72-2.16-6.01-7.2-10.9-7.12-17.86.01-1.01-.61-1.92-1.83-1.39-4.57,1.99-9.26,3.39-14.65,3.04,1.7,3.48,3.83,5.73,6.85,6.91,4.49,1.76,5.37,5.35,1.8,8.71-3.53,3.32-7.83,4.43-12.61,3.62-2.05-.35-2.97-1.5-2.42-3.74,3.52,3.92,11.8,2.93,14.66-1.64,1.75-2.79,1.27-4.13-1.86-5.48-.85-.36-1.66-.84-2.41-1.37-5.33-3.73-7.65-8.87-7.12-15.34.06-.73.37-1.88-.72-2.04-1.36-.2-1.2,1.11-1.4,1.95-.1.45-.14.93-.1,1.39.54,6.39-2.86,10.11-8.51,11.93-6.86,2.21-14.21,1-16.69-6.61-1.31-4.03-3.8-4.42-7.14-1.59-.7.6-.82,1.61-2.38.88-7.16-3.36-12.61-1.14-15.08,6.14-1.61,4.75-.7,9.25,2.81,12.88,3.41,3.53,7.28,5.92,12.52,2.37-3.5,2.36-4.03,5.68-4.04,9.22,0,5.14.99,10.17,1.79,15.2.66,4.14,1.77,8.27,4.23,12.82.92-4.46-.03-7.91-.65-11.37-.42-2.34-.76-4.62,2.01-5.81,4.35,7.49,8.19,15.51,17.52,20.08Zm-19.72,69.54c-1.5,5.66-1.9,11.71-5.18,16.89-.37.59-1,1.09-.55,1.83.43.7,1.19.59,1.89.49,3.88-.54,6.58-3.54,6.97-7.52.34-3.52-.23-6.98-.66-10.43-1.1-8.74-4.22-16.74-8.79-24.3-3.11-5.16-8.47-8.63-10.38-14.68-.88-2.8-1.62-5.56-1.96-8.45-.11-.89-.21-1.98-1.24-2.34-1.09-.38-1.73.61-2.31,1.24-2.82,3.09-5.22,6.43-6.99,10.3-3.5,7.64-7.05,15.41-7.77,23.73-.82,9.48-3.69,18.75-2.89,28.39.17,2.05-.16,4.21-.64,6.24-1.62,6.95-1.66,14.07-2.48,21.1-.29,2.54-.32,5.27,1.14,7.48,1.69,2.57,2.51,5.48,3.81,8.19,6.16,12.82,9.86,26.5,13.53,40.14,1.77,6.56,3.58,13.2,4.09,20.1.68,9.16,4,17.58,7.92,25.77.83,1.73,1.83,3.38,3.47,5.01.72-4.61-5.94-8.15-1.21-12.84,1.85,3.1,3.1,6.46,6.04,8.72-.38-4.91-2.91-9.3-3.31-14.76,2.72,1.67,3.57,3.93,5.05,5.65.52.6,1.15,1.3,2.07.71.6-.38.49-1.08.21-1.58-2.4-4.23-3.13-9.34-6.35-13.08-2.15-2.49-3.65-5.03-3.92-8.3-.16-1.97-.52-3.92-.65-5.89-.57-8.74-3.54-17.14-3.91-25.86-.55-12.93-3.03-25.63-4.23-38.48-.23-2.48-.01-4.36,1.31-6.49,2.56-4.14,3.84-8.94,5.58-13.45.95-2.47,1.87-4.35,4.02-5.61,2.49-1.46,4.26-3.73,4.47-6.36.34-4.19,2.55-7.68,3.85-11.55Zm38.76,333.09c-.03,2.26.65,4.89-3.14,4.67-.46-.03-.95.61-1.44.92-4.02,2.61-7.56,5.81-11.18,8.92-4.34,3.72-7.53,8.48-11.1,12.87-2.2,2.7-.97,5.29,2.24,5.28,2.27,0,4.1-1.3,6.02-2.46,6.13-3.7,11.29-8.88,18.29-11.28,7.59-2.6,8.15-4.1,6.94-12.28-.64-4.33-1.7-8.62-1.51-13.05.44-10.23,2.19-20.37,2.59-30.57.74-18.71,2.13-37.4,2.43-56.14.14-8.92.05-17.93,1.67-26.79.4-2.2-.48-2.59-2.5-2.33-7.15.91-14.3,1.85-21.47,2.43-7.2.59-7.29.43-5.46,7.55,2.02,7.88,4.58,15.64,6.2,23.59,2.13,10.45,3.16,21.17,5.47,31.53,4.21,18.9,2.79,38.25,5.94,57.15Zm70.26-202.05c.32,0,.65.02.97.03,1.46-3.07,1.3-6.47,1.77-9.74,1.06-7.35,2.05-14.71,2.84-22.11.71-6.73.12-13.52,1.29-20.2,2.22-12.7,4.22-25.45,6.77-38.09,3.36-16.65,2.54-33.34.95-50.02-.9-9.49-2.74-18.94-2.7-28.46.05-12.25-5.24-21.06-15.25-27.46-1.01-.64-2.07-2.14-3.32-1.32-1.12.73-.68,2.42-.48,3.6,1.51,9.03,1.4,18.16.83,27.18-.64,10.01,2.43,18.64,6.93,27.24,5.65,10.77,9.98,21.93,8.91,34.58-.48,5.71-2.99,10.2-6.58,14.19-1.29,1.43-1.87,2.55-1.88,4.46-.09,11.04,1.02,22.14-.81,33.11-1.09,6.55-2.65,13.04-1.92,19.72.87,7.9.28,15.82.58,23.72.12,3.2.72,6.38,1.1,9.57Zm-97.21-289.32c-.39-.01-.78-.02-1.17-.03,0-2.15.09-4.31-.04-6.45-.06-.95,0-2.59-1.25-2.53-1.52.07-.78,1.6-.78,2.54,0,1.74.09,3.49.09,5.23,0,.73-.21,1.42-1.13,1.45-.91.03-1.12-.61-1.24-1.36-.22-1.37-.46-2.75-.75-4.11-.14-.64-.12-1.55-1.02-1.6-.83-.05-1.02.81-1.36,1.39-1.9,3.23-1.33,6.76-1.24,10.23.11,4.4.78,8.83-.38,13.19-.37,1.4-1.94,3.09-.56,4.14,1.45,1.11,3.29-.19,4.81-1.01.71-.38,1.27-1.05,2-1.4,7.86-3.72,15.7-7.59,24.72-3.71.96.41,2.24.45,3.05-.18,3.39-2.64,7.58-3.33,11.42-4.82,2.51-.97,3.4-2.3,2.22-4.72-1.77-3.65-4.01-7.13-5.33-10.93-1.43-4.15-5.5-5.09-7.99-4.72-2.93.43-2.92-.84-3.64-3.39-.42,2.12-.58,3.23-.88,4.3-.17.6-.29,1.53-1.26,1.28-.69-.18-.62-.88-.54-1.47.49-3.63-1.29-6.8-2.16-10.14-.24-.91-.59-2.08-2.27-1.71.17.81.3,1.58.5,2.33.91,3.4,1.12,6.87,1,10.36-.03.76-.16,1.86-1.28,1.65-.89-.17-.57-1.13-.53-1.79.18-3.02.16-6-1.99-8.95-.67,4.22-1.29,8.09-1.91,11.96-.32.04-.63.07-.95.11,1.12-4.52-1.16-7.93-3.18-11.48-.11,3.34.11,6.63.18,9.93.02,1.05.65,2.91-.69,2.99-1.68.1-.67-1.8-.98-2.78-.03-.11.01-.24-.01-.35-.28-1.09.54-3-1.44-2.9-1.57.08-1.59,1.72-1.66,3.03-.11,2.14.38,4.34-.37,6.41Zm13.38,17.56c-.07,1.05.9,1.26,1.48,1.76,1.99,1.73,2.13,3.97,1.11,6.02-1.12,2.25-3.3,3.32-5.87,2.68-2.69-.67-4.06-2.43-3.82-5.34.18-2.25-.11-3.7-3.24-3.1-7.89,1.51-8.32,2.27-3.67,8.82.13.19.25.39.38.58,2.73,4.02,7.31,4.62,11.9,3.63,6.32-1.37,8.71-4.28,9.06-9.62.37-5.74-1.69-7.27-7.32-5.43Zm16.39-3.26c3.52,1.5,3.89,3.76,3.13,6.34-.85,2.84-2.43,4.73-5.81,3.87-.54-.14-1.25-.31-1.43.47-.19.84.51,1.19,1.11,1.55,3.03,1.83,11.41.8,14.6-1.81,2.25-1.83,3.63-7.98,2.72-11.34-.38-1.41-1.27-1.37-2.35-1.4-3.86-.11-7.53.72-11.97,2.31Zm-54.5,190.59c.31-2.59-.6-6.37-.7-10.19-.01-.57-.03-1.2-.72-1.42-.54-.17-1.04.18-1.09.59-.38,3.09-2.87,5.56-2.42,8.93,1.44,10.79,2.76,21.6,4.14,32.4.1.78,0,1.96,1.01,1.94,1.24-.03,1.02-1.33,1.08-2.19.08-1.04-.07-2.1.03-3.13.84-8.63-1.92-17.06-1.32-26.92Zm7.01-103.81c1.55,3.59,2.25,7.89,4.87,11.4,2,2.69,4.06,5.34,6.02,8.05.53.74.85,2.02,1.95,1.45,1.06-.55.34-1.66-.05-2.46-3.21-6.54-6.45-13.07-9.7-19.59-.41-.81-.84-1.91-1.96-1.6-1.05.29-.96,1.45-1.13,2.75Zm-3.57-104.22c-3.04,8.97-6.26,17.93-4.71,27.71,2.89-8.99,4.21-18.28,4.71-27.71Zm13.98,91.15c1.37-3.93,0-7.86.14-11.77.03-.74-.94-1.54-1.5-2.27-.28-.37-.75-.64-1.18-.32-.22.16-.41.67-.32.91,1.56,4.34.79,9.13,2.85,13.45Zm17.81-68.78c-2.77.77-2.67,2.75-2.58,4.61.05,1.1-.02,2.5,1.61,2.61,1.73.11,3.46.12,4.63-1.62.74-1.12,1.39-2.2.57-3.48-.27-.43-.83-.83-1.33-.94-.71-.16-.93.45-.98,1.08-.11,1.45.06,3.71-2.07,2.98-1.76-.6-.63-2.5.04-3.82.13-.26.06-.62.12-1.41Zm15.49-.53c-1.04,1.85-.45,3.05,1.11,3.87,1.38.72,2.67.49,3.83-.57,1.28-1.16,1.58-2.66.93-4.11-.68-1.53-2.1-1.39-3.66-.93.08,1.48,3.16,2.26,1.15,3.71-1.63,1.17-1.81-1.6-3.37-1.97Zm-53.07,30.65c-.79,3.46-.56,6.91-.08,10.36.87-3.46,1.45-6.91.08-10.36Zm22.92,38.6c.89-2.84.55-4.9.41-6.93-.04-.6-.39-1.23-1.03-1.21-.93.03-1.04.84-.93,1.55.28,1.92.03,3.95,1.55,6.58Zm-22.71-20.44c-.16,0-.33,0-.49,0v15.57c.16,0,.33,0,.49-.01v-15.55Zm14.29-54.04c-.9,1.57-1.49,3.14-1.09,4.98.02.1.74.23.85.1,1.23-1.39,1.43-3,.82-4.73-.03-.08-.18-.11-.59-.35Zm-11.05,72.95c-.99,1.96-.97,3.99,0,6.04v-6.04Zm4.31,218c-.37,1.2.06,2.09.6,2.78.8,1.02,1.37,3.41,2.6,2.67,1.55-.94-.59-2.25-1.07-3.4-.34-.81-.89-1.64-2.13-2.05Zm69.66-208.8c-.88,3.1-1.16,5.46-.56,7.86,1.29-2.31,1.56-4.67.56-7.86Z"/><path class="cls-4" d="m698.38,473.45c.79,5.93-2.78,9.61-5.55,13.61,1.58-4.49,2.98-9.05,5.55-13.61Z"/><path class="cls-4" d="m692.45,505.74c2.33-3.92,4.67-7.84,7-11.76.22.13.44.25.65.38-2.33,3.96-4.66,7.93-7,11.89-.22-.17-.44-.34-.66-.51Z"/><path class="cls-4" d="m595.12,471.91c1.25,1.83,2.5,3.66,3.75,5.49-2.05-1.23-3.41-2.97-3.75-5.49Z"/><path class="cls-4" d="m594.41,418.07c7.4,6.14,15.43,10.22,26.04,8.8,11.07-1.48,15.64-10.69,23.27-17.75-8.5,13.95-15.67,21.36-32.63,19.91-6.9-.59-15.97-6.83-16.68-10.96Z"/><path class="cls-4" d="m704.39,427.62c.07,2.1.07,4.18-1.88,5.62-.61.45-1.09,1.36-2,.51-.76-.71-.53-1.53.04-2.16,1.23-1.37,2.55-2.65,3.84-3.97h0Z"/><path class="cls-4" d="m647.85,279.68c-.21,1-.94.9-1.57.55-3.84-2.15-7.08-.84-10.17,1.65-.51.41-1.26.97-1.81.21-.53-.74.29-1.2.74-1.69,3.18-3.44,7.52-4.12,11.57-1.83.49.28,1.11.39,1.24,1.11Z"/><path class="cls-4" d="m594.99,258.51c-.62-.49-.89-.59-.95-.76-2.25-6.65-3.85-7.14-9.38-2.82-.38.3-.75.67-1.19.32-.67-.53-.45-1.24-.18-1.91,1.27-3.23,6.99-4.02,9.59-1.25,1.54,1.64,2.42,3.61,2.11,6.42Z"/><path class="cls-4" d="m592.33,260.05c-2.55-.14-4.74.57-7.17,2.54,2.18-3.94,4.37-4.59,7.17-2.54Z"/><path class="cls-4" d="m647.11,297.28c-3.57-.59-6.22.99-8.43,3.68,1.32-3.7,2.69-4.27,8.43-3.68Z"/><path class="cls-4" d="m632.73,640.76c1.74.87,3.55.9,5.51.99-2.41,2.39-3.67,2.16-5.51-.99Z"/></svg>