<?xml version="1.0" encoding="UTF-8"?><svg id="personnage11" xmlns="http://www.w3.org/2000/svg" xmlns:xlink="http://www.w3.org/1999/xlink" viewBox="0 0 1080 1080"><defs><style>.cls-1{fill:url(#Dégradé_sans_nom_16-2);}.cls-1,.cls-2,.cls-3,.cls-4,.cls-5,.cls-6,.cls-7,.cls-8,.cls-9,.cls-10,.cls-11,.cls-12{stroke-width:0px;}.cls-2{fill:url(#Dégradé_sans_nom_6);}.cls-3{fill:url(#Dégradé_sans_nom_6-2);}.cls-5{fill:#757473;}.cls-6{fill:#3b2f35;}.cls-7{fill:#585254;}.cls-8{fill:#beaa9a;}.cls-9{fill:#aeb9b0;}.cls-10{fill:url(#Dégradé_sans_nom_19);}.cls-11{fill:url(#Dégradé_sans_nom_16);}.cls-12{fill:url(#Dégradé_sans_nom_21);}</style><linearGradient id="Dégradé_sans_nom_19" x1="906.61" y1="277.98" x2="994.95" y2="240.8" gradientUnits="userSpaceOnUse"><stop offset="0" stop-color="#757473"/><stop offset=".82" stop-color="#aeb9b0"/></linearGradient><radialGradient id="Dégradé_sans_nom_21" cx="967.25" cy="420.88" fx="967.25" fy="420.88" r="40.76" gradientTransform="translate(1889.93 1562.01) rotate(-177.72) scale(1 2.62)" gradientUnits="userSpaceOnUse"><stop offset=".08" stop-color="#aeb9b0"/><stop offset=".52" stop-color="#534c4e"/><stop offset=".63" stop-color="#3b2f35"/></radialGradient><linearGradient id="Dégradé_sans_nom_6" x1="940.81" y1="334.59" x2="972.96" y2="334.59" gradientUnits="userSpaceOnUse"><stop offset="0" stop-color="#3b2f35"/><stop offset=".56" stop-color="#aeb9b0"/></linearGradient><linearGradient id="Dégradé_sans_nom_6-2" x1="960.78" y1="320.26" x2="971.86" y2="320.26" xlink:href="#Dégradé_sans_nom_6"/><linearGradient id="Dégradé_sans_nom_16" x1="915.7" y1="244.97" x2="932.72" y2="244.97" gradientUnits="userSpaceOnUse"><stop offset="0" stop-color="#3b2f35"/><stop offset=".89" stop-color="#aeb9b0"/></linearGradient><linearGradient id="Dégradé_sans_nom_16-2" x1="946.11" y1="234.37" x2="966.96" y2="234.37" xlink:href="#Dégradé_sans_nom_16"/></defs><path class="cls-7" d="m947.62,210.22c-3.09-.93-8.02-8.64-12.34-6.79s-7.71,5.25-8.95,7.1-5.55,9.26-6.79,9.56-12.34,10.49-13.58,13.88c-1.23,3.39-5.55,12.96-6.48,14.5s-2.16,5.86-.93,6.79,3.09,2.16,4.94,1.54,1.23-2.47,1.23-6.48,1.85-10.8,6.79-15.74,7.4-10.49,14.81-13.58,11.72-10.18,19.75-8.02,11.11,4.63,13.88,6.17,5.25,1.54,5.86,4.32,2.16,5.86,4.32,8.33,4.63,9.56,4.01,10.49,7.71-5.25,8.33-7.1-2.47-3.7-5.55-6.17-9.87-9.56-11.42-9.26-4.01-4.94-5.25-4.94-4.94-2.16-7.4-2.47-5.25-2.16-5.25-2.16Z"/><path class="cls-10" d="m933.43,212.38c-2.14,1.38-12.03,4.01-13.58,5.86s-8.33,9.26-10.8,11.42c-2.47,2.16-7.1,12.03-5.86,17.59s3.09,11.72,3.09,11.72c0,0-4.32-3.39-7.1-.93s-6.48,4.94-4.32,8.64,6.79,6.17,8.33,8.33,5.86,6.79,7.4,8.64c1.54,1.85,2.78,3.7,4.32,4.32s4.01,5.25,5.55,9.26c1.54,4.01,3.39,7.71,5.86,9.87s4.01,4.63,7.71,4.32,5.25.31,6.79.62,2.47,2.78,6.79,2.16,5.25-1.85,6.79-4.01.62-1.23,2.78-1.23,2.78,1.85,7.4-.93,9.56-5.86,10.49-11.72c.93-5.86,1.85-17.89,1.54-20.36s-.31-3.09,1.23-4.01,4.01-1.23,4.01-3.7,1.54-6.17,2.47-9.26c.93-3.09,4.63-8.33,4.94-11.11s2.16-5.55-1.23-8.95-6.79-4.01-7.71-2.78-6.17,6.17-6.17,6.17c0,0-1.54-8.64-4.63-12.96s-7.4-9.26-11.72-12.34-20.05-7.4-24.37-4.63Z"/><path class="cls-4" d="m926.64,739.35c.31,2.16-.93,7.71-.93,7.71,0,0,3.7.31,4.94-1.85,1.23-2.16,2.16-5.55.93-5.55s-4.94-.31-4.94-.31Z"/><path class="cls-6" d="m908.13,561.64c-4.32,2.47-11.42,9.87-13.27,11.11s4.01.93,7.1.93,8.33.93,8.33-1.85-2.16-10.18-2.16-10.18Z"/><path class="cls-6" d="m1001,552.38c-.62,1.85-4.63,11.11-5.25,13.88s-1.54,5.25-1.54,5.25c0,0,4.94-.62,8.02-1.54s10.18.62,14.5-.31,10.8-1.54,10.8-1.54c0,0-4.63-6.79-7.1-6.79s-10.18-7.71-14.5-8.02c-4.32-.31-4.94-.93-4.94-.93Z"/><path class="cls-12" d="m979.66,432.52l.08.07c.88-5.12.63-10.18-.41-16.01-2.83,3.6-3.78,7.31-7.04,10.54,1.04-3.78,2.84-6.22,4.07-8.93.99-2.18,2.78-4.05,2.65-6.71-.79-16.87-1.86-33.72-3.73-50.51-.08-.69,0-1.55-.78-1.76-.78-.21-1.42.53-1.58,1.12-1.12,4.21-5.1,6.21-7.23,9.6-1.47,2.34-2.88,2.75-4.96.79-3.29-3.1-6.68-6.08-9.99-9.15-1.75-1.62-3.28-3.54-5.65-4.02,0,3.26-.02,6.38.02,9.49,0,.55.09,1.37.45,1.61,5.01,3.43,8.02,9.05,13.34,12.14,1.95,1.14,3.36,2.62,2.06,5.13-.55,1.05-.14,1.75.75,2.34,5.06,3.33,6.05,8.5,6.11,13.99.03,3.16-2.09,5.91-4.66,6.2-2.32.26-4.18-2.45-4.33-5.33-.11-2.24-1.26-2.69-3.42-2.81-3.29-.18-6.68-.62-9.75-1.74-2.39-.87-2.65-.56-2.72,1.76-.46,15.6-1.02,31.2-1.61,46.8-.07,1.86.45,2.1,1.92,1.23,4.47-2.65,9.46-3.97,14.45-4.91,4.1-.77,8.33-2.43,12.56-.69,2.63,1.08,5.5.91,8.13,1.84.82.29,1.26.05,1.75-.58,1.52-1.99,1.23-9.38-.49-11.51Z"/><path class="cls-6" d="m962.02,533.73c1.12,4.38-.24,7.81-.7,11.23-2.14,15.79-4.4,31.56-5.67,47.47-.92,11.49-.98,23.08-3.04,34.45-2.74,15.13-3.72,30.5-6.49,45.63-1.57,8.59-1.73,17.41-3.79,25.91-2.84,11.76-5.59,23.54-7.32,35.52-.15,1.01-1.14,2.47.63,2.94,1.69.45,2.06-.9,2.44-2.23,1.7-5.92,3.63-11.77,5.2-17.74,3.65-13.86,10.74-26.47,14.5-40.36,4.26-15.72,11.02-30.64,16.01-46.16,8.17-25.46,14.21-51.65,25.72-75.97.81-1.71-.14-1.98-1.33-2.41-3.55-1.27-6.4-3.77-9.69-5.51-1.49-.79-2.02-2.01-2.03-3.72-.02-5.59-.37-11.19-.27-16.78.31-17.51-.91-34.96-1.89-52.42-.07-1.27.17-2.75-.74-3.7-4.62-4.82-9.66-9.09-16.25-10.97-2.44-.7-3.27.27-3.1,2.88,1.19,17.68,1.31,35.41,2.79,53.07.1,1.21.12,2.32,1.4,2.93.65.31,1.29.81.73,1.6-.58.82-1.45.58-2.21.23-1.1-.5-1.34-1.48-1.39-2.6-.46-9.54-1.04-19.08-1.4-28.63-.34-8.97-.52-17.95-.62-26.93-.04-3.13-1.27-3.83-4.08-2.94-3.99,1.28-8.07,2.48-11.63,4.66-4.41,2.69-8.18,6.22-8.54,11.92-.97,15.12-3.88,30-5.53,45.03-.75,6.81-3.33,13.35-3.68,20.22-1.05,20.61-1.61,41.24-1.75,61.87-.15,23.2-.05,46.41-.14,69.61-.09,20.87-1.88,41.7-1.55,62.58.02,1.14-1.27,3.23,1.48,3.45,2.18.17,2.99-.86,3.54-2.86,1.27-4.62,1.26-9.42,2.45-14.08,2.41-9.46,4.88-18.98,6.24-28.63,1.82-12.92,3.8-25.81,5.57-38.74,1.58-11.54,3.97-23,5-34.58,2.23-25.18,4.45-50.35,8.66-75.29.53-3.12.97-6.29,2.5-9.98Z"/><path class="cls-5" d="m1018.65,457.76c.33.06.66.12.99.17,2.67-4.33,5.31-8.67,8-12.98,5.48-8.8,10.88-17.64,14.36-27.49,2.13-6.02,3.63-12.44,6.75-17.91,6.32-11.1,2.88-20.84-3.25-30.05-9.29-13.95-19.44-27.32-28.31-41.55-6.66-10.68-14.48-20.56-21.31-31.12-1.13-1.74-1.93-1.98-3.17-.04-2.23,3.48.11,6.61,0,10.06,2.36-.6,2.2-3.02,3.88-3.8.38,1.12-.18,2.05-.77,2.57-3.05,2.68-2.66,5.88-1.7,9.26.25.89.19,1.87.44,2.76,1.24,4.24.35,7.58-3.29,10.44-2.56,2-3.54,4.78-1.37,8,1.49,2.21,2.98,4.53,3.88,7.02,1.57,4.38,4.9,8.14,4.16,13.39-1.7,12.09-3.56,24.19-4.49,36.35-.83,10.91-.19,21.92-.77,32.86-1.16,22.1-3.13,44.16-3.93,66.27-.62,16.99.06,34.04.08,51.06,0,1.81,1.05,2.25,2.33,2.96,4.98,2.78,10.75,3.82,15.54,6.96,6.55,4.3,13.96,6.86,20.85,10.48,2.81,1.47,3.56.87,2.95-2.33-1.16-6.04-2.93-11.93-3.83-18.05-2.24-15.41-6.23-30.51-7.52-46.1-1.97-23.82-3.31-47.66-3.39-71.56-.05-15.04.2-30.07-2.43-44.97-.55-3.11-.68-6.35-.1-10.31,1.42,3.15.76,5.75,1.18,8.22.5,2.96.05,6.3,1.76,8.77,3.64,5.27,8.49,9.21,14.76,11.14,1.59.49,3.12,1.16,5.25,1.97-2.47,1-4.05-.59-5.71-.07-.55,1.32,1.87,1.47,1.01,2.96-1.87-.37-2.67-2.61-4.57-2.69-1.18.99.99,3.35-.8,3.2-2.47-.21-1.73,1.36-1.95,2.33-.56,2.52-1.28,4.97-2.43,7.27-2.37,4.74-3.68,10.1-3.99,15.04-.62,9.78.51,19.67.91,29.51Z"/><path class="cls-5" d="m925.32,372.8c.02-.5-.02-.95.07-1.37.98-4.86,2.82-9.19.7-14.78-1.46-3.84-2.45-8.34-3.66-12.53-1.25-4.32-2.23-8.28,1.9-11.61,1.38-1.11,1.33-2.38-.02-3.51-5.43-4.55-8.53-10.68-11.37-16.96-.84-1.85-1.6-1.83-3.07-.61-2.31,1.91-4.64,3.87-7.64,4.77,2.4-2.17,5-4.04,7.65-5.86,2.7-1.86.3-3.53-.31-5.09-.82-2.09-2.05-.5-3.01.09-1.95,1.19-3.84,2.47-5.75,3.71,1.34-2.85,3.98-3.94,6.34-5.34,1.74-1.03.9-2.17.36-3.24-.76-1.52-1.67-.64-2.51,0-2.15,1.64-3.85,3.61-5.21,6-7.63,13.38-12.47,27.7-15.37,42.83-2.49,13.03-5.35,25.97-6.63,39.21-1.78,18.47-1.52,36.99-1.64,55.51,0,1.03-.44,2.29.5,2.96,1.19.85,2.12-.41,3.11-.89,6.92-3.41,11.24-9.71,16.13-15.23,8-9.03,15.5-18.51,23.09-27.89,3.12-3.86,5.95-7.83,3.55-13.43-.92-2.14-.69-4.8-.86-7.24-.32-4.5-.51-4.75-4.89-4.52-1.03.05-2.11.17-3.07.52-9.92,3.69-20.83,5.3-28.67,13.45-.47.49-1.12,1-1.82.4-.75-.64-.68-1.47-.08-2.17.53-.61,1.16-1.14,1.79-1.66,4.94-4.12,10.74-6.42,16.88-7.95,2.13-.53,3.27-1.29,3.34-3.9.16-5.7.83-11.38,1.31-17.06.11-1.26.15-2.58,1.7-4.06-.25,4.75-.47,8.81-.68,12.87.29.07.58.15.87.22,1.32-3.7,2.4-7.53,5.55-10.36-2.31,6.54-4.62,13.07-7.25,20.5,4.9-1.93,9.27-2.91,13.81-2.24.2.03.5-.1.62-.26,1.61-2.13,3.29-2.2,5.28-.43.8.71,1.85.22,1.44-.83-.68-1.75.48-3.48-.04-5.29-1.42.83-.74,2.74-2.42,3.24Z"/><path class="cls-5" d="m910.89,422.16c-1.57,3.35-2.95,6.8-4.75,10.01-3.36,6-4.9,12.17-4.72,19.2.42,15.84-.77,31.66-2.91,47.36-3.21,23.45-5.07,46.98-5.7,70.62-.02.64-.3,1.43.83,1.77,2.56-2.22,4.53-5.19,7.42-7.21,2.96-2.07,5.92-4.22,9.34-5.38,4.15-1.41,7.05-4.92,11.18-6.29.99-.33.84-1.29.88-2.08.23-4.77.6-9.54.63-14.31.1-13.99.11-27.97.06-41.96-.09-23.19.44-46.36,2.2-69.49.25-3.31-.26-6.65.15-9.82.59-4.51-.1-9.08,1.08-13.52.28-1.06-.31-1.77-1.3-2.16-1.15-.45-1.66.26-2.2,1.11-3.72,5.79-8.33,10.87-12.74,16.12-.37.44-1,.93-.98,1.38.22,5.31-3.45,8.93-6.06,12.75-1.9,2.77-1.75,5.13-1.23,8.01,2.1-5.88,4.79-11.4,8.82-16.11Z"/><path class="cls-5" d="m985.72,337.92c.7-5,1.66-9.12,5.23-11.86,2.36-1.81,2.7-3.92,2.23-6.72-1.8-10.56-3.55-21.12-4.64-31.79-.56-5.49-1.11-11.21-6.21-14.97-1.04-.76-1.81-1.2-3.1-.6-1.27.59-2.26,1.17-2.1,2.77.07.69.07,1.39.11,2.09.48,9.43.98,18.8-3.63,27.65-1.8,3.45-1.22,7.55-.66,11.37,1.4,9.56,2.51,19.15,3.21,28.79.38,5.25.43,10.54,1.8,15.78,1.88-.78.36-2.89,1.89-3.59.61,4.31-1.86,8.44-.92,13.18,2-1.83,1.11-4.24,2.63-5.87-.69,6.18-3.07,12.13-1.37,18.76,1.76-2.06.95-4.54,3.01-6.8-.54,2.38-.74,4.09-1.31,5.66-1.82,4.98-2.17,10.27-.79,15.11,1.38,4.81,1.05,9.52,1.22,14.26.57,15.72,2.34,31.34,3.78,46.99.47,5.13.89,10.26,1.37,15.87,1.36-1.67.99-3.12,1.07-4.45.25-4.07.1-8.19.67-12.21,1.77-12.38,1.45-24.87,2.26-37.3.1-1.5.07-3.05-.17-4.53-1.11-7.03-1.33-14.09-.75-21.16.96-11.72,3.1-23.32,4.81-34.93.98-6.67-1.77-11.39-3.93-16.73-.7-1.71-1.92-3.21-2.59-4.93-.85-2.16-1.68-2.35-3.1.17Z"/><path class="cls-5" d="m930.66,368.35c0,.93.11,1.88-.02,2.79-.49,3.33,1.35,3.4,3.64,2.59,2.07-.74,4.02-1.84,6.11-2.5,2.38-.75,3.22-2.03,2.98-4.59-.81-8.65-2.2-17.36-1.85-25.99.36-8.95-1.27-17.56-2.09-26.32-.16-1.7-.38-2.46-2.49-1.88-3.19.88-6.24-.11-8.78-2.2-5.47-4.51-8.75-10.41-10.53-17.2-.31-1.19-.19-2.65-1.87-3-2.52-.52-3.7-2.63-5.16-4.41-.62-.76-.77-2.25-2.08-1.98-1.19.24-1.74,1.48-2.2,2.53-.53,1.22-.27,2.49-.11,3.77.69,5.28,2.76,10.1,4.97,14.83,4.07,8.71,7.52,17.89,15.28,24.23,1.88,1.54,1.9,2.49.15,4.06-3.53,3.17-3.7,6.52-1.73,11.07,3.3,7.63,5.89,15.64,5.77,24.18Z"/><path class="cls-2" d="m962.31,351.55c.29.08.57.17.86.25,2-3.79,4.2-7.49,7.3-10.35,2.2-2.04,2.84-3.85,2.31-6.84-1.04-5.86-.84-6.01-6.01-3.16-2.17,1.2-3,.96-3.48-1.56-.52-2.73-1.53-5.36-2.21-8.07-.43-1.69-1.74-2.16-3.1-2.26-1.83-.13-1.34,1.57-1.5,2.54-.46,2.63-.82,5.29-1.08,7.95-.46,4.7-.64,4.88-5.32,3.96-.57-.11-1.16-.15-1.71-.31-1.02-.3-2.8-.07-2.44-1.69.32-1.46,1.93-.87,3.02-.7,4.26.67,4.25.69,4.69-3.8.28-2.89.41-5.79,1.45-8.57.42-1.12,2.77-1.72,1.1-3.43-1.39-1.42-2.88-.69-4.5-.17-2.88.94-5.88,1.55-8.69-.37-.54-.37-.94-1.26-1.72-.78-.94.58-.21,1.48-.13,2.22.75,6.47,2.18,12.88,2.01,19.43-.07,2.74,1.01,4.69,3.05,6.28,3.32,2.57,6.35,5.44,8.99,8.71.58.71,1.14,1.54,2.18,1.6,1.15.06.17-1.94,1.52-1.75,1.1,1.15-.32,3.27,2.04,4.43-.34-7.95-.38-15.44-1.73-22.87-.28-1.56-3.15-1.56-1.99-4.07.78,1.16,2.62.12,2.96,2.4.81,5.41,1.66,10.8,1.77,16.29.03,1.56.22,3.12.34,4.68Z"/><path class="cls-5" d="m937.01,392.71c-.85.93.24,3.01-2.02,2.94-1.22-.04-1.44,1.29-1.45,2.41-.02,1.75-.07,3.49-.09,5.24-.2,20.27,1.04,40.5.35,60.8-.63,18.29-2.49,36.47-3.37,54.72-.05.99-.43,2.06.44,2.99.92-.58.95-1.58,1.1-2.41,2.29-12.95,3.82-26,5-39.08,1.07-11.94,1.73-23.92,2.29-35.89.64-13.5,1.04-27.02,2.47-40.45.53-4.94-1.28-8.14-4.71-11.25Z"/><path class="cls-9" d="m942.01,384.95c.63,3.12,1.19,6.17,2.56,9.02.41.85-.05,2.4,1.51,2.25,1.35-.13,1.25-1.49,1.35-2.49.32-3.1-.31-6.13-.53-9.22,1.89,3.41,2.22,7.06,1.63,10.86-.18,1.14-.06,2.13,1.24,2.5,1.57.45,1.63-.81,1.95-1.77,1.96-5.84,1.96-11.22-3.68-15.37,2.91.41,4.22,2.28,5.15,4.66,1.4,3.57,1.04,7.07-.15,10.57-.43,1.27-.51,2.41,1.09,2.69,1.52.27,1.49-1.03,1.73-2.04.9-3.83.97-7.87,3.11-11.37.74-1.21-.11-1.98-1.05-2.54-4.05-2.42-7.23-5.84-10.32-9.31-1.36-1.53-2.4-1.83-4.41-1.01-5.99,2.45-11.99,4.96-18.46,5.92-1.43.21-1.74.98-1.56,2.16.52,3.45,1.06,6.89,1.62,10.34.21,1.27.69,1.7,2.13,1.16,2.36-.88,4.69-2.39,7.23-2.13,1.94.2,3.19-.11,4.16-2.02.02,3.55,1.57,5.99,4.57,8.28-.02-4.11-2.36-7.47-.87-11.14Z"/><path class="cls-5" d="m940.74,466.3c.6-.3.85-.36.99-.51,7.09-7.63,15.74-10.94,26.12-9.66,2.44.3,4.3-.63,4.69-3.42.61-4.32-.72-7.72-3.41-7.92-9.68-.72-18.51,1.96-26.72,6.99-.93.57-1.66,1.32-1.67,2.49-.02,3.9,0,7.8,0,12.04Z"/><path class="cls-5" d="m983.68,465.62c-.38-5.44-.7-10.18-1.06-14.91-.11-1.41-.93-2.78-2.28-2.59-1.35.2-1.92.79-1.85-1.23.05-1.33-1.61-1.4-2.75-1.59-.59-.1-1.32-.2-1.59.34-.58,1.16.65,1.54,1.17,2.23,2.31,3.08,1.89,5.69-1.35,7.94-1.26.88-2.59,1.44-.35,2.86,3.21,2.03,6.26,4.3,10.06,6.94Z"/><path class="cls-4" d="m917.74,740.9c-2.93,2.41-5.32,4.17-7.93,5.66-2.6,1.49-5.03,3.29-7.48,5.03-1.89,1.34-1.47,2.19.57,3.01,5.01,2.02,9.07-.29,12.96-2.82,2.48-1.61,1.55-4.59,1.85-7.02.12-1.01.02-2.04.02-3.86Z"/><path class="cls-3" d="m969.68,310.9c-2.58,2.3-4.97,3.89-7.43,5.38-.73.44-2.04.96-1.2,2.04,2.38,3.04,2.69,6.86,4.16,10.23.38.87.81,1.46,1.79.79.89-.6.91-1.04-.04-1.81-1.61-1.31-1.42-2.88-.12-4.81.23.68.45.99.4,1.24-.57,2.65,1.68,2.94,3.07,2.95,2.13.03,1.48-1.91,1.3-3.2-.58-4.11-1.24-8.21-1.94-12.83Z"/><path class="cls-4" d="m936.19,740.34c-3.47-.49-1.32,2.66-2.4,3.86-1.18,1.31.34,2.01,1.49,2.25,5.68,1.17,11.12,3.05,16.46,5.27,1.17.49,2.34,1.01,3.55,1.34.86.24,1.98.44,2.51-.53.53-.98-.15-1.74-.97-2.31-1.61-1.13-3.2-2.39-5.2-2.68-3.57-.52-6.45-2.34-9.33-4.35-1.84-1.29-3.52-3.13-6.13-2.85Z"/><path class="cls-5" d="m963.01,370.8c0-3.72.02-6.67,0-9.62-.01-1.37-1.3-1.8-2.14-1.8-1.43,0-.8,1.3-.79,2.13,0,.85.51,1.75-.31,2.57-1.19-1.09-1.09-2.52-1.09-3.87,0-1.38-.49-2.49-1.58-3.3-.61-.45-1.06-1.42-2.02-.96-.78.38-.38,1.22-.47,1.87-.87,6.5,4.16,9.01,8.41,12.97Z"/><path class="cls-5" d="m969.14,347.95c-1.87,2.91-4.9,5.31-4.98,8.84-.06,2.74.17,5.57.27,8.35.03.88-.45,2.17.61,2.51,1.19.37,1.62-1.06,2.28-1.78.85-.92.65-2.2.66-3.35.01-2.56-.07-5.13-.09-7.69,0-.79-.42-2.07.36-2.26,3.29-.82,1.43-2.83.88-4.62Z"/><path class="cls-9" d="m970.29,306.36c-.72.15-.97.14-1.15.25-3.56,2.24-6.77,5.41-11.58,2.1-1.41-.97-1.69,1.67-2.27,2.74-.59,1.1.26,1.71,1.31,1.88,4.34.71,10.38-2.31,13.69-6.97Z"/><path class="cls-5" d="m973.31,342.42c-1.56,1.51-2.79,2.3-2.1,3.8,1.4,3.08.94,6.36,1.16,9.56.05.74-.41,1.92.74,1.97,1.05.05,1.55-1,1.47-2-.36-4.21-.79-8.42-1.27-13.33Z"/><path class="cls-5" d="m946.4,351.25h.01c0,1.28-.1,2.56.03,3.83.11,1.02.95,1.75,1.9,1.73,1.29-.02.73-1.15.74-1.87.02-1.86.1-3.72,0-5.57-.07-1.24-.88-2.59-2-2.48-1.48.15-.49,1.7-.66,2.63-.1.56-.02,1.16-.02,1.74Z"/><path class="cls-5" d="m953.15,357.12c0-1.3.14-2.37-.04-3.38-.19-1.03-.87-2.33-1.85-2.26-1.55.11-.66,1.61-.76,2.5-.11.91-.11,1.86,0,2.78.17,1.46.22,3.6,2.06,3.4,1.53-.16.23-2.19.6-3.04Z"/><path class="cls-5" d="m944.84,352.77c.05-2.86.78-5.8-.84-9.22-.85,3.57-.65,6.28.84,9.22Z"/><path class="cls-11" d="m932.7,246.08c.34-1.06-3.68-6.88-7.53-7.11-3.56-.21-7.12,2.88-7.49,4.76s-2.69,7.67-1.76,7.2,5.55-2.89,6.25-2.66.69-1.18,3.45-.73c2.73.45,7.01-1.27,7.08-1.47Z"/><path class="cls-1" d="m956.99,230.12c-.35.12-4.4.58-5.09,1.04s-3.93,2.66-4.28,3.47-2.43,3.01-1.04,3.7,1.97,0,3.47-.35,4.4-.93,6.48-1.27,7.29-1.16,8.45-1.16,3.01.69,1.27-1.04-9.26-4.4-9.26-4.4Z"/><path class="cls-8" d="m952.94,242.15c-.81.93-2.43,2.31-1.97,3.7s.35,3.47,1.27,3.7,2.31.69,3.36.58,1.85.12,2.66-1.04,1.27-2.89.93-4.05-.81-2.78-2.2-3.01-4.05.12-4.05.12Z"/><path class="cls-8" d="m927.14,250.48c-.69-.23-1.62-.23-2.2.46s-1.62,1.39-1.74,2.31-.93,2.55.46,3.12,2.2,1.16,3.36,1.27,3.01.46,3.59-.58,1.16-1.5.46-3.01-2.78-3.01-2.78-3.01l-1.16-.58Z"/><path class="cls-6" d="m921.24,554.54c-1.39,1.85-8.33,4.63-9.72,6.94s2.78,17.59,1.39,17.59h-1.39s9.26,64.33,9.26,61.09,4.63-74.97,4.17-77.75-3.7-7.87-3.7-7.87Z"/><path class="cls-4" d="m936.36,202.34c3.04,1.39,6.29,2.45,9.05,4.26,3.62,2.37,6.39,5.71,11.2,6.51,2.87.48,5.97,2.61,6.85,6.24.13.52.41.82.9.89,5.02.77,8.07,4.55,11.19,7.88,3.38,3.61,6.87,5.84,13.13,3.68-2.9,2.76-1.93,3.87-.23,5.51,3.43,3.33,2.39,7.52,1.03,11.46-2.05,5.94-5.1,11.47-6.88,17.54-.66,2.27-.98,3.86,1.08,5.47,3.7,2.89,5.49,6.83,5.71,11.5.06,1.32.54,2.39,1.42,3.45,11.4,13.71,21.61,28.29,31.28,43.25,8.1,12.52,17.47,24.13,25.91,36.41,7.11,10.34,9.69,20.99,3.6,33.07-3.59,7.12-5.66,15-8.54,22.49-3.2,8.3-7.87,15.83-12.53,23.35-3.18,5.14-6.03,10.52-9.39,15.49-2.04,3.02-1.87,5.59-1.82,8.64.45,25.03,4.72,49.54,9.66,73.98,1.56,7.72,3.04,15.46,5.27,23.03.55,1.86-.31,2.94-2.2,3.1-10.67.89-21.37.89-32.06,1.11-.79.02-1.7.06-2.06-.91-.31-.82.47-1.16.81-1.73,2.43-4.11,6.63-6.37,10.02-9.61-.74-.97-1.4-.6-2.1-.16-2.63,1.65-4.62,4.25-7.88,5-1.01.23-1.12,1.68-1.53,2.63-5.21,12-8.31,24.68-11.81,37.23-7.58,27.15-17.43,53.54-26.26,80.28-2.16,6.53-4.35,12.98-7.34,19.2-5.21,10.85-7.35,22.79-11.51,34.03-.46,1.26-.08,2.08.8,2.73,3.25,2.41,6.25,5.29,10.49,5.96,2.62.42,4.72,1.89,6.8,3.38,1.86,1.34,2.26,3.26,1.68,5.29-.68,2.38-2.92,2.32-4.64,2-2.59-.49-5.29-1.18-7.57-2.45-5.31-2.97-11.73-3.02-16.76-6.61-.65-.47-1.34.02-2,.17-.77.18-1.07-.26-1.16-.9-.17-1.33.44-2.24,1.61-2.81.86-.42,2.53-.35,2.06-1.76-.51-1.52-2.24-.7-3.42-.94-1.6-.33-1.6.79-1.69,1.9-.22,2.54.06,5.12-.62,7.64-.99,3.67-2.26,4.72-5.98,3.97-1.86-.37-2.88.67-4.07,1.45-4.92,3.24-9.99,4.09-15.53,1.68-3.49-1.52-4.16-4.08-1.39-6.95,2.97-3.08,6.98-4.58,10.7-6.43,2.49-1.24,4.61-3.14,7.35-3.94,1.49-.43.98-2,1.01-3.04.16-5.59.13-11.19.28-16.79.54-20.05.8-40.11-.15-60.13-.93-19.54-2.25-39.07-4.45-58.53-.9-7.98-1.75-15.97-2.35-23.98-.2-2.61-1.24-3.26-3.46-2.74-5.34,1.26-10.89.16-16.23,1.62-1.68.46-1.8-.86-1.67-2.18,2.31-23.64,2.39-47.47,5.89-71.01.86-5.76,1.81-11.52,2.24-17.31,1.34-18.43,2.59-36.87,1.76-55.03-2.68,2.37-5.82,4.69-8.39,7.54-3.31,3.67-6.83,6.98-11.11,9.44-1.51.87-3.07,2.02-4.83.8-1.51-1.05-1.35-2.7-1.28-4.41.29-7.1-.06-14.23.09-21.32.47-21.55,1.35-43.09,6.28-64.24,2.96-12.69,5.15-25.57,10.27-37.68,3.9-9.22,9.31-17.72,12.82-27.13.5-1.34,1.05-2.53.69-4-.59-2.43-.2-4.63,1.79-6.36,1.6-1.38.96-2.58-.26-3.81-3.11-3.14-6.32-6.19-9.23-9.51-3.99-4.54-3.4-8.58,1.44-12.17.59-.44,1.73-.76.92-1.8-.52-.67-.21-2.33-2-1.73-1.89.64-1.71-.43-1.09-1.61,1.4-2.68,2.8-5.37,4.25-8.02,1.57-2.86,2.96-5.73,3.91-8.91,1.99-6.63,7.79-10.23,12.41-14.75,1.26-1.23,3.68-1.7,2.53-4.35-.09-.21.18-.73.43-.91,5.5-3.89,7.39-11.74,14.77-13.58.7,0,1.4,0,2.09,0Zm43.29,230.18l.08.07c.88-5.12.63-10.18-.41-16.01-2.83,3.6-3.78,7.31-7.04,10.54,1.04-3.78,2.84-6.22,4.07-8.93.99-2.18,2.78-4.05,2.65-6.71-.79-16.87-1.86-33.72-3.73-50.51-.08-.69,0-1.55-.78-1.76-.78-.21-1.42.53-1.58,1.12-1.12,4.21-5.1,6.21-7.23,9.6-1.47,2.34-2.88,2.75-4.96.79-3.29-3.1-6.68-6.08-9.99-9.15-1.75-1.62-3.28-3.54-5.65-4.02,0,3.26-.02,6.38.02,9.49,0,.55.09,1.37.45,1.61,5.01,3.43,8.02,9.05,13.34,12.14,1.95,1.14,3.36,2.62,2.06,5.13-.55,1.05-.14,1.75.75,2.34,5.06,3.33,6.05,8.5,6.11,13.99.03,3.16-2.09,5.91-4.66,6.2-2.32.26-4.18-2.45-4.33-5.33-.11-2.24-1.26-2.69-3.42-2.81-3.29-.18-6.68-.62-9.75-1.74-2.39-.87-2.65-.56-2.72,1.76-.46,15.6-1.02,31.2-1.61,46.8-.07,1.86.45,2.1,1.92,1.23,4.47-2.65,9.46-3.97,14.45-4.91,4.1-.77,8.33-2.43,12.56-.69,2.63,1.08,5.5.91,8.13,1.84.82.29,1.26.05,1.75-.58,1.52-1.99,1.23-9.38-.49-11.51Zm-17.64,101.21c1.12,4.38-.24,7.81-.7,11.23-2.14,15.79-4.4,31.56-5.67,47.47-.92,11.49-.98,23.08-3.04,34.45-2.74,15.13-3.72,30.5-6.49,45.63-1.57,8.59-1.73,17.41-3.79,25.91-2.84,11.76-5.59,23.54-7.32,35.52-.15,1.01-1.14,2.47.63,2.94,1.69.45,2.06-.9,2.44-2.23,1.7-5.92,3.63-11.77,5.2-17.74,3.65-13.86,10.74-26.47,14.5-40.36,4.26-15.72,11.02-30.64,16.01-46.16,8.17-25.46,14.21-51.65,25.72-75.97.81-1.71-.14-1.98-1.33-2.41-3.55-1.27-6.4-3.77-9.69-5.51-1.49-.79-2.02-2.01-2.03-3.72-.02-5.59-.37-11.19-.27-16.78.31-17.51-.91-34.96-1.89-52.42-.07-1.27.17-2.75-.74-3.7-4.62-4.82-9.66-9.09-16.25-10.97-2.44-.7-3.27.27-3.1,2.88,1.19,17.68,1.31,35.41,2.79,53.07.1,1.21.12,2.32,1.4,2.93.65.31,1.29.81.73,1.6-.58.82-1.45.58-2.21.23-1.1-.5-1.34-1.48-1.39-2.6-.46-9.54-1.04-19.08-1.4-28.63-.34-8.97-.52-17.95-.62-26.93-.04-3.13-1.27-3.83-4.08-2.94-3.99,1.28-8.07,2.48-11.63,4.66-4.41,2.69-8.18,6.22-8.54,11.92-.97,15.12-3.88,30-5.53,45.03-.75,6.81-3.33,13.35-3.68,20.22-1.05,20.61-1.61,41.24-1.75,61.87-.15,23.2-.05,46.41-.14,69.61-.09,20.87-1.88,41.7-1.55,62.58.02,1.14-1.27,3.23,1.48,3.45,2.18.17,2.99-.86,3.54-2.86,1.27-4.62,1.26-9.42,2.45-14.08,2.41-9.46,4.88-18.98,6.24-28.63,1.82-12.92,3.8-25.81,5.57-38.74,1.58-11.54,3.97-23,5-34.58,2.23-25.18,4.45-50.35,8.66-75.29.53-3.12.97-6.29,2.5-9.98Zm56.64-75.97c.33.06.66.12.99.17,2.67-4.33,5.31-8.67,8-12.98,5.48-8.8,10.88-17.64,14.36-27.49,2.13-6.02,3.63-12.44,6.75-17.91,6.32-11.1,2.88-20.84-3.25-30.05-9.29-13.95-19.44-27.32-28.31-41.55-6.66-10.68-14.48-20.56-21.31-31.12-1.13-1.74-1.93-1.98-3.17-.04-2.23,3.48.11,6.61,0,10.06,2.36-.6,2.2-3.02,3.88-3.8.38,1.12-.18,2.05-.77,2.57-3.05,2.68-2.66,5.88-1.7,9.26.25.89.19,1.87.44,2.76,1.24,4.24.35,7.58-3.29,10.44-2.56,2-3.54,4.78-1.37,8,1.49,2.21,2.98,4.53,3.88,7.02,1.57,4.38,4.9,8.14,4.16,13.39-1.7,12.09-3.56,24.19-4.49,36.35-.83,10.91-.19,21.92-.77,32.86-1.16,22.1-3.13,44.16-3.93,66.27-.62,16.99.06,34.04.08,51.06,0,1.81,1.05,2.25,2.33,2.96,4.98,2.78,10.75,3.82,15.54,6.96,6.55,4.3,13.96,6.86,20.85,10.48,2.81,1.47,3.56.87,2.95-2.33-1.16-6.04-2.93-11.93-3.83-18.05-2.24-15.41-6.23-30.51-7.52-46.1-1.97-23.82-3.31-47.66-3.39-71.56-.05-15.04.2-30.07-2.43-44.97-.55-3.11-.68-6.35-.1-10.31,1.42,3.15.76,5.75,1.18,8.22.5,2.96.05,6.3,1.76,8.77,3.64,5.27,8.49,9.21,14.76,11.14,1.59.49,3.12,1.16,5.25,1.97-2.47,1-4.05-.59-5.71-.07-.55,1.32,1.87,1.47,1.01,2.96-1.87-.37-2.67-2.61-4.57-2.69-1.18.99.99,3.35-.8,3.2-2.47-.21-1.73,1.36-1.95,2.33-.56,2.52-1.28,4.97-2.43,7.27-2.37,4.74-3.68,10.1-3.99,15.04-.62,9.78.51,19.67.91,29.51Zm-81.3-152.46c1.29.45,1.22,1.58,1.74,2.3,1.85,2.56,3.73,5.28,6.99,5.99,2.98.65,5.74.03,7.4-3.12,1.28-2.42,2.72-4.55,6.15-2.52,1.57.93,3.56.37,5.32-.6,3.65-2.01,5.95-5.1,7.64-8.79,2.8-6.12,2.35-12.76,2.98-19.21.34-3.46.47-6.93-1.59-10.07-.71-1.09-.87-2.39-.17-4.34.56,1.11.84,1.48.94,1.9.46,1.89,1.22,3.9,3.36,3.81,2.13-.08,2.23-2.31,2.63-4.01.9-3.86,2.19-7.57,3.87-11.19,1.65-3.57,3.59-7.08,4-11.12.28-2.75-.1-5.43-2.87-6.5-2.81-1.08-5.65-.8-7.88,1.85-2.18,2.58-3.68,5.58-5.45,8.65-.54-1.36.11-2.28.42-3.21,1.37-4.07.08-6.04-3.87-7.67-3.28-1.35-6.62-.2-9.71-.28-3.38-.09-7.82.17-11.17,2.57-.86.62-1.51.26-2.2-.22-.59-.4-.51-.94-.39-1.54.99-4.86,9.48-10.24,13.77-8.06,5.19,2.63,10.91,4.69,14.72,9.54.45.57.89,1.23,1.64.59.71-.59.8-1.33.14-2.13-.88-1.06-2.35-1.65-3.02-3.44,2.84.12,4.98,5.31,7.69.39-3.21-1.03-7.1-.83-9.24-5.02,2.21.21,3.28,2.33,5.88,1.52-3.76-2.96-6.19-6.71-10.29-8.82-.67,1.8,1.42,2.51.51,4.29-.88-1.07-1.65-2.03-2.44-2.96-2.78-3.27-6.45-5.18-10.34-6.68-.47-.18-1.32.58-1.53-.54-.08-.43-.24-1.06-.03-1.29.58-.63,1.27-.13,1.92.08,2.12.69,3.7,2.57,6.12,2.66-2.25-2.27-4.48-4.99-7.95-4.6-2.09.24-2.95-.52-3.99-1.84-2.95-3.79-7.23-5.4-11.6-6.59-2.4-.65-4.99-.57-7.44,2.12,6.04.16,11.13,1.31,15.54,5.31-1.82.65-2.65-.44-3.62-.9-3.46-1.65-7.08-2.21-10.86-1.92-1,.08-2.48-.18-2.37,1.28.09,1.23,1.46.77,2.31.69,2.1-.19,4.18-.13,6.25.29,1.82.38,1.82.38,2.82,1.9-14.25-2.42-22.26,7.79-29.89,16.61-8.91,10.3-6.62,22.3-.28,33.79-2.38-2.9-3.22-6.85-8.57-5.4-2.81.76-5.55,1.72-5.57,4.93-.04,5.04,3.92,7.45,7,10.3,3.43,3.18,6.57,6.56,9.36,10.3.91,1.23,1.55,2.78,3.41,3.45.29-1.85-1.43-3.06-.9-5.67,2.01,3.92,3.88,6.8,4.76,10.38,1.87,7.61,5.54,14.18,13.21,17.3,4.42,1.8,5.37.82,4.54-3.68-.04-.2.09-.43.2-.87Zm-12.03,67.49c.02-.5-.02-.95.07-1.37.98-4.86,2.82-9.19.7-14.78-1.46-3.84-2.45-8.34-3.66-12.53-1.25-4.32-2.23-8.28,1.9-11.61,1.38-1.11,1.33-2.38-.02-3.51-5.43-4.55-8.53-10.68-11.37-16.96-.84-1.85-1.6-1.83-3.07-.61-2.31,1.91-4.64,3.87-7.64,4.77,2.4-2.17,5-4.04,7.65-5.86,2.7-1.86.3-3.53-.31-5.09-.82-2.09-2.05-.5-3.01.09-1.95,1.19-3.84,2.47-5.75,3.71,1.34-2.85,3.98-3.94,6.34-5.34,1.74-1.03.9-2.17.36-3.24-.76-1.52-1.67-.64-2.51,0-2.15,1.64-3.85,3.61-5.21,6-7.63,13.38-12.47,27.7-15.37,42.83-2.49,13.03-5.35,25.97-6.63,39.21-1.78,18.47-1.52,36.99-1.64,55.51,0,1.03-.44,2.29.5,2.96,1.19.85,2.12-.41,3.11-.89,6.92-3.41,11.24-9.71,16.13-15.23,8-9.03,15.5-18.51,23.09-27.89,3.12-3.86,5.95-7.83,3.55-13.43-.92-2.14-.69-4.8-.86-7.24-.32-4.5-.51-4.75-4.89-4.52-1.03.05-2.11.17-3.07.52-9.92,3.69-20.83,5.3-28.67,13.45-.47.49-1.12,1-1.82.4-.75-.64-.68-1.47-.08-2.17.53-.61,1.16-1.14,1.79-1.66,4.94-4.12,10.74-6.42,16.88-7.95,2.13-.53,3.27-1.29,3.34-3.9.16-5.7.83-11.38,1.31-17.06.11-1.26.15-2.58,1.7-4.06-.25,4.75-.47,8.81-.68,12.87.29.07.58.15.87.22,1.32-3.7,2.4-7.53,5.55-10.36-2.31,6.54-4.62,13.07-7.25,20.5,4.9-1.93,9.27-2.91,13.81-2.24.2.03.5-.1.62-.26,1.61-2.13,3.29-2.2,5.28-.43.8.71,1.85.22,1.44-.83-.68-1.75.48-3.48-.04-5.29-1.42.83-.74,2.74-2.42,3.24Zm-14.43,49.36c-1.57,3.35-2.95,6.8-4.75,10.01-3.36,6-4.9,12.17-4.72,19.2.42,15.84-.77,31.66-2.91,47.36-3.21,23.45-5.07,46.98-5.7,70.62-.02.64-.3,1.43.83,1.77,2.56-2.22,4.53-5.19,7.42-7.21,2.96-2.07,5.92-4.22,9.34-5.38,4.15-1.41,7.05-4.92,11.18-6.29.99-.33.84-1.29.88-2.08.23-4.77.6-9.54.63-14.31.1-13.99.11-27.97.06-41.96-.09-23.19.44-46.36,2.2-69.49.25-3.31-.26-6.65.15-9.82.59-4.51-.1-9.08,1.08-13.52.28-1.06-.31-1.77-1.3-2.16-1.15-.45-1.66.26-2.2,1.11-3.72,5.79-8.33,10.87-12.74,16.12-.37.44-1,.93-.98,1.38.22,5.31-3.45,8.93-6.06,12.75-1.9,2.77-1.75,5.13-1.23,8.01,2.1-5.88,4.79-11.4,8.82-16.11Zm74.83-84.24c.7-5,1.66-9.12,5.23-11.86,2.36-1.81,2.7-3.92,2.23-6.72-1.8-10.56-3.55-21.12-4.64-31.79-.56-5.49-1.11-11.21-6.21-14.97-1.04-.76-1.81-1.2-3.1-.6-1.27.59-2.26,1.17-2.1,2.77.07.69.07,1.39.11,2.09.48,9.43.98,18.8-3.63,27.65-1.8,3.45-1.22,7.55-.66,11.37,1.4,9.56,2.51,19.15,3.21,28.79.38,5.25.43,10.54,1.8,15.78,1.88-.78.36-2.89,1.89-3.59.61,4.31-1.86,8.44-.92,13.18,2-1.83,1.11-4.24,2.63-5.87-.69,6.18-3.07,12.13-1.37,18.76,1.76-2.06.95-4.54,3.01-6.8-.54,2.38-.74,4.09-1.31,5.66-1.82,4.98-2.17,10.27-.79,15.11,1.38,4.81,1.05,9.52,1.22,14.26.57,15.72,2.34,31.34,3.78,46.99.47,5.13.89,10.26,1.37,15.87,1.36-1.67.99-3.12,1.07-4.45.25-4.07.1-8.19.67-12.21,1.77-12.38,1.45-24.87,2.26-37.3.1-1.5.07-3.05-.17-4.53-1.11-7.03-1.33-14.09-.75-21.16.96-11.72,3.1-23.32,4.81-34.93.98-6.67-1.77-11.39-3.93-16.73-.7-1.71-1.92-3.21-2.59-4.93-.85-2.16-1.68-2.35-3.1.17Zm-55.07,30.43c0,.93.11,1.88-.02,2.79-.49,3.33,1.35,3.4,3.64,2.59,2.07-.74,4.02-1.84,6.11-2.5,2.38-.75,3.22-2.03,2.98-4.59-.81-8.65-2.2-17.36-1.85-25.99.36-8.95-1.27-17.56-2.09-26.32-.16-1.7-.38-2.46-2.49-1.88-3.19.88-6.24-.11-8.78-2.2-5.47-4.51-8.75-10.41-10.53-17.2-.31-1.19-.19-2.65-1.87-3-2.52-.52-3.7-2.63-5.16-4.41-.62-.76-.77-2.25-2.08-1.98-1.19.24-1.74,1.48-2.2,2.53-.53,1.22-.27,2.49-.11,3.77.69,5.28,2.76,10.1,4.97,14.83,4.07,8.71,7.52,17.89,15.28,24.23,1.88,1.54,1.9,2.49.15,4.06-3.53,3.17-3.7,6.52-1.73,11.07,3.3,7.63,5.89,15.64,5.77,24.18Zm31.66-16.8c.29.08.57.17.86.25,2-3.79,4.2-7.49,7.3-10.35,2.2-2.04,2.84-3.85,2.31-6.84-1.04-5.86-.84-6.01-6.01-3.16-2.17,1.2-3,.96-3.48-1.56-.52-2.73-1.53-5.36-2.21-8.07-.43-1.69-1.74-2.16-3.1-2.26-1.83-.13-1.34,1.57-1.5,2.54-.46,2.63-.82,5.29-1.08,7.95-.46,4.7-.64,4.88-5.32,3.96-.57-.11-1.16-.15-1.71-.31-1.02-.3-2.8-.07-2.44-1.69.32-1.46,1.93-.87,3.02-.7,4.26.67,4.25.69,4.69-3.8.28-2.89.41-5.79,1.45-8.57.42-1.12,2.77-1.72,1.1-3.43-1.39-1.42-2.88-.69-4.5-.17-2.88.94-5.88,1.55-8.69-.37-.54-.37-.94-1.26-1.72-.78-.94.58-.21,1.48-.13,2.22.75,6.47,2.18,12.88,2.01,19.43-.07,2.74,1.01,4.69,3.05,6.28,3.32,2.57,6.35,5.44,8.99,8.71.58.71,1.14,1.54,2.18,1.6,1.15.06.17-1.94,1.52-1.75,1.1,1.15-.32,3.27,2.04,4.43-.34-7.95-.38-15.44-1.73-22.87-.28-1.56-3.15-1.56-1.99-4.07.78,1.16,2.62.12,2.96,2.4.81,5.41,1.66,10.8,1.77,16.29.03,1.56.22,3.12.34,4.68Zm-25.31,41.16c-.85.93.24,3.01-2.02,2.94-1.22-.04-1.44,1.29-1.45,2.41-.02,1.75-.07,3.49-.09,5.24-.2,20.27,1.04,40.5.35,60.8-.63,18.29-2.49,36.47-3.37,54.72-.05.99-.43,2.06.44,2.99.92-.58.95-1.58,1.1-2.41,2.29-12.95,3.82-26,5-39.08,1.07-11.94,1.73-23.92,2.29-35.89.64-13.5,1.04-27.02,2.47-40.45.53-4.94-1.28-8.14-4.71-11.25Zm5-7.77c.63,3.12,1.19,6.17,2.56,9.02.41.85-.05,2.4,1.51,2.25,1.35-.13,1.25-1.49,1.35-2.49.32-3.1-.31-6.13-.53-9.22,1.89,3.41,2.22,7.06,1.63,10.86-.18,1.14-.06,2.13,1.24,2.5,1.57.45,1.63-.81,1.95-1.77,1.96-5.84,1.96-11.22-3.68-15.37,2.91.41,4.22,2.28,5.15,4.66,1.4,3.57,1.04,7.07-.15,10.57-.43,1.27-.51,2.41,1.09,2.69,1.52.27,1.49-1.03,1.73-2.04.9-3.83.97-7.87,3.11-11.37.74-1.21-.11-1.98-1.05-2.54-4.05-2.42-7.23-5.84-10.32-9.31-1.36-1.53-2.4-1.83-4.41-1.01-5.99,2.45-11.99,4.96-18.46,5.92-1.43.21-1.74.98-1.56,2.16.52,3.45,1.06,6.89,1.62,10.34.21,1.27.69,1.7,2.13,1.16,2.36-.88,4.69-2.39,7.23-2.13,1.94.2,3.19-.11,4.16-2.02.02,3.55,1.57,5.99,4.57,8.28-.02-4.11-2.36-7.47-.87-11.14Zm-19.93,169.86q-9.64,5.54-9.19,15.9c.05,1.16.16,2.32.27,3.47,1.97,19.56,5.11,39,5.72,58.69.01.48-.15,1.18,1.33,1.55-.19-26.5.84-52.78,1.86-79.62Zm18.66-88.51c.6-.3.85-.36.99-.51,7.09-7.63,15.74-10.94,26.12-9.66,2.44.3,4.3-.63,4.69-3.42.61-4.32-.72-7.72-3.41-7.92-9.68-.72-18.51,1.96-26.72,6.99-.93.57-1.66,1.32-1.67,2.49-.02,3.9,0,7.8,0,12.04Zm42.94-.68c-.38-5.44-.7-10.18-1.06-14.91-.11-1.41-.93-2.78-2.28-2.59-1.35.2-1.92.79-1.85-1.23.05-1.33-1.61-1.4-2.75-1.59-.59-.1-1.32-.2-1.59.34-.58,1.16.65,1.54,1.17,2.23,2.31,3.08,1.89,5.69-1.35,7.94-1.26.88-2.59,1.44-.35,2.86,3.21,2.03,6.26,4.3,10.06,6.94Zm-65.94,275.28c-2.93,2.41-5.32,4.17-7.93,5.66-2.6,1.49-5.03,3.29-7.48,5.03-1.89,1.34-1.47,2.19.57,3.01,5.01,2.02,9.07-.29,12.96-2.82,2.48-1.61,1.55-4.59,1.85-7.02.12-1.01.02-2.04.02-3.86Zm51.94-430c-2.58,2.3-4.97,3.89-7.43,5.38-.73.44-2.04.96-1.2,2.04,2.38,3.04,2.69,6.86,4.16,10.23.38.87.81,1.46,1.79.79.89-.6.91-1.04-.04-1.81-1.61-1.31-1.42-2.88-.12-4.81.23.68.45.99.4,1.24-.57,2.65,1.68,2.94,3.07,2.95,2.13.03,1.48-1.91,1.3-3.2-.58-4.11-1.24-8.21-1.94-12.83Zm-33.48,429.44c-3.47-.49-1.32,2.66-2.4,3.86-1.18,1.31.34,2.01,1.49,2.25,5.68,1.17,11.12,3.05,16.46,5.27,1.17.49,2.34,1.01,3.55,1.34.86.24,1.98.44,2.51-.53.53-.98-.15-1.74-.97-2.31-1.61-1.13-3.2-2.39-5.2-2.68-3.57-.52-6.45-2.34-9.33-4.35-1.84-1.29-3.52-3.13-6.13-2.85Zm81.72-324.51c2.87-5.21,4.86-10.68,5.76-16.53.14-.93.06-1.88-.74-2.57-1.98-1.7-3.97-3.38-6.77-5.76,1.45,8.85,1.19,16.8,1.75,24.86Zm-54.91-45.03c0-3.72.02-6.67,0-9.62-.01-1.37-1.3-1.8-2.14-1.8-1.43,0-.8,1.3-.79,2.13,0,.85.51,1.75-.31,2.57-1.19-1.09-1.09-2.52-1.09-3.87,0-1.38-.49-2.49-1.58-3.3-.61-.45-1.06-1.42-2.02-.96-.78.38-.38,1.22-.47,1.87-.87,6.5,4.16,9.01,8.41,12.97Zm1.74-135.72c-7.94-5.85-16.12-4.27-17,2.79,5.7-.37,11.05-3.1,17-2.79Zm4.4,112.87c-1.87,2.91-4.9,5.31-4.98,8.84-.06,2.74.17,5.57.27,8.35.03.88-.45,2.17.61,2.51,1.19.37,1.62-1.06,2.28-1.78.85-.92.65-2.2.66-3.35.01-2.56-.07-5.13-.09-7.69,0-.79-.42-2.07.36-2.26,3.29-.82,1.43-2.83.88-4.62Zm1.14-41.6c-.72.15-.97.14-1.15.25-3.56,2.24-6.77,5.41-11.58,2.1-1.41-.97-1.69,1.67-2.27,2.74-.59,1.1.26,1.71,1.31,1.88,4.34.71,10.38-2.31,13.69-6.97Zm35.7,260.83c3.73.73,7.16.5,10.17-1.54.9-.61,3.06-.79,2.06-2.44-.66-1.1-2.39-1.96-4.02-1-2.76,1.63-5.48,3.31-8.22,4.98Zm-32.67-224.77c-1.56,1.51-2.79,2.3-2.1,3.8,1.4,3.08.94,6.36,1.16,9.56.05.74-.41,1.92.74,1.97,1.05.05,1.55-1,1.47-2-.36-4.21-.79-8.42-1.27-13.33Zm29.45,225.66c.26-.13.68-.19.85-.43,2.01-2.96,5.46-3.71,8.24-5.47.64-.41,1.77-.74,1.16-1.72-.52-.83-1.59-1.68-2.63-.85-2.79,2.23-5.5,4.58-8.17,6.95-.63.56-.49,1.25.55,1.51Zm-56.36-216.84h.01c0,1.28-.1,2.56.03,3.83.11,1.02.95,1.75,1.9,1.73,1.29-.02.73-1.15.74-1.87.02-1.86.1-3.72,0-5.57-.07-1.24-.88-2.59-2-2.48-1.48.15-.49,1.7-.66,2.63-.1.56-.02,1.16-.02,1.74Zm-44.09-106.06c-.68.88-1.18,1.27-1.34,1.77-.85,2.56.79,5.21-.21,7.84-.1.26,1.28,1.38,2.23,1.19.88-.18.54-1.14.54-1.78-.03-2.85.1-5.73-1.22-9.02Zm50.84,111.94c0-1.3.14-2.37-.04-3.38-.19-1.03-.87-2.33-1.85-2.26-1.55.11-.66,1.61-.76,2.5-.11.91-.11,1.86,0,2.78.17,1.46.22,3.6,2.06,3.4,1.53-.16.23-2.19.6-3.04Zm-44.85,62.74c-4.74,3.5-6.92,7.34-6.2,10.88,2.22-3.89,4.21-7.38,6.2-10.88Zm116.85,147.15c-.87-1.77-2.53-1.91-3.76-2.66-1.24-.76-1.84.44-2.5,1.17-.43.47-1.25.96-.67,1.71.57.73,1.5.33,2.26.26,1.44-.14,2.95.33,4.67-.47Zm-80.3-214.25c.05-2.86.78-5.8-.84-9.22-.85,3.57-.65,6.28.84,9.22Zm-40.62,218.84c.67-.36,1.78.87,2.59-.3.13-.18,0-.75-.19-.92-.94-.79-1.97-1.12-3.19-.52-.48.24-1.1.33-1.63.26-.72-.09-1.54-.34-1.54.66,0,.94.98.74,1.62.79.69.05,1.39.01,2.34.01Zm97.7-12.74c1.63-.54,3.37-1.06,3.46-2.64.06-1.04-1.73-2.17-2.51-1.89-2.28.82.94,3.2-.95,4.53Z"/><path class="cls-4" d="m1002.34,314.05c-.86,2.59-2.29,4.76-4.88,6.09,1.15-2.38,2.66-4.5,4.88-6.09Z"/><path class="cls-4" d="m939.75,293.59c-6.69-5.5-4.17-13.88-6.26-21.11.3-.46.72.13,1.23.31,2.18.75,3.25.65,2.63-2.33-1.1-5.23-.87-10.56-.03-16.26,1.66,1.89,1.25,3.78,1.27,5.56.04,2.79-.41,5.57.13,8.36.82,4.17,2.08,5.09,6.25,4.42,4.02-.65,6.26-3.37,5.66-6.93-.64-3.82-3.41-6.54-5.06-9.85-1.61-3.24-3.29-6.44-2.84-10.25.09-.79.13-1.64,1.71-2.16-1.51,7.15,2.51,12.18,6.03,17.39,1.16,1.72,1.47,3.63,1.81,5.58.17.96-.64,2.28.56,2.85,1.25.59,1.38-1.38,2.46-1.46.82,2.82-.04,4.23-2.52,3.55-1.63-.45-2.45.16-3.29,1.06-2.62,2.78-5.64,2.85-9.02,1.75-2.75-.89-4.62.6-4.71,3.44-.17,5.7,1.06,11.04,3.99,16.07Z"/><path class="cls-4" d="m930.2,247.05c-1.53.21-2.98,1.29-4.58.51-.88-.43-1.76-.11-2.26.42-2.4,2.51-6.73,2.72-7.87,6.79-.26.92-1.04,2.58-2.43,1.72-1.1-.68.05-1.89.4-2.81,1.27-3.37,3.15-6.46,4.22-9.93,1.11-3.58,3.95-5.22,7.49-4.76,3.88.5,6.77,3.57,7.3,7.63-1.22-1.48-2-3.07-3.17-4.09-2.1-1.83-4.51-2.79-7.38-1.73-2.61.97-2.99,3.34-3.66,5.55-.21.71-.24,1.4.57,1.78.77.36,1.48.54,2.13-.34,2.82-3.8,6.13-.82,9.24-.73Z"/><path class="cls-4" d="m954.96,251.13c-3.13,0-4.86-1.82-4.81-5.09.04-3.15,1.5-4.67,4.4-4.6,3.37.09,5.51,1.82,5.54,4.49.03,3.38-1.76,5.2-5.13,5.21Zm-1.87-2.52c1.81.9,3.75,1.72,5.11-.39.91-1.42.83-3.24-.37-4.52-1.5-1.6-3.32-1.44-5.87-.07,2.45.67,5.35.08,5,3.13-.27,2.3-2.36,1.5-3.86,1.85Z"/><path class="cls-4" d="m927.88,249.78c2.55.09,4.67,2.3,4.48,4.77-.21,2.71-1.4,4.32-4.43,4.08-3.01-.24-5.27-2.16-5.14-4.58.13-2.33,2.54-4.36,5.09-4.27Zm-1.79.87c-2.27,2.06-2.86,3.53-1.09,5.01,1.59,1.33,3.4,2.42,5.56.09-3.61.53-4.61-1.41-4.48-5.1Z"/><path class="cls-4" d="m918.88,282.92c-3.21-2.63-6.63-5.06-8.16-9.29-1.07-2.94-1.95-5.99-4.99-7.67-1.82-1.01-3.57-2.19-5.6.77.11-3.04,1.43-3.82,3.23-3.32,2.83.78,5.86,1.99,6.71,5.01,1.42,5.08,4.74,8.66,8.23,12.23.48.49.84,1.08,1.26,1.62-.23.22-.46.43-.69.65Z"/><path class="cls-4" d="m946.85,281.69c2.84-.04,4.08,2.37,5.9,3.88.19.16.25.86.15.92-.36.2-.85.38-1.24.3-.42-.08-.89-.36-1.17-.69-2.69-3.32-4.95-2.34-7.14.59-.52.69-1.41,1.74-2.26,1.11-1.06-.79-.27-1.93.38-2.73,1.4-1.72,2.93-3.32,5.37-3.39Z"/><path class="cls-4" d="m974.71,253.37c2.02-9.17,5.6-12.61,10.99-10.66-7.24-.55-7.11,6.61-10.99,10.66Z"/><path class="cls-4" d="m954.15,257.91c3.4,2.56,6.07,1.63,8.74-2.1-.4,3.14-1.58,4.69-3.85,5.05-2.17.35-4.12-.18-4.88-2.95Z"/><path class="cls-4" d="m932.03,263.71c-2.83,4.76-6.2,5.05-9,0,3.64,3.59,6.34,2.48,9,0Z"/><path class="cls-4" d="m932.87,258.88c-1.6,3.7-5.14,4.38-9.05,1.5,3.5.52,6.61,1.33,9.05-1.5Z"/><path class="cls-4" d="m954.25,276.36c2.04,3.18,3.62,6.47,2.8,10.91-1.03-4.01-1.92-7.46-2.8-10.91Z"/><path class="cls-4" d="m952.53,254.03c2.73.4,5.17.28,6.78-3.44-.47,4.66-3.21,5.78-6.78,3.44Z"/><path class="cls-4" d="m908.66,432.44c-.82,4.09-2.69,7.67-5.36,10.88,1.07-3.97,3.13-7.46,5.36-10.88Z"/><path class="cls-4" d="m903.16,454.43c1.53-3.81,3.05-7.63,4.58-11.44-.33,4.29-1.97,8.09-3.79,11.83-.26-.13-.52-.26-.79-.39Z"/><path class="cls-4" d="m971.88,437.88c.08-4.74,2.89-8.31,4.59-12.35.29.12.58.25.86.37-1.82,3.99-3.64,7.98-5.46,11.97Z"/><path class="cls-4" d="m979.66,432.52c-.66,2.69-1.92,5.03-4.07,6.81.64-2.71,1.93-5.01,4.15-6.73,0,0-.08-.07-.08-.07Z"/><path class="cls-4" d="m967.91,451.23c-.05,1.22-.36,2.41-1.89,2.34-1.99-.09-2.69-1.73-3.04-3.32-.23-1.08.7-1.67,1.77-1.61,1.62.1,2.98.6,3.16,2.59Z"/><path class="cls-4" d="m959.24,452.15c-.42,1.14-1.34,1.16-2.29,1.05-.8-.09-1.8-.17-1.68-1.29.14-1.35,1.31-1.06,2.19-1.03.83.03,1.62.23,1.79,1.27Z"/></svg>