<?xml version="1.0" encoding="UTF-8"?><svg id="personnage12" xmlns="http://www.w3.org/2000/svg" xmlns:xlink="http://www.w3.org/1999/xlink" viewBox="0 0 1080 1080"><defs><style>.cls-1{fill:url(#Dégradé_sans_nom_6);}.cls-1,.cls-2,.cls-3,.cls-4,.cls-5,.cls-6,.cls-7,.cls-8,.cls-9{stroke-width:0px;}.cls-2{fill:url(#Dégradé_sans_nom_4);}.cls-3{fill:url(#Dégradé_sans_nom_4-2);}.cls-5{fill:#3b2f35;}.cls-6{fill:#585254;}.cls-7{fill:#beaa9a;}.cls-8{fill:#aeb9b0;}.cls-9{fill:url(#Dégradé_sans_nom_27);}</style><linearGradient id="Dégradé_sans_nom_6" x1="85.16" y1="752.38" x2="204.12" y2="752.38" gradientTransform="translate(-67.92 .8) skewX(4.15)" gradientUnits="userSpaceOnUse"><stop offset="0" stop-color="#3b2f35"/><stop offset=".56" stop-color="#aeb9b0"/></linearGradient><linearGradient id="Dégradé_sans_nom_4" x1="94.14" y1="671.3" x2="207.46" y2="671.3" gradientTransform="translate(-67.92 .8) skewX(4.15)" gradientUnits="userSpaceOnUse"><stop offset="0" stop-color="#3b2f35"/><stop offset=".48" stop-color="#aeb9b0"/></linearGradient><linearGradient id="Dégradé_sans_nom_27" x1="192.9" y1="617.67" x2="216.13" y2="635.42" gradientTransform="translate(-67.92 .8) skewX(4.15)" gradientUnits="userSpaceOnUse"><stop offset="0" stop-color="#f01048"/><stop offset=".88" stop-color="#3b2f35"/></linearGradient><linearGradient id="Dégradé_sans_nom_4-2" x1="222.78" y1="484.8" x2="126.71" y2="465.68" xlink:href="#Dégradé_sans_nom_4"/></defs><path class="cls-1" d="m72.23,711.42c2.55,2.51,5.63,3.85,8.97,4.76,2.18.59,4.31,1.41,6.44,2.2,10.71,3.96,21.43,7.19,32.83,6.4,7.92-.55,15.99,0,23.98-.11,1.56-.02,4.54,1.05,4.38-.94-.15-1.91-3.11-1.56-4.95-1.51-5.1.15-10.19.34-15.32-.1-15.36-1.31-30.15-6.33-45.14-10.06-3.92-.97-7.38-2.92-10.65-5.35-.84-.63-1.89-1.96-2.9-.99-.91.87-.38,2.28.29,3.41.29.49.67.93,1,1.4-1.61,1.18-2.01,2.73-1.95,4.86.39,12.61,4.48,24.97,5.07,37.57.42,9.12.98,18.25,1.95,27.36.58,5.46,2.04,10.89,8.46,13.1.26.09.7.48.67.53-1.42,2.98,1.4,2.26,2.44,2.48,8.82,1.94,17.72,2.79,26.62,3.17,8.36.36,16.65-.18,24.89-.86,7.24-.6,14.43-1.56,21.19-4.11,3.38-1.27,6.03-2.88,6.89-6.87.94-4.36,2.32-8.64,3.99-12.74,5.85-14.33,10.9-28.97,14.51-44.17.88-3.71,1.56-7.48,2.3-11.23.17-.89.43-2.68-1.07-1.83-2.67,1.51-6.31,2.27-7.68,4.99-1.45,2.88-3.48,3.86-6.34,4.08-2.09.16-4.21.13-6.3.25-1.53.09-3.34-.1-4.09,1.46-.75,1.57.81,2.67,1.7,3.79,1.85,2.33,2.67,4.64.48,6.86-5.04,5.09-6.49,11.24-4.2,18.6-2.04-.94-2.52-2.5-2.71-4.25-.66-5.78.95-10.7,4.79-14.71,1.76-1.84,1.36-3.44-.02-5.6-2.72-4.26-6.76-5.34-11-5.34-12.56.01-25.12-.3-37.71-.92-4.33-.22-8.7-.33-12.93-1.94-7.86-3-15.72-6.04-23.58-9.04-2.34-.89-4.22-2.27-5.3-4.61Z"/><path class="cls-8" d="m205.85,587.77c.33.02.67.03,1,.05,1.91,23.08,4.79,46.2,2.55,69.21,1.23-1.26,1.57-2.8,1.81-4.39,1.93-13.06.65-26.49,1.58-39.69.89-12.63-.42-25.52-2.56-38.29-.78-4.66-1.18-9.24-5.33-13.18-8.11-7.71-17.49-13.83-25.48-21.63-1.17-1.14-2.1-1.47-3.43-.4-2.12,1.7-4.63,2.81-7.41,3.11-2.11.23-2.04,1.23-1.11,2.63,2.26,3.42,3.32,7.27,4.45,11.03,2.41,8.02,3.86,16.21,4.55,24.44.73,8.79,1.41,17.59,1.84,26.38.14,2.86,2.22,5.27,1.84,8.16-1.06,7.95-1.89,15.93-1.6,24.08.07,1.94.04,4.3-2.62,4.99-.55-1.25-.06-2.29-.03-3.36.35-11.27,1.36-22.47.65-33.83-.94-15.02-2.01-30.04-5.34-44.93-1.45-6.49-3.67-12.84-7.56-18.53-1.36-1.98-3.12-3.68-5.66-2.82-9.97,3.36-19.88,2.25-30.04-1.68-5.22-2.02-8.96-5.27-11.9-9.84-.45-.7-.25-2.13-1.47-1.97-1.26.16-.91,1.52-1,2.46-.27,3.07-1.04,5.92-3.86,7.44-7.22,3.87-14.21,8.29-21.85,11.25-10.95,4.24-21.43,9.27-31.83,14.51-2.13,1.07-3.64,2.52-4.66,4.66-2.51,5.26-4.65,10.79-7.81,15.61-5.86,8.94-10.76,18.38-14.78,28.33-5.77,14.3-8.83,29.25-7.68,45.28.65,9.05,3.89,17.81,4.29,26.84.09,1.99,1.56,2.29,3.14,2.27,1.45-.01,2.89-.11,3.93,1.41,2.33,3.4,5.35,5.23,9.49,4.89,3.49-.29,7.2,1.91,10.41-1.44,2.29-2.39,4.51-1.23,5.74,2.12.23.64.36,1.31.55,1.96.98,3.37,1.61,3.8,4.24,1.83,3.06-2.29,6.04-3.54,10.03-1.6,1.26.61,2.49.89,2.06-1.65-1.63-9.73-1.18-19.27,1.62-28.47,1.39-4.58,3.74-8.44,7.64-11.27,1.34-.97,3.91-1.5,3.68-3.17-.31-2.26-3.01-1.19-4.56-1.89-.31-.14-.61-.35-.93-.44-3.67-1.08-8,.01-8.47,2.76-1.1,6.44-4.3,12.01-5.86,18.25-1.19,4.75-.78,9.64-.94,14.49-.02.72.28,1.83-.84,1.78-1.1-.05-.9-1.17-.94-1.87-.28-4.67-.19-9.28.54-13.88.98-6.13,4.85-11.09,5.47-17.34.23-2.31,1.12-4.4,3.34-5.63,1.51-.84,1.45-2.44.6-3.79-1.1-1.76-2.35-.66-3.4,0-2.11,1.34-3.79,3.14-5.18,5.22-5.32,7.97-11.59,15.19-17.62,22.59-.69.84-1.28,1.82-2.98,1.97.37-.79.49-1.21.73-1.53,6.61-8.73,14.21-16.64,20.5-25.64.84-1.2,2.25-1.97,3.32-3.01.69-.67,2.5-.77,1.74-2.21-.62-1.17-2.06-.61-3.07-.41-4.46.88-7.73,3.76-11.18,6.29-4.16,3.06-8.32,6.11-13.44,7.61-1.28.38-2.59,1-4.35-.55,7.45-1.87,13.04-6.03,18.67-10.15,2.95-2.16,6.13-4.81,10-4.13,5.4.95,7.54-1.68,9.12-5.77.27-.7.71-1.33,1.06-2,5.6-10.84,9.69-22.43,14.85-33.49.48-1.04.54-2.51,2.04-2.88.42.94.08,1.53-.19,2.1-6.5,13.77-11.42,28.34-19.24,41.43-2.38,3.97-.32,7.78,4.2,8.18.11,0,.22.01.33.03,7.93.88,8.84,1.6,10.72,9.03.43,1.7,1.55,2.3,2.95,2.98,15.05,7.3,30.84,9.5,46.85,10.11,3.78.14,6.93-1.42,8.79-4.54,1.68-2.82,3.81-5.18,6.09-7.45.85-.85,1.86-1.62,1.97-2.86.27-3.24,2.43-3.9,5.1-3.52,4.18.58,8.49,2.02,11.28-2.33.09-.13.42-.17.62-.14,2.11.4,2.7-1.1,3.1-2.57,2.3-8.47,6.46-16.05,10.05-23.9.67-1.46.78-3.53,1.89-4.4,5.1-3.99,8.03-10.1,13.59-13.61,1.98-1.26,2.58-3.28,2.34-5.71-.33-3.31-.5-6.62-.74-9.93Z"/><path class="cls-2" d="m139.97,684.45c.42,1.34-2.08,1.74-.76,3.15.61.66,1.74.67,2.54.25,3.2-1.68,6.61-1.18,10.03-.28,6.86,1.8,13.74,1.73,20.61,1.68,4.19-.04,7.8-1.96,11.49-3.49.72-.3,1.74-.79,1.39-1.89-.29-.94-1.31-1.39-2.15-1.47-1.66-.15-3.33-.05-5-.05,2.69-1.26,5.44-1.88,8.22-2.35.98-.17,1.77-.37,1.66-1.51-.13-1.31-1.1-1.61-2.2-1.6-2,.02-3.99.16-5.99.07-2.42-.1-4.91.64-7.73-.85,2.71-1.38,5.34-.75,7.8-.81,2.98-.08,5.3-1.16,7.12-3.32.68-.81,1.62-1.64.92-2.88-.64-1.14-1.8-.59-2.76-.67-3.53-.28-7.06-.57-10.59-.86,0-.35,0-.7,0-1.05,2.41,0,4.82,0,7.23,0,1.99,0,3.64-.7,4.91-2.15,1.3-1.48.66-3.08-.08-4.66-.43-.91-1-2.34-2.05-1.94-3.07,1.18-6.45-.11-9.58.97-3.07,1.07-6.47,1.33-9.73,1.95-.16-.25-.33-.5-.49-.76,4.91-1.82,10.95-2.4,11.38-9.73-3.22,2.52-6.98,3.39-10.55,3.29-4.55-.13-6.33,2.37-7.53,5.66-1.84,5.05-5.61,8.26-9.68,11.27-1.97,1.46-4.19,2.04-6.74,2.04-7.36,0-14.68-.82-22-2.09-2.16-.38-3.85-.58-3.24,2.48.21,1.07.35,2.37-1.08,2.71-1.24.29-2.29-.16-3.1-1.46,1.2-.25,2.88,1.38,3.09-.75.16-1.62.26-3.47-1.91-4.22-1.5-.52-3.07-.78-4.57-1.28-1.77-.59-2.23.44-2.25,2.34-.95-1.88-1.49-3.26-2.93-4.05-3.62-1.97-7.18-4.05-10.82-5.97-1.34-.71-2.63-1.35-3.54-2.63-2.37-3.34-2.74-3.43-5.54-.71-1.14,1.11-2.08,2.45-2.94,3.8-2.81,4.37-3.36,9.58-4.23,14.63-.75,4.33-1.01,8.75-.24,13.23.47,2.72,1.56,4.19,4.89,4.3,8.43.27,16.49-1.25,24.61-2.51,7.56-1.18,14.84-4.13,22.79-2.78,4.57.77,7.99-.77,11.33-3.07Z"/><path class="cls-8" d="m171.36,697.37c-.72-.07-1.04.38-1.27.86-1.18,2.42-2.31,4.87-3.49,7.29-1.34,2.72-5.83,4.01-8.6,2.49-2.17-1.19-2.26-3.57-.29-7.01,1.18-2.05,2.47-4.05,3.45-6.21.49-1.09,1.62-2.88-.68-3.51-3.04-.83-6.09-2.3-9.2-2.07-8.5.63-17.02.71-25.62.15-2.64-.17-5.36.13-7.89.72-12.14,2.84-24.39,5.11-37.13,5-.75,0-1.98.05-2.14.46-1.54,3.92-4.54,1.63-7.08,1.33-1.16-.14-2.89-1.81-3.34.18-.36,1.59.05,3.66,2.35,4.33,1.45.43,2.73,1.19,3.9,2.12,4.26,3.39,9.13,5.12,14.23,6.37,3.83.94,7.62,2.13,11.42,3.22,12.65,3.64,25.36,6.64,38.38,6.32,1.09-.03,2.41.35,3.15-.54,3.01-3.63,7.22-2.69,10.67-1.11,3.91,1.79,7.6,1.54,11.44,1.76,2.12.13,3.23-.77,3.98-2.54,2.09-4.91,3.2-10.14,3.73-15.51.13-1.3,1.19-2.65.02-4.09Z"/><path class="cls-5" d="m97.15,800.3c-2.37-.42-3.02.11-2.87,1.8.34,3.9.73,7.74,2.55,11.45,5.22,10.59,8.33,21.59,8.13,33.14-.06,3.54-.49,7.06-.38,10.6.56,18.06-.36,35.97-1.14,53.9-.02.49.16.8.54,1.13,3.14,2.77,6.49,2.12,7.58-1.66,2.06-7.12,2.66-14.62,4.09-21.9,1.81-9.21,2.04-18.76,4.65-27.84,2.22-7.71,3.96-15.67,5-23.7.81-6.31,2.53-12.27,4.06-18.3,1.31-5.16,3.29-10.11,5.05-15.12.63-1.78.08-2.55-1.79-2.43-2.65.16-5.28.42-7.93.56-9.43.5-18.89-.7-27.54-1.61Z"/><path class="cls-5" d="m122.98,916.55c2.02-.33,3.93-.87,2.81-3.71-.48-1.22-.09-2.16.16-3.21,3.16-12.92,6.52-25.78,9.42-38.77,3.18-14.28,6.51-28.49,10.6-42.49,2.56-8.75,6.57-16.96,7.94-26.13.21-1.41,1.13-2.99-1.61-2.73-4.49.42-8.98.85-13.48,1.24-1.18.1-2.03.35-2.42,1.67-3.62,12.13-7.37,24.26-9.6,36.81-2.33,13.13-5.81,25.95-7.28,39.31-1.19,10.8-3.01,21.49-4.52,32.23-.13.91-.92,2.07.31,2.74,2.39,1.3,4.78,2.76,7.67,3.05Z"/><path class="cls-8" d="m206.37,607.9c-1.88,3.54-3.14,7.31-5.01,10.78-5.85,10.81-9.51,22.71-15,33.7-.43.86-.95,1.84.11,2.72,5.77,4.78,1.65,10.68,2.91,15.98.12.52-.71,1.29-1.23,1.81-1.09,1.1-1.06,1.9.43,2.88,1.83,1.21,1.93,2.92,1.27,4.75-.65,1.83-1.27,3.69-1.74,5.58-.26,1.04-.72,1.81-1.67,2.21-2.99,1.24-5.73,3.15-9.09,3.41-2.3.18-2.84,1.52-3.08,3.4-.35,2.8-.02,5.64.01,8.46.05,4.11-.83,8.16-1.28,12.24-.21,1.87.51,2.4,2.34,1.87,2.59-.76,4.59-2.28,6.53-4.01,5.57-4.98,8.89-11.43,11.65-18.33,4.97-12.43,10.25-24.73,13.17-37.99,1.73-7.84,1.27-15.97,1.43-24.04.17-8.42-.86-16.81-1.74-25.39Z"/><path class="cls-9" d="m178.45,655.69c2.87-.13,5.09-1.06,6.07-3.97.97-2.87,2.08-5.7,3.3-8.47,4.26-9.67,8.24-19.48,13.3-28.75.98-1.8,2.17-4.6.71-5.76-1.54-1.23-2.51,1.72-3.38,2.92-2.25,3.11-5.44,5.36-7.26,8.87-5.33,10.28-7.53,22.11-14.12,31.75-.23.34-.31.81-.43,1.22-.46,1.61.19,2.33,1.82,2.17Z"/><path class="cls-3" d="m114.43,440.15c1.99-5.01,6.98-9.42,8.22-12.66s8.77-9.13,9.84-10.6,14.9-5.89,16.67-5.89,9.54,1.47,14,2.06,8.57,4.42,10.79,6.48,7.53,10.31,7.91,11.49,5.95,8.84,7.53,10.31,3.02,5.01,2.79,5.89,4.35,7.07,3.36,9.72-.9,3.83-2.2,6.18-2.54,5.6-2.12,7.36c.42,1.77,1.23,4.71,1.1,7.07s.74,6.18-.56,8.54,2.52,26.51,1.51,28.86-2.52,4.09-4.73,4.99-5.41,1.49-6.82,2.37-4.42,4.12-6.75,4.42-2.76,2.65-2.76,2.65c0,0,1.76,7.95.1,9.42s-4.9,5.6-7.45,2.95-5.58-3.83-9.33-2.65-16.16,4.71-23.2,1.18-12.49-5.6-14.16-8.25-.57-2.72.21-4.75,1.99-5.56,2.45-7.33,2.43-11.19,2.3-12.96-1.08-6.77-1.68-10.9c-.59-4.12.49-10.44.49-10.44,0,0-2.39,2.81-4.38.59s-3.98-5.16-6.74-6.64-6.3-1.47-7.79-1.77-6.87-9.42-2.96-12.37,8.48-5.01,8.48-5.01l5.89-20.32Z"/><path class="cls-7" d="m183.42,469.69c1.96.11,3.63-.74,4.08-3.01.33-1.68-.57-3.09-2.05-3.98-1.09-.66-2.49-1.39-2.33.94.12,1.8-.9,2.55-2.52,2.75-.62.08-1.44-.15-1.61.72-.18.96.65,1.35,1.27,1.85.87.71,1.85.82,3.17.73Z"/><path class="cls-6" d="m187.89,461.36c-.91-.29-.15-2.06-3.34-3.39s-3.58-.59-4.44-.29-1.62,2.06-2.31,2.65-1.26,2.95-.24,2.8,1.62,0,3.46-1.03,1.82-1.33,2.73-1.03,2.57.88,2.57.88l1.58-.59Z"/><path class="cls-6" d="m163.59,457.53c-.59.26,1.4-1.03-2.04-3.68s-5.36-2.8-5.8-2.8-4.31,1.47-4.98,2.5-1.66,3.53-1.73,4.56,1.17-.15,3.17-1.03,2.16-.74,3.9-1.03,2.16-.74,2.6-.74,5.88,1.77,4.88,2.21Z"/><path class="cls-7" d="m153.64,458.56c-.73.15-2.54-.44-3.38.15s-1.08,3.39-1.02,4.27.91,2.36,1.85,3.09,3.26,2.21,4.73,2.21,3.37-.29,4.66-.74,2.95-2.06,3.19-2.8.42-4.42.23-5.01-2.03-3.53-2.61-3.53-2.52-.15-3.23.15-4.41,2.21-4.41,2.21Z"/><path class="cls-4" d="m102.02,912.4c-1.2,1.77-5.55,8.84-7.12,11.49s-7.69,9.72-1.41,11.04,10.21,6.63,15.8,4.42c5.59-2.21,10.52-1.33,11.17-4.42s-.16-2.21,2.46-2.65c2.62-.44,6.19,0,9.76.44,3.57.44,6.25.88,11.09.44s13.87,2.21,6.88-2.65c-6.99-4.86-13.37-7.51-16.21-10.16s-6.7-7.07-6.7-7.07c0,0,.8,4.86-2.71,5.3-3.51.44-10.02-3.98-11.34-3.98s-1.61,2.21-5.18,1.77c-3.57-.44-6.48-3.98-6.48-3.98Z"/><path class="cls-4" d="m179.69,458.05c2.11-2.19,4.56-1.15,6.71.13,2.58,1.54,3.01,4.17,2.77,6.84-.26,2.91-1.63,4.94-4.59,5.54-.84.17-1.77.19-2.65.08-3.99-.5-4.51-.2-3.81,3.9.49,2.84,1.21,5.84,2.65,8.35,1.71,2.98,5.09,2.64,7.91,2.58,2.5-.05,2.6-2.45,2.63-4.2.06-3.2-.04-6.48-.62-9.67-.85-4.64.93-8.28,3.03-12.83-.02,1.29.13,1.82-.06,2.11-3.21,4.83-1.85,10.36-1.37,15.77.23,2.55.74,5.13.07,7.62-.37,1.39.26,2.34,1.4,3.15,2.17,1.53,3.01,3.68,3.12,6.16.46,10.23.94,20.45,1.35,30.68.03.86-.25,1.74-.54,2.54-.52,1.43-1.66,2.47-3.16,2.41-1.67-.07-1.88-1.88-2.29-3.06-.54-1.59-.59-3.3-.99-4.94-.39-1.58-.86-2.04-2.76-1.26-5.13,2.1-8.58,7.02-14.6,7.63-1.75.18-1.16,1.65-.29,2.82,5.55,7.5,12.75,13.01,20.47,18.09,5.65,3.72,10.22,8.89,15.22,13.46,1.9,1.74,2.64,4.25,2.93,6.77,2.2,18.91,3.84,37.77,1.58,56.51-.88,7.29.25,14.84-.49,22.21-.48,4.75-.74,9.87-3.11,13.64-6.92,11.04-8.86,24.24-14.36,35.85-1.74,3.68-2.42,7.85-4.52,11.42-.88,1.49-2.2,3.49.23,5.34.18.14.28.67.18.89-4.03,8.59-4.3,18.37-6.76,27.47-3.28,12.14-8.28,23.52-12.21,35.36-1.23,3.71-2.58,7.4-3.42,11.23-.95,4.33-3.51,7.21-7.65,7.79-5.3.75-6.63,4.17-6.77,8.59-.12,3.88-1.7,7.19-2.84,10.68-4.7,14.35-8.6,28.95-11.7,43.84-3.18,15.3-6.89,30.45-10.97,45.48-1.23,4.54,1.02,8.46,2.57,12.54.11.29.42.65.69.74,5.3,1.63,8.78,6.74,14.21,8.14,1.72.44,3.29,1.25,3.55,3.25.3,2.24-1.57,2.58-3.05,3.17-4.25,1.67-8.89,1.23-13.42,1.34-2.55.06-5.11.05-7.67,0-1.35-.03-3.03-.12-3.16-1.85-.15-1.86,1.54-1.71,2.89-1.67,4.12.13,8.24.28,12.36.4.89.03,1.81.12,2.66-.03,1.65-.28,4.26.32,4.58-1.43.29-1.57-2.39-1.54-3.64-2.43-3.44-2.45-6.54-5.45-10.54-7.03-1.35-.54-1.38-2.29-2.66-3.4-1.35,1.54-1.93,3.9-4.53,4.03-2.86.14-5.19-1.28-7.65-2.5-.9-.44-1.92-2.05-2.85-.84-.78,1.01.62,2,1.29,2.86,2.05,2.63,3.92,5.37,5.58,8.25.6,1.04,1.54,2.07.05,2.73-1.13.5-2.33-.24-2.69-1.42-1.14-3.69-3.83-6.48-5.8-9.69-2.27-3.71-6.59-3.06-9.65-5.11-.69-.46-1.2.71-1.58,1.32-1.88,3.01-3.78,6.01-5.58,9.07-.8,1.37.48,6.24,1.73,7.08.95.64,1.76.11,2.47-.29,3.77-2.15,8.03-1.84,12.26-1.66,1.12.05,2.61.2,2.74,1.49.13,1.33-1.31,1.55-2.45,1.51-4.52-.16-8.7.67-12.76,2.49-3.14,1.41-4.28.02-6.06-3.24-2.46-4.52-1.47-7.86,1.38-11.11.7-.8,1.17-1.8,1.82-2.66,4.05-5.32,5.6-11.58,5.15-18.36-.78-11.72,1.11-23.16.61-34.85-.45-10.33.81-20.59-.71-30.95-.97-6.67-3.33-13.12-6.11-19.37-1.86-4.18-2.74-8.39-2.72-12.76.01-2.3-.9-3.57-3.2-4.01-3.21-.6-6.09-2.37-9.3-3.19-2.89-.74-3.78-4.13-5.19-6.52-1.81-3.09-2.42-6.58-2.73-10.04-1-11.02-.75-22-1.49-33.01-.4-5.98-1.43-11.99-2.5-17.95-.95-5.26-.31-10.45-.94-15.67-.47-3.84-.26-7.63-.29-11.44-.02-3.36-.73-3.62-3.52-2.17-4.25,2.21-5.5,1.6-6.65-3.24-1.11-4.67-1.99-5.05-5.49-2.19-1.87,1.53-3.66,2.5-6.27.94-.88-.53-2.19-.45-3.27-.42-4.14.13-7.78-1.02-10.44-4.61-1.32-1.77-2.98-1.33-4.6-1.29-1.92.05-3.26-.45-3.45-2.75-1.02-12.33-4.53-24.48-4.71-36.91-.13-8.93,2.01-17.21,3.92-25.59,2.47-10.85,7.48-20.56,12.74-30.08,4.78-8.65,9.79-17.17,14.14-26.09,1.02-2.09,2.35-3.8,4.48-4.88,10.69-5.38,21.43-10.6,32.79-14.75,7.7-2.81,14.78-7.11,22.02-10.92,2.52-1.33,3.63-3.94,3.89-6.77.28-3.1,1.76-4.87,4.91-4.88,1.42,0,1.86-.62,2.18-1.83,2.45-9.17,3.21-18.52,1.32-28.2-.29-1.47-.78-3,0-5.3,2.04,4.47,3.12,8.45,4.85,12.21,2.29,4.97,6.7,6.7,10.98,8.76,1.78.86,2.02-.81,2.29-1.89,1.48-5.71,3.62-11.15,5.37-16.75.96-3.06,2.6-5.14,5.65-6.07,2.7-.82,5.26-2.02,8.13-2.39.82-.1,1.9-.26,2-1.32.09-.98-.89-1.24-1.61-1.51-2.17-.82-3.56-2.44-3.56-4.58,0-2.39,2.39-2.25,4.21-3.2-.54,1.93-3.29,1.67-2.73,3.96.49,1.99,2.2,2.48,3.67,3.32,1.43.81,1.85,2.22,2.36,3.63,1.8,4.96,12.51,7.61,15.86,3.99,1.35-1.46,1.32-3.35.61-4.99-2-4.62-2.6-9.21-2.16-14.05.19-2.12-.63-4.41-1.04-6.62-1.38-7.36,3.1-14.38,10.23-16.01,4.06-.93,4.4-1.14,1.99-4.82-3.94-6.02-8.63-11.59-12.52-17.64-2.84-4.42-6.47-7.5-11.2-9.22-8.44-3.06-16.92-3.39-24.55.46-7.58,3.83-15.07,8.14-18.64,16.58-.43,1.01-.56.95-3.23,2.33,1.93-4.53,3.75-8.21,6.76-11.03,3.61-3.38,7.68-6.32,12.19-8.38,11.23-5.13,22.69-4.93,34.06,2.24,3.75,2.36,5.6,6.37,8.02,9.82,2.5,3.58,5.09,7.09,7.86,10.46.82,1,1.4,2.08,1.91,3.23,1.4,3.15,3.32,5.91,5.64,8.57,2.79,3.18,5.22,6.79,4.6,11.29-.12.86-.04,1.99-1,2.23-1.13.28-1.37-.94-1.84-1.68-.25-.39-.44-.81-.66-1.2-3.59-6.27-6.07-7.56-12.93-6.71-3.83.48-6.47,4.38-5.02,7.44.17.73.16,1.88,1.25,1.58,2.77-.74,5.54-1.01,8.52.05-2.14-2.85-4.64-4.03-7.8-3.05Zm-107.46,253.37c2.55,2.51,5.63,3.85,8.97,4.76,2.18.59,4.31,1.41,6.44,2.2,10.71,3.96,21.43,7.19,32.83,6.4,7.92-.55,15.99,0,23.98-.11,1.56-.02,4.54,1.05,4.38-.94-.15-1.91-3.11-1.56-4.95-1.51-5.1.15-10.19.34-15.32-.1-15.36-1.31-30.15-6.33-45.14-10.06-3.92-.97-7.38-2.92-10.65-5.35-.84-.63-1.89-1.96-2.9-.99-.91.87-.38,2.28.29,3.41.29.49.67.93,1,1.4-1.61,1.18-2.01,2.73-1.95,4.86.39,12.61,4.48,24.97,5.07,37.57.42,9.12.98,18.25,1.95,27.36.58,5.46,2.04,10.89,8.46,13.1.26.09.7.48.67.53-1.42,2.98,1.4,2.26,2.44,2.48,8.82,1.94,17.72,2.79,26.62,3.17,8.36.36,16.65-.18,24.89-.86,7.24-.6,14.43-1.56,21.19-4.11,3.38-1.27,6.03-2.88,6.89-6.87.94-4.36,2.32-8.64,3.99-12.74,5.85-14.33,10.9-28.97,14.51-44.17.88-3.71,1.56-7.48,2.3-11.23.17-.89.43-2.68-1.07-1.83-2.67,1.51-6.31,2.27-7.68,4.99-1.45,2.88-3.48,3.86-6.34,4.08-2.09.16-4.21.13-6.3.25-1.53.09-3.34-.1-4.09,1.46-.75,1.57.81,2.67,1.7,3.79,1.85,2.33,2.67,4.64.48,6.86-5.04,5.09-6.49,11.24-4.2,18.6-2.04-.94-2.52-2.5-2.71-4.25-.66-5.78.95-10.7,4.79-14.71,1.76-1.84,1.36-3.44-.02-5.6-2.72-4.26-6.76-5.34-11-5.34-12.56.01-25.12-.3-37.71-.92-4.33-.22-8.7-.33-12.93-1.94-7.86-3-15.72-6.04-23.58-9.04-2.34-.89-4.22-2.27-5.3-4.61Zm133.61-123.64c.33.02.67.03,1,.05,1.91,23.08,4.79,46.2,2.55,69.21,1.23-1.26,1.57-2.8,1.81-4.39,1.93-13.06.65-26.49,1.58-39.69.89-12.63-.42-25.52-2.56-38.29-.78-4.66-1.18-9.24-5.33-13.18-8.11-7.71-17.49-13.83-25.48-21.63-1.17-1.14-2.1-1.47-3.43-.4-2.12,1.7-4.63,2.81-7.41,3.11-2.11.23-2.04,1.23-1.11,2.63,2.26,3.42,3.32,7.27,4.45,11.03,2.41,8.02,3.86,16.21,4.55,24.44.73,8.79,1.41,17.59,1.84,26.38.14,2.86,2.22,5.27,1.84,8.16-1.06,7.95-1.89,15.93-1.6,24.08.07,1.94.04,4.3-2.62,4.99-.55-1.25-.06-2.29-.03-3.36.35-11.27,1.36-22.47.65-33.83-.94-15.02-2.01-30.04-5.34-44.93-1.45-6.49-3.67-12.84-7.56-18.53-1.36-1.98-3.12-3.68-5.66-2.82-9.97,3.36-19.88,2.25-30.04-1.68-5.22-2.02-8.96-5.27-11.9-9.84-.45-.7-.25-2.13-1.47-1.97-1.26.16-.91,1.52-1,2.46-.27,3.07-1.04,5.92-3.86,7.44-7.22,3.87-14.21,8.29-21.85,11.25-10.95,4.24-21.43,9.27-31.83,14.51-2.13,1.07-3.64,2.52-4.66,4.66-2.51,5.26-4.65,10.79-7.81,15.61-5.86,8.94-10.76,18.38-14.78,28.33-5.77,14.3-8.83,29.25-7.68,45.28.65,9.05,3.89,17.81,4.29,26.84.09,1.99,1.56,2.29,3.14,2.27,1.45-.01,2.89-.11,3.93,1.41,2.33,3.4,5.35,5.23,9.49,4.89,3.49-.29,7.2,1.91,10.41-1.44,2.29-2.39,4.51-1.23,5.74,2.12.23.64.36,1.31.55,1.96.98,3.37,1.61,3.8,4.24,1.83,3.06-2.29,6.04-3.54,10.03-1.6,1.26.61,2.49.89,2.06-1.65-1.63-9.73-1.18-19.27,1.62-28.47,1.39-4.58,3.74-8.44,7.64-11.27,1.34-.97,3.91-1.5,3.68-3.17-.31-2.26-3.01-1.19-4.56-1.89-.31-.14-.61-.35-.93-.44-3.67-1.08-8,.01-8.47,2.76-1.1,6.44-4.3,12.01-5.86,18.25-1.19,4.75-.78,9.64-.94,14.49-.02.72.28,1.83-.84,1.78-1.1-.05-.9-1.17-.94-1.87-.28-4.67-.19-9.28.54-13.88.98-6.13,4.85-11.09,5.47-17.34.23-2.31,1.12-4.4,3.34-5.63,1.51-.84,1.45-2.44.6-3.79-1.1-1.76-2.35-.66-3.4,0-2.11,1.34-3.79,3.14-5.18,5.22-5.32,7.97-11.59,15.19-17.62,22.59-.69.84-1.28,1.82-2.98,1.97.37-.79.49-1.21.73-1.53,6.61-8.73,14.21-16.64,20.5-25.64.84-1.2,2.25-1.97,3.32-3.01.69-.67,2.5-.77,1.74-2.21-.62-1.17-2.06-.61-3.07-.41-4.46.88-7.73,3.76-11.18,6.29-4.16,3.06-8.32,6.11-13.44,7.61-1.28.38-2.59,1-4.35-.55,7.45-1.87,13.04-6.03,18.67-10.15,2.95-2.16,6.13-4.81,10-4.13,5.4.95,7.54-1.68,9.12-5.77.27-.7.71-1.33,1.06-2,5.6-10.84,9.69-22.43,14.85-33.49.48-1.04.54-2.51,2.04-2.88.42.94.08,1.53-.19,2.1-6.5,13.77-11.42,28.34-19.24,41.43-2.38,3.97-.32,7.78,4.2,8.18.11,0,.22.01.33.03,7.93.88,8.84,1.6,10.72,9.03.43,1.7,1.55,2.3,2.95,2.98,15.05,7.3,30.84,9.5,46.85,10.11,3.78.14,6.93-1.42,8.79-4.54,1.68-2.82,3.81-5.18,6.09-7.45.85-.85,1.86-1.62,1.97-2.86.27-3.24,2.43-3.9,5.1-3.52,4.18.58,8.49,2.02,11.28-2.33.09-.13.42-.17.62-.14,2.11.4,2.7-1.1,3.1-2.57,2.3-8.47,6.46-16.05,10.05-23.9.67-1.46.78-3.53,1.89-4.4,5.1-3.99,8.03-10.1,13.59-13.61,1.98-1.26,2.58-3.28,2.34-5.71-.33-3.31-.5-6.62-.74-9.93Zm-65.87,96.68c.42,1.34-2.08,1.74-.76,3.15.61.66,1.74.67,2.54.25,3.2-1.68,6.61-1.18,10.03-.28,6.86,1.8,13.74,1.73,20.61,1.68,4.19-.04,7.8-1.96,11.49-3.49.72-.3,1.74-.79,1.39-1.89-.29-.94-1.31-1.39-2.15-1.47-1.66-.15-3.33-.05-5-.05,2.69-1.26,5.44-1.88,8.22-2.35.98-.17,1.77-.37,1.66-1.51-.13-1.31-1.1-1.61-2.2-1.6-2,.02-3.99.16-5.99.07-2.42-.1-4.91.64-7.73-.85,2.71-1.38,5.34-.75,7.8-.81,2.98-.08,5.3-1.16,7.12-3.32.68-.81,1.62-1.64.92-2.88-.64-1.14-1.8-.59-2.76-.67-3.53-.28-7.06-.57-10.59-.86,0-.35,0-.7,0-1.05,2.41,0,4.82,0,7.23,0,1.99,0,3.64-.7,4.91-2.15,1.3-1.48.66-3.08-.08-4.66-.43-.91-1-2.34-2.05-1.94-3.07,1.18-6.45-.11-9.58.97-3.07,1.07-6.47,1.33-9.73,1.95-.16-.25-.33-.5-.49-.76,4.91-1.82,10.95-2.4,11.38-9.73-3.22,2.52-6.98,3.39-10.55,3.29-4.55-.13-6.33,2.37-7.53,5.66-1.84,5.05-5.61,8.26-9.68,11.27-1.97,1.46-4.19,2.04-6.74,2.04-7.36,0-14.68-.82-22-2.09-2.16-.38-3.85-.58-3.24,2.48.21,1.07.35,2.37-1.08,2.71-1.24.29-2.29-.16-3.1-1.46,1.2-.25,2.88,1.38,3.09-.75.16-1.62.26-3.47-1.91-4.22-1.5-.52-3.07-.78-4.57-1.28-1.77-.59-2.23.44-2.25,2.34-.95-1.88-1.49-3.26-2.93-4.05-3.62-1.97-7.18-4.05-10.82-5.97-1.34-.71-2.63-1.35-3.54-2.63-2.37-3.34-2.74-3.43-5.54-.71-1.14,1.11-2.08,2.45-2.94,3.8-2.81,4.37-3.36,9.58-4.23,14.63-.75,4.33-1.01,8.75-.24,13.23.47,2.72,1.56,4.19,4.89,4.3,8.43.27,16.49-1.25,24.61-2.51,7.56-1.18,14.84-4.13,22.79-2.78,4.57.77,7.99-.77,11.33-3.07Zm31.39,12.92c-.72-.07-1.04.38-1.27.86-1.18,2.42-2.31,4.87-3.49,7.29-1.34,2.72-5.83,4.01-8.6,2.49-2.17-1.19-2.26-3.57-.29-7.01,1.18-2.05,2.47-4.05,3.45-6.21.49-1.09,1.62-2.88-.68-3.51-3.04-.83-6.09-2.3-9.2-2.07-8.5.63-17.02.71-25.62.15-2.64-.17-5.36.13-7.89.72-12.14,2.84-24.39,5.11-37.13,5-.75,0-1.98.05-2.14.46-1.54,3.92-4.54,1.63-7.08,1.33-1.16-.14-2.89-1.81-3.34.18-.36,1.59.05,3.66,2.35,4.33,1.45.43,2.73,1.19,3.9,2.12,4.26,3.39,9.13,5.12,14.23,6.37,3.83.94,7.62,2.13,11.42,3.22,12.65,3.64,25.36,6.64,38.38,6.32,1.09-.03,2.41.35,3.15-.54,3.01-3.63,7.22-2.69,10.67-1.11,3.91,1.79,7.6,1.54,11.44,1.76,2.12.13,3.23-.77,3.98-2.54,2.09-4.91,3.2-10.14,3.73-15.51.13-1.3,1.19-2.65.02-4.09Zm-74.21,102.94c-2.37-.42-3.02.11-2.87,1.8.34,3.9.73,7.74,2.55,11.45,5.22,10.59,8.33,21.59,8.13,33.14-.06,3.54-.49,7.06-.38,10.6.56,18.06-.36,35.97-1.14,53.9-.02.49.16.8.54,1.13,3.14,2.77,6.49,2.12,7.58-1.66,2.06-7.12,2.66-14.62,4.09-21.9,1.81-9.21,2.04-18.76,4.65-27.84,2.22-7.71,3.96-15.67,5-23.7.81-6.31,2.53-12.27,4.06-18.3,1.31-5.16,3.29-10.11,5.05-15.12.63-1.78.08-2.55-1.79-2.43-2.65.16-5.28.42-7.93.56-9.43.5-18.89-.7-27.54-1.61Zm74-268.49c.57-2.79-.88-4.84-4.59-5.73-1.8-.43-3.64-1.34-5.01-2.88-.5-.56-1.1-.77-1.82-.62-4.7.92-8.62-2.09-12.87-3.47-.65-.21-1.88-.53-1.53-1.49.42-1.16,1.47-.28,2.28-.07,3.81,1,7.32,3.34,11.33,3.41,1.53.03,2.74.52,4.04,1.41,6.93,4.74,13.1,4.36,18.78-1.04.53-.51.94-.98,1.91-.91,3.63.29,5.3-.87,5.23-4.29-.14-7.21-3.86-16.71-11.54-20.25-2.14-.99-4.28-1.74-4.08-4.66.04-.58-.37-1.16-.98-1.2-.3-.02-.8.42-.86.75-1.05,5.11-4.89,6.28-9.49,6.49-6.44.3-11.83,4.67-13.64,10.92-.24.83-.51,1.7-.98,2.4-3.02,4.49-6.1,8.94-9.19,13.39-.14.2-.57.37-.8.3-.72-.24-.58-.83-.53-1.39.21-2.3.15-4.68.66-6.9.52-2.27-.08-3.4-2.31-4.38-3.44-1.51-6.76-3.36-9.38-6.25-1.21-1.34-1.9-1.07-2.05.59-.14,1.54-.12,3.1-.37,4.61-.94,5.83.07,12.37-5,16.74-.58.5.05,1.27.47,1.79,3.23,3.97,5.63,9,11.78,9.13,1.19.02,2.39.66,3.6.93,5.41,1.21,10.71,2.06,16.18.85,4.99-1.11,10.11-4.12,15.51.29.35.29,1.09.12,1.64.12,3.77,0,4.49-.86,3.91-4.49-.18-1.1-.18-2.22-.31-4.11Zm-48.16,384.74c2.02-.33,3.93-.87,2.81-3.71-.48-1.22-.09-2.16.16-3.21,3.16-12.92,6.52-25.78,9.42-38.77,3.18-14.28,6.51-28.49,10.6-42.49,2.56-8.75,6.57-16.96,7.94-26.13.21-1.41,1.13-2.99-1.61-2.73-4.49.42-8.98.85-13.48,1.24-1.18.1-2.03.35-2.42,1.67-3.62,12.13-7.37,24.26-9.6,36.81-2.33,13.13-5.81,25.95-7.28,39.31-1.19,10.8-3.01,21.49-4.52,32.23-.13.91-.92,2.07.31,2.74,2.39,1.3,4.78,2.76,7.67,3.05Zm83.39-308.65c-1.88,3.54-3.14,7.31-5.01,10.78-5.85,10.81-9.51,22.71-15,33.7-.43.86-.95,1.84.11,2.72,5.77,4.78,1.65,10.68,2.91,15.98.12.52-.71,1.29-1.23,1.81-1.09,1.1-1.06,1.9.43,2.88,1.83,1.21,1.93,2.92,1.27,4.75-.65,1.83-1.27,3.69-1.74,5.58-.26,1.04-.72,1.81-1.67,2.21-2.99,1.24-5.73,3.15-9.09,3.41-2.3.18-2.84,1.52-3.08,3.4-.35,2.8-.02,5.64.01,8.46.05,4.11-.83,8.16-1.28,12.24-.21,1.87.51,2.4,2.34,1.87,2.59-.76,4.59-2.28,6.53-4.01,5.57-4.98,8.89-11.43,11.65-18.33,4.97-12.43,10.25-24.73,13.17-37.99,1.73-7.84,1.27-15.97,1.43-24.04.17-8.42-.86-16.81-1.74-25.39Zm-27.92,47.8c2.87-.13,5.09-1.06,6.07-3.97.97-2.87,2.08-5.7,3.3-8.47,4.26-9.67,8.24-19.48,13.3-28.75.98-1.8,2.17-4.6.71-5.76-1.54-1.23-2.51,1.72-3.38,2.92-2.25,3.11-5.44,5.36-7.26,8.87-5.33,10.28-7.53,22.11-14.12,31.75-.23.34-.31.81-.43,1.22-.46,1.61.19,2.33,1.82,2.17Zm4.96-186c1.96.11,3.63-.74,4.08-3.01.33-1.68-.57-3.09-2.05-3.98-1.09-.66-2.49-1.39-2.33.94.12,1.8-.9,2.55-2.52,2.75-.62.08-1.44-.15-1.61.72-.18.96.65,1.35,1.27,1.85.87.71,1.85.82,3.17.73Zm3.56,245.08c-.21-.25-.41-.51-.62-.76-2.98,1.63-5.96,3.26-8.94,4.9-.46.25-1.05.58-.73,1.23.28.58.97.66,1.47.43,3.28-1.47,6.55-2.98,8.82-5.81Z"/><path class="cls-4" d="m118.87,440.73c-.04,2.64-.44,6.58.09,10.6.47,3.66,1.8,6.75,5.03,8.89,1.97,1.3,3.13,2.99,3.3,5.29.1,1.28.79,2.35,1.51,3.39,1.54,2.23,2.14,4.46.86,6.88-1.23,2.33.42,4.51,1.06,6.74.43,1.47,1.62,3.26.2,4.31-1.44,1.07-3.02-.45-4.15-1.43-1.97-1.72-3.41-3.34-4.84.26-.67,1.68-2.71,1.56-4.38.59-1.18-.69-2.41-1.4-3.4-2.34-2.78-2.62-5.53-4.52-9.54-3.31-1.92.58-3.96-.38-5.04-2.6-.19-.39-.52-.85-.89-1-1.67-.7-3.54-.56-4.05-3.31-.97-5.24-1.87-10.29,2.79-13.84,1.6-1.22,2.29-2.53,2.21-4.64-.11-3.05,1.73-5.17,4.16-6.48,2.08-1.12,3.12-2.49,3.32-4.97.31-3.79,2.63-6.29,5.95-7.85,4.19-1.96,5.55-1.13,5.81,4.83Zm-8.38,25.77c-5.09.08-7.61,2.1-8.67,6.97-.91,4.16.17,5.46,4.39,4.84,2.86-.43,5.2.21,7.39,2.29,1.16,1.1,2.51,2,3.83,2.91,3.06,2.09,5.54.99,6-2.62.92-7.3-5.54-14.49-12.94-14.38Z"/><path class="cls-4" d="m136.45,452.24c-.92-1.53.03-2.36.38-3.31,1.14-3.08,3-5.77,5.14-8.09,4.44-4.8,14.22-3.64,18.67,1.94.93,1.16,1.76,2.41,2.61,3.63.65.94,1.51,1.99.6,3.01-.8.89-2.09.74-3.1.2-3.49-1.84-7.29-2.42-10.93-3.63-4.4-1.46-8.05-.4-10.67,3.2-.79,1.09-1.46,2.26-2.7,3.04Z"/><path class="cls-4" d="m163.5,455.51c1.21,2.07,1.39,4.35,1.26,6.49-.17,2.68-1.08,5.14-4.01,6.04-3.56,1.09-7.05.79-10.05-1.89-3.19-2.85-3.17-6.39-1.95-9.88,1.11-3.19,3.45-5.2,6.9-5.48,3.56-.28,6.26,1.41,7.9,4.78-1.38-1.39-2.8-2.71-4.61-3.54-3.61-1.65-7.4.04-8.25,3.98,3.8-2.03,7.55-2.21,11.41.34.83.55,1.11-.29,1.41-.85Zm-5.18,12.11c1.96.14,3.88-.82,5.11-3.24,1.26-2.48.05-4.55-1.31-6.52-1.13-1.63-2.34-2.62-3.34.2-1.17,3.26-2.76,3.53-6.12,1.56-.66-.39-1.19-.81-1.65-.04-1.07,1.78-2.15,3.51.07,5.59,1.92,1.8,4.1,2.38,7.24,2.45Z"/><path class="cls-4" d="m69.86,636.51c-9.36.25-16.8-6.41-25.43-8.77,9.45-.58,16.82,6.33,25.43,8.77Z"/><path class="cls-4" d="m58.69,603.94c-5.03-.35-14.65-6.49-15.91-10.86-.78-2.69,1.47-3.01,2.48-4.26.39-.49.97.3,1.05.87.24,1.58,1.6,2.46,2.37,3.71,2.7,4.39,6.12,7.34,11.65,6.21-1.32,1.26-2.93.71-4.37.87-.7.08-1.78-.58-2,.44-.24,1.12.92,1.4,1.71,1.77.86.4,1.74.74,3.02,1.27Zm-13.46-11.44c-.49.02-.78.26-.89.75-.26,1.18,3.71,5.85,4.91,5.72.26-.03.6-.29.68-.53.35-.99-3.63-5.99-4.7-5.95Z"/><path class="cls-4" d="m171.52,632.42c1.21,2.47.22,3.85.15,5.32-.06,1.19-.77,2.4,1.39,2.57,1.16.09.88,1.05.67,1.8-.32,1.13-1.04,1.94-2.23,2.03-1.09.08-1.59-.76-1.61-1.76-.06-3.18.4-6.24,1.64-9.96Z"/><path class="cls-4" d="m171.39,600.19c.9,2.47.58,4.44,1.7,6.14.3.46.14,1.15-.55,1.28-.63.12-1.12-.25-1.21-.88-.29-1.98-.69-3.98.05-6.55Z"/><path class="cls-4" d="m146.23,605.58c1.86-.42,3.92-.45,4.27-3.43q1.39,3.44-4.27,3.43Z"/><path class="cls-4" d="m114.48,682.97c2.14.06,2.99-1.4,3.77-3.17.86,3.24-.24,4.19-3.77,3.17Z"/><path class="cls-4" d="m101.56,682.18c1.84-.18,3.71-.18,4.53-3.08.11,4.06-.85,4.57-4.53,3.08Z"/><path class="cls-4" d="m121.75,828.33c-3.62,2.39-8.29,1.98-12.13-.79,3.85,1.62,7.72,1.61,12.13.79Z"/><path class="cls-4" d="m177.84,503.21c-3.8-2.21-7.33-3.51-10.92-1.42-.47.27-1.08-.13-1.35-.72-.34-.74,0-1.23.49-1.71,2.99-2.96,9.78-1.06,11.77,3.85Z"/><path class="cls-4" d="m169.69,512.6c1.31-1.83,3.09-1.55,5.93-.78-2.57.42-4.31.4-5.93.78Z"/><path class="cls-4" d="m119.43,476.7c-4.65-5.67-7.71-5.94-14.03-1.58.26-3.39,2.67-4.96,7.51-4.88,3.86.07,5.77,1.82,6.53,6.46Z"/></svg>