<?xml version="1.0" encoding="UTF-8"?><svg id="personnage5" xmlns="http://www.w3.org/2000/svg" xmlns:xlink="http://www.w3.org/1999/xlink" viewBox="0 0 1080 1080"><defs><style>.cls-1{fill:url(#Dégradé_sans_nom_12-2);}.cls-1,.cls-2,.cls-3,.cls-4,.cls-5,.cls-6,.cls-7,.cls-8,.cls-9{stroke-width:0px;}.cls-2{fill:url(#Dégradé_sans_nom_8);}.cls-3{fill:url(#Dégradé_sans_nom_8-3);}.cls-4{fill:url(#Dégradé_sans_nom_8-2);}.cls-6{fill:#757473;}.cls-7{fill:#3b2f35;}.cls-8{fill:#beaa9a;}.cls-9{fill:url(#Dégradé_sans_nom_12);}</style><linearGradient id="Dégradé_sans_nom_12" x1="191.99" y1="518.7" x2="215.62" y2="572.57" gradientUnits="userSpaceOnUse"><stop offset="0" stop-color="#757473"/><stop offset=".88" stop-color="#ccc"/></linearGradient><linearGradient id="Dégradé_sans_nom_12-2" x1="201.02" y1="176.12" x2="229.09" y2="100.69" xlink:href="#Dégradé_sans_nom_12"/><linearGradient id="Dégradé_sans_nom_8" x1="174.72" y1="277.81" x2="224.42" y2="277.81" gradientUnits="userSpaceOnUse"><stop offset="0" stop-color="#f01048"/><stop offset=".56" stop-color="#aeb9b0"/></linearGradient><linearGradient id="Dégradé_sans_nom_8-2" x1="172.89" y1="214.77" x2="171.35" y2="264.18" xlink:href="#Dégradé_sans_nom_8"/><linearGradient id="Dégradé_sans_nom_8-3" x1="219.03" y1="208.39" x2="244.25" y2="249.88" xlink:href="#Dégradé_sans_nom_8"/></defs><path class="cls-8" d="m200.01,132.82s8.75-1.9,9.91-3.35,1.75-12.83,1.31-14.87-4.37-9.91-6.12-10.93-15.89-8.75-17.79-8.16-9.48,2.48-11.23,4.67-4.67,5.83-5.25,7.58-1.17,7.29-1.31,8.75,0,8.75.44,10.06,1.46,4.96,1.9,7.58.29,5.98,1.02,6.27,10.93-6.27,11.66-6.56,3.21-2.62,5.1-2.92,4.08-.58,5.98.15,4.37,1.75,4.37,1.75"/><path class="cls-9" d="m167.35,493.67c-2.62,1.17-.15,8.16,0,9.33s3.79,26.24,3.79,27.41,3.5,19.54,3.06,21.72-2.04,12.54-2.62,14.14-2.19,4.08.29,4.52,5.69-.73,7.29-2.48,2.33-3.64,2.19-6.56-.58-4.81,0-9.04,2.48-16.77,3.06-19.39,2.92-16.48,3.5-17.93,3.79-9.04,4.08-11.08,2.19-8.02,2.92-8.6,7.14-3.06,8.31-2.33,1.9,5.25,1.9,5.69,0,7.44-.15,10.21-.44,8.46-.58,10.35-.29,5.83-.44,8.75-1.02,6.56-1.17,9.04-.44,10.64-.44,13.12.58,2.62-.15,5.25-1.75,8.75-.73,10.5,2.77,5.54,4.67,4.81c1.9-.73,9.19,0,7.29-2.33-1.9-2.33-3.94-5.1-3.79-6.85s2.04-16.77,2.77-19.68,4.37-17.93,4.81-19.68,3.79-13.85,4.37-15.75,3.79-11.66,3.35-12.98-9.33-.29-10.35-3.06-19.68-1.75-24.06-1.46-14.43,2.62-15.89,3.06-7.29,1.31-7.29,1.31Z"/><path class="cls-1" d="m183.1,135.01c-.44.58-3.21,5.69-3.79,7.14s0,4.67-.15,5.54,1.17,4.81.29,6.71-3.64,5.54-4.67,5.83-2.48-1.17-1.9-3.06,1.02-5.25.15-6.85-3.35-3.79-4.52-3.79-2.92.29-4.08.29-3.5,1.31-3.94,2.62-1.02,4.52-.87,6.42,3.21,5.1,4.52,5.83,3.06.29,4.08.15,3.21-2.33,4.08-.87-1.02,5.25-1.31,6.27-.44,5.39-1.17,7.29-.44,8.16-2.33,9.04-4.08,5.1-5.39,6.12-.29,3.79,0,5.54,8.6,13.7,10.21,14.43,15.45,9.04,19.39,9.04,16.33,3.79,21.87,2.04,19.54-5.39,21.72-7.87,7.44-12.1,7.44-13.56-4.37-4.37-5.69-5.83-4.81-9.19-5.39-11.08-4.37-13.56-4.81-15.02-1.46-7.87-1.46-7.87c0,0,.12-2.51,1.88-.82s5.7,2.71,7.16,1.98,4.37-3.94,4.37-6.12-1.46-5.98-3.64-7.73-5.1-.73-7,0-5.69,1.46-5.69,1.46c0,0-1.31-4.81-1.46-6.56s-1.9-6.71-1.9-6.71c0,0-6.71-5.1-8.46-5.1s-4.52.58-5.98,1.31-4.37,2.48-7.29,1.02-3.64-2.77-5.54-2.19-4.96,1.31-5.98,2.33-2.77,2.62-2.77,2.62Z"/><path class="cls-8" d="m222.17,132.97s-.73-5.39-1.02-5.83-5.25-2.48-6.12-1.6-5.1,3.94-5.1,3.94c0,0,1.01,1.79,2.84,1.92s7.08,4.5,7.08,4.5c0,0,2.19.29,2.33-.15s0-2.77,0-2.77Z"/><path class="cls-8" d="m195.69,147.07c-.16-.05-1.26-1.91-2.95-1.26s-3.12,2.19-3.34,2.9-.71,2.57-.6,3.61.55,1.86.93,2.35,2.57,1.75,3.5,1.8,1.59,1.15,2.57.33,2.13-1.15,2.3-2.02.33-1.97.16-3.44,0-2.24-1.2-3.28-1.37-.98-1.37-.98Z"/><path class="cls-8" d="m206.9,146.86c-.38.22-1.26,1.69-1.42,2.3s-.6,2.02-.6,2.84.22,1.8.44,2.35.22,2.02.82,2.02,2.08.44,2.95.27,2.3-.16,2.9-.77,1.69-.6,1.75-1.53.27-3.12.05-4.1-1.69-3.5-2.79-3.66-4.1.27-4.1.27Z"/><path class="cls-7" d="m205.05,326.97c.57.85,1.24.85,1.87.9,5.37.39,10.68.98,15.73,3.07,1.6.66,3.39.86,5.11,1.21,1.97.41,2.4-.46,1.71-2.18-2.17-5.39-3.59-11.56-11.43-11.14-.51.03-1.05-.28-1.55-.51-1.97-.9-4.08-.67-6.14-.85-.9-.08-2.11.04-1.57,1.32,1.73,4.08-.56,6.31-3.72,8.17Z"/><path class="cls-7" d="m188.57,323.57c.19-6.48.7-6.36-5.36-4.44-1.15.37-2.25.93-3.43,1.18-4.44.93-6.51,3.83-7.49,8.08-.6,2.61.31,2.7,2.22,1.99,3.12-1.17,6.35-1.75,9.64-2.05,3.28-.29,5.96-.99,4.42-4.77Z"/><path class="cls-7" d="m200.39,322.78c1.6-1.12,2.37-2.41,1.71-4.25-.64-1.77-2.17-1.54-3.58-1.61-.87-.04-1.73-.18-2.59-.3-3.63-.51-5.46.81-5.65,4.09-.35,5.85.33,6.84,4.66,6.81,3.95-.03,7.13-2.71,10.97-3.22,1.05-.14,1.61-1.47,1.64-2.64.05-1.5-.74-2.66-2.18-2.87-1.57-.22-1.11,1.25-1.28,2.11-.38,2.06-1.62,2.59-3.7,1.87Z"/><path class="cls-5" d="m161.23,335.34c-4.08.87-31.2,20.41-32.37,20.7s-4.67,4.37-5.54,4.96-4.96,22.45-4.96,24.79-.29,21.29.29,23.33.29,11.08,1.17,13.12,11.66,23.04,13.12,25.95,11.37,25.66,12.25,28.87,2.62,14.29,6.42,15.75,14,2.62,21.87,2.04,57.44-1.75,60.07-2.62,7.87-1.75,10.21-4.37,10.79-16.62,12.25-21.58,14-20.99,14.29-24.2,5.25-12.25,5.25-12.25c0,0-11.08.87-12.83.87s-6.42-6.71-8.46-8.16-2.33-5.54-2.33-8.16,2.04-22.74,1.75-24.49,2.04-4.67,2.04-4.67l14.58-.58s1.46-4.96,3.5-5.25,4.67-3.5,4.67-5.83,2.62-8.46,2.62-8.46c0,0,0-12.54-2.04-13.41s-40.53,5.83-41.11,4.67-4.96-15.75-4.96-15.75l-4.08-7.58s-12.83-4.96-16.04-4.37-12.54-1.17-14.29-.58-9.33,1.17-13.12,2.04-10.21.29-11.96,1.17-5.83,6.71-6.71,7.58-5.54-3.5-5.54-3.5Z"/><path class="cls-6" d="m116.47,378.89c-.87,0-9.73,3.06-10.17,3.17s-.33,10.06,0,12.03,1.86,8.86,2.95,12.57,5.14,16.73,5.8,17.82,3.61,8.53,5.36,7.76,5.47,1.64,2.84-3.72c-2.62-5.36-5.03-6.34-4.7-10.61s1.97-6.45,1.75-11.7-1.09-3.5-.66-9.73,1.86-9.84.22-14.76-3.61-2.08-3.61-2.08l.22-.77Z"/><path class="cls-6" d="m284.57,364.49c-1.18,1.18-4.23,0-4.23.73s-.29,2.19-1.02,5.25-.87,3.64-2.04,5.69-.44,2.19-3.5,3.21-5.54,2.62-4.23,3.35,2.62,1.17,4.52,1.02,3.94-.29,4.96-.44.73,0,1.6.44,1.75,2.92,1.02,3.94-3.06,5.69-3.06,7,.58,4.37,1.75,4.96,1.02,1.31,2.77,1.46,3.79-.44,4.81-.29,3.35,1.02,4.08,1.02,2.19.29,3.5.29,2.04,1.02,2.48-.29.73-4.08,1.17-4.37,2.33-.29,3.06-.29,1.17.44,2.19-.29,1.17-1.46,1.46-3.06.44-5.69.44-6.42,0-2.62-.87-3.35-6.71-3.35-6.85-3.94-.29-3.64-.44-6.27-.44-4.81-1.02-6.27-2.77-4.08-2.77-4.08c0,0-8.02-.73-9.77,1.02Z"/><path class="cls-7" d="m266.49,384.61c-2.33-.15-9.19-.29-9.91.15s-1.46,2.33-2.19,5.98-1.75,15.75-1.75,16.77,1.31,12.68,1.75,13.7,4.67,6.71,7.44,7,13.41,2.48,16.77,1.6c3.35-.87,26.39-.87,28.72-2.48s8.02-3.64,8.02-8.75-.44-15.89-.15-18.52,1.17-8.89.29-10.5-2.19-4.67-4.52-4.96-5.98-.15-5.98.44.58,4.67.73,6.71,0,4.37-.29,4.96-4.23.29-4.81.44-1.6,1.75-1.75,2.48-.87,3.06-1.46,2.77-4.67-1.02-6.12-1.02-5.69.44-6.56-.29-4.08.29-4.96-1.02-2.62-3.94-2.19-5.69,2.19-3.79,2.48-4.52,1.17-1.75,1.17-2.92.73-3.21-.58-3.21-4.23.15-7.44.73-6.71.15-6.71.15Z"/><path class="cls-7" d="m169.61,570.91c-.66.44-2.84,1.86-4.37,2.08s-4.59.77-5.8,1.75-1.64,2.19-.66,3.61,4.37,2.51,6.12.77,3.61-1.53,5.58-2.19,3.17-1.53,4.92-1.42,3.5,0,4.16-.87,2.41-2.08,2.08-3.17.33-3.28-.98-2.51-4.05,1.09-4.81,1.64-3.17,1.09-4.05.98-2.19-.66-2.19-.66Z"/><path class="cls-7" d="m207.88,572.66c1.31,1.09,7.54,4.05,8.75,4.05s3.39,0,4.7-.98,2.73-2.51,1.31-3.39-4.16-2.95-5.47-3.06-2.08-.98-3.06-.77-6.23,4.16-6.23,4.16Z"/><path class="cls-5" d="m167.6,201.42c.74,4.38,4.07,6.72,7.51,8.43,4.02,2.01,8.11,3.93,12.23,5.74,8.92,3.92,18.23,4.9,27.72,2.58,4.47-1.09,8.85-2.63,13.23-4.08,6.62-2.19,10.01-7.58,12.79-13.44.8-1.68.32-2.15-1.57-1.84-1.17.19-1.26-.59-1.56-1.25-2.05-4.48-4.23-8.91-6.05-13.48-.63-1.59-2.04-2.51-2.58-4.1-1.94-5.8-2.17-11.87-3.33-17.79,2.86,10.75,6.79,21.05,11.89,30.9.64,1.23,1.74,1.48,2.9,1.91,2.2.82,4.45,1.28,6.28,3.25,1.6,1.71,2.2,3.37,1.68,5.3-.7,2.61.63,3.81,2.47,5.11,5.12,3.61,11.02,6.05,15.7,10.31,5.23,4.76,9.58,10.13,12.95,16.48,4.07,7.67,9.03,14.85,13.49,22.31,5.62,9.39,8.9,19.83,13.09,29.86.72,1.72,1.11,3.61,1.98,5.25,4.84,9.17,3.12,18.79,2.4,28.45-.98,13-6.85,24.51-10.6,36.64-2.2,7.12-1.46,13.91-.89,20.91.05.58.5,1.46.95,1.61,3.18,1.02,5.63,3.71,9.37,3.6,4.33-.13,5.59,1.11,6.51,5.39,1.44,6.76.9,13.59.56,20.41-.14,2.74-.5,5.47-.8,8.2-.54,4.74-3.55,7.46-7.74,8.93-3.73,1.31-7.59,2.1-11.62,2.2-6.92.17-13.81.97-20.75.93-4.18-.02-8.18.69-10.7,4.82-.82,1.35-2.35,2.26-3.55,3.37-.21-.2-.42-.41-.63-.61,1.84-1.74,3.7-3.45,5.5-5.23,1.06-1.05,1.5-1.9-.6-2.41-5.18-1.24-8.91-5.08-13.23-7.84-1.65-1.06-2.62-2.97-1.12-5.16.71-1.04.41-2.37.36-3.56-.36-9.05.95-18.02,1.38-27.03.11-2.25,1.38-2.79,3.25-2.78,3.3.02,6.6.06,9.9.09,1.64.01,3.08-.29,3.61-2.17.08-.3.28-.66.53-.82,4.54-2.81,7.2-6.94,8.5-12.03.12-.45.43-.82.93-.72.73.15.78.81.59,1.31-1.55,4.03-1.97,8.73-6.57,10.96-.92.45-2.37,1.09-1.99,2.28.42,1.31,1.96.75,2.89.47,2.21-.67,4.87.84,6.8-1.95.59,3.91.84,7.18-1.16,10.34-1.41,2.24-1.79,4.75-.11,7.15.67.95,1.57,1.59,2.79,1.4,1.18-.18,1.03-1.28,1.25-2.08.99-3.64,2.44-7.04,4.8-10.06,2.54-3.25,2.31-4.85-.81-7.55-.9-.78-2.01-1.33-2.72-2.62,4.06,1.06,7.97,1.9,10.02,6.03,1,2.03,1.76,3.87.54,6.19-1.22,2.32-2.05,4.87-2.87,7.38-.39,1.21-.84,2.65.28,3.74.76.75,1.81.64,2.81.37,1.79-.48,1.49-1.97,1.53-3.24.04-1.67.31-3.28.87-4.85,1.25-3.51,1.4-6.89-1.13-9.99-.32-.39-.71-1.09-.56-1.43,1.95-4.47.19-8.83-.26-13.24-.35-3.37-2.49-4.43-5.31-4.74-2.54-.27-4.98.26-7.45,1-4.1,1.24-5.13.33-5.18-3.93-.01-1.1,0-2.2-.01-3.31-.02-5.34-.07-5.72-5.45-5.03-8.6,1.11-17.35.96-25.83,3.2-2.84.75-5.87.78-8.8,1.26-3.09.5-4.35-.82-4.74-3.84-.73-5.67-1.85-11.28-2.63-16.94-.36-2.59-1.62-3.6-4.15-3.58-1.17.01-2.36-.4-3.52-.71-16.5-4.38-32.94-4.72-49.3.74-2.85.95-5.09,2.47-6.15,5.45-.7,1.99-2.14,3.1-4.22,3.78-5.02,1.65-9.88,3.71-14.33,6.64-6.6,4.35-14.12,6.6-21.43,9.29-3.64,1.33-5.22,3.75-5.68,7.6-.84,7.08-2.06,14.13-3.28,21.16-1.03,5.92-.89,11.87-.39,17.78.25,2.97.65,5.94.39,8.89-.47,5.26,1.15,9.7,3.62,14.35,7.13,13.44,14.2,26.93,20.2,40.94.78,1.81,1.52,3.7,1.84,5.63,1.03,6.18,4.99,10.96,7.59,16.37,1.07,2.22,3.49,2.3,5.5,2.31,12.54.08,25.09.32,37.61-.75,12.38-1.06,24.75-2.18,37.18-2.47,2.63-.06,5.25-.44,7.87-.62.9-.06,1.29-.6,1.75-1.27,3.64-5.39,6.63-11.14,9.56-16.94,6.11-12.08,13.35-23.53,20.06-35.28.29-.51.8-.89,1.37-1.19-2.27,6.5-5.94,12.24-9.11,18.23-5.88,11.08-11.99,22.03-17.84,33.13-2.64,5-7.13,6.5-12.12,6.94-8.68.76-8.82.6-10.98,9.11-4.45,17.48-9.27,34.87-12.45,52.65-.25,1.4-.43,2.83-.45,4.25-.08,6.75.34,7.35,6.8,9.68,1.98.72,3.87,1.55,5.55,2.84,2.11,1.63,1.71,3.09-.27,4.44-2.03,1.38-4.5,1.99-6.58,1.01-4.34-2.05-8.96-2.93-13.51-4.16-1.56-.42-2.2-1.01-2.28-2.86-.45-9.71,1.5-19.27,1.65-28.96.16-10.65,1.45-21.29,1.8-31.96.12-3.74.28-7.48.48-11.22.11-2.15-.78-2.85-2.94-2.81-5.26.11-5.38.27-7.36,5.1-5.12,12.45-7.24,25.56-9.06,38.77-.59,4.25-1.31,8.47-2.07,12.69-.51,2.84-.69,5.59-.17,8.5.48,2.68.33,5.49.28,8.24-.12,7.37-.81,8.02-8.11,8.59-3.52.28-6.95,1.07-10.2,2.47-1.58.68-3.13,1.05-4.79.47-1.16-.4-2.34-.83-2.33-2.39.01-1.31.47-2.39,1.72-2.96.9-.41,1.81-.82,2.76-1.08,7.3-2.03,9.5-7.88,10.6-14.41,1.12-6.6.18-13.18-.72-19.71-1.82-13.28-3.9-26.52-5.7-39.81-.41-3.01-1.85-3.83-4.6-3.8-2.18.03-4.37-.36-6.55-.63-3.47-.43-5.56-2.48-7.25-5.52-6.29-11.3-8.99-24-14.17-35.73-2.49-5.63-4.94-11.27-8.15-16.54-.41-.66-.79-1.36-1.62-1.55-4.43-.98-7-4.24-8.7-7.95-3.62-7.91-6.03-16.29-7.77-24.8-.9-4.4-2.73-8.52-3.01-13.12-.8-12.81-5.75-24.76-8.05-37.26-1.63-8.84-2.54-17.83-3.41-26.78-.6-6.13-.56-12.32-.84-18.47-.2-4.38.55-8.65,2.39-12.54,4.3-9.07,6.82-18.83,11.02-27.93,6.86-14.86,12.76-30.27,22.79-43.41,4.32-5.66,9.35-10.78,14.23-15.99,1.96-2.09,3.44-3.92,3.08-7.15-.57-5.17,3.62-7.9,6.97-10.5,3.36-2.61,6.75-5.77,11.6-5.65,1.14.03,1.68-.93,2.06-1.89,2.75-6.95,5.52-13.89,5.55-21.54,0-1.56.13-3.12.93-4.48,1.66-2.79-.56-4.67-1.76-6.5-1.19-1.81-3.21-2.97-5.72-2.47-3.41.68-4.98,3.02-4.69,7.17.25,3.61,2.94,6.85,5.81,6.99.84.04,1.74-.39,2.77.46-1.46,1.69-3.25,1.69-4.98,1.01-4.95-1.93-7.19-10.21-3.98-14.46.26-.35.58-.88.91-.91,4.84-.4,5.64-4.98,8.05-7.84,1.46-1.73,1.85-3.98,1.3-6.21-1.6-6.48-1.85-13.07-1.65-19.69.23-7.83,6.78-16.43,13.59-18.23,2.92-.77,5.76-.07,8.48.51,13.03,2.78,22.43,13.1,22.6,26.28.03,2.41.36,3.6,3.27,3.32,3.93-.37,6.36,2.05,6.54,6.1.16,3.43,1.43,6.42,3.12,9.28.8,1.35,2.21,1.82,3.52,2.58,3.09,1.79,6.97,2.71,8.74,6.41,1.14,2.39,1.9,4.78.23,7.18-1.9,2.73-4.29,4.72-7.89,4.59-1.89-.06-2.92-1.07-3.67-2.95,4.58,2.24,7.91,1.45,10.02-2.15,1.47-2.51.45-6.68-2.03-8.26-2.39-1.52-7.49.26-10.19,3.74,2.49.41,4.81-1.81,7.55-.02-4.06.81-7.61,2.29-11.7.98.67-4.12-.77-8.47-.72-12.97.06-4.76-3.45-6.97-7.43-8.62,2.7-.16,5.34-.18,7.64,2.19.47-2.33-1.66-2.63-2.28-3.94,1.31-.4,1.79,1.38,2.97.92-.29-3.39-3.01-5.53-5.63-3.89-1.98,1.24-4.38,1.71-6.18,3.43,1.47-2.47,1.18-5.16,1.35-7.83.21-3.39-2.28-6.59-.53-10.05.14-.27-.17-.88-.42-1.21-3.28-4.16-5.62-9.14-11.31-11.02-4.06-1.34-7.85-3.33-12.3-3.39-4.04-.05-7.23,1.39-9.91,4.32-6.37,6.96-6.5,15.34-5.36,23.94.51,3.8.95,7.72,3.89,10.72.44.45-.94,1.33,0,2.03,3.44-1.86,7.31-2.87,10.49-5.25.7-.52,2.01-1.27,1.92-1.63-.65-2.58,1.24-2.74,2.78-3.1,2.36-.56,4.58-.18,6.56,1.34.8.62,1.22,1.83,2.75,1.85.05-2.15-1.59-3.16-2.39-4.61-.3-.54-3.32-.9-.53-2.23-.32-.42-.56-.92-.96-1.24-3.07-2.49-5.73-2.26-10.21.82,1.86-5.31,3.99-5.41,13.61-.59-.29-2.57-.57-2.86-5.34-5.44,3.5.18,5.51,1.87,6.83,4.37,1.21,2.29,2.15,4.71,3.31,7.32,1.03-3.52-1.94-10.11-5.15-12.92-5.96-5.21-11.25-1.45-16.68.96,2.44-4.34,10.03-6.34,14.24-3.76,4.18,2.56,5.98,4.87,10.03,12.87,1.6-1.5,1.04-3.29.74-4.89-.82-4.39-2.74-8.38-5.13-12.09-4.75-7.4-16.48-9.17-21.83-.57-2.05,3.29-4.19,6.39-4.85,10.34-.4,2.35-1.37,4.59-2.48,6.8.03-4.59.31-9.17,2.53-13.3,1.35-2.5,3.07-4.83,4.81-7.09,2.57-3.33,9.87-5.15,14.32-3.5,9.88,3.65,15.95,12.57,14.58,23.51-.61,4.87-8.93,9.29-13.21,6.65-3.61-2.23-5.98-1.32-8.72,1.18-5.05,4.59-8.07,9.89-6.58,16.93.99,4.65-1.45,7.82-4.38,10.77-1.05,1.05-2.2,1.85-1.56,3.59.13.34.02,1.1-.18,1.19-4.02,1.7-3.45,5.79-3.44,8.61.03,6.14-2.07,12.26-.22,18.42-1.51-3.02-1.2-6.47-2.21-10.44-1.7,2.71-.91,4.78-.9,6.73,0,.86.32,1.73.51,2.58.59,2.65,1.35,5.31-.35,7.86-1.35-3.07-2.96-6.04-.91-9.52.41-.69.49-3.18-.96-2.57-1.53.65-4.02,2.61-3.51,4.31,1.04,3.5,1.63,7.59,5.53,9.55Zm90.02,189.69l.06.05c.02-1.38-.25-2.85-1.71-3.17-1.2-.27-1.14,1.05-1.18,1.89-.37,8.01-1.42,15.97-1.36,24.03.04,4.74.27,8.69,5.54,10.38.68.22,1.21.92,1.82,1.39,2.4,1.87,5,2.84,8.17,2.9,10.02.19,20.04-.04,29.95-1.23,9.93-1.2,16.02-3.11,15.36-14.23,0-.11.04-.22.05-.33.25-3.95.51-7.9.74-11.85.04-.64.1-1.39-.61-1.74-.63-.31-.94.27-1.37.59-5.09,3.82-10.25,7.57-15.3,11.46-6.16,4.74-17.83,3.79-22.84-2.13-2.79-3.29-5.79-6.32-9.06-9.1-2.42-2.06-4.99-4-6.01-7.25-.33-1.05-1.19-1.53-2.26-1.65Zm15.22-72.09l.05.04c.41-1.27.79-2.48-.23-3.72-1.35-1.65-1.8-3.75-2.63-5.67-.45-1.04-.4-2.82-1.89-2.69-1.13.1-.96,1.77-1.31,2.76-1.71,4.87-3.03,9.91-6.22,14.1,1.65-4.66,3.34-9.3,5.32-13.82,1.3-2.98,1.37-5.68-.49-8.39-2.5-3.64-1.88-8.77-5.61-11.83.14-5.71-2.96-10.46-4.47-15.69-1.19-4.11-2.45-8.29-2.81-13.04,1.41.92,1.46,2,1.63,2.87,1.32,6.64,4.24,12.71,6.64,18.96,3.07,7.97,5.52,16.16,10.31,23.48,2.53,3.87,3.7,8.67,6.49,12.55.42.58.51,1.7,1.52,1.43.85-.23.85-1.19.9-1.95.16-2.58.3-5.16.45-7.87.9.41.71.91.68,1.29-1.15,16.18,0,32.38-.46,48.57-.08,2.97.84,3.7,3.69,2.7,3.7-1.3,7.49-1.68,11.16.35,1.3.72,2.22.69,2.46-1.18,1.04-8.26,4.54-15.79,6.93-23.65,4.55-14.93,7.59-29.93,1.2-45.4-5.75-13.92-10.57-28.2-19.34-40.69-3.6-5.12-6.82-10.55-9.71-16.1-4.37-8.41-10.25-15.3-18.26-20.35-3.36-2.12-6.45-4.58-9.42-7.21-.77-.68-1.19-2.21-2.52-1.74-1.16.41-1.26,1.77-1.28,2.84-.07,4.01-2.37,7.42-4.33,10.29-2.21,3.23-5.8,5.66-8.03,9.16-.28.44-.83.97-1.27.99-3.46.12-6.26,1.57-8.68,3.94-.13.13-.48.03-.63.15-2.59,2.09-6.79,1.91-7.84,6.3-.55,2.31-2.49,4.13-5.39,4.11-3.06-.01-5.12-1.41-6.67-4.04-.82-1.39-.88-3.37-3.15-4.6.22,5.81,1.19,10.9,2.78,15.92,2.46,7.78,6.47,14.9,9.16,22.61,3.91,11.2,8.68,22.1,12.24,33.43,3.32,10.58,9.21,20.24,10.96,31.37.66,4.24,1.46,8.45,2.05,12.7.24,1.68.91,2.29,2.59,2.06,2.94-.39,5.88-.62,8.81-1.25,9.15-1.97,18.47-2.65,27.79-3.19,2.13-.12,3.07-.54,2.92-2.72-.12-1.86.23-3.85-.3-5.57-.48-1.55-.35-2.74-.11-4.29.92-6.04.99-12.06-2.69-17.48-.86-1.27-1.71-1.58-2.99-.82Zm-75.95-85.48c-.3-.18-.59-.36-.89-.54-1.13,1.82-2.21,3.68-3.41,5.46-1.79,2.68-6.32,4.81-7.83,3.31-2.21-2.19-5.29-3.78-6.34-6.93-1.06-3.18-3.6-4.42-6.26-5.67-.89-.42-1.82-.79-2.6-1.37-3.76-2.79-7.26-5.9-10.01-9.68-1.12-1.54-3.47-.84-3.94-2.56-.75-2.71-3.81-3.67-4.4-6.73-.29-1.49-3.2-2.32-4.22-4.28-.28-.53-.94.09-1.27.54-4.9,6.77-10.86,12.7-15.76,19.44-9.33,12.83-14.58,27.78-21.12,42.06-4.49,9.81-7.02,20.38-11.62,30.16-1.6,3.4-2.13,7.1-2.12,10.93.04,13.45,1.66,26.77,3.78,39.98,1.46,9.08,4,18.01,6.43,26.93,1.48,5.42,1.13,4.69,6.38,3.92.65-.09,1.28-.3,1.93-.41,3.26-.54,5.2-2.14,5.8-5.69,1.41-8.34,3.04-16.66,4.79-24.94,2.26-10.72,2.87-21.57,2.9-32.49,0-2.11-.73-4.02.13-6.38,1.7-4.73,4.81-8.6,6.9-13.05,3.9-8.32,9.29-15.84,12.59-24.55,2.19-5.78,5.92-10.97,8.96-16.42-2.1,7.25-6.38,13.49-8.37,20.83,3.69-3.09,6.22-7.25,10.26-9.96.34.88-.23,1.18-.56,1.56-10.57,12.16-20.33,24.85-26.54,39.93-.94,2.29-1.37,4.61-1.44,7.05-.18,5.94-.37,11.87-.6,17.8-.29,7.39-1.93,14.58-3.22,21.82-.45,2.53.37,2.99,2.62,2.09,3.87-1.56,7.82-2.93,11.69-4.51,8.43-3.45,15.79-9.19,24.72-11.63,1.15-.31,1.68-1.39,2.12-2.4,1.04-2.41,2.03-4.85,3.03-7.28,2.49-6.08,2.94-12.62,4.27-18.96,1.98-9.37,5.1-18.42,7.13-27.77,2.76-12.67,5.69-25.33,10.58-37.41,1.67-4.13,4.19-7.9,5.52-12.17Zm.86,2.36c-2.6,5.87-5.94,11.29-7.58,17.47-3.36,12.64-6.62,25.29-9.25,38.12-1.76,8.61-4.71,16.94-6.1,25.66-.4,2.5.18,3.05,2.52,2.17,2.78-1.04,5.57-2.07,8.44-2.81,11.8-3.05,23.34-1.24,34.77,2.1,1.14.33,2.43,1.13,3.41.11,1.02-1.05.05-2.29-.34-3.37-6.14-17.06-12.23-34.15-18.51-51.16-1.71-4.64-3.93-9.08-5.19-13.89-1.22-4.67-1.63-9.46-2.17-14.39Zm-17.4,259.67c0,.09,0,.17,0,.26-2.97,0-5.93,0-8.9,0-5.02.02-5.26-.05-3.82,4.54.36,1.15.62,2.34.78,3.53,1.16,8.26,2.33,16.53,3.4,24.8,1.69,13.18,5.63,26.39-.29,39.53-.52,1.16.02,2.19,1.5,2.28,3.69.23,7.87-3.54,7.6-7.25-.36-4.94-.28-9.77.6-14.68,3.07-17.05,4.35-34.52,12.18-50.42.91-1.85.08-2.64-1.86-2.62-3.73.03-7.47,0-11.2,0Zm37.86-2.14c-2.83.26-6.54.67-10.27.93-2.27.16-2.92,1.24-2.79,3.44,1.04,16.55-1.21,32.98-1.97,49.46-.2,4.37.52,9.03-1.27,13.06-1.45,3.26.37,4.57,1.96,6.48,1.8,2.15,3.92,3.51,6.77,3.51.68,0,1.38-.13,1.62-.86.25-.76-.41-1.16-.84-1.65-.7-.82-2.24-1.35-1.99-2.47.73-3.29-.64-6.49-.09-9.76,3.22-19.24,8.73-37.91,13.95-56.66,1.53-5.51,1.56-5.5-5.09-5.47Zm-20.51-268.8c.12-2.03-.77-3.18-2.76-3.45-2.63-.35-5.23-.95-7.61-2.08-4.86-2.31-9.51-5.04-14.51-7.07-.69-.28-1.27-.86-1.84-1.37-6.26-5.64-9.97-12.72-11.62-20.93-.33-1.66-.88-1.98-2.43-1.13-3.49,1.89-6.15,4.61-8.29,7.87-1.13,1.72.55,9.06,2.51,10.21,1.4.82,2.12,1.65,2.16,3.27.03.93.69,1.63,1.68,1.78,1.22.19,1.65.9,1.6,2.07-.06,1.28.65,1.77,1.86,1.7.79-.05,1.62-.09,1.96.81.9,2.38,4.96,2.15,4.56,5.78-.1.9,1.54.91,2.51.39.78-.42,1.86-.49,1.92.37.42,5.47,6.23,4.07,8.78,6.9.65.72,1.48.94,1.62,2.23.25,2.32.8,4.68,3.94,4.65,1.03-.01,1.35.54,1.29,1.46-.14,2.22,1.03,1.82,2.54,1.47,3.06-.7,4.5-2.97,5.74-5.46,1.56-3.11,3.91-5.87,4.38-9.46Zm67.22,160.66c-2.2,0-4.4-.05-6.59.02-1.14.03-2.06.39-1.08,1.8,2.24,3.23,3.93,6.94,6.88,9.55,4.19,3.71,8.52,7.24,12.51,11.21,4.88,4.85,14.58,5.24,20.06,1.25,4.35-3.16,8.76-6.24,13.2-9.28,5.29-3.62,5.54-4.48,4.13-10.64-.74-3.22-2.99-3.57-5.47-3.4-3.03.21-2.09,2.78-2.3,4.57-.09.74.14,1.53.24,2.29.56,4.43-.31,5.44-4.84,5.59-.85.03-2.07-.34-2.1.89-.05,1.62.1,3.15-1.95,3.55-1.52.29-3,.17-4.55-.1-3.15-.55-6.47-1.25-9.48-1.21-3.64.05-4.74-1.55-5.52-4.17-.87-2.9.51-5.33,2.05-7.68.96-1.45,1.38-3.21.48-4.67-.94-1.52-2.75-1.15-4.24-.77-3.76.98-7.57,1.32-11.43,1.18Zm-20.82-187.47c-1.99,7.45-5.44,14.16-12.53,17.63-9.02,4.42-18.63,7.17-28.87,6.78q-3.67-.14-2.74,3.53c.1.42.01.88.1,1.31.8,4.22,2.32,8.21,4.29,11.99,1.22,2.34,3.24,4.26,6.09,3.52,2.63-.68,3.43-3.25,3.77-5.69.25-1.82.63-2.5,2.82-2.51,2.66-.02,4.85-2.23,7.21-3.41,1.48-.74,2.6-1.88,4.46-1.64,2.29.3,3.93-.65,4.4-2.96.3-1.48.84-2.4,2.44-2.58.75-.08,1.75-.44,1.86-1.18.39-2.67,4.42-3.5,3.4-6.85-.06-.18.3-.68.54-.74,2.81-.71,2.58-3.26,3.17-5.27.37-1.26.57-2.58,1.38-3.66,3.17-4.27,2.89-5.6-1.79-8.27Zm-135.74,199.89c0,.88-.18,1.8.03,2.62,2.36,9.27,4.55,18.61,9.92,26.75.83,1.26,1.66,3.82,3.2,2.92,1.35-.79-.71-2.58-1.29-3.91-.99-2.26-3.2-4.31-2.33-6.94.71-2.13.61-4.11.27-6.15-1.63-9.7-2.54-19.37-.44-29.16.99-4.59.68-4.67-3.87-3.69-1.4.3-2.79.67-4.2.83-1.86.21-2.16,1.14-2.12,2.91.1,4.62.27,9.23.82,13.82Zm96.68-70.75c.57.85,1.24.85,1.87.9,5.37.39,10.68.98,15.73,3.07,1.6.66,3.39.86,5.11,1.21,1.97.41,2.4-.46,1.71-2.18-2.17-5.39-3.59-11.56-11.43-11.14-.51.03-1.05-.28-1.55-.51-1.97-.9-4.08-.67-6.14-.85-.9-.08-2.11.04-1.57,1.32,1.73,4.08-.56,6.31-3.72,8.17Zm-16.48-3.4c.19-6.48.7-6.36-5.36-4.44-1.15.37-2.25.93-3.43,1.18-4.44.93-6.51,3.83-7.49,8.08-.6,2.61.31,2.7,2.22,1.99,3.12-1.17,6.35-1.75,9.64-2.05,3.28-.29,5.96-.99,4.42-4.77Zm11.82-.79c1.6-1.12,2.37-2.41,1.71-4.25-.64-1.77-2.17-1.54-3.58-1.61-.87-.04-1.73-.18-2.59-.3-3.63-.51-5.46.81-5.65,4.09-.35,5.85.33,6.84,4.66,6.81,3.95-.03,7.13-2.71,10.97-3.22,1.05-.14,1.61-1.47,1.64-2.64.05-1.5-.74-2.66-2.18-2.87-1.57-.22-1.11,1.25-1.28,2.11-.38,2.06-1.62,2.59-3.7,1.87Zm91.63,59.44c.89,3.32-1.27,5.26-2.78,7.48-1.73,2.57-2.92,5.36-3.35,8.45-.23,1.6.44,2.51,2,2.79,1.55.27,3.07.06,3.36-1.7.61-3.74,2.51-6.97,3.77-10.45,1.07-2.96-.48-4.86-3.01-6.58Zm10.2,14.6c2.62.2,3.47-1.27,3.01-3.7-.33-1.74-.61-3.43-.32-5.22.53-3.24-1.74-6.26-4.86-6.62-.37-.04-.89.13-1.15.39-.45.46-.24,1.05.13,1.48,2.97,3.5,2.38,7.33,1.07,11.23-.64,1.92,0,2.75,2.13,2.44Zm-140.03,181.78c5.8-1.65,11.37-4.5,17.2-6.68.51-.19.82-.78.59-1.38-.34-.89-1.01-.57-1.64-.37-2.16.7-4.05,2.3-6.52,1.97-.84-.11-1.75-.97-2.5-.32-2.42,2.11-5.49,2.68-8.31,3.82-.84.34-1.63.86-1.26,1.97.36,1.06,1.34.95,2.45.99Zm55.82-2.91c1.51-.2,2.96-.28,3.95-1.49.39-.48.19-.99-.15-1.49-1.76-2.58-9.24-3.49-11.58-1.4-.7.63-.4,1.32.23,1.56,2.54.95,4.91,2.38,7.55,2.82Zm-39.41-423.72c1.35-2.68-2.18-3.69-2.67-6-.12-.57-.35-1.2-.96-1.11-.83.12-.93.94-.72,1.56,1.35,4,1.31,7.93-.36,11.84-.21.49-.23,1.17.37,1.4.28.11.88-.15,1.1-.42,1.6-2.04,3.63-3.9,3.23-7.27Zm-.87-10.45c.97-.94,2.34-1.69,2.8-3.25.2-.66-.28-1.08-.92-.96-1.56.3-2.42,1.36-2.75,2.87-.12.57-.09,1.09.87,1.34Zm-9.22,4.02c.66-.85,1.49-1.69,2-2.68.4-.77-.23-1.74-.96-1.73-1.65.02-1.28,1.73-1.78,2.7-.28.55-.33,1.3.74,1.71Zm43.17-20.99c.13-.03.42-.04.42-.09.29-2.62.6-5.25-1.22-7.62.26,2.56.53,5.11.8,7.71Zm11.03,20.25c.69-1.74,1.27-3.51-.2-5.62-1.06,2.16-.6,3.89.2,5.62Zm-24.24-19.07c.84,1.69,1.06,3.76,2.93,4.73.11.06.66-.35.65-.54-.07-2.28-2.12-2.99-3.58-4.19Z"/><path class="cls-5" d="m194.19,145.8c3.77.95,5.33,3.96,4.32,8.72-.51,2.42-.52,4.55,1.5,6.32,1.31,1.14,2.69,1.56,4.18.54,1.45-.98,2.35-2.23,1.68-4.18-.71-2.05-1.49-4.05-1.57-6.34-.11-3,1.4-4.19,3.93-4.69,2.73-.54,5.08.84,5.67,3.22,1.07,4.34.26,6.58-3.06,7.43-2.03.52-3.36,1.16-4.21,3.4-1.37,3.6-5.9,3.92-8.16.49-1.55-2.36-3.3-3.26-5.92-3.79-4.17-.85-5.05-2.84-4.01-7.38.71-3.1,2.45-4.23,5.72-3.7-3.38.26-4.62,2.51-4.99,5.5-.21,1.65.2,3.09,1.83,3.84,1.68.78,3.48,1.73,5.26.5,1.52-1.04,1.67-2.72,1.28-4.44-.51-2.22-1.9-3.88-3.44-5.45Zm11.33,6.34c-.17,2.29.66,3.91,3.11,4.17,2.71.28,4.83-1.73,4.95-4.51.12-2.91-1.43-4.76-4.09-4.87-2.7-.11-3.7,1.22-3.96,5.22Z"/><path class="cls-5" d="m210.41,168.38c-3.38,1.63-5.96.26-8.54.71-2.36.41-4.83.37-7.15,1.33-.62.26-1.38.34-1.72-.4-.4-.86.45-1.09.95-1.43,3.69-2.5,7.51-3.74,11.84-1.47,1.11.58,2.46.7,4.62,1.27Z"/><path class="cls-5" d="m181.65,121c-.92,2.03-1.94,4.02-2.61,6.18-.63,2.03-.79,4.23-2.21,5.97-.03-4.71.98-9.01,4.82-12.15Z"/><path class="cls-5" d="m192.84,186.85c5.44,5.45,9.56,5.74,15.62.99-4.12,5.96-12.29,5.5-15.62-.99Z"/><path class="cls-5" d="m253.48,454.96c2.5-2.9,6.86-7.96,11.23-13.03.32.33.64.65.97.98-4.63,4.78-9.04,9.79-12.19,12.05Z"/><path class="cls-5" d="m169.84,155.46c-1.67-2.08-2.06-5.2-5.4-3.4-1.07.58-1.08-.53-.87-1.07.66-1.67,1.82-1.96,3.43-1.1,2.04,1.09,3.18,2.58,2.84,5.57Z"/><path class="cls-5" d="m268.72,435.23c-3.36,4.18-7.71,7.27-11.8,10.64,3.35-4.19,7.88-7.08,11.8-10.64Z"/><path class="cls-5" d="m214.04,143.32c-.8-1.23-1.6-2.46-2.36-3.61,1.5.17,2.55,1.23,2.36,3.61Z"/><path class="cls-5" d="m246.66,468.83c1.59-1.81,3.17-3.61,4.76-5.42.08.09.16.18.24.27-1.74,1.65-3.48,3.3-5.23,4.95.08.07.15.13.23.2Z"/><path class="cls-5" d="m191.87,140.06c-1.77.76-2.92,1.26-4.2,1.81q.83-2.22,4.2-1.81Z"/><path class="cls-5" d="m272.85,319.03c-1.61,6.16-5.75,10.93-8.63,16.39-.27-.15-.54-.3-.81-.45,3.16-5.3,6.33-10.6,9.49-15.9,0,0-.05-.04-.05-.04Z"/><path class="cls-5" d="m266.5,320.23c-1.35,4.01-2.92,7.94-5.98,11.03,1.99-3.68,3.99-7.36,5.98-11.03Z"/><path class="cls-5" d="m270.14,340.39c1.61-2.26,3.22-4.52,4.83-6.78-.52,3.05-2.11,5.35-4.83,6.78Z"/><path class="cls-5" d="m260.86,305.16c-.33,3.39-1.41,6.5-3.47,9.25,1.16-3.08,2.31-6.16,3.47-9.25Z"/><path class="cls-5" d="m257.62,391.11c1.2,6.54.89,13.04-.76,19.52.18-3.26.39-6.51.53-9.77.08-1.96.12-3.82-1.02-5.7-.8-1.31-1.63-3.51,1.32-4,0,0-.06-.05-.06-.05Z"/><path class="cls-5" d="m261.16,419.83c.91-3.43,1.88-6.76,2.05-10.27,1,3.77.04,7.18-2.05,10.27Z"/><path class="cls-5" d="m190.65,227.03c-.82,1.46-1.99,2.89.34,3.73.46.17.71.66.42,1.05-.21.29-.72.5-1.11.51-1.6.02-2.4-.84-2.46-2.44-.06-1.74.38-3,2.8-2.85Z"/><path class="cls-5" d="m267.91,389.67c3.39-.97,5.95-1.12,9.2-1.01-3.15,1.04-5.71,1.2-9.2,1.01Z"/><path class="cls-5" d="m195.91,151.34c-.23.81-.79,1.06-1.5,1.01-.98-.07-1.76-.53-1.62-1.6.1-.75.83-.94,1.54-.73.72.21,1.51.37,1.57,1.32Z"/><path class="cls-5" d="m208.64,149.32c.86.1,1.36.59,1.24,1.49-.11.85-.7,1.35-1.54,1.32-.88-.03-1.37-.62-1.28-1.49.09-.87.72-1.25,1.58-1.31Z"/><path class="cls-2" d="m197.76,235.9c-2.6,5.87-5.94,11.29-7.58,17.47-3.36,12.64-6.62,25.29-9.25,38.12-1.76,8.61-4.71,16.94-6.1,25.66-.4,2.5.18,3.05,2.52,2.17,2.78-1.04,5.57-2.07,8.44-2.81,11.8-3.05,23.34-1.24,34.77,2.1,1.14.33,2.43,1.13,3.41.11,1.02-1.05.05-2.29-.34-3.37-6.14-17.06-12.23-34.15-18.51-51.16-1.71-4.64-3.93-9.08-5.19-13.89-1.22-4.67-1.63-9.46-2.17-14.39Z"/><path class="cls-4" d="m197.71,224.64c.12-2.03-.77-3.18-2.76-3.45-2.63-.35-5.23-.95-7.61-2.08-4.86-2.31-9.51-5.04-14.51-7.07-.69-.28-1.27-.86-1.84-1.37-6.26-5.64-9.97-12.72-11.62-20.93-.33-1.66-.88-1.98-2.43-1.13-3.49,1.89-6.15,4.61-8.29,7.87-1.13,1.72.55,9.06,2.51,10.21,1.4.82,2.12,1.65,2.16,3.27.03.93.69,1.63,1.68,1.78,1.22.19,1.65.9,1.6,2.07-.06,1.28.65,1.77,1.86,1.7.79-.05,1.62-.09,1.96.81.9,2.38,4.96,2.15,4.56,5.78-.1.9,1.54.91,2.51.39.78-.42,1.86-.49,1.92.37.42,5.47,6.23,4.07,8.78,6.9.65.72,1.48.94,1.62,2.23.25,2.32.8,4.68,3.94,4.65,1.03-.01,1.35.54,1.29,1.46-.14,2.22,1.03,1.82,2.54,1.47,3.06-.7,4.5-2.97,5.74-5.46,1.56-3.11,3.91-5.87,4.38-9.46Z"/><path class="cls-3" d="m244.11,197.83c-1.99,7.45-5.44,14.16-12.53,17.63-9.02,4.42-18.63,7.17-28.87,6.78q-3.67-.14-2.74,3.53c.1.42.01.88.1,1.31.8,4.22,2.32,8.21,4.29,11.99,1.22,2.34,3.24,4.26,6.09,3.52,2.63-.68,3.43-3.25,3.77-5.69.25-1.82.63-2.5,2.82-2.51,2.66-.02,4.85-2.23,7.21-3.41,1.48-.74,2.6-1.88,4.46-1.64,2.29.3,3.93-.65,4.4-2.96.3-1.48.84-2.4,2.44-2.58.75-.08,1.75-.44,1.86-1.18.39-2.67,4.42-3.5,3.4-6.85-.06-.18.3-.68.54-.74,2.81-.71,2.58-3.26,3.17-5.27.37-1.26.57-2.58,1.38-3.66,3.17-4.27,2.89-5.6-1.79-8.27Z"/><path class="cls-7" d="m272.85,319.03l.05.04c.41-1.27.79-2.48-.23-3.72-1.35-1.65-1.8-3.75-2.63-5.67-.45-1.04-.4-2.82-1.89-2.69-1.13.1-.96,1.77-1.31,2.76-1.71,4.87-3.03,9.91-6.22,14.1,1.65-4.66,3.34-9.3,5.32-13.82,1.3-2.98,1.37-5.68-.49-8.39-2.5-3.64-1.88-8.77-5.61-11.83.14-5.71-2.96-10.46-4.47-15.69-1.19-4.11-2.45-8.29-2.81-13.04,1.41.92,1.46,2,1.63,2.87,1.32,6.64,4.24,12.71,6.64,18.96,3.07,7.97,5.52,16.16,10.31,23.48,2.53,3.87,3.7,8.67,6.49,12.55.42.58.51,1.7,1.52,1.43.85-.23.85-1.19.9-1.95.16-2.58.3-5.16.45-7.87.9.41.71.91.68,1.29-1.15,16.18,0,32.38-.46,48.57-.08,2.97.84,3.7,3.69,2.7,3.7-1.3,7.49-1.68,11.16.35,1.3.72,2.22.69,2.46-1.18,1.04-8.26,4.54-15.79,6.93-23.65,4.55-14.93,7.59-29.93,1.2-45.4-5.75-13.92-10.57-28.2-19.34-40.69-3.6-5.12-6.82-10.55-9.71-16.1-4.37-8.41-10.25-15.3-18.26-20.35-3.36-2.12-6.45-4.58-9.42-7.21-.77-.68-1.19-2.21-2.52-1.74-1.16.41-1.26,1.77-1.28,2.84-.07,4.01-2.37,7.42-4.33,10.29-2.21,3.23-5.8,5.66-8.03,9.16-.28.44-.83.97-1.27.99-3.46.12-6.26,1.57-8.68,3.94-.13.13-.48.03-.63.15-2.59,2.09-6.79,1.91-7.84,6.3-.55,2.31-2.49,4.13-5.39,4.11-3.06-.01-5.12-1.41-6.67-4.04-.82-1.39-.88-3.37-3.15-4.6.22,5.81,1.19,10.9,2.78,15.92,2.46,7.78,6.47,14.9,9.16,22.61,3.91,11.2,8.68,22.1,12.24,33.43,3.32,10.58,9.21,20.24,10.96,31.37.66,4.24,1.46,8.45,2.05,12.7.24,1.68.91,2.29,2.59,2.06,2.94-.39,5.88-.62,8.81-1.25,9.15-1.97,18.47-2.65,27.79-3.19,2.13-.12,3.07-.54,2.92-2.72-.12-1.86.23-3.85-.3-5.57-.48-1.55-.35-2.74-.11-4.29.92-6.04.99-12.06-2.69-17.48-.86-1.27-1.71-1.58-2.99-.82Z"/><path class="cls-7" d="m196.9,233.55c-.3-.18-.59-.36-.89-.54-1.13,1.82-2.21,3.68-3.41,5.46-1.79,2.68-6.32,4.81-7.83,3.31-2.21-2.19-5.29-3.78-6.34-6.93-1.06-3.18-3.6-4.42-6.26-5.67-.89-.42-1.82-.79-2.6-1.37-3.76-2.79-7.26-5.9-10.01-9.68-1.12-1.54-3.47-.84-3.94-2.56-.75-2.71-3.81-3.67-4.4-6.73-.29-1.49-3.2-2.32-4.22-4.28-.28-.53-.94.09-1.27.54-4.9,6.77-10.86,12.7-15.76,19.44-9.33,12.83-14.58,27.78-21.12,42.06-4.49,9.81-7.02,20.38-11.62,30.16-1.6,3.4-2.13,7.1-2.12,10.93.04,13.45,1.66,26.77,3.78,39.98,1.46,9.08,4,18.01,6.43,26.93,1.48,5.42,1.13,4.69,6.38,3.92.65-.09,1.28-.3,1.93-.41,3.26-.54,5.2-2.14,5.8-5.69,1.41-8.34,3.04-16.66,4.79-24.94,2.26-10.72,2.87-21.57,2.9-32.49,0-2.11-.73-4.02.13-6.38,1.7-4.73,4.81-8.6,6.9-13.05,3.9-8.32,9.29-15.84,12.59-24.55,2.19-5.78,5.92-10.97,8.96-16.42-2.1,7.25-6.38,13.49-8.37,20.83,3.69-3.09,6.22-7.25,10.26-9.96.34.88-.23,1.18-.56,1.56-10.57,12.16-20.33,24.85-26.54,39.93-.94,2.29-1.37,4.61-1.44,7.05-.18,5.94-.37,11.87-.6,17.8-.29,7.39-1.93,14.58-3.22,21.82-.45,2.53.37,2.99,2.62,2.09,3.87-1.56,7.82-2.93,11.69-4.51,8.43-3.45,15.79-9.19,24.72-11.63,1.15-.31,1.68-1.39,2.12-2.4,1.04-2.41,2.03-4.85,3.03-7.28,2.49-6.08,2.94-12.62,4.27-18.96,1.98-9.37,5.1-18.42,7.13-27.77,2.76-12.67,5.69-25.33,10.58-37.41,1.67-4.13,4.19-7.9,5.52-12.17Z"/><path class="cls-8" d="m178.59,151.96c1.35-2.68-2.18-3.69-2.67-6-.12-.57-.35-1.2-.96-1.11-.83.12-.93.94-.72,1.56,1.35,4,1.31,7.93-.36,11.84-.21.49-.23,1.17.37,1.4.28.11.88-.15,1.1-.42,1.6-2.04,3.63-3.9,3.23-7.27Z"/><path class="cls-8" d="m177.72,141.51c.97-.94,2.34-1.69,2.8-3.25.2-.66-.28-1.08-.92-.96-1.56.3-2.42,1.36-2.75,2.87-.12.57-.09,1.09.87,1.34Z"/><path class="cls-8" d="m168.5,145.54c.66-.85,1.49-1.69,2-2.68.4-.77-.23-1.74-.96-1.73-1.65.02-1.28,1.73-1.78,2.7-.28.55-.33,1.3.74,1.71Z"/><path class="cls-8" d="m211.67,124.55c.13-.03.42-.04.42-.09.29-2.62.6-5.25-1.22-7.62.26,2.56.53,5.11.8,7.71Z"/><path class="cls-6" d="m222.7,144.79c.69-1.74,1.27-3.51-.2-5.62-1.06,2.16-.6,3.89.2,5.62Z"/></svg>