<?xml version="1.0" encoding="UTF-8"?><svg id="personnage13" xmlns="http://www.w3.org/2000/svg" xmlns:xlink="http://www.w3.org/1999/xlink" viewBox="0 0 1080 1080"><defs><style>.cls-1{fill:url(#Dégradé_sans_nom_16-2);}.cls-1,.cls-2,.cls-3,.cls-4,.cls-5,.cls-6,.cls-7,.cls-8,.cls-9,.cls-10,.cls-11{stroke-width:0px;}.cls-2{fill:url(#Dégradé_sans_nom_8);}.cls-3{fill:url(#Dégradé_sans_nom_6);}.cls-4{fill:url(#Dégradé_sans_nom_4);}.cls-5{fill:url(#Dégradé_sans_nom_8-2);}.cls-7{fill:#3b2f35;}.cls-8{fill:#585254;}.cls-9{fill:#beaa9a;}.cls-10{fill:#aeb9b0;}.cls-11{fill:url(#Dégradé_sans_nom_16);}</style><linearGradient id="Dégradé_sans_nom_16" x1="-681.56" y1="526.31" x2="-580.16" y2="526.31" gradientTransform="translate(341.82) rotate(-180) scale(1 -1)" gradientUnits="userSpaceOnUse"><stop offset="0" stop-color="#3b2f35"/><stop offset=".89" stop-color="#aeb9b0"/></linearGradient><linearGradient id="Dégradé_sans_nom_8" x1="-709.97" y1="534.46" x2="-701.99" y2="534.46" gradientTransform="translate(341.82) rotate(-180) scale(1 -1)" gradientUnits="userSpaceOnUse"><stop offset="0" stop-color="#f01048"/><stop offset=".56" stop-color="#aeb9b0"/></linearGradient><linearGradient id="Dégradé_sans_nom_4" x1="-700.88" y1="549.62" x2="-691.54" y2="549.62" gradientTransform="translate(341.82) rotate(-180) scale(1 -1)" gradientUnits="userSpaceOnUse"><stop offset="0" stop-color="#3b2f35"/><stop offset=".48" stop-color="#aeb9b0"/></linearGradient><linearGradient id="Dégradé_sans_nom_6" x1="-659.02" y1="652.49" x2="-653.57" y2="652.49" gradientTransform="translate(341.82) rotate(-180) scale(1 -1)" gradientUnits="userSpaceOnUse"><stop offset="0" stop-color="#3b2f35"/><stop offset=".56" stop-color="#aeb9b0"/></linearGradient><linearGradient id="Dégradé_sans_nom_8-2" x1="-688.6" y1="531.11" x2="-681.28" y2="531.11" xlink:href="#Dégradé_sans_nom_8"/><linearGradient id="Dégradé_sans_nom_16-2" x1="-685.57" y1="454.89" x2="-612.85" y2="454.89" xlink:href="#Dégradé_sans_nom_16"/></defs><path class="cls-7" d="m860.32,708.04c1.58.41,1.43,1.39,1.61,2.16.19.79.13,1.66,1.26,2.56,0-4.62,0-8.89,0-13.6-1.81,1.86-2.66,3.91-3.29,6-1.53,5.08-2.8,10.28-2.05,15.59,1.26,8.93-1.23,18.18,2.71,26.92,2.41,5.35,4.07,11.04,6.04,16.59.43,1.22.77,2.47.77,3.87-3.43-4.72-4.53-10.53-7.12-16.3-.8,1.89-.59,3.68-2.66,3.94-1,.13-.58,1.06-.21,1.71.83,1.46,1.66,2.93,2.46,4.41.92,1.69,3.22,3.71.87,5.27-2.17,1.45-4.97,3.21-7.95,1.15-.56-.39-.9-1.19-1.84-.95-.95.77-.4,1.86-.22,2.62,2.26,9.6,1.35,19.4,1.84,29.11,1.28,25.33,2.05,50.7,5.74,75.84.68,4.63,1.66,9.22,2.6,13.81,1.33,6.47,4.85,9.76,11.46,10.65,2.61.35,5.26.6,7.89.57,12.73-.16,25.39,1.24,38.11,1.56,8.66.22,16.77,4.04,25.38,4.88,8.89.86,17.26,3.94,25.89,5.92,8.95,2.05,17.89,3.18,27.07,2.23,2.29-.24,2.99-1.01,2.86-3.34-1.49-25.82-.63-51.69-1.99-77.52-.95-18.01-.74-36.1-2.55-54.05-2.73-27.15-.76-54.32-1.41-81.47-.18-7.64-1.5-15.27-3.12-22.79-.4-1.88-.81-3.75-1.17-5.64-.21-1.12.2-2.62-1.58-2.74-1.4-.09-2.75-1.22-4.21.51-2.31,2.74-5.79,3.35-9.21,3.89,3.77-1.96,6.52-5.68,11.33-5.85,2.05-.07,4.92-.19,4.06-3.92-.74-.51-2.63,2.44-2.64-.75,0-.63-.54-.69-1.27-.22-9.69,6.21-20.45,9.04-31.81,9.47-14.7.56-29.16-1.61-43.33-5.3-7.93-2.07-14.5-7.33-21.7-11.09-1.79-.93-2.46-2.03-3.51.98-4.42,12.63-10.67,24.4-17.91,35.63-1.96,3.03-3.15,6.1-2.89,9.79.45,6.33.25,12.71.44,19.05.12,4.19,1.33,8.25.89,12.47-2.14-7.74-4.56-15.4-5.65-23.62Z"/><path class="cls-7" d="m977.7,661.89c1.04.45,1.53-.45,2.02-1.08,2.51-3.19,4.98-6.41,7.72-9.46-.6,3.57-3.58,5.79-5.52,9.46,5.09-1.94,5.12-7.75,9.75-9.93-.45,2.72-3.19,3.85-2.85,6.87,4.61-4.58,8.45-9.24,12.11-14.05.51-.67.92-1.4,1.42-2.08,8.89-12.19,8.82-27.47-.39-39.44-1.95-2.53-4.58-4.53-6.83-6.84-1.52-1.56-2.85-3.34-3.34-5.47-.22-.98-2.34-2.99.96-3.16.65-.03.42-1.02.32-1.57-.99-5.32-2.25-10.57-4.09-15.66-.93-2.56-3.12-4.14-4.64-6.25-.29.1-.57.2-.86.29,1.05,4.02,1.7,8.21,3.23,12.04,3.36,8.41,1.95,15.69-4.16,22.19-5.45,5.8-7.03,13.23-8.76,20.6-.33,1.4-.59,2.82-.97,4.21-.35,1.3-1.24,1.84-2.61,2.06-1.44.24-2.22-.24-2.95-1.38-7.85-12.2-16.15-24.13-23.45-36.64-4.51-7.72-7.54-16.32-11.16-24.55-3.01-6.85-6.19-13.55-12.05-18.53-.71-.6-1.26-1.65-2.4-1.19-4.9,1.98-10.16,1.58-15.24,2.17-12.64,1.45-20.1,9.61-26.65,19.32-6.51,9.66-11.8,20.12-19.14,29.2-2.74,3.39-4.68,7.2-7.11,10.74-.96,1.4-.92,2.12,1.04,2.73,4.78,1.47,8.5,4.04,11.33,8.67,4.53,7.43,10.6,13.82,16.54,20.22,8.66-11.57,17.83-22.66,25.17-35.06.24-.41.46-.87.79-1.2.84-.84,1.51-2.84,2.85-1.52.39.39,1.97,2.9.08,4.48-8.25,6.89-12.81,16.72-19.57,24.8-2.02,2.41-2.18,4.91-.12,7.53,1.09,1.38,1.82,3.05,3.1,5.26-2.71-1.19-3.02-3.73-5.64-5.06,1.72,5.87,6.01,9.3,8.65,13.82-3.02-2.54-6.05-5.02-7.92-8.89-1.06,4.2-.95,4.54,1.69,7.13,8.17,7.99,17.87,13.26,28.86,16.13,2.76.72,5.68.84,8.54,1.1,10.24.93,20.28,3.95,30.7,3,4.89-.45,9.76-1.05,14.5-2.39,2.62-.74,4.91-1.92,6.44-4.8.67.88-.3,1.8.61,2.19Z"/><path class="cls-11" d="m956.7,509.83c-1.22-1.09-1.87-1.17-2.46.61-4.27,12.94-14.22,21.16-24.55,28.87-6.02,4.5-6.31,4.21-1.48,9.68,3.1,3.5,4.49,7.9,6.56,11.94,5.49,10.66,9.1,22.24,15.86,32.29,5.55,8.25,10.9,16.64,16.34,24.96.26.4.54.81,1.43.65-.52-7.26-1.17-14.51-3.74-21.57,2.12.04,1.59,2.03,2.76,2.51,1.66-.76.71-2.95,2.99-4.46-2,8.21-1.11,15.68.85,23.17.57-2.3,1.05-4.63,1.72-6.9,1.86-6.28,4.64-11.99,9.14-16.94,4.45-4.9,5.69-11.01,3.21-17.15-2.93-7.26-3.75-15.15-7.22-22.22-4.95-10.07-5.18-20.35-.78-30.68.66-1.56.29-2.1-1.27-2.45-2.58-.56-5.09-1.42-7.67-1.95-2.97-.6-4.21-2.97-5.69-5.13-.3-.44-.69-1.12-.11-1.63.68-.6,1.5-.24,1.91.3,4.36,5.58,10.97,5.23,16.96,6.46,1.49.3,3.2.28,4.64-.15,6.07-1.78,12.09-3.74,18.11-5.7,1.56-.51,2.51-1.87,3.28-3.23,5.93-10.54,11.86-21.08,17.71-31.67,1.58-2.87,1.44-2.95-1.07-6.37-.77,6.97-5.76,8.82-11.04,10.21-5.67,1.49-10.73.7-14.48-5.06-1.21,2.26-1.47,4.2-1.79,6.16-.94,5.57-3.38,8.44-7.17,8.58-7.34.28-10.65-3.56-9.38-10.85.56-3.24,1.96-6.15,3.33-9.1,1.03-2.23,2.02-4.55,1.86-7.68-4.35,3.92-9.36,3.43-14.1,2.87-3.84-.45-6.96-2.93-9.75-5.75-3.23-3.26-3.11-7.07-2.49-11.09.26-1.66.56-3.32.84-4.98.18-1.11,1.03-2.75-.82-2.84-1.57-.08,0,1.88-1.2,2.74-1.97-3.82-4.77-6.98-8.09-9.68-5.78-4.71-9.48-3.59-11.5,3.51-1.18,4.13-.99,8.32-.46,12.51.27,2.15,1.68,3.2,3.72,3.89,3.34,1.12,6.93,1.78,9.56,4.49.69.71,1.58,1.49,1.07,2.44-.88,1.65-1.49-.07-2.16-.41-1.18-.59-1.51.01-1.65,1.01-1.47,10.1-3.21,20.19-2.55,30.47.16,2.42,1.73,4.28,3.5,5.7,4.02,3.23,6.9,7.72,11.46,10.34.25.14.32.59.64,1.22-2.3.3-3.57-.86-4.79-1.95Z"/><path class="cls-10" d="m858.53,765.73c-2.15-8.67-8.99-15.58-9.03-25.33,2.57,2.15,2.53,5.24,3.59,7.75.66,1.57,1.3,3.08,2.45,4.34.42.46,1.02.75,1.62.45.7-.35.4-.99.28-1.57-.65-3.04-.32-6.22-1.54-9.2-.52-1.27-.48-2.84-.44-4.26.46-17.01,1.98-33.87,5.29-50.62,2.37-11.97,3.49-24.19,5.39-36.26.8-5.07,4.66-8.35,8.29-11.41,2.34-1.97,2.25-3.4.45-5.26-5.01-5.2-9.35-10.95-13.6-16.77-.28-.39-.56-.79-.9-1.13-1.24-1.26-1.21-4.36-2.88-4.08-1.89.31-2.11,3.2-2.85,5.02-3.28,8.06-4.45,16.66-6.11,25.13-1.92,9.8-.55,19.62-.34,29.45.28,13.34.38,26.7,0,40.04-.12,4.18,2.28,5.23,5.07,6.61-.29.95-3.29,1.03-.61,2.86,1.15.79-.78,2.06-1.83,1.64-3.41-1.35-3.37.83-3.65,3.1-.76,6.17-2.57,12.14-3.06,18.42-.41,5.19.78,9.46,3.84,13.42,2.23,2.89,4.52,5.73,7.13,8.34-1.16-7.7-8.73-12.18-9.91-19.79,4.66,6.23,9.57,12.24,13.34,19.1Z"/><path class="cls-10" d="m1046.2,556.54c-4-.12-7.91,2.09-11.81.67-2.64-.96-5.31-.5-7.61-.12-1.81.3-2.57,3.67-1.88,5.76.96,2.9,1.63,6.19,4.21,8.22,3.56,2.8,2.14,5.34.24,8.31-3.78,5.88-8.35,11.13-12.71,16.54-2.81,3.47-4.96,7.38-7.75,10.83-1.01,1.25-.64,2.38-.31,3.7,1.19,4.77,2.69,9.45,3.04,14.43.42,6.02-1.25,11.47-5.24,15.63-5.22,5.44-4.96,11.05-2.4,17.29.96,2.33,1.55,4.75,1.78,8.15-2.23-2.58-2.13-5.16-2.94-7.34-.67-1.8-1.35-2.34-3.09-1.47-.74.37-1.74.3-2.38.77-1.85,1.37-5.88-.54-5.75,3.85.08,2.46-1.14,4.7-.43,7.41,1.37,5.2,3.42,10.29,3.52,15.79.01.72.04,1.6,1.04,1.53,1.15-.08,1.95-.83,2.43-1.88,1.96-4.26,4.06-8.45,5.84-12.78,9.39-22.75,17.42-46.02,26.14-69.02,3.62-9.54,7.59-18.95,11.41-28.41.18-.44.35-1.12.66-1.22,5.39-1.62,5.77-7.43,9.04-10.84,2.02-2.11.18-4.15-.73-6.24-1.71-3.95-4.11-5.87-8.78-5.45-3.2.29-4.18,2.18-5.92,4.83,3.87-.13,7.16-.18,10.37,1.06Z"/><path class="cls-8" d="m919.52,468.87c-1.92,1.55-1.85,1.99-.04,3.17,4.34,2.84,4.3,2.86,7.65-1.13,3.04-3.62,6.11-7.21,9.54-10.55-.93,3.39-2.79,6.19-5.07,8.75-1.44,1.61-2.84,3.26-4.25,4.89-1.09,1.26-1.35,2.06.35,3.42,2.33,1.87,3.34,1.54,4.54-.99,1.81-3.8,4.1-7.34,6.66-10.68.66-.86,1.54-2.44,2.77-1.44,1.06.86-.33,1.9-.91,2.72-3.33,4.71-6.49,9.45-8.34,15.04-.63,1.89-.1,2.74,1.11,3.53,1.78,1.15,1.94-.74,2.43-1.62,3.21-5.77,6.39-11.55,9.47-17.39,2.45-4.64,2.21-6.22-2.33-7.39-6.14-1.57-7.9-5.55-7.71-11.4-2.13.6-2.93,2.38-4.29,3.4-5.84,4.38-12.63,6.17-19.63,7.39-2.59.45-5.21.77-7.81,1.15-1.05.15-2.16.46-.94,1.67,2.98,2.95,5.74,6.13,9.16,8.6,1.03.74,1.64,1.08,2.95-.14,2.86-2.67,6-5.15,9.36-7.12,2.55-1.5,4.39-4,7.42-4.83-2.69,5.15-7.86,7.54-12.08,10.93Z"/><path class="cls-10" d="m936.31,922.01c.57-3.79.11-7.72,1.51-11.39.57-1.49-.4-1.55-1.39-1.78-4.32-1.01-8.64-2-12.93-3.13-1.75-.46-1.96.21-1.51,1.58,1.82,5.6,1.84,11.66,4.28,17.09,1.08,2.39.08,4.39-.89,6.49-2.37,5.12-1.84,5.85,2.96,8.56,5.3,3,10.36,6.44,15.38,9.89,4.55,3.12,6.33,3.35,9.77.53,2.69-2.2,2.86-4.96.07-7.17-2.9-2.29-6.1-4.22-9.19-6.26-2.54-1.67-4.87-3.51-6.04-6.46-.65-1.65-1.34-1.73-2.87-.58-3.22,2.42-5.43,1.64-6.73-1.97,5.25,1.02,6.79-.11,7.59-5.42Z"/><path class="cls-10" d="m900.68,907.73c.1-2.32-.54-3.05-2.9-3.3-6.84-.73-6.66-.88-6.42,6,.18,5.21,2.24,10.05,2.45,15.25.11,2.69-.58,4.93-2.16,7.04-1.22,1.63-2.39,3.3-3.47,5.01-3.29,5.24-1.84,8.96,4.16,10.42,3.04.74,5.92-.23,8.66-1.52,1.1-.52,1.37-1.44,1.28-2.69-.22-3.15-1.08-6.13-2.07-9.1-.4-1.19-1.18-1.35-2.19-1.37-1.24-.01-2.4-.33-3.23-1.3-.27-.31-.43-.92-.32-1.31.21-.8.87-.66,1.43-.36,3.32,1.79,3.31-.45,3.3-2.71,0-1.44,0-2.88,0-4.52-.49-5.13,1.25-10.26,1.48-15.54Z"/><path class="cls-9" d="m1003.56,461.69c-1.8-.79-2.78-.54-3.17,1.73-.75,4.48-2.05,8.82.29,13.32,1.7,3.27,4.12,4.86,7.7,4.83,4-.03,7.46-1.69,10.7-3.8,2.74-1.79,2.06-5.21,3.3-7.74.3-.62-.69-.78-1.23-.96-1.37-.45-2.76-.83-4.1-1.35-2.19-.86-4.48-2.54-4.68,1.91-.07,1.52-1.79,2.3-3.27,2.32-1.6.02-3.1-.67-3.84-2.24-.79-1.69-1-3.44.17-5.1.33-.46,1.19-.41,1.14-1.59-1.05-.46-2.04-.9-3.02-1.33Z"/><path class="cls-9" d="m985.69,458.12c.07-2.91-3.19-2.87-5.03-3.69-1.8-.8-.96,1.27-1.11,2.11-.16.86-.67,2.21-1.18,1.81-1.92-1.51-4.96,1.81-6.26-1.61-.61-1.61-1.27-3.47-.39-4.87,1.43-2.25.09-2.82-1.43-3.73-8.3-4.96-7.44-4.75-9.19,4.77-.92,5,3.07,8.66,9.14,11.39,2.05.92,4.38,1.19,6.34,1.16,4.82.38,9.02-2.88,9.12-7.34Z"/><path class="cls-8" d="m1011.85,507.94c-2.63,5.81-7.02,10.43-10.35,15.77-2.81,4.51-2.34,7.8,2.68,9.42,1.91.61,1.88-1.11,2.1-2.1,1.87-8.58,5.25-16.63,8.4-24.77,1.15-2.97,2.49-5.86,3.74-8.78-.26-.17-.52-.34-.77-.5-1.95,3.65-4.1,7.21-5.8,10.97Z"/><path class="cls-8" d="m957.77,421.12c1.76-1.32,3.59-2.19,5.89-2.34,2.07-.13,4.2-.75,5.34-3.4-5.12-.22-9.74.77-14.36,1.77-.84.18-1.55.64-1.97,1.45-2.06,3.95-4.33,7.74-7.48,10.96-1.09,1.11-1.01,2.44.94,2.17,1.41-.2,2.06.92,3.13,1.38,1.56-5.12,4.46-8.96,8.51-11.98Z"/><path class="cls-8" d="m937.35,485.98c-.84,1.91,1.35,2.83,2.75,3.58,1.76.94,1.88-.76,2.27-1.8,1.88-5.05,1.8-10.43,3.05-15.59-.32-.12-.63-.23-.95-.35-2.4,4.71-4.99,9.33-7.11,14.16Z"/><path class="cls-10" d="m1039.01,541.92c1.02-3.56,2.2-7.07,3.24-10.62.27-.91,1.22-2.3-.54-2.54-1.11-.15-2.6-.31-3.13,1.56-1.36,4.81-2.9,9.57-4.45,14.62,2.67.18,4.2-.65,4.87-3.02Z"/><path class="cls-8" d="m994.55,524.98c-.26.77-.93,1.44.07,2.17,1.11.8,1.86.13,2.4-.66,1.9-2.82,4.44-5.23,5.81-8.76-2.62.64-5.03,1.07-7.33,1.83-2.23.74-4.34,1.84-6.57,2.81q2.68,3.1,5.87-.65c1.07,1.18.1,2.22-.25,3.26Z"/><path class="cls-10" d="m1033.16,539.98c.1-1.07.06-2.23.49-3.16.36-.8,1.71-1.38-.12-1.92-1.04-.31-2.39-.6-2.58.93-.45,3.71-.66,7.45-.97,11.18.35.07.69.15,1.04.22,1.09-2.29,1.89-4.67,2.13-7.24Z"/><path class="cls-8" d="m950.86,433.88c-.37.66.74,1.38,1.39,1.86.48.35,1.04.07,1.13-.4.79-4.25,3.37-7.69,5.22-11.5-4.24,2.11-5.66,6.35-7.75,10.04Z"/><path class="cls-8" d="m1028.95,470.78c2.14-4.52,1.27-15.74-1.82-20.58,1.86,6.53,1.35,13.33,1.82,20.58Z"/><path class="cls-2" d="m1045.01,535.21c1.63.39,3.26.78,4.9,1.15.58.13,1.22.25,1.61-.38.41-.67.32-1.42-.03-2.06-.65-1.16-6.1-1.98-7.05-1.07-.32.31-.48.8-.63,1.09.06.93.61,1.13,1.21,1.28Z"/><path class="cls-4" d="m1033.94,548.35c-.81,1.05-.76,2.48.04,3.31,1.12,1.16,1.48-.32,1.98-1.01q1.34-1.81,6.73-2.51c-1.61-1.42-7.56-1.33-8.76.21Z"/><path class="cls-3" d="m1000.77,651.58c-.22-1.5-.82-1.96-1.97-.67-1.15,1.29-2.27,2.61-3.41,3.92,2.2-.5,6.03,1.29,5.38-3.25Z"/><path class="cls-5" d="m1030.37,531.75c.35-1.93-1.58-1.42-2.55-1.47-1.65-.09-4.55-1.54-4.71.39-.22,2.79,3.07.61,4.34,1.67,1.11-.27,2.64.92,2.92-.6Z"/><path class="cls-8" d="m972.77,412.24c.68.02,15.92-.96,17.19-1.11s14.65,3.66,14.65,3.66c0,0,5.09,4.14,7.16,6.21s7.64,5.57,8.91,7.96,3.5,8.91,4.14,11.46,1.11,7.16,1.27,9.07c.16,1.91.32,4.14-1.43,5.09-1.75.96-1.91,1.43-5.25,0s-4.14-3.18-7.16-4.93c-3.02-1.75-3.34-.32-5.89-2.55s-3.18-2.23-5.25-3.5-.32-2.23-3.82-2.07-3.66-1.27-6.53-1.59-3.66,1.27-5.41-3.82c-1.75-5.09-2.87-12.1-6.21-14.49s-6.53-4.62-7.96-4.46-6.69.32-8.76,3.82-4.46,5.73-5.41,8.76,10.51-17.67,15.76-17.51Z"/><path class="cls-1" d="m1026.58,457.77c.98,5.65.8,14.8.8,14.8l-4.14-4.14c-.8-.8-7.16-2.39-8.6-3.18s-10.35-4.93-11.46-4.93-3.18.16-3.66,1.11-.64,6.84-.8,8.91-2.55,11.46-3.02,12.58-1.75,7-3.34,7.48-2.87,3.5-5.73,1.59-4.78-2.07-5.09-5.09,1.27-9.07,2.55-12.26c1.27-3.18,2.23-6.53,2.23-9.55,0-3.02,0-7,0-7,0,0-3.18-4.93-6.21-5.57-3.02-.64-8.12-4.78-10.67-6.05s-10.51-4.62-11.78-5.57-3.82-3.18-2.71-5.89,4.3-11.62,6.37-11.94,8.28-6.21,9.87-5.89,5.09,0,7.96,4.46,6.84,11.46,7.32,14.33c.48,2.87,4.14,3.18,7,4.46s7.96,1.59,9.71,3.34c1.75,1.75,9.07,5.89,9.07,5.89,0,0,3.66,3.34,7.48,4.3,3.82.96,6.21.16,6.84,3.82Z"/><path class="cls-6" d="m1004.6,414.42c1.6,0,2.59,1.13,3.63,2.07,2.32,2.08,4.28,4.71,6.89,6.3,7.44,4.53,9.7,11.82,11.29,19.61.26,1.28.26,2.79.95,3.79,6.74,9.72,6,20.11,2.92,30.73-.27.94-.55,1.79-.18,2.79,2.61,6.89-1.05,11.26-5.86,14.16-2.07,1.25-3.63,2.64-4.5,4.88-4.18,10.74-8.06,21.58-11.34,32.64-1.68,5.68-2.57,5.89-7.08,2.31-.66-.52-1.35-1-2.06-1.45-4.15-2.64-8.92-4.25-12.5-7.89-2.82-2.87-6.4-1.89-7.59,1.8-.44,1.37-.9,2.74-1.29,4.13-2.87,10.13-1.25,19.35,5.13,27.87,2.85,3.82,7.02,6.68,8.57,11.45,1.6,4.91,2.88,9.91,3.75,15.02,1.01,5.93.96,12.34,7.68,15.59,1.33.65,2.2,2.51,2.99,3.98.97,1.8,1.53,1.87,2.54.04,1.68-3.05,3.64-5.93,5.81-8.67,4.46-5.64,8.84-11.35,13.25-17.04,1.5-1.94,2.03-3.44.05-5.9-2.55-3.17-5.87-6.84-5.23-11.05.6-3.96.72-7.83.77-11.77.02-1.88.89-3.06,2.79-3.01,2.33.06,2.78-1.15,2.72-3.13-.04-1.19.3-2.38.43-3.58.62-5.96.62-6.03-5.32-6.3-2.06-.09-3-.55-2.89-2.92.12-2.38,1.19-2.87,3.19-2.61,1.43.19,2.86.36,4.29.48,7.04.6,5.38,1.8,5.55-5.39.01-.61.07-1.32-.64-1.51-.9-.23-1.12.5-1.44,1.19-.67,1.45.16,3.59-1.92,4.64-.84-2.1.08-3.82.4-5.53.39-2.07,2.14-2.45,3.9-2.39,1.81.07,1.93,1.66,2.02,2.91.15,2.09.04,4.2.04,6.29,1.3-2.6,3.94-1.96,5.89-2.77,2.11-.88,2.96-.31,2.8,1.94-.08,1.05-.43,2.32,1.17,2.52,4.14.51,8.58,1.7,12.24-.86,3.96-2.76,9.53-3.25,11.91-8.31.32-.68,1.15-.82,1.9-.1-.65.91-1.22,1.92-1.99,2.75-1.31,1.41-.71,5.99-4.87,3-.42-.3-1.95.53-2.23,1.48-.4,1.34-.94,2.04-2.45,1.99-1.09-.04-.71.71-.64,1.49.38,4.32-2.51,7.28-6.74,7-2.28-.15-4.53-.47-6.71-1.23-1.79-.63-3.69-1.11-4.28,1.49-.51,2.25-3.36,4.97.78,6.58,4.79,1.87,7.2,5.76,9.55,10.02,1.88,3.41,1.09,5.77-.8,8.88-3.72,6.12-9,11.14-11.89,17.86-7.68,17.9-13.88,36.36-21,54.47-5.93,15.08-11.06,30.47-17.94,45.2-1.53,3.28-6.64,4.23-5.26,9.43,1,3.75.59,7.88.68,11.85.64,27.64.08,55.27,2.3,82.92,3.41,42.45,2.82,85.1,4.2,127.65.07,1.99-.62,3.2-2.73,3.47-9.48,1.23-18.89.81-28.24-1.19-9.6-2.05-18.87-5.51-28.69-6.66-2.32-.27-3.67-.13-3.68,2.64,0,2.52-.07,5.08-.53,7.54-1.25,6.68,2.13,10.87,7.14,14.42,3.33,2.36,7.36,3.58,10.32,6.52,2.05,2.03,3.06,6.69,1.88,9.03-1.26,2.51-6.72,5.72-9,4.94-2.69-.91-5.36-1.77-7.77-3.59-4.48-3.39-9.17-6.57-14.05-9.36-6.94-3.98-7.66-5.45-4.58-13.06.65-1.6,1.09-3.09.43-4.84-1.19-3.17-1.5-6.52-1.89-9.87-1.08-9.41-1.14-9.41-10.38-9.39-.6,0-1.2,0-1.8,0-6.14,0-5.99.03-6.8,6.09-1.27,9.49-1.41,18.85,1.77,28.06.62,1.79.72,3.77,1.01,5.67.18,1.23-.09,2.32-.96,3.33-4.51,5.24-15.25,5.03-19.19-.67-1.83-2.64-4.64-5.44-1.65-9.21,1.93-2.43,3.42-5.23,5.43-7.59,1.98-2.32,2.88-4.94,2.11-7.67-1.48-5.25-2.05-10.6-2.47-15.97-.21-2.71-1.44-3.49-3.91-3.34-4.58.28-9.26.29-13.58-1.09-5.42-1.73-11.46-2.95-12.85-10.26-2.27-11.93-4.08-23.9-5.26-35.98-1.63-16.76-1.73-33.61-2.98-50.38-.88-11.87.74-23.85-1.7-35.63-.05-.23-.12-.56,0-.71,2.73-3.47-.31-5.02-2.32-6.79-5.49-4.83-7.51-10.4-4.15-17.35.51-1.05.7-2.3.83-3.49,1.11-9.71,3.63-19.16,3.08-29.17-.72-13.17.53-26.46-.22-39.63-.96-16.94-.42-33.6,4.29-49.97.3-1.03.22-1.83-.23-2.74-1.38-2.79-2.59-5.68-4.11-8.39-.6-1.07-.81-1.88-.37-2.98,1.94-4.93,4.33-9.72,7.5-13.87,3.51-4.58,6.95-9.16,10.03-14.04,4.55-7.21,9.2-14.36,14.09-21.33,5.19-7.41,10.62-14.57,20.54-16.2,5.21-.86,10.36-2.07,15.69-1.92,3.7.11,7.04-2.86,10.96-1.22.46.19,1.41-.73,2.11-1.18,7.36-4.68,13.45-10.83,19.45-17.07,2.85-2.96,4.77-6.58,6.56-10.28,1.71-3.54,1-6.02-2.19-8.3-3.34-2.39-6.34-5.23-6.57-9.8-.05-1.08-.65-1.21-1.61-1.42-4.37-.98-8.68-2.68-10.47-7-2.69-6.47-9.04-8.26-13.8-12.06-.51-.41-1.1-.45-1.65-.05-1.67,1.22-2.9.14-4.2-.75-4.81-3.28-8.39-7.88-12.51-11.88-2.03-1.98.22-2.16,1.61-2.41,7.07-1.28,14.28-1.9,21.06-4.5,6.39-2.46,12.38-5.31,13.87-13.1.47-2.44,1.05-5.11,3.04-6.81,4.84-4.13,8.24-9.37,11.14-14.85,1.62-3.06,3.91-4.3,6.82-5.17,4.43-1.34,9.04-1.04,13.56-1.58,1.24-.15,3.13-1.07,3.41.56.27,1.6-1.92,1.27-3.06,1.76-.16.07-.22.36-.45.77,7.03,2.75,12.68,6.94,14.91,14.59.64,2.19,1.5,4.31,2.19,6.48.31.98.67,2.04,1.82,1.83,1.49-.28.76-1.53.57-2.35-1.62-6.97-4.15-13.56-8.81-19.8,2.48.87,4.15,1.78,5.44,3.72,3.71,5.55,6.15,11.61,7.82,18.02.6,2.3,2.03,3.24,4.57,3.11-2.01-6.66-4.27-12.91-7.14-18.98,3.31,2.06,4.86,5.22,5.98,8.64,1.38,4.22,2.7,8.43,4.81,12.4.79,1.49,1.56,1.8,3.32,1.73-3.49-7.41-2.29-16-7.51-22.64,2.77,1.39,4.61,3.26,5.39,6.25,1.48,5.68,2.58,11.47,4.85,16.95.99,2.38,3.32,3.16,4.76,2.78,1.93-.52-.01-2.42-.37-3.54-1.7-5.39-2.87-10.97-5.66-16.04,2.57.97,3.65,3.16,4.56,5.29,2.33,5.53,3.46,11.5,6.08,16.94.33.68.29,1.49-.38,1.96-.65.46-1.41.19-2.04-.18-4.19-2.4-8.27-5.02-12.57-7.19-3.24-1.64-6.65-3.33-10.16-3.9-4.51-.73-5.83-1.36-7.24-5.53-2.24-6.68-3.87-13.8-11.43-17.02-1.16-.49-2.08-1.08-3.28-.57-7.44,3.17-11.97,8.98-14.7,16.39-1.1,2.99-1.02,5.32,3.01,5.62.79.06,1.55.6,2.32.94,8.26,3.6,14.95,9.99,23.41,13.23,2.43,5.89,9.13,3.19,12.89,6.42.25.21.85.43.94.34,3.49-3.9,6.44-.17,9.39.85,4.17,1.44,8.07,3.68,12.39,4.77,2.59.65,5.26,1.01,6.64,4.64,0-4.49-.02-8.05,0-11.61.02-2.48.38-4.91-3.67-4.09-1.27.26-4.87-1.27-3.83-2.31,2.29-2.31.3-3.5-.31-4.87-1.75-3.97-3.4-7.9-3.99-12.27-.58-4.29-2.74-7.93-5.62-11.1-2.27-2.5-4.62-4.9-6.94-7.35,7.32,4.62,13.12,10.47,15.08,19.2,1.15,5.12,3.16,9.82,6.35,14.9.42-5.2-.35-9.46-1.39-13.62-1.33-5.32-3.79-9.81-8.42-13.39-3.67-2.84-7.13-6.31-9.51-10.53l-.05.05Zm-144.27,293.62c1.58.41,1.43,1.39,1.61,2.16.19.79.13,1.66,1.26,2.56,0-4.62,0-8.89,0-13.6-1.81,1.86-2.66,3.91-3.29,6-1.53,5.08-2.8,10.28-2.05,15.59,1.26,8.93-1.23,18.18,2.71,26.92,2.41,5.35,4.07,11.04,6.04,16.59.43,1.22.77,2.47.77,3.87-3.43-4.72-4.53-10.53-7.12-16.3-.8,1.89-.59,3.68-2.66,3.94-1,.13-.58,1.06-.21,1.71.83,1.46,1.66,2.93,2.46,4.41.92,1.69,3.22,3.71.87,5.27-2.17,1.45-4.97,3.21-7.95,1.15-.56-.39-.9-1.19-1.84-.95-.95.77-.4,1.86-.22,2.62,2.26,9.6,1.35,19.4,1.84,29.11,1.28,25.33,2.05,50.7,5.74,75.84.68,4.63,1.66,9.22,2.6,13.81,1.33,6.47,4.85,9.76,11.46,10.65,2.61.35,5.26.6,7.89.57,12.73-.16,25.39,1.24,38.11,1.56,8.66.22,16.77,4.04,25.38,4.88,8.89.86,17.26,3.94,25.89,5.92,8.95,2.05,17.89,3.18,27.07,2.23,2.29-.24,2.99-1.01,2.86-3.34-1.49-25.82-.63-51.69-1.99-77.52-.95-18.01-.74-36.1-2.55-54.05-2.73-27.15-.76-54.32-1.41-81.47-.18-7.64-1.5-15.27-3.12-22.79-.4-1.88-.81-3.75-1.17-5.64-.21-1.12.2-2.62-1.58-2.74-1.4-.09-2.75-1.22-4.21.51-2.31,2.74-5.79,3.35-9.21,3.89,3.77-1.96,6.52-5.68,11.33-5.85,2.05-.07,4.92-.19,4.06-3.92-.74-.51-2.63,2.44-2.64-.75,0-.63-.54-.69-1.27-.22-9.69,6.21-20.45,9.04-31.81,9.47-14.7.56-29.16-1.61-43.33-5.3-7.93-2.07-14.5-7.33-21.7-11.09-1.79-.93-2.46-2.03-3.51.98-4.42,12.63-10.67,24.4-17.91,35.63-1.96,3.03-3.15,6.1-2.89,9.79.45,6.33.25,12.71.44,19.05.12,4.19,1.33,8.25.89,12.47-2.14-7.74-4.56-15.4-5.65-23.62Zm117.37-46.15c1.04.45,1.53-.45,2.02-1.08,2.51-3.19,4.98-6.41,7.72-9.46-.6,3.57-3.58,5.79-5.52,9.46,5.09-1.94,5.12-7.75,9.75-9.93-.45,2.72-3.19,3.85-2.85,6.87,4.61-4.58,8.45-9.24,12.11-14.05.51-.67.92-1.4,1.42-2.08,8.89-12.19,8.82-27.47-.39-39.44-1.95-2.53-4.58-4.53-6.83-6.84-1.52-1.56-2.85-3.34-3.34-5.47-.22-.98-2.34-2.99.96-3.16.65-.03.42-1.02.32-1.57-.99-5.32-2.25-10.57-4.09-15.66-.93-2.56-3.12-4.14-4.64-6.25-.29.1-.57.2-.86.29,1.05,4.02,1.7,8.21,3.23,12.04,3.36,8.41,1.95,15.69-4.16,22.19-5.45,5.8-7.03,13.23-8.76,20.6-.33,1.4-.59,2.82-.97,4.21-.35,1.3-1.24,1.84-2.61,2.06-1.44.24-2.22-.24-2.95-1.38-7.85-12.2-16.15-24.13-23.45-36.64-4.51-7.72-7.54-16.32-11.16-24.55-3.01-6.85-6.19-13.55-12.05-18.53-.71-.6-1.26-1.65-2.4-1.19-4.9,1.98-10.16,1.58-15.24,2.17-12.64,1.45-20.1,9.61-26.65,19.32-6.51,9.66-11.8,20.12-19.14,29.2-2.74,3.39-4.68,7.2-7.11,10.74-.96,1.4-.92,2.12,1.04,2.73,4.78,1.47,8.5,4.04,11.33,8.67,4.53,7.43,10.6,13.82,16.54,20.22,8.66-11.57,17.83-22.66,25.17-35.06.24-.41.46-.87.79-1.2.84-.84,1.51-2.84,2.85-1.52.39.39,1.97,2.9.08,4.48-8.25,6.89-12.81,16.72-19.57,24.8-2.02,2.41-2.18,4.91-.12,7.53,1.09,1.38,1.82,3.05,3.1,5.26-2.71-1.19-3.02-3.73-5.64-5.06,1.72,5.87,6.01,9.3,8.65,13.82-3.02-2.54-6.05-5.02-7.92-8.89-1.06,4.2-.95,4.54,1.69,7.13,8.17,7.99,17.87,13.26,28.86,16.13,2.76.72,5.68.84,8.54,1.1,10.24.93,20.28,3.95,30.7,3,4.89-.45,9.76-1.05,14.5-2.39,2.62-.74,4.91-1.92,6.44-4.8.67.88-.3,1.8.61,2.19Zm-21-152.06c-1.22-1.09-1.87-1.17-2.46.61-4.27,12.94-14.22,21.16-24.55,28.87-6.02,4.5-6.31,4.21-1.48,9.68,3.1,3.5,4.49,7.9,6.56,11.94,5.49,10.66,9.1,22.24,15.86,32.29,5.55,8.25,10.9,16.64,16.34,24.96.26.4.54.81,1.43.65-.52-7.26-1.17-14.51-3.74-21.57,2.12.04,1.59,2.03,2.76,2.51,1.66-.76.71-2.95,2.99-4.46-2,8.21-1.11,15.68.85,23.17.57-2.3,1.05-4.63,1.72-6.9,1.86-6.28,4.64-11.99,9.14-16.94,4.45-4.9,5.69-11.01,3.21-17.15-2.93-7.26-3.75-15.15-7.22-22.22-4.95-10.07-5.18-20.35-.78-30.68.66-1.56.29-2.1-1.27-2.45-2.58-.56-5.09-1.42-7.67-1.95-2.97-.6-4.21-2.97-5.69-5.13-.3-.44-.69-1.12-.11-1.63.68-.6,1.5-.24,1.91.3,4.36,5.58,10.97,5.23,16.96,6.46,1.49.3,3.2.28,4.64-.15,6.07-1.78,12.09-3.74,18.11-5.7,1.56-.51,2.51-1.87,3.28-3.23,5.93-10.54,11.86-21.08,17.71-31.67,1.58-2.87,1.44-2.95-1.07-6.37-.77,6.97-5.76,8.82-11.04,10.21-5.67,1.49-10.73.7-14.48-5.06-1.21,2.26-1.47,4.2-1.79,6.16-.94,5.57-3.38,8.44-7.17,8.58-7.34.28-10.65-3.56-9.38-10.85.56-3.24,1.96-6.15,3.33-9.1,1.03-2.23,2.02-4.55,1.86-7.68-4.35,3.92-9.36,3.43-14.1,2.87-3.84-.45-6.96-2.93-9.75-5.75-3.23-3.26-3.11-7.07-2.49-11.09.26-1.66.56-3.32.84-4.98.18-1.11,1.03-2.75-.82-2.84-1.57-.08,0,1.88-1.2,2.74-1.97-3.82-4.77-6.98-8.09-9.68-5.78-4.71-9.48-3.59-11.5,3.51-1.18,4.13-.99,8.32-.46,12.51.27,2.15,1.68,3.2,3.72,3.89,3.34,1.12,6.93,1.78,9.56,4.49.69.71,1.58,1.49,1.07,2.44-.88,1.65-1.49-.07-2.16-.41-1.18-.59-1.51.01-1.65,1.01-1.47,10.1-3.21,20.19-2.55,30.47.16,2.42,1.73,4.28,3.5,5.7,4.02,3.23,6.9,7.72,11.46,10.34.25.14.32.59.64,1.22-2.3.3-3.57-.86-4.79-1.95Zm-98.17,255.91c-2.15-8.67-8.99-15.58-9.03-25.33,2.57,2.15,2.53,5.24,3.59,7.75.66,1.57,1.3,3.08,2.45,4.34.42.46,1.02.75,1.62.45.7-.35.4-.99.28-1.57-.65-3.04-.32-6.22-1.54-9.2-.52-1.27-.48-2.84-.44-4.26.46-17.01,1.98-33.87,5.29-50.62,2.37-11.97,3.49-24.19,5.39-36.26.8-5.07,4.66-8.35,8.29-11.41,2.34-1.97,2.25-3.4.45-5.26-5.01-5.2-9.35-10.95-13.6-16.77-.28-.39-.56-.79-.9-1.13-1.24-1.26-1.21-4.36-2.88-4.08-1.89.31-2.11,3.2-2.85,5.02-3.28,8.06-4.45,16.66-6.11,25.13-1.92,9.8-.55,19.62-.34,29.45.28,13.34.38,26.7,0,40.04-.12,4.18,2.28,5.23,5.07,6.61-.29.95-3.29,1.03-.61,2.86,1.15.79-.78,2.06-1.83,1.64-3.41-1.35-3.37.83-3.65,3.1-.76,6.17-2.57,12.14-3.06,18.42-.41,5.19.78,9.46,3.84,13.42,2.23,2.89,4.52,5.73,7.13,8.34-1.16-7.7-8.73-12.18-9.91-19.79,4.66,6.23,9.57,12.24,13.34,19.1Zm187.66-209.19c-4-.12-7.91,2.09-11.81.67-2.64-.96-5.31-.5-7.61-.12-1.81.3-2.57,3.67-1.88,5.76.96,2.9,1.63,6.19,4.21,8.22,3.56,2.8,2.14,5.34.24,8.31-3.78,5.88-8.35,11.13-12.71,16.54-2.81,3.47-4.96,7.38-7.75,10.83-1.01,1.25-.64,2.38-.31,3.7,1.19,4.77,2.69,9.45,3.04,14.43.42,6.02-1.25,11.47-5.24,15.63-5.22,5.44-4.96,11.05-2.4,17.29.96,2.33,1.55,4.75,1.78,8.15-2.23-2.58-2.13-5.16-2.94-7.34-.67-1.8-1.35-2.34-3.09-1.47-.74.37-1.74.3-2.38.77-1.85,1.37-5.88-.54-5.75,3.85.08,2.46-1.14,4.7-.43,7.41,1.37,5.2,3.42,10.29,3.52,15.79.01.72.04,1.6,1.04,1.53,1.15-.08,1.95-.83,2.43-1.88,1.96-4.26,4.06-8.45,5.84-12.78,9.39-22.75,17.42-46.02,26.14-69.02,3.62-9.54,7.59-18.95,11.41-28.41.18-.44.35-1.12.66-1.22,5.39-1.62,5.77-7.43,9.04-10.84,2.02-2.11.18-4.15-.73-6.24-1.71-3.95-4.11-5.87-8.78-5.45-3.2.29-4.18,2.18-5.92,4.83,3.87-.13,7.16-.18,10.37,1.06Zm-126.67-87.68c-1.92,1.55-1.85,1.99-.04,3.17,4.34,2.84,4.3,2.86,7.65-1.13,3.04-3.62,6.11-7.21,9.54-10.55-.93,3.39-2.79,6.19-5.07,8.75-1.44,1.61-2.84,3.26-4.25,4.89-1.09,1.26-1.35,2.06.35,3.42,2.33,1.87,3.34,1.54,4.54-.99,1.81-3.8,4.1-7.34,6.66-10.68.66-.86,1.54-2.44,2.77-1.44,1.06.86-.33,1.9-.91,2.72-3.33,4.71-6.49,9.45-8.34,15.04-.63,1.89-.1,2.74,1.11,3.53,1.78,1.15,1.94-.74,2.43-1.62,3.21-5.77,6.39-11.55,9.47-17.39,2.45-4.64,2.21-6.22-2.33-7.39-6.14-1.57-7.9-5.55-7.71-11.4-2.13.6-2.93,2.38-4.29,3.4-5.84,4.38-12.63,6.17-19.63,7.39-2.59.45-5.21.77-7.81,1.15-1.05.15-2.16.46-.94,1.67,2.98,2.95,5.74,6.13,9.16,8.6,1.03.74,1.64,1.08,2.95-.14,2.86-2.67,6-5.15,9.36-7.12,2.55-1.5,4.39-4,7.42-4.83-2.69,5.15-7.86,7.54-12.08,10.93Zm16.79,453.14c.57-3.79.11-7.72,1.51-11.39.57-1.49-.4-1.55-1.39-1.78-4.32-1.01-8.64-2-12.93-3.13-1.75-.46-1.96.21-1.51,1.58,1.82,5.6,1.84,11.66,4.28,17.09,1.08,2.39.08,4.39-.89,6.49-2.37,5.12-1.84,5.85,2.96,8.56,5.3,3,10.36,6.44,15.38,9.89,4.55,3.12,6.33,3.35,9.77.53,2.69-2.2,2.86-4.96.07-7.17-2.9-2.29-6.1-4.22-9.19-6.26-2.54-1.67-4.87-3.51-6.04-6.46-.65-1.65-1.34-1.73-2.87-.58-3.22,2.42-5.43,1.64-6.73-1.97,5.25,1.02,6.79-.11,7.59-5.42Zm-61.61-279.57c-4.65,3.65-6.4,8.99-6.96,14.85-.94,9.81-2.63,19.52-4.12,29.26-.39,2.59-2.23,4.73-1.99,8.35,2.35-3.77,4.37-6.77,6.15-9.91,5.59-9.8,11.09-19.65,14.85-30.36,1.66-4.73-.19-9.54.61-14.28.27-1.62.04-3.32.04-5.85-3.1,3.16-5.7,5.68-8.59,7.95Zm25.98,265.3c.1-2.32-.54-3.05-2.9-3.3-6.84-.73-6.66-.88-6.42,6,.18,5.21,2.24,10.05,2.45,15.25.11,2.69-.58,4.93-2.16,7.04-1.22,1.63-2.39,3.3-3.47,5.01-3.29,5.24-1.84,8.96,4.16,10.42,3.04.74,5.92-.23,8.66-1.52,1.1-.52,1.37-1.44,1.28-2.69-.22-3.15-1.08-6.13-2.07-9.1-.4-1.19-1.18-1.35-2.19-1.37-1.24-.01-2.4-.33-3.23-1.3-.27-.31-.43-.92-.32-1.31.21-.8.87-.66,1.43-.36,3.32,1.79,3.31-.45,3.3-2.71,0-1.44,0-2.88,0-4.52-.49-5.13,1.25-10.26,1.48-15.54Zm86.57-443.92c.9,3.98-.37,7.56-2.02,11.1-1.57,3.38-2.89,6.81-2.7,10.69.16,3.16,1.96,4.33,4.72,4.91,2.7.57,4.87.11,5.78-2.73,2.03-6.36,5.16-12.5,5.04-19.34-.08-4.32-2.68-7.6-7.79-7.95-1.94.05-3.67.49-3.02,3.32Zm16.3-2.13c-1.8-.79-2.78-.54-3.17,1.73-.75,4.48-2.05,8.82.29,13.32,1.7,3.27,4.12,4.86,7.7,4.83,4-.03,7.46-1.69,10.7-3.8,2.74-1.79,2.06-5.21,3.3-7.74.3-.62-.69-.78-1.23-.96-1.37-.45-2.76-.83-4.1-1.35-2.19-.86-4.48-2.54-4.68,1.91-.07,1.52-1.79,2.3-3.27,2.32-1.6.02-3.1-.67-3.84-2.24-.79-1.69-1-3.44.17-5.1.33-.46,1.19-.41,1.14-1.59-1.05-.46-2.04-.9-3.02-1.33Zm-17.87-3.56c.07-2.91-3.19-2.87-5.03-3.69-1.8-.8-.96,1.27-1.11,2.11-.16.86-.67,2.21-1.18,1.81-1.92-1.51-4.96,1.81-6.26-1.61-.61-1.61-1.27-3.47-.39-4.87,1.43-2.25.09-2.82-1.43-3.73-8.3-4.96-7.44-4.75-9.19,4.77-.92,5,3.07,8.66,9.14,11.39,2.05.92,4.38,1.19,6.34,1.16,4.82.38,9.02-2.88,9.12-7.34Zm26.16,49.82c-2.63,5.81-7.02,10.43-10.35,15.77-2.81,4.51-2.34,7.8,2.68,9.42,1.91.61,1.88-1.11,2.1-2.1,1.87-8.58,5.25-16.63,8.4-24.77,1.15-2.97,2.49-5.86,3.74-8.78-.26-.17-.52-.34-.77-.5-1.95,3.65-4.1,7.21-5.8,10.97Zm-54.08-86.81c1.76-1.32,3.59-2.19,5.89-2.34,2.07-.13,4.2-.75,5.34-3.4-5.12-.22-9.74.77-14.36,1.77-.84.18-1.55.64-1.97,1.45-2.06,3.95-4.33,7.74-7.48,10.96-1.09,1.11-1.01,2.44.94,2.17,1.41-.2,2.06.92,3.13,1.38,1.56-5.12,4.46-8.96,8.51-11.98Zm-20.42,64.86c-.84,1.91,1.35,2.83,2.75,3.58,1.76.94,1.88-.76,2.27-1.8,1.88-5.05,1.8-10.43,3.05-15.59-.32-.12-.63-.23-.95-.35-2.4,4.71-4.99,9.33-7.11,14.16Zm101.66,55.94c1.02-3.56,2.2-7.07,3.24-10.62.27-.91,1.22-2.3-.54-2.54-1.11-.15-2.6-.31-3.13,1.56-1.36,4.81-2.9,9.57-4.45,14.62,2.67.18,4.2-.65,4.87-3.02Zm-44.46-16.94c-.26.77-.93,1.44.07,2.17,1.11.8,1.86.13,2.4-.66,1.9-2.82,4.44-5.23,5.81-8.76-2.62.64-5.03,1.07-7.33,1.83-2.23.74-4.34,1.84-6.57,2.81q2.68,3.1,5.87-.65c1.07,1.18.1,2.22-.25,3.26Zm34.24-41.32c.19-.95.63-2.39-.59-2.89-1.18-.48-1.86.76-2.46,1.6-2.21,3.06-2.71,6.98-5.22,9.93,4.71-1.14,7.38-4.11,8.27-8.64Zm-.79,71.32c1.43-.23,3.41.41,3.33-2.49-.1-3.19-1.83-4.65-4.47-4.7-2.25-.04-.88,2.2-1.31,3.31.48,1.6-1.11,4.44,2.45,3.88Zm5.16-15c.1-1.07.06-2.23.49-3.16.36-.8,1.71-1.38-.12-1.92-1.04-.31-2.39-.6-2.58.93-.45,3.71-.66,7.45-.97,11.18.35.07.69.15,1.04.22,1.09-2.29,1.89-4.67,2.13-7.24Zm-82.3-106.1c-.37.66.74,1.38,1.39,1.86.48.35,1.04.07,1.13-.4.79-4.25,3.37-7.69,5.22-11.5-4.24,2.11-5.66,6.35-7.75,10.04Zm78.09,36.9c2.14-4.52,1.27-15.74-1.82-20.58,1.86,6.53,1.35,13.33,1.82,20.58Zm16.06,64.43c1.63.39,3.26.78,4.9,1.15.58.13,1.22.25,1.61-.38.41-.67.32-1.42-.03-2.06-.65-1.16-6.1-1.98-7.05-1.07-.32.31-.48.8-.63,1.09.06.93.61,1.13,1.21,1.28Zm-11.07,13.14c-.81,1.05-.76,2.48.04,3.31,1.12,1.16,1.48-.32,1.98-1.01q1.34-1.81,6.73-2.51c-1.61-1.42-7.56-1.33-8.76.21Zm-33.18,103.23c-.22-1.5-.82-1.96-1.97-.67-1.15,1.29-2.27,2.61-3.41,3.92,2.2-.5,6.03,1.29,5.38-3.25Zm29.61-119.83c.35-1.93-1.58-1.42-2.55-1.47-1.65-.09-4.55-1.54-4.71.39-.22,2.79,3.07.61,4.34,1.67,1.11-.27,2.64.92,2.92-.6Zm-187.67,220.08c-.55,3.73,1.01,5.5,3.46,6.79-1.02-2.01-2.05-4.02-3.46-6.79Z"/><path class="cls-6" d="m1004.6,414.42c-.06-1.77-1.28-2.68-2.73-2.87-8.17-1.09-16.36-2.2-24.48.36-.16.05-.24.36-.75,1.16,9.71-1.61,18.94-1.37,28.01,1.31,0,0-.05.05-.05.05Z"/><path class="cls-6" d="m973.01,441.85c1.79,2.84,4.24,3.94,6.78,4.89.57.21,1.29.28,1.63-.28.35-.57.01-1.19-.58-1.46-2.42-1.1-4.67-2.69-7.82-3.15Z"/><path class="cls-6" d="m1011.82,456.93c1.87,3.01,4.97,3.55,8.09,4.05-2.15-2.45-5.01-3.47-8.09-4.05Z"/><path class="cls-6" d="m856.03,782.97c3.5,10.64,8.51,20.68,13.55,30.71-3.2-10.78-8.81-20.53-13.55-30.71Z"/><path class="cls-6" d="m858.97,723.5c1.9,10.65,4.98,20.98,9,31.05.31-.08.61-.17.92-.25-2.99-10.33-5.98-20.66-8.97-30.98-.32.06-.63.13-.95.19Z"/><path class="cls-6" d="m861.07,773.26c2.94,6.43,5.88,12.85,8.81,19.28-1.53-7.04-4.21-13.58-7.73-19.75-.36.16-.72.32-1.09.48Z"/><path class="cls-6" d="m971.09,499.12c1.45,3.16,3.57,3.41,5.51,3.19,5.13-.57,9.12,1.06,12.07,5.32.39.57,1.03,1,1.62,1.38.82.53,1.87,1.05,2.58.1.84-1.11-.38-1.59-1.04-2.22-1.11-1.07-2.15-2.22-3.26-3.3-2.3-2.26-4.86-3.77-8.31-3.19-2.83.48-5.65.16-9.18-1.28Z"/><path class="cls-6" d="m954.21,453.2c2.06-6.51-2.86-13.47-9.16-13.55-.62,0-1.24.03-1.52.67-.31.69.06,1.27.7,1.35,6.72.84,9,5.54,9.99,11.53Z"/></svg>