<?xml version="1.0" encoding="UTF-8"?><svg id="personnage8" xmlns="http://www.w3.org/2000/svg" xmlns:xlink="http://www.w3.org/1999/xlink" viewBox="0 0 1080 1080"><defs><style>.cls-1{fill:url(#Dégradé_sans_nom_6);}.cls-1,.cls-2,.cls-3,.cls-4,.cls-5,.cls-6,.cls-7,.cls-8,.cls-9,.cls-10,.cls-11{stroke-width:0px;}.cls-2{fill:url(#Dégradé_sans_nom_6-4);}.cls-3{fill:url(#Dégradé_sans_nom_6-2);}.cls-4{fill:url(#Dégradé_sans_nom_6-3);}.cls-5{fill:url(#Dégradé_sans_nom_6-5);}.cls-7{fill:#757473;}.cls-8{fill:#3b2f35;}.cls-9{fill:#beaa9a;}.cls-10{fill:url(#Dégradé_sans_nom_28);}.cls-11{fill:url(#Dégradé_sans_nom_27);}</style><linearGradient id="Dégradé_sans_nom_28" x1="761.54" y1="272.94" x2="845.95" y2="272.94" gradientUnits="userSpaceOnUse"><stop offset="0" stop-color="#757473"/><stop offset=".82" stop-color="#aeb9b0"/></linearGradient><linearGradient id="Dégradé_sans_nom_27" x1="731.44" y1="586.63" x2="796.36" y2="586.63" gradientUnits="userSpaceOnUse"><stop offset="0" stop-color="#f01048"/><stop offset=".88" stop-color="#3b2f35"/></linearGradient><linearGradient id="Dégradé_sans_nom_6" x1="767.98" y1="503.75" x2="789.42" y2="503.75" gradientUnits="userSpaceOnUse"><stop offset="0" stop-color="#3b2f35"/><stop offset=".56" stop-color="#aeb9b0"/></linearGradient><linearGradient id="Dégradé_sans_nom_6-2" x1="810.72" y1="493.18" x2="816.39" y2="493.18" xlink:href="#Dégradé_sans_nom_6"/><linearGradient id="Dégradé_sans_nom_6-3" x1="757.5" y1="501.02" x2="765.71" y2="501.02" xlink:href="#Dégradé_sans_nom_6"/><linearGradient id="Dégradé_sans_nom_6-4" x1="803.68" y1="497.94" x2="810.11" y2="497.94" xlink:href="#Dégradé_sans_nom_6"/><linearGradient id="Dégradé_sans_nom_6-5" x1="793.32" y1="501.07" x2="801.45" y2="501.07" xlink:href="#Dégradé_sans_nom_6"/></defs><path class="cls-10" d="m800.66,318.41l.06.06c1.1-1.79,2.77-4.35,1.2-5.59-1.37-1.08-2.48,2.03-3.85,3.11-.25.2-.42.51-.65.74-1.91,1.98-3.6,4.27-6.55,4.8.63-.79,1.49-1.29,2.15-1.99,4.4-4.66,10.78-7.94,10.21-15.98-.22-3.02.63-6.12,1-9.19.1-.84.57-1.74-.71-2.51-2.13,2.53-3.42,5.81-6.15,7.91,3.41-6.16,8.7-11.27,9.56-18.77.19-1.66,1.29-3.13-1.39-3.56-.83-.14-1.64-.86-1.16-1.98.54-1.26,1.22-.23,1.86-.04,1.14.33,2.25.06,3.13-.62,4.99-3.81,9.95-7.69,13.57-12.94,1.9-2.75,1.05-5.69-1.96-7.13-3.83-1.84-7.44-1.09-10.88,1.18-2.5,1.65-4.73,3.75-7.8,5.07.41-1.27,1.18-1.71,1.88-2.22,6.7-4.91,6.98-5,4.44-12.75-2.6-7.93-5.43-15.83-10.32-22.77-5.46-7.75-10.86-9.99-19.82-7.49-8.03,2.24-15.04,6.09-20.93,12.4-4.92,5.28-10.88,9.57-16.39,14.3-.72.62-1.78.97-1.61,2.35,1.85-.14,3.68-.39,5.52-.41,8.51-.08,12.89,5.7,10.77,13.97-1.1,4.29-2.74,8.38-4.26,12.52-2.23,6.1-4.98,12.01-6.7,18.3-.77,2.82.4,4,3.12,3.87,5.27-.24,10.49-1.01,15.66-2.03,1.14-.22,2.37-.69,2.22-2.38-.06-.63-.58-1.75.73-1.73.91.01,1.14.98,1.33,1.7.58,2.12-1.21,4.15-4.19,5.02-3.23.94-6.53.62-9.81.79-2.64.13-3.74,1.18-2.8,4.01,1.64,4.93,2.16,10.12,3.18,15.2.75,3.77,2.66,5.5,6.47,5.75,4.42.29,8.81-.34,13.12-1,6.95-1.07,14.53-.89,19.34-8.21-.3,4.32-1.85,6.42-5.88,7.42-4.99,1.24-9.86,3.1-15.11,3.16-1.23.01-3.56-.32-2.6,2.04,1.16,2.87-.67,8.1,3.67,8.24,3.46.11,7.27.11,10.87-.72,5.66-1.3,11.42-2.22,16.02-6.28,2.27-2,2.45-3.56.44-5.63Z"/><path class="cls-11" d="m779.46,670.7c2.13,1.54,3.3,4.11,5.76,5.31,3.05,1.49,5.73.17,6.28-3.19,1.75-10.54,3.64-21.07,5.2-31.64,1.82-12.33,3-24.75,5.07-37.03,2.69-15.98,5.98-31.85,9-47.78.17-.9.98-2.18-.42-2.55-2.42-.64-1.73-2.08-1.23-3.57,1.83-5.43,3.64-10.86,5.51-16.27.29-.83.33-2.03,2.02-1.96-2,6.32-3.96,12.52-5.92,18.72,4.22-5.87,5.32-12.97,7.92-19.69,2.41,7.87-1.99,14.62-3.25,22.22,2.07-1,2.15-2.45,2.48-3.64,1.59-5.74,3.06-11.5,4.57-17.26.51-1.93,1.04-3.89.78-5.88-.21-1.62-.65-3.35-2.83-3.44-1.83-.08-3.59-.44-4.5,2.1-1.7,4.76-3.22,9.64-6.25,13.82-.59.82-.76,1.87-.3,2.85.41.88.32,1.6-.69,1.75-1.17.17-1.43-.74-1.52-1.69-.15-1.51.37-2.87,1.16-4.07,2.89-4.37,4.59-9.29,6.34-14.16,1.37-3.79.23-7.68.29-12.53-1.99,2.43-3.28,4.03-4.59,5.6-1.33,1.59-2.69,3.15-4.04,4.73-.23-.79,0-1.15.25-1.5,4.47-6.08,10.02-11.66,8.96-20.22-.13-1.03.82-2.55-.35-3-1.33-.52-2.01,1.12-2.56,2.06-1.11,1.89-2.18,3.66-4.72,3.43-1.14-.1-2.15.27-3.22.51-5.24,1.21-10.45,2.56-15.75,3.45-4.2.7-8.6.36-12.72,1.32-2.78.65-5.27.83-7.58-.55-2.53-1.52-5.29-1.91-8.01-2.66-2.05-.56-2.39.32-2.19,1.95.61,5.03.74,10.14,2.02,15.07,1.95,7.49,3.45,15.05,3.95,22.78,1.1,17.28,2.84,34.51,4.56,51.74.34,3.41,1.09,6.78,1.72,10.58,2.13-1.94,1.71-4.61,3.4-6.5.32,2.92-.7,5.12-1.85,7.26-1.07,2-1.72,4.07-1.3,6.36,2.45,13.06,2.33,26.33,3.2,39.52.13,1.96.79,3.99.46,5.85-.69,3.87-.3,7.71-.42,11.57-.04,1.2-.19,2.72,1.64,2.57,1.56-.12,3.83.52,3.71-2.39l-.06.05Z"/><path class="cls-8" d="m749.25,388.24c-.31,5-.71,10-.93,15.01-.55,12.46-2.2,24.84-2.18,37.34.02,10.35,1.04,20.54,4.47,30.28,2.34,6.63,5.96,12.92,6.98,19.9.85,5.83,4.7,7.18,9.16,8.28,1.57.39,3.28.3,4.92.34,5.94.13,11.85-.37,17.78-.54,8.6-.24,15.93-3.77,23.07-7.9,1.67-.97,3.81-2.19,3.96-4.58.83-13.39,3.09-26.85-1.35-40.06-.89-2.66-.61-5.62-2.1-8.8-1.36,3.45-2.47,6.37-3.66,9.26-1.87,4.55-3.18,6.24-5.9,7.6,1.69-2.46,3.34-4.67,4.42-7.2,1.79-4.21,4.92-8.41,4.99-12.65.11-6.48-.68-13.2-2.96-19.5-1.14-3.13-2.6-6.16-3.32-9.4,1.9-.62,1.88,4.58,4.31.35.32,1.71.61,2.88.76,4.06,1.67,12.78,3.67,25.51,6.15,38.15,1.04,5.31,2.36,10.52,1.98,16.02-.41,5.83-.55,11.69-.88,17.52-.26,4.52-.5,9.04-.98,13.53-.83,7.71-.93,15.43-.85,23.17.02,2.06,1.1,2.63,2.94,2.64,1.52,0,2.77.09,3.08-1.98,1.28-8.62,2.64-17.22,3.42-25.91.68-7.58,1.36-15.16,2.78-22.66,1.01-5.32,2.92-10.47,3.59-15.78,1.91-15,3.3-30.07,3.3-45.21,0-12.04-.29-24.08-.56-36.12-.11-5.04-1.56-9.32-6.09-12.48-7.65-5.34-14.96-11.17-20.83-18.58-.48-.61-1.01-.68-1.73-.5-8.06,2.03-16.11,4.08-24.19,6.04-6.48,1.57-12.95,3.65-19.69,1.35-2-.68-2.14,1.04-2.64,2.13-3.33,7.31-6.61,14.65-10.68,21.58-1.53,2.6-2.34,5.46-3.23,8.31-2.95,9.48-2.55,19.17-1.93,28.89.06.97-.25,2.17,1.31,3.14.28-8.66.95-16.94,3.33-25.01Z"/><path class="cls-8" d="m807.61,338.37c2.05-2.86.96-5.73.76-8.37-.16-2.13-.9-3.33-3.85-2.29-12.28,4.3-24.93,6.8-38.03,6.49-1.01-.02-2.45-1.45-3.12.32-.5,1.34-2.03,2.95.25,4.26.63.36.46,1.19.45,1.84-.02,1.65-.02,3.31-.13,4.95-.1,1.45.32,2.3,1.88,2.5,1.85.24,1.51-1.08,1.67-2.11.14-.96-.29-2.16.9-2.81,1.27,1.53-.11,3.57,1.39,5.33,1.29-2.52.15-5.15,1.46-7.27.34,1.44.39,2.85.49,4.26.07.89-.54,2.27,1,2.33,1.6.07,1.34-1.35,1.51-2.41.18-1.15-.32-2.54.9-3.55.85,1.7-.32,3.61,1.08,5.41,1.56-2.58,0-5.34,1.29-7.87,1.14,2.02.57,3.97,1.4,6.51.31-2.46.51-4.1.75-5.94,1.29,1.14.86,2.44,1.04,3.58.14.87-.42,2.22,1.2,2.19,1.36-.02,1.72-1.04,1.95-2.24.28-1.49-.69-3,.16-4.7,1.24,1.28.71,2.83,1.07,4.12.18.64.23,1.38,1.12,1.34.83-.04,1.04-.74,1.13-1.39.16-1.09.24-2.19.37-3.48,1.06.88.9,1.86,1.2,2.66.22.6.25,1.49,1.08,1.42,1.02-.08,1-1.03.98-1.8-.04-1.49-.14-2.97-.24-4.84,1.95,1.26,1.6,2.86,1.63,4.32.02.78-.04,1.69,1.06,1.68,1-.02,1.16-.84,1.17-1.66.01-1.5,0-3.01,0-4.65,1.47.9,1.31,2.26,1.4,3.54.06.76-.03,1.74,1.04,1.73,1.01-.01,1.06-.95,1.07-1.73.02-2.08,0-4.17,0-7.14,1.51,2.51,1.37,4.43,1.69,6.23.14.8.24,1.68,1.27,1.56.92-.1,1.09-.92,1.11-1.76.03-2.38.22-4.77-.22-7.17,2.3,2.18.77,5.39,2.22,8.15,1.9-2.75.3-5.77,1.47-8.58,1.74,2.09.28,4.78,1.98,7.06Z"/><path class="cls-6" d="m781.92,677.58c.13,4.18.3,7.56.92,10.91.86,4.73,1.93,5.74,6.57,4.53,3.49-.92,6.13-.21,8.76,2.05,2.81,2.42,6.3,2.92,9.95,3.4-.12-1.6-1.04-1.81-1.8-2.2-6.62-3.45-11.22-8.89-14.71-15.35-.5-.93-.87-1.45-1.93-1.18-2.72.7-5.13-.13-7.76-2.16Z"/><path class="cls-6" d="m756.66,699.74c.62.2.87.38,1.01.32,7.09-3.15,14.18-6.31,21.26-9.49,1.19-.54,1.94-1.46,1.81-2.86-.26-3.07-.45-6.16-.88-9.21-.13-.94-.02-2.72-1.49-2.52-1.6.22-3.74-.18-4.67,1.74-3.92,8.07-8.21,15.82-16.09,20.78-.33.21-.51.65-.95,1.24Z"/><path class="cls-7" d="m744.11,245.84c-.38.04-1.28.03-2.12.26-2.43.67-3.86,2.18-3.24,4.86.59,2.52,2.89,3.84,5.26,3.33,2.67-.58,5.35-1.13,8.05-1.59,1.86-.31,1.88-1.27,1-2.52-2.06-2.89-4.94-4.24-8.94-4.35Z"/><path class="cls-7" d="m749.21,263.61c2.17.12,3.19-.45,3.6-2.23.42-1.81-.59-2.02-1.86-2.32-.5-.11-1.2-.48-1.33-.89-1.34-4.25-3.99-2.11-6.37-1.4-1.55.47-1.67,1.43-1.18,2.82,1.33,3.76,4.91,3.1,7.14,4.02Z"/><path class="cls-1" d="m777.69,502.25c-2.24.23-4.99-.39-7.68.42-.68.2-1.61-.29-1.96.72-.21.6.12,1.13.61,1.39.72.37,1.67,1.05,2.27.05.88-1.47,1.67-.48,2.35,0,.58.41.76,1.17,1.81,1.02,4.1-.58,8.22-.99,12.32-1.53.9-.12,2.28-.01,1.97-1.51-.24-1.15-1.35-1.34-2.4-1.07-2.91.73-5.87.47-9.29.51Z"/><path class="cls-3" d="m816.28,491.81c.12-.65.28-1.38-.38-1.79-.76-.47-1.12.31-1.59.7-.92.76-1.82,1.57-2.81,2.23-1.19.79-.81,1.6-.22,2.49.61.92,1.3,1.41,2.44.74,1.68-.99,2.22-2.61,2.56-4.37Z"/><path class="cls-4" d="m763.68,503.56c.72-.02,1.65.36,1.96-.65.31-1.01-.54-1.24-1.25-1.57-1.58-.75-3.14-1.55-4.68-2.4-.69-.38-1.41-.96-1.93.04-.42.81-.44,1.83.45,2.37,1.68,1.02,3.42,2,5.45,2.2Z"/><path class="cls-2" d="m810.11,497.73c-.5-1.17-1.12-2.42-2.5-2.2-1.7.28-3.44,1.05-3.87,2.99-.22.98.29,2.09,1.67,1.78,1.75-.39,3.71-.51,4.7-2.58Z"/><path class="cls-5" d="m793.32,502.4c2.55.47,4.93-.22,7.3-.88.55-.15.92-.61.81-1.25-.13-.74-.71-.81-1.24-.59-2.25.95-4.87.91-6.87,2.72Z"/><path class="cls-7" d="m742.07,259.59s2.02,2.26,3.77,3.58,7.02,1.32,7.02,1.32c0,0-1.32,4.83-2.63,7.02s-3.07,11.85-4.39,12.72-6.14-5.7-6.58-7.9,1.32-10.09,1.32-10.09l1.49-6.65Z"/><path class="cls-9" d="m749.8,254.4c-.66,0-8.56.22-8.77.88s-.44,6.14,1.1,6.8,5.48,1.97,6.36,2.19,2.41-.44,3.73-1.1,1.97-5.05,1.54-5.92-3.95-2.85-3.95-2.85Z"/><path class="cls-9" d="m785.11,251.76c-1.1-.44-5.26-1.54-5.92-1.54s-2.41.88-3.29,1.75-1.1,4.39-.44,5.48,5.7,3.95,7.02,4.39,4.83,1.1,6.58-.44,4.83-5.92,4.83-5.92l-8.77-3.73Z"/><path class="cls-6" d="m741.84,263.34c-1.32-4.05-2.49-8.15-3.99-12.12-1.52-4.04-.74-7.93,2.49-10.61,5.4-4.51,11.35-8.52,16.01-13.7,4.59-5.1,10-8.45,15.92-11.37,2.59-1.28,5.39-1.87,8.19-2.4,8.68-1.64,14.53,2.55,19.07,9.4,5.6,8.45,8.72,18.01,11.78,27.55.73,2.28,1.6,2.7,3.66,2.06,2.36-.74,4.68-.81,7.01.46,4.11,2.24,5.19,6.68,2.41,10.57-3.57,5-8.35,8.76-13.02,12.61-1.58,1.3-2.44,2.66-2.82,4.59-1.91,9.54-2.57,19.23-3.49,28.89-.17,1.76-.35,3.51-.46,5.28-.14,2.3-1.08,4.99,3.02,4.89,1.23-.03,1.98,1.6,2.25,2.98.86,4.33,1.81,8.64,2.53,12.99.29,1.75.6,3.51-1.27,5.09-1.98,1.66.41,2.65,1.38,3.48,6.14,5.31,12.08,10.9,18.81,15.48,4.37,2.98,6,7.13,6.24,12.1.94,19.98,1.31,39.98-.1,59.94-.97,13.83-2.89,27.56-6.31,41.09-2.05,8.11-1.85,16.63-2.87,24.94-1.1,8.97-2.78,17.86-3.76,26.84-.84,7.69-2.24,15.22-3.81,22.78-.53,2.54-.8,4.73-2.56,6.63-.61.66-1.24,1.51-2.11,1.45-3.03-.24-3.3,1.94-3.53,4-2.03,17.64-6.61,34.84-8.91,52.43-1.26,9.62-2.19,19.29-3.63,28.88-1.69,11.21-2.93,22.53-5.19,33.6-1.21,5.92.76,8.96,4.32,12.89,2.96,3.27,6.1,5.89,9.83,8,2.86,1.62,6.32,1.74,9.06,3.7.89.64,1.97,1.01,2.82,1.7,1.28,1.03,1.34,2.5.84,3.93-.52,1.48-1.76,1.42-3.02,1.16-6.56-1.37-12.84-3.7-19.28-5.5-.62-.17-1.4-.44-1.72-.92-3.22-4.9-8.07-3.3-12.42-3-2.17.15-3.41.15-3.49-2.37-.06-1.87-.8-2.2-2.53-1.28-3.98,2.1-8.43,3.5-12.02,6.1-2.84,2.06-5.61,3.95-8.86,5.24-1.82.72-3.64.73-5.51.64-1.17-.06-2.2-.51-2.61-1.68-.47-1.35.28-2.35,1.28-3.14,2.59-2.03,5.1-4.2,7.84-6.01,4.49-2.95,7.35-6.85,8.15-12.23.14-.97.34-1.97,1.15-2.68.17.87-.81,1.86.28,2.72,1.59-.8,2.17-2.4,2.85-3.8.98-1.99.07-2.99-2.06-2.98,2.71-17.75.64-35.38-1.08-53.05-1.54-15.8-3.58-31.55-4.95-47.37-1.18-13.75-1-27.66-3.33-41.24-1.81-10.56-3.1-21.14-4.38-31.75-.03-.22-.14-.5-.05-.65,2.65-4.6-.83-8.26-1.95-12.24-1.04-3.7-2.44-7.32-3.94-10.86-4.5-10.72-6.86-21.84-6.56-33.49.3-11.73-.71-23.4-1.3-35.09-.61-11.99-.5-23.93,4.85-35.04,3.1-6.43,6.79-12.57,9.99-18.96,1.51-3.01,3.04-5.85,2.46-9.82-.73-5.03,1.47-10.11,1.56-15.31.04-2.3,2.29-3.28,4.36-3.99,1.27-.43,2.99-.57,2.64-2.69-.37-2.24-2.07-1.86-3.58-1.89-3.9-.08-7.97.65-10.68-3.47-1.56-2.38-1.65-5.05-1.86-7.59-.37-4.43-1.93-8.63-2.19-13.05-.1-1.7-1.2-2.04-2.69-2.22-3.55-.43-4.6-1.51-3.53-4.71,1.39-4.14,0-7.06-2.38-10.26-4-5.39-3.48-11.76.89-16.6-.19.96-.21,2.01-.61,2.88-2.59,5.55-1.42,10.39,2.28,15.02,1.31,1.64,1.92,1.59,2.6-.21,1.62-4.32,3.21-8.66,4.75-13.01.48-1.36.17-2.46-1.56-2.48-2.71-.02-5.07-1.28-7.55-2.12Zm58.82,55.07l.06.06c1.1-1.79,2.77-4.35,1.2-5.59-1.37-1.08-2.48,2.03-3.85,3.11-.25.2-.42.51-.65.74-1.91,1.98-3.6,4.27-6.55,4.8.63-.79,1.49-1.29,2.15-1.99,4.4-4.66,10.78-7.94,10.21-15.98-.22-3.02.63-6.12,1-9.19.1-.84.57-1.74-.71-2.51-2.13,2.53-3.42,5.81-6.15,7.91,3.41-6.16,8.7-11.27,9.56-18.77.19-1.66,1.29-3.13-1.39-3.56-.83-.14-1.64-.86-1.16-1.98.54-1.26,1.22-.23,1.86-.04,1.14.33,2.25.06,3.13-.62,4.99-3.81,9.95-7.69,13.57-12.94,1.9-2.75,1.05-5.69-1.96-7.13-3.83-1.84-7.44-1.09-10.88,1.18-2.5,1.65-4.73,3.75-7.8,5.07.41-1.27,1.18-1.71,1.88-2.22,6.7-4.91,6.98-5,4.44-12.75-2.6-7.93-5.43-15.83-10.32-22.77-5.46-7.75-10.86-9.99-19.82-7.49-8.03,2.24-15.04,6.09-20.93,12.4-4.92,5.28-10.88,9.57-16.39,14.3-.72.62-1.78.97-1.61,2.35,1.85-.14,3.68-.39,5.52-.41,8.51-.08,12.89,5.7,10.77,13.97-1.1,4.29-2.74,8.38-4.26,12.52-2.23,6.1-4.98,12.01-6.7,18.3-.77,2.82.4,4,3.12,3.87,5.27-.24,10.49-1.01,15.66-2.03,1.14-.22,2.37-.69,2.22-2.38-.06-.63-.58-1.75.73-1.73.91.01,1.14.98,1.33,1.7.58,2.12-1.21,4.15-4.19,5.02-3.23.94-6.53.62-9.81.79-2.64.13-3.74,1.18-2.8,4.01,1.64,4.93,2.16,10.12,3.18,15.2.75,3.77,2.66,5.5,6.47,5.75,4.42.29,8.81-.34,13.12-1,6.95-1.07,14.53-.89,19.34-8.21-.3,4.32-1.85,6.42-5.88,7.42-4.99,1.24-9.86,3.1-15.11,3.16-1.23.01-3.56-.32-2.6,2.04,1.16,2.87-.67,8.1,3.67,8.24,3.46.11,7.27.11,10.87-.72,5.66-1.3,11.42-2.22,16.02-6.28,2.27-2,2.45-3.56.44-5.63Zm-21.2,352.28c2.13,1.54,3.3,4.11,5.76,5.31,3.05,1.49,5.73.17,6.28-3.19,1.75-10.54,3.64-21.07,5.2-31.64,1.82-12.33,3-24.75,5.07-37.03,2.69-15.98,5.98-31.85,9-47.78.17-.9.98-2.18-.42-2.55-2.42-.64-1.73-2.08-1.23-3.57,1.83-5.43,3.64-10.86,5.51-16.27.29-.83.33-2.03,2.02-1.96-2,6.32-3.96,12.52-5.92,18.72,4.22-5.87,5.32-12.97,7.92-19.69,2.41,7.87-1.99,14.62-3.25,22.22,2.07-1,2.15-2.45,2.48-3.64,1.59-5.74,3.06-11.5,4.57-17.26.51-1.93,1.04-3.89.78-5.88-.21-1.62-.65-3.35-2.83-3.44-1.83-.08-3.59-.44-4.5,2.1-1.7,4.76-3.22,9.64-6.25,13.82-.59.82-.76,1.87-.3,2.85.41.88.32,1.6-.69,1.75-1.17.17-1.43-.74-1.52-1.69-.15-1.51.37-2.87,1.16-4.07,2.89-4.37,4.59-9.29,6.34-14.16,1.37-3.79.23-7.68.29-12.53-1.99,2.43-3.28,4.03-4.59,5.6-1.33,1.59-2.69,3.15-4.04,4.73-.23-.79,0-1.15.25-1.5,4.47-6.08,10.02-11.66,8.96-20.22-.13-1.03.82-2.55-.35-3-1.33-.52-2.01,1.12-2.56,2.06-1.11,1.89-2.18,3.66-4.72,3.43-1.14-.1-2.15.27-3.22.51-5.24,1.21-10.45,2.56-15.75,3.45-4.2.7-8.6.36-12.72,1.32-2.78.65-5.27.83-7.58-.55-2.53-1.52-5.29-1.91-8.01-2.66-2.05-.56-2.39.32-2.19,1.95.61,5.03.74,10.14,2.02,15.07,1.95,7.49,3.45,15.05,3.95,22.78,1.1,17.28,2.84,34.51,4.56,51.74.34,3.41,1.09,6.78,1.72,10.58,2.13-1.94,1.71-4.61,3.4-6.5.32,2.92-.7,5.12-1.85,7.26-1.07,2-1.72,4.07-1.3,6.36,2.45,13.06,2.33,26.33,3.2,39.52.13,1.96.79,3.99.46,5.85-.69,3.87-.3,7.71-.42,11.57-.04,1.2-.19,2.72,1.64,2.57,1.56-.12,3.83.52,3.71-2.39l-.06.05Zm-30.21-282.46c-.31,5-.71,10-.93,15.01-.55,12.46-2.2,24.84-2.18,37.34.02,10.35,1.04,20.54,4.47,30.28,2.34,6.63,5.96,12.92,6.98,19.9.85,5.83,4.7,7.18,9.16,8.28,1.57.39,3.28.3,4.92.34,5.94.13,11.85-.37,17.78-.54,8.6-.24,15.93-3.77,23.07-7.9,1.67-.97,3.81-2.19,3.96-4.58.83-13.39,3.09-26.85-1.35-40.06-.89-2.66-.61-5.62-2.1-8.8-1.36,3.45-2.47,6.37-3.66,9.26-1.87,4.55-3.18,6.24-5.9,7.6,1.69-2.46,3.34-4.67,4.42-7.2,1.79-4.21,4.92-8.41,4.99-12.65.11-6.48-.68-13.2-2.96-19.5-1.14-3.13-2.6-6.16-3.32-9.4,1.9-.62,1.88,4.58,4.31.35.32,1.71.61,2.88.76,4.06,1.67,12.78,3.67,25.51,6.15,38.15,1.04,5.31,2.36,10.52,1.98,16.02-.41,5.83-.55,11.69-.88,17.52-.26,4.52-.5,9.04-.98,13.53-.83,7.71-.93,15.43-.85,23.17.02,2.06,1.1,2.63,2.94,2.64,1.52,0,2.77.09,3.08-1.98,1.28-8.62,2.64-17.22,3.42-25.91.68-7.58,1.36-15.16,2.78-22.66,1.01-5.32,2.92-10.47,3.59-15.78,1.91-15,3.3-30.07,3.3-45.21,0-12.04-.29-24.08-.56-36.12-.11-5.04-1.56-9.32-6.09-12.48-7.65-5.34-14.96-11.17-20.83-18.58-.48-.61-1.01-.68-1.73-.5-8.06,2.03-16.11,4.08-24.19,6.04-6.48,1.57-12.95,3.65-19.69,1.35-2-.68-2.14,1.04-2.64,2.13-3.33,7.31-6.61,14.65-10.68,21.58-1.53,2.6-2.34,5.46-3.23,8.31-2.95,9.48-2.55,19.17-1.93,28.89.06.97-.25,2.17,1.31,3.14.28-8.66.95-16.94,3.33-25.01Zm58.36-49.86c2.05-2.86.96-5.73.76-8.37-.16-2.13-.9-3.33-3.85-2.29-12.28,4.3-24.93,6.8-38.03,6.49-1.01-.02-2.45-1.45-3.12.32-.5,1.34-2.03,2.95.25,4.26.63.36.46,1.19.45,1.84-.02,1.65-.02,3.31-.13,4.95-.1,1.45.32,2.3,1.88,2.5,1.85.24,1.51-1.08,1.67-2.11.14-.96-.29-2.16.9-2.81,1.27,1.53-.11,3.57,1.39,5.33,1.29-2.52.15-5.15,1.46-7.27.34,1.44.39,2.85.49,4.26.07.89-.54,2.27,1,2.33,1.6.07,1.34-1.35,1.51-2.41.18-1.15-.32-2.54.9-3.55.85,1.7-.32,3.61,1.08,5.41,1.56-2.58,0-5.34,1.29-7.87,1.14,2.02.57,3.97,1.4,6.51.31-2.46.51-4.1.75-5.94,1.29,1.14.86,2.44,1.04,3.58.14.87-.42,2.22,1.2,2.19,1.36-.02,1.72-1.04,1.95-2.24.28-1.49-.69-3,.16-4.7,1.24,1.28.71,2.83,1.07,4.12.18.64.23,1.38,1.12,1.34.83-.04,1.04-.74,1.13-1.39.16-1.09.24-2.19.37-3.48,1.06.88.9,1.86,1.2,2.66.22.6.25,1.49,1.08,1.42,1.02-.08,1-1.03.98-1.8-.04-1.49-.14-2.97-.24-4.84,1.95,1.26,1.6,2.86,1.63,4.32.02.78-.04,1.69,1.06,1.68,1-.02,1.16-.84,1.17-1.66.01-1.5,0-3.01,0-4.65,1.47.9,1.31,2.26,1.4,3.54.06.76-.03,1.74,1.04,1.73,1.01-.01,1.06-.95,1.07-1.73.02-2.08,0-4.17,0-7.14,1.51,2.51,1.37,4.43,1.69,6.23.14.8.24,1.68,1.27,1.56.92-.1,1.09-.92,1.11-1.76.03-2.38.22-4.77-.22-7.17,2.3,2.18.77,5.39,2.22,8.15,1.9-2.75.3-5.77,1.47-8.58,1.74,2.09.28,4.78,1.98,7.06Zm-25.69,339.21c.13,4.18.3,7.56.92,10.91.86,4.73,1.93,5.74,6.57,4.53,3.49-.92,6.13-.21,8.76,2.05,2.81,2.42,6.3,2.92,9.95,3.4-.12-1.6-1.04-1.81-1.8-2.2-6.62-3.45-11.22-8.89-14.71-15.35-.5-.93-.87-1.45-1.93-1.18-2.72.7-5.13-.13-7.76-2.16Zm-25.26,22.16c.62.2.87.38,1.01.32,7.09-3.15,14.18-6.31,21.26-9.49,1.19-.54,1.94-1.46,1.81-2.86-.26-3.07-.45-6.16-.88-9.21-.13-.94-.02-2.72-1.49-2.52-1.6.22-3.74-.18-4.67,1.74-3.92,8.07-8.21,15.82-16.09,20.78-.33.21-.51.65-.95,1.24Zm-12.55-453.9c-.38.04-1.28.03-2.12.26-2.43.67-3.86,2.18-3.24,4.86.59,2.52,2.89,3.84,5.26,3.33,2.67-.58,5.35-1.13,8.05-1.59,1.86-.31,1.88-1.27,1-2.52-2.06-2.89-4.94-4.24-8.94-4.35Zm5.1,17.77c2.17.12,3.19-.45,3.6-2.23.42-1.81-.59-2.02-1.86-2.32-.5-.11-1.2-.48-1.33-.89-1.34-4.25-3.99-2.11-6.37-1.4-1.55.47-1.67,1.43-1.18,2.82,1.33,3.76,4.91,3.1,7.14,4.02Zm28.48,238.64c-2.24.23-4.99-.39-7.68.42-.68.2-1.61-.29-1.96.72-.21.6.12,1.13.61,1.39.72.37,1.67,1.05,2.27.05.88-1.47,1.67-.48,2.35,0,.58.41.76,1.17,1.81,1.02,4.1-.58,8.22-.99,12.32-1.53.9-.12,2.28-.01,1.97-1.51-.24-1.15-1.35-1.34-2.4-1.07-2.91.73-5.87.47-9.29.51Zm38.59-10.44c.12-.65.28-1.38-.38-1.79-.76-.47-1.12.31-1.59.7-.92.76-1.82,1.57-2.81,2.23-1.19.79-.81,1.6-.22,2.49.61.92,1.3,1.41,2.44.74,1.68-.99,2.22-2.61,2.56-4.37Zm-52.6,11.76c.72-.02,1.65.36,1.96-.65.31-1.01-.54-1.24-1.25-1.57-1.58-.75-3.14-1.55-4.68-2.4-.69-.38-1.41-.96-1.93.04-.42.81-.44,1.83.45,2.37,1.68,1.02,3.42,2,5.45,2.2Zm46.43-5.83c-.5-1.17-1.12-2.42-2.5-2.2-1.7.28-3.44,1.05-3.87,2.99-.22.98.29,2.09,1.67,1.78,1.75-.39,3.71-.51,4.7-2.58Zm6.09,44.45c-1.16,3.03-2.33,6.06-3.48,9.09-.16.43-.2.88.24,1.18.42.28.96.22,1.1-.23,1-3.25,2.73-6.32,2.14-10.04Zm-22.88-39.77c2.55.47,4.93-.22,7.3-.88.55-.15.92-.61.81-1.25-.13-.74-.71-.81-1.24-.59-2.25.95-4.87.91-6.87,2.72Z"/><path class="cls-6" d="m813.55,449.7c-1.97,7.23-5.06,13.74-10.22,19.12,2.96-6.65,7.3-12.56,10.22-19.12Z"/><path class="cls-6" d="m803.32,474.12c3.58-5.56,7.15-11.13,10.79-16.78.06,3.39-6.02,13.5-10.79,16.78Z"/><path class="cls-6" d="m805.48,479.38c1.79-5.56,6.36-9.42,8.56-15.62.05,4.74-3.72,11.42-8.56,15.62Z"/><path class="cls-6" d="m810.83,433.08c-1.48,5.44-3.63,10.47-7.47,14.62,2.39-4.94,5.27-9.64,7.47-14.62Z"/><path class="cls-6" d="m807.02,484.18c2.44-3.5,4.88-6.99,7.32-10.49-1.15,4.35-3.64,7.8-6.45,11.04-.29-.18-.58-.36-.87-.55Z"/><path class="cls-6" d="m803.23,459.94c2.51-4.38,5.5-8.5,7.61-13.53.21,3.13-3.46,9.67-7.61,13.53Z"/><path class="cls-6" d="m812.33,393.63c-1.03-2.52-.48-4.74,1.35-6.71-.45,2.24-.9,4.47-1.35,6.71Z"/><path class="cls-6" d="m779.52,670.65c-1.87-3.55-.89-7.46-1.18-11.18-1.7-22.06-.49-44.16-.83-66.25-.03-1.78.47-3.67-.77-5.98-1.83,4.11-3.43,7.72-5.03,11.32l-.57-.25c.13-.37.23-.77.4-1.12,4.92-9.8,5.17-20.17,4.7-30.93-.67-15.55-.3-31.15-.34-46.73,0-.94-.2-1.97,1.13-3.51,0,2.84-.01,4.98,0,7.11.14,18.34-.38,36.72,1.23,54.98,1.98,22.4.55,44.81,1.13,67.21.14,5.63.59,11.24,1.18,16.83.31,2.94.59,5.86-1.13,8.52,0,0,.06-.05.06-.05Z"/><path class="cls-6" d="m806.03,533.92c1.42-1.85,2.84-3.71,4.26-5.56-.42,2.6-1.92,4.39-4.26,5.56Z"/><path class="cls-6" d="m791.64,258.87c-2.51,3.98-6.47,5-11.55,3.28-3.41-1.15-6.29-4.78-5.87-8.3.35-3.02,3.2-4.27,5.69-4.58,5.71-.72,10.16,2.77,14.81,5.39.38.22.61.76.24,1.13-.26.26-.82.48-1.14.38-.83-.24-1.65-.6-2.38-1.05-1.56-.94-2.85-1.55-3.86.79-.56,1.3-1.93,1.88-3.36,1.37-1.85-.66-3.24-1.89-3.47-3.99-.13-1.22.55-3.05-1.74-2.49-1.74.43-3.75.83-3.49,3.52.28,2.89,2.37,5.32,5.37,5.89,3.7.7,7.36.98,10.76-1.35Z"/><path class="cls-6" d="m771.84,244.09c8.6-8.26,18.42-7.8,24.54,3.84-1.83-.09-2.98-1.15-3.89-2.23-4.79-5.67-10.42-5.44-16.52-2.63-1.16.54-2.32,1.22-4.13,1.02Z"/><path class="cls-6" d="m803.07,266.25c3.47-6.02,11.09-9.89,16.2-7.91-6.6,1.38-11.34,4.82-16.2,7.91Z"/><path class="cls-6" d="m760.78,308.06c.84-.18,1.69-.38,2.54-.55.7-.14,1.63-.68,1.93.39.24.86-.61,1.38-1.3,1.66-.9.37-1.87.69-2.83.77-1.31.11-3.11.01-3.12-1.58-.02-2.14,1.75-.7,2.78-.69Z"/><path class="cls-6" d="m765.13,255.67c1.38,3.83,4.2,6.82,5.76,10.52-2.55-3.15-5.36-6.13-5.76-10.52Z"/><path class="cls-6" d="m800.66,318.41c-2.43,3.51-5.67,6.07-9.46,7.97,3.02-2.81,5.84-5.87,9.51-7.91,0,0-.06-.06-.06-.06Z"/><path class="cls-6" d="m798.29,294.95c.66-3.24,2.28-5.76,5.09-7.47l-5.09,7.47Z"/><path class="cls-6" d="m799.9,286.64c1.66-2.23,3.31-4.46,4.97-6.69-.49,3.06-2.73,4.88-4.97,6.69Z"/><path class="cls-6" d="m759.31,298.26c.62,2.23.7,4.31-1.8,6.07.17-2.43.88-4.28,1.8-6.07Z"/><path class="cls-6" d="m794.84,314.17c1.64-1.86,3.27-3.72,4.91-5.58-.85,2.59-2.75,4.27-4.91,5.58Z"/><path class="cls-6" d="m766.18,339.71c.72,1.7,1.34,3.39-.22,5.62-.58-2.24-.38-3.93.22-5.62Z"/></svg>