<?xml version="1.0" encoding="UTF-8"?><svg xmlns="http://www.w3.org/2000/svg" xmlns:xlink="http://www.w3.org/1999/xlink" viewBox="0 0 1080 1080"><defs><style>.cls-1{fill:url(#Dégradé_sans_nom_8);}.cls-1,.cls-2,.cls-3,.cls-4,.cls-5,.cls-6,.cls-7,.cls-8,.cls-9{stroke-width:0px;}.cls-2{fill:url(#Dégradé_sans_nom_6);}.cls-3{fill:url(#Dégradé_sans_nom_4);}.cls-4{fill:url(#Dégradé_sans_nom_2);}.cls-5{fill:url(#Dégradé_sans_nom_8-2);}.cls-6{fill:url(#Dégradé_sans_nom_6-2);}.cls-8{fill:#beaa9a;}.cls-9{fill:#aeb9b0;}</style><linearGradient id="Dégradé_sans_nom_4" x1="388.88" y1="458.38" x2="426.41" y2="458.38" gradientUnits="userSpaceOnUse"><stop offset="0" stop-color="#3b2f35"/><stop offset=".48" stop-color="#aeb9b0"/></linearGradient><linearGradient id="Dégradé_sans_nom_6" x1="415.82" y1="431.15" x2="525.08" y2="431.15" gradientUnits="userSpaceOnUse"><stop offset="0" stop-color="#3b2f35"/><stop offset=".56" stop-color="#aeb9b0"/></linearGradient><linearGradient id="Dégradé_sans_nom_6-2" x1="420" y1="546" x2="522.47" y2="546" xlink:href="#Dégradé_sans_nom_6"/><linearGradient id="Dégradé_sans_nom_8" x1="464.26" y1="268.6" x2="490.68" y2="268.6" gradientUnits="userSpaceOnUse"><stop offset="0" stop-color="#f01048"/><stop offset=".56" stop-color="#aeb9b0"/></linearGradient><linearGradient id="Dégradé_sans_nom_8-2" x1="499.46" y1="267.72" x2="522.38" y2="267.72" xlink:href="#Dégradé_sans_nom_8"/><linearGradient id="Dégradé_sans_nom_2" x1="458.98" y1="199.43" x2="546.69" y2="198.4" gradientUnits="userSpaceOnUse"><stop offset=".09" stop-color="#aeb9b0"/><stop offset=".2" stop-color="#b0b2ac"/><stop offset=".35" stop-color="#b7a1a1"/><stop offset=".52" stop-color="#c28590"/><stop offset=".7" stop-color="#d15d77"/><stop offset=".9" stop-color="#e52b59"/><stop offset="1" stop-color="#f01048"/></linearGradient></defs><g id="personnage7"><path class="cls-9" d="m439.8,270.12s-.68-14.86,1.47-17.29,9.13-14.85,14.15-13.42,11.36-5.62,14.85-5.81,4.09-.78,8.79-1.01,1.61.89,7.4,1.01,16.29-3.67,19.53,4.6c3.25,8.26,2.97,14.33,3.72,15.54s.8,10.6,1.8,14.24-1.2,18.65-1.2,18.65c0,0,.52-5.71,0,0s-3.41,6.19-4.71,10.54c-1.31,4.35-.93,5.73-4.16,10.55s-5.32,8.05-7.99,10.75-4.98,6.69-6.2,7.11-3.8.66-3.83,4.03c-.06,5.41.01,13,5,18.18s11.85,6.79,11.85,6.79c0,0,.52,17.02-3.25,21.97s-7.63,17.36-15.97,19.75-13.7,8.99-30.22,1.46c-16.52-7.53-13.38-40.9-13.38-40.9v-6.37s10.65-8.39,13.38-14.46c2.9-6.44,4.31-12.14,1.79-17.25-1.56-3.16-2.23-11.73-4.35-11.97s-6.69-2.76-10.82-3.78-13.23-3.13-12.92-9.48-2-11.95,2.66-13.73,10.26-.66,10.26-.66l2.35-9.05Z"/><path class="cls-9" d="m435.34,251.01c1.1-1.21,12.02-15.64,12.02-15.64,0,0,10.01-5.85,12.13-6.48s14.04-7.91,15.51-10.64,6.04,1.21,6.04,1.21v7.44l9.09-4.36,7.16-.76,5.65-2.18-2.68,6.82s7.36-4.15,6.25-2.07-1.98,8.2-1.98,8.2c0,0,6.27-3.41,7.09-1.03s.41,3.95.41,3.95l-1.04,6.73s-2.16,9.57-1.96,8.12-3.4-7.52-3.4-7.52c0,0-13.02-8.29-17.57-7.45-6.26,1.16-10.91-2.39-14.32-1.23s-13.62,4.02-17.12,5.89-19.18,15.75-19.18,15.75l-2.11-4.78Z"/><path class="cls-3" d="m423.77,354.58s-16.92,2.68-19.83,10.4c-6.87,18.21-6.41,16.32-8.04,45.07-.21,3.63-5.65,32.98-5.76,35.41s-1.26,16.19-1.26,16.19c0,0,3.05,4.06,6.91,19.91,2.3,9.43,3.53,25.34,3.21,23.82s2.93,5.87,3.22,10.77c.24,4.17-.54,7.55-.74,14.8s-1.07,11.98-1.07,11.98c0,0-4.87-1.28-1.23,1.57,3.64,2.85,12.47,16.25,12.47,16.25.61,2,1.76,1.93,1.69-.28s5.07-6.97,3.34-6.95.29-3.71-1.71-5.51-1.78-5.5-1.84-6.08,2.9-11.56.46-14.08-.84-9.51-2.04-12.58-3.11-26.06-2.92-29.73.41-16.18-.31-21.08,2.5-18.39,3.32-21.42,2.16-14.06,4.22-15.98c2.06-1.92,7.98-17.74,7.9-23.03s2.73-17.2,2.63-23.23c-.09-6.02-2.63-26.22-2.63-26.22Z"/><path class="cls-9" d="m513.15,361.37s2.21,19.43,4.12,28.02c.85,3.83,2.23,10.99,2.37,13.64s-.99,10.38,0,12.19,4.1,5.54,4.43,7.12.53,15.54.58,20.09,0,25.1,0,25.1l2.89-5.87s2.19,9.94,2.19,12.63c0,4.25-2.75,9.1-3.43,10.61s-4.99,13.04-7.39,16.08c-2.4,3.03-3.13,4.16-3.55,6.98-.42,2.82-5.36,5.97-6.32,7.44s.57,5.7.57,5.7c0,0,.72-.93,3.81-4.6,3.08-3.68,5.52-4.82,5.52-4.82,0,0,1.76,7.61-.03,9.42s.89,3.95,1.22,5.56,2.52.2,2.34,0,16.06-44.97,19.13-52.58c.86-2.14,1.83-28.92,1.9-39.84.07-10.92-1.2-29.71.07-35.66s1.05-20.73-2.36-22.02-9.84-7.89-11.47-7.27-16.59-7.92-16.59-7.92Z"/><path class="cls-9" d="m504.88,584.08c-.19,0-20.64-10.67-22.01-7.57s-3.86,5.75-3.86,5.75c0,0,2.73,37.7,3.86,39.99s-3.35,38.92-3.05,41.32,2.6,10.59,6.91,2.59c4.31-7.99,3.49-16.93,3.49-16.93,0,0,3.91-25.21,4.79-26.98s6.71-15.64,6.71-15.64l4.18-20.35-1.03-2.18Z"/><path class="cls-9" d="m455.96,576.11c-.13-.01-20.08,0-20.08,0,0,0-1.52,13.13,0,16.17,1.52,3.04-1.47,17.9,1.75,20.79,3.22,2.89,4.35,9.87,4,23.81-.35,13.94,7.12,37.74,7.12,37.74,0,0-.68,15.47,1.35,13.87s6.67.25,5.86-1.57,2.59-10.61,1.7-13.95-1.58-53.69-1.7-54.91,1.61-6.98,2.57-9.4,1.56-8.65,1.56-8.65c0,0-.16-1.97.83-6.22s2.34-6.67,1.82-10.62-6.78-7.07-6.78-7.07Z"/><path class="cls-9" d="m486.72,667.92s-8.81.3-7.71,1.66-.09,18.9-.09,18.9l3.9,1.47s6.43-2.95,3.9-3.04,0-18.99,0-18.99Z"/><path class="cls-7" d="m489.64,686.91l22.89,17.65s.62,1.26-5.11,3.19c-5.86,1.98-14.45-2.71-15.07-2.92s-10.42-.41-11.32-1.73-7.38-4.2-7.38-4.2l2.94-11.98,6.24,3.04,6.82-3.04Z"/><path class="cls-7" d="m455.96,686.91s-9.98.21-12.01,3.98-13.7,9.03-13.7,9.03c0,0-3.28,7.96-3.03,9.21s5.08,8.54,6.61,4.78,6.9-6.56,10.12-9.81c3.22-3.25,8.25-2.18,9.08-4.18s3.02-1.87,3.73-2.54,4.77-6.18-.8-10.47Z"/><path class="cls-2" d="m435.88,349.75c-.25,2.34-9.48,3.3-9.48,3.3,0,0-1.68,47.84-2.78,52.79s-8.04,24-7.76,28.38.05,20.52,0,23.76-.46,30.01,2.92,35.95,3.06,11.44,3.06,11.44c0,0,42.49,8.09,53.73,6.97s27.64,1.77,30.33-1.09,11.47-6.64,13.01-10.28,4.17-11.28,5.74-19.29c1.57-8.01-1.81-15.12-1.18-19.15.63-4.03,1.18-41.93,1.18-41.93,0,0-5.38-4.3-7.12-16.57s-4.24-34.44-4.02-36.09.44-9.56.44-9.56l-13.21-5.57s-.34,4.95-.47,6.03-5.96,26.53-10.63,31.24-18.68,14.18-31.69,10.66c-13.02-3.52-21.36-21.06-19.49-23.11s-2.57-27.88-2.57-27.88Z"/><path class="cls-6" d="m420,510.45c.05,2.65,1.18,18.76,1.84,24.42s3.72,19.96,2.91,27.31,1.66,16.09,1.66,16.09c0,0,16.45-4.5,21.25-2.17s18.22,2.61,18.22,2.61c0,0,2.45-17.66,2.12-19.5s.6-7.55.6-7.55c0,0,1.8,7.75,3.82,9.09s3.68,19.09,5.13,20.31,3.28-8.22,11.62-4.36,18.85,11.33,21.28,11.64,3.64,2.23,3.64-2.07.44-28.39.57-30.95,3.19-7.42,4.28-12.09c1.1-4.67,3.52-11.31,3.52-11.31,0,0-6.77-3.3-5.16-7.06,1.61-3.76.12-9.63.12-9.63,0,0-5.88,4.69-7.81,5.86s-3.82-2.54-.57-4.42,2.79-6.27,2.79-6.27c0,0,1.26-2.14-5.93.85-7.19,2.99-40.29-.81-44.27,0s-22.05-.56-26.42-1.59c-4.37-1.03-12.5-6.67-12.5-6.67l-2.7,7.47Z"/><path class="cls-8" d="m479.81,273.04c3.88-.07,6.75-3.18,6.64-7.2-.08-3.05-2.71-5.49-5.87-5.45-4.82.07-8.15,3.14-7.99,7.38.12,3.08,3.2,5.33,7.22,5.27Z"/><path class="cls-8" d="m509.68,266.68c-.11-2.02.21-4.26-2.04-5.41-1.96-1-3.97-.83-5.9.17-1.2.62-1.44,1.71-1.03,2.92.47,1.39,1.35.84,2.15.35.92-.55,1.76-.42,2.47.32.64.67.52,1.45.08,2.2-.54.91-1.32,1.27-2.3.85-1.14-.49-2.09-.7-1.83,1.06.28,1.87,1.54,3.01,3.16,3.73,1.5.67,2.62-.22,3.64-1.17,1.45-1.36,1.72-3.14,1.59-5.02Z"/><path class="cls-1" d="m489.95,257.48s-22.67.29-23.42.89-3.06,7.5-2,10.56c1.46,4.21,7.2,11.86,10.47,10.69s6.03.18,8.98-1.59,4.83-2.8,6.15-6.13-.18-14.42-.18-14.42Z"/><path class="cls-5" d="m499.46,256.68s1.16,4.87,1.26,7.68-1.14,9.71,1.28,11.17,3.28,2.95,7.71,3.64,6.99,1.08,9.77-1.98,1.5-4.55,2.5-8.22c1.36-4.99-1.14-13.17-1.14-13.17l-21.39.9Z"/><path class="cls-7" d="m481.32,208.99c.4.99-.29,2.75,1.97,2.38,1.38-.22.89.87.69,1.63-.41,1.6-1.75,2.91-1.67,4.72,1.94.35,1.92-2.41,4.01-1.97-.66,3.33-2.98,5.84-4.49,9.23,2.38-.17,3.91-1.28,5.55-2.13,1.86-.96,3.18-3.31,6.02-1.96.87.41,2-1.25,2.95-2.07,1.39-1.2,2.21-3.15,4.22-3.53.63.74.2,1.24.06,1.77-.53,2.03-.15,3.21,2.33,2.55.79-.21,1.87-1.06,2.43.08.47.95-.59,1.59-1.17,2.27-.78.92-1.82,1.69-2.08,3.09,1.72.54,3.03-.2,4.39-.7.68-.25,1.45-1.15,2.14-.27.57.72-.15,1.5-.41,2.23-.08.21-.22.41-.28.62-.49,1.61-2.75,3.17-1.82,4.47,1.03,1.45,3.38.14,5.15.17.11,0,.23-.05.34-.05,1.46.12,3.62-1.37,4.18.54.36,1.22-2.17,1.01-3.25,1.73-.16.11-.23.35-.46.74,2.68,1.68,5.63,2.68,9.55,3.4-3.2,1.8-5.77-.37-8.62.92,2.85,2.65,6.55,3.18,9.58,5.61-2.73,1.03-4.71-1.32-7.63-.7,2.63,1.95,4.84,3.6,7.03,5.22-.55,1.29-1.34.76-2.1.64-1.71-.28-4.26-3.01-4.46,1.45,0,.07-.17.14-.26.21-.83.56-2.92-.12-2.47,1.45.39,1.36,2.22.32,3.4.42,1.48.12,2.99.02,4.44.26,1.99.33,4.63.35,1.89,3.53-.98,1.14-.13,2.88.3,4.31,1.22,4.12.97,8.07-.78,12.06-1.23,2.8-2.79,4.95-5.88,5.68-2.53.6-3.57,2.24-4.05,4.82-.74,3.93-2.19,7.71-3.03,11.62-.62,2.88-3.63,3.6-4.73,6.07-.92,2.07-2.19,3.97-2.85,6.2-1.64,5.58-4.83,10.18-8.53,14.66-1.72,2.08-3.22,3.08-5.66,3.19-1.18.05-1.71.73-2.14,1.83-2.63,6.64-1.14,13.93,3.82,19.06,2.37,2.45,4.58,3.95,8.46,4.36,5.67.6,10.6,4.5,15.93,6.79.28.12.62.49.63.76.24,5.34,5.12,5.35,8.32,6.7,4.2,1.78,8.37,3.63,12.52,5.53,4.59,2.11,6.95,5.77,8.25,10.68,2.03,7.67,2.29,15.35,1.53,23.15-.62,6.32,1.05,12.58.83,18.82-.53,15.57.07,31.17-1.16,46.72-.44,5.56-3.22,10.46-5.1,15.6-4.32,11.81-10.03,23.08-13.78,35.13-1.47,4.71-.91,9.81-2.92,14.42-2.43,5.58-3.39,11.63-5.25,17.39-.55,1.72-.89,3.61-.84,5.41.29,9.75-1.03,19.45-.91,29.2.01,1.17-.16,2.27-.72,3.32-.77,1.43-2.13,1.6-3.52,1.68-1.34.08-2.14-.53-2.36-1.93-.16-1.03-.46-2.27-1.74-2.18-1.35.1-1.63,1.47-1.89,2.57-.92,3.89-1.93,7.77-2.64,11.7-.76,4.18-1.66,8.27-3.28,12.24-3.71,9.09-4.47,18.81-5.94,28.41-1.11,7.2-2.09,14.45-3.46,21.63-1.18,6.14-1.97,12.4-3.05,18.6-.21,1.19.28,1.95,1.3,2.52,8.18,4.53,15.66,10.26,24.12,14.33,2.02.98,4.3,2.22,3.66,4.73-.71,2.79-3.14,4.36-6.02,4.88-7.16,1.31-14.06-.88-20.31-3.42-4.67-1.9-9.23-3.55-14.12-4.48-1.63-.31-2.55-1.02-1.84-2.83,5.35-13.63,2.8-28.06,4.27-42.09,1.1-10.56,1.31-21.2,3.84-31.63,1.47-6.03,0-12.34-.66-18.46-.7-6.38-1.31-12.75-1.74-19.15-.09-1.33.29-2.78-1.76-3.12-1.34-.22-1-1.64-1.18-2.58-1.3-6.73-2.53-13.48-3.84-20.21-.27-1.4-.26-3.57-1.95-3.55-1.48.02-1.45,2.24-1.51,3.46-.22,4.92-.55,9.82-1.53,14.66-.22,1.07.33,1.99.75,2.94.47,1.07-.23,1.76-1.01,2.28-.77.52-1.65,1.01-2.26-.25-.27-.55-.57-1.06-1.27-.7-.62.32-.53.97-.47,1.52.67,6.32-.45,12.3-3.23,17.99-.54,1.11-.18,2.21.03,3.35.77,4.18.57,8.23-2.11,11.79-1.41,1.87-.92,4-.72,5.98,1.04,10.29.35,20.61.79,30.91.28,6.41.32,12.83.45,19.24.05,2.41.04,4.81-.63,7.16-1.05,3.67-.2,7.22.73,10.76.4,1.55.92,3.09,1.08,4.67.53,4.95.46,4.88-4.37,5.98-2.67.61-5.11,1.62-7.02,3.89-3.81,4.54-8.5,7.99-14.1,10.03-4.1,1.5-6.42-.32-7.01-4.64-.86-6.33,1.92-10.18,7.31-12.91,4.17-2.11,8.11-4.66,12.21-6.91,1.93-1.06,1.93-2.74,1.67-4.45-.82-5.31-1.7-10.62-2.65-15.91-2.29-12.72-4.72-25.48-4.02-38.46.34-6.4-1.69-11.92-4.1-17.44-1.31-3.01-2.1-5.91-2.08-9.23.04-6.74.44-13.51-.75-20.23-.9-5.08-1.26-5.7-6.34-4.92-2.84.44-3.83.26-4.18-3.06-.62-5.97-.25-11.9-.35-17.84-.17-10.11-1.57-20.02-3.78-29.9-1.28-5.7-.84-11.64-.15-17.45.26-2.24-.02-4.6,1.13-6.73.41-.77-.11-1.53-.63-2.19-3.87-4.89-4.94-10.78-5.45-16.72-.51-5.8-.85-11.63-.44-17.49.48-6.96.62-13.95.85-20.93.04-1.07.29-2.33-1.29-3.17-.91,3.46-1.87,6.82-2.66,10.22-1.84,7.96-2.43,15.96-1.34,24.13,1.63,12.21,2.2,24.43,1.42,36.81-.35,5.53,1.57,11.25,2.81,16.81.94,4.21,1.24,8.36.49,12.59-.14.79-.53,1.75.05,2.32,3.66,3.6,1.84,7.3.46,11.11-.53,1.45,0,3.12-.47,4.72-.56,1.9-.99,2.3-2.66.82-5.77-5.1-9.14-11.87-13.08-18.25-.89-1.45-.75-2.87-.19-4.28,4.15-10.47,3.49-20.94.77-31.65-2.19-8.64-3.26-17.56-5.47-26.19-1.54-6.04-2.47-12.34-5.64-17.89-.67-1.18-.39-2.45-.49-3.7-.84-10.77,2.09-21.13,3.49-31.66.61-4.55,1.09-9.1,1.21-13.67.38-14.75,2.86-29.18,7.2-43.21,2.3-7.43,8.07-12.3,15-15.56,4.41-2.07,9.1-3.31,13.86-4.55,10.29-2.68,19.12-8.14,23.01-18.68,2.19-5.93,2.39-11.94-.82-18.38-2.31-4.63-4.61-7.91-9.29-9.95-2.37-1.04-4.44-2.47-7.19-2.84-7.84-1.05-13.86-10.13-11.2-17.43,1.53-4.19,5.06-7.01,10.68-6.95-1.86-1.57-1.75-3.9-3.92-4.51.68-2.21-2.11-4.06-.65-6.37.73-1.16,1.16-2.56,2.05-3.54,1.65-1.82,1.35-3.53.12-5.28-1.33-1.9-1.19-4.11-.75-6.47.22-1.18-2.81-3.23.74-2.66,1.08.17-.28-1.44-.41-2.24-.42-2.61-.89-5.2-.72-7.85.05-.8.04-1.78,1.04-1.91,1.07-.14,1.18.88,1.4,1.62.26.87.38,1.8.68,2.65.4,1.12.89,1.33,2.29.9,2.99-.92,4.7-2.91,6.59-5.22,2.57-3.14,6.52-4.7,10.27-5.94,10.56-3.48,17.62-11.52,25.25-18.84.86-.82,1.22-2.16,1.82-3.25.46,0,.91,0,1.37,0Zm41.11,266.15l.05.04c.25-2.55,3.18-4.89.6-7.67l.05.05c.91-1.57,1.69-3.16.36-5.04-1.61.99-1.24,3.26-3.96,4.16,5.59-6.75,4.28-14.16,4.38-21.31.11-7.68.09-15.36.18-23.03.01-1.1-.08-1.94-1.03-2.69-2.85-2.25-4.11-5.37-4.63-8.88-.94-6.33-1.4-12.69-2.61-19.01-1.91-9.99-1.99-20.23-2.64-30.38-.09-1.48-.56-2.29-1.9-2.85-2.53-1.05-4.99-2.24-7.49-3.36-2.1-.94-3.33-.48-3.25,2.06.09,2.88-.16,5.73-.72,8.54-2.91,14.78-7.93,27.54-23.8,33.71-7.67,2.99-14.29,3.01-21.38.12-5.27-2.14-9.6-5.29-12.31-10.75-3.19-6.42-4.92-13.01-4.87-20.13,0-.97.25-2.3-.96-2.67-1.01-.31-.8,1.17-1.49,1.58-1.13-2.5-.87-5.13-.84-7.74,0-.78-.08-1.83.92-1.99,3.42-.55,1.7-3.08,1.46-4.5-.41-2.47-2.38-.83-3.61-.66-1.45.21-2.8,1-4.24,1.31-1.94.41-2.51,1.44-2.43,3.4.18,4.58.24,9.17.11,13.75-.27,9.72.97,19.52-1.08,29.14-1.66,7.8-3.4,15.51-2.51,23.62.56,5.08-.36,10.17-1.59,15.19-.33-.62-.69-1.27-1.04-1.93.04,8.1,1.5,15.98,3.2,24.24-2.01-3.12-1.5-6.74-3.83-9.3-.16,6.55,2.24,12.75,2.57,19.2-5.36-12.69-2.88-26.21-3.96-40.16-2.28,2.7-2.02,5.08-1.97,7.41.16,7.56,1.45,15.3.23,22.62-1.92,11.52,2.08,22,3.73,32.87,1.27,8.3,7.53,12.12,15.36,13.4,7.43,1.21,14.99,1.28,22.46,1.98,11.56,1.08,23.21,1.87,34.88,1.76,12.62-.13,23.1-3.38,27.97-16.57.71-1.92,1.75-3.73,2.2-5.75.27-1.26.65-2.57-.04-4.17-2.18,2.6-2.72,5.92-5.83,8.4,1.89-3.4,3.51-6.03,4.85-8.81,1.23-2.55,2.76-5.03,2.7-8.06-.04-1.93-.75-2.22-2.23-1.14Zm-47.13-80.54c1.43.33.9,3.14,2.16,1.62,1.48-1.78,3.09-1.12,4.63-1.63,1.83-.6,4.38-1.08,3.46-4.39-.2-.71.12-4.09,2.32-2.52,2.01,1.44,1.99.11,2.55-.83,4.97-8.19,7.25-17.22,8.14-26.67.15-1.64-.54-2.71-1.74-3.83-2.91-2.74-5.62-5.7-8.41-8.57-5.54-5.7-7.25-12.26-4.45-19.84.66-1.79.32-3.05-1.6-3.84-1.02-.42-2.42-.75-2.39-2.36.94-.29,1.43.4,2.06.51,2.98.54,6.03,3.04,8.75-1.09.65-.99,7.28-6.58,7.45-8.62.47-5.72,3.33-10.78,7.38-15.38,2.58-2.93,1.32-8.42-1.39-10-.13,2.52,2.67,4.79.61,7.4-1.38-1.13-.53-2.52-.88-3.65-.26-.83-.34-2.09-1.59-1.76-1.21.32-.93,1.42-.53,2.28.71,1.52.74,3.1.57,4.71-.07.67-.2,1.49-1.12,1.4-.77-.08-.61-.84-.64-1.38-.03-.57.05-1.15,0-1.72-.08-.97.32-2.51-1.01-2.55-1.67-.05-1.17,1.57-1.26,2.64-.04.52.16,1.21-.8,1.33-.85-1.01.26-3.2-1.41-3.46-1.72-.27-.2,2.36-1.67,2.69-1.21-.48.11-2.46-1.56-2.59-1.6,1.05.25,3.65-2.31,4.65.06-.99.11-1.64.13-2.29.05-1.19.87-2.97-.69-3.3-1.95-.41-1.12,1.75-1.58,2.73-.28.61-.31,1.33-.48,2-.18.68-1,1.11-1.19.59-1.03-2.74-2.05.13-2.85.13-1.03-1.38.15-2.95-.95-4.09-1.46.28-1.01,1.64-1.48,2.45-.34.58-.62,1.35-1.52.89-2.26-1.15-2.76-4.69-1.21-6.85,2.04-2.85,6.02-3.75,7.25-7.39.14-.42.66-.68,1.15-.48.74.29.43.85.36,1.42-.49,4.29,1.76,6.94,6.02,7.1,1.25.05,2.52.06,3.77-.09,3.82-.44,5.54-2.6,5.48-6.49-.06-4.31-2.11-8.18-2.53-12.42-.29-2.95-.44-5.94-1.45-8.79-.83-2.34-2.31-3.71-4.9-3.2-2.48.49-2.8,2.33-2.51,4.48.12.9.1,1.83.12,2.75.19,8.84-5.64,14.23-14.96,13.85-7.85-.32-12.89-6.48-12.07-14.76.11-1.08.86-2.5-.66-2.97-1.26-.39-3.03-.5-3.86.66-3.61,5.03-8.89,8.17-13.31,12.29-1.33,1.24-1.37,2.34-.47,3.91,1.49,2.58,2.41,5.42,3,8.36.32,1.62-.35,2.71-1.7,3.37-1.37.67-1.89-.75-2.28-1.45-1.99-3.61-4.94-5.84-8.84-6.97-.59-.17-1.19-.74-1.53-1.29-1.82-2.97-3.95-2.12-6.05-.5-3.72,2.88-4.96,6.66-3.48,11.31,1.47,4.65,4.9,7.52,9.58,8.31,2.94.49,5.43,1.45,7.79,3.19,1.32.98,2.77,2.64,4.54,1.69,1.62-.87.22-2.72.44-4.11.07-.42.12-.83.19-1.37,1.15.75,1.28,1.87,1.51,2.8,1.41,5.61,1.84,11.62,6.79,15.71.51.42.82,1.22.04,1.77-1.4.98-.99,2.45-1.09,3.77-.4,5.26-.72,10.5-4.1,14.99-2.84,3.77-6.12,7.1-9.66,10.17-1.53,1.33-2.17,2.73-2.08,4.75.33,6.75.17,13.54.85,20.25,1.11,10.91,5.06,20.19,16.23,24.56,5.91,2.31,7.61,1.84,10.99-3.26.05-.07.21-.06.32-.09,1.19,1.46-1.35,4.16.95,4.76,4.17,1.1,4.76-3.29,6.65-5.44Zm-7.1,151.74c1.46,5.48,5.3,10,6.25,15.73.8,4.83,1.78,9.64,2.83,14.43.18.84.33,2.86,2.08,1.61,4.04-2.88,8.34-1.88,12.45-.77,6.6,1.79,12.87,4.57,18.68,8.23,1.89,1.19,2.59.89,2.72-1.29.39-6.16.53-12.36,1.3-18.47.9-7.16-1.5-14.63,3.12-21.53,1.95-2.91,2.64-7,3.88-10.56.29-.83,1.28-2.29-.52-2.31-2.19-.03-2.1-1.56-2.73-2.85-1.35-2.78-.78-5.89-1.7-8.72-.28-.85.39-2.47-1.25-2.26-1.15.15-1.23,1.5-1.23,2.56-.01,2.99,0,5.98,0,9.59-1.36-2.85-.62-5.35-1.38-7.93-1.71,1.05-3.45,2.15-5.01.45-1.66-1.81-.46-3.75.41-5.41.78-1.49,2.06-2.72,3.06-4.11.46-.64,1.61-1.12.68-2.35-1.01.51-1.98,1.1-3.02,1.49-10.17,3.8-20.72,2.75-31.16,2.05-11.25-.76-22.45-2.34-33.7-3.1-6.46-.44-12.7-1.09-18.25-4.75-2.12-1.4-3.21-.67-3.43,1.66-.29,3.07-.33,6.17-.72,9.23-.87,6.91,1.64,13.33,2.72,19.95,1.82,11.15,1.35,22.38,1.43,33.59.04,5.7,1.11,6.44,6.71,5.87,9.21-.94,18.45-1.22,27.65.28,3.73.61,5.71-1.34,5.28-5.28-1.52-.04-1.85,2.36-4.35,1.67,4.93-1.72,3.74-6.41,5.7-9.46.34-.53.3-1.4-.45-1.8-.65-.35-1.06.23-1.44.62-1.13,1.16-2.22,2.37-3.32,3.55,1-3.8,4.98-5.23,6.18-8.59,1.24-3.47,1.08-7.2.54-11.02Zm-53.6-131.71c.37-1.63,1.43-2.25,2.1-3.15,2.19-2.93,4.5-5.81,5.37-9.46,3.51-14.68,2.18-29.63,2.37-44.49.03-1.99-1.12-2.71-2.93-2.1-8.25,2.81-15.49,7.08-18.79,15.65-2,5.19-3.33,10.64-3.98,16.26-1.14,9.88-3.04,19.67-3.22,29.66-.18,10.11-1.92,20.02-3.99,29.87-1.52,7.22-2.43,14.33.68,21.52,1.8,4.16,2.91,8.67,3.91,13.12,2.15,9.59,3.72,19.32,6.1,28.85,2.52,10.1,2.07,19.85-1.55,29.52-.37.99-.75,2.14-.27,3.01,3.25,5.87,6.21,11.95,10.95,16.84.49.51,1.12,1.45,1.99.7.72-.63.38-1.57-.07-2.21-1.58-2.24-3.09-4.56-4.93-6.56-2.37-2.58-3.81-5.05-1.42-8.39.84-1.17.47-2.67.49-4.03.02-2.33,0-4.66,0-7,.39,0,.77,0,1.16-.01,0,1.52-.01,3.04,0,4.57.03,2.65.52,5.23,1.12,7.79.31,1.33,1.23,1.89,2.53,1.79,1.2-.1,1.54-.99,1.32-1.97-1-4.59-.48-9.3-1.36-13.96-1.46-7.71-3.49-15.4-2.89-23.42.69-9.17-.72-18.29-.93-27.43-.14-5.93-2.04-11.7-1.13-17.7,1.33-8.84,3.72-17.44,5.87-26.08.56-2.23-.34-4.67,1.14-6.65,2.21-2.95,2.64-6.52,3.59-9.92.78-2.76-.41-2.57-2.65-1.17,1.59-2.58,4.45-3.75,4.15-6.93-2.1.59-2.63,2.82-4.75,3.48Zm105.58,95.01c-2.37,4.64-.17,8.36-.19,12.13,0,.76-.01,2.15,1.21,2.14,1.06,0,1.18-1.2,1.44-2.07,3.87-12.85,9.95-24.83,14.71-37.33,1.87-4.91,4.81-9.63,5.05-14.9.71-16.01,1.24-32.05,1.17-48.07-.03-7.19-.73-14.4-.43-21.61.23-5.52-.29-10.92-1.39-16.36-1.23-6.07-4.31-10.14-10.09-12.32-4.48-1.69-8.89-3.57-13.29-5.47-3.2-1.38-3.73-1.28-3.38,2.26.89,9.09,1.3,18.26,3.49,27.18.63,2.57,1.02,5.13,1.17,7.78.26,4.68.22,9.8,3.47,13.36,2.63,2.88,2.73,5.83,2.66,9.09-.25,12.27-.23,24.5,3.54,36.39.93,2.93,1.42,6,1.93,9.04,1.05,6.23-2.47,11.48-3.92,17.16-.53,2.06-1.45,4.06-2.72,5.9-2.9,4.21-6.25,8.13-7.97,13.1-1.01,2.94-2.68,5.55-4.84,7.84-1.09,1.16-2.15,2.4-2.5,4.04-.16.75-.65,1.72.31,2.14,1.06.47,1.28-.67,1.65-1.3,2.19-3.64,4.65-7.03,8.91-10.14Zm-74.17,68.67c-2.4,0-4.8.04-7.2-.01-2.19-.05-3.36.88-2.78,3.11,1.84,7.1,1.29,14.34,1.31,21.54,0,3.15.67,6.01,1.91,8.94,2.57,6.09,4.48,12.31,4.37,19.17-.22,13.2,2.14,26.17,4.62,39.09.44,2.28.87,4.42,3.72,4.46,2.4.03,4.24-2.27,4.22-5.2-.1-15.01-.36-30.02-.25-45.02.02-3.23-1.19-6.67.41-9.72,2.09-3.99,2.3-8.08,1.44-12.33-.33-1.63-.26-2.94.61-4.52,2.67-4.81,3.56-10.08,3.12-15.59-.17-2.11-1.21-2.95-3.24-3.21-4.08-.52-8.17-.88-12.28-.71Zm45.97-354.08c-1.75.36-3.74.31-5.2,1.16-2.48,1.44-6.15,3.42-6.16,5.69-.01,3.26-1.78,3.34-3.51,3.82-2.72.75-5.55,1.11-8.35,1.58-1.12.19-2.2.12-2.7,1.57-1.15,3.33-1.7.73-4.23,3.41-.01-2.09-.78,1.14-1.39-.64-5.37.55-8.53,4.67-13.26,7.51,1.1.19.64-1.26.85-1.27,1.82-.08-1.98-.7-.85,1.27.77,1.34.22,1.09-1.36,2.27-1.83,1.38-.92,2.31-1.66,5.12,2.02.84,3.18-1.45,5.05-.84-.11,1.09-.43,1.38-1.03,1.63-6.38,2.69-7.62,7.78-6.59,13.99.47,2.86,1.73,3.85,3.69,2.47,3.62-2.56,7.59-4.69,10.39-8.32,3.46-4.49,6.85-9.13,13.62-8.08,1.02.16,1.01-.9,1.41-1.58,1.58-2.72,9.05-3.43,10.3-.72,1.2,2.6,2.93,2.43,4.94,2.49,1.37.05,2.68.4,4.02.69,2.64.58,6.14.66,7.69-.85,2.69-2.63,5.55-3.33,8.86-3.5,2.24-.11,2.12-1.15,1.33-2.67-1.68-3.21-3.35-6.42-5.05-9.68,1.26-.15,2.53-.13,3.69-.48.84-.25,2.54.04,2.24-1.41-.24-1.16-1.78-.9-2.71-.69-7.08,1.61-13.33-1.55-19.86-3.24-2.77-.72-2.79-1.89-1.89-4.13.56-1.4,1.5-1.83,2.73-2.24,2.15-.71,4.07-1.82,5-4.35Zm-12.16,436.59c0,.92,0,1.83,0,2.75.01,4.15,1.84,5.35,5.55,3.52,3.31-1.64,3.29-5.04,3.62-7.99,1.29-11.67,3.16-23.32,5.46-34.75,2.32-11.56,6.51-22.8,9.69-34.24,1.2-4.31,1.41-4.25-2.95-6.21-.52-.23-1.01-.53-1.53-.76-4.92-2.12-9.78-4.39-15.33-4.42-2.45-.01-3.42.74-3.43,3.36-.02,7.24,1.35,14.32,2.12,21.47.8,7.52,2.28,15.18.7,22.55-2.46,11.5-2.31,23.19-3.9,34.73Zm24.2,46.92c3.2.1,4.94-1.14,6.85-1.83.73-.26,1.7-.25,1.66-1.35-.02-.79-.72-1.14-1.33-1.43-7.99-3.76-15.05-9.03-22.39-13.83-.85-.56-1.75-1.45-2.59-.1-1.81,2.9-3.75,2.49-5.82.35-1.64-1.69-2.18-.91-2.52.97-.35,1.91-.73,3.84-1.42,5.64-1.07,2.79.22,3.63,2.66,4.12,2.77.56,5.83.27,8.22,2.02,5.3,3.89,11.84,3.52,16.67,5.43Zm-73.71-1.09c-.23,5.07.75,5.65,5.07,3.49,3.41-1.7,6.69-3.68,9.08-6.63,2.98-3.68,6.78-5.41,11.29-5.88,1.46-.15,1.99-.79,1.91-2.2-.1-1.83.02-3.66-.78-5.4-.4-.86-.68-1.76-1.91-1.47-3.19.77-6.41,1.49-9.18,3.4-3.85,2.66-7.63,5.43-11.53,8.03-2.56,1.71-4.33,3.74-3.95,6.65Zm43.43-446.76c-2.86.34-5.8-.39-7.37,2.2-1.97,3.25,1.04,12.34,4.47,14.53,7.65,4.88,18.49-.34,19.27-9.35.15-1.79-.22-3.64-.38-5.45-.11-1.29.36-2.96-1.6-3.28-1.1-.18-2.64-.47-3.18.55-.76,1.41,1.07,2,1.73,2.95,2,2.87,1.77,6.87-.72,9.8-2.6,3.05-7.24,3.81-10.92,1.79-3.53-1.94-4.59-4.63-3.3-8.64.51-1.6,1.23-3.13,2.01-5.1Zm44.17,1.67c.67-2.32,3.42-3.39,1.58-4.87-1.56-1.25-3.93-.51-5.94.07-1.9.55-1.43,2-1.47,3.34-.13,4.81.31,9.59.63,14.39.25,3.8.73,4.2,4.22,2.78,1.37-.56,2.19-1.5,2.93-2.72,2.19-3.64,2.32-7.59,2-11.64-.19-2.44-.79-4.07-3.95-1.35Zm-38.09,11.47c3.88-.07,6.75-3.18,6.64-7.2-.08-3.05-2.71-5.49-5.87-5.45-4.82.07-8.15,3.14-7.99,7.38.12,3.08,3.2,5.33,7.22,5.27Zm-6.9-41.02c-1.76.3-3.08.67-4.41.73-4.38.2-8.12,2.05-11.67,4.41-.78.52-2.21.95-1.41,2.24.69,1.11,1.78.53,2.71-.04,2.84-1.74,5.9-3.07,9.2-3.45,4.28-.49,7.6-2.15,9.05-6.41.53-1.56,3.71-4.09-1.08-4.52-.22-.02-.54-.48-.58-.76-.64-4.47-2.31-1.68-3.54-.44-.95.96-1.67,2.16-2.43,3.3-.14.21.02.61.03.81.93.81,1.84-.57,2.69.22-.05,1.31-2.25,1.19-1.88,2.51.41,1.48,2.12,0,3.34,1.4Zm6.15,446.5c.24,3.77-1.12,7.36,2.6,9.54.6.35,1.08.87,1.82.53.77-.35.68-1.07.71-1.76.17-4.01.89-7.92,1.87-11.81,1.41-5.59.84-6.08-4.62-4.76-1.45.35-1.87,1.2-1.98,2.37-.21,2.16-.3,4.33-.4,5.9Zm30.61-411.84c-.11-2.02.21-4.26-2.04-5.41-1.96-1-3.97-.83-5.9.17-1.2.62-1.44,1.71-1.03,2.92.47,1.39,1.35.84,2.15.35.92-.55,1.76-.42,2.47.32.64.67.52,1.45.08,2.2-.54.91-1.32,1.27-2.3.85-1.14-.49-2.09-.7-1.83,1.06.28,1.87,1.54,3.01,3.16,3.73,1.5.67,2.62-.22,3.64-1.17,1.45-1.36,1.72-3.14,1.59-5.02Zm-54.08,413.42c.1-.79.25-1.58.28-2.37.03-.86-.16-1.54-1.33-1.5-3.57.11-4.87,1.65-4.32,5.21.17,1.13.28,2.27.45,3.4.14.92.31,1.89,1.46,2.05.96.13,1.81-.24,2.44-.98,1.45-1.72,1.73-3.68,1.03-5.81Zm48.06-398.37c.03,1.82,3.32,5.78,5.16,5.62,2.41-.2,1.86-2.66,2.37-4.24.57-1.78-.3-2.49-2.04-2.56-1.11-.04-2.34-.06-3.31-.52-2.1-1-2.41-.1-2.18,1.7Zm7.84-6.23q-.2-4.36-3.77-2.07c-.89.57-1.83.91-2.87.99-.66.05-1.47-.11-1.75.71-.35,1.04.58,1.36,1.2,1.79.93.65,1.81,1.47,2.84,1.85,2.98,1.1,4.5-.1,4.35-3.27Zm-4.36-18.81c-2.05.08-4.07.34-5.91,1.31-.61.32-1.14.84-.9,1.64.27.9,1.01.71,1.68.6,2.13-.34,4.22-.67,6.35.21.75.31,1.96,2.22,2.47-.09.3-1.33.49-3.1-1.66-3.47-.67-.11-1.35-.14-2.03-.2Zm-5.15-34.14c-3.04.5-5.09,2.55-7.79,3.4-1.2.38-1.61,1.84-1.61,3.19,0,.7-.02,1.41.72,1.78.74.37,1.42,0,1.85-.5,2.31-2.59,4.56-5.24,6.83-7.87Zm4,4.9c.1-.46-.14-.99-.58-1.01-1.88-.09-3.57.58-5.17,1.53-1.21.72-1.6,1.9-1.73,3.19-.08.81.41,1.22,1.18,1.4,1.82.42,6.26-3.12,6.3-5.11Zm21.55,238.49c0,3.91-.01,7.81.02,11.72,0,.45.28.93.83.87.67-.07.9-.68,1.02-1.23.89-3.99-.16-7.71-1.87-11.36Zm-118.63,82.07c-.2.21-.39.43-.59.64,1.34,1.78,2.68,3.57,4.04,5.34.51.66.97,1.91,2.04,1.03.93-.77.58-2.05-.11-2.77-1.59-1.65-3.34-3.16-5.38-4.23Zm47.71-314.31c-1.87-.61-3.34.06-4.8.56-1.39.48-1.01,1.69-.72,2.57.38,1.15,1.36.59,1.95.19,1.26-.85,2.92-1.29,3.56-3.32Zm-35.73,187.65c-.5,2.49-1.88,3.85-.92,5.66.05.09.68.03.88-.14,1.6-1.39,1.02-3,.04-5.52Zm83.65-186.79c.05-.74-.29-1.14-.97-.89-1.09.39-2,1.05-2.03,2.37-.02.86.54,1.2,1.3,1.09,1.49-.22,1.22-1.67,1.7-2.57Z"/><path class="cls-7" d="m423.77,487.9c-2.72-6.42-4.57-13.04-4.99-20,1.66,6.67,3.33,13.33,4.99,20Z"/><path class="cls-7" d="m522.42,475.14c-1.01,5.04-4.21,8.96-7.06,13.06,2.37-4.34,4.74-8.68,7.11-13.02,0,0-.05-.04-.05-.04Z"/><path class="cls-7" d="m523.07,467.52c-.48,3.42-1.43,5.42-4.12,7.9,1.39-2.61,2.78-5.23,4.17-7.84,0,0-.05-.05-.05-.05Z"/><path class="cls-7" d="m428.3,290.01c-1.32-2.13-1.68-3.87.04-5.33,2.18-1.86,4.82-2,6.97-.34,3.4,2.64,6.08,6.03,8.18,9.85-2.93-1.56-4.52-4.46-6.83-6.64-4.34-4.11-6.6-3.59-8.36,2.45Z"/><path class="cls-7" d="m479.46,337.54c1.89,6.36,1.39,9.18-1.9,11.41,2.92-3.08,1.22-7,1.9-11.41Z"/><path class="cls-7" d="m497.12,298.58c-3.58.52-6.37-.02-9.06,1.78,1.8-3,3.68-3.39,9.06-1.78Z"/><path class="cls-7" d="m438.14,294.23c-.71-1.02-2.96,1.15-3.05-1.13-.04-1.08,1.56-1.12,2.56-1.08,1.04.04,2.17.37,2.15,1.7-.02,1.04-.83.83-1.66.51Z"/><path class="cls-7" d="m458.53,543.22c2.54,1.5,4.76,3.27,4.09,6.72-1.36-2.24-2.73-4.48-4.09-6.72Z"/><path class="cls-7" d="m463.78,541.92c-2.49-1.85-5.16-3.61-5.72-7.05,1.66,2.55,4,4.52,5.72,7.05Z"/><path class="cls-7" d="m503.33,536.72c-2.83.64-5.94-.27-8.32,2.03,2.09-3.45,5.44-1.98,8.32-2.03Z"/><path class="cls-7" d="m487.79,622.25c1.48,1.06,3.02.37,3.66,1.74.19.4-.31.84-.79.89-1.43.16-2.35-.45-2.87-2.63Z"/><path class="cls-7" d="m479.69,268.77c-1.22-.03-2.16-.39-2.21-1.66-.06-1.34.77-2.07,2.05-2.18,1.23-.1,2.32.2,2.27,1.75-.04,1.37-1,1.9-2.11,2.09Z"/><path class="cls-7" d="m493.45,311.78c-2.91-1.47-6.75-1.37-8.54.8,2.7-3.23,5.45-3.4,8.54-.8Z"/><path class="cls-9" d="m481.04,256.01s-4.85-1.97-7.13-.68-2.58,1.35-2.58,1.35l9.71-.67Z"/></g><g id="Calque_18"><path class="cls-4" d="m443.31,255.69c1.78-5.11,5.16-11.68,7.5-13.77,3.53-3.14,12.96-5.89,16.1-6.28,3.14-.39,16.49-.79,20.02-1.18,3.53-.39,14.92,3.53,16.88,3.93.86.17,2.56,2.24,4.19,4.51l5.22-1.17c-1.22-9.34-2.44-18.64-3.13-21.4-1.57-6.28-8.25-26.31-10.6-33.77-2.36-7.46-16.88-36.51-19.63-38.87-2.75-2.36-9.42-9.03-14.13-7.85-4.71,1.18-10.21,5.89-12.56,4.71-2.36-1.18-6.67-4.71-11.39-4.32-4.71.39-17.67,2.36-17.67,2.36-.39,2.75,1.96,23.56,2.75,32.59.79,9.03,1.96,35.34,2.36,41.62.39,6.28,2.36,22.77,3.14,29.05.59,4.71,2.28,10.08,1.6,13.47.22.01.46.02.72.02l3.19-.72c1.71-.7,3.67-1.82,5.44-2.94Z"/><path class="cls-7" d="m444.15,255.73c.24-.82,1.93-3.52,2.3-4.29,2.16-4.58,6.4-8.09,12.06-9.15,6.54-1.23,12.92-3.31,19.51-4.04,6.87-.77,14.09-2,20.63.46,2.82,1.06,5.31,2.72,7.42,4.77l9.8-2.2c-.69-8.11-1.84-16.16-5.75-23.86-4.25-8.37-5.69-18-8.31-27.1-4.81-16.69-10.55-32.98-23.05-45.84-5.49-5.65-15.12-5.71-20.57.08-1.06,1.12-2.26,1.25-3.61,1.27,2.48.5,5.04,1.06,7.4-.11,7.28-3.6,12.09.16,16.4,6.18,5.34,7.45,8.54,16.03,12.71,24.09,4.61,8.91,7.22,18.3,10.53,27.55,1.51,4.21,1.36,8.84,3.38,12.94.58,1.17-.21,2.02-1.56,1.91-1.07-.09-2-1.27-3.27-.56.29,2.6,4.81,1.86,3.83,4.68-.78,2.23-3.18-.68-4.93.65.75,2.21,3.47,2.02,4.58,3.68.56.84,1.74,1.59,1.08,2.64-.74,1.19-1.81.28-2.74-.11-2.86-1.2-5.71-3.46-9.18-.02,3.71,1.06,7.06,1.95,10.36,3,1.41.45,3.11,1.33,2.5,3.07-.72,2.07-2.47.83-3.78.43-8.7-2.71-17.43-4.56-26.41-1.15-.47.18-1.43.16-1.59-.11-3.21-5.27-7.84-3.03-11.82-1.89-8.34,2.4-14.1,8.34-19,15.22-1.45,2.04-2.96,4.05-4.46,6.06-.66.89-.87,2.51-2.4,2.18-1.2-.26-.73-1.78-1.29-2.62-1.51-2.32-.22-4.54.25-6.83.43-2.13,3.19-4.48-.64-6.44-.98-.5-.09-2.17.61-3.17,1.25-1.77,2.5-3.54,3.79-5.37-1.59-.83-1.86.31-2.45.84-.87.79-1.35,3.03-2.86,1.78-1.21-.99.4-2.35,1.05-3.42,1.37-2.26,2.79-4.49,4.27-6.84-1.28-.89-1.55.38-2.06.79-.75.59-1.51,1.1-2.38.51-1.13-.76-.65-1.79-.23-2.77,1.22-2.89,4.38-5.56.98-8.98-.18-.18-.03-1.02.23-1.24,3.96-3.42,1.36-9.15,5.28-12.83-2.03-.15-2.08,1.31-2.98,1.68-.68.29-1.37.85-2.05.36-.7-.5-.48-1.34-.17-2.02,1.05-2.29.77-4.99,2.22-7.17.32-.47.74-1.33.55-1.62-3.49-5.05,1.19-8,2.93-12.14-2.3,1.22-3.48,1.22-4-1.99-.52-3.2-2.86-6.06-.61-9.53.68-1.04-.57-1.9-1.42-2.43-1.87-1.15-2.61-3.01-3.52-4.83-.42-.84-.06-3.4-2.43-1.66-.07.05-.9-.65-1.09-1.12-1.95-4.67,1.73-12.24,6.6-13.73,5.68-1.75,11.11-.3,16.55,1.18-3.32-2.7-7.08-4.04-11.4-4.22-3.68-.16-7.36-.66-11-1.27-5.52-.92-9.32,1.76-9.85,7.36-.22,2.35-.07,4.69.4,7.06,1.83,9.1,3.44,18.16,4.05,27.53,1.61,24.76,2.05,49.69,7.41,74.1.31,1.42,2.54,2.2,1.53,3.37.56.15.68,1.31,1.99,1.33l2.95-.74c2.96-1.21,4.61-1.85,6.75-3.36Zm-12.22-75.55c-1.99-4.54-1.94-9.26-1.07-14.04,2.62,4.53,2.21,9.26,1.07,14.04Z"/></g></svg>