<?xml version="1.0" encoding="UTF-8"?><svg id="personnage2" xmlns="http://www.w3.org/2000/svg" xmlns:xlink="http://www.w3.org/1999/xlink" viewBox="0 0 1080 1080"><defs><style>.cls-1{fill:url(#Dégradé_sans_nom_8-11);}.cls-1,.cls-2,.cls-3,.cls-4,.cls-5,.cls-6,.cls-7,.cls-8,.cls-9,.cls-10,.cls-11,.cls-12,.cls-13,.cls-14,.cls-15,.cls-16,.cls-17,.cls-18,.cls-19,.cls-20,.cls-21,.cls-22{stroke-width:0px;}.cls-2{fill:url(#Dégradé_sans_nom_8-12);}.cls-3{fill:url(#Dégradé_sans_nom_8-15);}.cls-4{fill:url(#Dégradé_sans_nom_8-13);}.cls-5{fill:url(#Dégradé_sans_nom_8-14);}.cls-6{fill:url(#Dégradé_sans_nom_8-10);}.cls-7{fill:url(#Dégradé_sans_nom_8);}.cls-8{fill:url(#Dégradé_sans_nom_6);}.cls-9{fill:url(#Dégradé_sans_nom_4);}.cls-10{fill:url(#Dégradé_sans_nom_4-2);}.cls-11{fill:url(#Dégradé_sans_nom_8-5);}.cls-12{fill:url(#Dégradé_sans_nom_8-4);}.cls-13{fill:url(#Dégradé_sans_nom_8-3);}.cls-14{fill:url(#Dégradé_sans_nom_8-6);}.cls-15{fill:url(#Dégradé_sans_nom_8-2);}.cls-16{fill:url(#Dégradé_sans_nom_8-7);}.cls-17{fill:url(#Dégradé_sans_nom_8-9);}.cls-18{fill:url(#Dégradé_sans_nom_8-8);}.cls-20{fill:#3b2f35;}.cls-21{fill:#beaa9a;}.cls-22{fill:#aeb9b0;}</style><linearGradient id="Dégradé_sans_nom_4" x1="501.23" y1="107.74" x2="564.3" y2="107.74" gradientUnits="userSpaceOnUse"><stop offset="0" stop-color="#3b2f35"/><stop offset=".48" stop-color="#aeb9b0"/></linearGradient><linearGradient id="Dégradé_sans_nom_4-2" x1="495.02" y1="78.8" x2="510.57" y2="78.8" xlink:href="#Dégradé_sans_nom_4"/><linearGradient id="Dégradé_sans_nom_8" x1="548.62" y1="50.72" x2="554.8" y2="50.72" gradientUnits="userSpaceOnUse"><stop offset="0" stop-color="#f01048"/><stop offset=".56" stop-color="#aeb9b0"/></linearGradient><linearGradient id="Dégradé_sans_nom_8-2" x1="551.9" y1="110.91" x2="556.81" y2="110.91" xlink:href="#Dégradé_sans_nom_8"/><linearGradient id="Dégradé_sans_nom_8-3" x1="521.6" y1="35.23" x2="562.97" y2="35.23" xlink:href="#Dégradé_sans_nom_8"/><linearGradient id="Dégradé_sans_nom_8-4" x1="499.05" y1="97.45" x2="506.08" y2="97.45" xlink:href="#Dégradé_sans_nom_8"/><linearGradient id="Dégradé_sans_nom_8-5" x1="556.62" y1="92.58" x2="560.21" y2="92.58" xlink:href="#Dégradé_sans_nom_8"/><linearGradient id="Dégradé_sans_nom_8-6" x1="560.52" y1="111.33" x2="562.81" y2="111.33" xlink:href="#Dégradé_sans_nom_8"/><linearGradient id="Dégradé_sans_nom_8-7" x1="553.81" y1="45.92" x2="563.48" y2="45.92" xlink:href="#Dégradé_sans_nom_8"/><linearGradient id="Dégradé_sans_nom_8-8" x1="508.41" y1="108.92" x2="511.05" y2="108.92" xlink:href="#Dégradé_sans_nom_8"/><linearGradient id="Dégradé_sans_nom_8-9" x1="506.44" y1="109.13" x2="508.1" y2="109.13" xlink:href="#Dégradé_sans_nom_8"/><linearGradient id="Dégradé_sans_nom_8-10" x1="544.52" y1="110.63" x2="548.59" y2="110.63" xlink:href="#Dégradé_sans_nom_8"/><linearGradient id="Dégradé_sans_nom_8-11" x1="549.24" y1="111.3" x2="551.33" y2="111.3" xlink:href="#Dégradé_sans_nom_8"/><linearGradient id="Dégradé_sans_nom_8-12" x1="555.16" y1="53.16" x2="557.91" y2="53.16" xlink:href="#Dégradé_sans_nom_8"/><linearGradient id="Dégradé_sans_nom_8-13" x1="558.15" y1="51.91" x2="563.96" y2="51.91" xlink:href="#Dégradé_sans_nom_8"/><linearGradient id="Dégradé_sans_nom_8-14" x1="554.33" y1="72.69" x2="556.79" y2="72.69" xlink:href="#Dégradé_sans_nom_8"/><linearGradient id="Dégradé_sans_nom_8-15" x1="499.73" y1="72.23" x2="522.22" y2="72.23" xlink:href="#Dégradé_sans_nom_8"/><linearGradient id="Dégradé_sans_nom_6" x1="551.56" y1="223.39" x2="554.18" y2="223.39" gradientUnits="userSpaceOnUse"><stop offset="0" stop-color="#3b2f35"/><stop offset=".56" stop-color="#aeb9b0"/></linearGradient></defs><path class="cls-9" d="m551.43,62.89c.32-3.05-.41-5.67-1.07-8.28-.8-3.15-1.24-6.47-3.14-9.22-2.93-4.25-7.41-4.87-12.13-5.17-4.46-.28-9.21.65-13.03-2.92-1.89-1.77-2.5-1.48-3.38,1.12-1.16,3.41-2.17,6.87-3.44,10.24-1.39,3.66-1.89,7.43-1.97,11.31-.3,13.79.38,27.52,2.04,41.21.38,3.17,1.22,5.54,4.71,6.09.04,0,.05.22.09.43-.45-.04-.87-.02-1.25-.12-2.7-.68-2.6-.69-2.27,2.08.44,3.66.96,7.34.94,11.01-.01,2.76,1.06,5.36.99,8.71-2.07-3.94-2.3-7.77-3.27-11.41-2.15,4.09-1.06,8.6-1.79,13.22-1.12-.88-1.33-1.64-1.37-2.45-.18-3.5-1.52-6.89-1.08-10.46.06-.51.21-1.26-.49-1.5-.7-.24-.94.47-1.28.9-2.32,2.98-4.61,5.97-7.29,8.64-.92.91-.85,1.74-.44,2.87,1.77,4.84,3.4,9.74,5.16,14.59,2.61,7.22,4.82,14.6,9.53,20.92,2.39,3.2,4.43,6.72,6.22,10.3,1.11,2.21,2.33,3.58,4.89,3.57,2.92-.02,6.06,1.47,8.71.21,6.23-2.96,11.85-6.65,15.66-12.9,5.13-8.41,7-17.92,10.16-27,1.03-2.95,1.67-5.99,2.33-9.03.29-1.33.12-2.32-1.26-3.05-2.82-1.49-5.6-3.06-8.32-4.73-4.18-2.57-8.3-5.13-10.03-10.27-1.45-4.29-1.69-4.2-6.02-2.45-.61.24-1.24.44-1.88.57-3.12.64-7.92-1.23-9.23-3.84,1.3.71,2.33,1.31,3.4,1.84,2.09,1.04,4.22,1.69,6.62.99,2.57-.74,4.57-2.54,7.69-2.51,3.21.03,5.83-2.63,7.89-5.33,6.2-8.11,5.73-16.71,1.82-25.5-1.22-2.75-2.79-5.35-3.02-8.68,1.96,3.03,3.13,3.51,5.56,2.12,1.41-.81,2.76-1.8,3.91-2.94,2.11-2.08,2.21-5.7.38-7.59-1.51-1.56-3.8-1.3-6.38.82-1.24,1.02-2.38,2.18-3.88,3.57Z"/><path class="cls-10" d="m495.06,63.33c.07,5.22,2,6.97,7.14,6.5,1.29-.12,1.24.44,1.23,1.39-.03,4.09.03,8.19.04,12.28.02,5.97,2.11,11.35,4.71,16.58.36.72.79,1.96,1.87,1.51.87-.36.39-1.47.28-2.23-.89-5.9-1.94-11.78-2.71-17.69-.92-7.05-1.58-14.13-2.41-21.19-.25-2.15-1.13-3.98-3.54-4.44-2.58-.49-4.38.48-5.53,2.97-.64,1.41-1.29,2.85-1.08,4.31Z"/><path class="cls-7" d="m551.75,51.08c1.16,1.79,1.37,3.81,1.46,5.87.03.6-.24,1.54.7,1.55.79,0,.89-.84.89-1.51-.03-4.39-.94-8.6-2.95-12.51-.4-.78-1.04-1.65-2.32-1.52.05.69.34,1.5.08,1.76-1.71,1.69-1.07,2.66.79,3.55.43.21.62.91.92,1.39-.53-.11-1.59-1.25-1.2.51.26,1.19.85,2.32,1.42,3.83.52-1.3.25-2.11.21-2.91Z"/><path class="cls-15" d="m553.82,102.89c.52.81.39,1.73.47,2.62.38,4.17-.08,8.34-.22,12.5-.05,1.37.11,2.45,1.52,2.48,1.73.04,1.11-1.54,1.1-2.43-.01-1.87-.27-3.74-.41-5.61-.24-3.26-.45-6.52-.74-9.77-.04-.5-.02-1.32-.76-1.36-.78-.04-1.07.62-1.18,1.31-1.12.33-1.82.82-1.69,2.25.38,4.08.5,8.18.14,12.28-.04.46-.07,1.03.73,1,.75-.74.33-1.69.41-2.55.41-4.23-.39-8.52.63-12.72Z"/><path class="cls-13" d="m536.99,27.64c4.01,6.04,10.2,9.74,15.37,14.57-2.71-4.03-6.39-7.34-8.12-12.06.83.42,1.36,1.12,1.92,1.8,1.91,2.36,3.99,4.46,6.83,5.83,2.49,1.2,4.57,2.98,6.02,5.55.79,1.4,2.03,2.91,3.96,3.24-1.6-2.64-3.59-4.88-5.36-7.31-3.6-4.94-8.61-8.49-13.22-12.4-2.74-2.33-6.2-3.2-9.89-2.94-2.49.17-4.75,1.15-7.13,1.71-1.23.29-2.62.03-3.65,1.12-1.73,1.84-2.74,6.69-1.71,8.54,1.3,2.33,4.76,3.63,8.47,2.96-1.34-1.08-2.61-1.92-3.64-2.99-1.04-1.09-1.93-2.38-1.33-4.24q2.47,3.31,3.83,1.73c3.58,4.7,6.15,6.4,9.14,5.69-1.97-1.17-3.74-2.12-5.05-3.69-1.91-2.29-2.34-3.68-1.3-5.18.78,1.57.96,3.83,3,4.05,1,.11,1.32.53,1.9,1.01,3.59,3.02,7.21,6.01,10.82,9.01-2.73-6.01-8.68-9.63-10.85-16Z"/><path class="cls-12" d="m503.6,118.34c-.13-1.36-.36-2.73-.39-4.09-.18-8.2-.34-16.39-.45-24.59-.07-5.42-1.26-10.74-1.2-16.17,0-.83-.16-1.72-1.31-1.71-1.17.02-1.34.9-1.14,1.74,1,4.02.59,8.16,1.08,12.22.79,6.54.76,13.06.48,19.63-.23,5.4-.08,10.82-.09,16.23,0,.87.1,1.7,1.35,1.5,1.22-.2,4.15-3.6,4.14-4.83-.1-6.3-.19-12.59-.29-18.89-.03-2.09-.4-4.06-1.86-5.69-.72,8.26-.07,16.45-.34,24.67Z"/><path class="cls-11" d="m558.53,70.79c-.87.82-.62,1.51-.6,2.13.2,5.96.45,11.92.61,17.89.06,2.08.63,4.33-1.44,5.96-.32.26-.52.91-.48,1.35.42,5.41.18,10.88,1.34,16.24.97-3.75.58-7.59,1.29-11.37v10.83l.77-.03c.4-14.25.3-28.48-1.49-43Z"/><path class="cls-14" d="m561.62,98.43c-.59,2.07-.52,3.59-.57,5.11-.21,6.35.64,12.73-.5,19.06-.22,1.19.79,1.44,1.46,1.59,1.16.26.72-.76.72-1.3-.09-6.63-.19-13.26-.31-19.89-.03-1.35-.12-2.71-.8-4.57Z"/><path class="cls-16" d="m554.56,39.99c-1.22.31-.64,1.02-.36,1.49.75,1.26,1.76,2.39,2.36,3.71,1.13,2.49,3.23,4.08,5.03,5.96.45.48,1.1,1.02,1.69.46.59-.56-.22-1-.54-1.38-1.66-1.92-3.09-3.97-4.4-6.17-.93-1.57-2.23-3-3.78-4.07Z"/><path class="cls-18" d="m511.05,109.74c-.17-2.07-.22-3.53-.44-4.97-.12-.73-.7-1.44-1.5-1.35-.88.1-.68,1-.65,1.6.13,2.68.3,5.35.47,8.02.03.53-.16,1.28.61,1.39.77.1,1.24-.54,1.32-1.18.17-1.36.16-2.74.2-3.51Z"/><path class="cls-17" d="m506.9,100.92c-.46,1.78-.61,13.81-.28,15.43.1.48.15,1.09.8.97.72-.14.7-.84.68-1.4-.18-4.74-.37-9.48-.58-14.22,0-.18-.26-.34-.63-.78Z"/><path class="cls-6" d="m548.47,110.73s.01,0,.02,0c0-.89,0-1.79,0-2.68,0-.54.26-1.32-.52-1.41-1.07-.13-2.01.52-2.96.93-.46.2-.61.74-.41,1.27.18.46.5,1.15.97.81,2.17-1.55,1.08.64,1.2,1.1.17.68-.11,1.48.06,2.17.18.7.22,1.9,1.28,1.72.8-.13.29-1.11.33-1.71.05-.73.01-1.46.01-2.19Z"/><path class="cls-1" d="m549.87,105.22c-.54,3.93.41,7.47-.61,10.9-.17.57.55,1.26,1.25,1.27.99.01.81-.88.79-1.48-.08-2.37-.17-4.75-.36-7.12-.09-1.06.29-2.28-1.07-3.58Z"/><path class="cls-2" d="m555.42,49.7c-.66,2.08.17,3.71.18,5.37,0,.77.16,1.8,1.36,1.5,1.02-.26,1.08-1.28.83-2-.54-1.57-.9-3.27-2.37-4.86Z"/><path class="cls-4" d="m558.15,49.24c.56,3.45,2.49,5.3,5,5.34.34,0,.69,0,.8-.34.06-.18-.05-.58-.18-.64-2.11-.87-3.18-3.15-5.62-4.36Z"/><path class="cls-5" d="m556.75,73.01c.14-1.27-.14-2.01-1.39-1.93-.5.03-1.2.16-.99.74.35.96.84,2.18,1.79,2.44.91.25.48-.92.59-1.25Z"/><path class="cls-3" d="m522.22,27.06s-3.34,9.12-5.22,12.93c-.79,1.59-4.67,13.42-4.17,15.92s.13,12.07,0,14.1-1.34,17.89,0,21.02,3.19,21.43,3.19,22.52-1.66,3.63-2.21,3.83-1.73-7.7-1.6-9.65-4.45-16.3-3.79-20.56-1.96-19.56-1.97-21.95-1.48-8.39-1.48-8.39l-4.22-2.13-1.01-.12s-.08-11.68,3.31-13.79,8.08-6.63,8.92-7.11,1.54.13,3.97-1.34,6.29-5.28,6.29-5.28"/><path class="cls-20" d="m553.96,365.43c.53-1.97-.62-2.55-2.95-2.38-2.11.15-4.25-.1-6.37-.25-2.87-.21-3.16-.06-2.78,2.92.8,6.27.78,12.57,1.1,18.86.24,4.71-.89,8.86-2.97,12.92-.26.51-.54,1.01-.75,1.54-1.43,3.67-.13,6.26,3.66,7.32,4.6,1.29,8.23-1.14,11.97-3.14.25-.13.39-.51.54-.8,1.16-2.34.09-7.71-1.95-9.33-2.65-2.11-3.41-4.71-2.83-8.03,1.11-6.35,2.76-12.61,3.34-19.63Z"/><path class="cls-20" d="m581.74,222.47c-.5-3.02-1.67-6.34-2.67-9.71-.6-2.03-1.93-2.88-4.03-2.85-1.5.03-2.87.31-4.27.91-4.06,1.73-7.01,5.11-10.85,7.17-1.52.82-.06,1.33.55,1.86,3.82,3.23,7.45,6.64,9.53,11.33.5,1.13,1.04,1.54,2.23.92,1.23-.64,2.51-1.23,3.82-1.68,5.28-1.85,5.29-1.83,5.61-7.22,0-.08.02-.16.07-.73Z"/><path class="cls-20" d="m521.27,178.75c-1.02.63-.33,1.43,0,2.03,2.15,3.77,4.59,7.39,6.49,11.28,4.41,9,9.33,17.66,15.69,25.45.69.85,1.35,1.61,2.4,1.99.62.22,1.15,1.26,1.86.35.53-.68.4-1.48-.08-2.29-4.11-7-9.02-13.47-13.41-20.29-3.76-5.84-8.27-11.2-11.73-17.27-.28-.49-.48-1.05-1.24-1.25Z"/><path class="cls-20" d="m499.53,125.76c-.54.06-.87.42-1.15.84-.7,1.08-1.02,2.31-.7,3.52.85,3.23,1.4,6.64,2.85,9.6,2.32,4.73,3.93,9.7,5.82,14.57,2.73,7.03,5.42,14.05,10.51,19.8.7.8,1.4,1.6,2.13,2.37.34.36.82.7,1.29.37.53-.37.16-.88-.04-1.31-.17-.37-.38-.73-.59-1.08-5.37-8.8-10.86-17.53-13.7-27.58-1.88-6.66-5.19-12.92-5.71-19.97-.04-.49-.07-1.01-.7-1.13Z"/><path class="cls-8" d="m552.79,222.11c-.79.02-1.15.55-1.22,1.23-.09.9.44,1.33,1.32,1.34.72,0,1.33-.22,1.29-1.08-.05-.82-.57-1.3-1.39-1.5Z"/><path class="cls-19" d="m551.3,211.07c.38-.88.93-.74,1.39-.82,1.92-.33,4.1.05,5.72-1.12,6.1-4.38,9.45-10.5,10.63-17.83.45-2.74.75-5.52.9-8.3.12-2.27.78-4.65-.14-6.82-2.23-5.26-1.65-10.74-.82-16,1.28-8.13,2.73-16.31,6.33-23.87.25-.53.54-1.17-.03-1.58-2.59-1.84-4.6-4.47-7.69-5.63-1.01-.38-1.51-.15-1.75.93-.45,2.08-.78,4.22-1.53,6.2-3.78,10-5.85,20.57-11.01,30.13-3.69,6.83-9.62,10.51-15.96,13.96-.66.36-1.6.28-2.41.27-2.63-.01-5.24-.19-7.8-.87-.53-.14-1.2-.55-1.62-.04-.53.63.15,1.2.43,1.75.26.51.59.98.91,1.46,4.66,6.93,9.76,13.56,14.14,20.7,2.52,4.1,5.55,7.9,8.13,12,2.96,4.7,5,4.87,9.5,1.56,3.1-2.28,6.2-4.61,9.58-6.42,2.23-1.19,2.66-2.25,1.34-4.24-.18-.27-.24-.62-.43-.88-.9-1.21-.64-3.69-2.17-3.73-1.27-.03-1.99,2.14-2.87,3.41-3.05,4.42-7.21,6.39-12.75,5.78Z"/><path class="cls-19" d="m493.74,133.46s-1.39-2.48-.99-2.81,4.58-.7,4.21-.45,5.67,12.3,5.6,14.14,4.76,13.2,5.85,15.76,4.04,10.99,6.62,14.09,3.81,4.58,3.81,4.58c0,0,15.74,29.15,19.79,32.31s3.54,9.1,9.44,11.05c5.9,1.95,4.44,5.18,5.37,6.79s4.18,8.53,4.47,11.58.05,5.13,2.61,6.09,6.28-.1,7.44-2.36,8.93-4.17,9.09-3.73-.2,17.9-1.43,24.95c-1.23,7.04-5.31,32.85-7,37.33-1.69,4.47,1.18,8.95-2.43,12.9s-27.69,7.96-32.16,7.51-25.37.85-28.96-1.04c-3.59-1.89-11.72-.41-13.34-4.48s-10.06-44.85-10.7-49-2.61-29.68-2.36-31.45,5.13-9.19,7.51-18.06,3.05-9.72,3.3-17.34,1.11-9.98,1.56-15.03.89-15.23,2.79-19.55,1.12-13.54,1.22-19.75c.1-6.21-1.28-14.01-1.28-14.01Z"/><path class="cls-20" d="m523.18,360.19c-.3.17-4.82,1.95-6.71,2.12s-3.71-.14-3.71-.14c0,0,3.81,15.4,3.88,17.46s1.29,11.02-.58,13.81-1.43,5.43-4.37,5.79-4.3,2.86-6.16,4.38-3.7,7.62,0,8.33,5.69,5.59,9.35,1.26c3.66-4.33,5.34-3.62,7.58-5.61s4.64-3.18,4.18-6.9.58-12.33.06-15.95,1.36-10.31-.23-17.48c-1.59-7.17-3.28-7.06-3.28-7.06Z"/><path class="cls-22" d="m559.99,318.64s-19.33,1.89-19.63,3.01.27,11.87.28,13.72,1.74,14.69,1.56,15.64.51,7.39,1.07,8.6,3.45,1.84,4.72,1.76,4.73.87,4.55-1.87.82-13.23,1.2-14.79,3.04-10.94,3.04-10.94c0,0,0,2.45,0,0s.91-8.04,1.22-9.25,1.99-5.87,1.99-5.87"/><path class="cls-22" d="m516.63,323.48c-.24-.31-8.36-.84-8.36-.84,0,0-4.07,0-3.84.84s1.28,13.3,2.19,14.99,2.52,15.7,3.91,17.32,3.02,6.78,3.02,6.78c0,0,.6.49,2.91-.26s5.61-1.56,6.71-2.12c2.26-1.15-.4-2.54-.28-3.77.09-1-.09-10.1-.51-12.01-.42-1.92,1.29-9.97,1.15-12.18s-.01-4.66.01-6.88-6.92-1.87-6.92-1.87Z"/><path class="cls-22" d="m492.75,130.65s-5.61,3.38-6.66,4.57-5.53,1.71-6.81,9.01c-1.28,7.3-1.51,23.83-2.12,26.53s-5.03,33.87-4.3,35.17-2.22,13.42.46,17.29,5.28,16.71,5.3,16.12,3.95-20.1,5.46-22.42.77-5.41.77-8.94,1.36-13.25,2.06-14.84,3.94-4.46,4.17-7.27.16-13.57,1.67-15.11.25-3.49,1.06-10.07c.81-6.58,2.22-27.68-1.06-30.04Z"/><path class="cls-22" d="m577.04,134.72c-.82-.64-6.08,10.19-6.17,15.06s-2.26,19.5-2.26,19.5c0,0,2,11.01,3.1,12.67s3.03,8.53,2.8,11.82-.89,10.75-.66,12.87-1.22,4.13-.3,3.27,4.87.66,4.87.66c0,0,2.51,3.98,2.88,5.33s.43,4.32.43,4.32c0,0,2.37-.94,3.73-8.36s-.06-26.23,0-29.54.97-25.02,0-27.63,2.15-11.72-8.43-19.97Z"/><path class="cls-20" d="m556.62,219.13c-.59.25-1.73,2.85-1.62,3.75s-1.76,2.96-2.44,2.61-1.06,1.17.88,3.41c1.94,2.24,2.85,2.42,3.18,5.49.33,3.07,2.11,8.36,1.99,9.34s1.32,3.61,3.02,3.12,4.54-1.1,6.32-2.64,1.77-1.09,4.84-2.38,5.37-.93,6.85-2.82,1.96-1.16,2.36-3.38c.4-2.22.93-7.03-.26-6.1s-8.59,1.48-9.49,2.58-3.65-.28-3.65-.28c0,0-3.47-6.11-5.16-7.8s-4.46-3.8-5.29-3.92-1.53-.97-1.53-.97Z"/><path class="cls-21" d="m524.94,51.91c0-.46-2.66,2.89-2.72,4.01s-.13,4.31,0,5.02,1.05,2.14,2.16,2.41,2.64.61,3.32-.64,1.85-1.12,2.09-2.78,1.17-2.37.74-3.95-1.35-3.61-2.12-3.76-3.48.14-3.47-.31Z"/><path class="cls-21" d="m540.2,52.69c-.21.11-3.04-1.07-3.5.37s-1.24,4.23-1.49,5.03-.19,4.08.61,4.62,1.66,1.46,3.26,1.18,3.38-.4,3.75-1.75.61-4.41,0-5.52-2.61-3.93-2.61-3.93Z"/><path class="cls-19" d="m536.54,22.06c8.88,1.56,14.22,8.43,20.34,13.95,2.45,2.22,4.01,5.5,6.38,8,1.84,1.94,3.82,3.58,6.4,4.41.49.16,1.32.13,1.24.92-.07.62-.78.86-1.3.99-1.52.4-3.05.66-4.47-.37-.44-.32-.85-.82-1.53-.41-.22,1.02.75,1.09,1.21,1.57.62.64,2.9.18,1.48,2.27-.25.36.58.62,1.06.72.7.15.92.82.91,1.3-.02.82-.84.59-1.35.64-2.41.22-4.73-.04-6.82-1.44-.43-.29-1.04-.82-1.4.04-.3.73.1,1.15.85,1.46,5.3,2.21,6.4,6.31,2.75,10.73-1.13,1.37-1.26,2.71-1.11,4.32.74,7.66,1.51,15.3,1.95,22.99.51,8.93.54,17.87.68,26.79.06,3.77,1.49,5.18,4.45,6.49,5.13,2.26,8.75,6.5,12.81,10.19,4.71,4.29,5.26,9.7,4.95,15.52-.51,9.76.38,19.5.42,29.25.04,8.77,1.27,17.54.13,26.29-.53,4.12-1.34,8.24-3.01,12.11-.37.86-.51,1.74-.45,2.64.24,3.58-.8,7.16.13,10.75.77,2.98-1.79,3.88-3.58,4.84-2.06,1.11-2.61,2.42-2.5,4.68.97,20.02-2.42,39.49-7.35,58.79-.77,3.02-1.21,6.11-2.8,8.85-.31.54-.51,1.47-1.31,1.15-.92-.36-.27-1.12-.04-1.66,2.83-6.43,3.82-13.36,5.39-20.12,2.36-10.14,3.89-20.44,4.67-30.81.42-5.47.21-10.99.29-16.48.02-1.45-.58-1.73-1.82-1.03-3.13,1.76-6.17,3.69-9.54,5.03-4,1.59-6,.25-6.43-3.88-.54-5.16-2.47-9.97-4.75-14.62-.27-.56-.84-1.02-.6-1.89,1.37,1.12,2.01,2.67,2.54,4.13,1.42,3.9,3.29,7.67,3.21,12-.05,2.84,2.22,4.49,4.74,3.21,5.96-3.01,12.47-4.97,17.79-9.24,1.24-1,1.77-4.98.76-6.31-.54-.72-1.12-.43-1.75-.2-2.85,1.02-5.79,1.82-8.31,3.59-1.41.99-2.36.88-2.82-1.02-1.2-4.98-5.04-8.12-8.31-11.63-.64-.68-1.62-1.17-2.54-1.43-1.98-.56-3.45.82-3.15,2.78.13.81.35,1.73-.56,2.19-.81.41-2.05.7-2.56.06-1.31-1.66-3.4-1.44-4.89-2.4-2.19-1.41-4.16-3.18-5.82-5.25-5.94-7.39-10.29-15.74-14.65-24.11-2.64-5.08-5.18-10.48-8.97-14.64-8.33-9.15-11.03-20.8-15.5-31.67-1.95-4.75-3.89-9.54-5.07-14.57-.32-1.35-.9-1.77-2.44-1.5-4.69.83-7.96,3.49-11.26,6.83-4.8,4.84-5.29,10.6-5.38,16.71-.19,13.28-1.6,26.47-2.76,39.68-.66,7.56-2.64,15.12-1.19,22.75,1.29,6.79,2.65,13.59,4.69,20.22,1.03-.24.86-.91.93-1.44.59-4.9,1.95-9.62,3.39-14.32,1.07-3.48,1.77-7.09,1.44-10.67-.7-7.41.92-14.26,3.85-20.98,1.87-4.27,3.41-8.69,5.05-13.06.28-.75.47-1.59.47-2.39.03-10.59.08-21.17,0-31.76-.02-2.53-.61-5.04-.49-7.59.03-.53-.27-1.17.46-1.54,1.08.35.71,1.3.81,2.04,1.74,12.73.73,25.56,1.46,38.33.15,2.69-.92,5.13-1.41,7.69-1.69,8.74-3.67,17.42-5.45,26.14-2.28,11.12-5.22,22.11-7.93,33.14-.3,1.23-.3,2.43-.35,3.65-.45,10.86.84,21.53,2.78,32.22,1.93,10.63,4.27,21.16,6.6,31.69,1.95,8.79,3.44,9.91,11.86,12.04,7.77,1.97,15.55,2.91,23.54,1.66,11.46-1.79,23.02-2.97,34.27-5.92,1.54-.4,2.82-1.29,4.25-1.88.49-.21,1.23-.43,1.58.15.41.68-.39.93-.76,1.32-2.05,2.16-4.87,2.59-7.54,3.29-4.76,1.23-9.59,2.18-14.48,2.68-1.61.16-2.19.86-1.98,2.37,1.3,9.54.39,19.18,1.39,28.73.24,2.28.66,4.54.9,6.82.11,1.02.6,1.48,1.53,1.55,1.06.09,2.13.09,3.18.2,1.9.21,2.66-.8,2.88-2.52.92-7.42,3.11-14.57,4.72-21.85,1.13-5.11,1.6-10.36,3.22-15.37.17-.53.07-1.15,1.24-1.63-1.67,4.34-1.64,8.62-2.2,12.82-1.02,7.73-3.85,15.07-4.93,22.8-.27,1.92.47,3.21,1.02,4.85,1.01,2.99,1.03,6.26.47,9.45-1.02,5.89-2,11.79-3.03,17.67-.36,2.07.55,3.69,2.2,4.52,3.2,1.61,4.1,8.65,3.23,11.15-.11.31-.25.61-.44.88-2.87,4.08-12.15,5.76-16.25,2.96-2.94-2.01-3.73-4.19-2.7-7.64.23-.78.62-1.51.99-2.24,2.06-4.05,3.36-8.16,3.22-12.9-.22-7.46-.43-14.91-.99-22.35-.01-.16-.12-.38-.05-.48,2.94-4.17.35-8.54.22-12.74-.19-6.8-.14-13.61-.3-20.41-.18-7.98-.06-6.45-6.53-5.18-1.93.38-3.85.96-5.79,1.07-2.65.16-3.49,1.58-3.57,3.96-.13,4.02-.05,8.07-.62,12.03-.72,5.03.61,9.97.14,14.94-.15,1.62,1.38,2.5,1.54,4.06.87,8.4,1.58,16.78,1.04,25.26-.32,4.99-.15,10.01-.08,15.01.05,3.51-1.32,6.16-4.22,8.09-1.64,1.1-3.07,2.4-4.27,4.02-2.28,3.06-6.42,3.71-10.69,1.87-2.61-1.12-4.35-5.01-3.82-8.38.15-.97.69-1.66,1.37-2.25,2.53-2.21,5.01-4.49,7.66-6.55,1.59-1.23,1.84-3.25,3.41-4.49.17,1.95-.48,3.68-1.87,5.02-2.3,2.22-4.69,4.35-7.15,6.39-2.93,2.44-2.76,6.51.46,8.57,3.59,2.3,7.27,1.65,9.94-1.77,1.23-1.58,2.88-2.66,4.46-3.83,1.81-1.33,2.97-3,2.92-5.37-.18-8.61.14-17.22.42-25.83.13-4.11-.3-8.19-.55-12.28-.11-1.8-.61-2.14-2.21-1.1-1.88,1.22-4.07,1.7-6.32,1.75-1.92.04-2.45,1.02-1.8,2.72,3.62,9.39,3.16,19.51,5.24,29.18.04.21-.09.46-.28,1.38-.88-4.24-1.89-7.79-2.29-11.41-.63-5.71-1.02-11.58-3.41-16.75-3.08-6.65-3.19-13.84-5-20.69-2.03-7.69-3.17-15.55-4-23.45-.14-1.32-.87-1.58-1.87-1.83-2.95-.72-5.77-1.81-8.59-2.93-1.73-.69-2.72-1.86-3.36-3.63-1.9-5.27-2.59-10.82-3.9-16.22-2.83-11.62-4.76-23.42-6.59-35.22-1.34-8.7-2.89-17.38-3.89-26.14-.7-6.15-2.45-12.19-3.9-18.23-1.45-6.04-.74-12.05-.17-18.09.92-9.79,2.32-19.52,3.32-29.3.97-9.45.67-19,2.31-28.39.32-1.84.92-3.41,2.26-4.77,2.51-2.55,4.18-5.94,7.55-7.62,1.02-.51,2.03-1.12,3.12-1.41,2.84-.73,4.83-1.87,6.89-4.5,2.11-2.71,2.33-5.04,2.35-7.87.05-7.22,0-14.44.11-21.66.13-7.9-.89-15.69-2.04-23.48-.14-.94-.44-1.64-1.22-2.27-4.48-3.68-4.33-11.63.32-15.07,1.18-.87,1.67-1.87,1.86-3.25.32-2.43.69-4.86,1.2-7.26.37-1.71,1.39-3.15,2.62-4.39,4.37-4.41,9.24-8.05,15.33-9.92-4.41,2.13-7.08,6.06-9.79,9.79-2.57,3.55-5.04,7.31-5.76,11.83-.1.65-.36,1.31-.28,1.93.18,1.38,1.45,2.32,2.43,2.4,1.1.09.68-1.44.69-2.23.03-2.57.69-5.03,1.24-7.5.32-1.44.98-2.79,3.04-3.55-3.32,3.44-3.1,7.52-3.42,11.41-.57,7,.87,13.87,1.62,20.79,1.41,13.1,4.98,25.94,4.72,39.24,0,.44.2.89.39,1.66,1.42-1.72,1.29-3.4,1.13-5.06-.94-9.8-1.74-19.61-2.89-29.38-1.03-8.81-1.98-17.63-1.3-26.48.41-5.32.87-10.79,4.62-15.23-4.47,9.79-3.45,20.09-3.16,30.32,1.09-.8.76-1.87.64-2.85-.95-7.81-.14-15.36,2.98-22.64.87-2.03,1.14-4.34,2.18-6.25,1.7-3.12,3.05-6.25,3.77-9.79.55-2.67,2.76-4.15,5.7-4.68,2.62-.48,5.12-1.67,7.67-2.54.66,0,1.31,0,1.97,0Zm15.22,29.02c1.16,1.79,1.37,3.81,1.46,5.87.03.6-.24,1.54.7,1.55.79,0,.89-.84.89-1.51-.03-4.39-.94-8.6-2.95-12.51-.4-.78-1.04-1.65-2.32-1.52.05.69.34,1.5.08,1.76-1.71,1.69-1.07,2.66.79,3.55.43.21.62.91.92,1.39-.53-.11-1.59-1.25-1.2.51.26,1.19.85,2.32,1.42,3.83.52-1.3.25-2.11.21-2.91Zm2.07,51.81c.52.81.39,1.73.47,2.62.38,4.17-.08,8.34-.22,12.5-.05,1.37.11,2.45,1.52,2.48,1.73.04,1.11-1.54,1.1-2.43-.01-1.87-.27-3.74-.41-5.61-.24-3.26-.45-6.52-.74-9.77-.04-.5-.02-1.32-.76-1.36-.78-.04-1.07.62-1.18,1.31-1.12.33-1.82.82-1.69,2.25.38,4.08.5,8.18.14,12.28-.04.46-.07,1.03.73,1,.75-.74.33-1.69.41-2.55.41-4.23-.39-8.52.63-12.72Zm-2.39-40c.32-3.05-.41-5.67-1.07-8.28-.8-3.15-1.24-6.47-3.14-9.22-2.93-4.25-7.41-4.87-12.13-5.17-4.46-.28-9.21.65-13.03-2.92-1.89-1.77-2.5-1.48-3.38,1.12-1.16,3.41-2.17,6.87-3.44,10.24-1.39,3.66-1.89,7.43-1.97,11.31-.3,13.79.38,27.52,2.04,41.21.38,3.17,1.22,5.54,4.71,6.09.04,0,.05.22.09.43-.45-.04-.87-.02-1.25-.12-2.7-.68-2.6-.69-2.27,2.08.44,3.66.96,7.34.94,11.01-.01,2.76,1.06,5.36.99,8.71-2.07-3.94-2.3-7.77-3.27-11.41-2.15,4.09-1.06,8.6-1.79,13.22-1.12-.88-1.33-1.64-1.37-2.45-.18-3.5-1.52-6.89-1.08-10.46.06-.51.21-1.26-.49-1.5-.7-.24-.94.47-1.28.9-2.32,2.98-4.61,5.97-7.29,8.64-.92.91-.85,1.74-.44,2.87,1.77,4.84,3.4,9.74,5.16,14.59,2.61,7.22,4.82,14.6,9.53,20.92,2.39,3.2,4.43,6.72,6.22,10.3,1.11,2.21,2.33,3.58,4.89,3.57,2.92-.02,6.06,1.47,8.71.21,6.23-2.96,11.85-6.65,15.66-12.9,5.13-8.41,7-17.92,10.16-27,1.03-2.95,1.67-5.99,2.33-9.03.29-1.33.12-2.32-1.26-3.05-2.82-1.49-5.6-3.06-8.32-4.73-4.18-2.57-8.3-5.13-10.03-10.27-1.45-4.29-1.69-4.2-6.02-2.45-.61.24-1.24.44-1.88.57-3.12.64-7.92-1.23-9.23-3.84,1.3.71,2.33,1.31,3.4,1.84,2.09,1.04,4.22,1.69,6.62.99,2.57-.74,4.57-2.54,7.69-2.51,3.21.03,5.83-2.63,7.89-5.33,6.2-8.11,5.73-16.71,1.82-25.5-1.22-2.75-2.79-5.35-3.02-8.68,1.96,3.03,3.13,3.51,5.56,2.12,1.41-.81,2.76-1.8,3.91-2.94,2.11-2.08,2.21-5.7.38-7.59-1.51-1.56-3.8-1.3-6.38.82-1.24,1.02-2.38,2.18-3.88,3.57Zm-.13,148.18c.38-.88.93-.74,1.39-.82,1.92-.33,4.1.05,5.72-1.12,6.1-4.38,9.45-10.5,10.63-17.83.45-2.74.75-5.52.9-8.3.12-2.27.78-4.65-.14-6.82-2.23-5.26-1.65-10.74-.82-16,1.28-8.13,2.73-16.31,6.33-23.87.25-.53.54-1.17-.03-1.58-2.59-1.84-4.6-4.47-7.69-5.63-1.01-.38-1.51-.15-1.75.93-.45,2.08-.78,4.22-1.53,6.2-3.78,10-5.85,20.57-11.01,30.13-3.69,6.83-9.62,10.51-15.96,13.96-.66.36-1.6.28-2.41.27-2.63-.01-5.24-.19-7.8-.87-.53-.14-1.2-.55-1.62-.04-.53.63.15,1.2.43,1.75.26.51.59.98.91,1.46,4.66,6.93,9.76,13.56,14.14,20.7,2.52,4.1,5.55,7.9,8.13,12,2.96,4.7,5,4.87,9.5,1.56,3.1-2.28,6.2-4.61,9.58-6.42,2.23-1.19,2.66-2.25,1.34-4.24-.18-.27-.24-.62-.43-.88-.9-1.21-.64-3.69-2.17-3.73-1.27-.03-1.99,2.14-2.87,3.41-3.05,4.42-7.21,6.39-12.75,5.78Zm20.57-27.59c-.92.38-.95.81-.97,1.21-.23,4.09-.52,8.15-1.93,12.06-.49,1.38-.49,2.97.01,4.37.72,1.99,1.76,3.87,2.52,5.85.49,1.27,1.26,1.72,2.58,1.79,4.96.27,5.33.6,6.73,5.42.3,1.02.6,2.04.87,3.07.14.55.16,1.27.91,1.22.54-.04.61-.68.71-1.17,1.15-5.44,2.5-10.83,2.1-16.5-.27-3.83-.23-7.69-.36-11.54-.43-12.53-.33-25.07-.54-37.61-.1-6-1.85-10.62-6.2-14.52-1.39-1.25-1.95-1.34-2.59.66-1.57,4.92-2.52,9.96-3.68,14.97-1.88,8.11-3.29,15.94-.3,24.29,3.21,8.93,2.75,18.53,3.03,27.93.02.7.09,1.71-.92,1.66-.76-.04-.72-.97-.72-1.61-.05-3.77-.02-7.54-.15-11.31-.12-3.39-.15-6.82-1.11-10.24Zm-57.68,177.11c-.28.9-1.63.51-1.44,1.57.07.39.46.43.8.4,2.93-.27,5.94-.32,8.58-1.81,1.32-.7,3.54-1.47.96-3.4-.2-.15-.22-.62-.2-.93.24-4.68-.69-9.32-.48-13.98.23-5.06.78-10.12,1.32-15.16.2-1.86-.39-2.54-2.23-2.52-4.83.06-9.67.3-14.38-1.16-1.17-.36-1.75.04-1.56,1.31.93,6.23,1.81,12.48,3.34,18.59,1.15,4.6,2.51,9.15,3.02,13.89.16,1.46.38,2.97,2.28,3.19Zm39.76,4.83c.53-1.97-.62-2.55-2.95-2.38-2.11.15-4.25-.1-6.37-.25-2.87-.21-3.16-.06-2.78,2.92.8,6.27.78,12.57,1.1,18.86.24,4.71-.89,8.86-2.97,12.92-.26.51-.54,1.01-.75,1.54-1.43,3.67-.13,6.26,3.66,7.32,4.6,1.29,8.23-1.14,11.97-3.14.25-.13.39-.51.54-.8,1.16-2.34.09-7.71-1.95-9.33-2.65-2.11-3.41-4.71-2.83-8.03,1.11-6.35,2.76-12.61,3.34-19.63Zm-16.97-337.79c4.01,6.04,10.2,9.74,15.37,14.57-2.71-4.03-6.39-7.34-8.12-12.06.83.42,1.36,1.12,1.92,1.8,1.91,2.36,3.99,4.46,6.83,5.83,2.49,1.2,4.57,2.98,6.02,5.55.79,1.4,2.03,2.91,3.96,3.24-1.6-2.64-3.59-4.88-5.36-7.31-3.6-4.94-8.61-8.49-13.22-12.4-2.74-2.33-6.2-3.2-9.89-2.94-2.49.17-4.75,1.15-7.13,1.71-1.23.29-2.62.03-3.65,1.12-1.73,1.84-2.74,6.69-1.71,8.54,1.3,2.33,4.76,3.63,8.47,2.96-1.34-1.08-2.61-1.92-3.64-2.99-1.04-1.09-1.93-2.38-1.33-4.24q2.47,3.31,3.83,1.73c3.58,4.7,6.15,6.4,9.14,5.69-1.97-1.17-3.74-2.12-5.05-3.69-1.91-2.29-2.34-3.68-1.3-5.18.78,1.57.96,3.83,3,4.05,1,.11,1.32.53,1.9,1.01,3.59,3.02,7.21,6.01,10.82,9.01-2.73-6.01-8.68-9.63-10.85-16Zm44.76,194.83c-.5-3.02-1.67-6.34-2.67-9.71-.6-2.03-1.93-2.88-4.03-2.85-1.5.03-2.87.31-4.27.91-4.06,1.73-7.01,5.11-10.85,7.17-1.52.82-.06,1.33.55,1.86,3.82,3.23,7.45,6.64,9.53,11.33.5,1.13,1.04,1.54,2.23.92,1.23-.64,2.51-1.23,3.82-1.68,5.28-1.85,5.29-1.83,5.61-7.22,0-.08.02-.16.07-.73Zm-86.68-159.14c.07,5.22,2,6.97,7.14,6.5,1.29-.12,1.24.44,1.23,1.39-.03,4.09.03,8.19.04,12.28.02,5.97,2.11,11.35,4.71,16.58.36.72.79,1.96,1.87,1.51.87-.36.39-1.47.28-2.23-.89-5.9-1.94-11.78-2.71-17.69-.92-7.05-1.58-14.13-2.41-21.19-.25-2.15-1.13-3.98-3.54-4.44-2.58-.49-4.38.48-5.53,2.97-.64,1.41-1.29,2.85-1.08,4.31Zm8.53,55.01c-.13-1.36-.36-2.73-.39-4.09-.18-8.2-.34-16.39-.45-24.59-.07-5.42-1.26-10.74-1.2-16.17,0-.83-.16-1.72-1.31-1.71-1.17.02-1.34.9-1.14,1.74,1,4.02.59,8.16,1.08,12.22.79,6.54.76,13.06.48,19.63-.23,5.4-.08,10.82-.09,16.23,0,.87.1,1.7,1.35,1.5,1.22-.2,4.15-3.6,4.14-4.83-.1-6.3-.19-12.59-.29-18.89-.03-2.09-.4-4.06-1.86-5.69-.72,8.26-.07,16.45-.34,24.67Zm17.68,60.41c-1.02.63-.33,1.43,0,2.03,2.15,3.77,4.59,7.39,6.49,11.28,4.41,9,9.33,17.66,15.69,25.45.69.85,1.35,1.61,2.4,1.99.62.22,1.15,1.26,1.86.35.53-.68.4-1.48-.08-2.29-4.11-7-9.02-13.47-13.41-20.29-3.76-5.84-8.27-11.2-11.73-17.27-.28-.49-.48-1.05-1.24-1.25Zm-21.74-52.99c-.54.06-.87.42-1.15.84-.7,1.08-1.02,2.31-.7,3.52.85,3.23,1.4,6.64,2.85,9.6,2.32,4.73,3.93,9.7,5.82,14.57,2.73,7.03,5.42,14.05,10.51,19.8.7.8,1.4,1.6,2.13,2.37.34.36.82.7,1.29.37.53-.37.16-.88-.04-1.31-.17-.37-.38-.73-.59-1.08-5.37-8.8-10.86-17.53-13.7-27.58-1.88-6.66-5.19-12.92-5.71-19.97-.04-.49-.07-1.01-.7-1.13Zm59-54.97c-.87.82-.62,1.51-.6,2.13.2,5.96.45,11.92.61,17.89.06,2.08.63,4.33-1.44,5.96-.32.26-.52.91-.48,1.35.42,5.41.18,10.88,1.34,16.24.97-3.75.58-7.59,1.29-11.37v10.83l.77-.03c.4-14.25.3-28.48-1.49-43Zm-45.7-35.94c-.77-.12-.93-.17-1.08-.15-.16.01-.34.05-.47.14-6.01,4.29-11.35,9.03-11.29,17.27,0,.9-.96,2.47.75,2.59,1.37.1,1.22-1.49,1.45-2.47.66-2.8,1.77-5.35,3.2-7.9,1.95-3.45,4.17-6.58,7.44-9.48Zm-20.08,149.66c-.34-.08-.68-.16-1.01-.24-2.17,8.51-7.75,16.28-4.69,25.93,1.9-8.56,3.8-17.12,5.7-25.69Zm68.87-86.08c-.59,2.07-.52,3.59-.57,5.11-.21,6.35.64,12.73-.5,19.06-.22,1.19.79,1.44,1.46,1.59,1.16.26.72-.76.72-1.3-.09-6.63-.19-13.26-.31-19.89-.03-1.35-.12-2.71-.8-4.57Zm-7.06-58.43c-1.22.31-.64,1.02-.36,1.49.75,1.26,1.76,2.39,2.36,3.71,1.13,2.49,3.23,4.08,5.03,5.96.45.48,1.1,1.02,1.69.46.59-.56-.22-1-.54-1.38-1.66-1.92-3.09-3.97-4.4-6.17-.93-1.57-2.23-3-3.78-4.07Zm-43.51,69.74c-.17-2.07-.22-3.53-.44-4.97-.12-.73-.7-1.44-1.5-1.35-.88.1-.68,1-.65,1.6.13,2.68.3,5.35.47,8.02.03.53-.16,1.28.61,1.39.77.1,1.24-.54,1.32-1.18.17-1.36.16-2.74.2-3.51Zm-4.15-8.82c-.46,1.78-.61,13.81-.28,15.43.1.48.15,1.09.8.97.72-.14.7-.84.68-1.4-.18-4.74-.37-9.48-.58-14.22,0-.18-.26-.34-.63-.78Zm41.58,9.81s.01,0,.02,0c0-.89,0-1.79,0-2.68,0-.54.26-1.32-.52-1.41-1.07-.13-2.01.52-2.96.93-.46.2-.61.74-.41,1.27.18.46.5,1.15.97.81,2.17-1.55,1.08.64,1.2,1.1.17.68-.11,1.48.06,2.17.18.7.22,1.9,1.28,1.72.8-.13.29-1.11.33-1.71.05-.73.01-1.46.01-2.19Zm1.4-5.52c-.54,3.93.41,7.47-.61,10.9-.17.57.55,1.26,1.25,1.27.99.01.81-.88.79-1.48-.08-2.37-.17-4.75-.36-7.12-.09-1.06.29-2.28-1.07-3.58Zm5.55-55.52c-.66,2.08.17,3.71.18,5.37,0,.77.16,1.8,1.36,1.5,1.02-.26,1.08-1.28.83-2-.54-1.57-.9-3.27-2.37-4.86Zm2.74-.46c.56,3.45,2.49,5.3,5,5.34.34,0,.69,0,.8-.34.06-.18-.05-.58-.18-.64-2.11-.87-3.18-3.15-5.62-4.36Zm-1.4,23.77c.14-1.27-.14-2.01-1.39-1.93-.5.03-1.2.16-.99.74.35.96.84,2.18,1.79,2.44.91.25.48-.92.59-1.25Zm-3.96,149.09c-.79.02-1.15.55-1.22,1.23-.09.9.44,1.33,1.32,1.34.72,0,1.33-.22,1.29-1.08-.05-.82-.57-1.3-1.39-1.5Z"/><path class="cls-19" d="m496.77,194.76c.92,4.11,2.3,7.7,6.09,9.94,3.54,2.1,6.95,3.58,11.37,1.25-.83,1.83-1.88,2.46-3.32,2.72-3.9.7-7.01-1.04-9.96-3.21-3.06-2.25-4.71-5.33-5.05-9.1-.04-.45-.25-.99.86-1.6Z"/><path class="cls-19" d="m563.07,240.82c-.87-5.72-.6-11.67-3.61-16.94,3.78,5.1,4.57,10.84,3.61,16.94Z"/><path class="cls-19" d="m557.61,224.77c1.34,2.64.67,5.33,1.29,8.07-1.77-1.34-1.69-1.31-.99-3,.21-.51-.08-1.26-.2-1.88-.18-.98-.78-1.93-.1-3.18Z"/><path class="cls-19" d="m506.62,166.09c.94.79,1.07,1.82,1.19,3.18-1.69-.83-.9-2.21-1.19-3.18Z"/><path class="cls-19" d="m537.15,52.69c-1.53,2.92-2.99,5.77-.97,9.12,1,1.66,2.33,1.93,3.97,1.53,1.66-.4,2.77-1.34,2.86-3.21.13-2.69-.85-4.96-2.57-7.04,2.31,1.55,3.92,5.52,3.28,8-.52,2.04-2.57,3.38-5.48,3.18-1.68-.11-2.13.18-1.91,1.94.29,2.26,1.22,4.23,2.16,6.22.95,2.03,1.55,4.06-.02,6-1.54,1.9-4.75,2.59-7.19,1.69-1.71-.63-3.44-.94-5.28-.96-1.78-.03-2.32-1.31-2.22-2.9.1-1.61.86-2.51,2.62-2.31.04.76-.51.96-.78,1.35-.91,1.34-.74,2.4.98,2.66,1.96.29,3.83.77,5.72,1.37,1.91.61,3.57-.27,4.9-1.56,1.24-1.2.95-2.73.28-4.13-1.97-4.14-2.56-8.63-3.1-13.08-.35-2.93.09-5.85,2.74-7.86Z"/><path class="cls-19" d="m521.35,58.51c-.07-1.19.2-2.53.72-3.84,1.02-2.55,2.53-3.66,4.49-3.24,2.32.49,3.97,2.47,3.98,4.85,0,1.3.05,2.6-.41,3.87-.89,2.45-3.21,4.06-5.39,3.71-2.24-.36-3.44-2.17-3.39-5.34Zm8.44-1.99c.03-2.24-1.47-4.15-3.51-4.29-2.17-.15-3.03,1.33-3.42,3.14-.29,1.35-.46,2.74-.61,4.11-.18,1.58.87,2.41,2.1,2.98,1.18.55,2.28.12,3.16-.71,1.49-1.41,2.25-3.18,2.29-5.24Z"/><path class="cls-19" d="m517.9,50.82c-.18-1.57.44-2.22,1.27-2.81,2.51-1.77,5.66-2.05,8.27-3.57.4-.23,1.03-.23,1.35.23.41.59,0,1.13-.4,1.52-.93.93-1.98,1.67-3.33,1.92-2.46.45-5.02.6-7.16,2.72Z"/><path class="cls-19" d="m543.49,51.49c-.84-.14-1.74-.47-2.27-1.2-1.25-1.7-2.26-3.61-4.34-4.52-.37-.16-.56-.62-.28-1.04.27-.41.72-.33,1.11-.25,1.57.32,2.94,1.09,4,2.24,1.04,1.13,1.77,2.55,3.16,3.36.36.21.67.56.29.99-.42.48-1.02.43-1.67.42Z"/><path class="cls-19" d="m538.41,60.51c-1.22-.13-1.74-.93-1.78-2.12-.04-1.05.39-1.76,1.51-1.73,1.18.02,2.11.56,2.06,1.85-.04,1-.55,1.86-1.79,2Z"/><path class="cls-19" d="m554.54,66.24c-1.68-2.02-.99-3.38.09-4.36,1.38-1.25,2.95-2.55,5.23-1.04-3.18.14-5.27,1.4-5.32,5.4Z"/><path class="cls-19" d="m529.87,85.63h6.83c-2.65,1.22-4.75.88-6.85.63,0-.21.01-.42.02-.63Z"/><path class="cls-19" d="m513.83,348.25c.61.31,1.07.54,1.52.77.44.23,1.23-.14,1.28.71,0,.16-.26.42-.45.5-.58.24-1.09-.02-1.55-.37-.47-.36-.67-.86-.8-1.61Z"/><path class="cls-19" d="m575.46,228.73c-1.48-.24-2.7-1.39-2.67-3.03.03-1.43,1.58-1.77,2.85-1.58,1.37.2,2.88.55,2.77,2.44-.09,1.6-1.14,2.25-2.96,2.17Z"/><path class="cls-19" d="m503.03,63.35c-1.34-2.39-2.21-4.68-5.23-3.45.71-1.27,1.08-1.55,2.1-1.27,2.1.57,2.85,2.15,3.12,4.72Z"/><path class="cls-19" d="m526.44,55.98c1.08.27,1.61,1.02,1.59,2.13-.02.93-.66,1.27-1.5,1.23-1.1-.05-1.6-.72-1.59-1.77,0-.96.45-1.54,1.5-1.58Z"/></svg>