<?xml version="1.0" encoding="UTF-8"?><svg id="personnage9" xmlns="http://www.w3.org/2000/svg" xmlns:xlink="http://www.w3.org/1999/xlink" viewBox="0 0 1080 1080"><defs><style>.cls-1{fill:url(#Dégradé_sans_nom_8-11);}.cls-1,.cls-2,.cls-3,.cls-4,.cls-5,.cls-6,.cls-7,.cls-8,.cls-9,.cls-10,.cls-11,.cls-12,.cls-13,.cls-14,.cls-15,.cls-16,.cls-17,.cls-18,.cls-19,.cls-20,.cls-21,.cls-22{stroke-width:0px;}.cls-2{fill:url(#Dégradé_sans_nom_8-12);}.cls-3{fill:url(#Dégradé_sans_nom_8-15);}.cls-4{fill:url(#Dégradé_sans_nom_8-16);}.cls-5{fill:url(#Dégradé_sans_nom_8-13);}.cls-6{fill:url(#Dégradé_sans_nom_8-14);}.cls-7{fill:url(#Dégradé_sans_nom_8-10);}.cls-8{fill:url(#Dégradé_sans_nom_8);}.cls-9{fill:url(#Dégradé_sans_nom_6);}.cls-10{fill:url(#Dégradé_sans_nom_8-5);}.cls-11{fill:url(#Dégradé_sans_nom_8-4);}.cls-12{fill:url(#Dégradé_sans_nom_8-3);}.cls-13{fill:url(#Dégradé_sans_nom_8-6);}.cls-14{fill:url(#Dégradé_sans_nom_8-2);}.cls-15{fill:url(#Dégradé_sans_nom_8-7);}.cls-16{fill:url(#Dégradé_sans_nom_8-9);}.cls-17{fill:url(#Dégradé_sans_nom_8-8);}.cls-19{fill:#757473;}.cls-20{fill:#3b2f35;}.cls-21{fill:#beaa9a;}.cls-22{fill:#aeb9b0;}</style><linearGradient id="Dégradé_sans_nom_8" x1="273.3" y1="304" x2="292.52" y2="304" gradientUnits="userSpaceOnUse"><stop offset="0" stop-color="#f01048"/><stop offset=".56" stop-color="#aeb9b0"/></linearGradient><linearGradient id="Dégradé_sans_nom_8-2" x1="281.01" y1="449.28" x2="327.81" y2="449.28" xlink:href="#Dégradé_sans_nom_8"/><linearGradient id="Dégradé_sans_nom_8-3" x1="286.75" y1="425.35" x2="327.02" y2="425.35" xlink:href="#Dégradé_sans_nom_8"/><linearGradient id="Dégradé_sans_nom_8-4" x1="278.39" y1="369.98" x2="322.24" y2="369.98" xlink:href="#Dégradé_sans_nom_8"/><linearGradient id="Dégradé_sans_nom_8-5" x1="285.94" y1="397.9" x2="313.27" y2="397.9" xlink:href="#Dégradé_sans_nom_8"/><linearGradient id="Dégradé_sans_nom_8-6" x1="278.24" y1="358.06" x2="324.52" y2="358.06" xlink:href="#Dégradé_sans_nom_8"/><linearGradient id="Dégradé_sans_nom_8-7" x1="301.67" y1="304.91" x2="311.56" y2="304.91" xlink:href="#Dégradé_sans_nom_8"/><linearGradient id="Dégradé_sans_nom_8-8" x1="311.01" y1="304.33" x2="323.22" y2="304.33" xlink:href="#Dégradé_sans_nom_8"/><linearGradient id="Dégradé_sans_nom_8-9" x1="278.74" y1="467.13" x2="323.47" y2="467.13" xlink:href="#Dégradé_sans_nom_8"/><linearGradient id="Dégradé_sans_nom_8-10" x1="252" y1="315.94" x2="262.76" y2="315.94" xlink:href="#Dégradé_sans_nom_8"/><linearGradient id="Dégradé_sans_nom_8-11" x1="260.05" y1="276.47" x2="269.19" y2="276.47" xlink:href="#Dégradé_sans_nom_8"/><linearGradient id="Dégradé_sans_nom_8-12" x1="303.78" y1="346.35" x2="320.87" y2="346.35" xlink:href="#Dégradé_sans_nom_8"/><linearGradient id="Dégradé_sans_nom_8-13" x1="317.03" y1="387.39" x2="320.85" y2="387.39" xlink:href="#Dégradé_sans_nom_8"/><linearGradient id="Dégradé_sans_nom_8-14" x1="288.65" y1="387.36" x2="296.61" y2="387.36" xlink:href="#Dégradé_sans_nom_8"/><linearGradient id="Dégradé_sans_nom_8-15" x1="267.85" y1="284.39" x2="270.16" y2="284.39" xlink:href="#Dégradé_sans_nom_8"/><linearGradient id="Dégradé_sans_nom_8-16" x1="286.75" y1="444.14" x2="292.3" y2="444.14" xlink:href="#Dégradé_sans_nom_8"/><linearGradient id="Dégradé_sans_nom_6" x1="205.68" y1="501.71" x2="288.2" y2="501.71" gradientUnits="userSpaceOnUse"><stop offset="0" stop-color="#3b2f35"/><stop offset=".56" stop-color="#aeb9b0"/></linearGradient></defs><path class="cls-8" d="m280.12,327.09c1.52-4.01,1.84-8.25,2.24-12.44.25-2.59.43-5.66-3.82-3.51-.57-2.28,1.25-4.29-.1-6.35-1.58.64-1.64,2.14-2.08,3.3-2.14,5.56-1.96,11.49-2.75,17.27-.64,4.63-.66,4.85,4,5.7.84.15,1.66.36,2.49.57,4.96,1.22,6.75.54,8.43-4.22,3.3-9.3,4.27-18.9,3.93-28.81-.23-6.85-3.74-12.87-3.8-19.65-.02-1.9-1.42-2.72-3.16-2.95-1.97-.25-4.14-.49-5.28,1.49-3.26,5.65-3.3,11.84-2.33,18.04.17,1.11.51,3.27,2.59,2.94,1.72-.28,2.21-1.92,2.26-3.39.12-3.89.04-7.79.04-11.68.86,4-.13,8.34,1.12,11.9,1.51,4.33.59,8.04-.02,12.07-.62,4.09-2.28,8.7-1.06,12.23,1.44,4.17-.98,5.32-2.69,7.48Z"/><path class="cls-14" d="m295.19,456.51c8.78-.54,17.47.93,26.23,1.19,4.49.13,5.7-.87,6.18-5.26.21-1.93.2-3.9.21-5.85.03-5.28-1.03-6.05-6.28-5.65-4.86.37-9.51,1.85-14.43,1.97-7.55.19-14.81,2.44-22.18,3.91-2.49.5-4.35,4.37-3.81,7.38.54,3.06,3.05,2.2,4.96,2.27,3.04.11,6.08.03,9.12.03Z"/><path class="cls-12" d="m327.01,428.54c-.51-3.27-.93-6.29-1.46-9.29-.25-1.4-.2-3.37-1.69-3.79-1.73-.49-2.55,1.43-3.6,2.56-.67.73-.58,2.48-2.08,2.05-1.13-.32-1.42-1.58-1.46-2.73-.1-3.16-1.91-3.62-4.47-2.84-3.01.92-6.22,1.1-9.17,1.97-3.61,1.07-7.57,2.37-9.9,5.6-2.27,3.14-3.86,6.77-5.7,10.21-.57,1.07-1.19,2.27-.24,3.41.78.94,1.97.88,3.07.73,10.57-1.46,21.05-3.58,31.74-4.11.84-.04,1.67-.31,2.5-.51,1.85-.45,2.56-1.71,2.46-3.27Z"/><path class="cls-11" d="m312.26,360.25c-6.11-.55-11.48.38-16.23,3.98-1.46,1.11-3.26,1.57-5.11,1.79-2.91.34-5.69,1.15-8.39,2.34-4.31,1.91-4.71,2.54-3.61,6.83,1.09,4.23,2.3,5.2,6.82,4.43,7.54-1.29,15.08-2.65,22.51-4.42,4.07-.97,8.35-1.74,11.72-4.71,2.44-2.16,2.47-5.02,2.08-7.74-.4-2.77-3.13-2.21-5.06-2.44-1.68-.21-3.4-.04-4.74-.04Z"/><path class="cls-10" d="m308.91,386.97c-7.1.26-13.79,2.54-20.63,4.1-2.15.49-2.63,1.93-2.18,3.86.89,3.79,1.71,7.59,2.77,11.33.6,2.1,1.84,3.62,4.24,1.78.72-.55,1.24-.85,2.25-.37,5.1,2.43,11.07.43,13.97-4.34,2.23-3.66,2.28-7.87,3.32-11.82,1.21-4.59.97-4.78-3.74-4.55Z"/><path class="cls-13" d="m278.32,361.99c0,5.34.87,5.89,5.62,4.48,2.25-.67,4.23-1.8,6.23-2.95,3.07-1.77,6.29-3.49,9.8-3.77,6.85-.55,13.43-3.25,20.55-2.05,3.12.53,3.5-2.73,3.92-5.15.26-1.52-.09-2.78-1.87-2.88-5.08-.28-10.17-.5-15.25-.68-8.93-.32-16.75,3.31-24.65,6.81-3.04,1.35-4.83,3.2-4.35,6.19Z"/><path class="cls-15" d="m310.9,297.39c.42-6.13-.31-11.07-1.49-15.95-.49-2.02-1.55-3.65-4.08-3.24-2.28.36-2.9,1.94-2.9,3.98,0,.73-.05,1.47-.01,2.2.68,14.58,2.23,29.17-.66,43.7-.27,1.35,0,2.77,1.58,3.33,1.8.64,3.4.14,4.61-1.29,1.48-1.74,1.88-3.94,2.25-6.11,1.58-9.19,1.73-18.43.7-26.62Z"/><path class="cls-17" d="m318.09,324.9c1.14,1.38-.86,3.66,1.17,3.95,1.67.23,1.88-2.18,2.49-3.59.05-.11.06-.24.09-.36,2.4-9.48,1.53-18.88-1.69-27.91-1.54-4.34-2.84-8.5-2.63-13.11.13-2.95-1.54-4.4-4.34-4.04-3.11.4-2.1,2.81-1.66,4.58,1.41,5.61,2.03,11.31,1.79,17.06-.32,7.57,1.26,15.1.22,22.67-.14,1.02-.3,2.39.99,2.89,1.2.47,2.04-.48,2.82-1.26.34-.34.62-.73.75-.89Z"/><path class="cls-16" d="m323.47,462.75c-3.16,2.92-6.58,3.55-10.13,3.59-10.35.1-20.7.08-30.9-2.16-1.25-.27-2.8-.88-3.52.82-.61,1.46.5,2.23,1.63,2.82,6.23,3.28,13.12,3.8,19.84,3.68,5.51-.09,11.02-1.48,16.62-1.65,5.24-.16,5.75-.9,6.45-7.1Z"/><path class="cls-7" d="m262.67,317.47c.29-3.25-.13-5.65-.93-7.97-.41-1.18-1.2-2.25-2.55-2.36-1.36-.11-2.13.87-2.85,1.95-1.99,2.98-2.29,6.65-4.05,9.72-.57.99-.28,2.17.45,3.1,1.83,2.34,4.36,3.21,7.14,2.69,2.61-.49,2.57-2.92,2.77-4.98.09-.97.02-1.95.02-2.15Z"/><path class="cls-1" d="m260.05,278.47c.1.84.1,1.71.33,2.51.37,1.25.57,2.87,2.24,2.95,1.69.09,2.03-1.51,2.44-2.74.85-2.54,1.8-4.99,3.52-7.13,1.42-1.78.1-3.2-1.13-4.41-1.29-1.27-2.44-.48-3.47.5-2.35,2.26-4.05,4.84-3.93,8.31Z"/><path class="cls-2" d="m320.87,346.91c-9.34-2.6-14.5-2.66-17.09-.04,5.64-.32,10.75,2.16,17.09.04Z"/><path class="cls-5" d="m320.85,387.66c-.26-1.04.06-2.69-1.8-2.88-1.26-.13-2.23.63-1.97,1.95.27,1.39.72,3.05,2.41,3.25,1.3.16,1.27-1.16,1.36-2.33Z"/><path class="cls-6" d="m288.65,388.79c3.34.07,5.71-.4,7.97-2.33-3.35-1.51-5.29.49-7.97,2.33Z"/><path class="cls-3" d="m267.85,286.94c2.08-1.4,2.46-2.73,2.28-4.31-.06-.5-.6-.97-1.01-.74-1.71.96-1,2.63-1.27,5.05Z"/><path class="cls-4" d="m292.3,443.59c-1.79-.55-3.44-.25-5.55,1.15,2.43.39,4.09.39,5.55-1.15Z"/><path class="cls-9" d="m248.16,390.85c-4.64,18.5-7.21,36.89-11.5,54.94-2.9,12.2-5.76,24.53-5.03,37.25.31,5.37.46,10.73.64,16.1.45,13.44-.52,26.84-.77,40.26-.02.96,0,2.15-.51,2.82-1.56,2.02-.93,3.87-.05,5.82,1.79,3.96,2.11,8.24,2.66,12.47.5,3.8-2.67,3.87-4.81,4.78-2.35.99-2.78-1.29-3.54-2.7-.51-.95-.97-2.03-1.1-3.09-.65-5.36-2.49-10.44-3.49-15.72-.24-1.25-.58-2.44.09-4.33,1.51,5.86,2.39,11.2,5.04,16.02.75-4.69-1.63-9.11-1.13-13.85.97.63.88,1.54,1.08,2.35,1.17,4.74,2.35,9.47,3.53,14.2.21.83.41,1.91,1.47,1.78,1.44-.19.98-1.42.86-2.34-.6-4.77-2.29-9.23-4.01-13.66-1.3-3.34-1.05-6.74.82-9.46,1.44-2.1,1.22-4.1,1.37-6.22.09-1.27-.52-2.1-1.73-1.2-3.73,2.75-7.81,2.17-11.96,1.63-1.26-.16-3.16-.54-3.2,1.36-.08,3.66.13,7.75,2.85,10.25,1.89,1.73,2.36,3.35,2.71,5.53.93,5.86.79,12,4.26,17.25.47.72,1.48,1.77.16,2.48-1.33.72-2.66-.12-2.88-1.37-1.16-6.51-5.24-12.1-5.74-18.82-.19-2.58-.67-5.22-2.37-7.94-1.89,3.46-2.17,6.79-2.24,10.16-.24,13.31-.39,26.62-.73,39.93-.56,21.84-1.42,43.66-2.86,65.46-.7,10.55-1.6,8.79,9.65,10.11,11.36,1.34,22.68,2.3,33.13,7.78,4.07,2.14,8.77,3.61,12.81,5.53,5.52,2.63,4.62-.69,4.97-3.22.91-6.53,2.66-12.94,3.4-19.46,2.36-21.01,7.48-41.55,10.21-62.48,1.58-12.09,3.18-24.19,4.51-36.31.78-7.15.67-14.41,1.62-21.53,2.11-15.81,1.78-31.68,1.84-47.55,0-1.35.21-3.21-.82-3.81-3.11-1.82-2.36-4.34-1.86-6.96.09-.47.04-.98,0-1.46-.11-1.15-.41-2.32-1.77-2.41-1.58-.1-1.57,1.25-1.65,2.33-.11,1.46-.09,2.93-.19,4.39-.06.93-.45,1.7-1.51,1.73-1.11.03-1.43-.77-1.51-1.69-.1-1.09.17-2.34-.27-3.26-3.1-6.39-1.91-12.79-.32-19.22.3-1.2.47-2.3-.12-3.54-2.75-5.78-3.99-12.06-5.13-18.26-1.75-9.58-1.97-19.41-4.34-28.93-.77-3.08-.09-6.2,1.85-8.71,2.31-2.97,1.81-5.62-.28-8.28-2.07-2.65-2.64-5.62-2.52-8.93.55-15.19-1.91-30.17-3.09-45.25-.23-2.93-1.57-4.88-4.33-5.66-3.02-.85-5.94-3.19-9.28-.92-4.86-2.58-5.14,1.89-6.34,4.37-4.21,8.71-7.08,17.91-9.69,27.21-4.78,17.04-9.16,34.17-13.09,51.42-1.49,6.54-3.96,12.9-4.94,19.5-2.61,17.65-2.67,35.52-3.52,53.31-.58,12.06-.87,24.15-1.78,36.19-.43,5.69.68,7.2,6.4,7.61,1.81.13,3.75.31,5.45-.17,2.89-.82,6.33-1.77,6.37-5.55.06-6.46-.61-12.93-.56-19.39.08-9.39-1.4-18.73-.56-28.15,1.34-15.09,7-29.33,7.64-44.69.5-11.94,3.14-23.93,5.86-35.72.44-1.9.83-3.82,2.37-6.1.21,2.83-.64,5.92,3.51,3.99Z"/><path class="cls-19" d="m343.85,377.59c1.81,4.96,3.23,9.95,3.16,15.25-.13,9.29.48,18.46,2.85,27.56,1.78,6.82,2.7,13.88,3.7,20.88,2.2,15.33,4.22,30.69,6.3,46.04,1.7,12.56,5.09,24.83,5.77,37.59.38,7.02,2.23,13.96,3.36,20.95.41,2.54,1.62,3,3.81,1.88,9.66-4.91,10.15-7.21,8.59-15.94-3.55-19.84-7.96-39.46-13.66-58.8-3.73-12.64-7.82-25.24-8.19-38.56-.35-12.86-2.27-25.51-4.14-38.18-1.94-13.15-3.92-26.3-5.87-39.45-1.35-9.05-5.04-17.3-8.62-25.59-1.21-2.8-3.1-3.03-5.62-1.68-4.23,2.27-5.05,6.5-4.79,10.39.65,9.72,1.85,19.43,3.19,29.09,1.77,12.78,3.1,25.49-1.42,38-.77,2.12-.36,4.1.54,6.03,3.89,8.25,5.88,16.89,6.74,26.03,1.35,14.41,1.71,28.77.18,43.13-.74,6.94-1.55,13.8-.75,20.79.77,6.76.77,6.88,7,4.84.12-.04.22-.1.34-.14.58-.2,1.25-.46,1.61.22.36.67-.13,1.21-.7,1.46-1.33.57-2.68,1.28-4.08,1.51-2.44.4-3.3,1.51-2.91,4.01.64,4.1.95,8.24,1.53,12.35,1.24,8.82,3.25,17.59,3.71,26.44,1.11,21.36-.31,42.67-2.38,63.97-1.05,10.85-.19,21.7,3.61,32.11,2.27,6.23,3.72,12.63,4.07,19.27.05,1.02-.47,2.47.93,2.84,1.06.29,1.63-.94,2.18-1.68,4.06-5.45,8.94-9.9,14.85-13.34,4.63-2.69,9.01-5.83,13.06-9.36,6.89-6,5.73-4.65,3.06-11.45-.58-1.48-1.31-2.9-1.82-4.4-4.42-13.07-8.75-26.16-9.94-40.05-.15-1.82-.53-3.62-.87-5.41-.16-.82-.33-1.98-1.29-1.99-1.41,0-1.09,1.34-1.18,2.24-.5,5.2-.97,10.4-1.45,15.59-.28-1.84-.15-3.65.03-5.46.65-6.29,1.3-12.58,2.05-18.86.81-6.74-3.63-13.13-1.94-20.12.21-.88-.55-2.1-1.08-3.03-.56-.99-.93-1.98-.91-3.11.22-12.16-3.37-23.87-4.25-35.93-.67-9.21-3.25-18.25-4.41-27.45-2.55-20.09-5.29-40.15-8.53-60.14-2.16-13.36-4.64-26.69-8.44-39.72-.27-.92-.79-1.92-.09-3.49.48,1.45.7,2.4,1.1,3.25.57,1.23.56,3.46,2.5,2.98,1.83-.45,1.11-2.49.96-3.84-.37-3.19-.95-6.36-1.45-9.54Z"/><path class="cls-20" d="m294.12,482.96c0-3.1.03-5.23,0-7.35-.02-1.4-.19-2.77-2.07-2.83-1.69-.05-2.19,1.07-2.65,2.47-1.02,3.04-.02,6.04-.05,9.05-.17,16.6.77,33.22-.93,49.79-1.1,10.68-1.18,21.43-2.77,32.08-2.04,13.63-3.05,27.42-5.71,40.95-3.23,16.41-5.9,32.89-8.35,49.42-.43,2.87.3,3.8,3.09,3.64,2.06-.12,4.36-.49,6.16.24,6.21,2.53,12.78,2.81,19.24,3.88,15.63,2.59,29.6-.99,42.16-10.51.08.96-1.96,1.86-.42,2.98,1.04.76,2.43.71,3.5.11,2.05-1.14.82-2.84.26-4.16-1.71-4.05-3.34-8.09-3.92-12.51-1.27-9.71-1.99-19.42-.74-29.18.55-4.32-.97-9.32.46-12.83,2.76-6.79.25-13.53,1.75-20.1.14-.62-.09-1.65-.54-2.03-2.84-2.43-1.75-4.88-.35-7.5.55-1.03.81-2.32.86-3.51.23-6.35.06-12.69-1.01-18.98-1.66-9.72-3.7-19.4-4.71-29.19-1.06-10.31-1.13-20.72-1.59-31.08-.31-6.96-1.12-13.87-2.32-20.72-.24-1.34-.19-3.42-2.05-3.42-2.02,0-4.8.55-5.17,2.69-.57,3.26-2.37,6.11-2.65,9.39-.12,1.37.09,2.46-2.15,2.36-1.84-.08-2.36-.28-2.14-2.07.13-1.04-.24-1.98-1.52-2.07-1.32-.1-2.05.64-2.31,1.86-.23,1.07-.37,2.16-.57,3.24-.6,3.16-.75,6.43-2.24,9.95-.5-2.93,1.32-5.46-.41-7.66-1.08-1.37-1.31-2.79-1.22-4.44.06-1.12.63-2.68-1.24-2.89-1.66-.18-3.25.22-3.8,2.09-.34,1.16-.34,2.41-.57,3.61-.6,3.03-.44,6.24-2.15,9.11-.13-3.31-1.51-6.32-1.81-9.54-.15-1.53-.4-3.09-2.31-3.18-1.73-.08-1.51,1.6-1.95,2.64-.74,1.74-.75,3.81-3.05,6.2Z"/><path class="cls-20" d="m271.79,403.27c2.03,7.37,2.48,15.66,3.26,23.91.46,4.86.81,9.73,2.43,14.39.31.89.55,2.01,1.74,2.11,1.26.11,1.49-1.04,1.91-1.89,3.06-6.2,4.61-12.82,5.36-19.66,1.2-10.9.14-21.67-4.48-31.52-7.25-15.45-7.41-30.97-2.87-47,.83-2.91,4.33-5.68,2.26-8.64-1.82-2.6-5.81-2.04-8.83-2.86-5.29-1.42-7.07.29-6.13,5.78,1.65,9.63,2.84,19.3,3.05,29.07.17,7.93-.19,15.9,5.28,22.59,1.79,2.2,1.34,4.45-.29,6.7-1.36,1.86-2.58,3.87-2.7,7.03Z"/><path class="cls-20" d="m336.64,450.98c.77,7.25-.22,14.16.86,21.96.6-1.31.84-1.61.87-1.93,1.62-19.23,1.56-38.27-7.38-56.08-1.66-3.31-1.85-6.28-.71-9.79,1.92-5.91,3.76-11.92,3.13-18.28-1.03-10.44-2.15-20.86-3.29-31.29-.16-1.47.34-3.76-1.66-3.97-2.15-.23-1.66,2.27-2.31,3.57-.21.43-.2.95-.35,1.42-2.13,6.5-1.23,13.33-2.22,19.96-1.43,9.65-.93,19.33,1.82,28.65,1.58,5.35,2.14,10.69,2.79,16.13.45,3.73.18,8.03,3.36,10.83,1.67,1.47,2.32,2.95,2.35,5.01.06,4.52.17,9.03.3,13.55.02.69-.05,1.71.79,1.83.4.06.94-.85,1.66-1.57Z"/><path class="cls-22" d="m280.82,661.81c-2.42-.71-9.25-.87-9.35-.7s-.89,3.03-1.95,4.03-2.59,11.34-2.8,12.23-2.3,2.18-3.44,2.18-3.44,3.93-3.18,6.09-2.48,24.95-2.48,27.05,3.39,5.8,5.82,3.72c2.43-2.08,4.88-3.07,5.27-4.2s9.67-42.83,9.67-42.83l2.44-7.56Z"/><path class="cls-22" d="m310.76,667.14c-1.09-.23-9.82-1.2-10.55-1.2s-3.27,1.94-3.39,4.73-1.45,16.85-2.06,19.03-3.15,23.28-3.15,24.85-2.06,7.08,0,6.81,4.49-1.47,5.94-1.59,2.6.45,3.18-2.5,3.61-15.68,4.22-18.47,2.82-14.55,4.01-18.06,2.99-12.42,1.8-13.09"/><path class="cls-20" d="m256.33,717.02c.73-.05,11.64-1.33,11.64-1.33,0,0-4.36,19.64-4.85,23.43s.24,9.98-1.6,10.09-19.44,2.25-20.68,2.94-6.82,2.15-6.09,1.91,7.06-9.17,9.7-8.88,4.61-2.48,6.43-3.71,2.04-8.26,2.9-11.42,2.55-13.04,2.55-13.04Z"/><path class="cls-20" d="m299.22,719.66s-6.66.59-8.53,2.89-3.16,10.24-2.15,11.91.93,8.66,0,10.16-3.84,6.13-1.66,7.55,7.39-.5,8.79-.51-.89-1.15,5.25,1.03,11.75,8.4,14.29,4.21-2.6-6.46-6.25-7.67-13.29-7.52-13.29-7.52c0,0,2.12-6.48,2.61-9.42s.95-12.63.95-12.63Z"/><path class="cls-22" d="m229.42,524.83c-.85.48-7.88,3.63-12,3.15s-5.21,1.46-5.33,2.79,3.15,10.67,3.52,13.46,1.45,11.27,2.42,12.61-.25,6.18,2.73,8,4.18,1.45,7.21,0,5.33-.12,4.85-4.24-3.39-13.68-3.76-15.14-.24-1.71.61-5.46,1.82-3.64,1.7-6.43-1.94-8.73-1.94-8.73Z"/><path class="cls-22" d="m369.8,549.84s7.78-4.31,9.7-4.4,2.23,3.47,1.88,6.19-1.71,8.25-2.01,10.46-1.51,12.39-1.76,15.3,1.22,7.69-1.97,6.96c-3.19-.73-6.87-1.84-5.26-6.63,1.61-4.79,1.59-7.37.62-9.22s-.24-2.02-1.21-5.09,1.21-6.7,0-8.88,0-4.68,0-4.68Z"/><path class="cls-22" d="m302.57,212.58c-.93.08-6.57,4.17-6.28,5.88s-2.58,9.79-5.35,10.76-10.67,6.68-12.7,7.38-7.01,3.7-8.08,6.73-3.3,10.3-3.96,13.13-1.76,6.87,0,9.29,7.1,10.62,10.98,10.08,10.09-1.83,12.64.03,3.64,1.51,5.85.96,10.35.31,12.66.44,4.73,2.81,7.16,2.53,6.1-.13,9.03-.61,4.1-1.78,5.94-4.93,3.73-11.07,1.82-16.73-5.63-10.67-6.92-12.12-3-4.69-3.76-7.76-1.23-14.23-1.23-14.23c.15-3.55-.7-7.28-1.82-9.21s-4.08-4.75-6.98-3.4-8.99,1.78-8.99,1.78Z"/><path class="cls-21" d="m300.38,246.12c-.4-.08-15.38-8.24-15.95-5.9s-4.05,4.35-2.85,6.04-.42,8.01,9.07,9.32c7.22,1,9.73-9.46,9.73-9.46Z"/><path class="cls-21" d="m324.52,245.13c-1.43-.7-8.87.59-9.67,1s-5.5,3.46-1.24,7.47c3.51,3.3,7.75,4.19,11.81.99s5.67-4.22,2.8-6.7-3.7-2.75-3.7-2.75Z"/><path class="cls-21" d="m303.96,201.59c.86-.32-.26-3.33-8.3-.34s-16.84,3.73-23.5,14.57-13.55,28.34-16.74,33.37-15.48,13.37-22.55,14.6-14.09,4.71-17.45,11.81c-3.35,7.1-11.87,15.77-3.43,24.79,8.44,9.02,3.11,12.24,15.47,10.15,12.37-2.1,11.4-2.7,17.94-5.07s9.58-1.8,8.79-8.87-4.06-17.25,0-24.04,11.16-1.13,12-6.79c.84-5.66.46-8.28,1.64-16.58s5.59-9.79,10.4-12.57,6.32-3.24,9.95-5.99c3.98-3,7.47-10.42,7.47-10.42,0,0,3.03-6.13,8.02-6.83,5.76-.8,8.19-2.46,9.59-2.35,7.47.59,8.9,12.09,7.57,15.46-1.8,4.55,2.05,13.62,7.37,21.4,5.9,8.64,5.6,10.57,4.06,17.13s-1,10.8.8,20.91c1.8,10.11,2.41,11.97-.8,20.63s-7.83,11.43-2.61,14.9,8.69,4.06,15.14-.53c2.9-2.07,4.54-3.6,7.66-4.98,4.82-2.12,4.62,3.52,10.95,3.64s19.24-1.43,13.74-16.44-9.32-18.46-10.42-19.21-1.73-.73-4.18-6.55.76-13.86.76-13.86c0,0,1.61,2.95.1-4.19s-2.78-19.09-8.68-24.89-18.58-9.81-17.61-16.48.81-10-6.14-15.65c-6.95-5.65-13.41-4.61-17.71-3.64s-6.06.15-6.06.15"/><path class="cls-18" d="m315.07,211.28c4.16,1.04,5.45,4.2,5.64,7.99.11,2.26.77,3.96,2.2,5.88,2.44,3.3,3.07,7.56,4.57,12.47-2.09-2.5-2.39-4.68-3.23-6.61-.34-.78-.72-1.71-1.8-1.44-1.03.26-1.16,1.26-1.03,2.09.52,3.25.94,6.55,2.8,9.38,1.39,2.1,2.79,2.92,4.17-.51-1.02,7.14,5.67,11.65,5.29,18.42-.3,5.2-.02,10.44-.36,15.64-.25,3.75,1.23,7.07,2.55,10.18,3.38,7.98,1.63,15.26-1.6,22.6-.64,1.45-1.27,2.9-1.81,4.38-1.19,3.22-1.93,6.38,1.33,8.98,2.92,2.32,7.1,2.57,10.62.43,1.35-.82,2.75-1.68,3.82-2.81,3.79-4,7.99-3.23,12.35-1.32,5.28,2.31,8.85,1.45,13.67-3.34,3.24-3.22,4.14-8.54,2.14-12.93-.44-.97-.91-2.37-2.12-2.19-1.16.18-1.3,1.66-1.46,2.7-.34,2.24-.52,4.5-1,6.73.34-4.07-1.22-8.27.88-12.23.5-.94,0-1.93-.51-2.77-2.02-3.34-3.99-6.68-6.85-9.45-4.67-4.52-6.15-10.26-4.64-16.4,1.93-7.83,2.7-15.38-1.52-22.72-1.13-1.96-2.51-2.85-4.88-3.61-6.29-2.04-10.96-6.73-14.5-12.24-1.99-3.09-3.07-6.39-2.65-10.61.92-9.22-8.44-18.91-17.63-19.33-6.82-.31-8.55.02-15.53,2.95,1.18-1.73,4.4-3.81,7.99-4.69,6.37-1.56,12.6-1.11,18.33,2.35,4.5,2.71,6.32,7.61,7.81,12.06,2.95,8.79,8.21,15.25,14.97,21.5,8.62,7.97,12.81,18.48,10.25,30.72-.35,1.67-.67,3.35-1.12,5-1.43,5.19-.36,9.63,3.66,13.32,3.8,3.48,6.92,7.53,9.84,11.77,3.28,4.77,4.36,10.06,3.57,15.69-.77,5.55-5.06,8.54-9.54,10.2-4.62,1.71-9.85,1.81-14.37-1.2-1.79-1.19-3.16-.97-4.52.44-1.71,1.76-3.62,3.06-5.95,4.05-3.91,1.68-4.28,4-2.17,8.83,3.07,7.04,6.55,14,7.83,21.64,2.9,17.32,5.26,34.73,8.28,52.03,2.19,12.55,1.96,25.28,3.53,37.86,1.11,8.91,3.85,17.37,6.38,25.9,6.01,20.26,10.65,40.83,14.43,61.61.82,4.49,1.89,9.11-1.22,13.41-1.06,1.47-.43,3.58-.48,5.4-.08,2.44-.02,4.9-1.28,7.12.15-2.67.3-5.35.45-8.02.11-1.87-.21-3-2.42-1.71-1.99,1.16-4.09,2.14-6.13,3.22-.86.46-1.85.95-1.79,2.09.15,2.67.41,5.34.68,8,.06.59.26,1.29,1,1.29.75,0,.96-.69,1.02-1.3.18-1.91.29-3.82,1.71-6.36-1.24,8.94-4.12,16.9-1.87,25.19.31,1.14.03,3,1.3,3.13,1.81.19,1.05-1.79,1.36-2.81.35-1.15.34-2.4.57-3.59,1.23-6.43,1.54-13.06,4.15-19.19-1.28,8.07-2.22,16.19-2.89,24.33-.03.36.01.8-.17,1.08-4.76,7.24-.69,14.54.28,21.63.69,5.09,2.58,10.14,3.73,15.26,1.48,6.61,4.42,12.66,6.84,18.91,1.4,3.61.91,6.4-2.23,9.07-5.5,4.68-11.17,9.16-17.39,12.72-7.19,4.11-11.83,10.39-16.41,16.87-.69.97-.97,2.27-2.49,2.96-.81-2.27,1.2-4.12.74-6.24-.81-3.69-1.42-7.43-2.15-11.14-.58-2.94-2.77-3.15-5.07-2.74-4.34.77-8.49,2.27-12.42,4.24-4.63,2.33-9.34,4.2-14.57,4.37-1.79.06-2.63,1.01-3.02,2.6-3.94,15.86-8.4,31.6-10.66,47.84-.74,5.31-1.91,10.56-2.86,15.84-1.02,5.63,1.14,9.56,6.42,11.98,3.21,1.47,6.41,2.99,9.51,4.66,2.03,1.09,3.65,2.77,2.9,5.33-.72,2.45-2.88,3.07-5.18,3.32-2.9.31-5.16-1.25-7.5-2.51-3.65-1.98-6.87-3.67-11.68-2.67-8.4,1.76-9.81-.49-6.19-8.43,1.54-3.39.95-6.54.67-9.95-.57-6.73.79-13.37,1.68-20.02,2.04-15.35,4.04-30.7,6.09-46.05.33-2.43-.54-3.63-3.01-3.94-2.17-.27-4.3-.84-6.43-1.35-4.69-1.13-4.73-1.12-6.13,3.4-3.35,10.85-5.8,21.93-8.07,33.03-2.98,14.56-6.53,29.01-8.79,43.72-.88,5.71-2.39,6.97-8.07,7.43-6.21.51-12.34,1.45-18.33,3.2-.47.14-.93.35-1.41.38-1.39.08-3.28.96-3.96-.72-.76-1.9,1.42-2.28,2.55-2.92,5.08-2.86,9.13-7.34,14.84-9.21,1.69-.56,1.92-2.44,2.19-3.99,2.27-13.1,4.55-26.2,6.69-39.33.92-5.66,1.47-11.37,2.26-17.05.26-1.9-.36-2.9-2.22-3.52-5.44-1.82-10.41-4.69-15.55-7.2-5.85-2.86-12.37-3.54-18.73-4.49-5.28-.8-10.65-1.05-15.97-1.65-4.17-.47-5.36-2-5.44-6.24-.21-10.89.99-21.68,2.14-32.48.6-5.58.55-11.24.6-16.81.12-12.47,1.63-24.84,1.9-37.3.25-11.18-.33-22.48,1.99-33.56.5-2.39,1.13-4.75,1.81-7.09.54-1.87.57-3.65-.65-5.23-1.21-1.58-1.43-3.39-1.25-5.22,1.85-19.09.94-38.32,2.89-57.41.37-3.64.85-7.33.66-10.96-.76-14.5,2.58-28.31,6.17-42.18,4.49-17.36,8.84-34.76,13.71-52.02,3-10.6,6.04-21.35,11.92-30.61,3.89-6.13,2.76-13.05,5.58-19.16,1.13-2.44-.99-3.64-4.11-2.4-2.88,1.14-5.74,1.91-7.97-.94-1.18-1.5-1.92-3.38-2.67-5.17-2.08-4.93.26-13.81,4.61-17.33-2.83,3.37-3.21,7.52-3.78,11.6-.62,4.42,1.41,7.82,4.31,10.81,1.71,1.76,3.36.54,4.93-.4,1.73-1.03,1.82-2.37.81-4.02-1.6-2.61-1.28-5.31-.09-8.04.2,2.42-.44,4.95,1.19,7.11.75,1,1.41,2.16,2.88,1.71,1.24-.38,1.41-1.57,1.52-2.69.48-4.92-.48-9.74-1.11-14.57-.41-3.16-.76-6.3-.61-9.49.31-6.85,5.8-14.07,12.47-15.93,2.91-.81,3.22-2.95,3.69-5.24.78-3.79.73-7.76,2.99-11.21,2.87-4.37,6.89-7.26,11.52-9.27,7.22-3.13,13.12-7.46,15.6-15.36.07-.23.14-.49.28-.67,2.75-3.6,7.21-5.63,8.24-10.8.34.27.68.54,1.03.82-.23,1.14-.47,2.27-.75,3.66,3.39.05,6.73-1.45,10.03-.15-2.17.24-4.64-.1-6.46.84-4,2.07-9.61,1.61-11.68,6.87-1.22,3.1-2.72,6.02-4.8,8.59-1.76,2.18-1.01,3.01,1.36,3.74,2.06.64,4.45.37,6.15,2.06.91.9,2.55,1.78,1.41,3.24-1.1,1.41-2.33-.03-3.07-.77-3.7-3.69-8.69-3.59-12.65-2.45-7.58,2.18-13.67,6.98-16.04,15.16-1.32,4.56-1.22,9.45-3.13,13.89-.36.85.04,1.68.43,2.45,2.52,5.03,6.25,8.41,12.11,8.72,4.39.23,8.75.54,12.98,1.88,2.08.66,3.22-.36,3.67-2.4.2-.9-.07-2.01,1.32-2.74.05,2.3,1.04,3.69,3.4,3.85,4.53.29,8.85,1.09,12.79,3.76,2.03,1.38,4.7.95,6.16-1.31,1.55-2.39-.08-4.01-1.95-5.49-4.44-3.53-6.64-8.47-7.34-13.88-.47-3.59.3-7.35,2.06-10.65,1.38-2.58,4.48-1.29,6.53-2.5.2-.12.46-.14.7-.2,1.37-.36,2.67-.9,2.5-2.62-.17-1.7-.83-3.05-2.95-2.98-2.62.08-2.5-1.31-.96-2.55,2.02-1.62,2.21-3.61,2.13-5.88-.1-2.68-.17-5.38-.11-8.06.09-4.27-1.05-7.95-4.61-10.61Zm-66.91,179.57c-4.64,18.5-7.21,36.89-11.5,54.94-2.9,12.2-5.76,24.53-5.03,37.25.31,5.37.46,10.73.64,16.1.45,13.44-.52,26.84-.77,40.26-.02.96,0,2.15-.51,2.82-1.56,2.02-.93,3.87-.05,5.82,1.79,3.96,2.11,8.24,2.66,12.47.5,3.8-2.67,3.87-4.81,4.78-2.35.99-2.78-1.29-3.54-2.7-.51-.95-.97-2.03-1.1-3.09-.65-5.36-2.49-10.44-3.49-15.72-.24-1.25-.58-2.44.09-4.33,1.51,5.86,2.39,11.2,5.04,16.02.75-4.69-1.63-9.11-1.13-13.85.97.63.88,1.54,1.08,2.35,1.17,4.74,2.35,9.47,3.53,14.2.21.83.41,1.91,1.47,1.78,1.44-.19.98-1.42.86-2.34-.6-4.77-2.29-9.23-4.01-13.66-1.3-3.34-1.05-6.74.82-9.46,1.44-2.1,1.22-4.1,1.37-6.22.09-1.27-.52-2.1-1.73-1.2-3.73,2.75-7.81,2.17-11.96,1.63-1.26-.16-3.16-.54-3.2,1.36-.08,3.66.13,7.75,2.85,10.25,1.89,1.73,2.36,3.35,2.71,5.53.93,5.86.79,12,4.26,17.25.47.72,1.48,1.77.16,2.48-1.33.72-2.66-.12-2.88-1.37-1.16-6.51-5.24-12.1-5.74-18.82-.19-2.58-.67-5.22-2.37-7.94-1.89,3.46-2.17,6.79-2.24,10.16-.24,13.31-.39,26.62-.73,39.93-.56,21.84-1.42,43.66-2.86,65.46-.7,10.55-1.6,8.79,9.65,10.11,11.36,1.34,22.68,2.3,33.13,7.78,4.07,2.14,8.77,3.61,12.81,5.53,5.52,2.63,4.62-.69,4.97-3.22.91-6.53,2.66-12.94,3.4-19.46,2.36-21.01,7.48-41.55,10.21-62.48,1.58-12.09,3.18-24.19,4.51-36.31.78-7.15.67-14.41,1.62-21.53,2.11-15.81,1.78-31.68,1.84-47.55,0-1.35.21-3.21-.82-3.81-3.11-1.82-2.36-4.34-1.86-6.96.09-.47.04-.98,0-1.46-.11-1.15-.41-2.32-1.77-2.41-1.58-.1-1.57,1.25-1.65,2.33-.11,1.46-.09,2.93-.19,4.39-.06.93-.45,1.7-1.51,1.73-1.11.03-1.43-.77-1.51-1.69-.1-1.09.17-2.34-.27-3.26-3.1-6.39-1.91-12.79-.32-19.22.3-1.2.47-2.3-.12-3.54-2.75-5.78-3.99-12.06-5.13-18.26-1.75-9.58-1.97-19.41-4.34-28.93-.77-3.08-.09-6.2,1.85-8.71,2.31-2.97,1.81-5.62-.28-8.28-2.07-2.65-2.64-5.62-2.52-8.93.55-15.19-1.91-30.17-3.09-45.25-.23-2.93-1.57-4.88-4.33-5.66-3.02-.85-5.94-3.19-9.28-.92-4.86-2.58-5.14,1.89-6.34,4.37-4.21,8.71-7.08,17.91-9.69,27.21-4.78,17.04-9.16,34.17-13.09,51.42-1.49,6.54-3.96,12.9-4.94,19.5-2.61,17.65-2.67,35.52-3.52,53.31-.58,12.06-.87,24.15-1.78,36.19-.43,5.69.68,7.2,6.4,7.61,1.81.13,3.75.31,5.45-.17,2.89-.82,6.33-1.77,6.37-5.55.06-6.46-.61-12.93-.56-19.39.08-9.39-1.4-18.73-.56-28.15,1.34-15.09,7-29.33,7.64-44.69.5-11.94,3.14-23.93,5.86-35.72.44-1.9.83-3.82,2.37-6.1.21,2.83-.64,5.92,3.51,3.99Zm45.96,92.12c0-3.1.03-5.23,0-7.35-.02-1.4-.19-2.77-2.07-2.83-1.69-.05-2.19,1.07-2.65,2.47-1.02,3.04-.02,6.04-.05,9.05-.17,16.6.77,33.22-.93,49.79-1.1,10.68-1.18,21.43-2.77,32.08-2.04,13.63-3.05,27.42-5.71,40.95-3.23,16.41-5.9,32.89-8.35,49.42-.43,2.87.3,3.8,3.09,3.64,2.06-.12,4.36-.49,6.16.24,6.21,2.53,12.78,2.81,19.24,3.88,15.63,2.59,29.6-.99,42.16-10.51.08.96-1.96,1.86-.42,2.98,1.04.76,2.43.71,3.5.11,2.05-1.14.82-2.84.26-4.16-1.71-4.05-3.34-8.09-3.92-12.51-1.27-9.71-1.99-19.42-.74-29.18.55-4.32-.97-9.32.46-12.83,2.76-6.79.25-13.53,1.75-20.1.14-.62-.09-1.65-.54-2.03-2.84-2.43-1.75-4.88-.35-7.5.55-1.03.81-2.32.86-3.51.23-6.35.06-12.69-1.01-18.98-1.66-9.72-3.7-19.4-4.71-29.19-1.06-10.31-1.13-20.72-1.59-31.08-.31-6.96-1.12-13.87-2.32-20.72-.24-1.34-.19-3.42-2.05-3.42-2.02,0-4.8.55-5.17,2.69-.57,3.26-2.37,6.11-2.65,9.39-.12,1.37.09,2.46-2.15,2.36-1.84-.08-2.36-.28-2.14-2.07.13-1.04-.24-1.98-1.52-2.07-1.32-.1-2.05.64-2.31,1.86-.23,1.07-.37,2.16-.57,3.24-.6,3.16-.75,6.43-2.24,9.95-.5-2.93,1.32-5.46-.41-7.66-1.08-1.37-1.31-2.79-1.22-4.44.06-1.12.63-2.68-1.24-2.89-1.66-.18-3.25.22-3.8,2.09-.34,1.16-.34,2.41-.57,3.61-.6,3.03-.44,6.24-2.15,9.11-.13-3.31-1.51-6.32-1.81-9.54-.15-1.53-.4-3.09-2.31-3.18-1.73-.08-1.51,1.6-1.95,2.64-.74,1.74-.75,3.81-3.05,6.2Zm49.73-105.37c1.81,4.96,3.23,9.95,3.16,15.25-.13,9.29.48,18.46,2.85,27.56,1.78,6.82,2.7,13.88,3.7,20.88,2.2,15.33,4.22,30.69,6.3,46.04,1.7,12.56,5.09,24.83,5.77,37.59.38,7.02,2.23,13.96,3.36,20.95.41,2.54,1.62,3,3.81,1.88,9.66-4.91,10.15-7.21,8.59-15.94-3.55-19.84-7.96-39.46-13.66-58.8-3.73-12.64-7.82-25.24-8.19-38.56-.35-12.86-2.27-25.51-4.14-38.18-1.94-13.15-3.92-26.3-5.87-39.45-1.35-9.05-5.04-17.3-8.62-25.59-1.21-2.8-3.1-3.03-5.62-1.68-4.23,2.27-5.05,6.5-4.79,10.39.65,9.72,1.85,19.43,3.19,29.09,1.77,12.78,3.1,25.49-1.42,38-.77,2.12-.36,4.1.54,6.03,3.89,8.25,5.88,16.89,6.74,26.03,1.35,14.41,1.71,28.77.18,43.13-.74,6.94-1.55,13.8-.75,20.79.77,6.76.77,6.88,7,4.84.12-.04.22-.1.34-.14.58-.2,1.25-.46,1.61.22.36.67-.13,1.21-.7,1.46-1.33.57-2.68,1.28-4.08,1.51-2.44.4-3.3,1.51-2.91,4.01.64,4.1.95,8.24,1.53,12.35,1.24,8.82,3.25,17.59,3.71,26.44,1.11,21.36-.31,42.67-2.38,63.97-1.05,10.85-.19,21.7,3.61,32.11,2.27,6.23,3.72,12.63,4.07,19.27.05,1.02-.47,2.47.93,2.84,1.06.29,1.63-.94,2.18-1.68,4.06-5.45,8.94-9.9,14.85-13.34,4.63-2.69,9.01-5.83,13.06-9.36,6.89-6,5.73-4.65,3.06-11.45-.58-1.48-1.31-2.9-1.82-4.4-4.42-13.07-8.75-26.16-9.94-40.05-.15-1.82-.53-3.62-.87-5.41-.16-.82-.33-1.98-1.29-1.99-1.41,0-1.09,1.34-1.18,2.24-.5,5.2-.97,10.4-1.45,15.59-.28-1.84-.15-3.65.03-5.46.65-6.29,1.3-12.58,2.05-18.86.81-6.74-3.63-13.13-1.94-20.12.21-.88-.55-2.1-1.08-3.03-.56-.99-.93-1.98-.91-3.11.22-12.16-3.37-23.87-4.25-35.93-.67-9.21-3.25-18.25-4.41-27.45-2.55-20.09-5.29-40.15-8.53-60.14-2.16-13.36-4.64-26.69-8.44-39.72-.27-.92-.79-1.92-.09-3.49.48,1.45.7,2.4,1.1,3.25.57,1.23.56,3.46,2.5,2.98,1.83-.45,1.11-2.49.96-3.84-.37-3.19-.95-6.36-1.45-9.54Zm-72.06,25.68c2.03,7.37,2.48,15.66,3.26,23.91.46,4.86.81,9.73,2.43,14.39.31.89.55,2.01,1.74,2.11,1.26.11,1.49-1.04,1.91-1.89,3.06-6.2,4.61-12.82,5.36-19.66,1.2-10.9.14-21.67-4.48-31.52-7.25-15.45-7.41-30.97-2.87-47,.83-2.91,4.33-5.68,2.26-8.64-1.82-2.6-5.81-2.04-8.83-2.86-5.29-1.42-7.07.29-6.13,5.78,1.65,9.63,2.84,19.3,3.05,29.07.17,7.93-.19,15.9,5.28,22.59,1.79,2.2,1.34,4.45-.29,6.7-1.36,1.86-2.58,3.87-2.7,7.03Zm8.33-76.18c1.52-4.01,1.84-8.25,2.24-12.44.25-2.59.43-5.66-3.82-3.51-.57-2.28,1.25-4.29-.1-6.35-1.58.64-1.64,2.14-2.08,3.3-2.14,5.56-1.96,11.49-2.75,17.27-.64,4.63-.66,4.85,4,5.7.84.15,1.66.36,2.49.57,4.96,1.22,6.75.54,8.43-4.22,3.3-9.3,4.27-18.9,3.93-28.81-.23-6.85-3.74-12.87-3.8-19.65-.02-1.9-1.42-2.72-3.16-2.95-1.97-.25-4.14-.49-5.28,1.49-3.26,5.65-3.3,11.84-2.33,18.04.17,1.11.51,3.27,2.59,2.94,1.72-.28,2.21-1.92,2.26-3.39.12-3.89.04-7.79.04-11.68.86,4-.13,8.34,1.12,11.9,1.51,4.33.59,8.04-.02,12.07-.62,4.09-2.28,8.7-1.06,12.23,1.44,4.17-.98,5.32-2.69,7.48Zm56.52,123.89c.77,7.25-.22,14.16.86,21.96.6-1.31.84-1.61.87-1.93,1.62-19.23,1.56-38.27-7.38-56.08-1.66-3.31-1.85-6.28-.71-9.79,1.92-5.91,3.76-11.92,3.13-18.28-1.03-10.44-2.15-20.86-3.29-31.29-.16-1.47.34-3.76-1.66-3.97-2.15-.23-1.66,2.27-2.31,3.57-.21.43-.2.95-.35,1.42-2.13,6.5-1.23,13.33-2.22,19.96-1.43,9.65-.93,19.33,1.82,28.65,1.58,5.35,2.14,10.69,2.79,16.13.45,3.73.18,8.03,3.36,10.83,1.67,1.47,2.32,2.95,2.35,5.01.06,4.52.17,9.03.3,13.55.02.69-.05,1.71.79,1.83.4.06.94-.85,1.66-1.57Zm-41.45,5.52c8.78-.54,17.47.93,26.23,1.19,4.49.13,5.7-.87,6.18-5.26.21-1.93.2-3.9.21-5.85.03-5.28-1.03-6.05-6.28-5.65-4.86.37-9.51,1.85-14.43,1.97-7.55.19-14.81,2.44-22.18,3.91-2.49.5-4.35,4.37-3.81,7.38.54,3.06,3.05,2.2,4.96,2.27,3.04.11,6.08.03,9.12.03Zm31.81-27.97c-.51-3.27-.93-6.29-1.46-9.29-.25-1.4-.2-3.37-1.69-3.79-1.73-.49-2.55,1.43-3.6,2.56-.67.73-.58,2.48-2.08,2.05-1.13-.32-1.42-1.58-1.46-2.73-.1-3.16-1.91-3.62-4.47-2.84-3.01.92-6.22,1.1-9.17,1.97-3.61,1.07-7.57,2.37-9.9,5.6-2.27,3.14-3.86,6.77-5.7,10.21-.57,1.07-1.19,2.27-.24,3.41.78.94,1.97.88,3.07.73,10.57-1.46,21.05-3.58,31.74-4.11.84-.04,1.67-.31,2.5-.51,1.85-.45,2.56-1.71,2.46-3.27Zm-14.75-68.29c-6.11-.55-11.48.38-16.23,3.98-1.46,1.11-3.26,1.57-5.11,1.79-2.91.34-5.69,1.15-8.39,2.34-4.31,1.91-4.71,2.54-3.61,6.83,1.09,4.23,2.3,5.2,6.82,4.43,7.54-1.29,15.08-2.65,22.51-4.42,4.07-.97,8.35-1.74,11.72-4.71,2.44-2.16,2.47-5.02,2.08-7.74-.4-2.77-3.13-2.21-5.06-2.44-1.68-.21-3.4-.04-4.74-.04Zm-47.7,320.02c-1.67-.41-2.1,1.09-2.29,2.81-1.02,9.46-2.08,18.93-3.01,28.4-.37,3.75,1.78,5.12,5.25,3.61,2.04-.89,3.27-2.33,3.8-4.56,2.97-12.45,6.01-24.89,9.06-37.32.67-2.73,1.46-5.42,2.19-8.13.37-1.38.51-2.56-1.2-3.32-3.89-1.72-7.86.11-8.58,4.25-.69,3.96-1.12,7.97-1.68,11.96-.24,1.68-.58,3.28-3.55,2.3Zm44.35-293.3c-7.1.26-13.79,2.54-20.63,4.1-2.15.49-2.63,1.93-2.18,3.86.89,3.79,1.71,7.59,2.77,11.33.6,2.1,1.84,3.62,4.24,1.78.72-.55,1.24-.85,2.25-.37,5.1,2.43,11.07.43,13.97-4.34,2.23-3.66,2.28-7.87,3.32-11.82,1.21-4.59.97-4.78-3.74-4.55Zm-16.03,329.13c.05,1.09-.63,3.48,2.02,3.65,2.1.13,4.01-.96,4.72-3.29.11-.35.17-.71.23-1.07,1.99-13.28,5.37-26.25,8.95-39.17,2.47-8.93,2.57-8.82-6.79-9.08-2.8-.08-3.7.87-4.06,3.67-1.08,8.46-1.2,17-2.7,25.43-1.13,6.34-1.55,12.81-2.37,19.87Zm-14.56-354.11c0,5.34.87,5.89,5.62,4.48,2.25-.67,4.23-1.8,6.23-2.95,3.07-1.77,6.29-3.49,9.8-3.77,6.85-.55,13.43-3.25,20.55-2.05,3.12.53,3.5-2.73,3.92-5.15.26-1.52-.09-2.78-1.87-2.88-5.08-.28-10.17-.5-15.25-.68-8.93-.32-16.75,3.31-24.65,6.81-3.04,1.35-4.83,3.2-4.35,6.19Zm32.59-64.6c.42-6.13-.31-11.07-1.49-15.95-.49-2.02-1.55-3.65-4.08-3.24-2.28.36-2.9,1.94-2.9,3.98,0,.73-.05,1.47-.01,2.2.68,14.58,2.23,29.17-.66,43.7-.27,1.35,0,2.77,1.58,3.33,1.8.64,3.4.14,4.61-1.29,1.48-1.74,1.88-3.94,2.25-6.11,1.58-9.19,1.73-18.43.7-26.62Zm7.19,27.51c1.14,1.38-.86,3.66,1.17,3.95,1.67.23,1.88-2.18,2.49-3.59.05-.11.06-.24.09-.36,2.4-9.48,1.53-18.88-1.69-27.91-1.54-4.34-2.84-8.5-2.63-13.11.13-2.95-1.54-4.4-4.34-4.04-3.11.4-2.1,2.81-1.66,4.58,1.41,5.61,2.03,11.31,1.79,17.06-.32,7.57,1.26,15.1.22,22.67-.14,1.02-.3,2.39.99,2.89,1.2.47,2.04-.48,2.82-1.26.34-.34.62-.73.75-.89Zm-5.72-71.69c-1.44,1.28-1.7,3.01-1.29,4.66,1.21,4.86,2.63,9.68,7.05,12.78,1.03.72,1.85,1.57,2.29,2.76.64,1.71,1.23,4.07,3.54,3.25,2.86-1.01,6.94-.62,7.7-4.94.96-5.46.9-10.87-.97-16.18-.69-1.96-1.58-2.46-3.48-1.2-6.85,4.5-9.4,4.27-14.84-1.12Zm-45.83,467.14c.27-1.83.35-3.09-.63-3.09-2.4.01-4.89.13-7.17.82-1.42.43-1.37,2.42-1.61,3.85-.99,5.77-2.04,11.53-2.89,17.31-.34,2.27-1.13,3.79-3.47,4.56-3.27,1.08-6.06,3.07-8.61,5.38-.61.55-1.69.95-1.2,1.97.36.76,1.28.48,1.99.32,5.12-1.17,10.34-1.58,15.56-1.95,1.68-.12,2.94-.65,2.44-2.69-.55-2.25.19-4.38.67-6.48,1.63-7,3.42-13.96,4.91-20Zm45.55,36.54c1.28-.04,2.54-.04,2.99-1.23.53-1.4-.8-1.83-1.68-2.42-4.68-3.12-11.07-3.4-14.45-8.72-.19-.3-.92-.49-1.3-.39-3.25.85-2.86-1.32-2.51-3.16,1.05-5.63,2.2-11.25,3.35-16.86.51-2.49.05-3.16-2.76-2.53-3.04.68-4.38,1.96-4.39,5.06,0,2.43-.32,4.86-.62,7.28-.6,4.88.85,9.97-1.79,14.66-.97,1.72-.06,3.09,2.07,3.2,1.81.09,3.66.34,5.23-.99,1.19-1.01,2.39-.85,3.69-.04,1.85,1.17,3.78,2.2,5.68,3.28,2.11,1.2,4.19,2.49,6.5,2.86Zm11.37-294.14c-3.16,2.92-6.58,3.55-10.13,3.59-10.35.1-20.7.08-30.9-2.16-1.25-.27-2.8-.88-3.52.82-.61,1.46.5,2.23,1.63,2.82,6.23,3.28,13.12,3.8,19.84,3.68,5.51-.09,11.02-1.48,16.62-1.65,5.24-.16,5.75-.9,6.45-7.1Zm-60.79-145.28c.29-3.25-.13-5.65-.93-7.97-.41-1.18-1.2-2.25-2.55-2.36-1.36-.11-2.13.87-2.85,1.95-1.99,2.98-2.29,6.65-4.05,9.72-.57.99-.28,2.17.45,3.1,1.83,2.34,4.36,3.21,7.14,2.69,2.61-.49,2.57-2.92,2.77-4.98.09-.97.02-1.95.02-2.15Zm-2.62-39c.1.84.1,1.71.33,2.51.37,1.25.57,2.87,2.24,2.95,1.69.09,2.03-1.51,2.44-2.74.85-2.54,1.8-4.99,3.52-7.13,1.42-1.78.1-3.2-1.13-4.41-1.29-1.27-2.44-.48-3.47.5-2.35,2.26-4.05,4.84-3.93,8.31Zm57.06-23.01c3.51,1.38,8.57-.25,10.62-2.64,1.36-1.58-.44-2.87-1.65-4.61-1.88-2.68-4.44-1.78-7.19-2.07s-11.78,5.93-1.77,9.32Zm3.76,91.45c-9.34-2.6-14.5-2.66-17.09-.04,5.64-.32,10.75,2.16,17.09.04Zm-.02,40.76c-.26-1.04.06-2.69-1.8-2.88-1.26-.13-2.23.63-1.97,1.95.27,1.39.72,3.05,2.41,3.25,1.3.16,1.27-1.16,1.36-2.33Zm-32.2,1.13c3.34.07,5.71-.4,7.97-2.33-3.35-1.51-5.29.49-7.97,2.33Zm-20.8-101.85c2.08-1.4,2.46-2.73,2.28-4.31-.06-.5-.6-.97-1.01-.74-1.71.96-1,2.63-1.27,5.05Zm24.46,156.65c-1.79-.55-3.44-.25-5.55,1.15,2.43.39,4.09.39,5.55-1.15Z"/><path class="cls-18" d="m227.48,310.53c-13.88,2.44-17.37-4.49-18.73-16.65-1.15-10.21,4.56-24.25,17.06-28.87,5.37-1.98,10.56-4.52,16.19-5.66,3.76-.76,6.39-2.76,8.48-5.81,5.94-8.69,11.02-17.85,15.13-27.54,4.1-9.66,10.54-17.32,19.63-22.42,4.4-2.47,9.49-3.28,14.59-3.21-15.3,2.57-25.57,11.52-31.97,25.3-4.58,9.87-9.61,19.46-15.61,28.54-2.36,3.57-5.44,5.64-9.57,6.72-8.02,2.09-16.13,4.33-22.66,9.73-7.33,6.05-9.51,14.46-9.19,23.63.07,2.05.72,4.08,1.2,6.1,1.69,7.06,5.68,9.85,15.47,10.15Z"/><path class="cls-18" d="m336.26,239.06c8.54,7.19,16.87,14.54,14.04,27.51.52-11.84-7.07-19.49-14.04-27.51Z"/><path class="cls-18" d="m224.5,301.98c-5.69-5.42-3.71-15.08,7.15-26.38-4.59,8.19-12.81,15.43-7.15,26.38Z"/><path class="cls-18" d="m367.38,307.26c1.84-9.77-3.74-15.41-8.81-21.33,6.51,2.63,11.84,14.44,8.81,21.33Z"/><path class="cls-18" d="m337.99,313.79c1.62-4.13,2.23-8.55,3.57-12.76.54,4.71.08,9.16-3.57,12.76Z"/><path class="cls-18" d="m362.7,300.94c2.2,4.47.15,8.51-1.54,12.59.02-4.22,2.02-8.25,1.54-12.59Z"/><path class="cls-18" d="m352.78,296.39c1.29,4.77,1.21,9.49-1.44,13.93,1.34-4.55,1.57-9.19,1.44-13.93Z"/><path class="cls-18" d="m347.09,306.56c-.35-5.23.39-10.62-2.29-15.57,3.39,4.8,3.3,10.11,2.29,15.57Z"/><path class="cls-18" d="m279.45,218.39c1.32-4.03,2.97-7.89,7.07-10.03-3.01,2.88-5.39,6.19-7.07,10.03Z"/><path class="cls-18" d="m302.57,206.88c1.1-2.56,2.41-4.84,5.76-4.53-1.92,1.51-3.84,3.02-5.76,4.53Z"/><path class="cls-18" d="m359.79,298.69v10.52c-.1,0-.2.01-.3.02v-10.34c.1-.07.2-.14.3-.2Z"/><path class="cls-18" d="m267.39,239.25c-1.32,3.31-2.65,6.63-3.97,9.94.36-3.71,1.8-6.98,3.97-9.94Z"/><path class="cls-18" d="m286.44,223.41c1.94-2.26,3.88-4.51,5.83-6.77-1.26,2.86-3.23,5.09-5.83,6.77Z"/><path class="cls-18" d="m355.03,259.35c-.09-1.76-.18-3.52-.29-5.75,1.19,2.11,1.15,3.89.29,5.75Z"/><path class="cls-18" d="m279.43,524.28c1.96,1.88,1.55,3.96.44,5.84-.99,1.68-2.81,1.77-4.55,1.28-1.17-.33-1.78-1.27-1.72-2.49.03-.57.16-1.42.52-1.62,1.21-.67,1.18.82,1.79,1.25,1.39.95,2.23.38,2.75-1.04.37-.98-.33-2.18.75-3.23Z"/><path class="cls-18" d="m275.05,504.69c1.58.86,1.85,3.46,4.08,2.63,2.07-.77,1.24-2.55,1.35-4.13,2.02,1.29,1.89,3.14.93,4.79-1.21,2.08-3.35,1.92-5.19,1.09-1.76-.79-2.19-2.34-1.17-4.38Z"/><path class="cls-18" d="m277.89,487.47c-.03,4.21,1.43,5.34,4.56,2.84.62,2.05-.04,3.21-1.79,3.5-1.5.24-3.05-.2-3.89-1.5-.97-1.51-.76-3.08,1.11-4.84Z"/><path class="cls-18" d="m326.43,487.9v-11.84c1.21,3.88.72,7.84,0,11.84Z"/><path class="cls-18" d="m338.05,603.43c-1.34,4.2-3.31,7.8-6.21,10.87,2.07-3.62,4.14-7.25,6.21-10.87Z"/><path class="cls-18" d="m326.56,656.66c1.8-1.52,3.6-3.04,5.39-4.56-1.2,2.17-2.94,3.75-5.39,4.56Z"/><path class="cls-18" d="m300.38,246.12c-3.27-.98-10-4.11-12.67-4.48-2.33-.32-4.52.44-4.93,3.18-.52,3.41.53,6.29,3.67,8.11,3.49,2.02,7.49,1.72,10.19-.77.76-.7,1.41-1.5,2.51-2.67-1.7,4.44-4.82,6.51-8.5,6.09-4.66-.54-8.18-3.55-8.83-7.5-1.37-8.33,1.8-8.86,8.5-7.2,1.99.49,8.3,2.94,10.06,5.24Z"/><circle class="cls-18" cx="292.74" cy="246.26" r="2.92"/><circle class="cls-18" cx="318.54" cy="249.19" r="3.05"/></svg>