<?xml version="1.0" encoding="UTF-8"?><svg id="personnage16" xmlns="http://www.w3.org/2000/svg" xmlns:xlink="http://www.w3.org/1999/xlink" viewBox="0 0 1080 1080"><defs><style>.cls-1{fill:url(#Dégradé_sans_nom_4);}.cls-1,.cls-2,.cls-3,.cls-4,.cls-5,.cls-6,.cls-7,.cls-8,.cls-9,.cls-10,.cls-11,.cls-12,.cls-13,.cls-14,.cls-15,.cls-16,.cls-17,.cls-18{stroke-width:0px;}.cls-2{fill:url(#Dégradé_sans_nom_4-4);}.cls-3{fill:url(#Dégradé_sans_nom_4-6);}.cls-4{fill:url(#Dégradé_sans_nom_4-5);}.cls-5{fill:url(#Dégradé_sans_nom_4-2);}.cls-6{fill:url(#Dégradé_sans_nom_4-9);}.cls-7{fill:url(#Dégradé_sans_nom_4-3);}.cls-8{fill:url(#Dégradé_sans_nom_4-8);}.cls-9{fill:url(#Dégradé_sans_nom_4-7);}.cls-11{fill:#3b2f35;}.cls-12{fill:#beaa9a;}.cls-13{fill:url(#Dégradé_sans_nom_31);}.cls-14{fill:url(#Dégradé_sans_nom_33);}.cls-15{fill:url(#Dégradé_sans_nom_35);}.cls-16{fill:url(#Dégradé_sans_nom_32);}.cls-17{fill:url(#Dégradé_sans_nom_37);}.cls-18{fill:url(#Dégradé_sans_nom_34);}</style><radialGradient id="Dégradé_sans_nom_37" cx="448.93" cy="512.66" fx="448.93" fy="512.66" r="25.65" gradientUnits="userSpaceOnUse"><stop offset=".15" stop-color="#aeb9b0"/><stop offset=".7" stop-color="#3b2f35"/></radialGradient><linearGradient id="Dégradé_sans_nom_32" x1="554.02" y1="738.64" x2="438.39" y2="738.13" gradientUnits="userSpaceOnUse"><stop offset="0" stop-color="#3b2f35"/><stop offset=".34" stop-color="#aeb9b0"/></linearGradient><linearGradient id="Dégradé_sans_nom_4" x1="341.7" y1="691.45" x2="457.02" y2="691.45" gradientUnits="userSpaceOnUse"><stop offset="0" stop-color="#3b2f35"/><stop offset=".48" stop-color="#aeb9b0"/></linearGradient><linearGradient id="Dégradé_sans_nom_4-2" x1="337.09" y1="818.52" x2="449.82" y2="818.52" xlink:href="#Dégradé_sans_nom_4"/><linearGradient id="Dégradé_sans_nom_4-3" x1="352.19" y1="785.64" x2="522.23" y2="785.64" xlink:href="#Dégradé_sans_nom_4"/><linearGradient id="Dégradé_sans_nom_4-4" x1="392.71" y1="545.32" x2="495.75" y2="545.32" xlink:href="#Dégradé_sans_nom_4"/><linearGradient id="Dégradé_sans_nom_4-5" x1="409.57" y1="483.13" x2="475.07" y2="483.13" xlink:href="#Dégradé_sans_nom_4"/><linearGradient id="Dégradé_sans_nom_4-6" x1="446.23" y1="844.15" x2="482.85" y2="844.15" xlink:href="#Dégradé_sans_nom_4"/><linearGradient id="Dégradé_sans_nom_4-7" x1="408.74" y1="594.81" x2="445.99" y2="594.81" xlink:href="#Dégradé_sans_nom_4"/><linearGradient id="Dégradé_sans_nom_31" x1="490.43" y1="595.48" x2="460.24" y2="593.7" gradientUnits="userSpaceOnUse"><stop offset="0" stop-color="#3b2f35"/><stop offset=".99" stop-color="#aeb9b0"/></linearGradient><linearGradient id="Dégradé_sans_nom_33" x1="417.4" y1="497.88" x2="437.67" y2="497.88" gradientUnits="userSpaceOnUse"><stop offset="0" stop-color="#3b2f35"/><stop offset="1" stop-color="#aeb9b0"/></linearGradient><linearGradient id="Dégradé_sans_nom_34" x1="455.86" y1="500.15" x2="474.03" y2="500.15" gradientUnits="userSpaceOnUse"><stop offset="0" stop-color="#3b2f35"/><stop offset=".95" stop-color="#aeb9b0"/></linearGradient><linearGradient id="Dégradé_sans_nom_4-8" x1="389.9" y1="730.77" x2="401.29" y2="730.77" xlink:href="#Dégradé_sans_nom_4"/><linearGradient id="Dégradé_sans_nom_35" x1="455.79" y1="486.95" x2="468.16" y2="486.95" gradientUnits="userSpaceOnUse"><stop offset="0" stop-color="#3b2f35"/><stop offset=".97" stop-color="#aeb9b0"/></linearGradient><linearGradient id="Dégradé_sans_nom_4-9" x1="458.8" y1="520.16" x2="465.47" y2="520.16" xlink:href="#Dégradé_sans_nom_4"/></defs><path class="cls-17" d="m443.27,492.67c-.48.73-.48,8.73-.97,9.94s-2.18,8.73-1.94,12.37,2.42,7.03,5.33,6.55,6.3.73,8.49-1.21,4.36-5.58,3.39-7.27-4.61-8.24-5.58-11.88-.24-8-1.45-8.24-8.24-.73-8.24-.73"/><path class="cls-16" d="m454.57,872.92c1.04-1.68,1.93-3.14,1.06-5-.23-.5-.92-.96-.03-1.38.64-.3,1.16.09,1.49.63,1.37,2.34-1.41,7.8-4.08,7.92-.9.04-1.34.33-1.48,1.14-.42,2.53-2.86,5.24-1.35,7.4,1.44,2.06,4.65.95,7.11.8.71-.04,1.44-.13,2.12-.35,7.33-2.41,14.84-3.42,22.54-3.01.82.04,1.67-.11,2.49-.28,12.47-2.67,24.96-5.23,37.55-7.29,9.1-1.49,15.01-7.41,19.03-15.16,3.18-6.13,5.55-12.67,8.32-19.02,5.35-12.28,9.95-24.83,12.63-37.98,1.73-8.47,1.3-17.12,1.92-25.69,1.29-17.77,2.23-35.52.49-53.31-.74-7.6-.67-15.35-2.58-22.74-4.3-16.68-9.38-33.13-19.83-47.22-4.4-5.94-7.53-12.76-12.79-18.12-6.19-6.31-11.61-13.28-17.18-20.14-5.4-6.65-11.23-13.01-17.37-18.99-4.96-4.83-5.26-4.46-10.06.3-1.86,1.85-3.8,3.63-5.8,5.33-3.06,2.59-5.36,5.76-7.16,9.3-1.62,3.19-3.12,6.44-4.66,9.68-.41.87-.74,1.96-1.86,1.93-1.18-.03-1.37-1.17-1.6-2.09-.77-3-1.68-5.98-2.21-9.03-.85-4.91-2.87-9.34-5.18-13.66-.63-1.17-1.2-3.05-2.98-2.51-1.91.57-1.08,2.32-.89,3.69,1.75,12.28,4.99,24.33,5.51,36.79.04,1.07.16,2.16.41,3.2.26,1.14.7,2.37,2.01.75,1.66-2.06,2.22-.74,2.18.84-.04,1.79,1.11,4.28-2.17,4.76-1.25.18-.96,1.41-.94,2.37.14,6.09.29,12.19.37,18.28.02,1.52.1,2.66,1.94,3.28,2.2.74,1.6,2.93,1.62,4.66.02,1.06-.56,2.09-1.69,1.83-2.96-.69-2.47,1.53-2.56,3-.81,12.4-2,24.78-2.08,37.22-.04,6.21.13,12.42.3,18.63.03.9-.35,2.73,1.22,2.46,4.61-.78,3.64,2.75,3.92,5,.2,1.66.74,3.6-.68,5.13-.39.42-1.02.31-1.27-.07-1.12-1.77-.48-3.7-.36-5.57.07-1.07,1.46-2.57-.21-3.06-1.61-.47-1.83,1.49-2.34,2.6-.24.51-.18,1.17-.19,1.77-.15,8.84-.31,17.69-.44,26.53-.02,1.42.49,2.6,1.13,3.93,1.02,2.13,3.29,5.12.83,7.06-2.81,2.21-1.5,4.66-1.86,7.21.83-.19,1.09-.72,1.4-1.22,5.42-8.64,12.5-15.95,18.74-23.93,3-3.83,6.31-7.59,7.91-12.57,1.88-5.88,4.04-11.54,5.1-17.76,1.25-7.32,4.21-14.35,6.4-21.52.35-1.14.97-2.37-.12-3.78-2.02,2.07-2.94,4.3-3.3,6.84-.28,1.99-1.08,3.3-3.25,2.2,1.2-6.32,4.78-11.65,6.92-17.58,1.1-3.05,1.91-5.97,1.28-9.39-.62-3.35-.84-6.92.13-11.15,2.64,4.4.31,9.13,3.24,13.22,1.35-4.4,4.54-7.38,3.88-12.75,1.95,2.67,1.94,4.59,1.07,6.12-3.62,6.36-4.05,13.65-5.74,20.49-2.46,9.97-6.37,19.52-8.15,29.66-.68,3.87-1.46,7.72-3.08,11.37-1.57,3.56-1.34,3.75,2.64,3.51,16.55-1.01,30.71,10.1,33.68,26.43.77,4.22,1.84,4.68,5.09,1.74,3.01-2.74,6.05-5.42,9.46-7.63,5.08-3.29,7.99-8.09,9.77-13.71.35-1.09.65-2.19.98-3.29-.51,4.75-1.08,9.51-3.89,13.51-4.38,6.25-10.49,10.74-16.23,15.56-1.76,1.48-4.07,2.96-6.56,1.68-1.81-.93-3.06-.39-4.59.48-7.8,4.45-16,8.08-24.56,10.67-6.2,1.87-12.08,4.45-18.04,6.86-2.76,1.12-4.94,3.07-6.54,5.83-1.99,3.42-3.55,7.03-5.27,10.57-2.44,5.03.53,9.4,6.07,10.26,8.63,1.34,11.99,3.41,12.64,11.32.05.59.32,1.16.36,1.75.28,4.39,1.24,9.23-.81,12.99-2.17,3.95-4.91,7.88-8.42,11.03-1.52,1.37-3.11,1.95-5.15,2.01-5.6.18-8.78-3.68-11.98-7.23-2.3-2.55-3.79-5.83-6.6-8.5-.83,5.14.86,16.45,3.21,22.16Z"/><path class="cls-1" d="m396.35,719.7c2.46,1.04,4.07,3.07,5.9,4.84.72.7,1.19,2.28,2.39,1.71,1.21-.57.35-1.9.17-2.89-3.01-16.43-7.82-32.45-11.21-48.8-.66-3.15-1.37-6.29-2.05-9.44-.19-.9-.77-2.14.57-2.38,1.22-.22,1.32,1.07,1.5,2,.47,2.34.79,4.73,1.48,7,.97,3.14.92,6.62,2.45,9.57.43-.05.87-.1,1.3-.15v-21.66c2.02.58,1.86,1.66,1.84,2.53-.19,9.31.71,18.64-.62,27.92-.31,2.17.1,4.21.59,6.35,3.1,13.39,7.53,26.55,7.42,40.54,0,1,.49,2.11,1.03,2.99,4.94,8.03,10.44,15.68,15.92,23.34,4.93,6.9,9.85,13.88,12.96,21.79,2.09,5.3,3.85,9.79,11.01,8.89,2.08-.26,2.83-.54,3.39-2.35,1.64-5.31,2.18-10.76,2.14-16.27-.15-21.03-.39-42.05-.55-63.08-.03-4.18.03-8.34.38-12.53.97-11.77,1.63-23.57,2.45-35.36.91-12.96-1.34-25.75-2.36-38.58-.76-9.59-2.73-19.11-3.86-28.71-.34-2.92-1.81-3.12-3.84-1.5-1.88,1.49-3.54,3.21-4.67,5.37-3.32,6.34-6.84,12.58-8.88,19.52-.41,1.4-.48,3.93-2.04,3.74-1.86-.22-1.37-2.76-1.48-4.29-.88-12.65-8.74-21.01-17.49-28.83-.87-.77-2.05-1.19-3.11-1.75-.97-.51-1.97-.48-2.47.56-1.85,3.84-5.44,6.35-7.49,10.02-4.24,7.59-10,14.08-16.26,19.86-10.04,9.27-19.38,19.07-27.46,30.08-7.97,10.85-13.66,22.29-13.71,36.47-.03,9.79.54,19.55.39,29.33-.17,10.87.02,21.75.07,32.63,0,1.04-.28,2.37.83,2.93,1.22.62,1.88-.69,2.66-1.32,4.75-3.8,9.46-7.66,14.75-10.7,6.38-3.65,13.33-5.81,20.5-7.05,2.67-.46,4.95-.98,7.13-2.7,5.15-4.05,8.54-3.81,13.8.32,1.5,1.18,2.62,3.05,5.6,3.43-3.02-5.61-7.53-9.11-11.1-13.41Z"/><path class="cls-5" d="m364.46,863.55c-7.35-6.36-13.72-13.75-20.28-20.98-1.41-1.55-2.7-5.23-4.4-4.03-1.6,1.13.34,4.53,1.34,6.79.1.22.27.4.36.62,2.36,5.84,6.95,9.98,11.27,14.22,5.98,5.86,13.11,10.46,20.88,13.15,11.4,3.94,22.95,7.51,34.83,10.13,11.54,2.54,22.92,2.1,34.45,1.62,2.48-.1,3.73-1.4,4.61-3.7,3.96-10.38,1.62-21.03,1.63-31.59,0-3.31-2.95-4.74-4.31-7.17-.12-.21-.31-.41-.33-.63-.28-2.57-1.79-2.37-3.58-1.63-1.3.53-2.6.61-3.61-.57-2.33-2.75-5.74-4.39-7.18-8.14-1.01-2.64-3.05-4.75-5.48-6.72-2.22-1.8-3.71-4.26-6.85-5.09-1.71-.45-1.42-2.54-.29-3.56,2.3-2.06,1.29-3.3-.62-4.71-9.06-6.7-16.33-15.34-24.58-22.91-6.68-6.12-12.89-12.78-19.84-18.58-6.86-5.72-14.36-10.7-20.58-17.18-1.87-1.95-3.34-1.6-4.62.31-1.68,2.51-3.39,3.7-6.16.11.36,8.88.23,16.81-.59,24.77-1.09,10.55-.35,21.27-2.18,31.76-.99,5.69-1.52,11.37-1.14,17.1.22,3.27.45,6.61,2.83,9.36,7.99,9.19,16.06,18.3,24.41,27.26Z"/><path class="cls-7" d="m449.44,799.65c.5-1.34,2.21-2.61.58-3.6-1.85-1.11-4.38-1.32-6.18-.25-1.66.99.46,2.11.91,3.17.32.76.81,1.46,1.16,2.21.41.88.85,1.91-.19,2.57-1.31.82-2.03-.33-2.52-1.22-1.72-3.14-3.27-6.35-4.58-9.7-1.74-4.44-3.22-8.99-5.64-13.15-8.58-14.76-19.73-27.85-27.9-42.88-1.01-1.85-2.77-2.63-4.74-2.8-11.91-1.03-23.59-.26-34.54,5.14-4.52,2.23-8.51,5.27-12.3,8.56-1.34,1.16-2.01,2.51-.22,3.84,4.71,3.48,8.55,7.97,13.45,11.25,3.36,2.25,6.7,4.66,9.63,7.44,12.4,11.72,24.65,23.6,36.94,35.45q7.87,7.59,17.2,1.76c1.37-.85,2.54-2.44,5.44-1.83-3.58,2.42-6.48,4.45-9.44,6.36-1.66,1.07-3.3,2.03-1.95,4.66-1.48-.26-2.52-.64-3.51-.55-.86.08-2.35,1.17-1.25,1.75,2.24,1.18,3.91,3.96,7.25,2.83,2.2-.75,4.39-2.16,7.26-1.65-1.28,1.4-2.68,1.78-3.97,2.31-4.24,1.76-4.19,1.71-.86,4.77,1.18,1.09,2.08.77,3.2.26,1.77-.82,3.55-1.61,6.03-2.73-.85,2.63-2.41,3.5-3.98,4.13-2.28.91-2.78,1.85-1.44,4.22,1.5,2.66,2.62,1.44,4.13.34,1.58-1.14,3.24-2.16,5.13-3.4-.43,2.4-2.43,2.93-3.55,4.23-.66.77-1.97,1.31-1.38,2.62.56,1.25,1.53,1.86,3.1,1.9,7.4.16,11.63-4.86,15.7-9.79,4.2-5.09,6.25-11.45,9.17-17.29,2.47-4.93,4.89-9.95,10.53-12.07,5.8-2.18,11.49-4.61,17.47-6.37,8.8-2.59,17.36-5.97,25.73-9.77,2.12-.96,3.1-2.29,2.91-4.71-.51-6.53-2.46-12.25-7.49-16.85-4.98-4.55-10.7-7.57-17.02-9.52-5.7-1.76-11.04.04-14.2,5.22-3.01,4.93-6.72,9.27-10.32,13.71-2.62,3.25-5.66,6.14-7.92,9.7-3.78,5.94-7.71,11.8-11.52,17.72-.97,1.51-2,2.68-4.29,2Z"/><path class="cls-2" d="m425.46,567.93c-3.41-.94-5.65-3.4-7.96-5.79-.56-.57-1.15-1.9-2.21-.64-1.04,1.23-.05,7.41,1.32,8.54,9.68,8.04,20.38,14.51,31.49,20.32,1.17.61,2.3.91,3.74.6,6.34-1.35,12.34-3.45,17.93-6.79,4.57-2.74,7.98-6.77,11.95-10.16,2.75-2.35,2.75-5.05,2.93-8,.04-.6-.07-1.28-.72-1.51-.87-.31-1.26.42-1.64,1.01-.99,1.54-2.18,2.85-3.86,3.67,1.96-2.88,4.29-5.47,5.65-8.7,3.48-8.27,4.77-16.92,4.03-25.81-.17-2.03,1.22-4.93-2.02-6.12-.12-.04,0-1.11.2-1.62,1.41-3.56,2.83-7.2,5.87-9.68,3.3-2.69,3.96-6.06,3.42-9.95-.46-3.34-3.27-6.09-5.82-5.73-5.03.72-6.7,3.07-5.55,7.8q2.85-1.98,5.3-1.21c-5.68-.2-3.82,6.58-7.81,8.07-.54.2-.59,1.96-1.82,1.68-1.34-.3-1.18-1.64-1.26-2.67-.36-4.4-.68-8.81-1.01-13.21-.06-.84,0-1.89-.94-2.12-1.14-.28-1.18.83-1.43,1.61-1.4,4.23-3.89,7.73-7.68,10.03-2.7,1.63-1.89,3-.02,4.17,5.41,3.37,7.28,15.44,3.88,22.5-.21.43-.67.65-1.36.34-.22-2.3,2.34-5.07.76-6.67-2.1-2.13-1.55-4.26-1.79-6.52-.18-1.66-.52-3.3-.9-4.93-.13-.54-.52-1.18-1.25-1.01-.84.19-.52.88-.49,1.45.11,1.9.25,3.81.27,5.71.01,1.25-.61,2-1.99,1.96-1.26-.04-2.02-.53-2.14-1.87-.09-.96-.28-1.9-.43-2.85-.55,3.53-2.51,3.67-5.48,3.77-2.95.1-5.51-2.04-8.37-1-2.14.78-2.86.06-2.88-2.03,0-.75.25-1.73-1.05-2.14-.92,1.26-.39,2.72-.46,4.05-.11,2.14-2.04,2.02-3.14,2.26-1.61.36-1.21-1.38-1.26-2.3-.11-2.12-.03-4.25-.03-6.37-2.12,2.7-1.29,5.59-1.24,8.38.05,3.05-1.81,5.19-4.96,5.05-2.66-.12-4.74.06-4.47,3.54.05.71-.29,1.46-1.24,1.41-.7-.04-1.01-.62-1.17-1.19-1.66-6.21-1.45-12.28,1.29-18.18,1.94-4.2,5.26-5.98,9.78-5.77.23.01.51-.04.68-.18,1.14-.93,1.5-2.32,1-3.51-.49-1.17-1.43-.16-2.06.23-7.5,4.66-17.81.75-20.79-8.31-.79-2.41-1.68-2.43-3.49-1.08-1.38,1.02-2.18,2.19-2.01,3.9.3,3-1.18,5.85-.74,8.88.14.98-.29,1.96-1.33,2.29-1.21.38-1.71-.61-2.13-1.45-1.65-3.28-3.19-6.63-4.9-9.88-1.74-3.31-4.96-3.4-7.08-.3-3.03,4.42-2.27,10.55,1.82,15.12,1.75,1.95,3.49,3.92,5.13,5.97,2.06,2.58,4.27,4.39,7.85,1.88-.06.97.09,1.67-.15,1.86-2.51,1.95-1.61,4.07-.49,6.29.31.62.42,1.36.59,2.05,2.8,11.61,6.15,22.92,16.17,30.88Z"/><path class="cls-4" d="m474.95,488.3c.06-.57.18-.85.09-1.01-6.22-11.6-13.8-20.6-28.71-21.31-10.17-.48-17.84,2.6-24.46,9.69-1.46,1.56-2.81,3.24-4.14,4.92-3.88,4.91-7.24,10.07-8,16.5-.13,1.08-.47,2.34.56,2.97,1.35.82,2.15-.47,2.94-1.32,1.38-1.49,2.41-3.11,3.09-5.13,2.4-7.13,9.02-10.68,16.36-9.41,3.69.64,6.2,2.88,8.72,5.24,2.63,2.47,8.48,2.35,10.69-.31,6.13-7.35,10.6-8.04,18.52-2.9,1.28.83,2.51,1.8,4.35,2.06Z"/><path class="cls-3" d="m471.3,843.48c2.84.15,3.43,1.93,4.51,3.05,2.81,2.88,5.39,2.34,6.7-1.43,1.78-5.16-3.77-14.03-9.01-14.94-1.66-.29-1.73,2.4-2.6,1.27-1.75-2.29-4.98-2.48-6.41-4.98-1.53-2.67-2.97-1.86-4.09.21-2.85,5.24-7.49,8.61-12.29,11.69-2.3,1.48-2.47,2.51-.53,4.19,5.2,4.49,8.88,10.2,12.86,15.7,1.53,2.11,4.16,3.43,6.36,5.02.57.41,1.5.38,1.94-.29.53-.81-.29-1.22-.8-1.7-1.55-1.47-3.06-2.99-4.62-4.46-.68-.64-1.8-1.23-1.04-2.29.73-1.01,1.76-.33,2.52.22.87.62,1.69,1.33,2.44,2.08,1.61,1.6,3.21,3.18,5.38,4.05,2.01.81,2.95-.65,3.71-1.9,1.05-1.74-.8-1.91-1.72-2.34-2.56-1.2-4.6-2.95-6.23-5.23-.41-.57-1.09-1.25-.52-1.88.85-.93,1.55.05,2.05.58,1.98,2.16,4.39,3.61,7.05,4.77,1.64.72,2.5-.16,3.18-1.36.86-1.52-.47-1.85-1.42-2.22-3.47-1.34-5.16-4.3-7.43-7.83Z"/><path class="cls-9" d="m408.8,585.27c-.11.86-.16,1.89.68,2.25,4.48,1.93,6.73,6.3,10.26,9.24,4.57,3.8,7.62,8.46,9.18,14.16.53,1.95,1.04,3.92,1.61,5.86.19.64.18,1.6,1.02,1.7,1.1.13,1.21-.98,1.54-1.69.35-.75.48-1.61.82-2.36,3.05-6.69,5.6-13.69,11-18.99,1.56-1.53,1.4-2.27-.34-3.51-5.05-3.59-10.92-5.79-15.74-9.8-4.29-3.58-8.97-6.69-13.44-10.06-1.52-1.15-2.79-1.58-3.41.76-1.1,4.14-2.13,8.3-3.18,12.45Z"/><path class="cls-13" d="m487.65,579.93c0-1.83.04-3.38-.02-4.93-.03-.8.11-1.86-.83-2.19-1.02-.36-1.31.77-1.89,1.29-4.42,3.97-7.93,8.86-13.11,12.08-3.78,2.36-7.7,4.22-11.89,5.65-1.56.53-3.2,1.13-1.87,3.55,3.18,5.8,5.17,12.01,6.02,18.59.12.96.16,2.44,1.5,2.55,1.12.09,1.33-1.23,1.7-2.05,3.08-6.81,6.82-13.12,12.97-17.66,5.79-4.27,8.22-10.03,7.41-16.88Z"/><path class="cls-14" d="m429.58,485.59c-2.84-.11-5.37,1.01-8.59,3.83-4.62,4.04-4.81,10.54-.46,16.05,3.84,4.87,10.67,6.18,15.35,2.93.87-.6,2.03-1.15,1.73-2.43-.28-1.2-1.57-.86-2.43-1.08-4.17-1.06-5.59-3.12-4.9-7.18.23-1.34.77-2.5,1.67-3.51,1.32-1.49.73-2.07-.99-2.05-2.17.03-4.24.54-6.3,1.21-1.15.37-2.53.57-2.81-1.15-.26-1.57.56-2.46,2.19-2.6,2.13-.18,4.3-.24,6.38-.69,1.75-.38,5.05.62,4.95-1.25-.12-2.3-3.47-1.54-5.44-2.06-.11-.03-.24-.02-.36-.03Z"/><path class="cls-10" d="m341.42,1003.01c3.22-.17,8.08,1.59,11.3-3.29.31-.47,1.27-.64,1.95-.73,1.84-.23,3.03-1.08,2.54-3.03-.46-1.87-1.66-3.22-3.86-2.72-1.21.28-2.36.18-3.53.01-5.35-.75-10.59-2.47-15.81,1.24-2.4,1.71-5.77,2.04-8.69,3.06-.88.31-1.92.66-1.87,1.86.05,1.2,1.14,1.33,2.01,1.68,4.76,1.93,9.81,1.52,15.95,1.92Z"/><path class="cls-18" d="m471.9,489.77c-.2,1.06-.37,1.5-.35,1.92.05,1.96.96,4.27-2.72,2.01-2.09-1.28-5.02-1.54-7.56-2.29-.91-.27-2.44-.53-2.96.54-.71,1.47,1.1,1.57,1.81,2.12,2.42,1.88,4.54,3.81,2.57,7.12-1.12,1.88-2.76,3.34-5.01,3.75-2.04.37-2.17,1.3-1.36,3.02.83,1.75,2.09,2.43,3.92,2.54,6.42.36,11.82-4.08,13.05-11.12.53-3.01,1.88-6.28-1.4-9.62Z"/><path class="cls-12" d="m436.04,493.98c-2.52-.13-3.97,1.29-4.79,3.46-.67,1.78-.67,3.61.93,4.87,1.32,1.04,3.05,2.26,3.27-.95.14-2,1.31-2.6,3.13-2.44.78.07,1.73.46,2.14-.63.43-1.13,0-2.11-.8-2.9-1.07-1.06-2.42-1.42-3.89-1.41Z"/><path class="cls-12" d="m457.03,494.31c-1.47.08-2.59.48-3.52,1.25-.81.67-1.87,1.39-1.28,2.64.69,1.46,1.59.04,2.4-.02,2.54-.2,4.05.52,3.05,3.44-.19.56-.57,1.16.13,1.54.59.32,1.18-.02,1.61-.44,1.34-1.29,3.32-2.41,2.51-4.66-.82-2.28-2.66-3.55-4.9-3.75Z"/><path class="cls-8" d="m397.9,733.04c1.57-.2,2.63.48,3.32-.48.18-.25,0-.92-.23-1.27-1.76-2.79-6.7-3.76-9.54-1.87-.66.44-1.65.74-1.55,1.74.12,1.14,1.22.94,1.97,1.06,2.22.35,4.45.62,6.02.83Z"/><path class="cls-15" d="m468.16,487.68c-5.33-3.31-10.44-2.73-12.37.73,3.81-.23,7.63-.45,12.37-.73Z"/><path class="cls-6" d="m464.63,525.96c1.15-2.19,1.05-4.34.14-6.43-.91-2.08-1.99-4.11-4.3-5.01-.57-.22-1.22-.28-1.61.29-.14.2-.03.84.16.95,3.92,2.24,4.76,6.18,5.61,10.2Z"/><path class="cls-11" d="m358.23,865.58c.47.95,36.54,21.35,56.47,20.88,19.93-.47,48.4,0,52.2-.47s11.39-2.37,15.18-2.85c3.8-.47,13.29-3.8,17.08-3.8s10.44,0,15.66-2.37,12.34-3.8,14.71-4.75,6.64-3.32,6.64-3.32c0,0,2.85,55.04,2.37,57.89s-2.37,49.35-1.9,52.2c.47,2.85-2.25,8.49-5.22,8.07-4.75-.68-13.12-12.98-13.76-17.08-.74-4.69-43.18-46.03-45.55-49.35s-15.66-21.35-20.4-21.35-10.44-1.42-10.44-1.42c0,0-24.67,31.32-35.59,40.81-10.91,9.49-18.98,17.56-21.35,19.93s-15.66,13.76-18.51,18.03-10.91,13.76-10.91,13.76c0,0-2.85,2.85-8.07.95-5.22-1.9-9.49-.95-9.49-2.37s9.02-62.63,9.96-65.96,4.27-21.35,4.27-24.67,6.64-32.74,6.64-32.74Z"/><path class="cls-10" d="m524.31,984.2c-1.42.47-2.37,6.64-2.37,6.64,0,0-.95,9.49.95,9.96,1.9.47,4.27,4.75,8.54,4.75s10.91,0,12.81-2.37c1.9-2.37,4.27-5.69,4.27-5.69,0,0-6.17-7.12-7.12-9.02s-6.17-7.59-6.17-7.59l-10.91,3.32Z"/><path class="cls-10" d="m524.09,985.84c-.27-2.18-2.2-3.57-2.91-5.74,1.9-.02,2.71,1.32,3.74,2.19,1.98,1.67,4.09,1.87,6.32.74,2.21-1.12,3.48-2.57,3.75-5.47,1.45-15.37.11-30.77.7-46.13.64-16.61.86-33.21.73-49.83-.02-2.03-.03-4.07-.1-6.1-.17-4.93-.3-5.16-4.62-2.87-7.7,4.09-16.22,4.55-24.51,6.11-6.32,1.19-12.6,2.59-18.87,4.07-2.58.61-5.12,1.1-7.77,1.04-5.63-.14-11.16.14-16.55,2.14-3.36,1.25-6.96,1.54-10.58,1.46-8.23-.18-16.4,1.08-24.65.87-7.4-.19-14.58-1.15-21.89-2.5-11.17-2.06-21.49-6.85-32.62-8.83-3.99-.71-7.64-2.3-10.84-5.13-3.16-2.8-4.45-2.19-5.18,1.84-4.46,24.64-9.27,49.23-12.3,74.08-1.58,12.91-3.15,25.79-5.59,38.55-.51,2.67.72,3.49,2.9,3.82,1.53.23,3.06.48,4.6.6,2.39.19,4.68,1.32,5.95-2.61.91-2.81,3.97-4.95,6.18-7.29,5.41-5.73,11.03-11.26,16.31-17.11,6.58-7.29,14.68-12.88,21.31-20.17,8.43-9.28,16.87-18.55,24.75-28.29,5.45-6.74,12.93-11.33,18.48-17.94.39-.46,1.03-.78,1.59-.32,1.85,1.54,4.11,1.1,6.19,1.24,4.19.3,7.44,2.07,10.14,5.26,5.09,6.01,10.07,12.14,15.56,17.77,11.24,11.54,22.84,22.71,34.16,34.16,5.47,5.54,9.44,12.3,14.19,18.43.68.88,1.07,2.09-.1,2.83-1.08.69-1.74-.41-2.29-1.13-2.97-3.89-6.05-7.71-8.8-11.76-3.87-5.69-8.88-10.27-13.77-15-9.7-9.38-18.73-19.39-27.74-29.42-4.14-4.61-8.48-9.07-11.86-14.34-3.8-5.92-10.22-5.83-16.18-6.62-1.06-.14-1.49,1.04-2.16,1.69-16.62,15.86-29.76,34.87-45.97,51.08-6.74,6.74-14.16,12.77-20.4,20.07-5.34,6.25-11.13,12.12-16.8,18.08-1.18,1.24-.83,1.8.23,2.84,3.95,3.85,3.44,6.42-1.56,8.62-.43.19-1.08.36-1.19.7-1.63,4.68-5.85,4.02-9.28,4.14-7.13.25-14.31.36-21.24-1.96-1.79-.6-3.34-1.11-3.42-3.46-.08-2.36.31-4.28,2.86-5.11,3.05-1,6.03-2.47,9.16-2.94,3.34-.5,4.65-1.31,5.24-5.18,1.09-7.17,2.26-14.35,3.53-21.5,1.97-11.05,2.16-22.31,4.18-33.37,3.12-17.14,5.74-34.38,9.55-51.39.05-.23.13-.46.21-.69,2.15-6.57,2.95-12.2-4.27-17.08-4.95-3.35-8.85-8.5-11.82-14.17-3.32-6.35-4.11-13.21-4.85-19.99-.77-6.97-.02-14.01,1.21-21.02,1.4-7.98,1.93-16.1,2.78-24.17,2.4-22.83,2.05-45.74,1.97-68.64-.02-6.69-.24-13.38-.48-20.06-.22-6.12.61-12.17.97-18.25.35-5.83,2.5-11.16,5.54-16.11,9.44-15.38,21.04-28.87,34.7-40.7,6.93-6.01,13.09-12.89,17.79-20.9.3-.51.57-1.1,1-1.48,8.33-7.37,8.71-18.12,11.5-27.77.76-2.62.46-5.4,2.49-7.79,1.02-1.2,1.26-3.35.53-5.14-3.26-7.98-5.86-16.14-7.07-24.7-.15-1.1-.73-1.61-1.66-2.09-6.47-3.32-10.14-9.17-13.27-15.34-1.96-3.87-1.43-7.89,1.1-11.53,1.14-1.64,2.61-2.66,4.66-3,5.57-.94,8.9-4.09,11.37-9.42,5.64-12.18,13.4-23.49,27.24-26.38,11.68-2.43,23.63-.85,32.39,9.38,3.68,4.3,7.15,8.83,8.91,14.18,2.05,6.22,6.82,9.03,12.25,10.9,7.01,2.42,10.39,12.28,4.9,17.23-6,5.41-6.62,11.6-5.66,18.78.89,6.7.09,13.32-1.78,19.81-.9,3.12-1.56,6.26-1.35,9.53.13,2.07.17,3.71,2.07,5.58,2.06,2.03,1.17,5.86,1.52,8.91.31,2.72-.68,5.39-.06,8.19.46,2.09,1.4,3.52,3.24,4.38,3.45,1.62,5.76,4.52,8.44,7.07,11.35,10.81,20.45,23.6,30.97,35.15,7.52,8.26,13.62,17.91,18.65,27.92,7.41,14.74,12.73,30.29,14.83,46.81,2.61,20.58,2.81,41.22,1.22,61.86-.91,11.88-.12,23.94-3.26,35.6-5.61,20.87-14.17,40.54-24.45,59.49-1.17,2.15-1.87,4.12-1.6,6.72,1.89,18.35.96,36.72.38,55.11-.54,17.41-1.34,34.91.73,52.27.61,5.13,4.67,9.13,8.4,12.51,7.39,6.7,5.15,7.57-1.4,12.15-6.19,4.33-13.76,4.12-21.04,2.11-.72-.2-1.88-1.1-1.82-1.52.64-4.07-3.22-6.93-2.81-10.9.11-1.07-.02-2.26.85-3.02,1.69-1.48,2.42-2.99.24-4.61,1.33-1,2.21-.1,3.12-.16.33,2.15.49,4.21-1.57,5.77-.45.34-.84,1.52-.6,1.92,1.83,2.99,3.35,7.81,5.87,8.44,6.5,1.62,13.49,1.65,19.11-3.61,1.11-1.04,1.48-1.86.31-2.91-3.3-2.96-6.06-6.34-8.36-10.14-.9-1.48-2.03-2.13-3.79-.76-3.35,2.6-7.08,3.16-11.04,1.35Zm-69.52-112.91c1.04-1.68,1.93-3.14,1.06-5-.23-.5-.92-.96-.03-1.38.64-.3,1.16.09,1.49.63,1.37,2.34-1.41,7.8-4.08,7.92-.9.04-1.34.33-1.48,1.14-.42,2.53-2.86,5.24-1.35,7.4,1.44,2.06,4.65.95,7.11.8.71-.04,1.44-.13,2.12-.35,7.33-2.41,14.84-3.42,22.54-3.01.82.04,1.67-.11,2.49-.28,12.47-2.67,24.96-5.23,37.55-7.29,9.1-1.49,15.01-7.41,19.03-15.16,3.18-6.13,5.55-12.67,8.32-19.02,5.35-12.28,9.95-24.83,12.63-37.98,1.73-8.47,1.3-17.12,1.92-25.69,1.29-17.77,2.23-35.52.49-53.31-.74-7.6-.67-15.35-2.58-22.74-4.3-16.68-9.38-33.13-19.83-47.22-4.4-5.94-7.53-12.76-12.79-18.12-6.19-6.31-11.61-13.28-17.18-20.14-5.4-6.65-11.23-13.01-17.37-18.99-4.96-4.83-5.26-4.46-10.06.3-1.86,1.85-3.8,3.63-5.8,5.33-3.06,2.59-5.36,5.76-7.16,9.3-1.62,3.19-3.12,6.44-4.66,9.68-.41.87-.74,1.96-1.86,1.93-1.18-.03-1.37-1.17-1.6-2.09-.77-3-1.68-5.98-2.21-9.03-.85-4.91-2.87-9.34-5.18-13.66-.63-1.17-1.2-3.05-2.98-2.51-1.91.57-1.08,2.32-.89,3.69,1.75,12.28,4.99,24.33,5.51,36.79.04,1.07.16,2.16.41,3.2.26,1.14.7,2.37,2.01.75,1.66-2.06,2.22-.74,2.18.84-.04,1.79,1.11,4.28-2.17,4.76-1.25.18-.96,1.41-.94,2.37.14,6.09.29,12.19.37,18.28.02,1.52.1,2.66,1.94,3.28,2.2.74,1.6,2.93,1.62,4.66.02,1.06-.56,2.09-1.69,1.83-2.96-.69-2.47,1.53-2.56,3-.81,12.4-2,24.78-2.08,37.22-.04,6.21.13,12.42.3,18.63.03.9-.35,2.73,1.22,2.46,4.61-.78,3.64,2.75,3.92,5,.2,1.66.74,3.6-.68,5.13-.39.42-1.02.31-1.27-.07-1.12-1.77-.48-3.7-.36-5.57.07-1.07,1.46-2.57-.21-3.06-1.61-.47-1.83,1.49-2.34,2.6-.24.51-.18,1.17-.19,1.77-.15,8.84-.31,17.69-.44,26.53-.02,1.42.49,2.6,1.13,3.93,1.02,2.13,3.29,5.12.83,7.06-2.81,2.21-1.5,4.66-1.86,7.21.83-.19,1.09-.72,1.4-1.22,5.42-8.64,12.5-15.95,18.74-23.93,3-3.83,6.31-7.59,7.91-12.57,1.88-5.88,4.04-11.54,5.1-17.76,1.25-7.32,4.21-14.35,6.4-21.52.35-1.14.97-2.37-.12-3.78-2.02,2.07-2.94,4.3-3.3,6.84-.28,1.99-1.08,3.3-3.25,2.2,1.2-6.32,4.78-11.65,6.92-17.58,1.1-3.05,1.91-5.97,1.28-9.39-.62-3.35-.84-6.92.13-11.15,2.64,4.4.31,9.13,3.24,13.22,1.35-4.4,4.54-7.38,3.88-12.75,1.95,2.67,1.94,4.59,1.07,6.12-3.62,6.36-4.05,13.65-5.74,20.49-2.46,9.97-6.37,19.52-8.15,29.66-.68,3.87-1.46,7.72-3.08,11.37-1.57,3.56-1.34,3.75,2.64,3.51,16.55-1.01,30.71,10.1,33.68,26.43.77,4.22,1.84,4.68,5.09,1.74,3.01-2.74,6.05-5.42,9.46-7.63,5.08-3.29,7.99-8.09,9.77-13.71.35-1.09.65-2.19.98-3.29-.51,4.75-1.08,9.51-3.89,13.51-4.38,6.25-10.49,10.74-16.23,15.56-1.76,1.48-4.07,2.96-6.56,1.68-1.81-.93-3.06-.39-4.59.48-7.8,4.45-16,8.08-24.56,10.67-6.2,1.87-12.08,4.45-18.04,6.86-2.76,1.12-4.94,3.07-6.54,5.83-1.99,3.42-3.55,7.03-5.27,10.57-2.44,5.03.53,9.4,6.07,10.26,8.63,1.34,11.99,3.41,12.64,11.32.05.59.32,1.16.36,1.75.28,4.39,1.24,9.23-.81,12.99-2.17,3.95-4.91,7.88-8.42,11.03-1.52,1.37-3.11,1.95-5.15,2.01-5.6.18-8.78-3.68-11.98-7.23-2.3-2.55-3.79-5.83-6.6-8.5-.83,5.14.86,16.45,3.21,22.16Zm-58.22-153.23c2.46,1.04,4.07,3.07,5.9,4.84.72.7,1.19,2.28,2.39,1.71,1.21-.57.35-1.9.17-2.89-3.01-16.43-7.82-32.45-11.21-48.8-.66-3.15-1.37-6.29-2.05-9.44-.19-.9-.77-2.14.57-2.38,1.22-.22,1.32,1.07,1.5,2,.47,2.34.79,4.73,1.48,7,.97,3.14.92,6.62,2.45,9.57.43-.05.87-.1,1.3-.15v-21.66c2.02.58,1.86,1.66,1.84,2.53-.19,9.31.71,18.64-.62,27.92-.31,2.17.1,4.21.59,6.35,3.1,13.39,7.53,26.55,7.42,40.54,0,1,.49,2.11,1.03,2.99,4.94,8.03,10.44,15.68,15.92,23.34,4.93,6.9,9.85,13.88,12.96,21.79,2.09,5.3,3.85,9.79,11.01,8.89,2.08-.26,2.83-.54,3.39-2.35,1.64-5.31,2.18-10.76,2.14-16.27-.15-21.03-.39-42.05-.55-63.08-.03-4.18.03-8.34.38-12.53.97-11.77,1.63-23.57,2.45-35.36.91-12.96-1.34-25.75-2.36-38.58-.76-9.59-2.73-19.11-3.86-28.71-.34-2.92-1.81-3.12-3.84-1.5-1.88,1.49-3.54,3.21-4.67,5.37-3.32,6.34-6.84,12.58-8.88,19.52-.41,1.4-.48,3.93-2.04,3.74-1.86-.22-1.37-2.76-1.48-4.29-.88-12.65-8.74-21.01-17.49-28.83-.87-.77-2.05-1.19-3.11-1.75-.97-.51-1.97-.48-2.47.56-1.85,3.84-5.44,6.35-7.49,10.02-4.24,7.59-10,14.08-16.26,19.86-10.04,9.27-19.38,19.07-27.46,30.08-7.97,10.85-13.66,22.29-13.71,36.47-.03,9.79.54,19.55.39,29.33-.17,10.87.02,21.75.07,32.63,0,1.04-.28,2.37.83,2.93,1.22.62,1.88-.69,2.66-1.32,4.75-3.8,9.46-7.66,14.75-10.7,6.38-3.65,13.33-5.81,20.5-7.05,2.67-.46,4.95-.98,7.13-2.7,5.15-4.05,8.54-3.81,13.8.32,1.5,1.18,2.62,3.05,5.6,3.43-3.02-5.61-7.53-9.11-11.1-13.41Zm-31.89,143.86c-7.35-6.36-13.72-13.75-20.28-20.98-1.41-1.55-2.7-5.23-4.4-4.03-1.6,1.13.34,4.53,1.34,6.79.1.22.27.4.36.62,2.36,5.84,6.95,9.98,11.27,14.22,5.98,5.86,13.11,10.46,20.88,13.15,11.4,3.94,22.95,7.51,34.83,10.13,11.54,2.54,22.92,2.1,34.45,1.62,2.48-.1,3.73-1.4,4.61-3.7,3.96-10.38,1.62-21.03,1.63-31.59,0-3.31-2.95-4.74-4.31-7.17-.12-.21-.31-.41-.33-.63-.28-2.57-1.79-2.37-3.58-1.63-1.3.53-2.6.61-3.61-.57-2.33-2.75-5.74-4.39-7.18-8.14-1.01-2.64-3.05-4.75-5.48-6.72-2.22-1.8-3.71-4.26-6.85-5.09-1.71-.45-1.42-2.54-.29-3.56,2.3-2.06,1.29-3.3-.62-4.71-9.06-6.7-16.33-15.34-24.58-22.91-6.68-6.12-12.89-12.78-19.84-18.58-6.86-5.72-14.36-10.7-20.58-17.18-1.87-1.95-3.34-1.6-4.62.31-1.68,2.51-3.39,3.7-6.16.11.36,8.88.23,16.81-.59,24.77-1.09,10.55-.35,21.27-2.18,31.76-.99,5.69-1.52,11.37-1.14,17.1.22,3.27.45,6.61,2.83,9.36,7.99,9.19,16.06,18.3,24.41,27.26Zm84.98-63.9c.5-1.34,2.21-2.61.58-3.6-1.85-1.11-4.38-1.32-6.18-.25-1.66.99.46,2.11.91,3.17.32.76.81,1.46,1.16,2.21.41.88.85,1.91-.19,2.57-1.31.82-2.03-.33-2.52-1.22-1.72-3.14-3.27-6.35-4.58-9.7-1.74-4.44-3.22-8.99-5.64-13.15-8.58-14.76-19.73-27.85-27.9-42.88-1.01-1.85-2.77-2.63-4.74-2.8-11.91-1.03-23.59-.26-34.54,5.14-4.52,2.23-8.51,5.27-12.3,8.56-1.34,1.16-2.01,2.51-.22,3.84,4.71,3.48,8.55,7.97,13.45,11.25,3.36,2.25,6.7,4.66,9.63,7.44,12.4,11.72,24.65,23.6,36.94,35.45q7.87,7.59,17.2,1.76c1.37-.85,2.54-2.44,5.44-1.83-3.58,2.42-6.48,4.45-9.44,6.36-1.66,1.07-3.3,2.03-1.95,4.66-1.48-.26-2.52-.64-3.51-.55-.86.08-2.35,1.17-1.25,1.75,2.24,1.18,3.91,3.96,7.25,2.83,2.2-.75,4.39-2.16,7.26-1.65-1.28,1.4-2.68,1.78-3.97,2.31-4.24,1.76-4.19,1.71-.86,4.77,1.18,1.09,2.08.77,3.2.26,1.77-.82,3.55-1.61,6.03-2.73-.85,2.63-2.41,3.5-3.98,4.13-2.28.91-2.78,1.85-1.44,4.22,1.5,2.66,2.62,1.44,4.13.34,1.58-1.14,3.24-2.16,5.13-3.4-.43,2.4-2.43,2.93-3.55,4.23-.66.77-1.97,1.31-1.38,2.62.56,1.25,1.53,1.86,3.1,1.9,7.4.16,11.63-4.86,15.7-9.79,4.2-5.09,6.25-11.45,9.17-17.29,2.47-4.93,4.89-9.95,10.53-12.07,5.8-2.18,11.49-4.61,17.47-6.37,8.8-2.59,17.36-5.97,25.73-9.77,2.12-.96,3.1-2.29,2.91-4.71-.51-6.53-2.46-12.25-7.49-16.85-4.98-4.55-10.7-7.57-17.02-9.52-5.7-1.76-11.04.04-14.2,5.22-3.01,4.93-6.72,9.27-10.32,13.71-2.62,3.25-5.66,6.14-7.92,9.7-3.78,5.94-7.71,11.8-11.52,17.72-.97,1.51-2,2.68-4.29,2Zm-23.98-231.72c-3.41-.94-5.65-3.4-7.96-5.79-.56-.57-1.15-1.9-2.21-.64-1.04,1.23-.05,7.41,1.32,8.54,9.68,8.04,20.38,14.51,31.49,20.32,1.17.61,2.3.91,3.74.6,6.34-1.35,12.34-3.45,17.93-6.79,4.57-2.74,7.98-6.77,11.95-10.16,2.75-2.35,2.75-5.05,2.93-8,.04-.6-.07-1.28-.72-1.51-.87-.31-1.26.42-1.64,1.01-.99,1.54-2.18,2.85-3.86,3.67,1.96-2.88,4.29-5.47,5.65-8.7,3.48-8.27,4.77-16.92,4.03-25.81-.17-2.03,1.22-4.93-2.02-6.12-.12-.04,0-1.11.2-1.62,1.41-3.56,2.83-7.2,5.87-9.68,3.3-2.69,3.96-6.06,3.42-9.95-.46-3.34-3.27-6.09-5.82-5.73-5.03.72-6.7,3.07-5.55,7.8q2.85-1.98,5.3-1.21c-5.68-.2-3.82,6.58-7.81,8.07-.54.2-.59,1.96-1.82,1.68-1.34-.3-1.18-1.64-1.26-2.67-.36-4.4-.68-8.81-1.01-13.21-.06-.84,0-1.89-.94-2.12-1.14-.28-1.18.83-1.43,1.61-1.4,4.23-3.89,7.73-7.68,10.03-2.7,1.63-1.89,3-.02,4.17,5.41,3.37,7.28,15.44,3.88,22.5-.21.43-.67.65-1.36.34-.22-2.3,2.34-5.07.76-6.67-2.1-2.13-1.55-4.26-1.79-6.52-.18-1.66-.52-3.3-.9-4.93-.13-.54-.52-1.18-1.25-1.01-.84.19-.52.88-.49,1.45.11,1.9.25,3.81.27,5.71.01,1.25-.61,2-1.99,1.96-1.26-.04-2.02-.53-2.14-1.87-.09-.96-.28-1.9-.43-2.85-.55,3.53-2.51,3.67-5.48,3.77-2.95.1-5.51-2.04-8.37-1-2.14.78-2.86.06-2.88-2.03,0-.75.25-1.73-1.05-2.14-.92,1.26-.39,2.72-.46,4.05-.11,2.14-2.04,2.02-3.14,2.26-1.61.36-1.21-1.38-1.26-2.3-.11-2.12-.03-4.25-.03-6.37-2.12,2.7-1.29,5.59-1.24,8.38.05,3.05-1.81,5.19-4.96,5.05-2.66-.12-4.74.06-4.47,3.54.05.71-.29,1.46-1.24,1.41-.7-.04-1.01-.62-1.17-1.19-1.66-6.21-1.45-12.28,1.29-18.18,1.94-4.2,5.26-5.98,9.78-5.77.23.01.51-.04.68-.18,1.14-.93,1.5-2.32,1-3.51-.49-1.17-1.43-.16-2.06.23-7.5,4.66-17.81.75-20.79-8.31-.79-2.41-1.68-2.43-3.49-1.08-1.38,1.02-2.18,2.19-2.01,3.9.3,3-1.18,5.85-.74,8.88.14.98-.29,1.96-1.33,2.29-1.21.38-1.71-.61-2.13-1.45-1.65-3.28-3.19-6.63-4.9-9.88-1.74-3.31-4.96-3.4-7.08-.3-3.03,4.42-2.27,10.55,1.82,15.12,1.75,1.95,3.49,3.92,5.13,5.97,2.06,2.58,4.27,4.39,7.85,1.88-.06.97.09,1.67-.15,1.86-2.51,1.95-1.61,4.07-.49,6.29.31.62.42,1.36.59,2.05,2.8,11.61,6.15,22.92,16.17,30.88Zm49.49-79.63c.06-.57.18-.85.09-1.01-6.22-11.6-13.8-20.6-28.71-21.31-10.17-.48-17.84,2.6-24.46,9.69-1.46,1.56-2.81,3.24-4.14,4.92-3.88,4.91-7.24,10.07-8,16.5-.13,1.08-.47,2.34.56,2.97,1.35.82,2.15-.47,2.94-1.32,1.38-1.49,2.41-3.11,3.09-5.13,2.4-7.13,9.02-10.68,16.36-9.41,3.69.64,6.2,2.88,8.72,5.24,2.63,2.47,8.48,2.35,10.69-.31,6.13-7.35,10.6-8.04,18.52-2.9,1.28.83,2.51,1.8,4.35,2.06Zm-3.65,355.18c2.84.15,3.43,1.93,4.51,3.05,2.81,2.88,5.39,2.34,6.7-1.43,1.78-5.16-3.77-14.03-9.01-14.94-1.66-.29-1.73,2.4-2.6,1.27-1.75-2.29-4.98-2.48-6.41-4.98-1.53-2.67-2.97-1.86-4.09.21-2.85,5.24-7.49,8.61-12.29,11.69-2.3,1.48-2.47,2.51-.53,4.19,5.2,4.49,8.88,10.2,12.86,15.7,1.53,2.11,4.16,3.43,6.36,5.02.57.41,1.5.38,1.94-.29.53-.81-.29-1.22-.8-1.7-1.55-1.47-3.06-2.99-4.62-4.46-.68-.64-1.8-1.23-1.04-2.29.73-1.01,1.76-.33,2.52.22.87.62,1.69,1.33,2.44,2.08,1.61,1.6,3.21,3.18,5.38,4.05,2.01.81,2.95-.65,3.71-1.9,1.05-1.74-.8-1.91-1.72-2.34-2.56-1.2-4.6-2.95-6.23-5.23-.41-.57-1.09-1.25-.52-1.88.85-.93,1.55.05,2.05.58,1.98,2.16,4.39,3.61,7.05,4.77,1.64.72,2.5-.16,3.18-1.36.86-1.52-.47-1.85-1.42-2.22-3.47-1.34-5.16-4.3-7.43-7.83Zm-62.51-258.22c-.11.86-.16,1.89.68,2.25,4.48,1.93,6.73,6.3,10.26,9.24,4.57,3.8,7.62,8.46,9.18,14.16.53,1.95,1.04,3.92,1.61,5.86.19.64.18,1.6,1.02,1.7,1.1.13,1.21-.98,1.54-1.69.35-.75.48-1.61.82-2.36,3.05-6.69,5.6-13.69,11-18.99,1.56-1.53,1.4-2.27-.34-3.51-5.05-3.59-10.92-5.79-15.74-9.8-4.29-3.58-8.97-6.69-13.44-10.06-1.52-1.15-2.79-1.58-3.41.76-1.1,4.14-2.13,8.3-3.18,12.45Zm78.85-5.34c0-1.83.04-3.38-.02-4.93-.03-.8.11-1.86-.83-2.19-1.02-.36-1.31.77-1.89,1.29-4.42,3.97-7.93,8.86-13.11,12.08-3.78,2.36-7.7,4.22-11.89,5.65-1.56.53-3.2,1.13-1.87,3.55,3.18,5.8,5.17,12.01,6.02,18.59.12.96.16,2.44,1.5,2.55,1.12.09,1.33-1.23,1.7-2.05,3.08-6.81,6.82-13.12,12.97-17.66,5.79-4.27,8.22-10.03,7.41-16.88Zm-38.6-59c5.65-.03,7.77-2.52,6.83-8.14-.26-1.51-.5-3.17-1.28-4.43-2.59-4.22-4.37-8.67-5.01-13.61-.23-1.8-1.75-2.07-3.26-2.04-1.08.02-2.4.04-2.45,1.46-.2,6.12-2.66,11.82-3.24,17.84-.6,6.35,2,8.95,8.41,8.92Zm-19.46-35.35c-2.84-.11-5.37,1.01-8.59,3.83-4.62,4.04-4.81,10.54-.46,16.05,3.84,4.87,10.67,6.18,15.35,2.93.87-.6,2.03-1.15,1.73-2.43-.28-1.2-1.57-.86-2.43-1.08-4.17-1.06-5.59-3.12-4.9-7.18.23-1.34.77-2.5,1.67-3.51,1.32-1.49.73-2.07-.99-2.05-2.17.03-4.24.54-6.3,1.21-1.15.37-2.53.57-2.81-1.15-.26-1.57.56-2.46,2.19-2.6,2.13-.18,4.3-.24,6.38-.69,1.75-.38,5.05.62,4.95-1.25-.12-2.3-3.47-1.54-5.44-2.06-.11-.03-.24-.02-.36-.03Zm-88.16,517.43c3.22-.17,8.08,1.59,11.3-3.29.31-.47,1.27-.64,1.95-.73,1.84-.23,3.03-1.08,2.54-3.03-.46-1.87-1.66-3.22-3.86-2.72-1.21.28-2.36.18-3.53.01-5.35-.75-10.59-2.47-15.81,1.24-2.4,1.71-5.77,2.04-8.69,3.06-.88.31-1.92.66-1.87,1.86.05,1.2,1.14,1.33,2.01,1.68,4.76,1.93,9.81,1.52,15.95,1.92Zm130.48-513.24c-.2,1.06-.37,1.5-.35,1.92.05,1.96.96,4.27-2.72,2.01-2.09-1.28-5.02-1.54-7.56-2.29-.91-.27-2.44-.53-2.96.54-.71,1.47,1.1,1.57,1.81,2.12,2.42,1.88,4.54,3.81,2.57,7.12-1.12,1.88-2.76,3.34-5.01,3.75-2.04.37-2.17,1.3-1.36,3.02.83,1.75,2.09,2.43,3.92,2.54,6.42.36,11.82-4.08,13.05-11.12.53-3.01,1.88-6.28-1.4-9.62Zm-35.86,4.21c-2.52-.13-3.97,1.29-4.79,3.46-.67,1.78-.67,3.61.93,4.87,1.32,1.04,3.05,2.26,3.27-.95.14-2,1.31-2.6,3.13-2.44.78.07,1.73.46,2.14-.63.43-1.13,0-2.11-.8-2.9-1.07-1.06-2.42-1.42-3.89-1.41Zm20.99.33c-1.47.08-2.59.48-3.52,1.25-.81.67-1.87,1.39-1.28,2.64.69,1.46,1.59.04,2.4-.02,2.54-.2,4.05.52,3.05,3.44-.19.56-.57,1.16.13,1.54.59.32,1.18-.02,1.61-.44,1.34-1.29,3.32-2.41,2.51-4.66-.82-2.28-2.66-3.55-4.9-3.75Zm-59.13,238.74c1.57-.2,2.63.48,3.32-.48.18-.25,0-.92-.23-1.27-1.76-2.79-6.7-3.76-9.54-1.87-.66.44-1.65.74-1.55,1.74.12,1.14,1.22.94,1.97,1.06,2.22.35,4.45.62,6.02.83Zm70.26-245.36c-5.33-3.31-10.44-2.73-12.37.73,3.81-.23,7.63-.45,12.37-.73Zm-3.53,38.28c1.15-2.19,1.05-4.34.14-6.43-.91-2.08-1.99-4.11-4.3-5.01-.57-.22-1.22-.28-1.61.29-.14.2-.03.84.16.95,3.92,2.24,4.76,6.18,5.61,10.2Z"/><path class="cls-10" d="m461.59,696.9c1.91,3.51,1.14,7.1.69,10.66-.09.73-.73,1.22-1.55,1.16-.68-.05-1.03-.56-1.07-1.2-.11-1.87-.81-4.08.52-5.47,1.55-1.62,1.7-3.17,1.4-5.16Z"/><path class="cls-10" d="m458.32,722.32c.76-1.54-.99-4.98,2.31-4.72,3.26.25,1.84,3.44,1.88,5.5.02.79-.28,1.63-.61,2.37-.41.92-1.18,1.51-2.26,1.33-1.23-.21-1.3-1.19-1.32-2.17,0-.71,0-1.42,0-2.3Zm3.53-.73c-.24-1.13.53-2.99-1.29-3.08-1.34-.06-1.09,1.61-1.01,2.57.1,1.27-.78,3.37.85,3.6,1.48.21,1.21-1.87,1.45-3.09Z"/><path class="cls-10" d="m555.94,760.92c-2.64,6.36-6.25,12.15-10.43,17.62,3.48-5.87,6.95-11.74,10.43-17.62Z"/><path class="cls-10" d="m461.93,684c.83,1.63.56,3.05.51,4.44-.04,1.1-.35,2.34-1.71,2.14-1.37-.21-1.26-1.62-1.08-2.59.26-1.44.54-2.99,2.28-3.98Z"/><path class="cls-10" d="m463.09,653.27c.88.43.85,1.07.82,1.62-.12,1.72.6,3.57-.6,5.12-.27.35-1.13.12-1.16-.33-.13-2.18-1.1-4.56.94-6.41Z"/><path class="cls-10" d="m462.05,755.41c.71,2.18.6,4.3.46,6.42-.05.68-.08,1.58-1.04,1.55-.99-.02-.82-.92-.94-1.6-.39-2.34,1.29-4.21,1.52-6.38Z"/><path class="cls-10" d="m547.37,787.29c-1.66,2.77-3.32,5.54-4.98,8.3-.21-.12-.42-.25-.64-.37,1.62-2.77,3.25-5.54,4.87-8.3.25.12.5.25.75.37Z"/><path class="cls-10" d="m486.7,735.35c-.2,2.89-2.01,5.03-3.61,7.3,1.2-2.43,2.41-4.87,3.61-7.3Z"/><path class="cls-10" d="m536.32,814.54c1.48-2.11,2.97-4.22,4.45-6.33-.49,2.74-2.52,4.48-4.45,6.33Z"/><path class="cls-10" d="m382.73,625.63c-2.69,4.92-5.05,10.06-7.68,15.06,1.43-5.57,4.44-10.35,7.68-15.06Z"/><path class="cls-10" d="m345.75,805.14c7.15,10.67,14.9,20.94,20.68,32.47-6.65-10.99-14.49-21.2-20.68-32.47Z"/><path class="cls-10" d="m349.34,786.93c5.19,10.17,12.3,19.19,16.96,29.6-5.74-9.84-12.81-18.9-16.96-29.6Z"/><path class="cls-10" d="m348.58,818.73c5.85,8.72,13.06,16.49,18.63,25.46-6.76-8.06-13.73-15.98-18.63-25.46Z"/><path class="cls-10" d="m364.68,824.97c-6.17-9.77-12.35-19.54-18.52-29.31,7.14,9.16,13.26,18.96,18.52,29.31Z"/><path class="cls-10" d="m343.55,833.79c5.59,5.01,11.17,9.96,15.35,16.24-5.12-5.41-10.23-10.83-15.35-16.24Z"/><path class="cls-10" d="m350.58,766.32c2.81,5.58,5.92,10.99,8.76,16.56-3.55-5.18-6.61-10.62-8.76-16.56Z"/><path class="cls-10" d="m440.42,540.29c3.52,7.39,10.19,7.41,19.22,3.53-2.84,3.19-9.75,4.82-14.16,3.18-3.1-1.15-5.06-3.32-5.06-6.71Z"/><path class="cls-10" d="m437.8,563.76c5.96,4.52,12.11,7.52,19.28,2.47-4.57,5.5-15.02,4.18-19.28-2.47Z"/><path class="cls-10" d="m458.35,533.01c-6.37-1.57-11.81-.6-17.37-.1,2.63-2.47,13.39-2.71,17.37.1Z"/><path class="cls-10" d="m394.03,509.36c-.18-2.4,1.31-2.91,2.97-2.53,4.43,1.03,4.59,5.1,5.77,8.47-2.99-1.82-2.21-8.97-8.74-5.95Z"/></svg>