<?xml version="1.0" encoding="UTF-8"?><svg id="personnage17" xmlns="http://www.w3.org/2000/svg" xmlns:xlink="http://www.w3.org/1999/xlink" viewBox="0 0 1080 1080"><defs><style>.cls-1{fill:url(#Dégradé_sans_nom_6);}.cls-1,.cls-2,.cls-3,.cls-4,.cls-5,.cls-6,.cls-7,.cls-8,.cls-9,.cls-10,.cls-11,.cls-12{stroke-width:0px;}.cls-2{fill:url(#Dégradé_sans_nom_4);}.cls-3{fill:url(#Dégradé_sans_nom_4-2);}.cls-4{fill:url(#Dégradé_sans_nom_6-2);}.cls-6{fill:#757473;}.cls-7{fill:#3b2f35;}.cls-8{fill:#585254;}.cls-9{fill:#beaa9a;}.cls-10{fill:#aeb9b0;}.cls-11{fill:#aaaaa0;}.cls-12{fill:#f01048;}</style><linearGradient id="Dégradé_sans_nom_4" x1="559.06" y1="604.3" x2="655.92" y2="526.86" gradientUnits="userSpaceOnUse"><stop offset="0" stop-color="#3b2f35"/><stop offset=".48" stop-color="#aeb9b0"/></linearGradient><linearGradient id="Dégradé_sans_nom_6" x1="647.66" y1="730.94" x2="583.23" y2="711.09" gradientUnits="userSpaceOnUse"><stop offset="0" stop-color="#3b2f35"/><stop offset=".56" stop-color="#aeb9b0"/></linearGradient><linearGradient id="Dégradé_sans_nom_4-2" x1="562.49" y1="674.76" x2="599.6" y2="731.32" xlink:href="#Dégradé_sans_nom_4"/><linearGradient id="Dégradé_sans_nom_6-2" x1="622.94" y1="807.81" x2="380.79" y2="733.22" xlink:href="#Dégradé_sans_nom_6"/></defs><path class="cls-10" d="m575.79,560.78s-3.71-5.71-2.98-8.38,2.38-4.52,3.96-7.49,4.85-3.07,3.43-5.42-2.4-11.93-2.4-11.93c1-4.11-2.25-16.65,12.23-26.74s37.7-10.82,42.45-9.13,20.58,7.05,22.99,9.62,8.54,21.9,8.54,21.9c-1.31,2.43.41,11.78.88,13.28s5.37,11.58,6.19,12.72,1.87,7.84,2.11,9.85-.49,10.24-1.53,12.52c-1.71,3.76-5.04,7.12-7.76,8.49-3.37,1.69-9.38.91-11.64.88s-6.31-4.64-8.73-2.21c-2.42,2.42-1.94,11-2.87,20.14-.93,9.14,5.05,22.07,5.38,22.4s5.15,0,5.15,0c0,0,4.47,2.46,1.07,9.98-3.39,7.52-27.84,36.03-30.41,36.74s-13.74,6.52-14.22,3.37-7.99-12.52-8.23-15.47-1.94-4.38.97-7.06,4.12-4.33,6.06-7.75,1.88-4.8,2.76-8.59c.88-3.79-.77-3.01.88-9.73,2.48-10.1-2.02-9.58-5.5-9.58s-6.96.22-11.31-1.94c-4.35-2.16-7.92-8.6-7.92-12.12s2.18-6.31.6-10.42-3.73-4.7-5.74-9.09c-2.02-4.4-8.2-5.94-6.86-9.09,1.34-3.15,2.45-8.56,2.45-8.56v-1.15Z"/><path class="cls-10" d="m547.58,650.65s4.23-1.56,7.18-2.38,5.08.12,6.26-.23,3.63.14,5.07.76,1.54,2.28,1.13,3.56-1.3,2.25-1.58,2.97.35,1.7.7,3.15.53,4.27,0,5.1-6.13.71-6.59,1.44,1.18.06,0,3.55-2.64,6.11-4.82,5.89-6.68-2.89-6.19-4.83.23-11.46,0-13.19-1.15-5.81-1.15-5.81Z"/><path class="cls-10" d="m585.35,662.48c-.6-.23-5.61-1.39-6.54,0s-2.94,1.01-3.29,3.6-3.12,7.58,0,7.38c3.12-.2,7.13,1.85,9.83.84s2.85-3.2,3.73-4.78.58-5.25,0-5.11-3.73-1.93-3.73-1.93Z"/><path class="cls-10" d="m551.04,678.08s5.16,12.17,9.97,13.75c4.82,1.58,1.11,1.88,1.11,1.88,0,0,1.12,1.71,5.3,2s5.63-2.06,6.62-4.12,3.72-9.46,3.75-9.58,2.4-1.82,2.4-1.82l5.63,11.03-4,8.49s-5.1,6.55-4.73,7.52,4.85,8.34,22.43,25.98,34.55,36.81,34.55,36.81l4,4.97s3.84-6.92,3.37-8.49-.67-2.3.04-2.42,12.59,2.18,16.1,2.18,13.16-1.45,14.7-.85,1.73,5.33,0,8.24-13.61,28.37-15.43,29.46-9.27,8.12-16.49,4.73-52.53-53.46-52.53-53.46l-16.94-24s-6.67-8.49-12-7.88-10.67,3.27-11.88,1.58-10.79-15.03-10.79-15.03c0,0,.85-3.64,1.94-4.12l-2.42-7.07s.85-2.43,2.3-2.77c0,0,.85-2.28.73-3.25s-1.94-5.38-1.09-5.21,2.18-2.42,3.52-1.94,1.58-3.76,1.58-3.76c0,0,5.49-8.36,8.24-2.84Z"/><path class="cls-8" d="m589.63,856.1s10.67,50.95,12.32,62.31c1.66,11.35,10.78,80.14,10.85,88.53.06,7.08-2.46,13.53-2.46,13.53l13.95,1.6,3.17-5.24,7.26,1.24s8.48-1.46,8.6-5.26c.12-3.81-5.7-5.51-4.14-9.05,1.56-3.54-3.95-40.73-3.95-40.73l.47-44.72,13.72-56.87s1.18-4.16-1.26-4.07-7.67-1.25-7.67-1.25l-2.69-2.29h-27.48l-20.72,2.29Z"/><path class="cls-7" d="m610.35,1018.06s-13.4,5.76-15.54,6.07-8.09-1.4-9.45,0c-1.36,1.4-.49,6.89-.49,6.89,0,0-4.12,3.93-5.36,5.92-1.24,1.98.52,12.64,9.32,12.88,8.78.24,12.9.34,17.84-3.94,4.51-3.91,4.41-6.29,7.73-7.81,3.37-1.54,11.12-3.47,11.12-3.47l15.01,2.22s5.15-2.67,3.77-9.84c-1.38-7.17-.95-11.9-.95-11.9l-17.35,4.22-1.68,4.18-12.47-2.84-1.48-2.56Z"/><path class="cls-6" d="m579.33,678.08s-.6-6.1,1.65-4.62c2.25,1.48,8.09-2.5,8.09-3.94s3.48-8.32,3.48-8.32l2.02-7.34s5.41,4.03,6.61,6,3.32,10.75,6.46,11.47c3.15.72,15.07-3.56,18.22-6.93,3.14-3.37,18.91-19.67,20.18-23.84,1.27-4.17,8.15-17.08,8.15-17.08,0,0,2.33-1.79,3.54,0s4.83,10.21,7.37,10.72,16.69,13.25,19.66,22.74,5.9,65.54,5.9,65.54c0,0,.13,40.83-.51,40.46s-9.47,4.8-12.65,3.83-27.51-1.5-31.47-2.06c-4.55-.65-5.53-3.32-5.53-3.32v12.5s-5.44-1.79-8.49-6.18-44.17-46.77-44.17-46.77c0,0-9.77-7.99-9.29-11.33s.35-3.94,1.63-5.85c1.29-1.91,6.34-11.16,5.63-12.54s-6.43-11.65-6.5-13.14Z"/><path class="cls-6" d="m571.81,729.12s47.52,67.26,61.56,73.49,23.22,2.82,25.14,0c1.93-2.82,13-26.98,13-26.98l2.91-6.15s2.57,29.38,1.13,41.94c-1.44,12.56-2.19,26.28-2.29,28.16s2.29,9.67,2.29,9.67l-9.56,1.65s2.69,9.33,0,9.38c-8.69.16-21.77-4.82-21.77-4.82l-5.51-2.92-68.88,1.83s-4.81-1.82-4.25-11.27-4.4-54.23-1.02-65.91c3.38-11.67,5.15-41.21,5.15-41.21l2.1-6.87Z"/><path class="cls-9" d="m556.07,645.18s5.16-20.12,7.6-19.23,5.64,1.22,7.28,1.71,5.97,1.78,5.81,3.58-2.09,9.86-2.99,11.25-.94,5.42-2,5.56.13,5.28.13,5.28l-3.29-.96s-1.22-4.44-4.36-4.44-6.75,0-6.75,0l-1.43-2.75Z"/><path class="cls-9" d="m590.92,629.92s-5.04,12.2-5.58,13.42-2.98,3.94-2.9,5.47-2.25,3.72-.28,4.64,4.58,0,4.58,0l6.42-12.39s2.01-6.06,1.31-7.87-3.55-3.27-3.55-3.27Z"/><path class="cls-11" d="m586.07,656.93c1.42,0,1.42-2.2,0-2.2s-1.42,2.2,0,2.2h0Z"/><path class="cls-6" d="m586.07,655.83l-1.42,5.38s-3.24-.25-5.85,1.27-3.29,3.6-3.75,5.49,1.72,10.11,1.72,10.11l1.03,5.84s-4.65,9.26-5.08,11.9-8.29-2.47-10.6-2.12c-2.31.35-8.57-7.15-7.89-9.32s-.16-4.8,0-6.31.69-3.61,1.51-4.62,2.7-4.09,4-4.87,0-3.55,0-3.55l5.89-1.44,1.58-1.79-2.52-5.98,2.52-3.46,6.13,2.7,12.74.76Z"/><path class="cls-12" d="m582.44,623.76s-10.26-.03-10.53.86c-.96,3.04,4.61,3.84,4.86,4.97s-.8,6.52-1.52,8.77-.16,3.15,0,4.12.01,2.14-1.2,2.69-5.96,7.22-1.33,9.12,8.6-2.74,8.6-2.74c0,0,6.08-13.11,6.43-13.96s.75-8.68.75-8.68l-6.06-5.15Z"/><path class="cls-2" d="m632.48,491.68s-10.4,2.24-27.83,8.73c-4.13,1.54-10.32,11.05-11.06,20.59-.74,9.54-6.84,30.33-6.84,30.33l-2.97,17.42,13.19,6.45,4.41,14.44,1.63,3.52c2.92,6.32,10.57,8.85,16.68,5.53h0s0,0,0,0c5.24-2.65,10.78,3,8.03,8.18-6.17,11.63-7.27,14.11-12.15,26.32-.95,2.37-20.98,20.68-20.98,20.68l11.87-12.81c-2.19.85,7.52-24.53,3.2-26.82-4.57-2.43-16.38-3.02-16.38-3.02,0,0-8.52-1.7-7.92-12.12s1.71-10.43-5.15-19.52c-6.86-9.09-4.41-18.8-4.41-18.8,0,0-4.92-12.2,3.57-18.81s-6.15-16.46-2.15-25.12c4.01-8.67,20.7-24.62,32.25-25.15s23.01,0,23.01,0Z"/><polygon class="cls-1" points="653.98 685.89 619.62 756.87 638.08 774.99 640.51 761.41 653.98 685.89"/><path class="cls-3" d="m576.77,674.58c-.66.83-11.65,2.1-12.08,1.61s-6.29-6.33-6.29-6.33c0,0-3.96,10.97-3.93,11.69s1.86,5.68,3.03,7.56,7.92,6.39,8.92,6.5,3.44.56,5.49-1.06,6.43-11.38,5.89-12.53-1.03-7.43-1.03-7.43Z"/><path class="cls-4" d="m582.16,814.63c8.03,14.55,18.87,32.87,22.91,31.71,4.04-1.16,17.87,10.13,17.87,10.13l-53.11-2.09s-7.68-43.57-4.2-67.85c3.48-24.27,6.18-57.42,6.18-57.42,0,0,2.32,70.97,10.35,85.51Z"/><path class="cls-9" d="m595.66,534.11s-6.02.54-7.8,1.24-9.02,4.52-8.49,6.61.37,7.7,2,7.43,4.71,3.52,5.38,1.94,5.88-8.8,5.88-8.8l3.04-8.42Z"/><path class="cls-9" d="m618.18,532.48s-5.21,2.4-4.78,4-4.43,8.42,0,11.69c4.43,3.27,11.7,4.33,12.43,2.65s4.58-3.98,4.9-5.44,2.95-9.26-3.4-11.28-9.15-1.63-9.15-1.63Z"/><path class="cls-5" d="m633.53,592.03c.72-3.48,2.49-6.57,3.65-9.82,1.25-3.52,2.1-7.29,4.16-10.37,3.89-5.81,3.01-12.68,4.76-18.95,1.53-5.49,3.26-10.69,7.46-14.78,2.39-2.32,3.37-5.92,6.85-7.34,1.24-.51.92-2.12,1.06-3.32,2.06-17.24-10.44-29.95-25.72-32.86-15.96-3.04-31.74-1.91-45.2,8.59-9.29,7.25-13.49,12.82-12.82,26.08-1.83-4.03-1.64-8.36-.51-12.42,1.72-6.21,6.15-10.81,11.01-14.66,8.68-6.88,18.74-10.71,29.71-12.14,1.08-.14,2.13-.47,3.19-.71,3.65,0,7.31,0,10.96,0,1.31,1.32,3.11,1.23,4.73,1.66,7.32,1.95,13.79,5.57,19.17,10.82,5.94,5.78,7.75,13.4,8.01,21.4.08,2.53.6,4.26,2.88,5.76,4.2,2.76,3.6,7.36,3.63,11.6,0,.84-.23,1.7-.48,2.51-.78,2.55-.28,4.42,1.48,6.74,7.86,10.34,2.12,28.62-10.12,32.8-4.31,1.47-8.47.79-12.01-2.2-1.76-1.49-2.92-1.41-3.88.73-4.83,10.82-7.41,21.68-1.3,32.98.96,1.78,2.28,2.78,3.99,2.59,3.86-.43,6.59,1.62,8.13,4.43,4.1,7.49,10.26,12.97,16.71,18.08,5.96,4.73,9.14,11.06,11.73,17.75,3.37,8.69,5.01,17.9,5.47,27.17.91,18.65,2.46,37.27,2.41,55.97-.02,6.57-1.57,13.11-.31,19.72.27,1.42-1.02,2.33-2.17,3.14-3.12,2.22-6.82,2.5-10.39,3.15-2.86.51-4.21,1.5-4.39,4.9-.62,11.63,1.93,23.12,1.19,34.72-.7,11.08-1.35,22.16-2.06,33.23-.16,2.45-.19,4.83.64,7.22,1.13,3.28.17,5.02-3.39,5.1-4.14.09-5.29,1.83-5.4,5.77-.13,5.01-.74,5.21-5.46,4.18-2.85-.62-5.7-1.24-8.55-1.88-1.75-.39-2.63.03-2.91,2.07-2.55,18.5-5.84,36.85-11.05,54.81-1.11,3.84-.69,7.8-.41,11.66.77,10.87.31,21.72.11,32.58-.15,7.92.32,15.83,1.64,23.7.95,5.65,1.17,11.42,1.01,17.17-.06,2.13.08,4.12,1.77,5.73.49.47.91,1.26.95,1.93.46,8.02,2.37,15.88,2.46,23.94.03,2.73-.86,4.02-3.81,3.94-4.84-.14-9.6-.95-14.37-1.43-4.34-.43-9,1.29-13.35,2.61-2.07.63-1.46,3.57-2.63,5.35-5.74,8.69-13.73,10-23.01,7.85-.59-.14-1.18-.31-1.78-.41-7.25-1.15-9.59-3.49-10.13-10.68-.21-2.85,1.09-5.22,3.63-6.72,1.15-.68,2.21-1.11,2.17-2.93-.1-4.71,2.62-7.7,7.43-8,6.12-.37,11.99-1.33,17.55-4.17,1.96-1,2.64-2.02,2.71-4.11.25-7.48-.92-14.84-1.49-22.26-1.02-13.5-3.45-26.82-4.5-40.33-1.79-23.09-4.72-46.06-10.8-68.5-2.07-7.66-3.52-15.47-4.25-23.38-.26-2.8-1.5-3.41-3.99-3.34-5.95.18-11.91.63-17.85-.38-3.01-.51-4.26-1.58-3.38-4.89.9-3.37-.26-6.78-.83-10.13-.69-4.1-1.31-8.21-1.02-12.38,1.1-15.73-.02-31.49,1.2-47.24,1.22-15.58,3.37-31.02,5.74-46.44.88-5.74-.63-7.97-6.59-10.47-3.75-1.57-7.74-1.13-11.46.21-3.52,1.26-5.69.32-7.52-2.87-2.72-4.72-5.66-9.33-9.44-13.31v-1.47c3.68-2.85,3.68-3.72,0-9.53v-.73c2.63-2.34,4.86-4.78,2.97-8.72-.4-.84-.67-2.33.2-2.74,4.66-2.23,5.23-9.07,11.23-9.82,1.87-.23,2.26-1.61.94-3.21-.45-.55-.87-1.27-.94-1.95-.58-5.56-1.24-11.13-1.52-16.71-.16-3.14,1.5-5.37,4.86-5.81,3.13-.41,4.44-2.36,5.18-5.28,1.25-4.96,2.74-9.87,5.02-14.49,1.12-2.27,2.71-3.46,5.26-2.68,1.54.47,2.93.11,4.21-.6,3.56-1.98,7.36-1.26,11.09-1.01,1.46.1,2.91.85,3.75,2.06,1.04,1.51,2.45,2.21,4.02,2.95,3.84,1.8,4.74,4.02,3.8,8.36-1.33,6.14-4.22,11.68-6.55,17.43-.64,1.58-1.2,3.19-1.94,4.71-.81,1.67-.01,2.4,1.35,3.12,1.59.85,2.48.24,3.25-1.13,2.14-3.82,4.45-7.56,6.4-11.47,1.06-2.13,2.82-3.32,4.61-4.46,3.33-2.12,5.13-5.03,5.52-8.92.51-5.1,1.22-10.16,3.03-15.01.21-.56.23-1.2.26-1.81.23-5.14-.86-6.11-5.82-5.24-10.72,1.88-20.24-6.58-19.5-17.33.34-4.89-1.03-9.41-3.11-13.76-.59-1.24-1.54-1.82-2.85-1.97-1.62-.18-1.48,1.36-2.09,2.14-1.04,1.34-1.1,4.44-3.29,3.57-1.93-.77.35-2.9.43-4.47.14-2.58.43-5.23-.81-7.52-1.91-3.49-1.27-6.66.78-9.61,1.47-2.11,1.5-4.02.31-6.1-2.55-4.47-1.65-8.6.95-12.73,1.69-2.68,3.58-5.36,3.62-9.46-2.56,2.29-3.63,5.03-5.9,6.66-.68.48-1.32,1.37-2.21.72-.83-.61-.47-1.51-.08-2.32,2.56-5.36,5.23-10.36,12.06-11.48,4.21-.69,7.14-4,10.12-6.9,1.45-1.41,2.73-3.06,5.3-3.85-.56,3.93-3.25,6.03-5.48,8.07-3.07,2.81-5.92,6.24-10.6,6.7-1.31.13-2.37,1.04-1.59,2.58.79,1.57,1.81.51,2.72.01,1.79-.98,3.55-2.02,6.73-2.23-2.09,1.15-3.31,1.83-4.54,2.48-2.43,1.29-3.89,3.26-4.24,6.02-.43,3.32,1.35,6.11,4.07,6.36,1.6.15,4.56-3.09,4.94-5.22.26-1.45-.97-1.8-1.59-2.63-1.38-1.83-.62-4.4,1.34-4.05,4.88.85,5.22-2.88,6.57-5.69.36-.75.53-1.6.93-2.87.8,2.76-.08,4.91-1.01,6.83-2.59,5.37-4.82,10.95-8.45,15.78-2.76,3.66-4.51,7.79-5.23,12.35-.26,1.64-.41,3.27,1.14,4.31,1.53,1.02,3.22.9,4.86.05,2.51-1.32,4.52-3.3,6.64-5.13,2.86-2.47,5.97-3.73,9.75-2.68,1.65.46,3.19.07,4.53-.82,1.52-1,3.15-2.15,3.4-4.1.3-2.37-2.62-1.16-3.33-2.58,3.19-1.5,5.04-.82,5.46,2.31.21,1.57.79,2.22,2.14,2.92,8.41,4.37,12.23,12.56,10.49,22.89-1.49-3.71-3.99-4.88-7.42-4.25-.53.1-1.44.02-1.66-.32-2.31-3.45-6.29-3.13-9.44-3.44-3.76-.37-7.56-.69-11.32-1.19-.83-.11-1.47-.03-1.84.72-.49,1.02.16,1.61.94,2.06,1.52.86,3.39,1.28,4.56,4.11-4.94-1.81-9.72-5.66-12.8,1.12-.29-.25-.57-.39-.57-.52.02-1.41,1.18-3.36-.26-4.05-1.14-.54-3.12.41-4.08,1.58-1.02,1.24-2.16,2.8-.94,4.64,1.36,2.04,2.48,4.16,3.07,6.59.68,2.83,1.15,5.48.49,8.53-1.41,6.56,5.6,14.17,13.05,14.72,3.89.29,7.28-.78,10.69-2.85,6.47-3.94,11.13-10.3,18.19-13.39,1.52-.66,1.39-2.53,2.43-3.53.82-.79,1.88.17,2.8-.2-.86,2.02-1.44,4.43-3.49,5.43-6.46,3.13-10.84,9-16.89,12.62-2.23,1.34-2.79,3.04-2.53,5.48.26,2.4,1.33,4.85.47,7.24-1.7,4.77-1.74,9.81-2.76,14.67-1.02,4.86-2,10.09-5.46,13.75-2.04,2.16-2.4,4-1.31,6.01,2.02,3.73,4.5,7.2,6.87,10.72.63.94,1.95,1.69,2.86,1.25,2.67-1.28,5.76-.49,8.36-2.38,12.93-9.39,22.94-21.27,30.41-35.34,1.26-2.37,1.66-5.09,1.71-7.79.02-1.01-.14-2.87-1.58-2.03-3.33,1.94-4.54-.63-5.69-2.5-2.93-4.79-5.5-9.76-5.16-15.7.22-3.76-.27-7.56.67-11.29.31-1.21.33-2.48-1-3.21-1.27-.7-1.51.6-2.24,1.1-1.06.72-2.37,1.08-3.32,2.04Zm-60.6,94.49c.99-.94,2.96-1.21,2.52-3.42-2.15.34-3.17,2.14-4.88,2.76-.57.21-1.03.8-.63,1.47.48.81,1.28.36,1.97.3-.49.54-.91,1.21-1.5,1.58-.84.53-1.08,2.36-2.46,1.59-1.02-.57-.27-1.8-.19-2.72.53-6.32,1.46-12.58,2.58-18.83.73-4.06.96-8.22,1.32-12.35.14-1.6-.96-2.4-2.33-2.88-1.05-.36-1.88-.07-2.58.79-.68.83-.84,1.54-.31,2.63,2.74,5.7,2.49,6.27-3.67,7.9-1.66.44-2.68,1.04-2.38,2.92.42,2.65-.81,4.47-3,5.73-1.55.89-2.29,2.2-.93,3.51,1.68,1.63,1.13,3.63.58,4.98-1.56,3.86.42,6,3.06,8,1.16.88,2.53,1.46,3.68,2.35,1.86,1.44,3.69,3.17,6.17,1.63,2.55-1.59,2.2-5.07,4.15-7.12-.39-.28-.77-.55-1.16-.83Zm76.87-39.67c2.38-5.2,5.26-10.14,7.26-15.54,1.3-3.51.79-5.72-2.87-7.81-.58,4.69-2.19,8.9-4.23,13.14-2.48,5.16-5.84,9.64-9.34,13.92-5.84,7.15-11.98,14.18-20.01,19.04-8.81,5.33-13.47,3.94-18.29-5.01-1.09-2.02-1.7-4.44-3.97-6.17-.26.89-.56,1.36-.48,1.78.96,5.6,2.7,10.92,6.14,15.5,1.43,1.91,3.41,2.18,5.87,1.92,8.02-.87,13.22-6.85,19.67-10.52,5.49-3.12,9.07-8.42,13.74-12.5-3.4,5.6-7.7,10.38-13.26,13.85-6.42,4-12.02,9.5-20.12,10.46-3.67.44-6.1-.53-7.93-3.64-2.95-5.01-4.82-10.37-5.53-16.15-.1-.78.28-1.92-.92-2.06-.81-.1-1.21.77-1.49,1.41-1.47,3.36-4.46,6.13-3.24,10.49.5,1.8-.94,3.52-2.74,4.34-1.54.7-3.19,1.17-4.81,1.65-1.39.41-2.62.84-2.15,2.7.6,2.36.9,4.82,2.13,6.98.45.8.73,2.05,1.96,1.82,1-.18.9-1.29,1.11-2.11,1.28-5.06,3.84-9.45,7.18-13.46-3.79,5.88-5.07,12.59-6.54,19.21-.97,4.36-2.73,8.13-5.42,11.78-3.95,5.37-3.46,7.86.98,12.83,1.22,1.36,2.42,2.75,3.73,4.03,16.52,16.2,31.81,33.58,48.07,50.02,1.28,1.29,2.33,4.16,4.15,3.31,1.9-.9.78-3.78.9-5.79.07-1.13-.39-2.13-1.19-2.98-.57-.6-1.49-1.21-1.05-2.15,1.47-3.09-1.01-2.74-2.78-2.93,4.08-4.1,4.85-9.16,6.24-14.29-2.07.06-2.16,1.95-4.16,1.81,4.02-2.57,5.52-5.97,5.84-10.1.15-1.89-.21-1.78-.78-5.01-.34-1.9,2.65-3.41,3.11-5.8,1.66-8.61,3.37-17.21,5.22-25.78,1.06-4.94,2.33-9.84,4.5-14.44-3.29,14.64-5.61,29.43-8.42,44.13-1.88,9.81-3.89,19.59-5.91,29.37-.59,2.86.51,3.98,3.3,4.26,9.27.91,18.43,2.9,27.85.67,5.16-1.22,10.58-1.36,15.89-1.94,1.97-.22,3-.98,3.03-3.22.08-6.59.33-13.18.57-19.77.46-12.48-.9-24.89-1.62-37.31-.71-12.28-.86-24.65-4.15-36.66-2.53-9.22-6.31-17.56-14.15-23.71-2.92-2.29-6.09-4.56-8.2-7.76-1.9-2.88-3.01-1.92-4.25.49-2.46,4.77-5.14,9.41-8.4,13.69Zm-4.64,164.51c-2.52-.25-4.33-1.14-6.04-2.34-7.73-5.42-14.44-12.09-20.72-18.96-16.03-17.53-31.45-35.63-45.01-55.23-.47-.68-.75-1.77-1.77-1.61-1.14.18-.84,1.28-.89,2.09-.98,15.08-4.19,29.87-4.84,45.04-.95,22.19-2.4,44.33.51,66.47.9,6.87.79,6.91,7.93,6.98,2.19.02,4.38-.05,6.57-.15,10.46-.47,20.91-.83,31.38-.43,3.88.15,7.8-.03,11.67-.35,11.14-.94,22.27-1.78,33.45-2.08,4.58-.12,9.15-1,13.78-.76,1.94.1,2.78-.78,1.82-2.71-1.03-2.08-.76-4.32-.65-6.48.67-12.66,1.38-25.31,2.2-37.96.59-9.12-1.95-18.14-.76-27.28.08-.64.15-1.53-1.1-1.7-.22.31-.57.66-.74,1.08-3.64,8.93-7.72,17.63-12.42,26.06-2.91,5.23-7.25,7.8-13.01,7.61-2.67-.09-2.6.69-1.38,2.7Zm-99.39-108.25c-3.7-.45-4.55-2.25-5.26-4.51-.35-1.13-.8-3.47-2.77-2.43-1.51.8-.84,2.64-.02,3.92,1.11,1.75,2.42,3.37,3.5,5.13.51.83,1.95,1.79.72,2.78-.99.8-1.63-.55-2.25-1.24-.5-.56-1.03-1.16-1.83-.65-.84.53-.97,1.39-.58,2.26.45,1,.91,2.01,1.53,2.9,2.16,3.09,4.52,6.04,6.53,9.23,1.51,2.39,2.98,3.15,5.94,2.29,7.09-2.06,13.78-1.34,18.94,4.76,1.41,1.67,2.57,3.55,3.89,5.29,13.29,17.48,27.43,34.27,41.86,50.8,6.81,7.81,14.41,14.86,22.46,21.4,1.36,1.11,2.84,1.67,4.66,1.77,5.53.3,9.48-.93,13.16-6.15,6.49-9.2,10.89-19.27,15.23-29.45,1.52-3.57,1.06-4.17-2.84-3.41-6.4,1.25-12.53.67-18.67-1.28-1.95-.62-4.06-.75-6.11-1.08-1.67-.26-2.74.44-2.46,2.18.76,4.65-2.33,9.18.4,14.7-2.09-2.14-2.69-4.39-5.2-4.06-.33.04-1.18-.39-.6-.89,2.33-2-.12-3.09-.95-3.99-5.14-5.51-10.01-11.24-15.45-16.5-9.36-9.05-17.4-19.4-26.68-28.57-5.19-5.14-10.5-10.23-14.61-16.33-1.46-2.16-5.01-4.07-1-7.59,1.91-1.68,2.79-4.74,4.57-6.93,1.71-2.1,2.51-4.51,1.18-7.14-1.21-2.39-2.64-4.65-3.1-7.37-.13-.78-1.3-1.95-1.6-.71-.75,3.12-3.6,6.09-1.94,9.37,1.37,2.71-1.18,4.35-1.76,4.26-3.05-.52-6.06,1.68-9.01,0-6.85-3.91-13.23-8.32-16.14-16.15-.67-1.79-1.51-1.91-3-1.22-1.83.85-2.83,2.14-2.92,4.23-.15,3.95-.44,7.9,1.11,11.74-2.75-1.54-3.18-4.06-3.17-6.81,0-1.01-.21-2.09-1.61-1.86-1.13.18-1.65,1-1.49,2.13.08.59.35,1.16.53,1.74,1.42,4.61,3.32,8.99,6.81,13.47Zm56.64,152.71c-1.83,0-5.23,0-8.64,0-2.33,0-3.52.65-3.1,3.51.58,3.99,1.19,7.97,2.17,11.87,6.22,24.83,11.26,49.86,13.72,75.38,1.48,15.41,3.11,30.8,4.92,46.17.88,7.53,1.73,15.04,1.36,22.62-.2,4.17.11,4.65,4.35,4.87,1.09.06,2.2-.02,3.28.14,2.58.39,3.53-.85,3.58-3.26.11-5.61.66-11.21.77-16.79.33-16.49.89-33.01.09-49.46-.86-17.57,3.02-34.23,7.82-50.71,3.57-12.26,5.35-24.76,7.45-37.25,1.05-6.21-.1-7.23-6.69-7.1-3.52.07-7.03.56-10.55.66-6.33.16-12.59-1.32-20.51-.65Zm25.06,153.47c-.18,7.08,1.31,8.33,8.45,7.14.48-.08.95-.23,1.41-.36,3.5-.97,5.14-4.18,2.83-6.83-2.36-2.71-2.05-5.51-2.16-8.51-.16-4.51.08-9.12-.78-13.5-2.6-13.2-2.11-26.45-1.58-39.75.24-5.85.15-11.73-.16-17.58-.29-5.41-.41-10.84,1.15-15.98,5.17-17.08,7.99-34.66,11.28-52.14.4-2.14.64-3.87-2.2-4.34-3.04-.51-3.34,1.32-3.64,3.63-1.17,9.07-1.62,18.35-3.94,27.13-2.93,11.08-4.76,22.42-8.16,33.38-1,3.24-1.79,6.58-1.81,10.05-.13,25.89.62,51.78-.7,77.66Zm44.85-447.78c.18-2.46-.54-5.06-1.33-7.63-1.74-5.68-6.12-7.55-11.73-5.77-6.71,2.13-6.97,9.11-10.62,13.52-3.05,3.69-.39,8.45.45,12.65,1.09,5.44,6.27,8.02,11.44,5.96,7.66-3.05,11.8-9.53,11.79-18.72Zm-67.82,473.26c-1.94-5.17-4.75-6.61-9.92-5-4.3,1.34-8.31,3.42-12.23,5.62-2.12,1.19-2.67,3.01-1.68,5.29.38.88.78,1.82.85,2.76.23,2.93,1.95,3.83,4.61,4.05,3.37.28,6.73.83,10.08,1.3,6.12.86,12.13-2.5,14.19-8.27,1.13-3.15,2.58-5.39,6.35-5.17,1.05.06,2.17-.33,3.19-.68,1.4-.49,3.63.17,4.02-1.81.54-2.74.48-5.61-.75-8.23-.48-1.01-11.82-3.15-12.67-2.42-2.14,1.86-4.64,3.09-7.13,4.34-1.54.77-1.77,1.53-.18,2.56,2.12,1.36,2.69,3.13,1.27,5.66Zm-42.38-390.9c-1.74,1.1-3.83.21-3.46,2.17.26,1.39,1.8.98,2.8.94,3.02-.14,5.54.33,6.58,3.76.26.86,1.21,1.57,2.33,1.34.28-.06.67-.42.71-.7.18-1.01.01-1.97-1.08-2.41-.58-.24-1.16-.39-1.07-1.5,2.68.44,3.34-1.59,3.91-3.57.86-3.03,1.68-6.07,2.38-9.14,1.16-5.1.79-5.65-4.29-7.08-1.05-.29-2.11-.59-3.18-.78-1.86-.32-3.3.08-3.98,2.17-1.24,3.81-2.64,7.57-3.94,11.36-.53,1.55-.52,2.94,2.28,3.45Zm69.95,375.18c-1.6.91-3.84-1.61-5.47.96-1.31,2.08-1.59,10.53-.15,12.4.27.34.76.6,1.2.71,4.35,1.05,8.68,2.08,13.23,1.9,2.14-.09,3.04-.85,3.27-2.94.47-4.2-.63-8.22-1.26-12.28-.28-1.8-1.84-2.01-3.46-1.45-2.33.81-4.71,1.14-7.36.7Zm-51.1-345.58c4.96.02,8.13-2.08,8.09-5.38-.04-3.06-3.67-5.69-7.73-5.6-3.11.07-5.95,3.15-6.09,6.6-.12,3.04,1.6,4.36,5.73,4.38Zm84.12,182.12c-.18-1.41.43-3.78-2.31-3.36-5.66.86-11.33,1.23-17.04,1.34-.94.02-2.28-.02-2.41,1.14-.15,1.44,1.33,1.67,2.34,1.78,4.97.54,9.58,2.54,14.48,3.36,3.76.63,4.82-.18,4.94-4.25Zm-93.97-184.33c.09,0,.18.02.27.03-.07.97-.17,1.94-.2,2.91-.03.79-.51,1.96.66,2.1.66.08,1.48-.66,2.14-1.15,1.03-.78.39-1.65.13-2.6-1.67-6.09,1.15-10.7,7.27-11.58,2.38-.34,3.27-1.63,3.09-3.62-.23-2.54-2.23-.99-3.44-1.09-1.81-.15-3.64.05-5.44-.13-2.19-.22-3.07.73-3.25,2.81-.35,4.11-.81,8.21-1.23,12.32Zm6.87-126.82c-1.14,2.23-2.44,4.39-3.36,6.71-1.1,2.77-.5,5.48,1.05,7.99.39.63.8,1.14,1.65,1.22,2.61.24,7.69-4.99,7.29-7.61-.06-.41-.42-.99-.77-1.1-3.45-1.12-4.58-3.94-5.85-7.21Zm-18.61,111.72c-2.99-.05-5.57,1.47-8.37,2.16-1.03.25-1.61,1.13-1.52,2.21.1,1.18,1.01,1.54,2.04,1.68,2.62.35,5.27.14,7.9.87,2.38.66,5.63,1.23,6.5-1.84.94-3.34-2.73-3.66-4.76-4.9-.46-.28-1.18-.14-1.79-.18Zm33.87-21.69c.09-1.75-.31-2.91-1.73-3.2-.98-.19-.88.66-1.03,1.43-1.07,5.69-6.15,9.69-6.64,15.65,0,.08-.18.15-.27.23-1.09,1.02-1.42,2.24-.9,3.65.28.76.86,1.22,1.68,1.07,1.42-.24,2.47-1.13,3.01-2.41,1.41-3.36,2.79-6.74,4.03-10.17.79-2.16,1.31-4.42,1.85-6.27Zm-7.09,395.84c.32-.09.56-.13.79-.21,7.4-2.92,15.27-4.58,22.31-8.46.67-.37,1.38-.82.96-1.65-.51-1.02-1.46-.72-2.19-.25-5.27,3.34-11.22,4.22-17.24,4.95-2.25.28-4.11,1.46-5.45,3.3-.8,1.1-.67,2.04.82,2.32Zm-31.41-382.02c-1.07.35-2.01.6-2.9.97-2.5,1.04-3.7,3.08-2.86,5.56.89,2.64,3.19,1.44,5.01,1.02,1.18-.27,2.31-.82,3.49-1.03,1.67-.3,2.07-1.33,2.21-2.83.4-4.28-3.37-2.36-4.95-3.69Zm-.82,16.14c-2.48-.06-3.91.99-3.79,3.64.12,2.88,1.73,4.54,4.48,4.69,2.11.12,3.76-.93,3.82-3.38.07-2.64-2.12-4.99-4.51-4.95Zm26.27-31.26c-.43-2.92-1.74-5.21-3.82-7.03-.88-.77-2.16-1.16-2.88-.04-.58.91.54,1.48,1.3,1.8,2.54,1.06,2.5,2.91,1.81,5.14-.62,1.97-1.06,4-1.52,6.02-.15.68-.37,1.55.5,1.91.84.35,1.32-.39,1.79-.93,1.76-2.01,2.31-4.5,2.81-6.89Zm-1.63,9.33c5.32-3.04,7.15-11.02,3.88-15.12-.57-.72-1.24-1.89-2.29-1.21-1,.64-.05,1.52.38,2.17,1.36,2.06,1.46,4.26,1.13,6.64-.36,2.61-2.18,4.56-3.1,7.52Zm-17.48,8.55c.04,1.71.2,3.33,2.44,3.25,1.66-.06,2.79-.96,2.8-2.69.01-2.19-1.44-2.78-3.39-2.8-1.68-.02-2.12.8-1.85,2.23Zm10.89-.37c.31.97-.83,2.95,1.07,2.77,1.86-.18,2.3-2.32,2.55-3.96.19-1.3-.1-3.22-1.72-3.01-2.2.28-1.63,2.57-1.9,4.2Zm11.43-6.28c-.2-.62.28-2.27-1-2.05-1.6.27-3.18,1.38-3.06,3.4.05.89.01,2.66,1.53,2.26,1.42-.37,2.95-1.32,2.53-3.6Zm.61-16.25c.82,1.54.14,3.82,1.92,5,.45.3,1.09-.67.68-1.23-1.17-1.59.88-4.45-2-5.23-.72-.2-.73.73-.6,1.46Z"/><path class="cls-5" d="m611.13,534.11c1.8-5.43,5.94-8.2,10.85-9.97,4.35-1.57,8.91-2.33,13.46-3.03,5.28-.82,8.5,3.17,8.06,9.93-1.97-.38-2.69-1.81-3.3-3.42-.9-2.39-2.24-3.38-5.04-2.43-3.07,1.04-6.34,1.6-9.57,2.07-5.53.79-10.64,2.31-14.46,6.85Z"/><path class="cls-5" d="m611.68,543.23c.06-7.17,3.59-11.22,9.69-11.14,7.31.1,11.19,3.32,11.11,9.23-.09,6.54-5.26,11.77-11.53,11.66-5.98-.11-9.32-3.62-9.26-9.74Zm1.3-.49c0,4.89,3.37,8.16,8.35,8.08,5.19-.08,9.37-4.34,9.41-9.61.03-5.09-3.62-7.94-10.42-8.12-4.11-.11-7.34,4.13-7.34,9.64Z"/><path class="cls-5" d="m593.58,591.32c2.36-1.84,4.83-2.88,7.78-1.69-2.83-.29-5.18,1.32-7.78,1.69Z"/><path class="cls-5" d="m643.38,704.19c1.78-5.2,3.55-10.4,5.33-15.6-.72,5.57-1.51,11.11-5.33,15.6Z"/><path class="cls-5" d="m639.19,846.39c4,0,8-.13,11.99.04,3.87.16,7.7.83,11.6.87-7.88.73-15.7-1.22-23.59,0,0-.3,0-.6,0-.9Z"/><path class="cls-5" d="m654.2,565.01c-1.41-6.64,4.4-12.88,10.69-11.8-5.05,2.7-8.66,6.02-10.69,11.8Z"/><path class="cls-5" d="m665.41,560.58c-2.94.58-4.86.96-6.78,1.34,1.48-2.54,3.45-2.95,6.78-1.34Z"/><path class="cls-5" d="m608.15,1027.67c2.99-.87,5.8-1.71,6.1,2.48.1,1.45.9,1.51,2,1.2,1.26-.35,2.44-1.12,4.26-.66-3.12,1.28-5.94,2.4-8.72,3.6-1.36.59-2.43,1.36-2.73,3.09-.93,5.45-5.73,6.07-9.76,7.21-4.92,1.39-7.27.36-9.67-3.79,3.57,2.78,7.35,2.5,11.21,1.35,2-.6,3.77-1.29,4.96-3.33,1.01-1.75,2.45-3.36,4.01-4.65,3.19-2.63,3.12-3.95-.72-6.08-.3-.17-.63-.28-.95-.42Z"/><path class="cls-5" d="m601.95,1038.94c-2.09-1.46-2.66-3.25-4.19-3.97,2.27-.24,3.75.57,4.19,3.97Z"/><path class="cls-5" d="m631.37,1028.02c3.62-.11,5.76.84,7.38,2.99-2.25-.69-4.83-.49-7.38-2.99Z"/><path class="cls-5" d="m623.42,536.48c1.99.12,3.07,1.02,3,2.74-.08,1.95-1.31,3.2-3.24,3.26-1.68.05-2.68-1.11-2.74-2.78-.09-2.17,1.49-2.81,2.98-3.22Z"/></svg>