<?xml version="1.0" encoding="UTF-8"?><svg id="personnage15" xmlns="http://www.w3.org/2000/svg" xmlns:xlink="http://www.w3.org/1999/xlink" viewBox="0 0 1080 1080"><defs><style>.cls-1,.cls-2,.cls-3,.cls-4,.cls-5,.cls-6,.cls-7,.cls-8{stroke-width:0px;}.cls-2{fill:#757473;}.cls-3{fill:#525252;}.cls-4{fill:#3b2f35;}.cls-5{fill:#585254;}.cls-6{fill:#beaa9a;}.cls-7{fill:#f01048;}.cls-8{fill:url(#Dégradé_sans_nom_19);}</style><linearGradient id="Dégradé_sans_nom_19" x1="250.75" y1="568.09" x2="285.51" y2="508.95" gradientUnits="userSpaceOnUse"><stop offset="0" stop-color="#757473"/><stop offset=".82" stop-color="#aeb9b0"/></linearGradient></defs><path class="cls-5" d="m249.06,471.62c-1.43,1.97-6.89,11.63-9.48,14.65s-3.45,8.62-5.6,10.77-4.74,9.91-6.89,12.49-4.74,13.36-6.89,16.8c-2.15,3.45-4.74,14.22-6.46,16.8s-4.74,12.06-7.76,15.94-5.6,10.77-6.89,11.63,1.72,6.46,7.32,4.74c5.6-1.72,5.17-3.02,9.48-3.02s7.76,1.29,9.05-.86,0-2.59,3.02-2.15,5.6,2.59,7.32,0c1.72-2.59,4.31,2.15,1.72-2.59-2.59-4.74-9.48-9.91-7.76-17.23s3.45-5.6,5.17-16.8c1.72-11.2,6.89-25.42,6.89-28.87s1.29-9.48,3.88-10.77,6.03-2.15,8.62-1.72,1.29-3.88,7.32,0c6.03,3.88,4.31,1.29,10.77,2.59s0-1.72,8.62,2.15c8.62,3.88,14.22,3.88,13.79,8.62-.43,4.74,2.59,9.48,0,16.8s-3.02,13.36-3.88,18.96c-.86,5.6-1.29,7.32-3.88,20.68-2.59,13.36-3.45,17.67-1.29,19.82s7.32,3.02,12.49,0,11.63-8.62,11.63-8.62c2.59-.86,8.19.43,9.48-4.74s0-2.59,5.17-7.32,11.63-3.45,13.36-7.76,9.48-8.19,9.48-13.79.43-12.93-1.72-18.53-14.65-34.9-14.65-34.9l-1.72-1.29s-6.34-10.3-25.42-17.23c-4.74-1.72-12.93-9.91-23.7-7.76-10.77,2.15-27.14,7.76-30.59,12.49Z"/><path class="cls-4" d="m316.92,714.66l-.05-.05c-.05,1.39-.6,2.36-2.12,2.48-1.49.12-2.1-.87-2.69-2.03-1.28-2.49-1.41-5.5-3.41-7.95-.74,1-.61,1.89-.54,2.72.18,1.98.48,3.95.63,5.94.16,2.21-.85,3.71-3.09,3.98-2.39.29-2.21-1.78-2.43-3.19-.27-1.74.07-3.61-.36-5.29-.89-3.44-.68-7.99-4.76-9.23-3.05-.93-6.31-2.09-9.74-1.61-2.7.38-5.3-.05-7.7-1.49-1.16-.7-2.49-1.27-3.79-.58-5.18,2.75-10.47,5.33-15.07,9.03-.67.54-1.61,1.32-.4,2.1,2.45,1.57,3.82,4.38,6.47,5.64,7.07,3.36,12.52,8.69,17.82,14.26,2.97,3.12,5.85,6.61,9.76,8.4,5.74,2.63,10.66,6.35,15.57,10.11,6.91,5.31,14.85,8.41,23.02,10.9,6,1.83,11.27.44,15.21-5.02,3.53-4.89,4.22-10.45,4.35-16.1.34-14.57-.99-29-4.39-43.22-3.01-12.58-4.42-25.5-8.04-37.97-1.16-3.98-2.4-8.11-4.78-11.26-6.33-8.4-12.9-16.71-20.23-24.23-4.63-4.74-9.5-9.27-13.74-14.38-1.7-2.05-2.66-1.6-4.02.23-2.32,3.13-4.5,6.37-6.07,9.91-.95,2.13-2.45,3.46-3.85,4.73-2.17-1.6-2.39-3.95-3.37-5.91-1.18-2.34-2.06-5.42-5.94-2.09.34-.81.43-1.01.5-1.22.35-1.04,2.86-1.51,1.49-2.7-1.61-1.42-2.25.91-3.14,1.84-.44.46-.63,1.17-.98,1.73-1.36,2.15-2.47,4.52-4.17,6.35-2.4,2.58-2.76,5.07-.41,8.01.46.57.31,1.01-.06,1.46-2.94,3.57-3.46,7.64-1.39,11.28.56.98.66,2.21-.13,2.77-3.45,2.43-2.99,6.38-3.35,9.61-1.43,12.89-1.82,25.87-2.03,38.84-.07,4.42,1.05,5.29,5.59,5.23,3.98-.06,7.93-.1,11.63,1.96,2.27,1.27,4.52.9,6.12-1.44l.1.1c.29,1.82,1.53,1.75,2.99,1.67,5.27-.28,9.55,2.98,10.93,8.1.69,2.57,1.33,5.11,1.32,7.81,0,1.45-.24,3.65,1.84,3.61,2.08-.04,1.96-2.17,1.66-3.67-1.18-5.93.1-12.05-1.9-18.43,1.97,1.39,2.36,3.07,2.83,4.57,1.32,4.21,2.53,8.44,4.19,12.55,1,2.47,2.03,3.4,4.14,1.14Z"/><path class="cls-2" d="m252.6,733.46q4.9-.67,5.01-5.79c0-.33,0-.67.02-1,.17-2.09-.72-2.99-2.88-3.04-8.9-.21-17.2,2.57-24.78,6.55-5.47,2.87-10.65,6.3-16.48,8.51-1.67.63-2.86,1.53-2.39,3.72,1.78,8.21,2.77,16.66,5.32,24.62,6.23,19.44,11.54,39.11,14.97,59.2,3.5,20.51,6.79,41.07,9.47,61.72,1.59,12.27,4.66,24.35,6.83,36.56,1.09,6.1,3.19,11.94,3.97,18.14.97,7.63-.43,15.3.93,22.9.3,1.7.34,3.3,2.1,4.68-2.58-.78-3.55.89-4.69,2.25-2.07,2.49-4.35,4.79-7.25,6.27-2.56,1.31-5.26,2.35-7.89,3.54-1.2.55-2.7,1.03-2.35,2.75.34,1.64,1.49,2.69,3.24,2.88,1.87.21,3.45-.53,5.01-1.46,4.86-2.91,9.86-5.55,15.09-7.74,2.52-1.06,4.15-8.14,1.99-9.72-2.94-2.15-3.11-4.92-2.7-7.98.27-1.99.3-3.97.42-5.96.48-7.96.71-15.96,1.8-23.84,1.45-10.43,2.79-20.87,2.93-31.39.16-11.39,1.23-22.73,1.12-34.17-.1-11.36-.16-22.78.24-34.17.03-.78.5-2.02-.76-2.2-.88-.12-1.04,1-1.37,1.67-.19.38-.25.87-1.28.9.79-1.6,1.43-3.07,2.23-4.45.74-1.28,1.22-2.56,1.24-4.07.11-8.43.19-16.86.48-25.29.05-1.46-1.47-4.1.41-4.19,1.7-.09,1.34,2.87,1.36,4.56.2,17.53-.2,35.06.62,52.59.79,16.87-.71,33.71-1.34,50.55-.34,8.95-.91,17.89-2.4,26.78-1.96,11.69-2.67,23.54-3.33,35.37-.06,1.14-.48,2.5.97,3.25,2.51,1.29,6.82-.81,7.11-3.59.95-9.13,2.46-18.17,3.96-27.23,2.8-16.93,7.17-33.55,9.42-50.58,1.46-11.12,5.86-21.58,8.14-32.53,1.71-8.23,3.62-16.45,5.93-24.47,3.33-11.59,6.58-23.21,10.01-34.78,3.65-12.31,6.1-25.01,11.67-36.69,1.19-2.49.57-3.51-1.42-5.1-9.02-7.21-19.44-12.4-28.26-19.87-1.36-1.15-2.95-1.99-4.7-2.44-4.73-1.2-9.53-2.13-13.97-4.29-1.58-.77-2.8-.38-3.2,1.55-.41,1.96-1.21,4,1.59,4.93,1.03.34,1.15,1.32,1.2,2.19.05.96-.77.87-1.42.92-4.1.34-8.02-.77-11.95-1.51Z"/><path class="cls-4" d="m201.76,713.17c-.23-.15-.45-.31-.68-.46,1.67-3.78,5.28-6.47,6.96-10.95-3.56,1.66-5.32,4.73-8.97,6.6,2.8-5.02,6.68-7.73,10.74-10.15,1.49-.89,2.18-1.73,2.36-3.53.65-6.4,2.41-12.53,4.55-18.63,4.03-11.48,9.77-22.4,11.68-34.6.24-1.5.55-3.12,1.92-4.73.3,2.61-1.63,4.56-.46,7.05,2.04-2.23,2.15-5.03,3.66-7.12-2.47,8.99-6,17.56-10.71,26.52,2.91-.84,3.52-2.72,4.8-3.83,1.24-1.07,2.34-2.29,3.51-3.44.27.62.23.85.11,1.02-.26.36-.52.74-.86,1.01-6.28,5.07-10.73,11.31-12.36,19.35-.02.11-.07.22-.13.31-3.55,5.32-3.3,11.64-4.56,17.56-.27,1.25-.09,2.22,1.45,2.39,4.74.5,9.48,1.13,14.24,1.46,1.6.11,3.67-.03,4.79-.95,2.77-2.26,6.28-2.79,9.19-4.52,6.18-3.68,12.08-4.13,18.13.27,2.25,1.64,3.25.65,3.29-2.1.23-16.98,1.81-33.87,3.59-50.75.48-4.52,1.3-8.99,1.86-13.5.2-1.62.54-3.56-.99-4.64-2.13-1.49-1.9-4.87-4.86-5.68-.6-.16-.71-1.11-.28-2.02.91-1.93-.56-3.41-1.91-3.96-1.09-.44-2.76.37-3.55,1.73-.89,1.53-1.73,3.1-2.56,4.67-.5.95-.6,2.32-2.05,2.29-1.58-.03-1.69-1.46-2.17-2.57-1.83-4.22-2.18-8.81-3.34-13.19-.27-1.01-.31-3.01-2.12-1.95-1.88,1.1-4.13,2.23-5.03,4.25-2.61,5.81-6.3,10.89-9.88,16.09-6.08,8.84-11.94,17.88-18.09,26.65-7.37,10.52-13.78,21.42-19.31,32.93-5,10.42-7.99,21.62-12.62,32.18-2.68,6.11-3.19,12.7-2.36,19.27.69,5.49,3.73,7.81,9.15,7.71,1.67-.03,3.34.04,5-.05,12.34-.65,23.67-4.35,33.81-11.46,7.36-5.16,14.93-10.01,22.43-14.96,2.26-1.49,6.5-1.59,6.45-4.73-.06-3.7-4.47-4.45-7.05-6.41-1.15-.87-2.57-1.32-4.09-.86-5.56,1.66-10.87,1.64-15.7-2.17-.56-.44-1.42-.62-2.17-.69-3.76-.34-7.52-.57-11.28-.91-1.97-.18-3.2.55-4.38,2.23-2.89,4.11-6.08,8-9.15,11.98Z"/><path class="cls-2" d="m298.57,586.41c.13-2.22-.27-2.45-2.47-1.43-2.93,1.37-5.04,4.04-8.08,5.22-4.42,1.72-8.09,4.53-11.51,7.74-.74.7-1.56,1.39-.67,2.51,1.44,1.82,2.64,3.94,4.39,5.39,3.46,2.87,5.59,6.53,7.34,10.52.34.77.28,1.94,1.38,2.07,1.14.13,1.45-1,1.72-1.74,1.71-4.74,4.46-8.86,7.44-12.86.53-.71.87-1.54.69-2.5-.95-4.96-.29-9.95-.24-14.92Z"/><path class="cls-4" d="m280.89,727.86c-3.13-4.3-7.03-7.52-11.24-10.39-2.99-2.04-6.3-3.56-8.75-6.44-1.09-1.28-3.18-1.8-3.75,1.02-.17.85-.68,1.36-1.45,1.66-4.8,1.86-8.7,5.24-13.13,7.73-.73.41-2.09.56-1.79,1.6.41,1.44,1.72.47,2.52.3,9.61-2.01,18.9-1.22,27.96,2.64,3.01,1.28,6.22,1.96,9.63,1.87Z"/><path class="cls-2" d="m248.9,600.75c1.29,5.01,1.72,9.9,3.42,14.5.55,1.47,1.4,2.28,2.38.44,2.85-5.31,6.32-10.13,10.68-14.32.88-.85,1.69-2.07.38-3.16-3.4-2.84-6.88-5.57-10.35-8.32-.64-.51-1.55-.85-1.98.11-1.61,3.63-3.1,7.31-4.55,10.76Z"/><path class="cls-2" d="m263.5,968.18c-2.34.2-4.2.7-3.61,3.78.33,1.72.35,3.52-.26,5.26-.65,1.84.45,2.41,2.01,2.51,1.65.11,3.31.07,4.77,1.13,4.58,3.31,10.07,4.52,15.26,6.37,2.76.99,5.04-1.12,4.6-3.96-.31-2.04-1.89-2.85-3.63-3.45-6-2.09-11.86-4.35-15.87-9.75-.7-.94-1.75-2.06-3.27-1.88Z"/><path class="cls-7" d="m278.98,608.18c-.18-1.55-1.35-2.4-2.04-3.49-1.02-1.62-2.16-4.37-4.13-3.6-2.32.9-3.63.1-5.29-.83-.1-.05-.48.15-.53.31-1,2.8-3.51,4.5-5.03,6.93-.5.8-.32,1.46.3,2.07,2.62,2.59,4.3,5.85,6.28,8.88,1.3,2,2.22,1.6,3.44.02,2.29-2.98,3.78-6.5,6.42-9.25.29-.3.42-.75.58-1.05Z"/><path class="cls-2" d="m258.84,728.02c.08.61.15,1.72.37,2.8.15.71.22,1.72,1.28,1.62,1.09-.11.88-1.07.87-1.83,0-1.45.13-2.88.9-4.16.67-1.12.48-1.92-.88-2.17-1.13-.21-2.31-.32-2.53,1.27-.09.65-.02,1.32-.02,2.47Z"/><path class="cls-8" d="m243.03,491.01c-2.15,0-2.15,4.74-3.02,6.03s0,12.06-1.29,17.67-3.45,13.36-5.17,15.94-3.88,10.77-3.88,13.36.43,12.06,6.46,18.1c6.03,6.03,9.48,11.63,11.63,13.36,2.15,1.72,6.89,9.05,7.32,10.34s-1.72.43,4.31,6.03c6.03,5.6,8.19,7.76,11.2,8.19,3.02.43,3.88-4.74,8.19-6.03s14.22-4.74,15.08-7.76,1.72-6.89,0-6.03c-1.72.86-10.34,3.88-8.62.86s4.74-7.32,6.46-14.65,4.74-19.39,5.17-23.7c.43-4.31,1.72-18.53,1.29-21.97s-.86-18.1-1.72-19.39-4.31-3.45-5.6-3.88-9.48-5.6-10.34-4.31-7.76-3.88-8.19-2.15-3.88,2.15-6.46,1.29-5.6-3.02-5.6-3.02c0,0-6.03,3.88-6.46,2.15s-5.6-1.29-7.32-.86-3.45.43-3.45.43Z"/><path class="cls-6" d="m244.9,507.24c-.81,0-3.02,4.6-3.16,5.6s.29,6.18.29,6.18c.57,1.44,4.02,3.02,5.74,3.3s4.16.14,4.88-.14,3.16-.86,3.59-3.88c.43-3.02.57-7.04-.72-7.9s-2.87-3.59-4.88-3.59-5.6.43-5.74.43Z"/><path class="cls-6" d="m271.61,511.11c-.86.57-1.72,2.73-2.44,4.16s-1.01,5.17-.29,6.46,3.45,1.87,4.02,2.59,3.3,1.15,4.16.43,3.3-1.58,3.59-2.73,2.01-3.73,1.15-6.46-1.29-5.17-3.59-5.46-6.61,1.01-6.61,1.01Z"/><path class="cls-3" d="m287.62,698.46c.43-1.08,5.82-3.66,7.76-4.52s10.34-4.74,12.28-5.39,3.02-4.09,7.32-1.51c4.31,2.59,6.68,3.66,7.11,6.68s2.37,6.03,2.8,9.48c.43,3.45,1.51,5.82-.22,4.95s-3.02-1.51-3.23-.86.67,3.3-.21,4.56-1.73,2.33-3.24,2.12.43,1.29-1.51,1.94-1.51,1.72-3.45.43c-1.94-1.29-1.51-3.88-2.59-6.25s-1.04-4.03-1.81-2.99-1.42,3.2-.99,5.79,3.02,4.09.43,5.6-5.39,3.02-5.17-.43,3.02-6.03.43-9.26-.61-4.7-5.26-6.77-6.59-2.71-8.31-2.5-2.15-1.08-2.15-1.08"/><path class="cls-1" d="m176.19,725.9c2.28-12.66,8.1-24.08,12.5-36,4.99-13.51,11.45-26.15,20.09-37.67,6.77-9.04,12.05-19.09,19.06-27.97,4.47-5.66,8.57-11.57,12.16-17.83,1.06-1.85,2.56-3.26,4.27-4.57,4.51-3.45,6.52-8.59,8.5-13.63.74-1.88.11-3.73-1.37-5.47-3.72-4.39-7.14-9.02-10.69-13.55-.69-.88-1.4-1.89-2.69-.82-2.67,2.22-5.79,1.82-8.89,1.59-.97-.07-2.28-.53-2.59.72-.72,2.86-2.94,2.89-4.99,2.61-6.33-.87-12.24,2.37-18.62,1.47-4.86-.68-6.29-2.21-3.72-6.33,5.62-8.99,9.84-18.63,13.71-28.41,2.52-6.38,5.91-12.37,8.11-18.87,3-8.89,7.47-16.99,13.2-24.41-.41.9-.76,1.83-1.24,2.69-3.89,6.97-7.78,13.95-10.09,21.65-1.15,3.84-2.78,7.45-4.65,10.99-1.29,2.44-2.44,4.99-3.36,7.59-2.82,7.94-5.77,15.8-10.6,22.81-1.69,2.45-3.19,5.05-4.65,7.65-.72,1.27-.86,2.82.97,3.18,3.5.67,7.83,1.57,10.39-.24,3.16-2.24,5.92-1.34,8.91-1.46,1.53-.06,3.6.49,4.32-1,1.32-2.75,3.11-2.54,5.45-1.87,1.13.32,2.43.19,3.63.11,1.7-.12,3.37-.5,4.12-2.3.7-1.68-.51-2.87-1.51-3.75-3.88-3.46-5.7-7.86-6.05-12.87-.48-6.75-.71-13.41,2.97-19.67,2.1-3.58,4.51-7.43,4.68-11.6.29-7.19-.2-14.4,1.5-21.49.19-.8.56-1.85-.61-2.3-.87-.33-1.79-.17-2.54.37-.62.45-1.13,1.05-1.69,1.58,2.42-8.73,7.47-16.05,13.31-22.64,10.34-11.68,23.36-17.47,39.16-14.51,4.89.92,9.56,3,14.06,5.58,4.17,2.4,8.75,4.21,13.1,6.41,10.61,5.36,18.63,13.14,22.47,24.55,2.09,6.2,5.71,11.77,7.08,18.23,1.2,5.63,3.46,10.97,4.44,16.67.56,3.23.05,6.14-1.75,8.89-2.36,3.59-5.24,6.77-7.86,10.1-4.04,5.13-8.76,8.55-14.52,11.04-1.21.52-1.55,1.85-2.03,2.95-2.06,4.78-5.77,7.24-10.55,9.27-3.47,1.48-6.7,4.06-10,6.2-.48.31-.87,1.13-.87,1.71-.06,6.31-.54,12.64.26,18.93.31,2.4,1.41,4.39,3.11,6.1,3.05,3.07,5.86,6.42,9.13,9.23,9.85,8.48,17.52,18.81,25.29,29.08,2.79,3.69,4.26,8.07,5.21,12.47,3.44,15.89,7.06,31.77,9.74,47.79,2.22,13.31,3.78,26.8,1.74,40.36-.28,1.85-.73,3.72-1.47,5.43-4.45,10.36-12.7,13.6-23.45,9.31-3.19-1.27-6.48-2.37-9.54-3.91-2.48-1.25-3.36-.23-4.1,1.89-2.86,8.27-5.36,16.62-7.57,25.1-4.88,18.75-10.46,37.31-15.66,55.97-2.45,8.79-3.75,17.96-6.19,26.81-2.18,7.9-4.57,15.74-5.62,23.89-1.71,13.2-5.28,26.05-7.29,39.18-1.63,10.62-4.56,20.97-5.93,31.63-.04.33-.17.65-.22.97-.53,3.02-3.28,6.06,1.38,8.67,2.84,1.59,4.35,5.17,8.13,5.91,2.58.5,5.05,1.66,7.5,2.7,2.93,1.25,4.09,4.17,3.02,7.17-1.35,3.78-2.6,4.54-6.57,3.23-5.24-1.73-10.36-3.69-15.35-6.21-4.26-2.14-9.31-3.7-14.3-.67-3.59,2.19-7.42,3.99-11.12,6-1.29.7-2.65,1.23-4.11,1.17-2.78-.12-4.61-1.7-5.22-4.31-.58-2.51,1.37-3.44,3.3-4.27,2.55-1.09,5.01-2.38,7.59-3.39,3.97-1.55,6.05-5,8.51-8.09.68-.86.71-1.85.65-2.85-.45-7.18-.84-14.37-1.55-21.54-.76-7.66-3.37-14.88-4.7-22.41-3.8-21.59-7.18-43.24-10.58-64.89-3.97-25.26-8.01-50.53-15.59-75.09-3.98-12.9-7.1-26.07-9.18-39.44-.36-2.28-1.22-3.1-3.54-2.25-6.84,2.5-14.01,1.9-21.09,2.04-2.3.05-4.01-1.02-5.12-3.1-1.1-2.05-2.32-4.03-3.49-6.04,0-2.66,0-5.33,0-7.99Zm140.73-11.25l-.05-.05c-.05,1.39-.6,2.36-2.12,2.48-1.49.12-2.1-.87-2.69-2.03-1.28-2.49-1.41-5.5-3.41-7.95-.74,1-.61,1.89-.54,2.72.18,1.98.48,3.95.63,5.94.16,2.21-.85,3.71-3.09,3.98-2.39.29-2.21-1.78-2.43-3.19-.27-1.74.07-3.61-.36-5.29-.89-3.44-.68-7.99-4.76-9.23-3.05-.93-6.31-2.09-9.74-1.61-2.7.38-5.3-.05-7.7-1.49-1.16-.7-2.49-1.27-3.79-.58-5.18,2.75-10.47,5.33-15.07,9.03-.67.54-1.61,1.32-.4,2.1,2.45,1.57,3.82,4.38,6.47,5.64,7.07,3.36,12.52,8.69,17.82,14.26,2.97,3.12,5.85,6.61,9.76,8.4,5.74,2.63,10.66,6.35,15.57,10.11,6.91,5.31,14.85,8.41,23.02,10.9,6,1.83,11.27.44,15.21-5.02,3.53-4.89,4.22-10.45,4.35-16.1.34-14.57-.99-29-4.39-43.22-3.01-12.58-4.42-25.5-8.04-37.97-1.16-3.98-2.4-8.11-4.78-11.26-6.33-8.4-12.9-16.71-20.23-24.23-4.63-4.74-9.5-9.27-13.74-14.38-1.7-2.05-2.66-1.6-4.02.23-2.32,3.13-4.5,6.37-6.07,9.91-.95,2.13-2.45,3.46-3.85,4.73-2.17-1.6-2.39-3.95-3.37-5.91-1.18-2.34-2.06-5.42-5.94-2.09.34-.81.43-1.01.5-1.22.35-1.04,2.86-1.51,1.49-2.7-1.61-1.42-2.25.91-3.14,1.84-.44.46-.63,1.17-.98,1.73-1.36,2.15-2.47,4.52-4.17,6.35-2.4,2.58-2.76,5.07-.41,8.01.46.57.31,1.01-.06,1.46-2.94,3.57-3.46,7.64-1.39,11.28.56.98.66,2.21-.13,2.77-3.45,2.43-2.99,6.38-3.35,9.61-1.43,12.89-1.82,25.87-2.03,38.84-.07,4.42,1.05,5.29,5.59,5.23,3.98-.06,7.93-.1,11.63,1.96,2.27,1.27,4.52.9,6.12-1.44l.1.1c.29,1.82,1.53,1.75,2.99,1.67,5.27-.28,9.55,2.98,10.93,8.1.69,2.57,1.33,5.11,1.32,7.81,0,1.45-.24,3.65,1.84,3.61,2.08-.04,1.96-2.17,1.66-3.67-1.18-5.93.1-12.05-1.9-18.43,1.97,1.39,2.36,3.07,2.83,4.57,1.32,4.21,2.53,8.44,4.19,12.55,1,2.47,2.03,3.4,4.14,1.14Zm-64.32,18.8q4.9-.67,5.01-5.79c0-.33,0-.67.02-1,.17-2.09-.72-2.99-2.88-3.04-8.9-.21-17.2,2.57-24.78,6.55-5.47,2.87-10.65,6.3-16.48,8.51-1.67.63-2.86,1.53-2.39,3.72,1.78,8.21,2.77,16.66,5.32,24.62,6.23,19.44,11.54,39.11,14.97,59.2,3.5,20.51,6.79,41.07,9.47,61.72,1.59,12.27,4.66,24.35,6.83,36.56,1.09,6.1,3.19,11.94,3.97,18.14.97,7.63-.43,15.3.93,22.9.3,1.7.34,3.3,2.1,4.68-2.58-.78-3.55.89-4.69,2.25-2.07,2.49-4.35,4.79-7.25,6.27-2.56,1.31-5.26,2.35-7.89,3.54-1.2.55-2.7,1.03-2.35,2.75.34,1.64,1.49,2.69,3.24,2.88,1.87.21,3.45-.53,5.01-1.46,4.86-2.91,9.86-5.55,15.09-7.74,2.52-1.06,4.15-8.14,1.99-9.72-2.94-2.15-3.11-4.92-2.7-7.98.27-1.99.3-3.97.42-5.96.48-7.96.71-15.96,1.8-23.84,1.45-10.43,2.79-20.87,2.93-31.39.16-11.39,1.23-22.73,1.12-34.17-.1-11.36-.16-22.78.24-34.17.03-.78.5-2.02-.76-2.2-.88-.12-1.04,1-1.37,1.67-.19.38-.25.87-1.28.9.79-1.6,1.43-3.07,2.23-4.45.74-1.28,1.22-2.56,1.24-4.07.11-8.43.19-16.86.48-25.29.05-1.46-1.47-4.1.41-4.19,1.7-.09,1.34,2.87,1.36,4.56.2,17.53-.2,35.06.62,52.59.79,16.87-.71,33.71-1.34,50.55-.34,8.95-.91,17.89-2.4,26.78-1.96,11.69-2.67,23.54-3.33,35.37-.06,1.14-.48,2.5.97,3.25,2.51,1.29,6.82-.81,7.11-3.59.95-9.13,2.46-18.17,3.96-27.23,2.8-16.93,7.17-33.55,9.42-50.58,1.46-11.12,5.86-21.58,8.14-32.53,1.71-8.23,3.62-16.45,5.93-24.47,3.33-11.59,6.58-23.21,10.01-34.78,3.65-12.31,6.1-25.01,11.67-36.69,1.19-2.49.57-3.51-1.42-5.1-9.02-7.21-19.44-12.4-28.26-19.87-1.36-1.15-2.95-1.99-4.7-2.44-4.73-1.2-9.53-2.13-13.97-4.29-1.58-.77-2.8-.38-3.2,1.55-.41,1.96-1.21,4,1.59,4.93,1.03.34,1.15,1.32,1.2,2.19.05.96-.77.87-1.42.92-4.1.34-8.02-.77-11.95-1.51Zm-2.71-242.39c-1.57,1.69-3.37,1.27-4.91,1.63-3.3.76-4.32-.33-3.14-3.54,1.34-3.65,3.3-7,5.6-10.15.94-1.28,2.46-2.44,1.86-5.21-3.58,5.52-7.93,9.71-9.73,15.56-.48,1.57-3.67,3.36.4,4.67.81.26.22,1.43.08,2.15-1.27,6.44-2.25,12.95-1.82,19.49.39,6-2.54,10.79-4.73,15.9-3.88,9.05-4.48,18.34.94,26.73,2.88,4.45,6.73,8.47,10.03,12.74,4.21,5.44,9.94,9.84,12.02,16.86.31,1.05,1.43,2.02,2.41,2.69,2.94,2,5.69,4.19,8.31,6.59,1.85,1.69,3.89,2.73,6.33.46,5.08-4.72,11.41-7.51,17.41-10.79.84-.46,1.44-.9,1.59-1.92.52-3.43-2.04-2.44-3.68-2.5-3.98-.14-4.35-.57-3.05-4.25.29-.84.7-1.63,1.03-2.45,4.19-10.42,7.1-21.28,8.67-32.29,1.95-13.72,1.43-27.64.46-41.48-.11-1.6-.71-2.28-2.19-2.81-3.83-1.36-7.59-2.92-11.36-4.46-1.08-.44-2.6-.81-2.19-2.45,1.22-4.9,2.57-9.76,3.87-14.64-.2,3.72-1.12,7.25-1.93,10.8-1.05,4.59-1.22,4.2,3.61,5.93,2.1.75,3.3.34,4.27-1.59,1.15-2.28,2.32-4.46,2.57-7.12.31-3.36,1.06-6.68,1.62-10.01.46,6.07-.45,11.9-2.73,17.49-.61,1.51-1.22,2.85.67,3.98,1.97,1.19,3.34.38,4.62-1.07,3.48-3.94,4.32-8.66,3.84-13.69-.35-3.68,0-7.38-1.34-11.4,1.75.73,1.88,1.61,2.07,2.46.88,3.9,1.27,7.85,1.4,11.85.15,4.45-1.2,8.38-4.03,11.67-1.64,1.9-2.07,3.8-1.69,6.11,1.62,9.79,1.12,19.7,1.31,29.55.31,15.65-5.34,30.13-9.97,44.76-1.08,3.42-.6,4.6,2.71,3.96,6.56-1.27,12.66-3.71,17.64-8.36.59-.55,1.13-.92,1.94-1.1,4.3-.98,7.75-3.09,9.43-7.42.83-2.13,2.03-4.03,4.29-4.78,1.84-.61,3.3-1.79,4.97-2.65,5.11-2.61,7.79-7.68,11.66-11.52,5.15-5.13,6.31-11.42,4.31-18.71-1.34-4.9-2.63-9.82-4.39-14.57-2.58-6.94-4.96-14.04-8.36-20.59-4.81-9.25-12.35-15.92-21.92-20.42-8.3-3.91-16.23-8.72-25.47-10.1-8.45-1.27-18.64-.6-24.24,9.91-2.62,4.91-3.26,10.35-5.65,15.21-.93,1.89-.84,3.44,1.2,4.79-4.03.65-4.62.19-3.4-2.84,2.88-7.14,3.95-15.08,9.37-21.1.36-.4.75-.98.17-1.43-.25-.2-.88-.15-1.21.02-2.03,1.1-4.09,2.05-5.77,3.83-4.5,4.76-7.19,10.61-10.17,16.26-2.62,4.96-2.44,5.06,2.98,5.11.32,0,.64.1,1.42.23Zm-48.13,222.1c-.23-.15-.45-.31-.68-.46,1.67-3.78,5.28-6.47,6.96-10.95-3.56,1.66-5.32,4.73-8.97,6.6,2.8-5.02,6.68-7.73,10.74-10.15,1.49-.89,2.18-1.73,2.36-3.53.65-6.4,2.41-12.53,4.55-18.63,4.03-11.48,9.77-22.4,11.68-34.6.24-1.5.55-3.12,1.92-4.73.3,2.61-1.63,4.56-.46,7.05,2.04-2.23,2.15-5.03,3.66-7.12-2.47,8.99-6,17.56-10.71,26.52,2.91-.84,3.52-2.72,4.8-3.83,1.24-1.07,2.34-2.29,3.51-3.44.27.62.23.85.11,1.02-.26.36-.52.74-.86,1.01-6.28,5.07-10.73,11.31-12.36,19.35-.02.11-.07.22-.13.31-3.55,5.32-3.3,11.64-4.56,17.56-.27,1.25-.09,2.22,1.45,2.39,4.74.5,9.48,1.13,14.24,1.46,1.6.11,3.67-.03,4.79-.95,2.77-2.26,6.28-2.79,9.19-4.52,6.18-3.68,12.08-4.13,18.13.27,2.25,1.64,3.25.65,3.29-2.1.23-16.98,1.81-33.87,3.59-50.75.48-4.52,1.3-8.99,1.86-13.5.2-1.62.54-3.56-.99-4.64-2.13-1.49-1.9-4.87-4.86-5.68-.6-.16-.71-1.11-.28-2.02.91-1.93-.56-3.41-1.91-3.96-1.09-.44-2.76.37-3.55,1.73-.89,1.53-1.73,3.1-2.56,4.67-.5.95-.6,2.32-2.05,2.29-1.58-.03-1.69-1.46-2.17-2.57-1.83-4.22-2.18-8.81-3.34-13.19-.27-1.01-.31-3.01-2.12-1.95-1.88,1.1-4.13,2.23-5.03,4.25-2.61,5.81-6.3,10.89-9.88,16.09-6.08,8.84-11.94,17.88-18.09,26.65-7.37,10.52-13.78,21.42-19.31,32.93-5,10.42-7.99,21.62-12.62,32.18-2.68,6.11-3.19,12.7-2.36,19.27.69,5.49,3.73,7.81,9.15,7.71,1.67-.03,3.34.04,5-.05,12.34-.65,23.67-4.35,33.81-11.46,7.36-5.16,14.93-10.01,22.43-14.96,2.26-1.49,6.5-1.59,6.45-4.73-.06-3.7-4.47-4.45-7.05-6.41-1.15-.87-2.57-1.32-4.09-.86-5.56,1.66-10.87,1.64-15.7-2.17-.56-.44-1.42-.62-2.17-.69-3.76-.34-7.52-.57-11.28-.91-1.97-.18-3.2.55-4.38,2.23-2.89,4.11-6.08,8-9.15,11.98Zm96.81-126.76c.13-2.22-.27-2.45-2.47-1.43-2.93,1.37-5.04,4.04-8.08,5.22-4.42,1.72-8.09,4.53-11.51,7.74-.74.7-1.56,1.39-.67,2.51,1.44,1.82,2.64,3.94,4.39,5.39,3.46,2.87,5.59,6.53,7.34,10.52.34.77.28,1.94,1.38,2.07,1.14.13,1.45-1,1.72-1.74,1.71-4.74,4.46-8.86,7.44-12.86.53-.71.87-1.54.69-2.5-.95-4.96-.29-9.95-.24-14.92Zm-62.88,113.34c-.77.45-2.27-.54-2.48.84-.21,1.34,1.35,1.26,2.2,1.42,2.28.44,4.55.8,6.88-.11,2.38-.93,4.87-.7,7.13.41,2.49,1.22,4.9,2.61,7.22,4.13,1.28.84,2.19,1.03,3.58.15,3.28-2.07,6.71-3.91,10.05-5.88.8-.48,2.23-.68,1.95-1.92-.3-1.34-1.58-.78-2.53-.72-.53.03-1.19.16-1.59-.08-4.11-2.46-8.95-3.23-13.06-5.73-2.14-1.3-10.78.78-10.99,2.89-.27,2.68-1.99,1.87-3.17,2.46-.68.34-2.24.15-1.49,1.47.99,1.74-.19,1.34-1.01,1.25-.87-.1-1.72-.38-2.68-.6Zm45.2,28.12c-3.13-4.3-7.03-7.52-11.24-10.39-2.99-2.04-6.3-3.56-8.75-6.44-1.09-1.28-3.18-1.8-3.75,1.02-.17.85-.68,1.36-1.45,1.66-4.8,1.86-8.7,5.24-13.13,7.73-.73.41-2.09.56-1.79,1.6.41,1.44,1.72.47,2.52.3,9.61-2.01,18.9-1.22,27.96,2.64,3.01,1.28,6.22,1.96,9.63,1.87Zm-31.99-127.11c1.29,5.01,1.72,9.9,3.42,14.5.55,1.47,1.4,2.28,2.38.44,2.85-5.31,6.32-10.13,10.68-14.32.88-.85,1.69-2.07.38-3.16-3.4-2.84-6.88-5.57-10.35-8.32-.64-.51-1.55-.85-1.98.11-1.61,3.63-3.1,7.31-4.55,10.76Zm14.61,367.43c-2.34.2-4.2.7-3.61,3.78.33,1.72.35,3.52-.26,5.26-.65,1.84.45,2.41,2.01,2.51,1.65.11,3.31.07,4.77,1.13,4.58,3.31,10.07,4.52,15.26,6.37,2.76.99,5.04-1.12,4.6-3.96-.31-2.04-1.89-2.85-3.63-3.45-6-2.09-11.86-4.35-15.87-9.75-.7-.94-1.75-2.06-3.27-1.88Zm15.48-360.01c-.18-1.55-1.35-2.4-2.04-3.49-1.02-1.62-2.16-4.37-4.13-3.6-2.32.9-3.63.1-5.29-.83-.1-.05-.48.15-.53.31-1,2.8-3.51,4.5-5.03,6.93-.5.8-.32,1.46.3,2.07,2.62,2.59,4.3,5.85,6.28,8.88,1.3,2,2.22,1.6,3.44.02,2.29-2.98,3.78-6.5,6.42-9.25.29-.3.42-.75.58-1.05Zm-20.15,119.84c.08.61.15,1.72.37,2.8.15.71.22,1.72,1.28,1.62,1.09-.11.88-1.07.87-1.83,0-1.45.13-2.88.9-4.16.67-1.12.48-1.92-.88-2.17-1.13-.21-2.31-.32-2.53,1.27-.09.65-.02,1.32-.02,2.47Z"/><path class="cls-1" d="m259.45,737.98c2.36,14.26.18,28.76,2.5,43.96-2.13-2.14-1.98-4.05-2.1-5.79-.59-8.52-.31-17.05-.35-25.58-.02-4.18.18-8.37-.05-12.59Z"/><path class="cls-1" d="m305.53,751.13c-3.19,3.66-7.07,8.11-10.95,12.57-.27-.27-.55-.55-.82-.82,3.96-4.39,8.12-8.59,11.77-11.75Z"/><path class="cls-1" d="m284.68,739.77c5.25.63,9.19,4.14,13.87,6-5.1-.9-9.42-3.62-13.87-6Z"/><path class="cls-1" d="m228.75,739.95c-4.11,2.07-8.91,2.36-12.63,5.34,2.41-3.25,5.87-4.72,12.63-5.34Z"/><path class="cls-1" d="m300.21,768.5c3.34-3.32,6.69-6.65,10.03-9.97-3.26,3.42-5.14,8.27-10.09,9.91,0,0,.05.06.05.06Z"/><path class="cls-1" d="m294.76,767.43c3.2-3.3,5.83-7,8.76-8.96-2.45,2.51-5.6,5.73-8.76,8.96Z"/><path class="cls-1" d="m300.16,768.44c-1.39,3.31-4.52,4.94-7.07,7.12,2.11-2.61,3.94-5.5,7.13-7.06,0,0-.06-.06-.06-.06Z"/><path class="cls-1" d="m292.71,781.17c2.57-2.8,5.14-5.61,7.71-8.41-2.03,3.32-4.27,6.45-7.71,8.41Z"/><path class="cls-1" d="m301.68,779.33c-2.45,2.42-4.91,4.84-8.04,7.93,2.83-3.4,5.23-5.88,8.04-7.93Z"/><path class="cls-1" d="m294.98,795.22c2.16-2.46,3.86-4.4,5.71-6.51-.68,2.87-2.13,4.58-5.71,6.51Z"/><path class="cls-1" d="m258.61,858.42c-1.14,2.29-2.29,4.58-3.43,6.87.19-2.69,1.45-4.91,3.43-6.87Z"/><path class="cls-1" d="m253.41,902.98c1.26-2.63,2.51-5.26,3.77-7.89-.18,3.09-1.83,5.53-3.77,7.89Z"/><path class="cls-1" d="m258.43,870.58c-1.14,2.05-2.29,4.11-3.43,6.16.33-2.53,1.55-4.59,3.43-6.16Z"/><path class="cls-1" d="m257.83,883.03c-.1,2.49-1.51,4.29-3.07,6.04,1.02-2.01,2.05-4.02,3.07-6.04Z"/><path class="cls-1" d="m251.55,928.93c.89-1.92,1.78-3.84,2.67-5.76.09,2.45-1.03,4.35-2.67,5.76Z"/><path class="cls-1" d="m302.4,496.89c5.4,11.4.75,69.13-6.24,75.59,5.06-25.22,8.6-50.17,6.24-75.59Z"/><path class="cls-1" d="m273.76,466.77c-5.82,5.62-8.51,13.1-12.31,19.9-1.04,1.87-.92,2.95,1.31,3.72,8.62,2.97,7.86,3.41,10.07-5.04,1.68-6.42,4.8-12.32,9.16-17.5-2.48,4.47-4.84,8.97-6.5,13.81-.65,1.89-1.22,3.76-1.72,5.69-.73,2.78-.31,4.49,2.76,5.12.71.14,2.15.35,1.69,1.54-.45,1.15-1.53.3-2.3.03-1.72-.61-3.36-.6-5.19-.26-4.16.76-7.7-1.6-11.39-2.97-1.51-.56-.87-1.99-.28-3.15,1.91-3.76,4.15-7.29,6.5-10.81,2.15-3.22,4-6.6,7-9.14.39-.33.81-.62,1.21-.93Z"/><path class="cls-1" d="m336.41,542.68c-.14-23.51-6.7-44.95-20.66-64.02,15.56,18.53,21.89,40.06,20.66,64.02Z"/><path class="cls-1" d="m306.13,484.04c10.07,26.2,9.76,53.22,6.15,80.5,2.27-27.17,3.45-54.25-6.15-80.5Z"/><path class="cls-1" d="m282.27,517.32c-.02,5.35-2.69,8.22-7.71,8.27-3.93.04-6.95-3.34-6.94-7.74.02-5.52,2.94-8.96,7.6-8.96,4.68,0,7.06,2.86,7.05,8.43Zm-1.2.47c.02-3.96-2.42-7.13-5.46-7.08-3.03.05-6.94,4.33-6.84,7.49.09,3.01,3.28,6.07,6.38,6.13,3.45.06,5.9-2.63,5.92-6.53Z"/><path class="cls-1" d="m265.54,554.77c-2.55-.51-5.35-1.49-8.39-1.64-2.39-.12-4.73-1.06-7.18-.29-.51.16-1.22.16-1.37-.53-.07-.33.24-.79.47-1.13,2.15-3.13,4.24-3.5,7.54-1.25.81.55,1.43.53,2.07-.04,2.03-1.83,3.77-1.23,5.49.51.77.78,1.76,1.34,2.59,2.08.53.47,1.53.82.98,1.81-.39.7-1.18.41-2.2.48Z"/><path class="cls-1" d="m241.12,514.81c.09-5.31,2.88-8.97,6.8-8.94,4.97.05,9.48,4.14,9.34,8.49-.19,5.71-2.97,8.92-7.68,8.86-6.18-.08-8.56-2.46-8.46-8.42Zm15.3-.13c.05-3.54-3.61-6.83-7.76-6.99-3.3-.12-6.47,3.65-6.57,7.81-.1,4.29,2.6,6.34,8.52,6.48,3.53.08,5.74-2.69,5.81-7.3Z"/><path class="cls-1" d="m266.71,540.14c-1.9,1.78-3.72,2.12-5.28,1.37-3.37-1.6-6.89-1.37-10.41-1.53-2.58-.12-4.72-1.04-6.13-3.34-2.03-3.29-1.59-5.34,1.69-7.41,3.89-2.45,7.56-5.18,10.94-8.3-2.29,3.94-6.17,6.07-9.6,8.73-1.11.86-3.26.98-2.86,3.15.43,2.32,1.71,4.06,4,4.89.62.22,1.32.52,1.93.41,5.3-.91,9.95,2.33,15.73,2.01Z"/><path class="cls-1" d="m318.1,506.24c3.19,8.55,4.17,17.6,6.12,26.43,1.5,6.79,2.59,13.49.48,20.32-.25.82-.54,1.64-1.24,2.38.32-2.74.76-5.48.94-8.23.56-8.54-2.19-16.64-3.4-24.95-.78-5.36-2.47-10.56-2.86-16l-.04.05Z"/><path class="cls-1" d="m274.57,499.17c3.74-.42,6.05,2.16,8.74,3.88.53.34.62,1.19.03,1.77-.46.46-1.08.44-1.49.02-2.15-2.22-4.98-3.55-7.29-5.67Z"/><path class="cls-1" d="m254.58,496.06c-2.71,1.99-6.21,2.1-8.78,4.25-.34.29-.87,0-1.11-.4-.36-.59-.01-1.15.41-1.44,2.84-1.92,5.9-3.14,9.48-2.42Z"/><path class="cls-1" d="m252.92,569.82c3.29,1.93,6.43,1.22,9.97-.85-3.08,3.7-7.37,3.94-9.97.85Z"/><path class="cls-1" d="m252.51,556.89c2.37.12,4.7-.26,7.04-.28-2.26,1.36-4.58,1.98-7.04.28Z"/><path class="cls-1" d="m318.14,506.19c-1.03-3.95-2.07-7.89-3.1-11.84,2.17,3.67,3.1,7.66,3.07,11.89,0,0,.03-.05.03-.05Z"/><path class="cls-1" d="m288.82,697.21c.44-1.31,1.58-1.81,2.72-2.24,5.3-1.98,10.3-4.58,15.25-7.3,6.03-3.32,14.47.74,16,7.47.73,3.18,2.24,6.18,1.84,9.67-1.02-3.08-2.14-6.13-3.04-9.25-1.09-3.79-5.94-8.13-9.75-8.42-.73-.06-1.59.1-2.23.45-6.69,3.69-13.65,6.81-20.71,9.71,0,0-.1-.1-.1-.1Z"/><path class="cls-1" d="m315.4,670.22c1.93-4.18,1.87-7.83,3.16-11.12-1.06,8.23-1.84,16.5-4.45,24.51.06-9.16-1.22-18.31.16-27.5,1.01,4.34-.14,8.89,1.12,14.11Z"/><path class="cls-1" d="m328.63,714.65c-1.92-3.14-3.2-5.5-6.72-6.52-2.22-.64-2.52-4.93-3.19-7.65-.67-2.72-1.52-5.23-3.45-7.77,1.79-.04,2.2,1.01,2.59,1.95,1.45,3.45,3.34,6.72,4.28,10.37.28,1.07,1.12,1.42,1.93,2.03,2.24,1.7,4.39,3.63,4.56,7.59Z"/><path class="cls-1" d="m316.92,714.66c.2-7.2-4.46-12.51-7.73-19.37,2.91,2.62,4.21,5.21,5.39,7.87,1.17,2.62,2.48,5.22,3.31,7.95.74,2.41,1.62,2.58,3.34.75-.09,3.38-2.74,2.22-4.37,2.75,0,0,.05.05.05.05Z"/><path class="cls-1" d="m306.13,676.64c.58-2.37,1.13-4.34,2.58-5.87.45-.48.82-1.66,1.7-.94.72.59,1.17,1.57.29,2.57-1.28,1.46-2.31,3.17-4.57,4.24Z"/><path class="cls-1" d="m325.29,724.19c-.98-3.93-1.64-7.9-1.49-11.96,1.26,3.89,1.61,7.89,1.49,11.96Z"/><path class="cls-1" d="m260.43,682.63c-.17,1.22-1.64,1.49-1.01,2.59.4.69,1.03,1.44-.26,1.71-1.13.23-1.54-.63-1.59-1.61-.1-1.81.5-2.97,2.86-2.69Z"/><path class="cls-1" d="m260.71,675.75c-2.4-.85-1.99-2.44-1.64-3.81.34-1.32,1.43-1.47,2.98-.89-1.6,1.21-2.96,2.47-1.34,4.7Z"/><path class="cls-1" d="m261.93,653.72c1.04.9-.15,1.71.14,2.54.23.65,1.32,1.83-.49,1.81-1.14-.01-1.24-1.1-1.07-2.03.17-.94.34-1.94,1.42-2.33Z"/><path class="cls-1" d="m233.26,515.71c-6.1,16.62-9.12,34.3-17.42,50.14,7.07-16.29,10.35-33.87,17.42-50.14Z"/><path class="cls-1" d="m226.95,565.84c.55-2.43,1.11-4.87,1.66-7.3.22,2.6.49,5.22-1.66,7.3Z"/><path class="cls-1" d="m278.04,517.67c-.23,1.3-.6,2.84-2.47,2.71-1.44-.1-1.91-1.34-1.84-2.68.08-1.59.68-2.84,2.53-2.79,1.68.05,1.81,1.29,1.78,2.76Z"/><path class="cls-1" d="m251.23,512.08c1.72.3,2.22,1.53,2.15,3.1-.05,1.26-.67,2.11-2.03,2.05-1.79-.08-2.42-1.23-2.38-2.88.04-1.43.71-2.25,2.25-2.27Z"/></svg>