<?xml version="1.0" encoding="utf-8"?>
<!-- Generator: Adobe Illustrator 28.0.0, SVG Export Plug-In . SVG Version: 6.00 Build 0)  -->
<svg version="1.1" id="scene-02-6" xmlns="http://www.w3.org/2000/svg" xmlns:xlink="http://www.w3.org/1999/xlink" x="0px" y="0px"
	 viewBox="0 0 990.8 869.4" style="enable-background:new 0 0 990.8 869.4;" xml:space="preserve">
<style type="text/css">
	.st0{fill:url(#SVGID_1_);}
	.st1{fill:#BEAA9A;}
	.st2{fill:#3B7C35;}
	.st3{fill:none;}
</style>
<g id="Calque_9">
	
		<linearGradient id="SVGID_1_" gradientUnits="userSpaceOnUse" x1="433.7206" y1="499.8226" x2="567.2536" y2="499.8226" gradientTransform="matrix(1 0 0 -1 0 870)">
		<stop  offset="0" style="stop-color:#3B2F35"/>
		<stop  offset="0.48" style="stop-color:#AEB9B0"/>
	</linearGradient>
	<path class="st0" d="M478.9,306.4c-2,1.6-17.2,9.9-17.2,9.9s-12.9,10.2-13.9,13.2s-6.6,23.5-6.6,23.5l-4.6,3.3c0,0-4,9.9-2.6,11.2
		s1.9,9.3,2.5,10.8c1,2.7,3.4,2.8,3.5,4.4c0.1,1.6,1.6,13.5,2.6,14.2s5.9,16.2,7.3,15.9s9.2,9.6,11.2,10.9s-1.3,3.3-1.3,3.3
		s-1.6,4.6,0.3,5s5.9,3,10.2,4s14.2,4,21.5,3.3s14.9-1.3,23.1-3.3s14.9-3,18.2-5.6s5-1,5.9-5.9s0.7-12.2,0.7-15.2s3.3-4,5.3-8.3
		s1-4,5-6.3s7.3-2,9.2-5s5.6-6.9,6.3-10.2s2.3-12.9,1.7-15.9s-4.3-5.6-6.6-5.9s-8.6-0.3-8.6-0.3s-4.6-16.8-4.6-19.2
		s-10.9-20.1-11.9-21.5s-18.2-8.6-18.2-9.6s-18.2-5.9-19.2-5.9S478.9,306.4,478.9,306.4L478.9,306.4z"/>
	<path class="st1" d="M482.6,361.5c-0.4-1.5-6.2-8.1-7.7-8.1s-10.6-3.1-10.6-3.1l-3.3,4.6c0,0-1.1,8.8-0.9,9.9s2.9,5.5,5.3,5.7
		s6.4,3.1,7.9,1.8s5.4-3.2,5.4-3.2s2.8-1,3.5-3.6S482.6,361.6,482.6,361.5L482.6,361.5z"/>
	<path class="st1" d="M498.3,356.7c-2.2,0-4.2,0.4-4.6,2.6s-0.4,7.7,0.7,8.4s2.9,3.1,5.5,2.9s6.4,1.8,8.6-0.7s6.8-3.1,7.7-5.5
		s-5.5-5.9-6.6-6.6s-7-1.8-7.7-1.8S498.3,356.7,498.3,356.7L498.3,356.7z"/>
	<path class="st2" d="M492.6,297.3c-0.2-1.5-4.6-9.9-5.5-10.7s-3.8-2.8-5.3-2s-4,2.6-4.8,3.5s-0.8,1.5,1.3,3.3s5.3,4,2.5,4
		s-5.3-1.3-6.6-1s-2.3,3.8-1.6,5.3s0.7,3.8,3.6,3.1s6.3-1.6,6.8-1.8s-3.1,4.5-2,5.8s1.5,3.5,4.6,0.7s3.1-3.8,5.9-4.8
		s2.8-0.7,2.3,1.5s-0.2,4.1-2,4.6s-5.1,0.7-6.1,2s-4.6,4.8-5.1,6.1s-0.3,0.8,2.5,0.8s4.6-1,5.3-0.3s0.5,2,0.7,4s-0.3,3.3,1.3,3
		s2.6-0.8,4-3.3s2.5-0.2,2.5-0.2s0.7,1.8,2.5-0.7s5.3-2.8,3.8-4.5s-7.6-5.1-7.3-6.3s0.7-3.3,1.5-4.8s2.1-2,3.6-1.2s4.1,3.6,5.1,4.8
		s1.8,4.6,3,3.8s2.3-2.5,2.1-6.8s-1-7.8-2.8-8.6s-4.8,0.3-6.8,0.7S492.6,297.3,492.6,297.3L492.6,297.3z"/>
</g>
<g>
	<path d="M471.4,375.2c-0.9,0.8-1.9,1.7-2.5,2.3c-0.9-0.5-1.5-1-2.2-1.1c-4.9-1.3-6.6-3.2-6.9-8.1c-0.2-2.7-0.5-5.4-0.5-8
		c0-6.3,2.1-11.8,6.2-16.6c1-1.2,1.9-2.5,2.8-3.8c-0.3-0.4-0.5-0.7-0.7-0.7c-1.6,0.3-3.6,1.9-4.5-0.5c-0.3-0.9,1.2-2.7,2.3-3.6
		c1.8-1.5,4-2.7,6.1-3.7c3.6-1.8,7.3-3.4,11-5.1c1.2,2.8,0.9,3.2-7.5,9.8c6,1.6,8.5,5.8,9,11.6c0.3,4,0.6,7.9,0.9,11.9
		c0.4,4.2-1.1,7.1-5.2,8.6c2.4-2.8,2.3-5.5,0.3-8.6c-1.8-2.9-4.2-4.5-7.4-5.2c-2.2,7.5-6.8,7.3-10.6,1.8c-3.7,7.2-0.2,13.9,7.5,14.5
		c3.2,0.2,6.4,0.3,9.3-1.4c-2.2,1.9-4.5,3.7-6.7,5.6c-0.2-0.4-0.4-1-0.8-1.1c-3.1-0.9-6.2-1.6-9.3-2.4
		C464.3,375,465.7,375.6,471.4,375.2L471.4,375.2z M483.8,360.2c-0.4-4.6-0.9-8-1-11.5c-0.1-3.2-1.3-5.8-3.1-8.3
		c-2.2-3-4.6-3.9-7.6-1.8c-4,2.8-7,6.7-8.8,11.7C472.2,349.1,478.3,352.9,483.8,360.2L483.8,360.2z"/>
	<path d="M512.4,372.4c-3.3,3.6-7.3,4.2-11.7,2.9c-4.8-1.4-7.4-5.1-8.1-9.7c-0.5-2.7,0.1-5.7,0.5-8.5c0.3-2,1-4,1.3-6.1
		c1.1-6,4.9-9.5,10.4-11.4c5.6-1.9,13.2,2.2,14.1,8.1c0.9,6.5,1,13.1-1.4,19.4c-0.2,0.5-0.8,0.9-1.2,1.4l0.1,0.1
		c-0.3-0.5-0.5-1-0.7-1.3c-2.5,1.6-4.7,3.6-7.3,4.5c-2.6,0.9-5.6,0.7-8.8,1c2.4,2,4.8,1.5,7.1,1.1c2-0.3,3.9-1,5.9-1.5L512.4,372.4
		L512.4,372.4z M495.5,355.5c4,0.2,7.8-0.2,11.3,0.7c3.5,0.9,6.6,3.2,10.6,5.2c0-4.1,0-7.7,0-11.3c-0.1-4.8-3.1-7.8-7.2-9.1
		c-3.9-1.3-7.3,0.4-10.3,3.4C496.8,347.5,496,351.4,495.5,355.5L495.5,355.5z M495.5,358.6c-2.4,4.6-1.8,7.5,1.9,9.9
		c5.4,3.5,11.6,2.2,16.9-3.6c-1.4-4-4.5-5.8-8.7-6.8c-0.9,3.1-2.9,5.2-5.9,5.5C496.8,363.8,496.4,360.9,495.5,358.6L495.5,358.6z"/>
	<path d="M522.8,343.1c-4.6-3-8.4-5.3-12-7.9c-3.7-2.6-4-5.6-1.4-10.8c2.2,3.1,4.1,6.4,6.5,9.1C518.3,336.3,521.4,338.3,522.8,343.1
		L522.8,343.1z"/>
	<path d="M465.9,378.8c-0.1,7.5,1.9,9.4,8.8,9.3c1.9,0,3.8-0.1,5.7-0.5c2.8-0.6,5.4-1.6,8.1,0.7c0.7,0.6,2.3,0.1,3.9,0.1
		c-1.6,2-3.4,1.7-4.9,1.2c-3.3-1.1-6.5-0.6-9.8-0.3c-2.9,0.3-6.1-0.1-8.8-1C464.1,386.7,463.6,384.8,465.9,378.8L465.9,378.8z"/>
	<path d="M554.1,380c6-4.5,6.8-7.3,3.5-12.4c-1,0.6-2.1,1.1-3.1,1.7c-0.9,0.5-1.9,1.1-3.1,1.9c1.3-2.4,4-5,5.6-5.4
		c1.7-0.5,3.3-0.1,4.2,1.5c1.5,2.7,1.3,5.7-0.1,8.2C559.7,377.8,558.5,380.9,554.1,380L554.1,380z"/>
	<path d="M556.2,374.3c-2.4,0.9-4.3,1.6-6.2,2.4C550.9,373.2,551.5,372.9,556.2,374.3z"/>
	<path d="M538,352.9c0.1-0.9,0.1-1.8,0.2-2.6c0.3,0,0.5,0,0.8-0.1c0.2,0.5,0.5,1,0.5,1.5c0,0.4-0.2,0.8-0.4,1.2
		C538.8,352.9,538.4,352.9,538,352.9z"/>
	<path d="M516.2,368.5c-0.3,2.3-1.9,3.3-3.9,3.9l0.1,0.1C513.8,371.2,515,369.9,516.2,368.5L516.2,368.5L516.2,368.5z"/>
</g>
<g>
	<path d="M462.3,404.1c-0.1-0.6-2.2-7-1.5-8.2c0.4-0.6,5.9,3.9,27.8,0.1c4.7-0.8,13.3-3.7,16.5-7.5s8.7-10.6,13.3-9.1
		c5.7,1.8,7.2,3.2,7.7,6.9c0.8,5.2-3.1,17.9-5,20s-3.1,4.9-13.2,1.8c-10.1-3.1-21.6-6.1-27.6-3.8s-13.5,4.8-15.4,3.8
		C462.7,406.9,462.7,405.6,462.3,404.1L462.3,404.1z"/>
	<path class="st1" d="M517.1,382.1c-0.8,0.4-3.2,2.5-3.8,3s-0.7,2.1-0.7,2.1s1.5,1.2,2.8,0.2s3.1-2.2,3.1-2.6
		S517.1,382.1,517.1,382.1L517.1,382.1z"/>
	<path class="st1" d="M510.6,387.8c-0.7,0.7-2.8,2.9-2.8,2.9s-1.4,1.6-0.3,2.2s1.9,1.1,3,0.3s2.3-2.3,2.5-2.6
		S510.9,387.4,510.6,387.8L510.6,387.8z"/>
	<path class="st1" d="M505.2,392.6c-1.1,0.2-4.4,2.5-5.3,2.6s-0.8,0.9-0.8,1.4s0.8,2.2,2.1,1.5s4.3-1.8,4.7-2.8
		S505.2,392.6,505.2,392.6L505.2,392.6z"/>
	<path class="st1" d="M497.1,396.2c-2.6,0.8-5.6,1-5.6,1s0,1.8,0.1,2.2s1.4,1,3.3,0.5s3.3-1.6,3.3-1.6L497.1,396.2L497.1,396.2z"/>
	<path class="st1" d="M489.2,397.8c-4.3,0.5-6.4-0.1-6.3,0.5s-0.9,2,1.2,2s5.1,0.3,5.4-0.2S489.2,397.8,489.2,397.8L489.2,397.8z"/>
	<path class="st1" d="M479,398.2c-3.1,0-5.1,0.1-5.1,0.1l0.1,2c0,0-0.3,0.3,2.3,0.3s3.5,1.4,4.4-0.2S479,398.2,479,398.2L479,398.2z
		"/>
	<path class="st1" d="M521.5,394.8c-1.7,2.3-3.3,3.5-3.3,3.5s-2.5-2.1-1.7-3.3s0.7-2,2.1-2.4s1.9-1.1,2.2-0.5
		S521.5,394.8,521.5,394.8z"/>
	<path class="st1" d="M516.3,399.6c-3.6,1.2-5.6,2.1-5.4,0.7s0.1-3,1-3.4s1.3-0.4,2.3-0.5S516.3,399.6,516.3,399.6z"/>
	<path class="st1" d="M509,402.6c-1.9,3.8-5.2,2.1-5.1,0.8s-0.7-2.5,0.3-3.1s1.5-1.6,2.6-1.6S509.7,401.1,509,402.6z"/>
	<path class="st1" d="M501.9,403.8c-3.5,0.4-4.6-0.5-5.9-0.3s-0.9-1.8-0.9-1.8s0.7-1.4,2.8-1.1s3.5,0.2,4,0.4
		S501.9,403.8,501.9,403.8L501.9,403.8z"/>
	<path class="st1" d="M493.4,402.7c-1.9-0.1-4.8-0.4-5.6-0.3s-0.9-1.1-0.9-1.1s1-0.4,2.3-0.4s1.6-0.1,3.1,0.1
		S493.4,402.7,493.4,402.7z"/>
	<path class="st1" d="M484.9,402.1c-3.4,0.7-6.3,1-6.3,1s-1.3-1.1,0.1-1.2s1.4-0.7,3.1-0.8S484.8,402.1,484.9,402.1L484.9,402.1z"/>
</g>
<g>
	<path class="st3" d="M494.8,307c1.4-1.2,1-3.9,2.8-4.8C495.2,302.8,494.7,303.9,494.8,307z"/>
	<path class="st3" d="M492.8,466.8c2,0,2.3-1.1,1.5-3.2c-12.4,0.4-24.8,0.8-37.2,1.2v0l-0.1,0.5c8.4,0.5,16.9,1.1,25.3,1.5
		C485.8,466.9,489.3,466.9,492.8,466.8z"/>
	<path class="st3" d="M490.6,301.2c1.2-5.1-1-8.9-3.2-12.7c-1.8-3.2-4.1-3.6-6.9-1.3c-0.9,0.7-1.7,1.4-2.7,2.3
		c1.9,1.9,3.7,3.8,5.7,5.8c-3.6,1.3-4.5,1.4-9.1,1c-0.9,4.5-0.1,5.5,3.9,4.5c1.6-0.4,3.2-1.1,5.5-1.8c-0.4,2.8-0.7,5.1-1.2,8.6
		C485.9,304.9,488.2,303.1,490.6,301.2z"/>
	<path class="st3" d="M436.9,358.4c-2.1,2.6-3.4,5.5-1.8,8.8c1.4,2.8,1.9,5.7,1.4,8.8c-0.1,2.2,0.8,3.6,2.7,4.4
		c2.1-5.3,1.2-10.7,1.4-16.1c0.1-2-0.2-3.7-2.9-4.3c1.1-0.7,1.8-1.2,2.6-1.7C438.9,356.6,437.7,357.5,436.9,358.4z"/>
	<path class="st3" d="M536.3,321.8c-0.9-2.6-2.9-4.1-5.2-5.4c-2.5-1.4-4.9-3-7.3-4.5c-3.5-2.1-6.9-4.5-11.5-4.6
		c-0.4,3.1-0.7,6.3-4.1,8.7c-0.2-4.5-2.1-7.1-5-9.5c-3.7-3.1-5.1-2.9-6.5,2.5c3.3,1.8,5.9,4.4,7.6,7.8c-2.3,2.3-4.3,4.3-6.4,6.3
		c-0.8-0.3-1.6-0.7-2.1-1c-2.3,1.5-4.3,2.9-6.5,4.5c-0.8-3.3-1.4-5.9-2.1-8.6c-2.5,0.3-4.8,0.7-8.2,1.1c2.2-3.1,3.8-5.2,5.3-7.4
		c1.3-1.9,2.6-3.5,5.3-3.2c2,0.2,2.8-0.9,2.5-2.9c-0.5-0.1-0.9-0.3-1.1-0.2c-4.2,2.2-8.9,2.8-13.3,4.3c-10.8,3.7-20.4,9.4-26.3,20.1
		c-6.4,11.6-10.6,23.5-8.2,37c0.5,2.6,0.7,5.6-0.2,8c-2.3,6.7-2.1,13.1,0.1,19.7c1,3,2.3,5.9,3.4,8.9c3.3,9.4,10,16,18.1,21.7
		c-1.4,0.2-2.6,0.3-3.9,0.4c0.1,4.8,2.2,7.7,6.2,8.8c0.5,0.1,0.9,0.3,1.4,0.5c6.5,3.2,13.6,2.7,20.5,3.8c0.9,0.1,1.9-0.1,2.8-0.2
		c2.4-0.2,4.8-0.3,7.1-0.6c5.5-0.6,11.2-0.5,16.5-2c6-1.8,12.3-3,18-5.9c2.7-1.4,4.6-3,5-5.8c0.9-5,1.7-10.1,0-15
		c3.2-4.7,6.3-9.3,9.6-14c-3.1-2.7-5.3-5.5-3.3-10.8l0,0c0.5,2.2,0.7,3.4,1,4.5c1.4,4.5,5,5.7,8.8,3.1c8.5-5.6,13.3-18,11.2-28.2
		c-0.6-2.9-2-5.2-5.1-5.6c-3.2-0.4-6.5-0.6-8.5,2.8c-1.2,2-2.4,3.9-3.7,5.9c-0.3-0.1-0.6-0.3-0.9-0.4c0.5-1.7,0.7-3.8,1.7-5.1
		c2.3-2.7,2.3-5.3,1.2-8.3c-0.4-1.2-0.6-2.5-1-3.7c-2.8-8.8-5.1-17.9-11.7-24.9C537.1,323.6,536.7,322.6,536.3,321.8z"/>
	<path class="st3" d="M495.5,298.7c1.3,1.3,2.3,2.2,3.3,3.2c0.5-1,1.1-2,1.7-3.2H495.5z"/>
	<path class="st3" d="M509.5,309.2c1.6-6.8-1-10.2-6.7-8.9C502.8,304.9,506.5,306.8,509.5,309.2z"/>
	<path class="st3" d="M487.2,310.4c-1,1.9-2,3.8-3.3,6.3c1.6-0.2,2.7-0.1,3.7-0.4c1.1-0.3,2.1-0.9,3.2-1.4c1.5,2.8-3.2,5.9,1.3,8.5
		c1.1-2.3,2.2-4.5,3.5-7.3c1,1.8,1.8,3.1,2.8,4.7c1.4-1.7,2.5-3,3.7-4.4C497.9,311.9,493.5,309,487.2,310.4z"/>
	<polygon points="440.4,358.3 440.4,358.3 440.4,358.4 	"/>
	<path d="M497.6,302.2c0.4-0.1,0.8-0.2,1.3-0.3h0c0,0,0,0,0,0c0,0,0,0,0,0C498.3,301.9,497.9,302,497.6,302.2z"/>
</g>
<g>
	<path class="st3" d="M542.8,405.6c0.2,0,0.3,0.1,0.5,0.1l2.4-2.7l1.2-1.8c-0.3-0.1-0.6-0.2-0.9-0.3
		C544.7,402.7,543.8,404.1,542.8,405.6z"/>
	<path class="st3" d="M457.7,435.7l7.8,1.3l22.9,6.9c0,0,41.8-8.2,42.2-8.2s12.2-9.9,12.2-9.9l-2.1-17.3c0,4.5,0.3,8.7-0.1,12.7
		c-0.4,4.9-3.3,8.2-7.6,10.8c-6,3.6-12.9,4.5-19.4,6.3c-8.9,2.5-18.3,1.6-27.5,2.2c-0.6,0-1.3,0-1.9-0.2c-6-2-12.6-1.2-18.6-3.9
		c-2.6-1.2-5.3-1.9-6.8-4c0-2,0.1-3.6,0-5.2c-0.3-5-0.7-5.5-5.4-5.5l1.5,2.4L457.7,435.7z"/>
	<path class="st3" d="M553.4,356.1c1.5,0,2.7,0.1,4,0c8.3-0.5,10.7,4.4,10.6,10.8c-0.1,6-1.5,12.1-4.3,17.6
		c-2.5,4.9-6.6,8.5-11.8,9.9c-3.1,0.9-3.9,2.7-5,5.1c0.3,0.1,0.6,0.2,0.9,0.3l0.7-1.1l15.6-6.8c0,0,7.2-15.2,7.2-15.9
		c0-0.8,0.4-18.9,0.6-19.9c0.2-1-7.6-7.1-7.7-7.2s-6-2.2-6-2.2l-11.2-22.1l-4.9-3.5l-1.2-1.6c-0.3,0.4-0.7,0.9-1,1.3
		C546.2,332,550.7,343.7,553.4,356.1z"/>
	<polygon class="st3" points="440.4,358.3 440.4,358.3 440.4,358.4 	"/>
	<path class="st3" d="M441.3,352.5L441.3,352.5c-0.3-5.1,0.8-10,3.2-14.6c1.4-2.7,2.5-5.5,3.6-8.3c2-4.8,5-8.7,9.4-11.8
		c6.8-4.8,13.6-9.6,21.4-12.5c0.8-0.3,1.3-1.2,2.7-2.7c-4.1,0.3-7.6,2.1-9.4-1.4c-1.5-2.8-0.4-5.7,1.1-8.4c1.9,0.7,3.6,1.3,5.8,2.2
		c-0.8-3.2-5.5-3.4-3.9-6.8c1.8-1.1,3.5-1.9,5-3c3.4-2.4,7.1-1.6,9.2,2c1.3,2.2,2.5,4.4,3.9,6.6c2.1,3.4,3.2,3.8,7,2.7
		c0.9-0.3,1.8-0.7,2.7-1c2.7-1.1,5.1-0.5,7,1.5c1.5,1.6,2.8,3.4,4.2,5.1c0.8,0.9,1.5,2.1,2.5,2.5c7.2,2.7,14.1,6,19.7,11.6
		c0.5-0.3,0.9-0.7,1.4-1l-1.8-2.4L514.3,300l-7.2-9.3l-9.9,4.1l-10.3-14.6l-14.5,4.1l-7.2,8.7l1.9,11.2L447,320.7l-11.1,16.5v13.7
		l-2.9,3.4c0.3,0,0.7,0,1,0.1C436.5,354.6,439.1,354.5,441.3,352.5z"/>
	<path class="st3" d="M536.3,321.8c-0.9-2.6-2.9-4.1-5.2-5.4c-2.5-1.4-4.9-3-7.3-4.5c-3.5-2.1-6.9-4.5-11.5-4.6
		c-0.4,3.1-0.7,6.3-4.1,8.7c-0.2-4.5-2.1-7.1-5-9.5c-3.7-3.1-5.1-2.9-6.5,2.5c3.3,1.8,5.9,4.4,7.6,7.8c-2.3,2.3-4.3,4.3-6.4,6.3
		c-0.8-0.3-1.6-0.7-2.1-1c-2.3,1.5-4.3,2.9-6.5,4.5c-0.8-3.3-1.4-5.9-2.1-8.6c-2.5,0.3-4.8,0.7-8.2,1.1c2.2-3.1,3.8-5.2,5.3-7.4
		c1.3-1.9,2.6-3.5,5.3-3.2c2,0.2,2.8-0.9,2.5-2.9c-0.5-0.1-0.9-0.3-1.1-0.2c-4.2,2.2-8.9,2.8-13.3,4.3c-10.8,3.7-20.4,9.4-26.3,20.1
		c-6.4,11.6-10.6,23.5-8.2,37c0.5,2.6,0.7,5.6-0.2,8c-2.3,6.7-2.1,13.1,0.1,19.7c1,3,2.3,5.9,3.4,8.9c3.3,9.4,10,16,18.1,21.7
		c-1.4,0.2-2.6,0.3-3.9,0.4c0.1,4.8,2.2,7.7,6.2,8.8c0.5,0.1,0.9,0.3,1.4,0.5c6.5,3.2,13.6,2.7,20.5,3.8c0.9,0.1,1.9-0.1,2.8-0.2
		c2.4-0.2,4.8-0.3,7.1-0.6c5.5-0.6,11.2-0.5,16.5-2c6-1.8,12.3-3,18-5.9c2.7-1.4,4.6-3,5-5.8c0.9-5,1.7-10.1,0-15
		c3.2-4.7,6.3-9.3,9.6-14c-3.1-2.7-5.3-5.5-3.3-10.8l0,0c0.5,2.2,0.7,3.4,1,4.5c1.4,4.5,5,5.7,8.8,3.1c8.5-5.6,13.3-18,11.2-28.2
		c-0.6-2.9-2-5.2-5.1-5.6c-3.2-0.4-6.5-0.6-8.5,2.8c-1.2,2-2.4,3.9-3.7,5.9c-0.3-0.1-0.6-0.3-0.9-0.4c0.5-1.7,0.7-3.8,1.7-5.1
		c2.3-2.7,2.3-5.3,1.2-8.3c-0.4-1.2-0.6-2.5-1-3.7c-2.8-8.8-5.1-17.9-11.7-24.9C537.1,323.6,536.7,322.6,536.3,321.8z"/>
	<path class="st3" d="M487.2,310.4c-1,1.9-2,3.8-3.3,6.3c1.6-0.2,2.7-0.1,3.7-0.4c1.1-0.3,2.1-0.9,3.2-1.4c1.5,2.8-3.2,5.9,1.3,8.5
		c1.1-2.3,2.2-4.5,3.5-7.3c1,1.8,1.8,3.1,2.8,4.7c1.4-1.7,2.5-3,3.7-4.4C497.9,311.9,493.5,309,487.2,310.4z"/>
	<path class="st3" d="M482.6,307.5c3.2-2.6,5.6-4.4,8-6.3c1.2-5.1-1-8.9-3.2-12.7c-1.8-3.2-4.1-3.6-6.9-1.3
		c-0.9,0.7-1.7,1.4-2.7,2.3c1.9,1.9,3.7,3.8,5.7,5.8c-3.6,1.3-4.5,1.4-9.1,1c-0.9,4.5-0.1,5.5,3.9,4.5c1.6-0.4,3.2-1.1,5.5-1.8
		C483.4,301.7,483.1,304,482.6,307.5z"/>
	<path class="st3" d="M498.9,301.9C498.9,301.9,498.8,301.9,498.9,301.9C498.8,301.9,498.8,301.9,498.9,301.9c-0.6,0-1,0.1-1.3,0.3
		C497.9,302.1,498.4,302,498.9,301.9L498.9,301.9z"/>
	<path class="st3" d="M509.5,309.2c1.6-6.8-1-10.2-6.7-8.9C502.8,304.9,506.5,306.8,509.5,309.2z"/>
	<path class="st3" d="M497.6,302.2c-2.4,0.7-2.9,1.7-2.8,4.8C496.2,305.8,495.7,303.1,497.6,302.2z"/>
	<path class="st3" d="M440.6,364.4c0.1-2-0.2-3.7-2.9-4.3c1.1-0.7,1.8-1.2,2.6-1.7c-1.5-1.8-2.7-0.8-3.4,0.1
		c-2.1,2.6-3.4,5.5-1.8,8.8c1.4,2.8,1.9,5.7,1.4,8.8c-0.1,2.2,0.8,3.6,2.7,4.4C441.3,375.2,440.4,369.8,440.6,364.4z"/>
	<path class="st3" d="M495.5,298.7c1.3,1.3,2.3,2.2,3.3,3.2c0.5-1,1.1-2,1.7-3.2H495.5z"/>
	<path class="st3" d="M492.8,466.8c2,0,2.3-1.1,1.5-3.2c-12.4,0.4-24.8,0.8-37.2,1.2v0l-0.1,0.5c8.4,0.5,16.9,1.1,25.3,1.5
		C485.8,466.9,489.3,466.9,492.8,466.8z"/>
	<path d="M456,420.2c1.7,1.3,2.6,2,2.9,7c0.1,1.6,0,3.2,0,5.2c1.5,2.1,4.1,2.8,6.8,4c6,2.7,12.6,2,18.6,3.9c0.6,0.2,1.3,0.2,1.9,0.2
		c9.2-0.5,18.6,0.3,27.5-2.2c6.5-1.8,13.4-2.7,19.4-6.3c4.3-2.6,7.2-5.9,7.6-10.8c0.4-4.1,0.1-8.2,0.1-12.7l1.8-2.6
		c-0.2,0,0-0.2,0.2-0.4c1-1.5,2-2.9,3.2-4.6c0.3,0.1,0.2-0.8,0.5-0.7l0.4-0.6c-0.3-0.1-0.1,0,0.1-0.3c1.1-2.4,1.9-4.2,5-5.1
		c5.2-1.5,9.3-5,11.8-9.9c2.7-5.5,4.1-11.5,4.3-17.6c0.1-6.5-2.3-11.4-10.6-10.8c-1.2,0.1-2.5,0-4,0c-2.7-12.4-7.2-24.1-13.4-35.3
		c-0.4-0.8-0.5-0.9-0.8-1.3l-1.6-2.2c-0.3-0.5-0.5-0.5-1-1c-5.7-5.6-12.5-8.9-19.7-11.6c-1-0.4-1.7-1.6-2.5-2.5
		c-1.4-1.7-2.6-3.5-4.2-5.1c-1.9-2-4.3-2.6-7-1.5c-0.9,0.3-1.8,0.7-2.7,1c-3.8,1.2-5,0.7-7-2.7c-1.3-2.2-2.6-4.4-3.9-6.6
		c-2.1-3.7-5.8-4.4-9.2-2c-1.5,1.1-3.2,1.9-5,3c-1.6,3.4,3.1,3.5,3.9,6.8c-2.2-0.8-3.8-1.4-5.8-2.2c-1.5,2.7-2.6,5.6-1.1,8.4
		c1.8,3.5,5.3,1.7,9.4,1.4c-1.4,1.4-2,2.4-2.7,2.7c-7.9,3-14.6,7.7-21.4,12.5c-4.3,3.1-7.4,6.9-9.4,11.8c-1.2,2.8-2.2,5.6-3.6,8.3
		c-2.4,4.6-3.6,9.5-3.2,14.6l0,0c-2.2,2-2.1,2.7-4.6,2.5c-0.3,0-1.6,0.4-2,0.4l-1.3,1.7c0.9,0.1-0.1,0.2-0.6,1.1
		c-2.3,7,2,13.2,2.3,20c0,1.2,0.6,2.9,1.4,3.4c3,1.8,2.8,4.6,3.3,7.5c0.5,3,1.5,5.8,2.4,8.7c0.7,2.2,1.5,4.4,2.3,7
		c-0.3,0,0.6,0.7,0.4,0.8l0.5,2.2c0.2,0,0.1,0.6,0.3,0.6c3,3.3,5.1,6.6,7.9,9.7c0.8,0.4,1.5,1,1.3,1 M439.2,380.5
		c-1.8-0.9-2.8-2.2-2.7-4.4c0.5-3.1,0-6-1.4-8.8c-1.6-3.3-0.3-6.2,1.8-8.8c0.7-0.9,1.9-1.9,3.4-0.1c0,0,0,0,0,0l0,0c0,0,0,0,0,0
		c-0.9,0.6-1.5,1-2.6,1.7c2.6,0.6,2.9,2.3,2.9,4.3C440.4,369.8,441.3,375.2,439.2,380.5z M509.5,309.2c-3.1-2.4-6.7-4.2-6.7-8.9
		C508.5,298.9,511.1,302.4,509.5,309.2z M497.6,302.2c0.3-0.2,0.7-0.3,1.3-0.3c0,0,0,0,0,0c-1-1-2-1.9-3.3-3.2h5
		c-0.6,1.1-1.1,2.1-1.7,3.2c0,0,0,0,0,0h0C498.4,302,497.9,302.1,497.6,302.2c-1.8,0.9-1.4,3.6-2.8,4.8
		C494.7,303.9,495.2,302.8,497.6,302.2z M501.9,316.5c-1.2,1.5-2.3,2.8-3.7,4.4c-1-1.7-1.7-3-2.8-4.7c-1.3,2.8-2.4,5-3.5,7.3
		c-4.4-2.7,0.3-5.7-1.3-8.5c-1,0.5-2.1,1.1-3.2,1.4c-1,0.3-2.1,0.2-3.7,0.4c1.3-2.5,2.3-4.4,3.3-6.3
		C493.5,309,497.9,311.9,501.9,316.5z M478.3,300.8c-4,1-4.9-0.1-3.9-4.5c4.6,0.4,5.5,0.4,9.1-1c-2-2-3.8-3.8-5.7-5.8
		c1-0.9,1.9-1.6,2.7-2.3c2.8-2.3,5-1.9,6.9,1.3c2.2,3.8,4.4,7.6,3.2,12.7c-2.4,1.9-4.7,3.7-8,6.3c0.5-3.5,0.8-5.8,1.2-8.6
		C481.6,299.7,480,300.4,478.3,300.8z M549.3,349.2c0.4,1.2,0.6,2.5,1,3.7c1.1,3,1.1,5.7-1.2,8.3c-1.1,1.3-1.2,3.4-1.7,5.1
		c0.3,0.1,0.6,0.3,0.9,0.4c1.2-2,2.5-3.9,3.7-5.9c2.1-3.4,5.4-3.2,8.5-2.8c3.1,0.4,4.5,2.6,5.1,5.6c2.1,10.2-2.8,22.6-11.2,28.2
		c-3.9,2.5-7.4,1.3-8.8-3.1c-0.4-1.2-0.6-2.4-1-4.5l0,0c-1.9,5.2,0.2,8.1,3.3,10.8c-3.2,4.7-6.3,9.3-9.6,14c1.7,4.9,0.8,10,0,15
		c-0.5,2.8-2.4,4.4-5,5.8c-5.7,3-12,4.1-18,5.9c-5.2,1.5-11,1.5-16.5,2c-2.4,0.2-4.8,0.4-7.1,0.6c-1,0.1-1.9,0.4-2.8,0.2
		c-6.9-1.1-14-0.6-20.5-3.8c-0.4-0.2-0.9-0.4-1.4-0.5c-4-1.1-6-4-6.2-8.8c1.2-0.1,2.5-0.3,3.9-0.4c-8.1-5.7-14.8-12.2-18.1-21.7
		c-1-3-2.3-5.9-3.4-8.9c-2.2-6.5-2.5-13-0.1-19.7c0.8-2.4,0.6-5.4,0.2-8c-2.4-13.5,1.8-25.4,8.2-37c5.9-10.7,15.5-16.4,26.3-20.1
		c4.4-1.5,9.1-2.1,13.3-4.3c0.2-0.1,0.6,0.1,1.1,0.2c0.3,2-0.5,3.1-2.5,2.9c-2.7-0.3-4,1.3-5.3,3.2c-1.5,2.2-3,4.3-5.3,7.4
		c3.4-0.5,5.7-0.8,8.2-1.1c0.7,2.8,1.3,5.4,2.1,8.6c2.2-1.5,4.2-2.9,6.5-4.5c0.5,0.2,1.3,0.6,2.1,1c2.1-2.1,4.1-4,6.4-6.3
		c-1.6-3.4-4.2-6-7.6-7.8c1.5-5.3,2.8-5.6,6.5-2.5c2.8,2.4,4.7,5,5,9.5c3.5-2.4,3.7-5.6,4.1-8.7c4.6,0.1,8,2.5,11.5,4.6
		c2.5,1.5,4.9,3.1,7.3,4.5c2.3,1.3,4.2,2.9,5.2,5.4c0.3,0.9,0.7,1.8,1.3,2.5C544.3,331.3,546.6,340.3,549.3,349.2z"/>
</g>
</svg>
