<?xml version="1.0" encoding="UTF-8"?>
<svg id="personnage1" xmlns="http://www.w3.org/2000/svg" xmlns:xlink="http://www.w3.org/1999/xlink" viewBox="0 0 1849.91 1450.57">
  <defs>
    <style>
      .cls-1 {
        fill: url(#Dégradé_sans_nom_4);
      }

      .cls-1, .cls-2, .cls-3, .cls-4, .cls-5 {
        stroke-width: 0px;
      }

      .cls-3 {
        fill: #3b2f35;
      }

      .cls-4 {
        fill: #585254;
      }

      .cls-5 {
        fill: #aeb9b0;
      }
    </style>
    <linearGradient id="Dégradé_sans_nom_4" data-name="Dégradé sans nom 4" x1="1023.25" y1="482.67" x2="1081.12" y2="467.57" gradientUnits="userSpaceOnUse">
      <stop offset=".13" stop-color="#beaa9a"/>
      <stop offset=".18" stop-color="#c39991"/>
      <stop offset=".31" stop-color="#d06f7b"/>
      <stop offset=".44" stop-color="#dc4d68"/>
      <stop offset=".57" stop-color="#e4325a"/>
      <stop offset=".71" stop-color="#eb1f50"/>
      <stop offset=".85" stop-color="#ee134a"/>
      <stop offset="1" stop-color="#f01048"/>
    </linearGradient>
  </defs>
  <path class="cls-1" d="m997.1,398.64c8.04,18.89,16.4,31.24,12.56,43.65-3.97,12.82,1.18,35.31,2.35,40.02s4.71,34.13,4.71,43.55,0,18.83,2.35,23.54,5.88,17.65,12.95,18.83,14.12,2.35,20.01-8.24c5.88-10.59,4.71-45.9,4.71-45.9,1.59-.18-8.34-41.58-11.77-48.25-3.23-6.28-11.77-36.49-12.95-40.02s-12.49-20.27-19.4-21.56c-6.91-1.29-15.52-5.61-15.52-5.61Z"/>
  <path class="cls-5" d="m986.12,401.1c-7.06-1.18-35.46,1.05-42.52,8.11s-14.82,13.27-17.17,19.16c-2.35,5.88-7.39,30.4-6.21,36.29s12.95,32.95,12.95,40.02,0,22.36-4.71,28.25,0,16.48,0,16.48c0,0,7.06,10.59,14.12,12.95,7.06,2.35,30.6,10.59,34.13,9.42s8.24,9.42,12.95,2.35c4.71-7.06,21.19-7.06,25.89-12.95s7.06-11.77,4.71-22.36c-2.35-10.59-5.88-31.78-7.06-41.19-1.18-9.42-4.71-21.19-4.71-28.25s2.35-24.72,1.18-27.07-3.53-28.25-4.71-31.78-8.84-11.21-8.84-11.21l-9.99,1.79Z"/>
  <path class="cls-3" d="m828.41,1336.64c0,1.57,5.23,29.82,5.23,29.82,0,0-2.62,13.6,8.89,16.74,11.51,3.14,22.49-2.09,37.14.52,14.65,2.62,16.22.52,23.54,6.8,7.32,6.28,7.85,3.14,24.06,13.6s18.31,20.92,30.34,17.78c12.03-3.14,21.97-4.71,16.74-14.12-5.23-9.42-12.55-26.68-19.88-29.29s-9.94-2.09-13.08-10.98c-3.14-8.89-2.62-19.88-7.32-22.49-4.71-2.62.52-7.32-10.46-3.66s-24.06,6.8-25.63,12.03c-1.57,5.23-15.17,7.32-19.88-1.57s-15.69-27.72-15.69-27.72c0,0-3.14,8.37-8.89,9.42-5.75,1.05-18.83-.52-22.49,0"/>
  <g>
    <path class="cls-4" d="m916.68,547.04c-4.71,1.18-10.59,9.42-18.83,11.77s-17.65,2.35-23.54,7.06c-5.88,4.71-29.42,12.95-35.31,14.12-5.88,1.18-34.13,24.72-34.13,24.72l-28.25,20.01-10.59,8.24s16.48,22.36,20.01,22.36,20.01,5.88,20.01,5.88c0,0,4.71,14.12,2.35,18.83s-9.42,22.36-15.3,35.31c-5.88,12.95-9.42,27.07-11.77,36.49s-5.88,31.78-8.24,38.84,5.88,24.72,11.77,25.89c5.88,1.18,27.07,21.19,34.13,21.19s32.95,5.88,37.66,7.06c4.71,1.18,23.54,2.35,30.6,2.35s24.72-4.71,30.6-8.24c5.88-3.53,21.19,0,9.42-8.24-11.77-8.24-28.25-32.95-41.19-37.66-12.95-4.71-32.95-28.25-32.95-28.25-4.71-11.77-10.59-42.37-8.24-47.08s10.59-11.77,18.83-12.95c8.24-1.18,16.48-1.18,28.25-1.18s27.07,8.24,30.6,14.12c3.53,5.88,7.06,9.42,4.71,14.12s-2.35,29.42-2.35,29.42l10.59,15.3s9.42-8.24,10.59-18.83c1.18-10.59,3.53-49.43,7.06-58.85,3.53-9.42,15.3-35.31,20.01-40.02s21.19-36.49,21.19-36.49l-7.06-29.42s12.95-17.65,3.53-14.12c-9.42,3.53-17.65-7.06-29.42-9.42-11.77-2.35-22.36-8.24-28.25-14.12s-12.95-14.12-12.95-14.12l-3.53,5.88Z"/>
    <path class="cls-5" d="m757.79,643.55c-2.35,3.53-10.59,20.01-15.3,27.07s-4.71,31.78-4.71,37.66,8.24,20.01,12.95,22.36,18.83,31.78,23.54,30.6c4.71-1.18,16.48-25.89,12.95-32.95s-15.3-28.25-8.24-35.31c7.06-7.06,20.01-14.12,21.19-18.83s-4.71-17.65-4.71-17.65c-8.24,0-23.54-9.42-27.07-14.12s-10.59,1.18-10.59,1.18Z"/>
    <path class="cls-5" d="m854.3,705.93c-.63.95-1.35,2.67-2.06,4.8-1.93,5.81-3.82,14.75-3.82,19.91,0,7.06,15.3,44.72,18.83,48.25,3.53,3.53,30.6,17.65,37.66,30.6,7.06,12.95,35.31,40.02,41.19,44.72,5.88,4.71,24.72,21.19,27.07,28.25s5.88,8.24,3.53,18.83c-2.35,10.59,1.18,25.89,5.88,31.78,4.71,5.88,16.48,17.65,16.48,17.65,3.53,5.88,4.71,11.77,4.71,18.83s8.24,10.59,8.24,10.59c0,0,7.06-4.71,10.59,1.18s8.24,5.88,11.77,2.35,7.06,3.53,10.59-1.18c3.53-4.71,4.71-3.53,2.35-16.48s2.35-21.19-2.35-31.78c-4.71-10.59-18.83-22.36-22.36-30.6s-24.72-29.42-28.25-40.02c-3.53-10.59-35.31-40.02-44.72-56.49s-21.19-30.6-23.54-35.31c-2.35-4.71-4.71-15.3-3.53-27.07s-3.53-27.07-10.59-31.78-24.72-14.12-29.42-12.95-28.25,5.88-28.25,5.88Z"/>
    <path class="cls-3" d="m773.09,790.67c-3.53,5.88-9.42,12.95,4.71,21.19,14.12,8.24,47.08,34.13,58.85,35.31,11.77,1.18,42.37,4.71,52.96,4.71s35.31-7.06,35.31-7.06c0,0,0,40.02,1.18,48.25,1.18,8.24,3.53,48.25,4.71,56.49,1.18,8.24-4.71,16.48-2.35,29.42s7.06,43.55,7.06,55.32,10.59,50.61,10.59,63.56,1.18,30.6,0,52.96c-1.18,22.36-1.18,85.92-5.88,97.69-4.71,11.77-7.06,40.02-7.06,52.96s4.71,36.49-1.18,41.19c-5.88,4.71-22.36,7.06-27.07,2.35-4.71-4.71-5.88-48.25-3.53-64.73s-1.18-84.74-1.18-101.22-4.71-62.38-18.83-77.68c-14.12-15.3-23.54-47.08-25.89-41.19-2.35,5.88,2.35,29.42,2.35,49.43s4.71,49.43,4.71,65.91v61.2c0,12.95-1.18,55.32-2.35,65.91-1.18,10.59,7.06,30.6-1.18,31.78-8.24,1.18-36.49,4.71-36.49-1.18s-22.36-185.96-22.36-191.84-14.12-58.85-14.12-58.85c0,0-9.42-67.09-10.59-76.5s-12.95-51.79-12.95-71.79-5.88-49.43-5.88-49.43l-5.88-25.89,1.18-5.88s15.3-22.36,12.95-32.95,8.24-29.42,8.24-29.42Z"/>
    <g>
      <path class="cls-2" d="m1038.65,981.77c6.22.25,7.74-1.16,5.84-6.85-3.04-9.13-6.25-18.25-11.07-26.65-1.96-3.42-3.51-6.84-3.74-10.85-.81-14-6.5-26.03-15.25-36.73-3.33-4.08-7.95-7.46-10.12-12.04-3.32-7-6.8-13.94-10.53-20.67-5.24-9.46-9.77-19.3-18.07-27.03-13.54-12.6-24.41-27.53-33.42-43.72-5.19-9.33-9.53-19.19-15.39-28.05-3.23-4.89-4.01-9.46-2.74-14.49,2.08-8.18,1.35-16.15-.39-24.18-2.33-10.79-19.17-24.85-30.23-25.81-9.63-.83-18.62,2.54-27.92,3.75-5.61.73-8.1,8-14.13,9.2-.39.08-.63,1.52-.73,2.35-2.13,17.75,1.86,34.06,11.53,49.03.59.91,1.89,2.3,2.35,1.73,1.33-1.63,3.01-1.77,4.54-2.5,4.18-1.99-1.64-3.42-1.54-5.67.04-.83-1.48-1.42-.45-2.79,4.58,3.63,6.72,8.97,7.48,13.86,1.23,7.95,11.04,5.46,12.69,12.05.01.04,1.06,0,1.13-.17,2.33-6.24,3.15.52,4.75.59,3.85.18.54,3.92,2.91,5.96,4.28,3.68,11.55,5.9,10.47,13.89-.05.38.83.89,1.27,1.34,11.18,11.32,24.25,20.27,33.4,34.28,7.87,12.04,22.22,19.44,29.93,32.57,3.18,5.42,9.25,8.15,13.28,12.89,4.03,4.75,3.46,8.59-2.6,10.16-2.44.63-1.83,1.18-1.84,2.7-.08,11.34,1.01,22.52,4.45,33.77-9.63-8.25-14.09-17.63-11.89-30.27,1.05-6.04.94-12.01-4.16-18.2-6.98-8.48-12.16-18.57-20.36-26.2-5.62-5.22-8.34-13.13-15.69-16.71-1.28-.62-2.41-2.52-3.89-1.28-1.68,1.41-.6,3.24.47,4.6,2.67,3.42,3.8,7.59.78,10.58-3,2.96-2.8,5.99-2.83,9.36-.14,18.1,3.28,35.97,3.03,54.13-.4,29.03.3,57.98,5.97,86.73,5.18,26.28,8.68,52.89,12.74,79.38,2.26,14.71,4.37,29.63,2.09,44.38-2.91,18.82-3.61,37.73-4.02,56.64-.41,18.98-2.94,37.77-5.24,56.48-1.91,15.58-4.49,31.01-4.67,46.76-.16,14.21-1.69,28.73,2.17,42.4,2.7,9.58,3.46,18.87,3.4,28.52-.01,1.9-.43,3.88,1.8,5.07,10.13,5.43,17.7,14.07,26.35,21.34,12.92,10.85,14.78,19.38,6.92,30.79-6.33,9.18-23.46,12.63-33.31,6.83-16.02-9.43-31.1-20.26-45.93-31.42-4.67-3.51-9.35-4.48-14.98-3.82-16.14,1.9-32.29.51-48.1-2.41-13.13-2.43-16.83-12.32-10.62-24.15,3.21-6.13,2.95-20.54-1.1-23.14-3.37-2.17-3.47-4.8-2.78-7.72,1.18-4.96.4-9.82.26-14.76-.34-12.55-4.19-24.66-4.5-37.14-.77-30.49-8.97-59.9-12.65-89.96-2.48-20.27-7.81-40.13-8.98-60.61-.77-13.36-4.53-26.23-7.15-39.22-2.26-11.17-4.01-22.44-5.79-33.64-3.23-20.36-5.71-40.83-9.16-61.18-4.6-27.11-8.22-54.39-11.97-81.64-1.23-8.93-1.32-18.29-4.8-26.48-4.46-10.51-5.57-20.52-1.68-31.15-.18,6.24-.63,12.48-.45,18.71.17,5.85,5.37,10.8,11.12,11.24,2.08.16,3.95,1.59,2.06,2.91-4.83,3.38-3.12,7.95-2.42,11.73,4.38,23.65,7.32,47.49,10.48,71.32,1.74,13.12,4.16,26.28,6.16,39.38,2.76,18.02,6.51,35.93,7.82,54.25.92,12.96,4.04,25.86,7.11,38.55,3.14,12.97,5.49,26.09,6.6,39.29,1.44,17.21,6.02,33.8,8.33,50.85,3.17,23.38,7.88,46.55,10.48,70.05,1.5,13.49,3.08,26.93,3.74,40.5.35,7.23,2.52,14.37,3.84,21.56.36,1.94,1.33,3.27,3.4,3.16,5.37-.28,10.73-.66,16.09-1.09,1.59-.13,2.56-1.38,1.5-2.64-5.71-6.76-3.29-14.79-3.64-22.35-.18-4.07.03-8.18.31-12.25.1-1.51-.11-3.97,2.53-3.58,2.13.31,1.41,2.37,1.42,3.74.05,8.19-.01,16.37.03,24.56,0,1.93-.08,3.96.48,5.76.59,1.87.87,4.96,3.6,4.51,2.41-.39,1.6-3.2,1.6-5,.01-15.08-.07-30.17-.13-45.25,0-1.51-.01-3.02-.17-4.52-.13-1.23-.21-2.83-1.95-2.72-1.23.08-1.51,1.45-1.66,2.49-.5,3.38-.9,6.77-1.47,11.2-3.76-3.96-3.23-8.32-1.87-11.18,1.94-4.08.41-9.31,4.46-12.52.38-.3.64-1.31.44-1.73-5.3-10.92,1.07-21.44,1.07-32.16,0-1.87,0-3.75,0-6.33-2.83,1.72-2.28,4.57-3.99,6.69-1.37-1.64-2.81-3.13-3.96-4.82-.97-1.43-1.26-2.72,1.3-3.01,5.17-.58,3.29-3.51,1.35-5.57-2.73-2.91-3.87-6.11-3.46-9.98.1-.99-.17-2.71,1.2-2.51,7.82,1.14,2.79-3.09,1.99-5-1.53-3.64-.57-7.23-.28-10.81.25-3.13,1.16-6.21-.3-9.41,2.43.1,2.8,3.16,5.87,2.41-12.01-14.78-.43-28.86,1.22-43.83-4.58,1.88-4.28,5.81-5.29,8.8-1.65,4.88-2.83,9.91-4.28,14.86-.23.77-.76,1.48-1.29,2.1-.08.09-1.17-.39-1.42-.82-.56-.95-.91-2.26.42-2.76,3.05-1.16,2.01-3.17,1.48-5.29-1-4.03-1.51-7.96,3.3-10.18,1.22-.57,1.31-1.89.56-2.72-3.88-4.32-1.47-9.03-.88-13.55.83-6.42,1.6-12.83,1.34-19.32-.12-2.93-.02-5.98-2.16-8.53-3.18,1.59-.88,4.92-2.61,7.14-3.65-1.74-4.22-5.49-5.36-8.72-.45-1.27-.34-2.97,2.03-3.14,4.34-.3,4.33-.42,1.73-4.25-.6-.89-1.19-1.79-2.15-3.24,4.03.7,6.32-.13,3.09-3.86-4.71-5.44-3.79-12.53-5.97-19.14,2.65,4.5,7.4-2.93,10,2.6-1.76-6.15-4.29-11.5-8.04-16.16-5.14-6.38-8.77-13.67-12.91-20.65-1.07-1.8-.99-3.69-.84-5.63l-.12.11c4.05,4.21,5.93,9.7,8.54,14.74,1.26,2.43,2.31,4.89,4.79,6.44,2.43-3.16-1.63-5.15-1-7.83,4.69,3.56,6.23,9.82,12.54,14.08-1.14-7-5.09-11.07-7.83-15.45-7.71-12.31-15.03-24.82-22.08-37.51-1.41-2.55-1.48-5.33-1.6-8.11,1.68.9,1.74,5.02,4.48,3.15,1.84-1.25-.47-3.45-1.14-5.16-4.52-11.58-10.56-22.53-14.19-34.5-.59-1.96-1.06-4.78-4.78-5.42.42,6.74,5.15,12.04,5.23,18.49-3.85-5.09-7.62-12.01-6.37-16.99,2.52-10-3.89-17.82-3.53-26.88.03-.64.07-1.28.15-2.76,4.69,7.64,5.84,15.84,8.15,23.42,3.42,11.2,9.5,21,14.09,31.55,7.49,17.25,15.66,34.21,23.67,51.23,8.47,17.99,17.72,35.57,27.56,52.87,9.63,16.92,19.74,33.67,26.75,51.9,3.69,9.6,5.09,19.89,6.22,30.22,6.04,55.5.46,111.07,1.22,166.59.07,4.88,0,9.21,6.32,10.96,13.1,3.64,13.69,3.74,14.78-9.8,1.68-20.79,2.92-41.62,4.16-62.44.28-4.79,1.35-9.37,2.47-13.95,9.56-39.38,8.77-79.35,6.99-119.41-.71-15.92-1.88-32.16-.16-47.72,1.23-11.11-4.49-19.21-5.41-29.03-1.11-11.93-4.24-23.65-3.86-35.83.52-16.49-2.74-32.26-8.55-47.78-4.01-10.7-7.24-21.72-11.76-32.35,5.17,3.17,4.6,10.3,9.71,13.38-1.41,5.48,2.24,9.18,5.49,13.34,0-3.06-.26-6.15.06-9.18.53-5.03-1.37-6.09-5.67-4.04-1.73-12.32-4.61-24.37-8.48-36.19-.79-2.42-2.15-4.74-.89-7.82,5.81,3.49,3.82,11.31,9.54,15.7.26-11.11-2.67-21.05-4.34-31.17,8.28,17.11,1.39,36.65,9.35,54.01,0-7.93.59-15.91-.12-23.77-1.47-16.25-5.49-32.23-5.11-48.73.05-2.03,2.11-11.38-6.35-4.89-2.15,1.65-3.54-.18-3.58-2.62-.05-3.37,1.11-6.23,3.34-8.83,1.93-2.26,2.58-5.15,1.08-7.85-1.57-2.82-4.62-2.18-7.02-1.7-4.54.89-10.24.43-8.92,8.45.61,3.68-2.44,6.36-6.82,5.58-1.93-.34-3.48-1.73-2.29-3.65,3.69-5.96-.84-5.15-4.15-5.24-3.44-.1-6.89.05-10.34.02-4.01-.04-7.81-.62-9.17,5.08-.76,3.21-4.32,3.94-7.57,2.42-1.41-.66-2.99-1.73-1.13-3.33,4.58-3.94.66-4.65-2.08-5.74-4.81-1.9-9.79-3.04-14.91-3.86-4.11-.66-5.53.85-5.57,4.73-.02,1.71,1.3,4.52-1.57,4.78-2.93.26-4.48-2.76-3.94-4.87,2.42-9.49-5.77-9.88-10.69-12.9-1.96-1.2-4.67-1.68-5.82,1.59-.81,2.32-1.57,4.81-4.83,3.56-3.21-1.23-3.17-4.27-2.21-6.56,1.63-3.88-.61-5.41-3.15-7.19-6.88-4.82-7.71-4.49-9.06,3.87-.24,1.48-.05,3.25-2.26,3.18-1.73-.05-2.76-1.31-3.16-2.82-.78-2.98-.31-5.96.25-8.95.69-3.66-4.39-11.17-7.83-11.7-2.19-.34-2.42,1.32-2.44,2.89-.05,3.17-.02,6.34-.02,10.87-6.18-5.47-4.69-11.03-4.04-16.36.15-1.24,1.41-2.67,1.05-3.57-1.23-3.07-1.56-8.14-5.01-8.17-2.95-.02-2.39,4.7-2.6,7.6-1.35,18.41,9.19,29.97,22.91,39.56,2.72,1.9,6.7,2.75,1.79,6.51-.4.31-.55,1.2-.5,1.8,1.01,12.42-6.45,23.72-4.79,36.23.55,4.16-2.66,5.78-5.51,7.03-4.52,1.98-7.59-1.15-12.12-4.77,3.08.46,4.6.64,6.1.91,4.96.89,7.47-1.02,7.11-6.21-.46-6.57.67-12.85,3.32-18.88,1.86-4.25,1.71-8.79,2.11-13.27.21-2.35-.63-3.5-2.42-4.71-7.79-5.28-13.68-12.21-17.51-20.85-.66-1.48-1.62-3.06-3.27-2.25-1.93.95-1.47,3.16-.51,4.53,3.19,4.58,6.56,9.04,10.01,13.43,1.31,1.66,3.07,2.98,3.65,5.39-1.87.09-3.66.1-5.48.46-4.28.85-6.78-2.05-4.94-6.09,2.35-5.15-.77-6.87-3.88-9.03-2.08,1.36-.47,3.53-1.74,4.87-.58-1.29-.07-3.31-2.35-3.31-2.15,0-2.18,1.66-2.44,3.13-.94,5.3-2.51,10.4-4.7,15.31.2-11.22,1.56-22.11,5.41-32.87,6-16.77,9.76-34.19,13.08-51.7.69-3.63.7-6.74-.83-9.94-4.49-9.38-12.17-16.77-16.28-26.4-1.3-3.04-3.46-5.62-6.42-7.05-7.27-3.51-10.79-9.29-11.6-17.16-.24-2.3-1.58-4.47-2.07-6.77-3.26-15.16-3.49-30.23,5.99-43.31,8.64-11.92,17.25-24.02,28.96-33.39,8.27-6.63,15.19-14.77,23.8-21.08,13.44-9.85,27.65-18.34,42.28-26.29,14.2-7.71,29.06-14.83,44.54-17.56,12.18-2.15,20.14-12.5,32.4-12.74.84-.02,2.04-1.67,2.4-2.79,1.52-4.7,3.76-8.11,9.54-7.21,1.44.22,2.04-1.13,2.42-2.51,2.18-7.82,5.44-15.35,2.83-23.91-1.61-5.3-2.52-10.96-2.74-16.5-.47-11.57-5.03-22.01-8.49-32.72-1-3.08-2.23-5.92-1.99-9.17,1.21-16.1,8.46-29.89,16.87-43.15,1.18-1.85,3.48-3.44,5.59-4.18,9.24-3.21,18.43-7.22,27.98-8.74,10.85-1.73,22.07-3.47,33.12-.11,2.78.84,4.74,1.65,5.27,5.33,2.54,17.67,6.84,34.98,4.21,53.31-1.31,9.1-2.51,19.71,5.96,27.43.76.69.9,2.16-.08,2.93-3.83,3.01-2.12,7.08-2.23,10.81l.08-.1c-3.81-3.23-6.62-8.02-12.66-7.67-4.99.28-9.81-1.03-14.61-2.1-3.86-.86-7.71-.59-11.57-.48-1.31.04-2.7.32-2.78,2.02-.07,1.62,1.11,1.89,2.48,2.28,3.45.98,7.17,1.19,10.26,3.35,1.16.81,2.11,1.72,1.31,3.14-.62,1.1-1.94,1.03-2.89.55-2.67-1.35-5.88-1.17-8.34-3.21-1.44-1.19-2.85-.9-3.04,1.38-.32,3.73,5.2,11.07,9.38,12.96,4.97,2.25,8.43-.03,11.07-3.73,1.78-2.5,2.91-3.52,5.26-.75,2.08,2.44,4.51,1.42,5.71-.73,1.24-2.23,1.99-5.69,4.77-4.9,2.91.83,2.66,4.56,2.65,7.34,0,1.79,1.23,3.77-.87,5.79-1.71-3.17-3.94-2.65-6.31-.9-1.37,1.01-3.2,2.67-4.54,1.78-4.01-2.68-5.74-3.3-3.91,2.63.72,2.33-1.91,3.57-3.01,2.48-2.89-2.89-5.66-.83-8.46-.66-6.12.39-11.9.35-16.52-4.93-3.96-4.53-5.18-9.57-5.27-15.38-.06-3.69.2-9.21-6.4-4.72-1.23.84-2.45-.16-3.69-.36-5.14-.82-9.99-2.49-14.72-4.64-1.54-.7-3.42-1.38-4.92-.22-1.71,1.32-.64,3.23-.27,4.82.92,3.98,2.31,7.87,2.97,11.89,2.17,13.08,5.46,26.21-2.37,38.8-1.78,2.87-1.21,6.2,1.99,8.57,5.3,3.92,10.32,8.21,15.74,11.95,13.74,9.5,25.92,9.67,37.43.31-.67,2.95-5.53,6.52.99,7.4-2.05,5.83,1.74,3.94,4.22,3,4.66-1.77,7-.53,7.59,4.34.62,5.09-.74,9.58-4.86,12.6-2.45,1.79-3.28,3.69-3.07,6.49.27,3.65.16,7.34.61,10.96,1.89,15.26-1.58,29.26-9.45,42.34-3.84,6.39-9.32,11.91-11.6,19.08-4.21,13.22-6.79,27.03-11.8,39.9-7.34,18.84-9.82,39.06-17.65,57.72-2.28,5.43-1.83,11.49,2.48,16.44,2.61,3,4.16,6.78,4.91,10.38,1.94,9.27,8.76,14.94,14.4,21.47,8.03,9.31,17.72,17.21,23.83,28.15,15.16,27.15,34.45,51.31,54.31,75.06,4.8,5.74,7.45,12.19,7.08,20.01-.51,10.75-.34,21.52,2.34,32.1.52,2.05.38,4.28.44,6.43.11,3.84-1.81,6.41-5.6,6.49-3.37.07-7.65.79-8.42-4.48l-.09.13Zm-111.49-419.45c-5.17-3.88-10.4-8.38-17.33-6.09-4.13,1.37-8.2,3.92-11.43,6.88-21.5,19.72-43.39,39.21-60.55,62.99-7.05,9.77-11.14,21.61-17.58,31.89-7.18,11.46-13.87,23.05-18.13,35.91-2.96,8.92-5.41,18.18-8.94,26.7-3.96,9.55-3.11,19.09-4.52,28.61-.13.85.06,2.07-.44,2.49-7.19,6.12-4.54,14.32-4.74,21.91-.15,5.41,4.58,8.55,6.09,13.19.37,1.14,1.31,2.1,2.6,4.07-4.06-1.2-4.72-7.72-8.35-4.98-2.73,2.06.52,6.15.85,10.3-1.3-2-2.08-3.23-2.89-4.45-1.07-1.61-1.97-2.3-4.08-.84-1.73,1.2-2.61,2.1-1.72,4.02,5.74,12.37,14.04,22.72,24.95,30.87,1.25.94,3.69,2.71,5.07.48,1.01-1.63-1-2.81-2.44-3.91-5.09-3.9-9.29-8.68-12.78-14.21,3.75,4.97,10.76,5.17,14.26,10.65,4.45,6.95,12,10.13,19.14,13.38,21.95,9.98,44.45,16.59,69.12,12.18,7.21-1.29,14.35-2.58,21.28-4.82,8.08-2.62,8.87-5.85,2.79-11.55-9.01-8.45-17.16-18.57-27.65-24.46-8.77-4.92-13.93-12.42-20.66-18.72-7.08-6.62-10.98-15.8-15.67-24.18-7.87-14.08-11.92-29.15-6.94-45.18,2.73-8.79,7.53-16.75,11.98-24.82,8.67-15.73,18.17-30.95,28.05-45.91,10.83-16.41,22.22-32.49,35.22-47.3,2.37-2.7,6.03-4.23,8.47-6.88,3.33-3.6,4.12.65,5.63,1.62,2.93,1.89.29,3-1.08,4.23-8.39,7.49-16.95,14.79-25.08,22.55-10.38,9.92-18.49,21.45-21.95,35.65-1.77,7.3-4.61,13.95-9.41,19.72-2.34,2.81-.71,3.87,1.92,4.14,3.64.37,7.31.4,10.96.64,1.65.11,3.76-.16,3.58,2.5-.16,2.4-2.01,2.44-3.79,2.45-4.95.03-9.92-.25-14.76,1.11-1,.28-2.35.22-2.57,1.48-.29,1.65,1.24,2.41,2.35,2.56,3.82.5,7.68.68,13.24,1.11-8.07.62-14.28,2.06-20.41,3.99-1.71.54-3.19,1.04-4.38,2.4-.91,1.05-3.28,1.23-2.64,3.13.77,2.28,2.79,1.23,4.42.94.84-.15,1.74-.11,2.55-.35,22.81-6.73,40.69,3.29,57.38,17.06,5.29,4.37,7.92,4.3,11.28-1.05,9.09-14.46,18.65-28.63,27.17-43.42,5.43-9.43,12.45-18.13,16.38-28.14,3.77-9.58,10.36-19.05,6.31-30.68-1.13-3.24-.23-7.27.07-10.92.87-10.82-.73-13.5-10.84-17.39-1.4-.54-2.92-.82-3.76-2.26,3.28-1.88,6.26-.2,9.27.82,1.41.47,2.72,1.45,4.14,1.64,1.46.2,3.34-.22,3.75-1.86.6-2.38-1.69-1.68-2.9-2.27-13.47-6.51-29.04-7.09-41.94-15.36-7.58-4.86-12.37-12.47-19.33-17.86-1.42-1.1-2.11-3.68-4.58-2.38-.8.42-1.45,1.61-1.66,2.56-.6,2.75,1.79,2.95,3.47,3.74,3.53,1.66,4.91,5.38,7.18,8.13,6.53,7.91,15.7,11.49,24.25,16.16-11.25-.81-18.89-8.36-27.22-14.61Zm-64.37,532.96c1.44,53.66,1.6,107.33.79,160.99-.32,21.52-1.35,43.05-1.6,64.59-.02,1.66-.6,3.11,1.46,4.4,5.24,3.26,7.98,8.82,11.07,13.83,2.96,4.8,7.1,8.1,11.59,11,3.76,2.42,7.11,2.42,8.85-2.98,1.36-4.22,1.48-8.43,1.59-12.75.87-33.59.99-67.22,2.95-100.74,1.51-25.91-1.48-51.66-.53-77.48.15-4.17-1.92-7.89-3.34-11.66-7.29-19.44-16.22-38.15-25.85-56.53-1.37-2.61-3.08-5.04-5.49-8.93-2.13,6.44-1.63,11.39-1.5,16.26Zm133.04-667.59c1.04-1.19,3.6-1.64,2.62-3.86-.85-1.93-3.04-.99-4.65-1.28-1.54-.28-4.13,1-4.31-1.38-.18-2.34,2.35-2.57,4.31-2.88,1.97-.31,5.12.22,4.62-2.98-.47-2.94-3.45-1.94-5.39-1.68-2.64.36-4.64.55-4.83-3.03-.09-1.71-1.85-2.44-3.29-2.71-15.46-2.96-40.32-3.02-51.52,14.06-3.62,5.52-7.52,11.01-6.69,18.35.28,2.45-.45,5.16-1.25,7.57-3.81,11.43,2.46,25.43,12.99,31.23,12.31,6.79,25.21,5.7,38.26,4.69,1.05-.08,2.09-.57,3.13-.55,4.2.09,8.39,1.45,9.78-5.14.76-3.6,7.26-2.72,8.9-6.91.53.26,1.43.42,1.52.79.18.74.2,1.79-.2,2.36-1.36,1.94-3.16,3.43-5.11,4.83-1.8,1.29-4.35,3.32-2.22,5.62,1.63,1.76,4.67,0,5.64-1.45,2.35-3.48,3.61-4.96,6.52-.32,1.3,2.07,3.17.14,2.87-1.93-3.14-21.43,1.87-43.02-1.42-64.43-.55-3.59-1.57-7.13-2.66-10.61-.43-1.37-1.69-2.92-3.43-1.87-1.33.8-.57,2.17-.01,3.42,2.12,4.75,3.1,9.68,2.98,14.99-.2,8.37,1.7,7.85-10.42,8.05,1.79-1.62,2.61-2.23,3.28-2.98Zm-217.54,313.25c3.38-13.4-9.8-22.93-6.88-36.23,1.05,4.25,2.01,8.09,2.96,11.94.26,1.04.42,2.29,1.84,2.15,1.41-.14,1.53-1.39,1.34-2.44-2.71-15.45,4.63-26.55,15.23-36.53,3.36-3.16,9.48-5.56,9.26-9.86-.19-3.84-6.74-4.85-10.23-7.49-7.44-5.65-15.08-11.05-22.3-16.97-3.41-2.8-5.09-2.04-7.67,1.01-11.62,13.72-20.13,28.97-20.78,47.2-.56,15.56,4.07,29.7,16.7,40.03,4.73,3.87,8.09,8.82,11.44,13.76.83,1.22,1.39,2.6,2.63,3.52,1.68,1.24,3.21,3.26,5.57,1.25,2.24-1.9,1.19-3.76-.11-5.66-2.91-4.24-5.48-8.67-9.15-12.4-3.35-3.4-4.9-7.97-6.35-12.73,5.3,6.46,8.94,14.42,16.5,19.45Zm80.84-167.59c-11.15,5.74-23.05,10.24-33.43,17.37-14.53,9.97-29.35,19.72-41.39,32.76-2.99,3.23-6.21,4.17-9.8,5.22-5.55,1.62-6.01,3.68-3.71,8.79,5.44,12.1,17.34,14.64,27.62,19.64,1.95.95,3.05-.16,4.35-1.54,5.07-5.4,10.14-10.83,15.54-15.88,2.5-2.34,1.74-5.04,2.24-7.69.71-3.8-.77-9.3,6.33-8.64,1.57.15,2.73-1.55,2.89-3.06.51-4.99,4.28-7.63,7.37-10.78,12.41-12.63,24.61-25.53,39.27-35.66,3.25-2.24,6.81-4.01,10.47-7.56-11.36-2.58-19.82,2.96-27.73,7.03Zm47.49,809.73c11.22,9.52,23.05,18.2,36.23,24.79,5.79,2.9,12.23,4.08,18.65,4.77,2.95.32,6.33.26,8.29-2.43,1.94-2.64-.75-4.77-1.71-7.04-1.54-3.67-4.05-6.7-7.18-8.97-8.39-6.08-14.92-13.96-21.37-21.88-1.59-1.95-4.45-3.4-2.05-8.06,2.16-4.21-3.59-9.08-5.23-13.94-.8-2.37-3.83-.94-5.87-.88-2.03.06-3.35,1.06-4.65,2.84-3.81,5.21-9.84,6.57-14.51,2.56-4.17-3.58-4.51-1.06-5.05,2.06-.88,5.08-1.56,10.2-2.33,15.3-.84,5.6,3.39,7.99,6.79,10.87Zm-50-33.66c-.3-.05-.48-.69-.76-1.01-1.8-2.04-.05-6.59-3.66-6.86-5.32-.4-10.74.1-16.08.62-2.61.25-1.86,2.37-1.16,4,2.82,6.54,3.76,12.97.87,19.93-1.42,3.4,1.5,5.67,4.63,6.54,5.16,1.44,10.28,2.97,15.76,3.13,8.79.26,17.64-.86,26.37.99.82.17,1.83.33,2.52,0,2.09-.96,3.02-15.42,1.08-16.75-7.32-5.01-13.92-10.65-18.04-18.79-.85-1.69-2.34-5.05-4.52-3.04-2.36,2.18-7.29-.05-7.51,4.34-.16,3.22,2.36,6.06,5.27,6.57,7.53,1.32,9.45,6.4,10.11,14.19-5.22-5.42-7.39-12.62-14.88-13.86Zm79.69-614.49c3.44-3.19,6.15-6.76,7.78-11.47,1.75,2.35.38,3.44-.36,4.67-6.8,11.16-8.05,23.73-9.14,36.32-.15,1.74-.72,4.65,1.66,4.87,2.76.26,1.84-2.77,2.12-4.42,1.98-11.61,5.03-22.84,8.82-34.07,3.49-10.32,6.06-21.17,7.69-32.36-8.06,11.19-15.47,22.73-18.56,36.46Zm-142.26-27.99c.09-4.67.87-9.23,4.4-13.05,1.9-2.07,3.78-5.56.62-7.94-2.82-2.12-4.76.65-6.92,2.55-8.9,7.84-9.69,18.02-8.36,28.64.29,2.33,2.8,4.39,4.47,6.82,3.37-5.5,5.67-10.78,5.79-17.01Zm248.5,241.64c3.52-8.18,1.83-14.36-6.55-22.81-1.21,8.2,1.94,18.64,6.55,22.81Zm-108.78-204.35c.31-.81-.46-1.69-1.48-1.56-1.38.17-2.3,1.08-2.79,2.37-1.64,4.31.34,8.31,1.17,12.55,3.36-4.06,1.45-9.05,3.1-13.36Z"/>
      <path class="cls-2" d="m1014.14,499.14c1.92,14.49,2.86,29.2,6.08,43.4,2.3,10.11,7.47,19.66,18.01,24.53-2.64,3.62-5.36-.79-7.79.91,7.82,4.86,20.32.4,23.33-7.32,10.38-26.62,5.98-53.36.26-79.78-4.01-18.52-10.6-36.51-19.75-53.25-4.7-8.59-10.89-16.36-18.72-22.52-1.38-1.08-3.09-3.27-5-1.5-1.55,1.43.22,3.15.98,4.6,1.25,2.39,1.17,6.58,5.89,4.56.27-.11.98.19,1.11.48,3.04,6.53,9.7,10.89,11.19,18.28,1.33,6.58,2.25,13.24,4.38,19.69-.66-3.74-1.36-7.47-1.97-11.22-.17-1.05-.21-2.28,1.09-2.68,1.41-.44,2.12.83,2.25,1.73.97,6.94,5.69,13.03,3.93,20.69-1.23,5.34,3.92,8.8,6.31,12.68,5.16,8.39,4.59,17.17,4.33,26.05-.06,2.21-.78,4.58-.87,6.94-.32,8.45-8.29,12.67-15.48,8.12-2.83-1.8-6.05-3.21-7.99-7.39-.55,8.83,5.52,11.91,10.39,16.1,6.76,5.82,11.77.96,17.58-2.92,1.56,10.49,2.44,20.24.87,30.05-.77,4.79-7.71,12.08-11.32,12.45-7.43.77-10.68-2.29-14.92-10.19-6.48-12.07-8.58-25.04-9.95-38.31-.51-4.99-2.07-9.64-4.32-14.09,0,0,.09-.1.09-.1Z"/>
      <path class="cls-2" d="m1038.65,981.77c-2.57-2.69-2.59-6.34-3.24-9.62-2.49-12.53-9.3-23.94-9.17-37.19.05-5.2-4.28-8.53-7.36-12.31-4.62-5.69-9-11.57-14.2-16.99-.42,5.82,2.61,10.51,5.79,14.54,5.79,7.35,10.63,14.38,10.52,24.6-.06,5.85,3.41,11.79,5.49,17.61,1.81,5.07,3.84,10.06,3.41,15.61-.11,1.46.17,3.18-1.72,3.75-1.58.47-3.09-.09-4.07-1.31-2.82-3.48-5.99-6.76-5.48-11.9.32-3.2-.32-6.5.07-9.68,1.9-15.55-7.96-25.79-16.29-36.74-.69-.91-1.64-1.58-2.63-.43-.99,1.16-.48,2.3.18,3.54,3.37,6.43,6.9,12.78,9.86,19.4,3.91,8.73,1.65,17.82.73,26.92-3.07-4.75-1.71-10.65-4.45-15.4-2.41-4.17-1.6-10.99-9.68-10.88,1.47,2.46,2.64,4.71,4.1,6.76,2.83,3.99,4.21,8.17,3.77,13.22-.39,4.48.45,8.96,2.75,13.06,2.32,4.14,5.25,6.29,9.9,3.71,1.57-.87,2.55-.73,3.95.44q9.12,7.6,17.86-.83s-.09.12-.09.12Z"/>
      <path class="cls-2" d="m1004.85,529.23c2.24,1.44,4.04-1.54,5.3.62,1.01,1.74-.48,3.46-1.25,4.74-1.4,2.35-3.58,4.22-5.36,6.37-.98,1.19-3.34,2.4-1.17,4.11,1.54,1.22,2.66-.55,3.5-1.78.49-.71.81-1.54,1.47-2.82,2.01,5.29,1.75,5.34-3.81,12.17-2.85,3.5-7.43,5.08-10.08,9.59,5.96.05,9.23-4.11,12.8-6.92,2.95-2.32,5.64-5.14,8.82-7.23,1.35-.89,1.88-1.44,1.07-2.91-3.41-6.17-2.54-12.96-2.75-19.59-.05-1.47.44-3.43-1.26-4.01-1.85-.64-2.24,1.25-3.04,2.54-1.1,1.76-2.64,3.23-4.24,5.11Z"/>
      <path class="cls-2" d="m1024.85,563.58c.59-1.26-.59-1.92-1.03-2.79-4.61-9.18-5.31-9.39-11.98-2.39-4.05,4.25-8.95,7.35-15.29,11.52,9.17-1.4,17.03-.36,22.66-6.98,1.8-2.12,3.46,2.68,5.64.63Z"/>
      <path class="cls-2" d="m1036.93,477.74c-.35-1.88-.44-3.87-1.11-5.63-1.18-3.08-1.92-7.8-6.12-6.97-3.81.75-3.31,5.49-3.63,8.74-.18,1.8.66,3.76,1.28,5.57.96,2.8,2.46,5.23,6.02,4.43,3.26-.73,3.51-3.35,3.57-6.13Z"/>
      <path class="cls-2" d="m1051.74,528.31c-3.61,7.89-.36,15.81-5.93,23.22q5.52-4.87,5.93-23.22Z"/>
      <path class="cls-2" d="m993.01,556.03c2.21-1.09,4.86-2.17,5.33-5.35.16-1.07-.62-2.58-1.73-2.04-2.61,1.28-5.12,3.03-6.23,5.86-.32.81,1.08,1.66,2.62,1.52Z"/>
      <path class="cls-2" d="m991.13,921.01c-.14,4.49,2.6,7.53,4.88,10.82.92-4.76-1.2-8.16-4.88-10.82Z"/>
      <path class="cls-2" d="m861.72,739.35c-2.49,3.14-.05,5.78.2,8.64.1,1.11,1.07,2.07,2.24,1.36,1.13-.68.78-2.05,0-2.78-2.05-1.94-3.88-3.84-2.45-7.22Z"/>
      <path class="cls-2" d="m820.15,868.18c-6.37,3.08-9.6,8.29-9.87,15.25-.5,13.07-1.4,26.19,5.63,38.2,5.58,9.53,13.81,15.67,24.28,18.32,4.03,1.02,8.31,1.9,12.71,1.62,10.23-.63,16.13-6.08,17.66-16.17,2.07-13.74,6.25-27.17,5.9-41.27-.06-2.55.24-5.12-.16-7.78-3.41,6.56-3.7,13.93-5.58,20.87-2.92,10.79-5.76,21.46-5.7,32.84.03,5.01-8.11,8.69-15.11,7.84-10.5-1.28-19.77-5.01-27.21-12.96-2.57-2.75-3.12-6.1-4.26-9.25-4.01-11.11-4.43-22.25.68-34,5.99,5.73,11.26,11.61,20.39,9.31,5.63-1.42,11.37-2.19,17.74-5.06-4.84-3.36-7.84-.55-10.92-.05-6.92,1.12-13.63,3.6-20.35-1.48-5.78-4.37-7.35-9.67-5.98-16.35l.12.11Z"/>
      <path class="cls-2" d="m820.03,868.07c15.51,7.96,31.92,8.4,48.67,5.79,1.47-.23,2.95-.66,4.3-1.27,1.71-.78,2.72-2.26,2.03-4.18-.69-1.92-2.36-1.39-3.82-1.06-16.15,3.64-32.11,3.66-47.79-2.38-3.16-1.22-3.86.42-3.28,3.21,0,0-.12-.11-.12-.11Z"/>
      <path class="cls-2" d="m849.04,1243.2c2.28-7.56,3.24-13.89-4.56-18.19-1.77,6.54.13,12.2,4.56,18.19Z"/>
      <path class="cls-2" d="m833.43,1121.04c.02,7.83,2.15,14.8,8.37,20.98,3.07-9.96-6.07-14.08-8.37-20.98Z"/>
      <path class="cls-2" d="m844.39,1120.32c3.97-8.31-2.74-11.98-5.32-17.11-.17-.35-1.25-.63-1.59-.42-.96.59-1.58,1.75-1.06,2.76,2.48,4.79,5.11,9.51,7.97,14.78Z"/>
      <path class="cls-2" d="m826.7,1020.82c-3.26-6.35-6.52-12.69-10.2-19.84-1.04,6.29,5.04,17.06,10.32,19.73,0,0-.12.11-.12.11Z"/>
      <path class="cls-2" d="m845.31,1272.32c.19-6.38,1.57-11.37-3.9-15.24-.49,5.33-.53,9.95,3.9,15.24Z"/>
      <path class="cls-2" d="m836.16,1055.81c-1.42-6.34-6.91-10.54-8.88-16.59-.61.32-1.21.64-1.82.96,3.01,5.51,6.02,11.01,9.03,16.52.56-.3,1.12-.59,1.68-.89Z"/>
      <path class="cls-2" d="m830.62,1066.8c-.57-6.79-4.56-10.55-7.41-16.53-.6,7.68,3.15,11.56,7.41,16.53Z"/>
      <path class="cls-2" d="m760.65,875.86c1.57-7.44.03-15.18,2.21-22.63-3.08,7.29-3.18,14.88-2.21,22.63Z"/>
      <path class="cls-2" d="m842.53,1178.35q2.28-8.87-.9-12.31c-1.05,4.23-3.58,8.1.9,12.31Z"/>
      <path class="cls-2" d="m826.07,896.52c-2.27,4.89-2.19,9.71,0,15.16,0-5.54,0-10.35,0-15.16Z"/>
      <path class="cls-2" d="m837.11,1115.77c1.46,4.4,3.04,8.71,7.3,11.25-2.43-3.75-4.87-7.5-7.3-11.25Z"/>
      <path class="cls-2" d="m921.47,984.15c.94-4.66-1.64-7.38-3.4-12.31-.94,5.8.92,8.76,3.4,12.31Z"/>
      <path class="cls-2" d="m1003.31,444.84c-.41-2.28.71-4.79-1.56-5.04-2.67-.3-3.24,3-4.95,4.5-2.18,1.91.75,1.26,1.45,1.68,2.14,1.29,1.24,2.63-.26,3.27-2.81,1.2-3.05,5.14-6.6,5.61-1.7.23-2.26,2.28-1.35,3.61,1.28,1.86,2.55.5,3.51-.72,3.42-4.38,8.93-7.3,9.76-12.9Z"/>
      <path class="cls-2" d="m1001.92,455.62c-2.92,2.72-5.4,4.93-7.73,7.28-.78.79-.88,2.03.06,2.88,1.12,1,2.01.07,2.64-.73,2.02-2.62,5.15-4.62,5.04-9.42Z"/>
      <path class="cls-2" d="m771.35,682.59c2.67-7.18,3.32-12.96,2.86-19.15-3.7,3.09-4.75,9.25-2.86,19.15Z"/>
      <path class="cls-2" d="m764.71,687.87c.5-4.98,1-9.96,1.65-16.35-4.16,5.84-4.81,10.85-3.38,16.2.58.05,1.15.1,1.73.15Z"/>
      <path class="cls-2" d="m763.71,693.4c-2.18,9.39.96,16.67,2.53,24.14-1.57-7.53-.66-15.28-2.53-24.14Z"/>
      <path class="cls-2" d="m812.7,639.24c6-3.93,1.77-9.17,2.96-13.33-.92,4.21-3.11,8.16-2.96,13.33Z"/>
      <path class="cls-2" d="m922.67,1376.98c-4.2-1.18-5.75-5.02-8.54-7.46-1.39-1.21-2.56-4.7-4.89-2.3-1.9,1.96-2.28,6.26-.18,7.63,3.8,2.47,8.16,5.72,13.61,2.13Z"/>
    </g>
  </g>
</svg>