<?xml version="1.0" encoding="UTF-8"?>
<svg id="expo-2" xmlns="http://www.w3.org/2000/svg" xmlns:xlink="http://www.w3.org/1999/xlink" viewBox="0 0 1849.91 1450.57">
  <defs>
    <style>
      .cls-1 {
        fill: #3b2f35;
        filter: url(#outer-glow-1);
        opacity: .23;
      }

      .cls-1, .cls-2, .cls-3, .cls-4, .cls-5, .cls-6, .cls-7, .cls-8, .cls-9, .cls-10, .cls-11, .cls-12 {
        stroke-width: 0px;
      }

      .cls-2 {
        fill: url(#Dégradé_sans_nom_12-6);
      }

      .cls-3 {
        fill: url(#Dégradé_sans_nom_12-2);
      }

      .cls-4 {
        fill: url(#Dégradé_sans_nom_12-4);
      }

      .cls-5 {
        fill: url(#Dégradé_sans_nom_12-3);
      }

      .cls-6 {
        fill: url(#Dégradé_sans_nom_12-5);
      }

      .cls-7 {
        fill: url(#Dégradé_sans_nom_7);
      }

      .cls-8 {
        fill: url(#Dégradé_sans_nom_7-2);
      }

      .cls-10 {
        fill: url(#Dégradé_sans_nom_14);
      }

      .cls-11 {
        fill: url(#Dégradé_sans_nom_12);
      }

      .cls-12 {
        fill: url(#Dégradé_sans_nom_13);
      }
    </style>
    <filter id="outer-glow-1" filterUnits="userSpaceOnUse">
      <feOffset dx="0" dy="0"/>
      <feGaussianBlur result="blur" stdDeviation="9.05"/>
      <feFlood flood-color="#000" flood-opacity=".75"/>
      <feComposite in2="blur" operator="in"/>
      <feComposite in="SourceGraphic"/>
    </filter>
    <radialGradient id="Dégradé_sans_nom_13" data-name="Dégradé sans nom 13" cx="541.44" cy="302.24" fx="332.97" fy="215.93" r="225.63" gradientUnits="userSpaceOnUse">
      <stop offset=".23" stop-color="#3b2f35"/>
      <stop offset=".45" stop-color="#3c3036"/>
      <stop offset=".54" stop-color="#43373b"/>
      <stop offset=".6" stop-color="#4f4245"/>
      <stop offset=".65" stop-color="#615252"/>
      <stop offset=".69" stop-color="#776763"/>
      <stop offset=".73" stop-color="#928178"/>
      <stop offset=".77" stop-color="#b29f91"/>
      <stop offset=".78" stop-color="#beaa9a"/>
    </radialGradient>
    <linearGradient id="Dégradé_sans_nom_14" data-name="Dégradé sans nom 14" x1="317.49" y1="546.16" x2="661.18" y2="546.16" gradientUnits="userSpaceOnUse">
      <stop offset="0" stop-color="#3b2f35"/>
      <stop offset=".88" stop-color="#beaa9a"/>
    </linearGradient>
    <linearGradient id="Dégradé_sans_nom_12" data-name="Dégradé sans nom 12" x1="548.21" y1="416.44" x2="509.37" y2="395.46" gradientUnits="userSpaceOnUse">
      <stop offset=".19" stop-color="#3b2f35"/>
      <stop offset=".21" stop-color="#662739"/>
      <stop offset=".24" stop-color="#90203d"/>
      <stop offset=".27" stop-color="#b21a41"/>
      <stop offset=".3" stop-color="#cd1544"/>
      <stop offset=".33" stop-color="#e01246"/>
      <stop offset=".36" stop-color="#ec1047"/>
      <stop offset=".39" stop-color="#f01048"/>
    </linearGradient>
    <linearGradient id="Dégradé_sans_nom_12-2" data-name="Dégradé sans nom 12" x1="545.54" y1="396.44" x2="518.38" y2="384.97" xlink:href="#Dégradé_sans_nom_12"/>
    <linearGradient id="Dégradé_sans_nom_7" data-name="Dégradé sans nom 7" x1="433.21" y1="376.3" x2="541.95" y2="376.3" gradientUnits="userSpaceOnUse">
      <stop offset="0" stop-color="#3b2f35"/>
      <stop offset=".88" stop-color="#aeb9b0"/>
    </linearGradient>
    <linearGradient id="Dégradé_sans_nom_12-3" data-name="Dégradé sans nom 12" x1="448.47" y1="291.8" x2="535.9" y2="291.8" xlink:href="#Dégradé_sans_nom_12"/>
    <linearGradient id="Dégradé_sans_nom_7-2" data-name="Dégradé sans nom 7" x1="332.48" y1="217.77" x2="691.84" y2="217.77" xlink:href="#Dégradé_sans_nom_7"/>
    <linearGradient id="Dégradé_sans_nom_12-4" data-name="Dégradé sans nom 12" x1="614.98" y1="147.36" x2="634.09" y2="147.36" xlink:href="#Dégradé_sans_nom_12"/>
    <linearGradient id="Dégradé_sans_nom_12-5" data-name="Dégradé sans nom 12" x1="634.58" y1="167.17" x2="655.3" y2="167.17" xlink:href="#Dégradé_sans_nom_12"/>
    <linearGradient id="Dégradé_sans_nom_12-6" data-name="Dégradé sans nom 12" x1="578.77" y1="129.57" x2="610.02" y2="129.57" xlink:href="#Dégradé_sans_nom_12"/>
  </defs>
  <ellipse class="cls-1" cx="369.91" cy="666.8" rx="78.74" ry="267.8" transform="translate(-306.56 1018.72) rotate(-88.47)"/>
  <g>
    <g>
      <path class="cls-12" d="m644.87,293.51c-6.72-7.68-14.54-14.33-23.09-20.1-12.45-8.41-25.73-15.41-39.88-19.97-21.27-6.87-42.89-12.83-65.41-14.2-1.68.51-3.42.42-5.16.44-19.08.24-38.16-.54-57.23.53-3.55-.09-7.07-.03-10.49,1.1-1.06.24-2.01.83-3.11.94-1.31-.03-2.61.16-3.88.44-1.01.26-1.98.7-3.06.6-16.71,3.9-33.54,7.39-49.17,14.85-.71.4-1.39.86-1.99,1.42-.39.37-.72.79-.96,1.28-.02.16-.03.31-.05.46-8.8,4.51-17.65,8.77-25.88,14.52-13.27,9.28-24.02,20.51-32.01,34.5-2.81,4.92-5.38,10.24-5.82,15.73-.74,9.16-.13,18.43-.09,27.66.03.7.06,1.4.1,2.1.27,0,.53.01.8.02.03.32.04.65.05.98.4,3.11,1.62,5.92,3.13,8.63,1.51,1.83,2.3,4.04,3.26,6.16,1.14,2.04,2.75,3.74,4.15,5.58,1.49,1.76,2.63,3.78,4.24,5.45,1.79,1.78,3.62,3.52,5.33,5.37,1.83,1.77,3.62,3.58,5.48,5.32,2.47,2.18,4.74,4.58,7.48,6.45,4.78,3.4,9.5,6.88,14.67,9.69,12.54,8.37,26.5,13.14,41.09,16.34,1.16.26,2.34.49,3.49.79,9.96,2.58,19.92,5.18,29.88,7.77,0,0,0,0,0,0h0c.05,1.8.23,3.83,2.53,3.71,1.79-.1,1.64-1.48,1.61-2.74.03.01.06.03.09.04,1.35.4,2.71.42,4.08.1.12-.03.24-.08.36-.12.14.22.35.38.7.4.76.03.92-.61,1.04-1.21.1-.04.2-.08.3-.12,2,.33,4.01.67,6.01,1,1.23,3.38,3.33,1.49,5.23.88h0c4.51.57,9.19-1.24,13.59.98l.89-.04c.42.24.79.49,1.1.75.98.42,1.97.45,2.98.11.49-.23.9-.55,1.27-.91,1.47,0,2.94,0,4.4,0,.2.22.43.43.7.61.68.31,1.38.36,2.09.16.25-.3.49-.55.74-.77,1.65,0,3.29,0,4.94,0,.38.28.76.6,1.14.96.98.27,1.93.21,2.83-.28.11-.23.23-.42.34-.61,1.8.24,3.37-.89,5.1-1.09.63.42,1.25.92,1.88,1.4,11.08,1.16,21.86-1.41,32.75-2.64.19-.04.37-.08.56-.12,0,.15,0,.3,0,.45,1.41.1,2.38-.26,2.84-1.16.24-.07.48-.12.71-.2,1.38-.05,2.73-.25,4.05-.64,6.4-1.49,12.81-3.02,19.02-5.1,12.18-4.08,24.6-7.54,36.1-13.45,5.73-4.12,12.43-6.55,18.2-10.59,3.4-2.58,6.79-5.19,10.27-7.67,2.01-1.59,3.73-3.49,5.58-5.25,1.39-1.47,2.8-2.92,4.31-4.27,1.45-1.39,3.04-2.63,4.29-4.22.98-1.21,2.1-2.3,2.99-3.59.81-1.31,1.48-2.71,2.35-3.98.95-1.51,1.98-2.95,2.97-4.43.79-1.37,1.48-2.8,2.26-4.17.68-1.45,1.7-2.72,2.31-4.21,1.38-2.38,1.36-5.3,2.92-7.6v-29.28c-1.89-12.45-8.3-22.76-16.31-31.92Zm-184.67,109.57c.07.07.14.15.21.22-.28.14-.56.35-.86.6,0-.01,0-.02,0-.03,0,0,0,0,0,0,.27-.25.48-.51.65-.79Z"/>
      <path class="cls-10" d="m657.07,362.05h0s0,0,0,0c-.79,1.35-1.57,2.71-2.36,4.06,0,0,0,0,0,0-.7,1.38-1.4,2.75-2.11,4.13,0,0,0,0,0,0-1.01,1.43-2.02,2.87-3.03,4.3-1.22,1.1-1.77,2.55-2.17,4.09,0,0,0,0,0,0-1,1.04-2,2.08-3,3.13,0,0,0,0,0,0-1.29,1.47-2.58,2.95-3.88,4.42,0,0,0,0,0,0,0,0,0,0,0,0-1.86,1.02-3.33,2.43-4.32,4.32,0,0,0,0,0,0-2.31,1.01-3.88,2.87-5.45,4.73,0,0,0,0,0,0-3.45,2.5-6.9,5-10.35,7.5,0,0,0,0,0,0-5.6,4.04-12.55,5.77-17.75,10.48,0,0,0,0,0,0-1.86.8-3.71,1.64-5.6,2.38-16.3,6.37-32.85,11.99-49.78,16.45,0,0,0,0,0,0-1.38.08-2.76.16-4.14.24-.5.97-1.32,1.59-2.14,2.21-.28-.44-.63-.82-.99-1.2-11.5.83-22.86,3.36-34.47,2.85-2.42-1.65-4.4-.64-6.27,1.05-1.05,0-2.09,0-3.14,0-2.09-1.63-4.17-1.63-6.26,0-.7,0-1.4,0-2.1,0-2.09-1.64-4.17-1.63-6.26,0-1.05,0-2.1,0-3.14,0-.64-.44-1.34-.6-2.1-.45-.21-1.18-1.25-1.74-2.21-1.64-3.38.37-6.65-1.12-10.02-.46-2.16.31-4.35,1.65-6.44-.19-1.81-.75-3.65-1.34-5.66-1.02-1.01.06-1.42,2.07-2.81.86-1.39.03-2.79.05-4.18.08-2.46,2.98-3.19-.67-4.72-1.22-10.61-3.59-21.37-6.66-32.41-8.66-.7.18-1.41.32-2.13.45-1.54-.81-3.08-1.64-4.71-2.16-11.96-3.85-23.87-7.74-34.32-15.03-4.83-3.07-9.67-6.15-14.5-9.23-2.43-2.1-4.86-4.19-7.29-6.29-1.88-1.66-3.76-3.31-5.65-4.97-1.21-2.21-2.97-3.92-5.01-5.35-1.36-1.8-2.72-3.6-4.08-5.4,0,0,0,0,0,0-1.33-1.83-2.67-3.65-4-5.48h0c-.42-2.35-1.28-4.46-3.2-6,0,0,0,0,0,0-1.14-3.06-2.29-6.12-3.43-9.18-.58-.69-1.17-.69-1.78-.04-.07,48.26-.25,96.53-.19,144.79.05,47.8.79,95.6.09,143.41-.05,3.71.11,7.84,2.97,10.99.75,3.23,1.86,6.31,3.65,9.12h0c1.23,2.16,2.45,4.31,3.68,6.47.76,1.01.75,2.52,2.09,3.14,1.92,3.5,3.46,7.31,7.33,9.27,1.45,2.1,2.93,4.17,5.16,5.53,2.68,3.3,4.68,7.36,9.41,8.35,5.81,3.45,9.98,9.29,16.67,11.45.17.55.39,1.01,1.12.74,6.73,3.45,13.34,7.13,20.21,10.26,4.52,2.06,9.02,4.59,14.28,4.42.7.35,1.39.7,2.09,1.05,1.54-.25,2.51,1.8,4.18,1.05,1.48,1.48,3.38,1.21,5.2,1.28,1.56,1.14,3.25,1.94,5.25,1.86.68.1,1.36.2,2.04.3.39,1.19,1.28.92,2.14.74,1,.07,2,.15,3,.22.13.63.44,1.01,1.15.82,1,.08,2.01.16,3.01.23.14.64.45,1.01,1.17.82,1.05,0,2.1-.01,3.15-.02.7.35,1.39.71,2.09,1.06,1.04-.01,2.09-.02,3.13-.03,7.64,1.24,15.21,2.92,22.98,3.17,3.13.41,6.13,1.92,9.4,1.04h29.25c2.86.66,5.45-1.93,8.36-.7,1.04-.12,2.09-.23,3.13-.35,1.04,0,2.09,0,3.13,0,1.84-1.2,3.92-.7,5.91-.89,5.79-.56,11.59-1.14,17.08-3.29,2.63.98,4.81-1.15,7.31-1.04,1.04-.35,2.09-.7,3.13-1.05,3.37-.21,6.71-.56,9.45-2.85,1.36-.46,3.15.77,4.17-1.04,13.3-2.92,26.01-7.37,37.59-14.7,7.59-2.62,14.15-6.89,19.87-12.5,3.93-2.29,8.9-3.28,10.56-8.42,1.75-1.74,3.5-3.48,5.25-5.22,1.57-1.6,4.08-2.03,5.18-4.2,1.3-1.71,2.59-3.42,3.89-5.13,1.03-2.14,2.06-4.29,3.09-6.43.22-.25.3-.55.27-.88,2.54-1.91,3.9-4.59,4.94-7.49,1.06-2.79,2.12-5.58,3.17-8.37.08-1.68.17-3.36.25-5.04.67-.06,1.34-.13,2.01-.19v-292.84c-3.26,1.38-2.99,4.75-4.12,7.33Zm-120.16,276.78c.37.5.55,1.05.58,1.63-.16-.54-.36-1.09-.58-1.63Z"/>
    </g>
    <g>
      <path class="cls-11" d="m510.7,391.28c-1.4,2.45-1.75,7-3.5,8.75s-5.25,3.15-3.5,5.25,3.15,4.2,6.65,4.2,2.1.35,5.6,3.5,2.1,7.35,6.3,4.9,6.65-2.45,9.79-4.55,3.77-1.2,7.31-3.57c3.54-2.37,5.8-3.07,7.3-6.57s.79-5.6-2.71-5.95-6.3,2.1-10.49,3.5-5.25,5.95-7.7,1.4-7-6.3-7-6.3l-4.55-4.9-3.5.35Z"/>
      <path class="cls-3" d="m552.52,391.1c-.2-1.22-7.54-9.96-8.94-9.96s-3.15-2.45-5.95-1.05c-2.8,1.4-6.3,3.5-9.1,6.65s-5.95,4.2-5.25,8.4c.7,4.2-1.4,5.6,2.45,7s4.9,3.85,7.7,2.1,3.5-3.15,5.95-3.85,1.05.7,5.95.35,7.35-5.95,7.35-5.95l-.15-3.68Z"/>
      <path class="cls-7" d="m541.95,380.09c-1.4-1.05-22.04-8.4-24.14-8.75s-22.74-10.84-25.19-12.59-9.79-7.35-10.84-7.35-4.9,3.85-4.9,3.85c0,0-9.79-4.9-12.59-4.9s-7.35.35-8.75.7-8.75,5.95-8.75,5.95l-4.2,3.85s-5.25,2.1-7,2.45-2.45,2.45-2.1,3.5,4.2,1.75,4.2,1.75c0,0,1.75,1.75-.35,3.15s-5.6,2.8-3.5,4.55,6.3.7,7.35.7.35,1.75,1.75,3.15,4.9,2.1,9.1,1.05c4.2-1.05,4.55-1.75,10.49-1.75s7-.35,12.94,2.8,5.25,1.75,9.45,6.3,5.6,5.25,10.14,6.3,7.7-1.75,12.24,2.1.7,3.5,5.95,4.9,9.1-.7,10.14-2.1-.7,2.8,4.9-5.6c5.6-8.4,12.94-15.39,12.94-15.39"/>
      <g>
        <path class="cls-5" d="m469.62,230.82c3.76,0,13.55,5.27,16.94,6.78s14.31,13.55,14.31,13.55l11.67,13.55s9.04,16.94,9.41,18.82,8.28,19.95,8.66,22.21,5.65,14.68,5.27,18.07-7.53,12.05-9.79,14.68-12.8,5.65-13.93,5.65-1.51,3.76-3.76,4.89-11.29,4.89-11.67,3.39,3.39-4.89,4.52-7.53-6.02-7.91-9.79-9.79c-3.76-1.88-6.02-2.26-9.04-10.54-3.01-8.28-6.4-16.94-7.15-21.84s-6.02-11.29-9.41-15.81c-3.39-4.52-6.02-11.29-9.04-15.44s-9.04-13.55-8.28-17.69,3.01-9.41,5.27-13.93,15.81-9.04,15.81-9.04Z"/>
        <path class="cls-8" d="m396.21,331.34c-2.26,6.02-3.76,14.31-3.76,18.45s1.13,12.05-1.51,13.93-6.78,2.64-10.54,5.27-10.16,7.15-11.67,10.16-2.26,9.41-5.27,11.29-9.04,3.76-13.55,1.88-8.28-7.15-8.66-10.16-3.01,1.51-3.01,1.51c0,0-3.01-1.13-3.01-3.76s-3.39-5.27-2.64-7.53,1.51-3.01,1.51-4.89.38-3.39,1.51-4.89-1.13-3.39,1.51-4.14,2.64-1.13,8.66,1.51,7.15,1.51,9.79,0,5.65-1.13,7.53-3.39c1.88-2.26,3.39-6.78,6.02-13.18s21.46-58.73,24.47-66.26c3.01-7.53,17.32-47.81,19.95-51.58s22.21-38.4,24.47-41.41,10.54-13.93,13.18-15.81,7.91-2.26,12.8-3.39,9.79-7.53,13.55-12.42c3.76-4.89,11.67-12.42,16.19-15.44s12.8-6.4,16.19-7.15,9.04,0,13.55-1.88,10.92-2.64,12.05-8.28,1.88-9.41.75-10.54-6.4-1.88-8.28-3.76-9.79-5.27-9.41-9.04c.38-3.76.38-10.54,2.64-11.67s2.64-3.39,5.65-2.64,6.02.38,7.15-.75,3.01-13.93,7.53-19.58c4.52-5.65,14.31-13.18,17.69-16.19s19.2-4.14,25.6-2.26,14.68,9.04,16.56,11.29,11.67,23.72,11.67,27.48,1.51,6.78,1.51,6.78c0,0,2.64,2.26,3.76,3.01s1.88,4.52.38,7.15c-1.51,2.64-3.76,5.65-4.89,7.53s-2.26,6.02-3.39,6.4-2.64,1.13-2.64,1.13l3.76,6.02s12.05-8.28,15.81-8.66,7.91,3.39,13.18,5.65c5.27,2.26,8.66-5.65,13.55-1.88s12.8,12.42,16.56,16.94c3.76,4.52,19.2,25.6,19.95,29.74s1.88,23.34.75,25.6-9.41,10.92-12.8,10.54-16.56-4.52-16.56-4.52c0,0-5.27,10.16-5.27,11.29s-3.39,4.52-3.39,4.52c0,0-1.13,12.8-.38,16.19s4.52,43.29,4.14,47.81.38,27.48,1.13,28.61.75,5.65,3.39,7.91,7.53,6.02,10.54,5.65,4.85,1.22,8.07-.14,4.73-3.62,6.61-2.87,3.39,3.39,3.01,6.02-1.51,6.02-2.26,7.53-4.14,2.64-5.27,2.64,0,.75-2.26,3.76c-2.26,3.01-6.02,3.39-8.28,4.52s-6.4,1.88-9.79,1.88-15.06-10.16-19.58-13.55-11.67-3.39-11.29-7.15,4.89-18.82,3.39-22.21-3.01-9.41-4.89-13.55c-1.88-4.14-7.91-22.96-7.91-22.96,0,0-6.02,4.89-9.41,6.02s-10.54,4.89-11.67,5.27,3.39,6.02,3.39,6.02c0,0,1.51,5.27,0,5.65s-4.52-.75-4.89.38-2.64,4.14-4.14,4.52-3.76,1.88-3.76,1.88c0,0-1.88,1.88-3.39,1.88s-5.27,1.51-6.78,1.88-1.13,2.64-7.91-1.13-5.27-8.28-11.29-3.01-7.15,9.41-12.42,18.07-14.68,19.95-15.06,21.84-3.39-22.96-11.67-39.15c-8.28-16.19-17.69-33.88-21.84-38.4s-18.82-15.81-21.84-16.56-12.42-4.14-18.07-.38c-5.65,3.76-7.53,18.45-7.53,23.72s12.42,26.73,12.42,28.99-.75,8.28-9.41,12.05-24.09-3.01-27.11-4.89-7.15-1.13-10.92,3.39-22.21,33.88-22.21,33.88Z"/>
        <path class="cls-4" d="m624.73,137.46c-3.01-.38-8.66,3.39-9.04,6.02s-1.88,10.92,1.13,11.29,6.78,3.39,9.79,2.26,6.02-2.26,6.02-4.89,3.01-8.66.38-10.54-8.28-4.14-8.28-4.14Z"/>
        <path class="cls-6" d="m642.04,156.66c-1.51.75-3.76,4.52-4.89,6.4s-3.39,4.89-2.26,7.15,1.88,6.4,4.89,6.78,5.27,1.13,7.15.38,6.02-1.88,6.4-5.27,3.39-7.91,1.13-9.79-9.79-5.65-9.79-5.65h-2.64Z"/>
        <path class="cls-2" d="m578.8,125.04c.75-1.13,8.28,2.64,12.05,1.13s13.93-2.26,15.06-2.26,3.76-.38,3.39,1.13,3.01,5.27-2.26,6.78-11.29.75-14.31,1.51-10.54,3.76-12.42.38-1.51-8.66-1.51-8.66Z"/>
        <g>
          <path class="cls-9" d="m692.96,175.75c-.53-1.09-1.03-2.48.26-3.43,1.35-.99,2.26-2.33,3.27-3.6,1.75-2.21,1.81-3.23-.11-5.32-1.22-1.33-2.75-2.38-3.9-3.76-3.91-4.71-7.76-9.47-11.52-14.3-2.68-3.43-5.31-6.92-5.8-11.51-.1-.94-.47-1.91-1.32-2.66-1.42-1.26-2.24-2.79-2.63-4.79-.41-2.09-1.6-4.04-2.88-5.86-1.95-2.75-4.82-4.57-7.01-7.06-3.2-3.64-7.13-4.33-11.52-2.99-2.97.91-6.16,1.18-8.84,3.03-1.4.97-2.56.76-3.76-.79-1.09-1.41-2.09-3.12-4.16-3.57-3.77-.81-7.46-1.44-10.5,1.85-.3.32-.79.51-1.22.68-2.47.93-4.65,2.33-6.24,4.42-.68.89-1.54,1.36-2.44,1.75-1.54.68-2.19-.84-3.08-1.58-.64-.53-.96-1.55-.18-2.07,2.25-1.51,3.02-4.2,4.9-5.92,2.97-2.71,4.53-6.24,5.84-9.81,1.72-4.7.12-7.66-4.76-9.93-.74-.35-.66-.96-.81-1.55-.7-2.71-.6-5.54-1.69-8.24-1.19-2.91-2.56-5.89-2.27-9.21.01-.15-.06-.31-.11-.46-1.96-5.15-4.45-10.01-7.4-14.69-2.44-3.87-6.11-6.07-9.88-8.03-4.39-2.28-8.83-4.58-14.18-4.23-3.36.22-6.72.56-10.09.58-3.31.02-6.44.67-9.19,2.43-6.7,4.29-13.24,8.76-18.42,14.98-4.53,5.45-8.42,11.04-8.29,18.55.05,2.88-.2,2.94-3.17,2.91-2.15-.02-4.2-.29-6.32,1.1-3.29,2.16-4.34,5.3-5.22,8.73-1.47,5.74,3.57,13.99,9.36,14.73,2.21.28,3.76,1.42,5.5,2.39,2.29,1.28,1.56,3.52,1.7,5.48.02.24.03.47.07.7.39,2.39-1.66,6.59-3.63,8.03-4.47,3.28-9.71,4.56-14.97,4.86-6.97.4-12.68,3.65-18.59,6.63-3.83,1.93-7.17,4.7-11.2,6.33-3.57,1.44-6.66,3.63-9.16,6.64-4.18,5.05-8.44,10.04-12.64,15.08-.59.7-1.22,1.15-2.16,1.27-5.62.72-10.5,2.37-14.57,6.98-5.23,5.92-10.32,11.88-14.41,18.61-4.42,7.27-9.36,14.2-13.2,21.86-2.66,5.3-5.78,10.42-8.22,15.8-3.81,8.39-8.11,16.57-11.37,25.23-2.64,7.01-5.6,13.92-8.01,21.01-2.6,7.63-5.8,14.99-8.64,22.52-2.06,5.48-4.04,11.01-5.72,16.62-1.88,6.29-3.87,12.54-5.96,18.77-1.67,4.96-3.51,9.87-5.01,14.89-1.4,4.67-1.31,4.81-6.22,4.92-2.25.05-3.61,1.36-4.91,2.9,2.29-.93,4.44-2.09,7.01-1.61.86.16,2.05-.57,2.53.56.46,1.09-.86,1.29-1.36,1.92-.28.35-.32.87-.53,1.28-.34.67-.88,1.24-1.68.92-1.23-.49-1.84.28-2.5,1.01-.43.17-.99.22-1.25.52-1.98,2.28-4.37,2.9-7.24,2.09-.5-.14-1.22-.23-1.59.03-1.03.72-1.61.28-2.42-.41-2.76-2.36-6.19-1.12-9.32-1.56-.13-.02-.3.3-.46.48.49,1.2,2.3.13,2.63,1.62-.61.59-1.42.56-2.19.64-1.12.11-1.88.66-2.34,1.7-.26.58-.75,1.23-.17,1.71.7.57,1.03-.24,1.45-.67,1.93-1.97,4.88-1.43,5.87,1.09.26.66.41,1.34.98,1.83.46.4.65.97.28,1.48-.5.68-1.12.19-1.71.03-.66-.19-.95-.8-1.42-1.19-2.82-2.3-6.07-1.44-7.12,1.88-.17.55-.27,1.08-1.01,1.06v2.36c1.25,2.19,2.04,4.53,2.14,7.06.07,1.69.63,3.02,2.03,4.03.75.54,1.4,1.23,2.08,1.87,3.7,3.51,7.25,7.18,11.19,10.43.19.16.37.32.55.41.31-.29.65-.55,1.04-.78-.08-.19-.28-.37-.42-.56-1.14-1.64-.15-1.81,1.21-1.76,2.44.08,4.89.1,7.3-.39,3.87-.78,7.09-2.29,8.09-6.66.64-2.77,2.38-5.04,3.82-7.45,1.84-3.08,5.01-4.6,7.57-6.82,1.53-1.33,3.08-2.95,4.92-3.54,5.51-1.77,8.03-6.42,11.1-10.59.21-.28.29-.75.25-1.12-.41-4,.18-8.03-.53-12.02-.32-1.8-.24-3.57.2-5.38,1.01-4.15,2.97-7.89,4.92-11.62,3.02-5.79,7.47-10.58,11.39-15.74,3.21-4.23,6.76-8.19,9.36-12.88,1.58-2.85,2.34-2.74,5.07-1.03,3.5,2.2,7.09,4.28,11.38,4.75,1.01.11,2.99-.38,2.87,1.11-.1,1.22-2.01.57-3.12.69-3.02.32-6.07-.38-9.07.96-3.85,1.73-6.91,4.5-10.25,6.92-1.65,1.19-3.31,2.42-4.77,4.18,4.83.5,9.02.32,12.45-3.38,1.44-1.55,3.47-2.86,5.48-3.5,3.96-1.27,8.08-1.97,12.29-1.95,5.59.02,11.19-.05,16.78-.1,1.02,0,2.16.13,2.98-.53,1.66-1.35,3.61-1.36,5.57-1.51,4.67-.36,4.41-.31,5.82,4.02,2.34,7.19,5.37,14.13,10.04,20.15,2.52,3.25,4.69,6.9,8.21,9.22,2.15,1.42,4.48,2.56,6.78,3.73,1.85.94,1.66,2.08.48,3.36-1.29,1.4-3.01,1.94-4.83,2.18-1.29.17-2.27.6-2.43,2.08-.12,1.18.12,2.38.88,3.05,2.08.99,4.21,1.26,6.39,1.11,1.1-.2,2.18-.64,3.22-1.43,1.65-1.24,3.35-2.23,5.5-2.5,1.91-.24,3.46-1.37,3.79-3.36.33-1.99,1.46-2.23,3.15-2.24,3.49-.02,6.65-.73,9.48-3.23,3.31-2.92,6.36-6.05,8.84-9.62,3.6-5.17,6.71-10.67,10.18-15.93,3.83-5.82,7.86-11.5,12.33-16.87,2.45-2.95,5.09-5.63,8.23-7.85,1.14-.81,2.33-.86,3.31-.21,3.55,2.39,7.67,2.45,11.66,3.03,1.07.16,2.41.13,3.07-.85,1.28-1.92,3.15-1.85,5.03-1.81,1.8.04,3.3-.45,4.11-2.15.5-1.05,1.28-1.18,2.29-1.2,3.28-.06,4.59-.95,5.58-3.95.59-1.78,1.54-2.03,2.99-1.09.52.34.9.74,1.67.41,2.6-1.09,3.41-3.36,1.99-5.76-1.08-1.81-2.09-3.65-3.17-5.47-.63-1.06-.44-1.73.78-2.15,5.29-1.81,10.19-4.39,14.82-7.53,2.14-1.45,2.43-1.21,3.25,1.16,1.55,4.47,1.65,9.24,2.97,13.77.68,2.31,2.14,4.44,1.93,6.98-.33,3.86,1.26,7.21,2.92,10.47,2.62,5.13,3.02,10.35.96,15.66-2.17,5.6-.36,10.34,5.25,12.52,4.29,1.67,8.04,3.94,11.1,7.45,2.75,3.15,6.66,4.88,9.95,7.36,2.01,1.51,4.03,1.7,6.33,1.87,3.68.28,6.62-1.78,9.91-2.7,3.99-1.11,7.38-3.02,8.45-7.53.24-1,1.37-.89,2.23-.94,3.54-.21,6.31-2.88,7.57-6.19,1.18-3.11-.26-5.72-.8-8.48-.65-3.31-2.34-4.05-5.34-2.61-4.11,1.98-8.33,2.45-12.83,1.72-2.33-.38-4.22-1.58-6.29-2.47-6.29-2.7-8.05-5.47-7.88-12.37.32-12.83-.27-25.63-1.12-38.43-.32-4.79-.45-9.6-1.05-14.35-1.17-9.12-2.1-18.26-2.49-27.45-.23-5.46-.87-5.05,4.93-5.02.77,0,1.58.26,2.03-.71,1.44-3.03,2.27-6.19,1.68-9.54-.18-1.01-.22-1.84.52-2.61.36-.37.85-.74,1.11-.12,1.18,2.8,4.33,3.41,6.12,5.57,1.11,1.34,2.63,2.34,3.76,3.75.82,1.02,2.23,2.18,3.42,1.45,1.26-.77,1.92-2.42,1.58-4.14-.09-.46-.23-.92-.33-1.38-.55-2.65-.46-2.77,2.16-2.53,1.88.17,3.76.33,5.65.03,3.56-.56,4.37-1.72,3.1-5.1-.54-1.46-.28-2.27.95-3.15,2.41-1.73,4.53-3.78,6.18-6.3.6-.93.7-1.79.14-2.63-2.02-3.05-2.48-6.72-4.05-9.95Zm-357,198.12c-.87-.37-.62-1.33-.71-2.14.34-1.41.05-3.25,2.14-3.69,1.42-.3,2.57.04,3.39,1.42.49.82.43,1.2-.39,1.64-.96.51-1.88,1.12-2.77,1.75-.54.39-.82,1.37-1.66,1.01Zm1.64,8.25c-2.31-3.61-.82-7.23,3.68-8.99-1.73,2.94-3.26,5.5-3.68,8.99Zm320.2-247.57c1.19,2.82,3.12,4.9,4.77,7.18.99,1.36,2.73,2.1,3.21,3.86-1.48.25-2-1.16-2.65-1.9-2.02-2.3-4.22-4.5-5.64-7.28-.27-.53-.38-1,.31-1.86Zm-27.14-18.7c.72-.39,1.31.45,1.38.91.23,1.57,1.35,2.75,1.61,4.35-1.5-.83-2.3-2.25-3.2-3.56-.36-.53-.39-1.38.21-1.7Zm-5.46,9.02c2.34,1.65,2.65,4.35,3.71,6.55.29.6,1.55,1.93.42,2.37-1.17.46-1.52-1.18-1.93-2.09-.62-1.39-1.1-2.84-2.23-3.93.12-.89-.56-1.77.02-2.91Zm3.29,30.54c-2.86,1.37-6.01,1.23-8.75-.51-2.58-1.64-4.25-3.8-3.49-7.26.42-1.94.93-3.83,1.72-5.61,1.43-3.26,7.2-4.29,10.55-1.88,2.5,1.79,4.82,3.77,3.74,7.05.37,3.75-.61,6.71-3.77,8.22Zm-6.31-31.06c.82-.35.92.46,1.21,1.02.45.86.91,1.75,1.72,2.37-.06,1.17.61,2.05,1.18,2.97.35.56.27,1.04-.36,1.35-.61.3-.86-.18-1.08-.57-1.01-1.82-2.02-3.63-2.97-5.49-.28-.54-.42-1.35.29-1.65Zm-.03,6.3c-.73-1.7-2.51-2.93-2.31-5.07,1.92.8,2.11,1.19,2.31,5.07Zm-8.81-1.76c.42.77,1.4,1.29,1.13,2.37-.03.12-.37.26-.54.24-.56-.08-.93-1.19-.97-2.78.13.06.33.08.38.18Zm.8,7.13c2.18.2.18-1.79,1.16-2.45,1.09.61.77,2.36,2.36,2.96-.43-2.94-2.2-5.46-1.66-8.54,1.19.66,3.21-.67,3.67,1.77.1.54.47,1.12.09,1.57-.53.61-.86-.53-1.42-.3-.05.12-.19.3-.15.37,2.63,4.76-1.15,8.21-2.45,12.17-1.04,3.19-1.41,6.38.26,9.58.73,1.39,1.89,2.21,3.11,2.64,3.53,1.27,7.1,2.34,10.81.15,2.14-1.26,2.91-3.29,3.54-5.3.54-1.72,1.41-2.73,3.03-3.19.7-.2,1.59-.33,1.5-1.18-.08-.81-.97-.56-1.57-.6-.63-.03-1.35.02-1.55-.76-.16-.65.45-.91.84-1.29.45-.43.85-.93,1.21-1.44.32-.45.59-.99.15-1.51-.37-.42-.86-.32-1.3-.1-2.24,1.12-1.97-.27-1.69-1.68.13-.65,1.07-1.26.41-1.91-.64-.63-1.48-.25-2.16.2-1.01.69-1.58.44-1.3-.76.9-3.79-1.78-6.38-3.05-9.44-.37-.88-1.4-1.55-.61-2.91,3.35,2.66,3.35,7.5,6.91,10.5.03-3.64-3.03-5.74-2.75-9.11,2.26,2.42,2.99,5.44,4.48,8.02.33.57.47,1.34,1.23,1.01.86-.37.23-1.18.01-1.62-.79-1.61-1.58-3.19-1.82-5.62,1.35,2.14,2.78,3.26,3.66,5.37,2.54,6.03,5.64,11.91,10.23,16.77,1.22,1.29,2.06,2.74,2.3,4.54.21,1.54-.66,2.3-1.92,2.4-1.2.09-1.76-.69-1.61-2.01.08-.68.48-1.76-.64-1.99-1.19-.25-1.38.72-1.51,1.63-.12.83-.39,1.49-1.42,1.58-.92.08-1.52-.2-1.83-1.08-.19-.53-.49-1.24-1.07-1.05-.68.22-1.61.59-1.58,1.5.03,1.05-.54,1.08-1.3,1.21-4.74.83-7.43,4.11-9.75,7.98-2.25,3.75-1.88,7.87-2.1,11.91-.06,1.15.06,2.32-1.44,2.51-1.24.16-1.92-.51-2.52-1.63-.82-1.53-1.61-3.04-1.87-4.76-.15-.99-.73-1.99-1.37-2.4-2.64-1.68-2.81-3.9-1.71-6.56-2.27.29-3.57,4.1-1.7,5.32,3.52,2.3,3.52,6.33,5.53,9.32,1.1,1.62,2.3,2.57,4.24,2.13,1.82-.41,2.33-1.67,2.38-3.5.1-3.75,0-7.52,1.62-11.11,1.05-2.34,2.74-4.19,4.16-6.24.35-.5.97-.53,1.52-.39.84.21.46.84.36,1.34-.48,2.46-.53,5.42-2.16,7.06-1.47,1.48-1.89,3.09-2.59,4.74-.18.41-.28.92.29,1.44.77-1.34.53-3.14,2.09-4.23.65,1.82.85,3.75,2.04,5.33.83,1.09,1.27,2.89,2.59,3.08,2.6.38,5.12,1.81,7.88.82,2.29-.82,4.6-1.56,6.03-3.74.45-.69,1.01-.72,1.58-.22.8.71.02,1.1-.4,1.48-2.96,2.65-6.18,5-9.74,6.73-2.01.97-4.33,1.31-6.4,2.28-.63.3-1.42.31-1.32,1.41,1.3.37,2.45-1.21,4.02-.28-1.82,2.94-3.86,5.62-6.5,7.81-6.04,5.02-12.79,8.35-20.77,8.73-5.48.26-10.57-.76-14.69-4.72-.3-.29-.59-.6-1-.43-.45.18-.37.66-.28,1.02.17.68.38,1.36.63,2.01.69,1.77.28,2.44-1.58,1.99-5.39-1.29-10.38-3.81-11.65-10.68-.89-4.85-2.17-9.64-3.16-14.48-.83-4.04-.21-8.17-.45-12.25-.13-2.15-.98-3.87-2.7-5.3-1.88-1.56-1.75-4.08-1.84-6.15-.12-2.96-.31-5.96-.16-8.94.04-.84-.39-2.19.76-2.43,1.18-.24.42,1.53,1.39,1.91.3-.86.6-1.7,1.09-3.06,1.36,2.61,3.34,4.33,4.13,6.89.77,2.5,1.26,5.07,1.68,7.79,1-.6.71-1.2.64-1.68-.57-3.64-1.04-7.31-1.84-10.9-.48-2.18,1.03-3.57,2.12-4.38.98-.73,2.02.95,2.05,2.33.05,2.91-.02,5.83.04,8.74.02,1.04-.26,2.2.78,3.27.58-1.33.42-2.59.28-3.78-.38-3.35.07-6.78-.81-10.09-.08-.29-.02-.63.03-.94.14-.81-.04-2.01.95-2.16.78-.12,1.08,1.01,1.48,1.66.35.58.43,1.34,1.18,1.75.05-.25.13-.46.14-.67.05-1.22-.34-2.93,1.27-3.15,1.64-.23,3.77-.12,4.66,1.5.94,1.71,1.16,3.07,3.91,2.57,1.88-.34,4.05.02,5.45-1.4,2-2.03,4.19-2.61,6.91-2.36Zm37.94,35.83c-2.18,4.31-5.27,5.97-9.98,4.84-3.34-.8-5.7-4.16-5.8-8.25-.11-4.52,2.54-8.33,6.62-10.11,3.17-1.38,5.2.78,7.09,2.32,3.22,2.62,5.33,4.76,2.07,11.21Zm-3.67,45.23c-.24,2.8-.67,5.57-1.95,8.15-.2.41-.25.98-.86.92-.51-.05-.85-.47-.93-.95-.33-2.02-.94-3.95-1.61-5.88-.3-.87.02-1.69.86-2.24.58-.38,1.13-.82,1.66-1.28.62-.53.94-1.65,2.03-1.22,1.18.46.67,1.6.79,2.5Zm-6.89-9.5c.96-3.45,1.66-6.97,2.46-10.45.4,5.41-.48,10.74-.87,16.12-.05.69-.51,1.26-1.16,1.31-.98.07-.78-.85-.79-1.38-.03-1.87-.16-3.71.36-5.59Zm-7.51,22.66c-1.29-.97-1.13.4-1.55.86-.54.58-.38,2.19-1.46,1.76-1.28-.51-.13-1.64.1-2.42.6-2.04,1.26-4.04.89-6.23-.91.62-.88,1.74-.96,2.54-.41,4.01-3.09,7.07-4.25,10.75-.11.35-.48.88-.73.87-3.17-.04-5.18,3.7-8.62,2.63-.77-.24-.93.33-1.23.77-1.79,2.63-4.45,2.1-7,1.88-.96-.08-1.22-.93-1.49-1.65-.49-1.28-.31-2.63-.38-3.97-.13-2.49,1.02-5.19-1.12-7.38-.09-.09-.11-.33-.06-.46,1.31-3.55-1.01-6.85-.7-10.39.13-1.48.02-3.31-.96-4.78-.2-.3-.35-.84-.21-1.11,1.09-2.05-1.16-2.7-1.66-4.06-1.67.82-3.07.19-4.43-.77-.02-.01-.21.2-.31.31-1.74,1.98-3.93,2.17-5.59.06-1.55-1.98-3.06-.91-3.91.05-.88.99-2.04,1.37-2.93,2.22-.69.66-.83.57-1.64-.56-.45-.64-.83-.17-1.13.04-2.29,1.68-5.23,2.43-6.94,4.98-1.13,1.69-1.87-.39-3.17-.46,2.2,2.02-.27,4.42.93,6.51.14.24-.07.79-.27,1.09-1.97,2.92-2.42,6.01-1.52,9.44.57,2.15-.36,4.04-2.06,5.43-3.66,3.01-3.9,4.37-1.99,8.66.89,2.02.29,4.34.58,6.51.06.46-.09.95-.05,1.41.09.89.71,2.01-.64,2.38-1.15.31-1.57-.86-2.12-1.56-.53-.68-.85-1.49-1-2.37-.11-.67-.52-1.26-1.27-1.08-.79.19-.73.89-.57,1.55.23.99,1.38,2.25-.05,2.89-1.22.54-2.15-.79-2.87-1.65-5.6-6.69-8.5-14.4-6.77-23.03.67-3.34.87-6.93,2.41-10.12.16-.33.15-.78.08-1.16-.11-.61-.5-1.24.43-1.53.53-.16.93.06,1.24.46.47.61.74,1.61.19,1.93-1.68,1-.63,2.72-1.23,3.98,2.8-3.15,5.36-6.37,5.3-10.86-.02-1.27-.29-1.71-1.78-1.69-1.05.02-1.94.12-2.91.47-.95.34-1.55,1.08-1.45,1.84.39,3.02-1.93,4.23-3.64,5.87-.11.1-.29.22-.41.2-.73-.15-1.08-1.71-2.21-.47-1.32,1.45-2.77,2.8-3.38,4.74-1.27,4.04-5.31,5.33-8.46,2.51-3.8-3.4-7.43-7.14-9.06-12.02-.87-2.61-1.33-5.67-.49-8.56.43-1.48,1.53-2.29,3.07-2.44.09,0,.27.2.34-.02.08-.21.08-.46.08-.7-.01-1.5-.07-2.99-.03-4.49.02-.86.04-1.96,1.05-2.15,1.21-.24.86,1.02,1.15,1.65.16.35.26.76.78.8.57-.81.03-1.62-.31-2.16-1.45-2.26-.87-4.95.79-5.84,2.61-1.4.55-2.63.48-3.78-.1-1.61-.74-3.18-.72-4.86.03-1.72-1.05-3.31-1.27-4.79-.54-3.72-2.22-7.06-2.72-10.79-.7-5.27-.78-10.51-.51-15.77.16-3.19,1.77-6.16,1.86-9.42.02-.51.32-1.13.95-1.22.74-.11.87.51.99,1.06.08.38.09.87.57.91.63.05.66-.52.82-.96.26-.71.48-2.21.85-1.97,1.18.78,2.37-.17,3.43.39.34.18.66.45,1.02.57,2.27.71,3,.18,3.03-2.15,0-.47-.04-.95.02-1.42.13-1-.38-2.64,1.26-2.49,1.34.12,3.17.23,3.18,2.54.01,2.15.34,4.3.54,6.61,1-.71.44-1.58.64-2.28.13-.44.09-1.04.69-1.08.57-.04.75.5.84.96.09.46.08.94.11,1.41.05.77-.08,1.63.84,2.04,1.35.6.66-.88,1.17-1.19.34-.21.63-.55,1.01-.32.5.3.68.86.73,1.42.2,2.11.24,4.26.64,6.33.14.75-.56,2.77,1.79,2.04.65-.2.89.92.9,1.66,0,1.31,0,2.61.55,3.97.16-1.4.32-2.8.47-4.2.17-.02.34-.03.51-.05.28,2.35.83,4.7.76,7.04-.08,2.57,1.26,4.64,2.18,7.02,0-1.23-.03-2.46,0-3.69.03-1.03-.02-2.23,1.48-2.19,1.48.04,1.11,1.28,1.12,2.15.03,7.01.03,14.01.03,21.02,0,.55-.01,1.1.01,1.65.04.94.42,1.95,1.37,1.91,1.27-.04.81-1.26.77-2.02-.29-5.11.52-10.23-.23-15.33-.09-.64-.22-1.43.63-2.02.95,1.42.83,3.02.82,4.52-.04,4.96.52,9.91-.02,14.87-.13,1.16-.04,2.33.87,3.46,1.31-1.65.13-3.52.95-5.1.73,1.06.51,2.42,1.08,3.73.69-1.15.65-2.29.65-3.42,0-4.17-.04-8.35-.02-12.52,0-.78-.46-2.05.74-2.13,1.05-.07,1.17,1.22,1.19,2.02.17,5.97.54,11.95-.5,17.89-.07.39-.15.77-.19,1.16-.07.73-.08,1.63.82,1.68,1.17.07.69-1.02.69-1.58.02-5.9-.03-11.81-.02-17.71,0-.84-.05-1.73.57-2.74,1.45,1.96,1.45,4.14,1.49,6.24.09,5.27.04,10.55.1,15.82,0,.76-.48,2.15.66,2.14,1.11-.01.98-1.44.94-2.32-.11-2.67-.07-5.35-.54-8-.18-1-.25-2.04-.23-3.05.02-.78-.4-2.07.86-2.05,1.08.02.67,1.24.68,1.95.02,3.54-.11,7.08-.01,10.62.08,2.76-.19,5.88,3.88,6.21,1.4,2.56,3.07,1.02,4.74.36,1.23-.49,2.5-.21,3.69.26,3.54,1.39,7.17,1.66,10.88.89.86-.18,1.68-.22,2.56-.06,5.24.95,10.47.48,15.68-.35,1.76-.28,2.66.25,2.63,2.23-.05,2.7-.48,5.31-1.48,7.8-.9,2.26-.97,4.58-.94,6.96.02,1.18.9,2.49,1.48,2.39,2.71-.43,1.51,1.71,2,2.91.95-1.66.92-3.32,1.21-4.92.16-.88.12-2.42,1.51-2.28,1.5.15,1.23,1.54,1.13,2.63-.04.39-.11.77-.28,1.9,2.38-2.28,5.13-1.09,7.5-2.19,1.48-.69,3.46,1.25,3.01,2.84-.47,1.64-.79,3.37-1.99,4.72-.21.23-.58.56-.52.73.81,2.63-.53,1.6-1.52.86Zm-77.87-13.67c0-.88.53-1.23,1.36-1.23.61,0,.83.33.8.97-.09.72-.5,1.24-1.35,1.21-.57-.02-.81-.45-.81-.96Zm71.23-11.58c.22-.49.4-1.15,1.11-.94.53.15.57.79.44,1.2-.46,1.52-.63,3.16-1.88,4.39,0-1.6-.34-3.17.33-4.65Zm6.49,9.37c-1.38-2.98-.55-8.44,1.99-12.37-.11,4.2-2.49,8.04-1.99,12.37Zm-48.57-85.66c.25-.78-.46-2.17,1.5-2.12,2.35.06,2.4,1.58,2.34,3.2-.04,1.03.15,2.35-1.52,2.4-1.61.05-2.36-1.04-2.32-3.48Zm5.54.44c0-1.18.21-2.27,1.79-2.04,1.21-.04,1.82.44,1.64,1.69-.18,1.21-.04,2.73-1.84,2.74-1.53,0-1.58-1.28-1.59-2.39Zm4.69,1.19c-.01-2.64,1.03-3.67,2.97-3.71,1.2-.02,1.83.45,1.62,1.64-.3,1.63-.81,3.31-2.73,3.58-1.38.2-1.82-.9-1.85-1.51Zm6.29-2.22c.02-1.64,1.4-2.52,3.96-2.51,1.25-.26,1.47.52,1.48,1.48.02,1.66-1.7,3.04-3.77,3.03-1.35,0-1.68-.85-1.67-2.01Zm12.21-36.59c.8-1.28,1.74-1.5,2.92-.57,1.53,1.2,1.69,2.91,1.65,4.96.55,2.53-1.61,4.31-2.64,6.52-.17.36-.61.5-1.03.33-.56-.22-.66-.73-.4-1.16,1.19-1.97-.66-4.51,1.28-6.41.52-.51-.35-1.05-.98-1.22-1.52-.42-1.57-1.25-.81-2.45Zm-81.62,14.34c-2.14-1.52-4.78-1.46-7.01-3-5.47-3.79-6.7-7.18-4.42-13.84.51-1.49,1.04-3.08,2.44-4.22,3.07-2.49,10.27-2.23,13.59.54,1.89,1.58,3.43,3.44,4.9,5.39.43.57.83,1.92,1.88.93.77-.72,1.85-1.71.42-2.94-.79-.68-1.13-1.31.28-1.83,2.23-.81.57-1.61-.07-2.48-1.73-2.35-4.03-4.41-4.21-8.21,1.96,2.7,3.05-.36,4.59-.06.8-1.64-.29-2.63-1.35-3.53-.98-.84-1.09-1.74-.17-2.77.76-.84-.62-1.74.06-2.59q2.12,1.44,4.11-.24c.69-.58.23-1.07-.01-1.65-.53-1.26-1.61-2.59.55-3.55.93-.41-.19-1.46.22-2.14,1.08-.29.88,1.6,2.01,1.12,1.12-.48.23-1.56.6-2.24.96-.21,1.28.89,2.05.93.75-.86-.9-1.29-.3-2.14,1.13-.34,1.3,1.59,2.63,1.08-.31-.73-.72-1.43-.9-2.19-.23-1-.64-1.91,1.36-1.58.64.11,2.42-.26,3.56-.77.59-.26.18-.97.14-1.5-.07-.92-.74-1.76-.41-2.76.97-.17,1.64.55,1.9,1.11,1.14,2.44,2.44,1.09,3.13-.02,1.12-1.81,2.79-2.16,4.56-2.46,1.02-.17,2.04-.59,2.24-1.49.57-2.67,2.75-2.53,4.58-2.74,4.7-.53,9.08.46,13.42,2.51,3.55,1.67,7.31,3.22,9.94,5.98,3.97,4.18,7,9.22,8.84,14.74,1.53,4.58,2.57,9.33,3.67,14.04.5,2.13,1.73,3.96,1.82,6.29.1,2.53-1.27,4.25-2.6,5.84-1.89,2.26-1.78,4.35-.6,6.7,1.41,2.79,2.01,5.73,1.44,8.83-.12.66-.52,1.33-.95,1.87-.51.65-1.06,1.62-2.03,1.34-.9-.26-.68-1.29-.77-2.05-.08-.66.15-1.46-1.07-1.98-.5,3.06-.1,5.75,1.72,8.19.42.56.97,1.02,1.38,1.59.45.62,1.81.76,1.18,1.97-.58,1.1-1.13,2.25-2.47,2.69-8.17,2.68-16.49,2.72-24.9,1.44-2.55-.39-3.64-2.66-5.09-4.23-1.77-1.93-3.48-3.98-5.43-5.69-1.17-1.03-1.43-1.83-1.16-3.17.15-.74.07-2.04-1.05-1.23-2.42,1.74-5.38.87-7.89,2-.66.3-1.75-.06-1.7,1.08.04.82.86,1.13,1.6,1.08,2.48-.16,2.08,1.31,1.85,2.92-.66,4.51-1.73,8.99.1,13.56.6,1.5,1.55,2.71,2.36,3.97,1.87,2.93,2.58,6.02,2.48,9.39-.05,1.66.37,2.83,1.89,3.96,1.63,1.21,2.17,3.42,2.38,5.46.13,1.25,1.56,2.84.21,3.66-1.18.72-2.58-.65-3.79-1.34-4.19-2.37-6.65-6.26-8.88-10.29-1.48-2.66-3.19-4.85-6-6.28-2.45-1.26-4.14-6.05-3.72-8.85.55-3.65.96-7.32.8-11.04-.06-1.32-.51-1.87-1.73-2.31-1.32-.47-.97.74-1.4,1.11-.5.43-.91.92-1.62.67-.65-.23-.62-.85-.64-1.39-.04-1.02-.1-2.02-.85-2.82.29-.64.51-1.29.33-2.29-2.56,2.35-4.54.17-6.64-.74-2.82-1.23-4.88-3.58-7.35-5.34Zm-56.54,52.68c.52-.33.95-.82,1.46-1.16.53-.35.76-1.41,1.66-.94.63.33.56,1.1.55,1.71-.03,2.51.28,5.07-.67,8.1-1.45-2.61-.47-4.9-1.15-7.14-.79.54-.25,1.38-.55,1.87-.51.82.7,2.84-1.82,2.4-.66-.12-.14,1.92-1.15,2.59-1.28-2.57-.46-6.07,1.66-7.43Zm-47.82,112.07c-.99-.15-1.96-.09-2.85-.07-.28-1.53,4.1-.65,1.42-3.29.87-.33,1.73-1.02,2.6-.27,1.33,1.16.46,3.87-1.16,3.63Zm3.5-16.83c-.77,1.49-1.06,3.34-2.93,4.06-.38.15-.75.7-.52.94,1.98,1.98-1.32,2.77-.94,4.36.03.13-.1.41-.16.42-3.56.21-3.02,3.61-4.35,5.55-.21.3-.55.52-.83.78.35.63,1.68.17,1.37,1.25-.21.72-.86,1.11-1.67,1.05-2.1-.15-2.52,1.35-2.52,2.87,0,1.09-.18,1.77-1.18,2.27-1.1.55-1.88,1.06-1.62,2.79.1.65-.5,3.12-2.35,3.58-.61.15-1.12.28-.99.99.21,1.12,1.01.38,1.5.35.86-.05,1.7-.29,2.56-.44.54-.09,1.21-.28,1.35.47.14.74-.4,1.12-1.1,1.24-.08.01-.17,0-.23.02-1.11.52-3.47-.79-3.06,1.92.2,1.36-1.9,2.69.01,4.01.08.05.1.25.09.38-.16,1.18-3.17,3.16-4.24,3.56-2.32.86-4.89.92-7.06,2.19-.46.27-1.08.65-.74,1.28.36.69.97.14,1.46.04.85-.16,1.65-1.06,2.73-.09-.96.69-1.91,1.09-3.05.98-.5-.05-.97.06-1.19.54-.07.14.04.5.17.58.49.27.87-.11,1.3-.3.64-.28,1.31-.54,1.98-.73.45-.13,1.02-.16,1.18.42.19.67-.25,1.01-.87,1.15-.15.03-.31.12-.46.11-3.32-.3-4.39,1.94-5.03,4.72-.88-.97.98-2.67-.76-2.82-1.47-.13-1.51,1.54-1.67,2.69-.17,1.16-.49,2.37-.33,3.5.24,1.74-.26,2.52-2.04,2.56-.75.02-1.2.62-.89,1.31.28.61,1.11.55,1.37.05.63-1.22,2.38-.06,2.87-1.52.14-.42.66-.14.92.22.31.43.91.87.38,1.42-1.79,1.85-1.73,4.42-2.7,6.58-2.68-1.41-2.5-1.23-3.31,1.64-.98,3.47-1.24,7.16-3.19,10.48-.85-1.19,1.43-3.64-2.52-3.67,1.23-.87,1.76-1.21,2.24-1.6.54-.44.69-1.04.48-1.7-.11-.36-.44-.39-.77-.39-.73,0-.99.52-1.42,1.01-1.74,2-1.78,4.9-4.26,7.13,2.29-.56,3.31,1.1,5.09,1.27,1.53.15,1.07,2.16.81,3.43-.37,1.77-1.94,3.38-.48,5.36.31.43-.43.71-.72,1.05-1.45,1.67-1.56,4.12-.25,5.94.4.56.18.77-.29,1.08-2.05,1.36-2.05,1.71.11,3.49-1.71.4-2.6,1.39-2.59,3.09,0,.63-.48,1.06-1.08,1.05-2.89-.04-3.31,2.02-3.79,4.2,1.34.3,2.4-.07,3.42-.73.49-.31,1.2-.36,1.49.18.4.72-.43,1.09-.83,1.1-2.88.1-4.8,2.94-7.8,2.66-.51-.05-1.06.52-.99.85.56,3.06-2.07,4.14-3.72,5.47-3.74,3.03-5.95,6.92-7.39,11.31-1.15,3.51-3.33,5.28-7.01,5.31-2.38.02-4.55,1.27-6.95,1.21-.59-.01-1.25.27-1.68-.44.54-1.15,1.9-.65,2.79-1.59-1.51-.35-2.94-.21-4.31-.6-5.43-1.56-7.91-7.62-5.03-12.53.35-.6.56-1.29.9-1.9,2.06-3.64,5.55-5.2,9.71-4.22,1.73.4,2.26,1.89,2.14,3.44-.17,2.18-.63,4.34-.86,6.52-.07.63-.34,1.75.55,1.8,1.14.06.49-1.06.56-1.65.29-2.26.57-4.53.73-6.8.22-3.18-1.29-5-4.44-5.02-2.81-.02-4.84-2.07-7.49-2.43-.55-.08-2.03-4.48-1.67-4.84.89-.88,1.99-.62,2.79.02,1.66,1.31,3.1,3.17,5.53,2.4,3.24-1.03,5.91-2.97,8.02-5.65,3.35-.22,6.78-.01,9.83-1.9.68-.42,1.46-.64,1.34-1.7-1.13-.31-1.34.83-2,1.24-.89.55-2.06,1.02-2.85.29-.83-.76.24-1.41.68-2.12,1.09-1.77,2.83-3.15,3.25-5.33.22-1.17,1.49-1.32,2.15-2.07.94-1.06.9-1.39-.33-1.8-.59-.2-.32-.57-.22-.92.44-1.58.93-3.15,1.3-4.75.19-.8.75-.89,1.37-1.05,1.46-.39,2.66-1.16,3.76-2.65-.62.07-.91.08-1.2.14-.8.16-1.57,1.38-2.28.6-.72-.78-.16-1.94.24-2.89.63-1.49,1.26-2.98,1.88-4.48,1.01.18.23,1.19.9,1.56.12-.09.39-.18.43-.33.55-2.07,1.77-3.82,2.72-5.7.23-.46.93-.87.3-1.37-.47-.38-.79.23-1.15.52-.4.33-.8.9-1.4.48-.38-.27-.13-.72-.01-1.09,2.06-6.33,3.65-12.8,5.96-19.05,1.09-2.94,3.14-5.11,5.63-7.43-2.54.54-2.7-.53-1.98-2.29,1.8-4.42,3.61-8.84,5.3-13.3,3.18-8.42,6.29-16.87,9.38-25.32,1-2.72,2.6-4.77,5.4-5.8.68-.25,1.63-.27,1.71-1.35-.14-.05-.29-.16-.43-.14-.95.11-1.93,1.39-2.79.35-.77-.93-.19-2.11.38-3.07,1.56-2.61,2.16-5.72,4.3-8.04,1.22-1.32,2.48-2.56,4.66-3.49-3.17-.59-2.54-2.14-1.72-3.86,3.26-6.87,7.06-13.46,10.48-20.25.9-1.78,2.76-2.09,3.82-3.51.48-.64,1.01-.9.11-1.59-.79-.61-.2-1.31.18-1.87,6.12-9.14,11.13-19.05,18.57-27.26,2.36-2.6,4.37-5.69,7.78-7.26,1.97-.91,4.09-1.09,6.15-1.53.77-.16,1.94,0,1.88.9-.08,1.49.75,1.05,1.54,1.18,1.97.33,3.4-1.96,5.56-1.01.45.2.21-1.28,1.12-1.91-.01,2.69,1.57,3.03,3.72,3.31,4.08.53,5.57,3.75,6.12,7.31.55,3.55.96,7.14-.66,10.65-.48,1.04-.3,2.4-.68,3.6-.27.83.48,1.55,1.4,1.26.8-.25,1.11.11,1.18.66.33,2.57.93,5.36.06,7.69-.62,1.65-1.24,3.26-1.57,4.99-.13.67-.28,1.34-.42,2-1.66-1.29-1.62-1.27-.99-3.21.57-1.78-.44-2.03-1.86-1.82-1.6,1.93-1.68,4.07-.9,6.34.38,1.11-.52,1.58-1.23,1.5-1.91-.21-3.07,1.5-4.8,1.65-.18.02-.48.3-.48.47-.06,3.29-2.98,2.84-4.86,3.61-1.14.46-2.16.77-2.55,2.1-.26.89-1.17,1.28-1.93,1.63-1.13.51-1.98,1.16-2.05,2.44-.92.05-.51-1.59-1.6-1.02-1.08.57-2.48,1.17-2.69,2.3-.18.95-.6,1.73-.87,2.6-.48,1.53-.37,1.38-1.55.56-.98-.68-2.57-.34-2.78.68-.42,2.07-2.14,3.59-2.16,5.77,0,1.4-.52,3.11,1.95,2.78.07,0,.19.33.29.54-.96.36-2.21.11-2.74,1.37-.25.58-.67.65-1.07.14-.28-.36-1.15-.59-.41-1.28.46-.43.65-.93.26-1.45-.26-.35-.72-.3-1.1-.15-.67.26-1.04.84-.82,1.49.53,1.62-.35,1.9-1.65,2.04-.94.1-1.87.34-2.28,1.39-.79,2.05-2.64,3.46-3.34,5.62-.33,1.02-1.27,1.76-.18,2.9.54.56-.05,1.08-.62,1.17-2.63.42-3.15,2.68-4.12,4.56Zm55.01-27.64c1.05-1.17.59-2.94,2.41-3.03.43-.02.53-.87.28-1.24-1.4-2.01-.77-4.21-.75-6.37.02-2.17-.73-2.69-2.87-2.12-.34-1.06.13-2.05.47-2.95.4-1.03,1.16-1.97,2.54-1.09.26.17.55.29.82.43.67.37,1.86-.99,1.96.17.09,1.07.62,2.5-.46,3.46-.56.5-.55,1.01-.18,1.42.73.8.73-.07,1.02-.48.38-.55,1.11-.61,1.32,0,.29.83,1.53,1.76.23,2.66-.78.54-.84,1.08-.06,1.33,5.56,1.81,5.21,7.16,6.87,11.29.15.36.21.99-.18,1.05-2.52.43-1.24,1.89-.87,3.08.21.66.26,1.28-.35,1.7-1.41.97-1.36,2.12-.58,3.46.24.41.84,1.02-.02,1.34-.55.21-1.39.26-1.6-.54-.59-2.3-3.04-3.67-3.08-6.24,0-.22-.3-.49-.24-.64,1.61-3.48-.45-5.93-2.83-9.04.37,2.88-1.64,4.9-.43,7.33.34.69.3,1.36.3,2.06,0,.53-.25.91-.79,1.01-.54.1-.79-.21-1.09-.65-2.12-3.17-4.02-6.48-6.41-9.48-1.08-1.36-3.21-2.45-2.34-4.91.18-.5.04-1.06.67-1.32,1.18-.48,1.98,1.01,3.26.6.32-.1-.16,1.07-.13,1.65.16,2.39,1.85,3.96,3.09,6.05Zm-4.45,4.18c-1.11.39-2.3-.72-3.03-1.74-.48-.68-.72-1.54-1.05-2.32-.77-1.81-.41-2.32,1.99-2.29.51.18,1.16.69,1.47,1.49.28.72.6,1.51.55,2.25-.06.93,1.38,2.16.07,2.62Zm-7.54-4.54c.05.88-.35,1.29-1.11,1.24-.88-.06-1.14-.7-1.18-1.48-.04-.76.03-1.54,1.03-1.44.98.1,1.03,1.04,1.26,1.68Zm-23.17,49.54c1.55,1.55,3.27,2.94,4.71,4.58.54.61,1.9,1.46.74,2.54-.91.84-1.83.28-2.67-.5-1.55-1.43-3.19-2.77-4.8-4.12-.46-.39-.81-.98-1.54-.97-.16.8.83,2.88-1.45,1.32-.12-.08-.4-.18-.43-.14-2.44,3.49-2.97-1.67-4.77-1.05-.99-1.24-.84-2.39.07-3.71,1.33-1.92,2.62-3.85,4.11-5.66,1.26-1.53,2.73-1.89,4.58-1.3,2.29.74,4.17,1.83,4.42,4.53.02.23.03.61-.08.67-2.72,1.32-.2,1.88.43,2.51,1.25,1.22,2.09,2.64,2.9,4.58-4.04-1.95-6.17-5.72-10.19-7.93,1.27,2.04,2.65,3.34,3.97,4.67Zm-1.69-39.33c1.1-.55.93-1.87,1.6-2.76.18,4.58,0,5.33-1.76,7.28-.84-1.56.05-3.03.17-4.52Zm-.06,55.14c-3.3,2.18-6.47,4.7-10.8,4.43-1.09-.07-1.54-.42-2.21-1.47-4.01-6.32-.85-11.44,2.35-16.65.64-1.04,1.42-.62,2.22-.41,2.76,3.87,4.64,8.38,8.39,11.54.85.72,1.24,1.76.04,2.55Zm15.74,13.53c-3.18,1.21-6.47,1.88-9.83,2.19-.47,0-.95.05-1.42-.01-.97-.13-2.05-.45-2.14-1.5-.1-1.23,1.18-1.09,1.94-1.19,3.67-.49,7.1-2.02,10.81-2.34,1.25-.11,2.43-.11,2.7,1.12.28,1.32-1.12,1.39-2.06,1.74Zm7.18-18.39c-1.11,1.14-1.6-.25-2.29-.95-2.58-2.58-5.5-4.83-7.65-7.82-2.56-3.57-4.38-7.55-6.26-11.49-.19-.4-.13-.92-.19-1.35.14-.54-.24-1.29.49-1.45.74-.16,1.1.52,1.33,1.1,3.01,7.55,8.7,13.01,14.4,18.45,1.27,1.21,1.14,2.5.17,3.5Zm-9.3-23.37c.28.57.43,1.41-.22,1.69-.86.38-.96-.59-1.15-1.1-.85-2.32-2.55-4.41-2.02-6.44.13-2.23,0-3.77.9-5.23.89-1.45,1.35-.98,2.17.03,1.42,1.77.24,3.53-.08,5.14-.41,2.1-.52,3.98.42,5.91Zm-3.51,2.36c-1.11-1.33-2.04-2.36-1.24-4.49.96,1.55,2.06,2.55,1.24,4.49Zm12.94,15.7c-1.12.52-1.62-.62-2.25-1.24-1.8-1.79-3.49-3.71-5.37-5.41-1.31-1.19-1.92-2.6-1.82-4.66,1.44,1.51,3.05,2.9,4.27,4.57,1.15,1.56,2.52,2.53,4.34,2.97.99.24,1.89.62,1.87,1.76-.01.76-.34,1.69-1.04,2.02Zm5.03,8.74c-.85-.71-1.86-1.55-1.73-2.74.04-.93.15-1.72.92-1.97.77-.25,1.14.47,1.35,1.04,1.1,2.93,4.32,4.3,5.29,7.37.36,1.15.61,2-.64,2.5-1.26.5-1.71-.51-1.96-1.43-.54-1.97-1.64-3.47-3.21-4.78Zm5.17-8.64c1.96.77,4.09,3.88,4.04,5.89.09,1.17-.37,1.61-1.21,1.03-2.14-1.48-3.08-3.85-4.14-6.08-.29-.61.28-1.25,1.31-.84Zm-3.84,20.35c-.07-.27.08-.65.48-.69.59-.06.83.36.97.82.57,1.87.06,3.69-.4,5.54-.99-1.81-.6-3.81-1.06-5.67Zm8.94,24.15c-.91.31-1.33-.59-1.73-1.26-2.28-3.77-3.88-7.81-4.98-12.07-.3-1.16-.61-2.32-1.02-3.89,2.49,1.57,3.23,3.84,4.27,5.84,1.33,2.56,2.5,5.2,3.72,7.82.19.42.31.88.4,1.34.17.85.4,1.87-.64,2.22Zm2.05-2.77c-1.07-3.62-2.95-7.03-4.77-10.38-1.64-3.03-3.71-5.84-3.08-8.89-.43-1.5.09-1.49.71-1.57,3.19-.43,5.88-1.53,6.72-5.09.23-.99.78-.75,1.34-.2.59.58.79,1.31,1.03,2.07.65,2.06,1.65,4,3.74,4.9,2.12.92,2.87,2.8,3.07,4.67.32,3,1.26,5.82,1.88,8.72.15.72.59,1.7-.35,2.08-.86.34-1.38-.45-1.79-1.16-1.41-2.42-2.93-4.73-3.27-7.68-.22-1.9-1.04-3.79-1.86-5.55-1.11-2.39-4.24-2.61-5.84-.57-.53.67-1.14,1.29-1.77,1.89-.88.84-.94,1.85-.47,2.82,2.43,4.97,5.44,9.74,7.24,14.92,1.68,4.81,5.88,6.22,9.24,8.85,1.75,1.37,3.64,2.39,5.98,2.38,1.17,0,1.27.63.56,1.53-1.62,2.06-3.4,2.16-6.02-.18-1.32-1.18-2.71-2.09-4.29-2.81-4.65-2.1-6.62-6.04-8.01-10.72Zm3.63-24.44q1.84.63,2.3,3.08c-1.87-.25-1.88-1.78-2.3-3.08Zm9.35,30.35c.33.77,2.45.79,3.43,1.87.47.52,1.08.91,1.23,1.66.06.67-.27,1.04-.93,1.1-.9.08-1.84-.1-2.4-.75-2.02-2.33-4.89-3.31-7.39-4.87-.81-.51-1.17-1.26-1.44-2.07-.89-2.74-1.88-5.45-3.6-7.77-1.92-2.59-1.35-5.94-2.91-8.61-.29-.51,0-1.11.59-1.36.96-.41,1.66.25,1.89.94.83,2.43,1.72,4.84,2.34,7.36.71,2.89,1.35,5.96,3.76,8.12.17.16.34.5.49.48,2.97-.31,3.91,1.56,4.92,3.91Zm-5.69,7.91c-.17-.45-.25-.88.36-1.15,1.14-.5,5.41,2.48,5.36,3.83-.16.75-.77,1.37-1.46,1.04-1.73-.84-3.51-1.72-4.26-3.72Zm12.44,6.87c-.26.52-1.04.94-.54,1.62,1.35,1.83-.14,2.23-1.34,2.85-1.93,1.01-4.2,1.21-6.01,2.55-.57.42-1.54.6-1.94-.02-.48-.76.62-1.07.93-1.63,1.41-2.58,3.66-4.54,4.88-7.36.85-1.98,3.07-3.43,4.87-4.9.7-.57,1.47.05,1.48,1.07-.11,2.22-1.38,3.96-2.33,5.83Zm5.31-3.96c-.3.66-.73,1.05-1.47.77-.9-.34-.83-1.19-.6-1.81.83-2.25,2.15-4.21,4.43-5.16,1.19-.5,2.34-.78,2.81-2.18.21-.61.77-1.01,1.53-.68,2.1.9,2.07-.51,1.96-1.87-.62-7.51-.49-15.1-1.88-22.53-.76-4.07-1.98-8.08-3.32-12-.5-1.48-1.84-2.72-2.96-3.93-1.51-1.63-2.91-3.17-2.93-5.66-.01-1.31-.81-2.61-1.25-3.92-.1.03-.21.05-.31.08.2,1.29.42,2.59.57,3.89.05.45,0,1-.5,1.23-.57.26-.83-.28-1.15-.58-.69-.63-1.41-1.85-2.24-1.5-2.05.87-4.31-.29-6.23.85-3.15,1.88-3.78,7.96-1.09,10.74.66.68.79,2.95,2.79,1.14.48-.43,1.08,1.06,1.32,1.85.28.93-.2,2.12,1.25,2.88-.3-2.6-1.65-4.84-1.41-7.33.04-.39-.09-.79-.05-1.18.08-.9-.14-2.24,1.07-2.27,1.01-.02.45,1.27.68,1.95.15.43.3.86.55,1.55.26-1.15.17-2.36,1.54-2.18,1.09.14,1.09,1.14,1.24,2.01.58,3.49.41,7.06,1.21,10.52.19.83.17,1.71-1.1,1.03-.4-.21-.68-.77-1.15-.23-.3.35.03.72.17,1.08,2.59,6.68,3.76,13.58,3.2,20.74-.12,1.48.29,2.79.97,4.07.62,1.17.78,2.33-.68,2.97-1.45.64-1.96-.42-2.35-1.52-.52-1.47-1.54-2.51-2.76-3.42-.64-.48-1.2-1.14-.92-2.01.26-.81,1.04-.73,1.77-.83,2.18-.27,2.78-2.85,1.41-5.48-1.26-2.42-2.69-4.74-3.75-7.28-.96-2.3-1.34-4.71-1.49-7.11-.23-3.59-2.06-6.15-4.15-8.92-1.75-2.32-4.65-4.06-4.56-7.78.05-2.15-1.63-4.18-1.91-6.49-.11-.88-.96-1.52-2.02-1.74-1.2-.24-1.46-1.31-1.06-2.21.5-1.11,1.29-.34,1.94.05,1.27.77,2.68,1.39,3.78,2.35,1.58,1.37,3.36,1.1,5.15,1.08,1.34-.02,1.37-1.02,1.46-1.99.06-.63.17-1.3.94-1.48.69-.16.92.36,1.22.86.46.77,1.25,1.06,2.04.74.87-.35.56-1.24.42-1.86-.55-2.45-.88-5.01-1.9-7.26-.88-1.97-2.89-3.41-2.88-5.87-2.88-.3-1.66-4.03-4.15-4.75.29,1.5.6,2.99.85,4.49.25,1.47,1.05,2.9.39,4.49-1.51-3.07-3.29-5.97-4.07-9.31-.34-1.44-.95-2.37-2.45-3.27-1.98-1.18-3.1-3.73-4.96-5.24-3.44-2.8-6.33-6.27-10.3-8.43-.74-.4-1.49-.96-1.98-1.63-1.69-2.31-3.8-3.55-6.73-3.75-3.07-.22-4.78.76-4.54,3.8.28,3.56.99,7.14,3.32,10.08.52.65,1.27,1.35,2.03,1.53,5.37,1.28,6.76,6.23,9.41,10.01.22.31.21.8-.13,1.09-.53.45-.84-.06-1.17-.36-.79-.71-1.04-1.95-2.19-2.33-.13.14-.33.28-.31.35,1.26,3.59,4.71,6.04,5.05,10.2.08,1.04,1.37,2.49,3.23,1.87.55-.18.95.45,1.32.86,1.91,2.08,3.35,4.51,4.92,6.84.33.49.53,1.21.46,1.78-.36,3.03,1.12,5.43,2.62,7.79.94,1.47.71,3.01.7,4.57,0,.3-.06.71-.46.69-.25-.02-.6-.23-.72-.45-.63-1.16-1.49-2.3-1.74-3.56-.51-2.54-2.1-4.63-2.61-7.21-.54-2.72-2.51-4.8-4.73-6.42-3.54-2.57-6.51-5.59-8.58-9.48-1.22-2.3-1.2-4.96-2.38-7.32,0,1.31.01,2.62,0,3.93,0,.62.09,1.37-.66,1.61-.74.24-1.06-.35-1.46-.88-2.57-3.38-4.24-7.18-4.52-11.38-.17-2.47-1.63-4.04-2.88-5.77-.82-1.14-2.03-.75-2.76.31-1.07,1.56-1.88,3.25-1.91,5.24-.02,1.19.28,2.45-.55,3.63-.79-2.52-2.11-4.93-1.12-7.71,1.07-3.01,1.29-6.13,1.46-9.28.16-2.94,1.66-4.55,4.23-6.31,2.76-1.88,5.93-1.07,8.54-2.77.85-.56,2.55.15,3.58,1.16.61.6,1.19,1.28,2.13,1.39,8.05.94,13.49,5.83,18.14,11.95,3.44,4.52,7.67,8.43,10.46,13.46,1.25,2.25,2.16,4.63,3.17,6.99,1.74,4.07,3.67,8.13,6.39,11.63,2.37,3.05,2.52,6.81,3.91,10.16,1,2.42,1.97,4.92,2.75,7.43,1.63,5.19,4.21,10.17,4.22,15.76,0,3.52,1.76,6.65,1.83,10.18.06,3.19-.37,6.04-2.53,8.49-.41.47-.67,1.06-.99,1.61-1.66,2.87-3.04,6.1-7.42,5.06-.6-.14-1.19.4-1.47,1.01Zm-2.18-29.03c.42-1.04-.68-3.02,1.08-3.05,1.37-.03.95,1.9.94,2.97-.01,1.2.87,3.32-.82,3.39-1.71.07-.8-2.12-1.2-3.31Zm4.07,5.26c1.22.11.9,1.22,1.66,1.6.69-.89.92-2.03,1.45-3.48.77,1.55.62,2.8.52,4.05-.14,1.8-.23,3.6-.43,5.39-.07.58-.24,1.33-.95,1.47-.65.12-.93-.59-1.18-.99-1.5-2.52-1.53-5.22-1.07-8.03Zm-32.63-51.73c-.27-.61,0-1.32.54-1.69.68-.45.85.46,1.29.68,3.9,1.9,4.56,5.78,5.71,9.39-4.31-1.26-5.96-4.8-7.55-8.38Zm-4.06-2.38c-.36.45-.73.15-.93-.18-1.52-2.49-3.17-4.92-4-8.09,3.64,1.29,3.98,4.46,5.43,6.83.37.61-.17,1.04-.5,1.44Zm31.71,10.05c1.1,1.47,2.84,2.48,3.04,4.51.04.37.29.82-.18,1.04-.44.2-.75-.18-.97-.49-1.1-1.5-1.37-3.31-1.89-5.06Zm7.28,11.9c1.1-.27,1.42.88,1.67,1.62,1.09,3.17,1.99,6.42,3.12,9.57.95,2.63,2.49,5.06,2.49,7.98,0,.59.41,1.39-.41,1.62-.62.17-.75-.65-1.11-1.02-1.31-1.33-1.3-3.14-1.87-4.74-1.31-3.67-2.74-7.3-4.16-10.93-.27-.68-.4-1.35-.4-2.15.13-.63-.29-1.72.68-1.95Zm2.1,57.97c-1.36.53-2.83.96-4.34.81-.51-.05-.83-.44-.84-.98,0-.58.2-1.16.77-1.34.65-.21,1.37-.23,2.05-.34.73.14,1.46.16,2.09.42.68.28,1.02,1.13.27,1.43Zm3.89-3.64c-.25.36-.82.51-1.28.21-.45-.29-.48-.78-.35-1.26.63-2.33,2.39-3.92,3.77-5.76.18-.25.57-.37.81-.08.23.28.35.66.51.97-.95,2.17-2.16,4.07-3.46,5.91Zm5.74-12.07c-.02.65-.22,1.33-1,1.38-.93.06-.92-.76-.89-1.34.2-5.25-2.69-9.93-2.71-15.14,0-1.37-.76-3.61.41-3.82,1.54-.28,1.89,1.92,2.05,3.3.48,3.93,3.28,7.41,2.15,11.34,0,1.61.03,2.95-.01,4.28Zm25.3-41.34c-.28.85-.38,1.78-.24,2.77.13.92.67,2.59-1.61,1.93-.51-.15-1.08.83-.71,1.82.55,1.47-1.16,3.48-2.7,3.31-.22-.02-.42-.28-.62-.27-1.04.08-4.05,4.71-3.68,5.68.26.68.69,1.51,0,1.92-.76.46-1.21-.37-1.56-.99-.7-1.23-1.56.16-1.55.19.67,2.6-2.01,3.35-3.09,4.56-1.63,1.84-1.51,3.37-1.21,5.3.08.5.34,1.05-.17,1.53-.88-.46-.51-1.24-.64-1.88-.26-1.25-.66-2.47-2.24-2.54-.9-.04-1.42-.55-1.92-1.19-.34-.43-.71-1.13-1.11-1.17-3.62-.28-3.37-3.58-4.07-5.68-1.58-4.73-3.07-9.49-4.65-14.23-2.49-7.45-5.84-14.52-10.35-20.82-2.35-3.28-4.84-6.54-7.27-9.8-2.26-3.04-3.95-6.5-6.81-9.1-.39-.35-.62-.91-.84-1.41-.44-1.03-.19-2.26.44-2.85.83-.78,1.56.37,2.36.78,1.55.8,2.65,2.05,3.92,3.14.76.65,1.5,1.49,2.83.49.95-.71,1.53.74,2.28,1.21,1.03.63,1.64,2.23,3.35,1.01.74-.53,1.22.4,1.58.99,1.09,1.76,2.48,3.23,4.2,4.38.25.17.53.37.68.62,2.54,4.18,5.77,7.69,9.83,10.44.71.48,1.27,1.18,2.28.82.52-.18.93.16,1.19.56,1.96,3.12,5.12,4.69,8.13,6.53,1.22.75,2.93-.61,3.85,1.31.65,1.37,1.53,2.72,2.96,3.59,2,1.22,3.91,2.59,5.86,3.9,1.13.76,1.8,1.63,1.3,3.16Zm-55.58-46.07c.23-.79-.26-2.01,1.1-2.19.73-.1.85.57.81,1.12-.07,1-.25,2.13-1.35,2.38-.59.14-.56-.75-.56-1.31Zm99.12,39.12c-.87-1.82-2.35-2.09-4.12-1.88-1.68.19-3.29,1.18-5.07.46-.18-.07-.64.16-.75.37-.21.39,0,.75.41.96,1.36.69,2.68,1.23,4.26.51,2.26-1.03,4.03.11,4.19,2.57.19,3-1.89,5.4-4.84,5.45-1.89.03-3.45.02-4.09,2.47-.4,1.55-2.39,1.22-3.74,1.38-1.71.2-3.32-.18-4.65,1.78-.83,1.22-3.06.71-4.66.14-.14-.05-.26-.18-.39-.25-2.88-1.6-6.5-1.67-8.07-5.76-1.2-3.11-4.94-4.58-7.54-6.8-1.24-1.06.27-2.16-.24-2.77-1.08-1.3-.58-2.68-.65-4.22-1.27.88-.95,2-.84,3.04.05.51.6,1.08-.03,1.5-.61.41-1.18.04-1.73-.33-2.78-1.84-4.3-4.46-4.91-7.96-1.51,1.89-2.63.85-4.04-.2-3.32-2.45-6.47-5.04-9.51-7.85-1.87-1.73-1.37-4.22-3.25-5.81-.62.5-.22,2.7-2.31,1.95-2.87-1.04-5.19-3.2-5.21-5.15,0-.85,0-1.7,0-2.85-1.09.92-.55,3.25-2.79,2.56-1.4-.43-2.38-1.43-3.51-2.18-4.28-2.84-8.49-5.79-12.83-8.56-2.46-1.57-4.26-3.6-4.57-6.91-.31-3.23-1.95-6.22-2.73-9.42-1.73-7.15-4.82-13.81-8.06-20.36-2.1-4.25-4.07-8.5-5.38-13.08-.83-2.91-2.43-5.59-3.25-8.56-1.76-6.42-3.45-12.76-3.32-19.57.1-4.93,1.54-9.02,4.57-12.7,2.67-3.24,5.35-6.46,8.15-9.58,3.94-4.39,9.33-6.35,14.59-8.6,4.69-2.01,9.78-1.32,14.52-2.75.9-.27,1.83-.45,2.72-.76,1.58-.57,2.99-1.26,4.9-.84,1.94.43,3.33-1.97,5.45-1.86.5.03,1-.48,1.55-.08.84.61,1.79.97,2.49-.03.72-1.04,1.78-2.07.87-3.61-.55-.93-.92-1.96-1.32-2.97-.85-2.14.45-4.06,2.71-3.76,1.17.16,2.11-.56,3.21-.41.18,1.6.95,3.09.76,4.79-.17,1.55-.84,2.7-1.6,4.06-1.19,2.12-3.13,3.82-3.74,6.29-.67,2.73-2.3,4.77-4.87,5.96-3.81,1.77-5.94,4.63-7.65,8.59-2.98,6.9-2.1,13.76-1.84,20.81.15,4.28,1.77,8.1,2.59,12.15.61,3.01-.02,5.53-.98,8.19-.48,1.33-2.16,2.78.17,4.11.22.13.06,1.22-.16,1.78-2.28,5.88-2.75,12.2-4.35,18.25-1.68,6.33,1.24,11.67,5.34,16.46,4.98,5.8,10.2,11.37,15.65,16.72,2.27,2.23,4.5,4.48,6.54,6.91.78.92,2.49,1.94.28,3.28-.55.33-.43,1.13-.19,2.04.35-.54.6-.93.84-1.33.68-1.12,1.51-1.37,2.47-.37,4.1,4.31,8.25,8.55,11.63,13.51,1.46,2.15,3.2,4.27,6.61,3.92,3.2-.33,6.34-.53,9.51-1.38,4.87-1.3,9.64-1.08,14.14,2.03,3.75,2.59,5.21,4.25,5.09,8.04-1.16.03-1.98-.56-2.44-1.53Zm22.22-19.53c-3.18,2-6.17,4.43-9.5,6.22-3.36,1.81-6.93,3.05-10.72,3.93-3.16.73-5.56.19-8.36-1.22-3.99-2.02-8.31-.75-12.45.1-1.48.3-2.24-.09-3.07-1.36-2.63-4.04-2.68-8.59-2.86-13.13-.06-1.44,1.23-1.34,2.15-1.71.54-.21,1.73-.34,1.21-1.29-.4-.74-1.13-.04-1.56.36-1.15,1.06-1.77.51-2.25-.66-.85-2.04-1.96-3.9-3.68-5.35-.8-.68-.92-1.63-.83-2.59.09-.96.71-1.52,1.59-1.86.92-.36,1.5.07,2.02.73,1.81,2.27,3.56,4.56,5.03,7.08,1.56,2.68,3.29,5.27,4.98,7.88.41.63.93,1.59,1.81.96.75-.54.29-1.47-.13-2.13-2.5-3.88-5.07-7.71-7.54-11.62-1.74-2.76-3.57-5.44-2.63-9.13.49-1.92.09-4.07.1-6.12,0-.62-.07-1.32.65-1.64.68-.3,1.21.14,1.71.51,1.45,1.05,2.56,2.53,2.96,4.14.75,2.99,2.16,5.71,3.11,8.54,1.49,4.45,3.76,8.38,5.91,12.45.4.75.64,1.64,1.59,1.22,1.15-.51.26-1.45-.01-2-1.38-2.81-2.94-5.53-4.34-8.32-.48-.96-1.1-1.93-1.07-3.09.04-1.48-.27-3.22,2.43-2.92-2.28-.81-2.86-2.23-2.56-4.19.63-4.16-2.22-7.01-3.91-10.29-.73-1.42-1.21-2.9-1.52-4.44-.25-1.26.29-2,1.59-2.06,1.1-.05,2.22-.08,3.3.05,1.47.18,5.5,5.61,5.32,7.05-.1.82-.72,1.19-1.39,1.45-.78.3-1.58.53-2.49.83.83.49,1.54.24,2.24.24.79,0,1.64.28,1.63,1.04-.03,2,1.37,3.8.96,5.73-.81,3.81,1.18,6.86,2.43,10.1.56,1.44,1.43,2.78,2.25,4.11.38.61.73,1.71,1.71,1.21,1.08-.55.81-1.73.31-2.5-.81-1.26-1.28-2.68-2.01-3.93-1.04-1.8-1.45-3.8-2.36-5.63-.57-1.14-.52-2.46-.03-3.67,1.72-4.21,1.26-8.23-.74-12.24-.5-1.01-2.05-2.17-.44-3.52,1.64-1.37,3.33-.67,4.79.24,1.54.95,2.07,2.66,1.7,4.35-.61,2.78-.32,5.39.49,8.09.99,3.29,1.41,6.76,2.56,9.98,1.72,4.83,2.83,6.56,7.44,7.67,2.89.7,5.35.12,8,.14,2.14.02,2.43.39,1.43,2.24-1.16,2.14-2.86,3.86-4.48,5.64-.31.35-.78.59-1.01.97-.44.73-1.09,1.87-.49,2.34.93.72,1.32-.53,1.86-1.15,1.96-2.23,4.22-4.22,5.78-6.79.16-.27.53-.48.55-.75.33-3.33,3.19-3.91,5.5-4.67,5.57-1.84,10.16-5.15,14.58-8.82.3-.25.63-.47.97-.67.12-.07.3-.04.72-.09-1.05,4.49-3.07,8.19-7.01,10.58-1.43.86-.43-1.06-1.28-1.2-.58.54-1.25,1.16-2.13,1.98,2.21.02,2.28.77,1.04,2.08-3.59,3.78-6.99,7.63-11.56,10.5Zm10.69,3.63c-.31-.25-.71-.49-.57-.92.16-.48.62-.42.98-.24,2.86,1.47,5.52,3.18,7.15,6.1-2.76-1.34-5.22-3.04-7.56-4.94Zm51.01,64.93c-1.5-.17-2.97-.37-3.01-2.13-.03-1.68,1.45-1.47,2.44-1.34,1.32.17,3.15.18,3.04,2.16-.08,1.48-1.54,1.24-2.48,1.32Zm4.37-7.68c-.19,1.18-.91,1.95-2.06,2.24-.72.18-1.29-.23-1.24-.99.09-1.29.86-2.19,2.12-2.44.67-.13,1.13.42,1.18,1.18Zm-33.49-62c.13,1.48.66,3.18-1.97,3.36-1.04.07-.9,1.76-1.36,2.7.29.12.46.26.56.22,2.98-1.18,3.05-1.12,3.12,2.17.14,6.76.81,13.5.93,20.27.07,3.53-1.12,7.02-.31,10.54,1,4.35,1.98,8.72,3.23,13,.7,2.4,3.4,2.53,5.23,3.59,2.43,1.41,5.08,2.43,7.53,3.82.65.37,1.25.74,1.91.63,3.15-.56,6.67.44,9.37-2.14.32-.3.87-.36,1.28-.58.42-.23.83-.53,1.27-.1.5.49.28,1.05,0,1.52-1.38,2.29-6.15,5.51-8.89,4.62-5.28-1.7-8.1,2.51-11.67,4.91-.26.18-.46.49-.27.81.23.41.71.48,1.01.22,1.77-1.54,4.14-2.16,5.81-3.87,1.31-1.34,3.11-1.63,4.45-.46,2.37,2.08,3.96,4.72,3.25,8.11-.56,2.69-2.82,3.85-5.02,4.44-2.44.66-4.8,1.56-7.02,2.57-3.32,1.52-5.78.26-8.29-1.46-4.31-2.95-8.82-5.63-12.2-9.78-.79-.97-1.98-1.76-3.26-2.27-.55-.21-1.32-.74-1.37-1.19-.2-1.82-.91-3.1-2.55-4.08-.85-.51-.32-1.53.31-2.25.87-.99,1.12-.03,1.57.42.34.35.79.58,1.28.37.59-.24.2-.85.36-1.21,1.72-3.85-.72-6.01-3.15-8.32-1.21-1.15-2.91-1.95-3.39-4.11,1.26.31,2.35.65,2.89,1.44,1.37,2,2.46.68,3.44-.2.95-.84.52-2.33,1.34-3.42,1.1-1.46-.18-2.2-1.37-2.8-.15-.08-.32-.49-.26-.58,1.45-1.95-.38-2.34-1.36-3.36-.57-.59-2.88-1.98.06-2.95,1.16-.38.42-1.18-.17-1.51-1.07-.59-1.82-1.49-2.62-2.35-.37-.41-.91-1.23-.6-1.41,2.57-1.51-.31-2.68-.23-3.97.54-.57,1.09-.25,1.57-.09.73.25,1.47,1.25,2.07-.18.54-1.3-.14-1.76-1.14-2.56-2.35-1.88-5.17-3.34-6.85-6.33,1.57-.14,2.62.32,3.61,1.18.87.76,1.86,1.38,2.91,1.94-1.48-1.78-2.7-3.8-4.87-4.92-.55-.28-1.16-.82-.7-1.49.42-.6,1.01-.1,1.44.21.73.52,1.85.47,2.15,1.64.16.62.83.62,1.4.59.38-.02.6-.24.54-.6-.1-.58-.56-.83-1.02-1.17-1.27-.97-2.43-2.09-3.6-3.19-.4-.38-.77-.93-.32-1.46.45-.54,1.01-.24,1.47.1,1.24.94,2.47,1.91,3.72,2.85.81.61,1.71,1.4,1.68-.56-.01-.62.19-1.11.87-1.19.55-.06,1.15-.06,1.39.59.24.63.51,1.38,1.26.7.68-.62.29-1.37-.44-1.7-.95-.42-1.12-.72-.47-1.7,1.15-1.76-1.58-1.51-1.68-2.68.42-.54.86-.44,1.31-.23.44.21.97.44,1.33.09.88-.87.64-2.23,1.3-3.3.35-.56-1.09-1.4-1.86-1.85-.77-.45-1.39.14-1.41.99-.02.7-.15,1.12-.91.91-.62-.17-.64-.72-.36-1.13.83-1.18.67-1.98-.73-2.5-.41-.15-.52-.61-.26-.99.25-.36.65-.39,1.05-.22.99.42,2.15.45,2.86,1.5.32.47,1.03.97,1.54.18.43-.66.12-1.22-.7-1.36-1.36-.24-1.43-2.04-2.82-2.28-.28-.05-.35-.53-.13-.81.32-.41.7-.24,1.02.03.61.52,2.1,1.21,1.86.6-.63-1.67,4.11-2.82.28-4.45-.9-.38-1.61-1.45-1.39-2.73.23-1.35,1.03-1.2,2.08-1.02.63.11,1-.66,1.11-1.32.1-.63.21-1.27-.58-1.59-.65-.26-1.29-.53-1.93-.82-.28-.13-.56-.31-.48-.7.08-.38.39-.56.69-.42,2.1,1,2.58-1,2.59-1.94.02-2.04,1.84-3.92.39-6.09-.59-.88.73-1.51.96-2.44.98-3.96,1.34-7.97,1.65-12.03.71,2.47.39,5.02.65,7.51,1.12,11.01,2.05,22.04,3.01,33.07Zm.68-67.47c-.41,5.06-1.12,10.1-1.7,15.14-.11.96.31,2.39-1.17,2.38-1.36,0-.95-1.41-.95-2.25.02-7.02,1.22-13.85,3.4-20.51.3-.92.16-2.02,1.24-2.75-.02,2.69-.62,5.32-.83,8Zm1.46-17.53c-.5.7-1.4.56-2.18.28-.33-.11-.67-.43-.46-.65.77-.84.63-2.38,2.03-2.69.8-.17,1.64-.21,2.58-.32-.12,1.5-1.23,2.36-1.96,3.38Zm12.58,18.36c-1.26-.13-1.24-1.32-1.49-2.09-1.11-3.36-1.95-6.76-1.71-10.37.66-9.86-2.14-18.74-7.24-27.17-2.4-3.96-4.9-7.75-7.81-11.32-1.9-2.34-3.53-4.92-3.92-8.05-.1-.84-.39-1.7.55-2.6,2.77,6.22,6.27,11.79,10.1,17.15,6.97,9.75,10.21,20.61,9.98,32.53-.07,3.71-.07,7.38,1.75,10.78.18.34.12.77-.2,1.14Zm8.89,4.45c-.76.29-1.31-.45-1.56-1.09-.67-1.7-.87-3.44-.74-5.3.42-5.81-.29-11.57-.98-17.33-.61-5.06-1.95-9.97-3.66-14.75-1.1-3.07-2.56-6.02-4.66-8.57-.5-.61-1.11-1.08-.81-1.96,2.78,2.17,4.23,5.25,5.74,8.29,2.47,4.95,3.12,10.48,4.93,15.64.65,1.87.59,4.03.6,6.06.02,4.17.91,8.28.68,12.46-.09,1.67.2,3.27.78,4.85.2.55.34,1.45-.31,1.69Zm7.26-7.84c-1.07-1.83-1.87-3.12-1.58-5.32,1.19,1.68,2.04,2.96,1.58,5.32Zm.18-21.02c-3.81-4.75-7.17-9.86-10.4-14.96-2.11-3.33-3.99-6.95-5.93-10.46-1.14-2.07-3.28-3.48-4.41-5.64-.26-.49-.65-.87-.36-1.71,2.97,2.14,5.12,4.82,7,7.76,2.91,4.57,5.22,9.48,8.28,13.99,2.65,3.91,4.91,8.09,8.04,12.11-1.47.14-1.79-.56-2.21-1.09Z"/>
          <path class="cls-9" d="m507.82,403.51c2.01.37,3.72,1.36,5.36,2.77,1.15-1.17,2.91-1.23,3.59.37,1.4,3.28,4.61,4.02,6.91,6,2.4,2.06,5.32,3.35,8.22,4.42,3.05,1.13,6-.13,8.71-1.67,1.63-.93,3.19-1.93,5.06-2.35.32-.07.62-.11.92-.12,1.71-1.26,3.59-2.29,6-2.67,3.2-.5,5.71,1.03,8.68.95,1.75-.05,3.35-1.1,4.75-2.49,1.38-2.39,2.02-4.95,1.14-7.74-1.02-3.21-2.94-5.17-6.62-4.99-.95.05-2.01-.46-2.88-.95-1.34-.74-1.99-1.62-1.16-3.44,2.36-5.17.34-8.84-4.89-10.9-4.79-1.9-10.02-2.42-14.77-4.58-3.39-1.54-6.78-3.21-10.5-3.88-6.37-1.15-12.34-3.48-18.05-6.37-4.92-2.5-9.7-5.34-14.3-8.4-3.36-2.23-6.97-4.12-10.05-6.79-1.87-1.62-3.91-1.2-5.2,1.09-.91,1.62-1.9,2-3.64,1.21-5.57-2.54-11.15-5.11-16.59-4.31-3.64-.06-6.33-.09-8.66,1.58-2.24,1.6-3.88,3.85-5.97,5.6-2.42,2.03-4.67,4.66-8.09,4.75-2.98.07-5.28,1.36-7.48,3.01-1.84,1.38-1.85,3.64-.19,4.78,1.12.77,3.02.59,3.32,2.3.3,1.66-1.7,2.13-2.2,3.45-.11.29-.36.51-.53.78-1.19,1.79-.62,3.5,1.44,4.19.89.3,1.77.47,2.76.14,1.78-.58,3.1-.12,3.41,1.98.1.7.23,1.35.96,1.78,2.61,1.55,5.43,2.9,8.44,2.46,4.6-.68,9.14-.98,13.81-.87,3.54.09,6.82.02,10.31,1.28,5.02,1.81,9.7,3.76,13.3,7.91,2.01,2.31,4.68,3.67,7.64,4.83,5.05,1.98,10.65,1.14,15.55,3.55.43.21.96.7,1.5,1.32Zm22.74.73c-.13,3.39,1.65,5.68,4.8,7.68-4.43-.45-5.81-2.82-4.8-7.68Zm9.49.55c-.53-.81-.8-1.67-.32-2.59.08-.15.42-.32.56-.27,1.06.38.69,1.41.91,2.17.12.42.17.86.27,1.37-.91.09-1.17-.28-1.43-.68Zm10.91,1.89c-.31-.36-.48-.46-.5-.59-.14-.98-.49-2,.35-2.84.08-.08.5.01.57.13.63,1.13.5,2.18-.42,3.3Zm-4.38-12.77c1.71.55,3.64.85,4.96,2.3.51.56,1.18.43,1.77.39,1.63-.12,2.27.85,2.42,2.21.16,1.48-1.07,2.28-2.11,2.43-.84.12-1.98.96-3.01-.44-.63-.86-1.66-.17-1.78,1.11-.1,1.13.38,2.33-.46,3.6-.89-.88-.68-1.78-.73-2.62-.13-2.26-1-2.93-2.93-1.85-1.03.57-1.37.27-1.41-.52-.1-1.66-1.23-1.82-2.43-1.9-1.88-.13-1.63-1.03-.84-2.17,1.58-2.28,3.96-3.38,6.54-2.55Zm-93.49-13.51c-1.1-.41-2.42-.87-2.89-1.93-.3-.67.85-.85,1.54-.91,1.32-.11,2.05.49,2.11,1.85.03.55.02,1.29-.76.99Zm43.09,8.87c-1.3-.12-2.35-.34-1.51,2.17-1.2-1.4-1.99-2.3-2.74-3.23-.4-.5-.86-1.24-1.47-.97-2.18.93-2.6-.65-3.37-2.03-.61-1.09-1.18-3.04-2.89-.81-.3.39-.86-.08-1.2-.43-.32-.33-.61-.86-1.15-.58-2.1,1.08-2.57-.45-3.02-1.89-.16-.52-.53-1.12-.82-.84-2.29,2.21-3.45-1.72-5.48-.96-.34.13-.68-.57-.73-1.07-.07-.77-.56-1.17-1.26-1.13-3.37.18-6.44-1.32-9.73-1.68-4.8-.52-9.63-.74-14.36.1-4,.7-7.89,1.94-12.02,1.43-.55-.07-1.13.03-1.64-.14-1.11-.37-1.82-1.14-.41-1.89,2.09-1.1,3.7-3.95,6.77-2,.5.32,1.44.31,2.04-.16,1.34-1.05,2.91-1.01,4.47-1.14.95-.08,1.87.34,2.54-1.17.48-1.1,2.19-.27,3.19.29,1.23.69,2.29,1.31,3.59.07.51-.49,1.41-.25,2.05,0,3.74,1.5,7.64.5,11.46.82.81.07,1.45-.25,1.45-1.15,0-.87-.85-.97-1.38-.96-4.44.14-8.62-1.71-13.1-1.54-5.88.22-11.78-.68-17.67.33-2.38.41-4.69-.42-6.87-1.34-1.75-.74-1.78-1.77-.27-2.91.83-.63,1.75-1.26,2.78-1.12,3.77.5,7.48-.59,11.37.02,2.53.4,5.59,1.5,8.3-.15.45-.27.89-.1,1.31.2,1.14.82,2.25,1.51,3.45-.01,1.15-1.46,2.12,2.44,3.56.1,1.1-1.79,2.58-.26,3.7.22,1.72.74,3.25,1.89,4.89,2.82.64.36,1.62,1.5,1.92,0,.25-1.25,3.31-2.28.57-3.83-4.26-2.42-8.44-5.07-12.94-6.95-2.68-1.12-5.73-.23-8.37,1.42-2.46,1.54-4.4,4.22-7.84,3.75-.62-.09-1.32,0-1.62-.71-.27-.63.22-1.04.6-1.42,1.26-1.26,2.41-2.65,4.33-3.02,1.22-.23,1.9-1.37,2.75-2.15,4.43-4.07,12.89-5.17,18.21-2.28,5.65,3.06,11.59,5.29,17.92,6.51-1.22-.6-2.48-1.14-3.66-1.81-1.4-.79-1.83-2.06-.91-3.39,1.01-1.45,1.85-.08,2.75.4,7.5,3.97,13.97,9.52,21.39,13.69,6.67,3.74,13.76,6.02,20.87,8.19,5.26,1.6,10.18,3.94,15.38,5.57.51.16,1.17.19,1.2.91.03.64-.49.93-1,1.18-3.42,1.7-5.89,4.81-9.49,6.29-1.52.62-2.6,2.02-3.43,3.43-1.02,1.72-2.29,3.02-4.3,2.06-1.59-.75-3.37.38-4.83-.85-.26-.22-1.12.03-1.54.31-.84.54.3.85.27,1.3-.08,1.29,1.15,1.82,1.59,2.8.36.81.73,1.78-.1,2.37-.98.69-1.51-.2-2-.97-.46-.73-1.18-1.34-1.43-2.12-.53-1.65-1.86-.62-2.73-.92-.3-.73.25-.85.65-1.04.64-.31.32-.78.21-1.2-.09-.32-.53-.69-.61-.54-1.05,2.12-2.57-.48-3.77.41-.69.51-1.67-.15-1.89-.53-1.07-1.91-2.91-2.04-4.66-2.17-2.57-.2-4.74-1.72-7.3-1.95Z"/>
          <path class="cls-9" d="m405.75,293.58c1.1-2.07,1.95-3.53,4.02-3.88,1.33-.23,1.26.2,1.01,1.18-.64,2.59-2.87,2.04-5.04,2.7Z"/>
          <path class="cls-9" d="m425.38,226.8c-.89,2.05-.88,4.21-.9,6.36,0,.42.17,1.04-.46,1.15-.74.13-.96-.5-.96-1.04,0-2.4.09-4.79,2.32-6.47Z"/>
          <path class="cls-9" d="m377.4,344.33c1.32,2.02.13,3.47-.93,5.02-.74,1.08-1.53,1.08-2.97.42,2.74-1.05,3.19-3.27,3.9-5.43Z"/>
          <path class="cls-9" d="m397.04,285.94c-3.16,1.4-2.59,4.43-4.13,6.28-.89-3.63.63-6.37,4.13-6.28Z"/>
          <path class="cls-9" d="m385.04,351.21c-.77.08-1.44.1-1.41-.99.06-2.01,1.89-1.13,2.83-1.7.76-.46.8.45.8.94.02,1.53-1.12,1.63-2.22,1.74Z"/>
          <path class="cls-9" d="m386.25,321.58c1.6-1.95,2.41-4.3,3.21-7.03,1.12,2.87.17,4.81-3.21,7.03Z"/>
          <path class="cls-9" d="m386.19,309.09c-.36,1.36-.75,2.52-.94,3.7-.19,1.18.05,2.44-.72,3.62-1.14-2.5-.56-5.09,1.66-7.33Z"/>
          <path class="cls-9" d="m437.05,223.64c-.61,2.35-2.43,3.56-2.55,5.87-1.08-2.3-.13-4.48,2.55-5.87Z"/>
          <path class="cls-9" d="m420.65,226.65c.01-1.92,1.04-3.13,2.45-4.05.54-.35,1.36-.48,1.68.16.47.93-.51.96-1.03,1.06-1.62.3-1.76,2.12-3.11,2.83Z"/>
          <path class="cls-9" d="m428.99,237.55c.79-2.12,1.51-4.05,2.25-6.02,1.04,2.52.56,3.84-2.25,6.02Z"/>
          <path class="cls-9" d="m424.93,216.87c1.71-2.28,3.72-2.31,5.63-.57-1.75.22-3.45-.33-5.63.57Z"/>
          <path class="cls-9" d="m420.74,266.08c-1.06,2.27-1.93,4.13-2.86,6.12-.68-1.87.45-4.43,2.86-6.12Z"/>
          <path class="cls-9" d="m477.82,202c-.64-.66-.46-1.37-.27-2.17.21-.87.29-1.7,1.37-1.93.41-.09.63.08.7.4.18.87.17,1.75-.43,2.47-.4.47-.93.83-1.41,1.24,0,0,.03,0,.03,0Z"/>
          <path class="cls-9" d="m347.14,381.88c.93,1.92,3,.6,4.36,1.51-2.22,1.38-3.3,1.04-4.36-1.51Z"/>
          <path class="cls-9" d="m432.8,222.69c-.05,2.05-1.43,3.41-2.7,5.58-.12-2.88,1.55-4.1,2.7-5.58Z"/>
          <path class="cls-9" d="m394.04,304.98c.32,2.27-.51,3.87-3.11,4.91,1.22-1.93,2.17-3.42,3.11-4.91Z"/>
          <path class="cls-9" d="m444.41,220.38c1.44-.77,2.48-1.36,3.56-1.89.32-.16.83-.29,1.04.13.22.44.07.98-.44,1.17-1.19.43-2.37,1-4.16.59Z"/>
          <path class="cls-9" d="m422.39,259.25c1.12-.74,2.56-1.06,2.42-2.67-.01-.12.32-.39.49-.4.33,0,.5.25.62.58.65,1.87-.75,2.95-3.53,2.49Z"/>
          <path class="cls-9" d="m440.84,233.05c.72-1.52,1.5-2.99,3.39-4.01-.4,2.26-1.84,3.18-3.39,4.01Z"/>
          <path class="cls-9" d="m419.88,237.66c-1.58,1.12-1.21,3.25-2.41,4.57-.55-2.78-.02-3.83,2.41-4.57Z"/>
          <path class="cls-9" d="m395.94,295.63c-.33-1.76-.24-3.08.08-4.37.11-.45.47-.86.99-.87.26,0,.63.16.77.37.42.65-.31.67-.59.97-.95,1.02-.33,2.56-1.26,3.89Z"/>
          <path class="cls-9" d="m388.84,305.89q.02-2.45,2.64-6.01c-.26,2.35-1.56,3.87-2.64,6.01Z"/>
          <path class="cls-9" d="m397.05,276.82q1.4-3.37,3.83-2.5c-1.21,1.02-3,1.02-3.83,2.5Z"/>
          <path class="cls-9" d="m434.22,238.21c.2,2.56-.08,2.92-2.88,4.38.33-1.75,1.8-2.57,2.88-4.38Z"/>
          <path class="cls-9" d="m404.28,286.28c1.46-1.48,3.22-1.53,4.56-2.38-.85,1.76-2.24,2.59-4.56,2.38Z"/>
          <path class="cls-9" d="m427.21,249.46c-1.39.96-2.36,2.69-4.64,2.83,1.13-1.98,3.26-1.81,4.64-2.83Z"/>
          <path class="cls-9" d="m407.13,270.98c1.63-.66,1.56-2.42,2.46-3.57.67,2.7.1,3.55-2.46,3.57Z"/>
          <path class="cls-9" d="m385.09,341c-.87,1.02-1.73,2.06-3.51,2.8.9-1.92,2.06-2.56,3.51-2.8Z"/>
          <path class="cls-9" d="m434.71,210.37c-1.21,1.05-3.12.93-3.58,2.76.13-2.3,1.29-3.15,3.58-2.76Z"/>
          <path class="cls-9" d="m415.79,247.94c-.04,1.5-.36,2.87-1.67,4.04-.44-1.9.77-2.92,1.67-4.04Z"/>
          <path class="cls-9" d="m458.72,210.9c-1.72.71-2.89,1.19-4.07,1.68.77-1.38,1.76-2.27,4.07-1.68Z"/>
          <path class="cls-9" d="m380.38,332.37c-.58-2.3.8-3.24,2.12-4.22-1.04,1.15-.8,2.94-2.12,4.22Z"/>
          <path class="cls-9" d="m399.76,296.45c1.45-1.03,1.79-2.66,2.35-4.76.24,2.95-.38,4.09-2.35,4.76Z"/>
          <path class="cls-9" d="m416.93,257.1c-.18,2-1.79,2.63-1.67,4.03-.66-1.66-.02-2.72,1.67-4.03Z"/>
          <path class="cls-9" d="m442.79,201.39c-1.43.96-2.24,1.75-2.88,3.03.16-2.46.58-2.96,2.88-3.03Z"/>
          <path class="cls-9" d="m403.42,283.28c-.54-2.03-.7-3.24,1.43-3.95-.48,1.32-.85,2.34-1.43,3.95Z"/>
          <path class="cls-9" d="m409.71,288.29c.74-1.12,1.8-1.25,2.9-1.22.06,0,.22.49.14.58-.83,1.02-2.03.38-3.05.63Z"/>
          <path class="cls-9" d="m424.35,243.63c-1.26.95-2.22,1.68-3.18,2.4.35-1.53.9-2.84,3.18-2.4Z"/>
          <path class="cls-9" d="m528.81,239.62c.36,1.71-.6,3.82,1.84,4.68-1.44-.34-2.74-.75-3.14-2.16-.28-.97-.05-1.99,1.3-2.52Z"/>
          <path class="cls-9" d="m534,241.29c-1.18-1.01-2.89-1.63-2.8-3.59.02-.4.14-.81.57-.91.37-.08.55.23.56.56.05,1.52.98,2.64,1.67,3.94Z"/>
          <path class="cls-9" d="m523.44,232.5c-1.36-1.05-2.66-2.1-2.83-3.91-.04-.44-.06-1.01.6-1.05.57-.03.55.43.54.82-.05,1.61.58,2.95,1.69,4.13Z"/>
          <path class="cls-9" d="m547.77,258.56c-1.24-.59-2.27-1.27-2.1-2.83.05-.46.07-1.02.64-1.08.68-.07.66.53.63.97-.07,1.07.19,2.04.83,2.94Z"/>
          <path class="cls-9" d="m551.54,258.99c.25,1.28.48,2.44.72,3.68-1.88-1.11-2.08-2.04-.72-3.68Z"/>
          <path class="cls-9" d="m557.34,269.48c-1.37-1.03-1.46-2.21-.39-3.72.71,1.31.21,2.56.39,3.72Z"/>
          <path class="cls-9" d="m536.44,244.18c-.42,1.37-.36,2.61.51,3.75-2.12-1.79-2.2-2.27-.51-3.75Z"/>
          <path class="cls-9" d="m556.71,257.7c.74,1.26.56,2.49,2.09,3.55-2.58-.8-2.77-1.2-2.09-3.55Z"/>
          <path class="cls-9" d="m541.8,256.47c.32,1.53.51,2.48.73,3.51-1.58-.91-1.64-1.14-.73-3.51Z"/>
          <path class="cls-9" d="m588.17,114.82c-1.81,0-3.63.09-5.43-.02-3.25-.19-5.4-2.74-5.31-5.97.04-1.28.58-2.08,1.7-2.55.93-.38,2.18-1.14,2.79-.15.66,1.06-.98,1.06-1.51,1.6-.64.67-1.17,1.19-.88,2.22.34,1.22.94,2.37,2.19,2.55,4.13.59,8.28,1.35,12.45.95,1.84-.18,3.07-1.56,3.04-3.83-.03-2.32-1.42-3.33-3.23-3.13-4.35.49-6.6-2.17-7.82-5.41-1.61-4.24-.84-8.44,2.23-12.09,2.82-3.36,6.67-5.24,10.23-7.55,1.17-.76,2.32-1.62,3.23-2.66.74-.83,1.24-1.91,2.55-1.59.67.16.92.9.73,1.56-.35,1.25.14,2.9-1.87,3.36-3.11.71-5.54,2.69-7.92,4.71-.39.33-.65.77-.27,1.21.41.49.87.07,1.26-.13,1.93-.97,3.77-2.2,6.09-2.08.66.04,1.33.04,1.56.76.26.83-.31,1.25-.95,1.65-1.88,1.18-3.95,1.95-6.1,2.3-2.64.43-4.8,1.66-6.77,3.34-.22.19-.53.47-.53.71.03,1.74.1,1.81-.77,2.42-1.22.85-1.72,1.63-.15,2.61.16.1.33.3.37.48.93,4.3,1.1,4.46,5.27,4.87,3.52.34,4.33,1.18,4.33,4.5,0,3.44-1.58,5.45-4.6,5.63-1.96.12-3.94.02-5.91.02,0-.09,0-.18,0-.27Z"/>
          <path class="cls-9" d="m568.82,95.79c.83-1.62,2.12-2.1,3.85-2.42-1.93-1.43-3.81-1.17-5.63-1.24-.86-.03-2.07.4-2.28-.99-.19-1.28.67-2.05,1.74-2.51,1.37-.59,2.79-.12,4.19-.1.59.01,1.4.14,1.6-.63.17-.65-.34-1.08-.9-1.49-2.37-1.75-5.01-2.84-7.91-3.29-1.31-.2-2.38-.69-2.04-2.24.32-1.46,1.63-1.4,2.67-1.12,4.3,1.18,8.29,3.01,11.57,6.13,1.07,1.02,2.27,1.9,3.28,2.97,2.35,2.48,2.05,3.84-1.04,5.15-3.07,1.3-5.42,1.77-9.12,1.77Z"/>
          <path class="cls-9" d="m529.15,86.65c3.54.2,6.31,2.14,8.3,4.71,1.72,2.23,3.59,4.54,4.5,7.34.19.59.7,1.28.02,1.68-.84.49-1.24-.35-1.59-.94-1.78-2.92-3.46-5.96-6.06-8.22-1.75-1.52-3.7-2.93-6.26-2.92-.53,0-1.46.46-1.56-.45-.09-.81.72-1.12,1.47-1.2.39-.04.78,0,1.18,0Z"/>
          <path class="cls-9" d="m593.59,93.18c2.58-1.64,7.99-.93,9.29,1,.28.42.18.77-.14,1.02-.54.42-1.08,1.01-1.88.56-.95-.54-1.87-1.15-2.82-1.68-1.3-.72-2.88-.36-4.45-.9Z"/>
          <path class="cls-9" d="m537.83,99.2c-2.02-.26-2.54.48-1.79,2.1-1.27-.27-2.26-.46-3.24-.69-.8-.19-1.19-.74-1.15-1.55.04-.86.39-1.65,1.33-1.66,1.59-.01,3.31-.21,4.85,1.79Z"/>
          <path class="cls-9" d="m546.53,94.93c-.95-.49-2.16-.57-2.28-1.64-.1-.92,1.03-.91,1.57-.89,1.56.03,1.73-1.7,2.95-2.08.52-.16.95-.63,1.4,0,.3.42.24,1.14-.13,1.27-1.47.54-2.27,1.62-2.87,2.96-.1.21-.47.3-.64.4Z"/>
          <path class="cls-9" d="m544.76,76.18c.84.04,1.94-.13,2.01,1.03.05.87-.73,1.32-1.64,1.17-.64-.11-.77.27-.94.74-.31.87-.9.77-1.43.25-.56-.54-.44-1.14.14-1.6.65-.52,1.57-.73,1.9-1.62,0,0-.05.04-.05.04Z"/>
          <path class="cls-9" d="m547.88,84.6c-.65.03-.97-.39-1.23-.9,1.16-.48,1.37-2.14,2.82-2.26.84-.07,1.2.62,1.23,1.16.11,2.04-2.04,1.08-2.82,2Z"/>
          <path class="cls-9" d="m550.43,68.61c-.2.74-.19,1.5.6,1.82,1.27.52,1.09,1.52,1.07,2.67-1.25-.56-2.05-1.48-2.77-2.45-.36-.49-.87-1.25-.71-1.64.31-.74,1.21-.29,1.87-.34l-.06-.07Z"/>
          <path class="cls-9" d="m550.49,68.68c-.09-.66-.08-1.25.77-1.43.68-.14,1.24.05,1.71.52.68.69.58,1.53.04,2.12-.72.79-.92-.41-1.41-.6-.39-.15-.64-.67-1.17-.68,0,0,.06.07.06.07Z"/>
          <path class="cls-9" d="m546.31,69.92c1.87.32,2.47,1.36,2.86,2.57.09.27-.15.73-.48.66-1.58-.35-1.54-1.88-2.39-3.23Z"/>
          <path class="cls-9" d="m551.52,61.6c.96-.04,1.19.8,1.48,1.47.26.61-.3.9-.73.88-.95-.04-1.51-.7-1.69-1.58-.13-.62.4-.73.94-.78Z"/>
          <path class="cls-9" d="m536.19,219.37c.01.86.05,1.37-.41,1.64-.54.31-1.09.16-1.48-.29-1.63-1.87-2.93-3.95-3.63-6.35-.11-.37-.1-.86.34-.99.34-.1.94-.13,1.11.08,1.61,1.93,3.16,3.91,4.08,5.91Z"/>
          <path class="cls-9" d="m624.58,233.95c.45-1.77.74-2.9,1.1-4.3,1.5,1.9.15,2.75-1.1,4.3Z"/>
          <path class="cls-9" d="m602.57,157.16c-.45,1.76-.52,3.19-1.16,4.28-.97,1.64-.11,2.55,1.07,2.99,6.26,2.33,10.19,7.06,13.48,12.55.83,1.38,2.05,2.51,2.35,4.21.36,2.1,1.55,3.15,3.81,2.77.46-.08,1.11-.19,1.58.5-4.25,1.42-7.48,4.05-9.71,7.88-.23.39-.52.96-1.03.79-.75-.25-.44-.89-.24-1.38.64-1.52.16-2.56-1.3-3.25-1.82-.86-3.11-2.37-4.38-3.83-3.28-3.74-7.32-6.85-9.63-11.4-.42-.82-.61-1.76-.83-2.67-.45-1.86-1.26-3.01-3.44-2.15-.54.21-1.46.46-1.68-.23-.26-.82.58-1.01,1.27-1.28,3.5-1.35,5.96-3.83,7.65-7.14.45-.88.68-1.94,2.2-2.64Z"/>
          <path class="cls-9" d="m582.12,157.55c-1.12-3.46-2.89-6.72-2.92-10.51,1.07,3.48,3.51,6.54,2.92,10.51Z"/>
          <path class="cls-9" d="m643.72,272.88c0-.25.03-.34,0-.4-.4-.75-1.82-.93-1.28-2.18.19-.43.78-.83,1.14-.48.8.78,2.25,1,2.38,2.36.16,1.69-.99,2.97-1.86,4.17-.57.78-1-.4-1.1-.85-.2-.99-.11-2.03-1.67-1.68-.35.08-.67-.42-.53-.86.13-.4.5-.51.94-.54.7-.04,1.11.96,1.99.45Z"/>
          <path class="cls-9" d="m651.01,300.28c.77-2.55,1.14-5.13,1.5-7.71.06-.45.21-1.01.8-.96.55.04.67.61.78,1.05.44,1.81-.49,3.34-1.13,4.88-.42,1.01-1.28,1.83-1.95,2.74Z"/>
          <path class="cls-9" d="m644.06,286.27c-.93-.2-.92-.88-.84-1.49.13-.97.5-1.87,1.63-1.99.84-.1,1.19.53.92,1.21-.35.9-.66,1.93-1.72,2.28Z"/>
          <path class="cls-9" d="m648.58,284.39c1-1.3,1.81-2.36,2.62-3.43.2-.27.44-.51.73-.21.19.2.43.63.34.79-.72,1.37-1.26,3.02-3.68,2.84Z"/>
          <path class="cls-9" d="m650.08,269.15c.07,1.16-.11,2.07-1.04,2.35-.63.19-.74-.61-.53-.93.49-.77-.43-2.07.76-2.41.92-.26.75.69.81,1Z"/>
          <path class="cls-9" d="m647.44,260.24c1.49-.21,2.53-.56,2.17-2.41,1.2,1.08,1.32,1.98.56,2.87-.79.92-1.63.63-2.73-.45Z"/>
          <path class="cls-9" d="m649.65,244.73c.24.13.34.15.38.2.75,1.3.19,2.55-.16,3.81-.03.1-.58.16-.59.15-.43-1.43.16-2.73.37-4.16Z"/>
          <path class="cls-9" d="m653.45,271.57c.23.47.35.6.36.74.07,1.23-.25,2.38-1.34,3.01-.79.45-.9-.44-.05-1.97.15-.27.27-.56.42-.83.14-.25.31-.49.6-.95Z"/>
          <path class="cls-9" d="m580.46,237.32c-.07.83-.78.85-1.36.96-.44.08-1.15.12-1.09-.47.07-.71.76-1.12,1.46-1.26.51-.1.89.19,1,.77Z"/>
          <path class="cls-9" d="m520.13,266.02c1.2.1,1.64.83,1.79,1.85.16,1.05.81,1.85,1.41,2.67.59.81,1.14,1.03,1.8.07.3-.44.64-1.02,1.3-.51.48.38.5.99.38,1.53-.22.95-.64,1.81-1.77,1.92-1.03.1-2.14.14-2.67-.99-.98-2.07-2.41-4.01-2.24-6.53Z"/>
          <path class="cls-9" d="m493.05,222.46c1.99,1.71,4.22,5.74,4.13,7.16-1.98-.1-1-2.7-2.85-3.2-1.87-.5-1.16-2.27-1.28-3.96Z"/>
          <path class="cls-9" d="m491.44,223.09c-.15-.36-.29-.54-.25-.64.35-.75-.29-1.76.57-2.34.11-.08.58.18.74.39.41.57.04,1.44-1.06,2.59Z"/>
          <path class="cls-9" d="m644.63,163.23c2.32.02,3.62,1.57,3.57,4.22-.05,2.37-.89,3.28-3.03,3.26-1.95-.02-3.9-2.25-3.84-4.41.06-2.05,1.19-3.09,3.3-3.07Z"/>
          <path class="cls-9" d="m624.63,143.77c2.04,0,4.01,1.64,4.03,3.33.02,2.41-1.57,4.63-3.36,4.69-2.31.07-4.78-2.07-4.82-4.19-.05-2.47,1.44-3.84,4.15-3.83Z"/>
        </g>
      </g>
    </g>
  </g>
</svg>