<?xml version="1.0" encoding="UTF-8"?>
<svg id="expo-1" xmlns="http://www.w3.org/2000/svg" xmlns:xlink="http://www.w3.org/1999/xlink" viewBox="0 0 1849.91 1450.57">
  <defs>
    <style>
      .cls-1 {
        fill: #3b2f35;
        filter: url(#outer-glow-1);
        opacity: .23;
      }

      .cls-1, .cls-2, .cls-3, .cls-4, .cls-5, .cls-6, .cls-7, .cls-8 {
        stroke-width: 0px;
      }

      .cls-2 {
        fill: url(#Dégradé_sans_nom_12-2);
      }

      .cls-3 {
        fill: url(#Dégradé_sans_nom_7);
      }

      .cls-4 {
        fill: url(#Dégradé_sans_nom_7-2);
      }

      .cls-6 {
        fill: url(#Dégradé_sans_nom_14);
      }

      .cls-7 {
        fill: url(#Dégradé_sans_nom_12);
      }

      .cls-8 {
        fill: url(#Dégradé_sans_nom_13);
      }
    </style>
    <filter id="outer-glow-1" filterUnits="userSpaceOnUse">
      <feOffset dx="0" dy="0"/>
      <feGaussianBlur result="blur" stdDeviation="11.65"/>
      <feFlood flood-color="#000" flood-opacity=".75"/>
      <feComposite in2="blur" operator="in"/>
      <feComposite in="SourceGraphic"/>
    </filter>
    <radialGradient id="Dégradé_sans_nom_13" data-name="Dégradé sans nom 13" cx="1352.64" cy="661.47" fx="1322.89" fy="661.47" r="365.08" gradientUnits="userSpaceOnUse">
      <stop offset=".23" stop-color="#3b2f35"/>
      <stop offset=".45" stop-color="#3c3036"/>
      <stop offset=".54" stop-color="#43373b"/>
      <stop offset=".6" stop-color="#4f4245"/>
      <stop offset=".65" stop-color="#615252"/>
      <stop offset=".69" stop-color="#776763"/>
      <stop offset=".73" stop-color="#928178"/>
      <stop offset=".77" stop-color="#b29f91"/>
      <stop offset=".78" stop-color="#beaa9a"/>
    </radialGradient>
    <linearGradient id="Dégradé_sans_nom_14" data-name="Dégradé sans nom 14" x1="1094.47" y1="879.65" x2="1525.51" y2="966.31" gradientUnits="userSpaceOnUse">
      <stop offset="0" stop-color="#3b2f35"/>
      <stop offset=".88" stop-color="#beaa9a"/>
    </linearGradient>
    <linearGradient id="Dégradé_sans_nom_7" data-name="Dégradé sans nom 7" x1="1340.06" y1="734.51" x2="1469.49" y2="734.51" gradientUnits="userSpaceOnUse">
      <stop offset="0" stop-color="#3b2f35"/>
      <stop offset=".88" stop-color="#aeb9b0"/>
    </linearGradient>
    <linearGradient id="Dégradé_sans_nom_7-2" data-name="Dégradé sans nom 7" x1="1059.97" y1="473.74" x2="1446.97" y2="473.74" xlink:href="#Dégradé_sans_nom_7"/>
    <linearGradient id="Dégradé_sans_nom_12" data-name="Dégradé sans nom 12" x1="1033.73" y1="328.64" x2="1137.45" y2="328.64" gradientUnits="userSpaceOnUse">
      <stop offset=".19" stop-color="#3b2f35"/>
      <stop offset=".21" stop-color="#662739"/>
      <stop offset=".24" stop-color="#90203d"/>
      <stop offset=".27" stop-color="#b21a41"/>
      <stop offset=".3" stop-color="#cd1544"/>
      <stop offset=".33" stop-color="#e01246"/>
      <stop offset=".36" stop-color="#ec1047"/>
      <stop offset=".39" stop-color="#f01048"/>
    </linearGradient>
    <linearGradient id="Dégradé_sans_nom_12-2" data-name="Dégradé sans nom 12" x1="1284.15" y1="268.54" x2="1316.24" y2="268.54" xlink:href="#Dégradé_sans_nom_12"/>
  </defs>
  <ellipse class="cls-1" cx="1088.49" cy="1064.14" rx="373.96" ry="97.1"/>
  <g>
    <g>
      <path class="cls-8" d="m1501.19,616.55c-8.59-9.82-18.6-18.33-29.54-25.72-15.93-10.76-32.91-19.71-51.02-25.55-27.21-8.78-54.86-16.42-83.68-18.16-2.15.66-4.38.53-6.6.56-24.4.3-48.82-.69-73.22.68-4.54-.11-9.05-.04-13.42,1.4-1.35.31-2.57,1.06-3.97,1.21-1.68-.04-3.33.2-4.97.56-1.29.33-2.54.89-3.91.76-21.37,4.99-42.9,9.45-62.9,18.99-.91.52-1.78,1.1-2.55,1.81-.5.47-.92,1.01-1.22,1.63-.03.21-.04.39-.06.59-11.26,5.76-22.58,11.22-33.1,18.58-16.98,11.87-30.73,26.23-40.95,44.13-3.59,6.3-6.88,13.1-7.45,20.13-.94,11.72-.17,23.58-.12,35.38.04.9.08,1.79.12,2.69.34,0,.68.02,1.03.02.04.41.05.83.06,1.26.51,3.98,2.07,7.58,4.01,11.04,1.93,2.34,2.94,5.17,4.17,7.89,1.46,2.62,3.51,4.78,5.31,7.14,1.9,2.25,3.37,4.84,5.42,6.97,2.29,2.28,4.62,4.51,6.82,6.87,2.34,2.27,4.63,4.58,7.01,6.81,3.16,2.79,6.07,5.86,9.57,8.25,6.12,4.35,12.16,8.81,18.77,12.4,16.04,10.71,33.9,16.81,52.57,20.91,1.49.33,2.99.63,4.47,1.01,12.74,3.3,25.48,6.63,38.22,9.94,0,0,0,0,0,0h0c.06,2.3.29,4.9,3.24,4.74,2.29-.12,2.1-1.89,2.06-3.51.04.01.08.04.12.05,1.72.51,3.46.53,5.21.13.16-.04.31-.1.46-.15.18.29.45.49.9.51.97.04,1.18-.78,1.33-1.55.12-.05.25-.11.38-.16,2.56.43,5.13.85,7.69,1.28,1.57,4.33,4.27,1.9,6.69,1.12h0c5.77.73,11.76-1.59,17.38,1.25l1.14-.05c.53.31,1,.63,1.4.96,1.25.54,2.52.58,3.81.13.63-.29,1.15-.7,1.62-1.16,1.88,0,3.76,0,5.63,0,.26.28.55.55.89.78.87.4,1.76.46,2.68.2.32-.38.63-.7.94-.98,2.11,0,4.21,0,6.32,0,.49.36.98.77,1.46,1.23,1.25.35,2.47.27,3.62-.36.14-.29.29-.54.44-.79,2.3.31,4.31-1.14,6.52-1.39.8.53,1.6,1.18,2.41,1.79,14.17,1.49,27.97-1.8,41.9-3.37.24-.05.47-.11.71-.16,0,.19,0,.39,0,.58,1.81.13,3.05-.33,3.64-1.48.3-.09.61-.16.91-.25,1.76-.06,3.49-.32,5.19-.82,8.19-1.9,16.38-3.87,24.33-6.53,15.58-5.21,31.47-9.64,46.19-17.21,7.33-5.27,15.9-8.38,23.28-13.55,4.36-3.31,8.68-6.64,13.13-9.81,2.58-2.03,4.77-4.47,7.14-6.72,1.78-1.88,3.58-3.73,5.51-5.46,1.85-1.78,3.89-3.37,5.49-5.39,1.26-1.54,2.69-2.94,3.83-4.59,1.03-1.68,1.89-3.47,3.01-5.1,1.21-1.93,2.53-3.78,3.8-5.67,1.01-1.75,1.89-3.58,2.89-5.33.87-1.86,2.18-3.48,2.96-5.39,1.77-3.04,1.74-6.78,3.73-9.73v-37.46c-2.42-15.93-10.62-29.12-20.87-40.84Zm-236.24,140.17c.09.09.18.19.27.28-.35.18-.72.45-1.1.77,0-.01,0-.02,0-.04,0,0,0,0,0,0,.34-.32.62-.65.83-1.01Z"/>
      <path class="cls-6" d="m1516.79,704.23h0s0,0,0,0c-1.01,1.73-2.01,3.46-3.02,5.2,0,0,0,0,0,0-.9,1.76-1.8,3.52-2.69,5.28,0,0,0,0,0,0-1.29,1.83-2.58,3.67-3.88,5.5-1.57,1.4-2.26,3.27-2.77,5.23,0,0,0,0,0,0-1.28,1.33-2.56,2.67-3.84,4,0,0,0,0,0,0-1.65,1.89-3.31,3.77-4.96,5.66,0,0,0,0,0,0,0,0,0,0,0,0-2.38,1.3-4.26,3.11-5.53,5.52,0,0,0,0,0,0-2.95,1.29-4.96,3.67-6.97,6.05,0,0,0,0,0,0-4.42,3.2-8.83,6.4-13.24,9.59,0,0,0,0,0,0-7.16,5.17-16.05,7.39-22.71,13.4,0,0,0,0,0,0-2.39,1.02-4.74,2.1-7.16,3.04-20.85,8.14-42.02,15.34-63.68,21.04,0,0,0,0,0,0-1.76.1-3.53.2-5.29.3-.63,1.24-1.68,2.04-2.74,2.83-.36-.56-.81-1.05-1.27-1.54-14.71,1.06-29.25,4.3-44.1,3.65-3.1-2.11-5.63-.82-8.02,1.34-1.34,0-2.68,0-4.01,0-2.67-2.09-5.34-2.09-8.01,0-.89,0-1.79,0-2.69,0-2.67-2.09-5.34-2.09-8.01,0-1.34,0-2.68,0-4.02,0-.82-.56-1.72-.77-2.69-.58-.27-1.51-1.6-2.23-2.82-2.09-4.33.47-8.5-1.43-12.82-.59-2.77.4-5.57,2.11-8.24-.24-2.32-.96-4.67-1.72-7.24-1.3-1.29.07-1.82,2.64-3.59,1.1-1.78.03-3.57.07-5.35.1-3.14,3.81-4.08-.85-6.04-1.56-13.57-4.6-27.33-8.52-41.46-11.08-.9.23-1.81.41-2.72.58-1.97-1.03-3.94-2.09-6.03-2.76-15.3-4.92-30.54-9.9-43.9-19.23-6.18-3.93-12.37-7.87-18.55-11.8-3.11-2.68-6.22-5.36-9.32-8.05-2.41-2.12-4.81-4.24-7.22-6.36-1.55-2.83-3.8-5.01-6.41-6.85-1.74-2.3-3.48-4.61-5.22-6.91,0,0,0,0,0,0-1.71-2.34-3.41-4.68-5.12-7.01h0c-.54-3-1.64-5.7-4.1-7.68,0,0,0,0,0,0-1.46-3.91-2.93-7.83-4.39-11.74-.74-.88-1.5-.89-2.27-.05-.09,61.74-.32,123.48-.24,185.22.07,61.15,1.01,122.3.12,183.46-.07,4.74.14,10.03,3.79,14.06.96,4.13,2.38,8.07,4.67,11.67h0c1.57,2.76,3.14,5.52,4.71,8.27.97,1.29.96,3.22,2.68,4.01,2.46,4.48,4.42,9.36,9.38,11.85,1.85,2.68,3.74,5.33,6.6,7.07,3.42,4.23,5.99,9.42,12.04,10.68,7.44,4.41,12.77,11.88,21.33,14.65.21.7.5,1.29,1.43.95,8.6,4.41,17.07,9.13,25.86,13.13,5.78,2.63,11.54,5.87,18.27,5.66.89.45,1.78.89,2.67,1.34,1.97-.32,3.21,2.31,5.35,1.34,1.89,1.89,4.32,1.55,6.65,1.63,2,1.46,4.16,2.48,6.71,2.38.87.13,1.74.26,2.61.38.49,1.53,1.63,1.18,2.74.95,1.28.1,2.56.19,3.84.29.17.81.57,1.29,1.48,1.05,1.28.1,2.57.2,3.85.3.17.81.58,1.3,1.49,1.05,1.35,0,2.69-.01,4.03-.02.89.45,1.78.9,2.67,1.36,1.34-.01,2.67-.03,4.01-.04,9.77,1.59,19.46,3.73,29.4,4.06,4,.53,7.85,2.46,12.03,1.34h37.42c3.66.85,6.97-2.47,10.69-.89,1.34-.15,2.67-.3,4.01-.44,1.34,0,2.67,0,4.01,0,2.35-1.53,5.01-.89,7.56-1.14,7.41-.72,14.83-1.46,21.85-4.21,3.36,1.26,6.15-1.47,9.36-1.33,1.34-.45,2.67-.9,4.01-1.34,4.31-.27,8.58-.71,12.09-3.65,1.74-.58,4.03.99,5.34-1.34,17.02-3.74,33.27-9.42,48.09-18.8,9.71-3.35,18.11-8.81,25.42-15.99,5.02-2.93,11.38-4.19,13.5-10.77,2.24-2.23,4.48-4.45,6.71-6.68,2-2.05,5.22-2.6,6.63-5.38,1.66-2.19,3.32-4.37,4.97-6.56,1.32-2.74,2.63-5.48,3.95-8.22.28-.32.39-.7.34-1.12,3.25-2.44,4.98-5.88,6.33-9.58l4.06-10.7c.11-2.15.22-4.3.32-6.45.86-.08,1.71-.16,2.57-.25v-374.62c-4.17,1.77-3.82,6.08-5.27,9.38Zm-153.72,354.08c.47.65.7,1.34.75,2.08-.2-.69-.46-1.39-.75-2.08Z"/>
    </g>
    <g>
      <path class="cls-3" d="m1447.62,700.98c-.38-.13-1.48.04-3.05.41-7.19,1.69-24.19,7.58-26.5,8.74-2.81,1.41-21.81,7.04-28.14,7.04s-27.44,9.15-31.66,10.55c-4.22,1.41-14.07,3.52-14.77,9.15-.7,5.63-1.41,17.59-2.11,20.4-.7,2.81-3.52,9.15,2.11,9.85s18.29,2.81,23.92.7c5.63-2.11,11.26-3.52,19-6.33,7.74-2.81,25.33-4.92,25.33-4.92,0,0,33.07,2.11,37.99,2.81,4.92.7,13.37,2.81,16.89-2.81s2.81-19,2.81-21.81-2.81-19-3.52-21.11c-.7-2.11-6.33-13.37-9.15-13.37s-10.63.75-10.63.75"/>
      <path class="cls-4" d="m1287.92,672.84c-.7,2.81-2.11,19.7-2.81,23.92-.7,4.22,5.63,15.48,9.85,16.89s20.4,9.85,21.81,11.96,4.92,7.04,3.52,9.15-15.48,14.77-15.48,14.77c-2.81,3.52-9.85,7.74-13.37,8.44-3.52.7-13.37,3.52-17.59-2.81-4.22-6.33-16.18-21.11-19.7-24.62s-7.04-5.63-7.04-11.96-2.81-21.11-5.63-26.03c-2.81-4.92-40.1-30.96-47.84-37.99-7.74-7.04-41.51-35.88-42.92-46.43-1.41-10.55-28.14-65.43-27.44-73.17s-1.41-50.66,4.22-59.1c5.63-8.44,14.07-24.62,22.51-24.62s23.22-2.11,33.77,2.11,30.25,4.92,37.29,7.74c7.04,2.81,21.11,6.33,23.92,8.44,2.81,2.11,30.96,14.77,36.58,18.29,5.63,3.52,13.37,7.04,16.89,9.15s8.44,7.04,8.44,1.41,3.52-8.44-1.41-21.11-7.74-19.7-13.37-19.7-48.54-5.63-53.47-10.55-43.62-30.96-45.73-33.77-41.51-35.88-47.84-36.58-22.51-5.63-28.14-6.33-21.11,6.33-26.73,2.81-30.25-11.96-30.25-14.07,8.44-6.33,9.15-8.44,18.29,11.26,25.33,11.96,18.29-.7,27.44-1.41,14.77-8.44,14.77-10.55,7.74.7,9.85,1.41,16.18,21.11,20.4,23.92,46.43,22.51,52.06,25.33,23.92,11.26,28.14,13.37,9.85,8.44,18.29,4.22,28.85-11.26,31.66-12.66c2.81-1.41,18.29-11.26,21.11-13.37,2.81-2.11,13.37-14.77,14.77-17.59,1.41-2.81,8.44-26.03,7.04-32.36-1.41-6.33-13.37-18.29-18.29-21.11s-9.85-14.07-9.15-16.89c.7-2.81-.7-11.26-2.81-14.77-2.11-3.52-7.04-8.44-7.04-8.44,0,0,7.74-4.22,9.15-8.44,1.41-4.22,3.52-9.85,4.22-12.66.7-2.81-1.41-7.74,4.22-11.96,5.63-4.22,7.04-12.66,9.15-19,2.11-6.33,9.15-16.89,14.07-19.7s10.55-25.33,25.33-21.11,19-8.44,33.77,23.22c14.77,31.66,23.92,24.62,24.62,46.43.7,21.81,0,9.85-2.11,35.88-2.11,26.03-1.41,52.77-1.41,52.77,0,0,7.04,29.55,9.15,41.51,2.11,11.96,9.85,35.18,9.85,37.99s3.52,25.33,4.22,35.18c.7,9.85-6.33,43.62-9.15,46.43s-14.07,25.33-16.18,28.85,0,45.03-4.22,58.39c-4.22,13.37-11.26,30.96-14.07,37.99-2.81,7.04-6.33,19-7.74,23.22-1.41,4.22-8.44,15.48-9.85,19s-7.04,11.26-13.37,14.77c-6.33,3.52-19,4.92-28.85,4.22-9.85-.7-40.1-10.55-46.43-12.66s-9.15-9.15-9.15-9.15Z"/>
      <path class="cls-7" d="m1088.58,291.99c-.47,1.88-20.17,0-22.98.47s-7.5,3.75-12.66,6.57-9.85,4.22-11.73,6.1-6.1,1.88-7.04,5.16-.47,10.32,2.35,10.32,7.5,6.57,11.26,9.38,5.16,9.38,12.19,10.79,13.13,4.22,12.66,8.91-5.16,5.16,4.69,11.26,8.44,9.38,21.58,8.44,23.92-5.63,29.08-7.5,8.44-8.44,9.38-14.54c.94-6.1-6.1-19.7-7.04-22.98s-8.91-17.82-7.97-19.7.94-9.85-1.41-7.5-9.38-1.88-11.26-2.81-10.32-6.1-12.66-6.57-8.44,4.22-8.44,4.22Z"/>
      <path class="cls-2" d="m1316.06,276.51c1.41-6.1-5.63-16.89-9.85-19.23s-10.32-2.81-12.19-1.88-10.32,10.32-9.85,11.73-.94,10.79,1.88,12.19c2.81,1.41,5.16,2.81,8.44,2.81s3.28-.94,8.21-.47,10.55,0,11.02-2.35l.47-2.35"/>
      <g>
        <path class="cls-5" d="m1288.56,437.38c-1.79-1.51-3.84,2.23-4.61-.28-.59-1.92,2.21-2.53,3.57-3.64,1.2-.98,4.21-1.2,1.31-3.74-.54-.47.32-1.38.95-1.77,8.58-5.32,14.59-13.51,22.24-19.87.88-.74,1.44-2.61,2.73-1.51.92.78.63,2.53-.12,3.81-4.32,7.34-7.36,15.24-10.08,23.26-2.71,7.95-3.61,16.28-2.51,24.5.74,5.5,3.62,10.57,6.72,15.31,1.08,1.65,2.14,3.32,3.07,5.06,2.13,3.99,6.53,4.53,9.44.94,2.6-3.21,3.74-7.45,7.15-10.17.87-.69.32-1.73-.6-2.49-4.67-3.86-7.25-9.54-11.84-13.56-1.48-1.3-2.08-3.91-1.96-6.22.52-9.39-.2-18.89,3.55-27.93,3.75-9.05,9.56-16.28,18.11-20.94,10.04-5.48,22.51-1.32,27.84,8.93.42.81.86,1.85,1.6,1.89,5.4.33,3.07,4.17,2.8,6.6-.45,4.13-3.09,7.49-5.18,10.93-4.78,7.89-8.69,16.21-12.73,24.47-2.45,5-6.35,9.03-9.37,13.66-3.97,6.08-8.51,11.95-11.07,18.7-2.1,5.55-3.86,11.41.16,17.64,2.25,3.48,4.52,7.64,4.54,12.31,0,1.99.16,3.95-.46,5.88-1.53,4.76-.96,6.98,3.43,9.19,2.24,1.13,4.28,2.41,6.37,3.76,3.4,2.2,7.41,2.63,11.4,2.73,1.17.03,3.09.51,3.31-.79.24-1.43-.37-3.33-1.28-4.51-.71-.92-2.49-.27-3.42.43-3.15,2.35-5.16.24-7.72-1.55,4.17-2.67,9.15-3.84,11.13-9.34-3.07,1.11-5.74,2.17-8.48,3.02-1,.31-2.35,2.14-3.07.34-.54-1.35.1-3.18,2.11-3.73,5.25-1.42,9.25-4.88,13.28-8.26.84-.71,2.56-1.49,1.44-2.83-.71-.85-2.32-.55-3.47.13-2.64,1.56-5.28,3.13-7.91,4.69-.98.58-2.42,1.29-2.98.23-.78-1.48,1.06-1.6,1.95-2.01,3.26-1.51,6.11-3.66,8.96-5.77,1.68-1.24,3.12-2.71-.46-3.46.78-1.52,2.46-1.67,2.94-3.09.31-.92,2.08-1.54.73-2.74-.99-.88-2.13-.23-3.04.46-2.26,1.69-4.49,3.42-6.72,5.16-.48.38-.95.98-1.52.34-.24-.27-.28-1.06-.06-1.32,2.61-3.09,5.86-5.55,8.83-8.25,2.16-1.97,2.99-1.37,2.68-4.76-.93-10.33,1.24-20.47,1.56-30.72.06-1.95-.15-3.66-1.93-4.88-1.75-1.2-1.39-2.9-.45-4.27,3.14-4.55,4.95-9.62,6.24-14.93.62-2.53,3.04-3.82,4.13-6.26,2.4-5.34,2.62-10.63,1.87-16.22-.75-5.59-.06-11.26,1.56-16.51,3.67-11.89,5.31-24.11,6.32-36.38,1.18-14.17,3.01-28.23,5.03-42.29.91-6.32.61-12.79-.98-19.18-1.13-4.52-1.23-9.29-2.1-13.89-.94-4.97-3.12-9.14-8.67-10.88.04,2.3,2.7,3.43,1.55,5.89-3.06-1.42-2.56-6.07-6.67-6.96.64,1.69,1.16,3.06,1.73,4.57-3.5.57-3.51-2.61-4.81-4.23-.49-.61-.51-1.61-.74-2.44-.26-.96-.94-1.71-1.84-1.4-.79.27-.48,1.27-.28,1.98.32,1.14,1.28,2.12.62,3.62-2.29-3.86-8.04-5.51-6.62-11.76.55-2.41.71-5.09-.67-7.58-.81-1.45.12-1.97,1.61-1.8,2.1.24,3.47,1.29,4.8,3,4.37,5.63,9.29,10.68,16.86,12.81-.26-4.15-2.3-7.42-3.62-10.86-1.63-4.25-6.49-2.94-10-4.42.65-.65.79-.92.95-.93,5.69-.27,6.16-.5,3.24-6.31-4.33-8.62-4.75-17.52-3.62-26.74.57-4.64-.41-8.77-3.28-12.53-.95-1.25-1.56-1.64-2.94-.72-5.54,3.67-12.03,5.45-17.75,8.79-1.64.96-3.01,2.32-3.92,3.81-1.06,1.72-1.08,3.66,1.97,3.68,2.59,0,5.21-.04,7.66,1,1.61.68,3.22,1.51,3.24,3.53,0,1.38.74,3.17-1.01,4.02-1.7.82-2.61-.53-3.7-1.62-3.01-3.01-6.31-2.96-10.14-1.21-3.21,1.46-4.05,3.64-3.75,6.78.08.86.16,1.75.02,2.59-.69,4.15-.57,4.32,3.83,4.45,2.35.07,4.69.06,7.04.14,1.2.04,2.07-.38,2.88-1.32,1.72-2.01,3.72-3.74,6.18-4.95-3.45,6.04-7.28,11.74-13.16,15.72-5.59,3.78-11.51,6.49-18.53,5.66-1.89-.22-3.46.44-4.04,2.45-.51,1.75.02,2.97,1.66,4.04,6.07,3.97,12.61,7.01,19.23,9.84,3.27,1.4,5.37-.59,6.51-3.85,1.59,3.9-.2,6.81-3.98,7.05-6.41.41-11.16-3.31-16.1-6.47-1.65-1.06-3.19-2.17-5.26-2.37.48,1.98-.02,4.31,3.49,5.36-3.79.54-6.2.15-8.65-.99-3.46-1.6-7.11-1.86-10.73-.25-3,1.33-5.97.96-9.05.09-3.96-1.12-3.09-5.95-6.12-7.82-.13-.08,1.6-2.77,3.14-3.66.51-.3,1.36-.3,1.61-.72,1.8-2.86,3.38-5.79,7.71-4.43,3.12.99,6.49,1.31,8.49,4.45.82,1.29,2.11,1.59,3.6,1.15,1.43-.42,2-1.46,1.94-2.8-.11-2.48,2.22-3.43,3.15-5.27.85-1.7,2.17-3.23-1.24-3.14-.84.02-1.81.04-1.78-1.28.03-1.18.85-1.3,1.75-1.48.84-.17,1.65-.53,2.48-.74,4.25-1.08,6.73-2.98,6.31-8.19-.33-4.08,2.83-7.47,4.91-10.92,3.61-6.01,7.99-11.47,12.24-17.03,3.85-5.03,9.45-7.95,14.68-11.18,2.29-1.41,3.31-2.85,2.88-5.27-.72-4,1.52-6.39,4.63-7.78,10.18-4.55,20.26-4.42,30.05,1.37,2.32,1.37,4.7,2.63,7.11,3.84,3.51,1.76,6.84,3.62,9.31,6.9,4.49,5.97,11.53,8.87,17.04,13.67,8.46,7.38,16.18,14.94,20.48,25.86,6.39,16.24,7.66,32.66,5.04,49.7-1.37,8.94-5.31,16.89-9.5,24.59-7.6,13.97-9.36,28.2-4.91,43.49,1.35,4.65,3.28,8.98,5.02,13.42,1.46,3.73,1.76,7.69,1.84,11.62.25,11.51-.79,23.03-.05,34.55.14,2.18-.24,4.48-.8,6.61-2.47,9.29.54,18.26,1.36,27.36,1.03,11.47,1.77,22.88-.86,34.3-1.69,7.32-3.11,14.68-5.54,21.82-1.87,5.49-4.7,10.54-6.71,15.95-3.04,8.2-7.59,15.65-11.49,23.42-.53,1.07-.56,2.14-.53,3.25.31,11.19-2.36,22.16-2.64,33.23-.3,11.9-3.24,23.2-5.85,34.56-1.41,6.11-3.33,12.36-6.94,17.81-1.19,1.79-2.19,3.69-2.49,6.05-1.08,8.63-4.1,16.81-8.3,24.28-3.01,5.35-5.3,11.01-8.28,16.36-4.14,7.42-10.61,11.62-18.04,14.22-9.99,3.51-20.41,4.64-31.07,3.29-7.16-.91-13.88-3.3-20.77-5.15-8.14-2.18-15.68-5.49-22.39-10.68-1.7-1.31-3.79-1.1-4.62,1.11-2.75,7.33-4.2,14.83-.16,22.16,2.44,4.42,5.8,8.12,9.97,11.11,3.6,2.58,7.41,4.77,11.36,6.72,4.65,2.29,7.12,7.05,11.36,9.85,1.18.78,3.58.89,3.08,3.6-.45,2.42-1.62,4.11-3.69,5.14-3.05,1.52-5.57,3.47-7.55,6.35-.96,1.4-2.9,2.39-4.6,2.96-3.28,1.09-4.84,3.51-5.81,6.47-.86,2.66-2.4,4.27-5.31,4.21-3.21-.06-6.33,0-9.47,1.15-2.14.78-4.71.76-6.95-.09-11.09-4.19-20.54-10.47-26.44-21.17-.88-1.6-1.96-3.11-3.07-4.57-1.23-1.63-1.59-.13-2.15,1.23.05-4.66-1.94-5.27-5.58-4.21-3.2.93-5.23-.9-6.72-3.8-3.39-6.59-2.11-11.65,4.27-15.16,1.26-.69,1.64-1.24.96-2.56-.53-1.02-1.52-2.01-.74-3.37,1.44.84,1.28,2.68,2.3,3.69,1.03,1.01,1.31,2.64,2.82,3.32.67-1.34.03-2.61-.31-3.62-1.38-4.1-2.16-8.42-4.46-12.2-.92-1.52-1.76-1.95-3.13-.8-4.08,3.42-8.96.71-13.41,1.68-1.97.43-3.72-1.43-3.41-4.17.27-2.36.38-4.88-2.94-5.41-.91-.15-.51-.52-.39-1.2.44-2.58-1.79-5.13-4.41-5.35-3.69-.3-7.39-.47-11.07-.88-8.87-.98-9.33-4.06-7.17-12.56.27-1.06.87-2.04,1.33-3.05,1.75-3.89,1.23-4.35-2.43-6.03-3.31-1.51-6.18-3.96-9.25-5.97-4.64-3.04-8.66-7.06-15.07-6.68-3.93.23-5.69-3.31-3.84-7.19.95-2,.47-3.2-.59-4.62-7.21-9.62-13.46-19.81-19.05-30.47-3.11-5.93-7.73-11.05-11.01-16.9-3.59-6.42-5.68-13.58-7.61-20.65-.84-3.08-1.61-6.33-2.87-9.09-3.88-8.49-4.59-17.59-6.2-26.53-1.5-8.38-3.23-16.75-2.81-25.34.46-9.25.36-18.79,4.5-27.23,5.01-10.21,11-20.16,21.06-26.27,9.74-5.91,20.41-7.2,31.25-2.99,7.23,2.81,14.73,3.73,22.34,4.41,10.23.92,19.86,4.56,29.78,6.89,6.02,1.42,11.85,3.29,17.44,5.83,4.57,2.08,8.9,4.71,13.51,6.7,10.27,4.44,19.62,10.67,29.93,15.05,3.82,1.63,7.17,4.33,10.74,6.55,3.24,2.01,4.69,1.31,5.14-2.48.21-1.71.18-3.54.81-5.1,1.3-3.21-.19-5.23-1.68-8-1.74-3.23-4.22-6.21-5.14-9.87-1.51-6-5.92-7.47-11.39-8.49-9.01-1.67-18.3-2.39-26.73-6.51-1.22-.6-2.57-.71-3.94-.85-9.77-1-18.77-4.58-27.36-9.05-3.8-1.98-6.04-6.04-9.48-8.72-11.23-8.75-22.44-17.48-34.23-25.49-5.87-3.99-10.97-9.17-16.1-14.15-5-4.87-10.86-8.39-16.77-11.9-5.29-3.14-10.54-6.33-15.86-9.41-4.39-2.54-9.03-4.4-14.24-4.36-7.66.06-15.6-.98-22.77,2.12-6.55,2.84-11.76.6-17.8-1.5-7.52-2.62-14.05-6.91-21.09-10.3-3.08-1.49-3.19-3.04-.68-5.23,1.49-1.29,3.17-2.35,4.71-3.59,1.05-.84,3.42-.55,3.25-1.94-.22-1.79-1.27-3.54-2.99-4.86-4.18-3.2-8.71-5.9-12.73-9.35-2.76-2.37-4.52-5.41-6.72-8.16-.75-.94-1.18-2.1-2.91-1.24-1.91.95-4.27,2.52-6.17.71-2.16-2.06-1.62-5.15-1.04-7.76.37-1.64.62-2.73-.39-4.37-1.69-2.73-.34-6.47,2.46-7.83,1.06-.51,1.25-.8.65-1.86-2.13-3.76,1.59-6.11,2.55-9.08.46-1.43,2.76-.44,3.84.6,3.27,3.13,5.78,2.22,9.28-.28,5.6-4.01,12.05-6.61,19.27-6.24,1.48.08,2.97.15,4.45.21,5.23.22,5.52-.07,5.38-5.3-.13-4.96,1.44-6.64,5.45-6.1,2.14.29,2.67,2.07,3.53,3.46.97,1.56,1.68,2.1,3.46.88,4.97-3.42,8.8-1.43,9.36,4.74.06.64.02,1.55.58,1.61,4.43.48,6.62,4.51,10.21,6.32,2.28,1.15,3.68.61,4.23-1.54.76-2.99,2.6-2.48,4.81-2.23,2.61.29,2.81,1.79,2.81,3.85,0,3.59.43,7.21-1.1,10.62-.58,1.3-.18,2.37.4,3.52,4.09,8.08,7.66,16.4,11.14,24.75.19.45.54.95.48,1.38-1.02,7.4,4.04,10.78,9,14.75,7.51,6.01,15.52,11.49,21.93,18.8,2.62,2.98,6.52,3.9,9.88,5.54,11.8,5.77,24.04,10.67,35.71,16.69,12.57,6.48,24.76,13.74,36.58,21.55,1.04.68,1.99,1.65,3.35,1.2,7.12-2.35,14.6-3.21,21.62-6.24,8.44-3.64,17.37-6.16,26.09-9.15,5.2-1.79,10.02-4.02,14.31-7.76,3.93-3.42,7.68-7.16,12.19-9.99-2.22,4.77-5.59,8.59-9.25,12.32-7.9,8.07-18.33,11.54-28.12,16.2-4.88,2.32-9.73,4.69-14.63,6.97-5.62,2.61-11.7,3.72-17.68,5.11-.46.11-1.12.16-1.44-.09-2.87-2.17-5.96-3-9.65-3.43-7.53-.88-13.14-6.27-19.48-9.93-7.21-4.17-14.67-7.92-21.9-12.06-4.14-2.38-8.51-4.37-12.53-6.85-2.82-1.74-5.3.51-8.06-1.01-10.89-6-21.38-12.32-29.4-22.18-4.05-4.98-8-10.22-13.54-13.81-2.21-1.43-3.87-1.24-4.83,1.49-1.7,4.83-3.08,9.76-7.39,13.27-1.56,1.27.75,2.15,1.6,2.43,14.51,4.71,27.84,11.95,39.29,21.72,10.84,9.25,22.92,16.71,33.78,25.85,11.95,10.05,24.76,18.99,38.35,26.57,8.09,4.52,17.13,6.99,26.61,8.18,6.61.83,11.77-.91,17.19-3.91,3.03-1.68,5.45-3.99,8.17-5.98.73-.53,1.01-1.2.58-1.89-.69-1.1-1.53-.43-2.17.13-2.57,2.24-5.29,4.27-8.31,5.87-.75.4-1.51.77-2.24,1.19-.72.41-1.49.56-1.98-.17-.56-.81.14-1.41.72-1.83,1.62-1.18,3.38-2.17,1.16-4.45-.51-.53-.08-1.53.89-2.09,1.42-.82,2.68-1.92,4.08-2.95Zm-21.91,309.04c.18-.71.51-1.5-.18-2.07-2.49-2.04-3.58-4.93-4.85-7.72-.96-2.12-1.94-4.23-3.03-6.28-.46-.88-1.22-1.62-2.42-1.13-1.26.52-.63,1.39-.35,2.16.6,1.7.88,3.41,2.3,4.89,3.04,3.19,5.72,6.72,8.55,10.11,3.55,5.57,14.17,10.64,18.85,9.04-1.4-3.4-5.79-3.32-7.48-6.05-3.03-4.88-7.15-3.83-11.41-2.96Zm-157.17-431.72l.11.1c-.89-1.3-1.47-2.59-1.8-4.26-.69-3.48-1.14-7.26-3.84-10.44-1.42,2.5.96,3.92.52,5.72-.71-.01-.77-.63-1.11-.91-2.1-1.74-1.18-6.3-4.32-6.22-2.31.06-3.95,3.25-5.82,5.11-.5.5-1,1.16-1.88.69-1.02-.55-1.22-1.48-1.13-2.53.28-3.41-.54-5.45-4.55-3.79-.64.27-1.47.13-2.21.1-1.85-.08-3.58-.42-4.36,2.19-.36,1.21-2.61,1.88-2.78-.26-.21-2.66-1.84-2.53-3.5-2.75-1.93-.26-3.92-.09-5.77-1.02.73-.25,2.26.39,1.89-1.2-.27-1.13-5.03-1.85-5.66-.79-2.33,3.98-7.44,5.01-9.46,9.37-1.6,3.45-4.73,6.26-5.41,10.02-.91,5.04-.39,10.01,4.08,13.7.84.7,1.44,2.08,2.63,1.4,1.34-.77.85-2.22.18-3.28-2-3.12-1.09-6.34-.71-9.66,2.87,1.29,2.91,1.31,1.55,3.91-.51.99.43.92.77,1.27,1.45,1.51,2.1,3.3,1.72,5.34-.04.22-1.76.02-.46,1.07.66.53,1.77.45,1.8-.39.22-7.19,2.32-3.08,4.18-.76.12.15.55.05.69.2,2.6,2.82,6.78,3.56,9.04,7.01.79-2.45,2.27-3.19,3.33-.68,1.36,3.2,3.76,5.26,6.25,7.36.8.68,1.34,1.52,1.18,2.58-.49,3.24-1.37,6.54,2.04,8.89.23.16.22.68.28,1.05.53,3.54,3.62,1.7,5.38,2.23,1.26.38.53-1.95.8-3.03.09-.35.02-.74,0-1.11-.04-.94.21-1.88,1.18-2.06,1.49-.27.9,1.03,1.08,1.74,1.26,4.85,5.58,6.46,8.84,9.19.21-.23.42-.45.63-.68-.9-.76-1.79-1.52-2.89-2.45,1.59-.93,3.32-2.25,4.39-.55,1.58,2.52,3.31,1.21,5.1,1.32.03-1.88-2.52-1.91-2.07-3.81,5.6,1.4,11.11,2.5,16.6.23-5.13,1.17-9.62-2.01-11.68-5-1.69-2.46-6.16-1.18-5.68-5.14-.2.07-.41.14-.61.22-1.96.76-3.5.26-3.84-1.55-.3-1.64-.86-4.05.89-4.71,1.89-.71,3.35.78,3.6,3.04.18,1.6,1.67,2.12,2.83,2.68,1.78.86,3.16,1.8,3.31,4.01.05.7.42,1.73,1.65,1.52-.04-3.62-2.41-6.24-4.42-9.15,2.08-.47,2.09,1.87,3.84,1.4-.36-1.33-.69-3.84-1.09-3.85-5.87-.16-3.35-5.26-2.33-5.94,4.1-2.75,1.92-6.35,2.26-9.59.03-.28.34-.54.58-.87,2.31,1.01,3.38,3.92,7.18,3.98-1.81-1.58-2.83-2.91-4.18-3.55-3.04-1.46-3.76-3.78-3.81-6.93-.1-6.57-4.58-10.8-8.52-15.27,1.34,5.88,7.15,9.91,6.73,17.18-1.22-1.07-2.01-1.98-3.24-1.62Zm88.13,282.73c-1.43-.86-1.29-2.07-1.01-3.09,1.08-3.91.54-7.89.59-11.83.03-2.62-1-4.8-3.23-6.33-.47-.32-.69-1.15-1.45-.89-.92.32-.7,1.2-.71,1.9-.03,2.41-.01,4.82-.01,7.66-2.18-1.36-2.01-3.01-2-4.56.02-2.95-.75-6.07-2.7-7.84-1.48-1.34-2.51-2.6-3.5-4.28-3.47-5.87-7.09-11.65-9.03-18.25-.81-2.76-2.88-5.15-2.66-8.27.96,2.08,2.84,3.43,3.89,5.28,6.05,10.74,14.93,19.24,22.57,28.72,2.8,3.47,6.66,5.7,9.98,8.57,6.66,5.76,12.12,12.7,18.57,18.66,5.01,4.62,8.24,10.67,12.97,15.52,3.68,3.77,7.22,7.68,9.5,12.62,1.67,3.64,4.28,6.76,6.87,9.85,2,2.39,5.23,3.04,7.06,5.75,2.06,3.06,4.89,5.41,8.4,7.01,2.78,1.26,5.39,3.02,7.83,4.86,9.66,7.28,19.66,14.06,30.28,19.83,3.05,1.66,6.26,3.42,9.85,3.88,5.28.68,10.38,1.88,15.2,4.29,3.88,1.94,10.41,2.38,12.88,1.14-7.2-.74-13.44-4.61-20.37-6.23-.7-.16-1.53-.43-1.35-1.43.14-.78.96-.6,1.48-.85.98-.47,1.96-.37,2.86.09,7.35,3.74,15.77,3.88,23.3,7.01,1.01.42,2.07.76,3.44-.46-3.96-2.34-8.21-3.09-12.34-4.46,6.13.03,12.12,2.78,18.32,1.38-7-2.58-14.4-3.87-20.47-8.04,3.04-3.48,5.92-1.39,8.59.18,5.33,3.14,10.88,5.15,17.17,4.41,1.86-.22,3.86-.11,5.53-2.32-7.24-1.37-14.81-.21-20.87-5.98,3.42.91,6.19,2.33,9.27,2.65,2.86.29,1.78-1.22,1.19-2.41,5.26-1.06,9.8,2.39,14.93,2.06-6.89-4-14.85-4.97-22.05-8.14,1.31-1.87,2.59-1.38,4.44-.62,4.72,1.93,9.13,5.14,14.67,4.35.93-.13,2.37.26,2.51-.95.14-1.26-1.34-1.74-2.32-2-2.04-.54-4.36-.22-5.82-1.95,2.56-3.75,7.82-3.43,10.13-7.72,1.48-2.75,4.48-2.08,7.19-.92.92.39,2.95.69,3.21-.77.3-1.64-1.57-1.4-2.71-1.64-.78-.16-1.72.05-2.15-.94,1.93-2.37,4.17-3.89,7.38-3.25.89.18,2.08.98,2.47-.52.54-2.1,1.89-4.25.6-6.43-.7-1.18-1.97-.47-3.05-.25-1.69.34-3.41.55-5.13.79-10,1.37-19.65-.38-29.05-3.65-4.06-1.41-6.22-5.69-5.69-10.12,1.26-10.62,3.02-21.16,5.21-31.61,2.82-13.47,4.65-26.98,4.04-40.78-.21-4.82,0-9.66-.09-14.49-.02-1.22.25-2.81-2.11-2.49-12.06,1.62-21.38-4.3-29.91-11.61-3.09-2.65-7.03-4.96-7.99-9.58-.21-1.02-1.08-1.59-2.12-1.88-2.84-.79-3.3-3.08-3.17-5.5.09-1.71.44-3.45.96-5.09.49-1.55-.64-3.22-1.23-2.83-2.75,1.82-3.82-1.05-6.19-2.15,1.54,2.75,1.94,5.03,1.78,7.45-2.28-.21-1.68-2.65-3.5-3.3,1.55,5.6,1.98,11.33,2.56,16.97.63,6.11,5.57,10.43,5.85,16.5-1.7-1.81-2.99-3.82-4.33-5.8-.39-.58-.65-1.53-1.56-1.36-1.06.2-.85,1.32-1.21,2.04-1.89,3.81-.1,8.3-2.35,12.06-.56.93.49,1.76,1.16,2.51,5.47,6.17,10.94,12.34,15.57,19.22,1.03,1.53,1.31,2.9.83,4.78-1.64-1.29-1.36-3.14-2.33-4.44-6.65-8.83-14.8-16.33-21.81-24.85-8.09-9.82-18.03-17.78-27.21-26.51-5.87-5.59-12.94-9.66-18.79-15.29-4.41-4.24-9.06-8.4-14.44-11.31-11.43-6.17-21.74-14.12-33.06-20.41-6.53-3.63-13.18-7.51-20.55-8.85-7.62-1.38-15.11-3.54-22.93-3.97-4.58-.25-9.85-.85-13.32,1.09-4.14,2.31-8.97,4.71-11.62,9.58-1.6,2.95-3.16,5.99-5.19,8.77-3.43,4.69-5.7,10.06-6.17,15.9-1.24,15.36-.05,30.62,2.59,45.78,2.07,11.91,6.77,23.05,10.2,34.57,1.23,4.15,3.45,7.76,5.55,11.49,3.47,6.18,6.31,12.72,9.96,18.79,4.17,6.92,7.78,14.14,11.27,21.37,1.86,3.85,4.22,6.78,7.21,9.52,1.13,1.04,2.38,1.49,3.71.74,10.53-5.98,21.75-10.16,33.49-12.97,1.41-.34,1.69-1.04,1.93-2.23,1.26-6.08-.13-12.09-.47-18.11-.07-1.22-1.21-2.39-1.92-3.55-.4-.67-1.02-1.13-1.86-.84-.93.33-.7,1.2-.69,1.89.03,1.6.13,3.21.21,4.81-.95-3.13-.1-6.44-1.68-9.41-.62-1.16-.93-3.07-2.54-2.79-1.69.3-1.16,2.22-1.26,3.48-.36,4.44-.6,8.88-.89,13.33-.33,0-.65.02-.98.03-1.02-7.87.56-16.12-2.8-23.66-.24,4.68-.74,9.26-1.31,13.96Zm201.98,18.43c-1.78-6.68,5.03-10.3,5.27-16.49-1.9,2.08-3.8,4.16-5.82,6.37-.84-2.12-.23-3.49.89-4.81,4.77-5.63,7.11-12.69,11-18.83.38-.6.4-1.26-.25-1.58-.68-.33-1.13.2-1.44.78-.67,1.24-1.45,2.37-3.53,3.68,1.85-3.3,3.04-5.82,4.61-8.08.82-1.18.95-3.84,2.29-3.46,4.28,1.22,2.14-1.85,2.04-2.94-.35-3.93-.75-7.9-1.64-11.74-1.11-4.79-2-9.39,1.09-13.8.4-.56.43-1.9-.23-1.99-2.34-.3-1.11-1.7-1.19-2.84-.29-3.76.66-7.31,1.81-10.78,2.42-7.27,1.43-15.26,4.82-22.34.45-.93.69-2.3-.59-3.87-3.23,8.65-7.68,16.15-11.45,24.01.67-6.68,3.49-12.57,6.02-18.57,1.52-3.62,2.46-7.5,4.11-11.06,1.93-4.14-2.13-6.7-1.77-11.28-2.2,3.63-1.05,7.45-4.56,10.01,2.58-8.64,4.85-16.79,5.56-25.6-3.57,1.2-1.6,5.2-4.41,6.35-.33-4.88.21-9.44,1.55-14.05,1.54-5.29,3.11-10.6,3.46-16.24.14-2.27-2.24-3.14-1.79-4.69,1.24-4.25,3.52-8.05,6.34-11.48.49-.6,1.15-.97,1.96-.58.67.32.69.95.66,1.58-.11,2.71.24,5.41-.29,8.14-.73,3.75-1.89,7.62-1.58,11.33.59,7.02,1.14,14.04,1.53,21.08.79,14.12.37,28.21-1.03,42.25-.61,6.13-1.16,12.19-.24,18.89,4.57-5.7,6.61-11.96,9.37-17.89,3.71-7.96,6.3-16.26,8.89-24.58,3.44-11.03,3.01-22.41,3.13-33.78.14-13.86-2.45-27.29-6.55-40.32-3.23-10.26-7.13-20.35-11.53-30.24-2.73-6.13-4.86-12.71-6.2-19.2-1.86-9.03-4.91-17.74-6.55-26.8-.19-1.02-.09-2.56-1.79-3.14-.67,1.72-.93,3.53-1.59,5.21-2.94,7.53-7.98,14.02-9.99,22.05-3.34,13.33-9.27,25.94-11.15,39.69-.38,2.76-1.85,4.59-4.68,4.96-2.36.31-3.15,1.92-2.92,3.81.13,1.08-.36,1.56-.72,2.26-2.05,3.97-3.98,7.97-6.82,11.53-2.91,3.65-3.88,8.3-5.58,12.6-2.86,7.28-2.87,14.6-2,21.87,1.5,12.56,2.22,25.09,1.88,37.74-.33,12-.54,24.03.05,36.04.75,15.17,2.44,30.38-1.78,45.36-.33,1.18-.48,2.43-.51,3.66-.18,6.99-1.88,13.68-3.94,20.28-1.93,6.2-4.47,12.19-4.93,18.84-.36,5.28,3.1,10.11,8.45,10.63,4.17.4,8.31.94,12.36,2.12,3.2.93,6.48-1.7,9.69.16,1.86-2.85,5.13-3.95,7.53-6.13.56-.51.46-1.25-.31-1.41-2.68-.58-.59-1.49-.07-1.94,3.96-3.42,6.99-7.6,9.9-11.89.7-1.03,1.69-2.01.85-3.74-2.07,1.69-2.81,4.48-5.69,4.86Zm-116.71,82.19c-2.24,3.22-4.14,5.58-5.62,8.18-3.36,5.89-7.02,11.51-12.42,15.75-1.93,1.52-1.75,3.44-.55,4.87,3.27,3.9,5.13,8.67,8.15,12.66,2.28,3.02,3.87,7.57,9.2,6.59.66-.12,1.13.39,1.43.99,2.97,5.96,8.45,7.12,14.69,7.74-1.76-3.5-4.77-5.7-6.25-9.1,1.56.04,2.28,1.1,3.2,1.8,2.12,1.61,4.57,2.57,6.77.74,2.36-1.97.08-3.81-1.16-5.43,1.63-.96,5.48.5,3.91-2.88-2.77-5.98.84-3.43,3.27-2.87.71.17,1.48.19,2.21.15,1.57-.09,3.52.85,4.61-.49,1.03-1.26-1.72-1.87-1.35-3.4.07-.31-.29-.69-.31-1.05-.12-3.79-1.72-6.8-4.57-9.3-2.6-2.28-4.12-6.36-8.8-5.03-.37.1-.9-.35-1.35-.55-8.14-3.59-12.82-9.98-15.07-19.38Zm-71.72-235.65c-.16.93.22,1.21.69,1.42,7.19,3.08,15.13,4.77,20.57,11.13.51.59,1.79.59,1.95-.07.79-3.35,1.83-1.13,3.14-.39,2.22,1.27,3.64,4.52,6.23,4.13,2.85-.43,4.33.7,5.99,2.39.99,1.01,2.25,3.25,3.35,2.31,3.45-2.97,3.43.83,4.61,2.04,1.08,1.11,2.34,3.6,3.33,2.82,2.46-1.93,3.28.46,4.19,1.27,1.81,1.6,3.18,3.72,4.66,5.68,2.28,3.02,4.02,6.53,7.76,8.58.46-2.67-1.06-4.61-1.75-7.69,2.38,3.14,3.7,6.65,6,7.5,3.42,1.25,4.76,3.84,6.91,6.04,1.13,1.16,1.8,4.03,3.21,3.37,2.21-1.04-.87-2.81-.48-4.44.08-.33.05-.7.14-2.03,1.88,2.66,3.2,4.76,4.76,6.66,1.49,1.82,2.6,4.09,5.08,5-2.35-3.25-2.54-7.29-4.89-10.52,2.05-.53,2.32.87,3.06,1.57.58.55,1.2.97,1.94.36.83-.7.56-9.05-.38-9.63-3.43-2.1-6.92-4.11-10.39-6.16-5.71-3.36-12.08-5.45-17.72-8.82-9.39-5.61-19.68-9.33-29.19-14.69-8.59-4.84-18.71-5.18-27.96-8.19-1.51-.49-3.34-.2-4.82.35Zm124.35-45.5c-.22-1.16-.34-1.82-.47-2.48-.33.08-.94.17-.94.22.2,3.69-3.07,4.96-4.95,7.19-.43.5-.62,1.11-.17,1.68.53.68,1.08.22,1.62-.06.94-.48,2.19-1.67,2.89-.52.81,1.32-.98,2.02-1.77,2.87-.57.62-1.67.86-2.04,1.54-1.04,1.88-4.39,2.93-3.42,5.12.71,1.59.77,1.99-.29,3.13-.6.64-.87,2.1.14,2.64.97.51,1.96-.39,2.36-1.31.71-1.6,2.06-2.46,3.23-3.84.89,2.4.42,3.8-1.42,5.12-2.19,1.57-3.29,3.87-2.87,6.64,1.26-1.1,2.08-2.43,3.02-3.66.49-.63,1.13-1.67,2.06-.98.91.67.18,1.57-.28,2.29-1.12,1.74-2.36,3.41-3.34,5.22-.53.99-.55,2.28.62,2.98,1.27.77,1.63-.51,2.25-1.2.61-.68,1.07-1.61,2.29-1.57.07,1.65-.53,2.84-1.77,3.85-1.36,1.1-1.71,2.68-1.58,4.36.06.82-.24,1.88.76,2.28.94.38,1.63-.44,2.24-.99,3.58-3.25,6.42-6.85,5.22-12.14-.17-.73-.09-1.33.54-1.54,3.23-1.07,2.22-3.69,2.24-5.93,0-1.35-.63-3.14.01-3.99,3.25-4.3,3.32-9.5,4.65-14.36.41-1.52-.4-2.34-.9-3.37-.27-.55-1.28-.91-1.56-.37-1.67,3.34-5.16,4.82-7.42,7.52-.74.89-.17,1.39.7,1.99.48.33.18,1.51-.7,1.73-.8.2-.91-.5-1.01-1.15-1.08-6.67,3.44-11.95,10.37-12.14,2.75-.08,5.55.26,8.52-.45-5.43-5.42-14.94-3.64-18.85,3.68Zm-57.98,269.8c-.14-4.02-3.27-6.08-6.32-4.43-6.12,3.32-12.18,6.77-18.29,10.11-.86.47-1.46.91-1.13,1.97,1.88,6.07,2.5,12.52,5.37,18.29,1.34,2.69,2.71,2.84,4.61.25,4.26-5.8,8.57-11.57,12.44-17.63,1.68-2.63,2.32-5.92,3.31-8.57Zm-55.53-48.62c-1.4-.75-2.02-2.94-4.08-2.02-7.78,3.46-16.32,4.59-24.15,7.95-2.31.99-2.39,1.76-.54,3.26,3.44,2.78,6.99,5.43,9.79,8.92.65.82,1.25,1.81,2.66.57,6.37-5.62,12.64-11.35,18.22-17.76,1-1.14,3.27-3.32,1.32-4.58-1.65-1.07-1.56,2.19-2.75,3.1-.1.07-.16.18-.48.55Zm36.39,27.6c-1.21,3.96-1.55,7.76-1.97,11.53-.13,1.22-.46,2.38-1.75,2.45-1.31.07-2.86-.29-3.65-1.35-.73-.98.54-1.68,1.17-2.4,1.39-1.58,1.67-3.5,1.66-5.53,0-1.57-.76-2.22-2.03-1.34-1.41.98-3.55,1.37-3.64,3.74-.03.72-.62,1.87-1.21,1.51-3.48-2.08-5.8,1.03-8.57,1.83-1.63.47-3.93,1.4-4.01,3.36-.08,1.87,2.13,2.45,3.69,3.2.66.32,1.2.93,1.88,1.17,3.61,1.27,6.33,5.26,11.3,1.89,4.37-2.97,9.74-4.51,14.74-6.49,2.8-1.11,3.73-2.55,1.2-5.99.27,2.77-1.01,2.94-2.62,2.66-1.75-.3-1.74-1.87-1.67-2.88.23-3.39-1.76-5.31-4.52-7.38Zm-17.11-25.54c-1.5,1.26-1.21,2.31-1.37,3.25-.83,4.87-.51,9.9-2.15,14.65-.3.87-.08,2.33-1.39,2.24-1.51-.11-1.31-1.68-1.29-2.68.03-1.71.37-3.42.58-5.14.24-1.98.91-3.98-.51-6.68-4.92,8-10.71,14.66-15.82,22.04,3.72-1.67,6.85-1.06,9.58,1.64.69.68,1.4.93,2.34.56,5.99-2.38,11.37-5.29,11.5-12.9.01-.61.34-1.2.38-1.81.29-5.02.31-10.01-1.83-15.16Zm103.53-200.29c.22,1.7-.11,2.95,1.08,3.31,1.09.33,1.15-1.1,1.79-1.51,2.36-1.51,2.42-4.6,4.4-6.28,4.08-3.45,6.14-8.33,9.14-12.54,2.27-3.18,1-5.27-2.91-6.07-2.47-.51-2.65,1.54-3.89,2.45-7.24,5.35-6.42,14.23-9.61,20.64Zm-241.1-73.21c-2.42-2.07-4.87-1.47-7.12-1.41-7.86.21-14.45-2.86-19.93-8.09-2.58-2.47-4.66-2.2-7.06-.53-1.14.79-2.78,1.61-2.5,3.38.3,1.91,1.96,2.14,3.58,2.59,6.11,1.69,12.1,3.88,18.27,5.28,4.79,1.08,9.82,1.68,14.75-1.21Zm305.57-96.27c-2.16,15.32-.2,30.72-1.57,46.02,1.39-15.33,5.57-30.55,1.57-46.02Zm-163.97,373.19c-1.16,5.01-1.2,10.13-1.57,15.2-.06.87-.45,2.28.64,2.59.73.21,1.78-.52,2.63-.94,1.47-.73,1.56-2.11,1.41-3.5-.36-3.54-.76-7.07-1.21-10.6-.13-1.04-.04-2.3-1.92-2.75Zm135.1-401.14c2.84,8.08,7.25,14.58,9.35,22.08,1.29-7.03-3.62-18.79-9.35-22.08Zm-163.51,360.04c.24,4.48-.43,8.88-.47,13.3,0,.88-.31,2.28,1.29,2.05,1.11-.16,2.55-.12,2.59-1.98.09-4.73-.34-9.3-3.4-13.37Zm-93.35-255.62c1.33-5.61-.52-15.79-3.27-18.06.66,6.08.63,12.02,3.27,18.06Zm2.76-4.37c1.55-3.05.54-5.63-.29-8.25-.37.07-.74.13-1.11.2.47,2.68.94,5.37,1.41,8.05Zm233.57-83.5c-.74,3.14-.88,5.25.62,7.94,1.16-2.78,1.14-4.87-.62-7.94Zm-227.73,84.98c-.41,2.22-.94,4.5.46,7.62.59-3.2.68-5.4-.46-7.62Zm87.55,279.91c.08-.93-.32-1.45-1.28-1.18-1.24.35-2.22,1-2.15,2.53.04.92.17,1.82,1.37,1.66,1.75-.22,1.86-1.67,2.06-3.02Zm52.5,49.42c.37,1.02-1.01,2.94,1.46,2.88.77-.02,1.62-.38,1.14-1.31-.63-1.22-.12-3.31-1.9-3.57-1.25-.18-.59,1.24-.7,2Zm-235.93-359.84c1.15-.51,1.71-1.65,2-2.79.24-.94-.62-1.23-1.42-1.13-1.41.17-1.65,1.3-1.79,2.42-.1.79.08,1.49,1.21,1.5Z"/>
        <path class="cls-5" d="m1452.63,764.95c-3.62.75-5.52-1.61-7.9-2.76-8.12-3.92-16.63-4.01-24.91-1.3-7.86,2.58-15.71,4-23.94,3.54-3.18-.18-5.96.8-8.73,2.43-3.84,2.25-8.04,3.61-12.63,3.56-6.28-.07-12.43.18-18.7,1.83-5.2,1.36-11.05.89-16.53-.63-2.84-.78-4.36-2.78-5.1-5.37-.74-2.58,1.39-3.8,3.08-4.93,2.22-1.48,4.07-2.8,2.83-5.99-.55-1.42.83-2.77,1.33-4.14,1.02-2.78-.09-5.61.28-8.39,1.33-9.92,6.82-15.87,16.59-18.45,4.8-1.27,9.15-4.19,13.93-5.62,8.03-2.4,16.53-2.63,24.66-4.58,9.54-2.29,19.28-3.55,28.64-6.95,5.49-1.99,11.04-4.36,16.71-5.47,3.55-.7,6.38-1.68,9.47-3.51,4.06-2.4,10.94,1.61,12.97,6.89,3.54,9.23,5.6,18.81,6.57,28.63.25,2.58.5,5.15.83,7.72.34,2.7.54,4.94,4.51,5.28,5.17.45,8.83,3.7,10.67,8.84.69,1.92.1,2.91-1.47,3.49-2.64.99-5.14,2.36-8.04,2.65-8.59.85-16.96,3.34-25.11,3.24Zm-29.06-25.34c2.82.04,3.99,1.35,5.17,3.14,1.63,2.49,1.96,5.57,3.96,7.85.72.82,1.47.84,2.31.6.79-.23.88-.97.33-1.4-2.12-1.65-1.78-4.56-3.45-6.44-.51-.57-1.52-1.48-.69-2.16,1.08-.9,1.59.35,2.22,1.11,1.82,2.2,2.12,5.25,4.3,7.29.91.85,2.01,1.77,2.77.87,1.51-1.8,2.17-.58,3.07.4.75.82,1.49,1.66,2.27,2.46,1.45,1.48,3.49,1.57,4.59.26,1.5-1.78-.87-2.09-1.8-3.07-2.63-2.77-7.44-4.27-7.34-8.7.15-7.35-.36-14.88,1.68-22.02,1.22-4.28.28-8.55,1.1-12.75.13-.65.21-1.56-.75-1.85-.71-.22-1.28.26-1.51.8-.87,2.01-2.74,2.08-4.46,2.75-3.87,1.51-8.56.67-11.79,2.75-4.58,2.96-9.09,4.37-14.35,3.89-15.28-1.4-29.05,4.37-43.03,9.12-1.84.63-3.42,2.06-5.27,2.62-4.5,1.36-8.69,3.44-12.61,5.88-3.28,2.04-6.04,4.9-5.86,9.92,3.08-2.43,5.49-4.9,8.5-6.56,2.26-1.24,8.13-1.72,9.88-.75-10.15,3.99-12.96,6.12-15.19,11.58,5.14.01,9.39-3.88,15.17-3.43-4.05,2.08-6.64,5.22-10.29,6.74-2.27.95-4.51,1.9-6.53,3.37-.78.57-1.52,1.01-1.14,2,.92,2.37,1.47,5.12,3.71,6.59,5.38,3.53,11.38,2.42,17.22,1.63,1.1-.15,2.82-.92,2.58-3.05-.24-2.1-1.9-2.35-3.18-2.47-2.69-.25-5.43-.03-8.15.01-.98.02-2.23.27-2.47-1-.24-1.25.32-2.49,1.46-3.16.72-.42,1.64-.6,2.49-.67,2.73-.21,5.19-.99,7.76-2.06,2.93-1.22,6.44-2.64,9.32,1,1.32,1.67,3.44,2.18,5.77.95-.79-1.51-1.98-2.1-3.31-2.83-1.98-1.09-1.07-2.51.56-4.02.81,3.49,3.28,5.06,6.06,6.25,1.13.48,2.57,1.12,3.26-.33.66-1.36-.98-1.73-1.76-2.41-.65-.57-1.37-1.07-1.97-1.69-1.01-1.04-2.74-2.58-1.48-3.63,1.25-1.05,3.48-1.37,5.03.95,1.55,2.32,3.1,4.85,5.93,5.98.56.22,1.16.67,1.72.21.73-.59.46-1.39.02-2-1.07-1.49-2.19-2.95-3.36-4.36-.62-.75-1.71-1.52-.99-2.44.62-.8,1.8-1.39,2.83-1.6,1.32-.27,1.2,1.21,1.74,1.94,1.45,1.96,1.55,5.07,4.72,5.64.86.15,1.73.65,2.4-.16.74-.9-.12-1.53-.57-2.25-1.04-1.66-2.01-3.37-2.98-5.08-.36-.63-.84-1.35.22-1.81.7-.3,1.1.06,1.48.65.87,1.34,1.94,2.56,2.69,3.96.55,1.02,1.16,1.82,2.23,1.2.96-.56.33-1.55-.06-2.3-.56-1.1-1.27-2.13-1.72-3.27-.25-.63-.33-1.51.62-1.87.79-.3,1.49-.16,1.92.59.61,1.08,1.33,2.14,1.67,3.3.61,2.08,1.85,3.78,3.09,5.43.93,1.24,2.4,1.93,3.88.71,1.65-1.36.45-2.28-.63-3.22-.36-.31-.48-.87-.81-1.22-1.47-1.56-2.52-3.38-2.79-5.49-.08-.63.99-.52,1.56-.48,2.91.19,3.11,2.89,3.98,4.73,1.02,2.16,2.29,4.08,3.96,5.7,1.07,1.03,2.7,1.14,3.66-.04.9-1.09-.22-1.84-1.12-2.62-2.03-1.77-3.7-3.84-3.92-6.88,1.69.15,2.29,1.43,2.75,2.41,1.41,3.06,3.88,5.31,5.72,8.03.54.79,1.38,1.78,2.43.98,1.21-.92-.02-1.77-.51-2.49-1.86-2.69-3.8-5.32-5.9-8.24Zm40.95-10.42c0-1.98.02-3.95-.01-5.93,0-.49-.16-.97-.28-1.45-.82-3.23-3.82-5.22-7.61-5.1-3.54.11-3.26,3.05-3.9,5.28-.27.94-.45,1.93-.52,2.91-.36,4.58-.29,9.09,2,13.31,1.17,2.16,2.89,2.75,5.19,2.73,2.21-.02,3.28-1.11,4.15-2.99,1.32-2.84.92-5.81.99-8.75Zm-7.74-25.83c-3.87-1.45-6.37,0-7.7,3.66-3.77,10.41-3.81,21.13-3.5,32.03.2,6.98,3.67,11.02,9.23,13.8,2.77,1.38,5.97,1.61,8.69-.69,1.98-1.68,2.67-3.75,1.89-7.32-1.99,4.6-5.08,5.52-8.58,4.45-3.66-1.12-6.82-2.78-7.79-7.33-2.25-10.55.42-20.83,1.29-31.19.28-3.29,1.4-7.32,6.46-7.41Z"/>
        <path class="cls-5" d="m1330.94,380.48c.62-2.27,2.35-3.24,3.28-4.78,4.45-7.33,3.08-15.14,1.83-22.75-.93-5.65-1.38-11.5-3.91-16.84-2.64-5.58-7.43-8.96-12.09-12.59-4.5-3.5-7.26-8.22-7.59-14.03-.18-3.21-.02-6.44.06-9.66.14-5.24-2.57-8.87-6.1-12.45-3.28-3.33-6.39-3.05-10.15-1.53-2.98,1.21-8.44-.96-10.06-4.38-1.61-3.41-2.85-7.1-2.7-11.01.04-.94.44-1.9.82-2.8.34-.82.97-1.57,1.98-1.26.94.29.76,1.28.6,1.91-1.15,4.42,1.55,6.98,4.33,9.66,4.4,4.25,7.99,4.33,13.13.76,2.28-1.58,3.86-3.5,5.24-5.74.4-.65.73-1.34,1.66-1.17,1.29.25.85,1.31.9,2.09.17,3.1-1.77,4.97-3.94,6.7-2.19,1.75-3.12,2.73-.27,5.59,5.54,5.56,9.46,12.29,8.18,20.88-.79,5.29,2.48,10.59,7.04,13.11,9.21,5.09,18.08,10.72,25.06,18.79,2.55,2.95,4.42,6.28,4.13,10.42-.08,1.11.13,2.1.73,3.15,4.21,7.32,5.54,15.15,3.72,23.43-.26,1.19-.79,2.34-1.35,3.43-1,1.96-2.17,1.78-3.26.05-1.14-1.8-1.85-3.7-1.84-5.92.02-3.61-.7-7.13-1.78-10.56-.5-1.59-1.52-3.1-2.79-.76-2.86,5.26-9.35,7.95-10.1,14.78-.2,1.87-2.01,3.49-4.76,3.49Z"/>
        <path class="cls-5" d="m1320.79,278.48c3.29,1.13,6.31,2.71,9.24,5.57-4.22-.74-6.46-3.6-9.24-5.57Z"/>
        <path class="cls-5" d="m1315.67,523c1.67.57,2.99,1.47,4.52-.55.94-1.24,3-.21,3.09,1.17.37,5.99,4.53,10.22,6.67,15.51-6.03-4.29-9.47-10.77-14.28-16.14Z"/>
        <path class="cls-5" d="m1314.15,542.16c1.56,3.73,3.65,7.25,4.56,11.81-3.21-3.7-3.6-7.88-4.56-11.81Z"/>
        <path class="cls-5" d="m1334.28,676.69c3.17-.85,5.43-.56,7.29,1.96-2.73.71-4.89.06-7.29-1.96Z"/>
        <path class="cls-5" d="m1410.06,556.16c1.88,4.41-1.4,7.16-2.69,10.38-1.77,4.4-5.39,7.8-6.84,12.4-.24.75-.82,1.37-1.63,1.21-1.19-.24-.99-1.37-.84-2.13.62-3.09,3.1-5.19,4.43-7.95,2.22-4.59,4.86-8.98,7.57-13.9Z"/>
        <path class="cls-5" d="m1404.34,579.92c1.59-4.32,4.17-8.07,5.59-12.38.18-.55.55-1.24,1.28-.98.36.13.65.68.81,1.11.3.8.58,1.61.05,2.47-2.2,3.56-4.6,6.96-7.73,9.78Z"/>
        <path class="cls-5" d="m1384.16,624.03c.18,1.75-3.63,3.33-.07,5.04.54.26.19,1.4-.79,1.53-1.68.22-3.32.63-4.15-1.71-.75-2.14-.59-3.29,1.96-3.29,1.2,0,1.3-1.85,3.04-1.57Z"/>
        <path class="cls-5" d="m1396.95,615.29c1.96,6.06-4.49,6.5-6.41,10.05.96-4.09,4.6-6.43,6.41-10.05Z"/>
        <path class="cls-5" d="m1397.66,606.64c-2.29,4.97-6.39,8.72-9.15,13.37-.27-.18-.54-.35-.82-.53,3-4.48,6-8.97,9-13.45.32.2.65.4.97.61Z"/>
        <path class="cls-5" d="m1401.42,548.56c.56-3.09,3.03-5.18,4.05-8.03-.42,3.16-1.8,5.82-4.05,8.03Z"/>
        <path class="cls-5" d="m1109.48,314.69c-.6,1.35.32,2.1,1.19,2.77,1.24.95,1.04,2.05.53,3.55-3.05-2.63-5.56-5.32-6.39-9.25-.17-.82-.83-1.56-.33-2.43.11-.18.67-.28.91-.17,1,.46.84,1.41.76,2.25-.24,2.56.85,3.72,3.44,3.38,0,0-.1-.1-.1-.1Z"/>
        <path class="cls-5" d="m1098.38,326.48c2.41.65,3.54,2.65,4.49,4.64,1,2.11-.98,2.5-2.26,2.93-2.23.75-1.07-.92-1.23-1.81-.34-1.86-1.97-3.47-1-5.76Z"/>
        <path class="cls-5" d="m1109.89,332.61c-1.97-1.72-2.38-3.83-3.12-5.75-.24-.62-.53-1.61.44-1.88.82-.23,1.66-.02,2.07,1.03.77,2,.84,4.05.61,6.59Z"/>
        <path class="cls-5" d="m1095.2,317.83c-.92-1.13-2.08-2.86-.65-3.6,1.12-.58,1.82-2.87,2.93-1.9,1.37,1.21.47,3.37.61,5.28-.97-.55-.51-2.04-1.55-2-1.27.05-.09,1.81-1.34,2.22Z"/>
        <path class="cls-5" d="m1080.57,313.96c-2.44-1.64-4.94-2.93-4.33-6.67,2.7,2.13,3.63,3.57,4.33,6.67Z"/>
        <path class="cls-5" d="m1089.96,349.67c-.25,1.09.31,2.51-1.06,2.61-1.32.1-1.43-1.21-1.29-2.18.15-1.01-.22-2.7,1.12-2.79,1.7-.12.8,1.66,1.23,2.35Z"/>
        <path class="cls-5" d="m1052.7,321.96c-1.7-1.98-1.83-3.72-2.2-5.36-.17-.75-.14-1.54.92-1.62.94-.07,1.3.46,1.29,1.36-.02,1.57,0,3.14,0,5.62Z"/>
        <path class="cls-5" d="m1092.23,314c-1.63-1.57-2.2-3.16-1.17-5,.18-.32,1.08-.65,1.13-.58,1.37,1.82.22,3.59.04,5.58Z"/>
        <path class="cls-5" d="m1090.35,321.96c1.76,1.43,3.49.91,5.21.11-1.72,3.79-2.41,3.8-5.21-.11Z"/>
        <path class="cls-5" d="m1341.3,426.96c-.82,1.53,1.09,4.46-1.08,4.54-1.74.06-.54-2.93-.6-4.47-.06-1.54-1.67-4.42.84-4.53,1.74-.08.11,2.93.85,4.46Z"/>
        <path class="cls-5" d="m1460.51,728.75c0,1.72.05,3.44-.03,5.16-.03.72-.28,1.5-1.29,1.43-.65-.04-1.39-.37-1.42-.96-.21-3.99-2.54-7.8-1.07-11.93.27-.76.2-1.84,1.41-1.82,1.01.02,1.44.87,1.85,1.61,1.15,2.06.48,4.34.56,6.52Z"/>
      </g>
    </g>
  </g>
</svg>