<?xml version="1.0" encoding="UTF-8"?>
<svg id="personnage3" xmlns="http://www.w3.org/2000/svg" xmlns:xlink="http://www.w3.org/1999/xlink" viewBox="0 0 1769.04 1393.54">
  <defs>
    <style>
      .cls-1 {
        fill: url(#Dégradé_sans_nom_5);
      }

      .cls-1, .cls-2, .cls-3, .cls-4, .cls-5 {
        stroke-width: 0px;
      }

      .cls-3 {
        fill: #3b2f35;
      }

      .cls-4 {
        fill: #585254;
      }

      .cls-5 {
        fill: #aeb9b0;
      }
    </style>
    <linearGradient id="Dégradé_sans_nom_5" data-name="Dégradé sans nom 5" x1="250.41" y1="120.43" x2="299.05" y2="141.75" gradientUnits="userSpaceOnUse">
      <stop offset="0" stop-color="#beaa9a"/>
      <stop offset=".05" stop-color="#c39991"/>
      <stop offset=".2" stop-color="#d06f7b"/>
      <stop offset=".36" stop-color="#dc4d68"/>
      <stop offset=".51" stop-color="#e4325a"/>
      <stop offset=".67" stop-color="#eb1f50"/>
      <stop offset=".83" stop-color="#ee134a"/>
      <stop offset="1" stop-color="#f01048"/>
    </linearGradient>
  </defs>
  <path class="cls-5" d="m173.78,266.37c0-2.26,7.53-15.06,9.04-18.08s6.78-17.32,9.79-18.83,15.82-3.01,15.82-3.01l9.04,4.52,6.78,6.03s6.03,0,5.27,10.54c-.75,10.54,0,12.05-3.01,18.83-3.01,6.78-4.52,17.32-8.29,17.32s3.01-12.05-6.03-9.04-15.82,9.79-21.84,13.56-9.04,0-12.05,6.78-9.79-6.03-9.79-6.03l5.27-22.6Z"/>
  <path class="cls-3" d="m158.71,505.13c-1.51,6.78-2.26,32.39-3.77,38.41-1.51,6.03-5.27,30.88-7.53,37.66-2.26,6.78-6.03,33.14-7.53,36.91-1.51,3.77-1.51,18.08-3.77,19.58s-21.84,3.77-21.84,1.51-3.77-22.6-3.01-30.13-3.01-39.17-3.01-43.68,16.57.75,19.58,0,10.54-5.27,12.05-9.04,5.27-13.56,5.27-13.56c0,0,4.52-20.34,5.27-28.62s8.29-9.04,8.29-9.04Z"/>
  <path class="cls-4" d="m160.97,127.03l23.35-7.53s3.77,26.36,9.79,30.88c6.03,4.52,15.06,18.83,18.08,16.57,3.01-2.26,5.27-16.57,5.27-12.8s4.52,2.26,5.27,9.04c.75,6.78,8.29,17.32,3.77,19.58s-4.52,13.56-4.52,13.56c0,0,5.27,4.52,3.77,14.31-1.51,9.79,6.78,36.15,6.78,39.17s-1.51,33.14-3.77,39.17c-2.26,6.03-13.56,10.54-15.06,1.51s0-18.83,0-18.83c0,0,3.01,6.03,5.27,3.01s3.77-3.01,4.52-17.32c.75-14.31,0-21.84-2.26-22.6s-9.79-12.05-13.56-12.05-12.8,4.52-15.06,6.78-9.79,14.31-9.79,18.83-8.29,9.04-9.04,18.08c-.75,9.04-6.03,29.37-2.26,27.87s30.13-9.04,30.13-6.03,6.03-.75,6.03,13.56,0,55.74-.75,71.55c-.75,15.82-.75,64.77-3.01,73.81s-.75,50.46-3.01,59.5-4.52,42.93-9.04,48.2c-4.52,5.27-15.82,3.77-20.34,3.77s-7.53-11.3-6.78-20.34c.75-9.04,0-28.62-2.26-27.87s-7.53,9.79-9.79,11.3-4.52,33.14-9.79,33.14-53.48,2.26-94.9,3.01c-41.43.75-47.45,3.77-44.44-11.3,3.01-15.06,7.53-76.82,10.54-88.88,3.01-12.05,6.78-70.8,13.56-79.08,6.78-8.29,15.06-58.75,18.08-63.27,3.01-4.52,26.36-69.29,31.63-78.33,5.27-9.04,42.18-68.54,44.44-70.8s25.61-21.09,28.62-23.35,13.56-9.79,13.56-9.79l-3.01-6.03Z"/>
  <path class="cls-1" d="m247.44,71.6c-1.76.75-9.29,5.02-11.05,5.52s-10.04,9.54-11.55,11.55-6.03,16.57-6.28,19.58c-.25,3.01-2.76,26.36-1.26,32.39s.5,10.04,5.27,13.81,5.02,7.78,11.3,7.28,9.04,0,15.57-6.78c6.53-6.78,12.3-12.3,13.81-18.33,1.51-6.03,5.02-18.58,6.28-22.85s-.75-24.86-1-25.61-9.04-14.31-12.55-15.06-8.54-1.51-8.54-1.51Z"/>
  <g>
    <path class="cls-5" d="m238.15,71.35c-1.51-3.77-8.29-16.57-8.29-16.57-6.03,0-11.3,3.01-19.58,3.01s-15.82,1.51-20.34,4.52-9.79,19.58-9.79,25.61,3.01,16.57,5.27,24.1c2.26,7.53-.75,9.04-.75,13.56s-2.26,17.32,2.26,21.09c4.52,3.77,11.3,10.54,16.57,14.31s7.53,12.8,11.3,2.26,2.26-15.82,2.26-21.09-.18-33.55,1.33-40.33,6.03-13.28,9.04-17.05c3.01-3.77,12.98-9.66,12.98-9.66l-2.26-3.77Z"/>
    <g>
      <path class="cls-2" d="m161.77,519.87c-1.54,1.69-2.1,3.5-2.3,5.49-1.19,11.78-3.81,23.32-6,34.93-2.65,14.05-5.11,28.13-7.6,42.21-1.2,6.81-3.56,13.41-5.45,20.09-1.24,4.39-.99,4.94,3.22,4,6.94-1.55,12.39.04,16.45,6.16,1.22,1.84,3,3.15,5.71,1.89,1.66-.77,3.39.17,4.52,1.63.86,1.11,1.02,2.33.16,3.65-1.12,1.71-2.77,1.43-4.26,1.13-2.03-.4-3.64-.7-5.08,1.49-.82,1.24-2.88,1.04-4.47,1.03-9.1-.01-18.2.16-27.3-.12-4.67-.14-9.14,1.18-13.76,1.14-5.81-.06-7.08-2.08-4.56-7.21.75-1.53,1.61-2.99,2.37-4.52.84-1.7,1.08-3.18-1.06-4.27-1.99-1.01-1.78-3.05-1.76-4.88.05-4.75-.04-9.51.26-14.24.74-11.5-.57-22.81-2.77-34.05-.66-3.35.24-6.82-1.15-10.15-.89-2.14-2.04-3.15-4.35-3.15-5.94-.02-11.82.05-17.69,1.39-4.64,1.06-9.46.97-14.19.47-15.52-1.63-31.09-1.25-46.64-.93-5.49.11-10.89,1.53-16.47.12-4.94-1.25-7.37-3.7-7.53-8.91-.3-9.91.32-19.78,1.95-29.55,2.18-13.08,4.14-26.17,5.35-39.39.56-6.1,2.71-12.05,3.72-18.13,1.98-11.91,3.55-23.9,5.53-35.81,2.02-12.17,3.9-24.4,6.69-36.4,1.44-6.2,3.81-12.23,5.24-18.5,1.69-7.41,3.39-14.83,5.57-22.1,3.72-12.39,6.58-25.08,12.08-36.89,3.6-7.74,5.73-16.01,8.55-24.03,4.71-13.4,7.72-27.38,14.67-40.04,2.86-5.21,4.24-11.28,7.16-16.57,5.64-10.22,9.78-21.27,16.54-30.85,6.11-8.66,12.82-16.9,18.94-25.56,3.9-5.52,6.53-11.88,11.29-16.89,7.21-7.59,15.8-13.4,24.17-19.53,4.02-2.95,7.88-6.16,12.48-8.08,3.92-1.64,3.11-4.19,2.01-6.99-1.85-4.68-1.79-4.2,3.24-5.04,5.11-.86,10.31-2.02,14.84-4.85,1.11-.69,2.01-1.63,3.46-1.73,1.65-.12,1.83-1.23,1.34-2.56-1.65-4.52-3.41-9-4.94-13.57-3.91-11.68-2.24-22.62,5.26-32.35,3.92-5.08,9.26-8.77,14.69-12.2,1.18-.75,2.51-.63,3.83-.7,6.36-.34,12.79.87,19.02-2.07,3.07-1.45,6.72.36,9.22,2.33,3.15,2.48,6.86,4.76,6.9,9.91.02,3.2,4.03,5.61,6.98,4.68,8.24-2.59,15.82,2.88,19.78,9.94,6.32,11.29,5.63,23.5,3.67,35.45-2.11,12.88-6.61,25.13-14.72,35.7-3.8,4.95-7.92,9.54-14.46,10.82-3.85.75-7.56-.37-11.3-.96-2.54-.4-3.89-.37-2.74,2.87,1.4,3.95,1.83,8.17,3.38,12.12,1.38,3.54-.35,6.57-5.23,10.46-1.49-.31-.51-3.73-3.07-2.56-1.86.85-.94,2.6-.69,3.88,1.63,8.5,3.22,16.97,6.24,25.18,1.78,4.83,1.95,10.27,2.87,15.42.86,4.79,2.31,9.42,3.02,14.25,1.99,13.51,1.9,26.96.02,40.46-.62,4.42-.74,8.88-1.5,13.31-1.04,6.06-4.26,6.81-9.37,4.42-.94-.44-1.72-1.23-2.64-1.7-3.81-1.96-5.51-.8-5.82,3.41-1.29,17.06-1.7,34.16-3.43,51.21-1.2,11.9-.72,23.98-.9,35.98-.13,8.57-.37,17.16-.07,25.72.3,8.51-2.14,16.67-2.5,25.08-.33,7.76-1.47,15.49-1.68,23.25-.61,22.67-2.12,45.23-5.16,67.72-1.02,7.56-2.25,15.08-3.84,22.51-.86,4-2.46,8.07-7.07,9.75-1.97.72-3.82,1.05-5.71.06-3.86-2.02-7.65-2.23-11.67-.28-3.35,1.63-6.38-.84-6.44-5.45-.08-5.67-.43-11.32-.84-16.97-.44-6.04-.67-12.1-1.05-18.15-.07-1.15.11-2.4-1.16-3.82Zm58.95-244.06c-2.14-3.62-3.31-7.11.42-10.61.86-.81,1.13-2.36,1.43-3.63,1.44-6.25,1.12-12.6.31-18.85-.33-2.53-1.63-5.27-4.78-6.32-.6,1.59.44,3.25-.95,4.6-.98.95-.09,1.38.95,1.8,3.33,1.33,3.37,2.34.35,5.02-.32-1.73-1.45-2.99-2.99-1.87-5.06,3.69-11.69,4.12-16.51,8.25-.97.83-1.75,2.33-3.64,2,.23-2.17,1.72-2.97,3.15-3.86,5.12-3.17,9.8-6.92,14.36-10.84.94-.8,2.15-1.47.58-2.7-1.87-1.46-8.16-.89-9.99.83-3.01,2.83-6.03,5.64-9.35,8.74.07-.94-.06-1.55.17-1.93,4.05-6.53,8.34-12.75,16.81-14.08,4.65-.73,4.97-1.51,2.48-4.93,3.06.98,3.86-1.04,3.93-3.31.28-8.42,1.28-16.82.97-25.26-.03-.79-.15-1.61-1.25-1.77-1.42,1.26-.68,3.2-1.47,4.74-2.85,5.54-4.16,11.57-5.61,17.6-.97,4.03-.16,6.47,3.54,8.06-6.2-.74-12.13-.24-17.17,3.94-1.3,1.07-2.43,2.36-3.55,3.63-2.99,3.37-6.97,6.29-5.28,11.79.31,1-.3,1.78-1.22,2.22-2.08.99-2.86,3.07-3.74,4.89-4.62,9.58-8.54,19.41-8.85,30.27-.06,1.96-.54,4.03.33,5.84.67,1.39,2.48,3.24,3.37.86,1.51-4.03,4.62-6.25,7.62-8.7,3.72-3.03,6.96-6.98,11.41-8.69,2.88-1.1,5.28-2.57,7.75-4.22,2.59-1.73,4.58-4.3,7.62-5.37-.61,1.85-.5,3.56,1.71,4.04,2.82.61,3.1,2.5,2.72,4.75-.91,5.35-.32,10.35,2.88,14.93.85,1.21,1.41,2.68,3.1,2.6,1.81-.08,2.67-1.59,3.24-3.06,2.14-5.54,3.17-11.35,3.78-17.22.2-1.92.29-4.11-2.08-5.57-.96,4.13-1.78,7.95-2.76,11.73-.31,1.18-.45,3.08-1.97,3.01-1.81-.08-1.67-2.04-1.92-3.42,1.63-.07,2.18-1.16,2.56-2.54,1.4-5.05,3.18-10.02,4.2-15.14,1.35-6.77.67-13.63.18-20.93-1.27,1.22-1.19,2.2-1.19,3.08,0,8.07-1.07,15.91-3.26,23.76-1.05,3.78-2.89,7.65-2.41,11.84Zm-11.09-177.36c-2.21-.53-2.38-2.25-2.24-4.03.21-2.76-.96-4.92-2.97-6.56-3.21-2.61-5.8-1.64-7.01,2.3-.75,2.44-.83,4.96-.88,7.43-.09,4.39,3.54,9.29,7.28,10.25.55.14,1.11.14,1,.8-.08.46-.41,1.09-.79,1.24-1.57.59-3.43.78-4.23-.9-2.43-5.12-6.19-9.67-5.88-15.98.18-3.53.7-7.24-1.3-10.8-.59-1.05-1.46-3.2-1.2-4.4.69-3.18-.17-6.24,0-9.35.06-1.13-1.61-2.32-1.86-1.22-.79,3.5-3.9,5.46-4.93,8.82-.87,2.84.95,5.86-.55,8.16-3.4,5.22-.46,10.51-.44,15.66.02,3.49,2.68,7.01,4.28,10.45,2.25,4.83,3.75,9.7,3.19,15.2-.35,3.5-.1,7.14.4,10.64,1.06,7.41,6.6,12.36,10.57,18.14,1.68,2.45,3.41,5.03,6.42,6.25,2.89,1.17,5.31.19,6.02-2.86.35-1.5.86-2.73,1.99-3.72,2.3-2.01,2.38-4.39,1.48-7.15-2.05-6.29-3.15-12.69-2.49-19.39.69-7.07.95-14.19,1.56-21.27.2-2.27-.62-4.13-2.67-3.89-3.36.4-3.86-1.83-4.83-3.9,1.9.06,2.68,3.01,4.8,2.1,2.04-.87-.73-2.55.49-3.98,3.44,3.82,4.57.71,5.89-1.98,2.87-5.83,6.21-11.27,11.84-14.94,1.18-.77,2.07-1.98,3.09-3,1.65-1.65,1.38-3.67.77-5.54-.62-1.94-2.42-2.11-4.23-2.19-2.84-.13-5.47.25-7.9,1.9-1.38.93-2.97,1.55-4.79,2.48,1.92-4.81,6.12-5.78,9.76-7.73-3.83-.29-7.74-1.66-10.92,1.18-2.88,2.58-5.39,5.59-8.06,8.41.13-4.74,2.58-7.71,5.93-10.25.95-.72,3.23-1.72,2.17-3.1-1.04-1.35-3.46-1.5-5.09-.39-1.49,1.01-2.62,2.56-3.91,3.87-2.29,2.33-2.33,5.74-4.11,9.01-.7-4.84,1.27-8.12,3.68-11.21.52-.66,1.06-1.21.74-2.06-.37-.96-1.34-.91-2.02-.69-3.57,1.15-7.41,1.7-10.35,4.38-.59.54-1.14,1-1.37,1.83-2.08,7.31.56,14,7.33,18.16,3.11,1.91,5.04,4.75,5.85,8.12.43,1.77-.28,3.82.47,5.68Zm47.44,41.91c-.53-2.35-1.36-4.64.44-6.93.87-1.11.72-2.69-.59-3.49-1.31-.79-1.95.46-2.82,1.31-2.64,2.6-4.17,6.2-7.65,8.64-.05-2.09,1.11-3.21,2.04-4.02,2.44-2.13,3.68-5.07,5.61-7.52.9-1.14,1.41-2.43.24-3.51-1.16-1.08-2.66-.51-3.57.42-1.35,1.39-2.54,3-3.52,4.68-1.13,1.93-2.24,3.85-3.69,5.56-.49.58-.75,1.61-1.72.82-.63-.51-.18-1.23.21-1.75,1.42-1.86,2.94-3.65,4.28-5.56.95-1.36,2.25-2.85.03-4.33-1.94-1.29-2.96.1-3.85,1.39-1.94,2.8-3.72,5.71-5.63,8.54-.56.83-.98,2.07-2.3,1.83-1.37-.25-1.13-1.6-1.4-2.55-.18-.63-.25-1.29-.36-1.94-.36-2.14-.82-4.52-3.58-4.32-2.8.2-1.86,2.85-1.9,4.42-.14,5.25.38,10.5-1.36,15.65-1.91,5.63,2.67,11.87,8.64,11.87,5.72,0,9.34-3.8,12.57-7.73,3.23-3.94,6.45-7.88,9.95-11.57.08.75-.47,1.82.39,2.16,1.15.45,1.66-.79,1.92-1.52,2.55-7.12,5.47-14.03,7.19-21.52,2.58-11.25,2.26-22.15-.59-33.13-2.02-7.76-12.73-14.42-20.14-12.28-11.41,3.3-19.26,10.45-23.44,21.86-1.47,4-1.23,8.11-2.62,12.2-3.75,11.06-2.55,22.78-.72,34.25.36,2.26,2.87,2.28,4.33,2.85,1.45.57,1.44-1.8,1.71-2.94.38-1.64.53-3.39.46-5.08-.13-3.03-.35-6.07.38-9.04.45-1.83,1.35-3.54,3.44-3.89,2.02-.34,2.47,1.52,3.45,2.71.89,1.08,1.23,2.32,1.56,3.57.5,1.87.99,2.24,2.5.62,1.72-1.84,2.99-3.98,4.53-5.92,1.17-1.47,2.77-3.72,4.72-2.55,2.53,1.51,5.03,1.21,7.6,1.36.93.05,1.88.09,2.55.84,3.81,4.2,4.09,10.51.72,15.54ZM18.02,510.82c-1.22-.26-2.44-.52-3.6-.76.25,3.9,4.09,4.91,6.04,7.46,1,1.31,1.9,2.28.55,3.64-1.52,1.54-2.21-.5-3.22-.99-1.23-.59-1.74-2.3-3.71-2.35,1.42,3.06,3.55,5.26,5.75,7.45,1.07,1.06,1.42,2.41.44,3.94-1.35,2.11-2.16-.13-3.22-.26-1.75-.22-2.82-2.39-5.27-1.87,1.46,2.6,4.5,3.46,5.37,6.13-1.14.66-2.15.42-3.14.04-.68-.25-1.33-1.24-2.05-.36-.79.97.16,1.72.72,2.38.76.9,1.6,1.74,2.5,2.5,5.17,4.42,11.42,6.99,17.61,9.39,1.81.7,5.02,4,7.13-.32.03-.07.69.1,1.02.26,3,1.41,5.98,2.84,9.95,4.73-2.74,0-4.33.08-5.9-.02-3.27-.21-6.9,1.03-9.74-.74-6.07-3.77-13.46-4.32-19.36-8.38-.65-.44-1.68-.54-2.06.34-.38.87.43,1.49,1.15,1.79,1.45.61,2.89,1.19,3.64,2.72-1.08.94-2.55-1.2-3.5.49.25,1.09,1.1,1.63,2,1.69,3.16.2,5.89,1.19,8.08,3.58.38.41,1.2.47,1.83.57,9.22,1.45,18.55,1.6,27.82,2.46,4.95.46,9.72-1.41,14.52-1.02,19.35,1.6,38.73,1.47,58.09.85,11.6-.37,15.36-3.32,16.69-15.28,1-8.97,2.16-17.97,4.36-26.8,1.75-6.99,3.78-14.09,4.1-21.22.39-8.79,2.87-17.09,4.52-25.53,1.66-8.5,3.35-17.01,4.35-25.58,1.11-9.52,2.08-19.04,3.98-28.45,1.4-6.94,2.67-13.91,4.03-20.86,1.59-8.09.92-16.57,4.34-24.36.8-1.83.81-3.61-1.98-4.59-3.21-1.12-3.45-4.14-.25-5.31,3.85-1.41,4.39-4.51,5.76-7.36.29-.6.73-1.18.14-1.79-.58-.6-1.21-.32-1.77.07-.74.52-1.48.67-2.09-.13-.7-.92-.17-1.74.35-2.52,1.08-1.64,2.11-3.3,3.58-4.67.67-.62.89-1.81.14-2.52-.96-.9-1.59.12-2.24.75-1.04.99-2.11,1.96-3.2,2.9-.94.82-2.02,2.43-3.23.99-1.01-1.2.65-2.23,1.5-2.72,5.97-3.47,6.64-10.29,9.31-15.63,1.16-2.31,3.69-4.09,3.96-7.14-2.76.19-4.49,1.9-6.24,3.35-5.27,4.35-10.93,8.15-16.6,11.93-.81.54-1.81,1.72-2.74.72-1.17-1.26.5-1.77,1.16-2.37,4.67-4.23,9.42-8.38,14.09-12.6.56-.5,1.91-.71,1.21-2.08-1.46-.02-2.34,1.02-3.38,1.76-5.62,4.04-11.07,8.37-16.99,11.91-1.43.86-2.23,4.69-4.14,2.51-1.1-1.25,2.46-2.69,3.6-4.35,1.01-1.46,3.51-3.11,2.29-4.44-1.53-1.67-3.09,1.07-4.49,1.95-4.19,2.62-7.49,8.12-13.48,3.49,1.76-2.44,1.79-2.47-.29-4.95-2.78-3.33-5.64-6.59-8.42-9.92-1.35-1.61-2.29-3.33-2.78-5.54-2.88-13.05-1.67-26.27-1.82-39.42-.06-5.12.19-10.23,1.12-15.35,1.58-8.65,3.12-17.3,3.35-26.18.16-6.51,1.08-13.12,2.67-19.44,1.62-6.41,4.51-12.49,6.47-18.9.28.93.41,1.82.34,2.71-.1,1.2-1.42,2.93.34,3.36,1.65.4,1.22-1.93,1.98-2.87.12-.15.43-.14.81-.25-.28,2.07-1.04,3.85-2.53,5.2-1.74,1.58-2.73,3.54-3.29,5.74-1.43,5.65-1.62,11.44-1.88,17.23-.1,2.29,1.77,3.96,1.43,6.44-2.4,17.38,1.46,35.11-3.01,52.41-.74,2.88-.41,6.03-.64,9.05-.47,6.18-1.31,12.4,2.32,18.06.66,1.03.75,2.25.64,3.45-.43,4.61,1.97,8.41,3.8,12.27.92,1.93,2.64,3.25,5.5,2.64,6.99-1.49,13.02-5.36,19.73-7.51,1.83-.59,2.61-1.83,3.32-3.84,2.33-6.6,3.16-13.2,2.19-20.12-.88-6.29,1.59-12.82-1.32-19.03-.3-.63.39-1.73.62-2.61.84-3.17,1.76-6.31,2.49-9.51.26-1.14-.25-3.15-1.59-2.17-2.73,2-3.96-.6-4.42-1.62-1.03-2.27-2.63-1.37-4.7-1.13,2.05-1.76,3.55-3.03,5.03-4.33,1.91-1.69,2.46-3.42.07-5.17-.43-.32-1.66-.32-.95-1.17,2.92-3.51,1.45-7.61,1.47-11.39.05-11.06.77-22.11-.5-33.19-.58-5.08-1.55-10.33-.63-15.83,2.39,1.55,3.66,3.27,4.18,5.79,2.33,11.35,2.08,22.96,3.39,34.41.75,6.51-.27,13.29.53,19.88.31,2.57,1.73,5.02,2.79,7.47.47,1.08,1.28,1.41,2.56.72,1.64-.89,2.17-2.1,2.12-3.85-.16-6.58,2.16-11.99,7.47-16.07,1.83-1.41,2.74-3.56,3.34-5.73.76-2.72,2.44-4.63,5.17-4.59,7.94.14,11.54-4.02,12.43-11.45.3-2.47,1.08-4.87,1.65-7.3.22-.93.31-1.91-.3-2.67-2.39-2.97-3.05-6.68-4.32-10.11-1.73-4.69-4.57-8.55-8.9-10.67-4.11-2.01-6.94-5.33-10.22-8.15-5.57-4.8-10.44-10.13-12.85-17.46-1.87-5.7-4.53-11.17-7.08-16.63-1.51-3.23-2.67-3.25-4.41-.21-.74,1.29-2.31,2.43-2.86,2.22-3.91-1.45-3.24,1.46-3.65,3.46-.23,1.12-.04,2.37-.91,3.32-3.73-2.51-5.44-1.94-5.1,2.47.28,3.66-4.32,2.08-4.07,5.01.06.68-.36.15-.66.05-3.82-1.25-5.15-.31-5.73,3.75-.25,1.76.29,4.33-1.7,4.95-3.51,1.09-3.2,3.21-2.54,5.84.36,1.42.56,2.89.06,4.64-1.55-2.05-.28-4.72-2.56-6.48-.91,2.62-.99,4.93-.7,7.29.15,1.19.29,2.42-.62,3.38-.6.63-1.06,1.7-2.18,1.44-1.2-.28-1.03-1.36-1.04-2.27-.01-2.5,0-5,0-7.49-3.21,2.93-1.66,6.49-2.13,9.72-.18,1.23.36,3.21-1.31,3.27-1.87.08-1.23-1.93-1.32-3.11-.28-3.59.31-7.26-1.13-10.77-1.41,7.86-.67,15.81-1.3,24.78-1.12-4.33-.96-7.95-2.95-11.87-.64,3.96-1.48,6.91-.31,10.14.68,1.87,1.12,4.18-.91,5.85-.39.32-.86.76-1.29.76-.89,0-.81-.83-.89-1.46-.32-2.52-.3-5.11-1.72-7.85-2.42,3.75-1.76,7.54-1.85,11.21-.3-.69-.33-1.34-.36-1.99-.07-1.31.05-3.16-1.56-3.18-1.93-.03-1.27,1.93-1.28,3.1-.04,3.29.03,6.58.88,9.81.22.82.35,2.06-.89,2.27-1.23.21-1.4-1-1.64-1.84-.62-2.18.19-4.65-.98-6.92-1.35.59-1.61,1.57-1.65,2.41-.26,4.44-.5,8.88-.5,13.32,0,1.22.52,2.52-.97,2.94-1.85.52-1.38-1.46-2.06-2.23-.86-.97-.33-2.66-2.07-3.43-.7,2.29-.61,4.53-.37,6.69.36,3.21-.6,3.84-3.19,1.75-.13,4.08-1.68,7.94,1.19,11.31.29.34.24,1.01.28,1.53.11,1.39-.56,2.42-1.88,2.6-1.56.21-1.26-1.2-1.58-2.17-.85-2.61-1.62-5.3-3.71-7.88-1.1,4.22,1.21,7.43,1.31,10.94.03.89.76,2-.47,2.33-1.49.4-1.7-1.02-1.74-2-.08-1.9-.58-3.63-1.54-5.25-.26-.44-.65-.95-1.25-.66-.29.14-.65.65-.59.89.91,3.32-.91,6.62-.72,9.43.27,3.96.24,8.34,1.98,12.27.76,1.73,1.65,4.67-.95,4.96-2.93.33-4.45,3-7.09,3.21-.64-1.83.32-3.75-.66-5.46-1.02.13-1.16.78-1.37,1.39-1.77,5.37-3.35,10.77-3.42,16.51-.06,5.26-2.5,7.7-7.71,7.9-1.4.05-1.51,1.1-1.96,2.08-1.86,4.04-2.49,8.49-4.55,12.51-3.98,7.75-5.51,16.38-8.16,24.61-2.73,8.48-5.59,16.92-8.39,25.38-1.72,5.22-3.28,10.49-5.12,15.68-1.33,3.75-4.61,7.79-1.7,12.37.37.59-.18,1.66-.76,1.39-4.28-2.04-2.33,1.12-2.28,2.66.01.4.09.88-.41.86-3.88-.2-1.78,1.61-1.05,3.02.74,1.43-.31,2.42-.82,3.62-1.51,3.51-3.95,6.67-4.38,10.74,3.44-.8,6.09,1.76,5.63,5.12-1.65.56-1.42-3.87-3.33-1.49-1.3,1.61-4.08,3.42-1.68,6.32,1.66,2.01,1.71,5.11,4.67,6.34,1.28.53.76,2.07.11,3.15-.55.93-1.53,1.37-2.34.71-3.26-2.65-2.67-.26-2.9,1.9-.19,1.79-.24,3.34.71,4.92.97,1.6.52,3.07-.89,4.18-.62.49-1.43.78-1.36,1.74.27,3.59-2.69,7.7,1.78,10.67.44.29.35,1.47.42,2.24.06.71.12,1.3,1.02,1.39,2.75.26,1.62,1.83.41,2.2-3.22.98-1.47,2.66-.94,4.24.58,1.74,2.19,2.58,3.37,3.77,1.34,1.36.93,2.54.11,3.89-.94,1.56-1.97,1.03-3.33.53-1.09-.41-1.89-1.74-3.7-1.43,1.27,1.67,2.2,3.1,3.33,4.35,1.84,2.05,1.02,4.28-.75,4.95-2.43.93-2.03,2.06-1.96,3.99.05,1.44-.06,4.04-2.99,3.43-.84-.17-1.76-1.05-2.29.35-.41,1.07.49,1.61,1.01,2.36,2.06,2.97,4.84,5.12,7.72,7.2.91.65,2.05,1.7,1.07,2.97-1,1.29-2.1.42-3.06-.36-1.52-1.23-3.24-1.99-5.6-2.71.88,2.48,2.17,3.87,4.01,4.65,2.5,1.05,2.71,2.82,1.33,4.69-1.56,2.12-2.81.48-4.17-.64-1.97-1.63-3.26-4.48-6.47-4.17-.26,5.07,4.97,6.61,6.66,11.01-1.34-.28-2.21-.41-3.03-.66-.98-.3-2.12-1.15-2.81.08-.62,1.09.33,2.09,1.21,2.61,1.62.96,1.94,2.37,1.86,4.04l.07-.07Zm156.5-67.35c1.51-.74.36-2.47,1.57-3.13,2.3-1.25,8.42,1.81,8.66,4.57.47,5.3.09,10.57-2.3,15.44-.97,1.98-2.32,3.58-4.88,1.58-2.51-1.96-3.76-1.15-3.69,2,.04,1.58-.11,3.16-.12,4.74-.03,22.41-.05,44.83-.09,67.24,0,1.41.41,2.92-.81,4.12-2.62,2.57-.37,4.85.94,6.57,1.46,1.92,3.79.93,5.77-.06,6.1-3.04,10.51-7.9,13.72-13.69,1.06-1.9,5.99-4.08,1.1-7.21-.04-.02.4-.85.66-1.27.77-1.21,1.56-2.41,2.35-3.61.48-.72,1.6-1.41.71-2.34-1-1.03-1.51.25-2.18.77-1.17.92-2.39,1.78-3.59,2.66,1.98-2.84,3.49-5.86,5.51-8.53.6-.8,1.13-1.7.34-2.46-1.16-1.11-1.79.1-2.5.84-2.43,2.53-4.75,5.18-7.36,7.51-2.03,1.82-3.86,4.1-6.93,4.49.82-1.18,1.81-2.19,2.93-3,5.73-4.14,10.08-9.54,13.98-15.33.98-1.46,2.26-3.47-1.72-2.85,1.5-1.87,2.83-3.5,4.11-5.16.5-.66.82-1.53.06-2.1-.58-.44-1.23.1-1.72.56-1.9,1.78-3.8,3.56-5.69,5.34,1.07-1.95,2.58-3.49,3.97-5.14.52-.61,1.79-1.24.88-2.25-.81-.91-1.69-.12-2.4.47-2.74,2.27-5.47,4.55-8.43,7.03.27-2.04,1.7-2.93,2.64-4.11,3.56-4.43,8.68-8,7.85-14.89-3.77,1.58-5.71,5.46-9.3,7.27.31-1.05.67-2.11,1.41-2.72,3.54-2.94,6.17-6.68,9.19-10.09,2.4-2.71,4.86-4.85,2.49-9.15-.97-1.77-1.26-1.42-2.36-.83-.73.39-1.1,1.6-2.54.85,2.02-2.76,4.04-5.44,5.96-8.19.98-1.4,1.01-2.05-.78-3.58-2.61-2.24-3.38,1.62-5.3.67,1.56-4.1,4.54-7.3,6.72-11.29-2.27-.02-2.65,2.13-4.69,1.91,2.08-3.48,1.8-7.37,3.09-10.99,2.77-7.78,2.13-16.05,2.22-24.18.1-8.57-.34-17.19.43-25.7,1.3-14.2-.18-28.47,1.54-42.65.54-4.47-2.09-6.93-5.23-6.44-1.57.25-7.36,6.99-6.63,8.18,1.74,2.85-.48,4.26-1.51,6.23-1.36,2.58-3.26,5.19.79,7.53,1.23.71,1.88,2.85,2.28,4.47,1.75,7.09-.52,9.5-7.86,8.3-1.86-.31-1.86.71-2.19,1.9-1.24,4.46-.46,9.2-1.92,13.65-.49,1.49-1.39,3.13-.63,4.81,1.83.57,1.93-2.31,3.86-1.61.22,1.47.53,2.9,2.21,3.73,1.35.66,1.84,2.1,2,3.65.7,6.77-3.36,12.51-10.04,13.82-1.77.35-2.86,1.01-3.3,2.82-2.06,8.6-2.86,17.38-3.9,26.12-.1.86-.39,1.84.64,2.7Zm-8.03-313.25c-.07,1.23.51,2.67,1.15,4.13,3.26,7.44,6.87,14.76,9.58,22.39,3.52,9.93,10.03,17.13,18.95,22.1,3.48,1.94,6.8,3.68,9.46,6.75.88,1.02,2.03,3.54,3.99,2.13,2.05-1.48,4.37-3.31,3.87-6.4-.27-1.66-.78-3.43-1.71-4.8-3.99-5.86-8.96-10.87-14.73-14.97-7.53-5.35-11.67-12.5-12.65-21.68-.5-4.67-1.11-9.37-2.68-13.85-.95-2.72-3.14-3.28-5.39-2.05-2.04,1.11-4.09,1.63-6.32,1.98-2.06.32-3.8,1.26-3.51,4.26Zm-36.49,493.52c.59,1.87-.8,4.1,1.95,4.52,1.79.28,2.6-.79,3.14-2.31,2.39-6.69,3.93-13.7,4.84-20.63,1.49-11.36,5.09-22.17,7.35-33.31,1.27-6.29,2.98-12.49,4.48-18.74.33-1.38.11-2.94-1.1-3.52-1.67-.81-2.19.96-2.77,2.05-3.09,5.72-3.7,12.24-5.52,18.35-3.33,11.13-5.52,22.61-8.08,33.96-1.5,6.65-2.26,13.46-4.28,19.63Zm38.95-143.88c-1.57,18.07-2.66,36.09-.24,54.1,4.52-18.04.66-36.1.24-54.1Zm25.19,59.36c-1.11-.26-1.45-.45-1.58-.35-5.99,4.6-12.06,9.13-17.9,13.91-2.42,1.98,1.47,2.7,1.43,4.51-.03,1.07,1.21.51,1.74-.07,5.33-5.85,10.63-11.73,16.31-18Zm-38.32-18.15c-.46-.06-.91-.11-1.37-.17-1.19,8.07-2.37,16.14-3.56,24.21.48.06.95.13,1.43.19,1.82-7.98,3.66-15.96,3.5-24.23Zm66.41-344.7c-.07,1.28-1.61,1.22-2.01,2.25-.44,1.15-3.17,1.59-1.48,3.31,1.46,1.48,2.94-.05,4.05-1.1,1.25-1.17,2.44-2.59,1.86-4.49-.49-1.62-1.39-3.11-.16-4.8.29-.4-.01-1.15-.56-1.26-.42-.09-1.1.1-1.37.41-.77.88-1.54,1.83-2.04,2.88-.42.88-1.82,1.5-1.09,2.71.77,1.29,1.86-.73,2.8.09Zm-43.49,139.09c1.9-.32,1.38-2.18,2.31-3.08,2.08-1.99,4.45-3.71,6.04-6.18.37-.57.65-1.23.14-1.8-.55-.63-1.24-.33-1.74.12-2.81,2.53-5.6,5.08-8.38,7.64-.48.44-1,1.03-.36,1.67.62.63,1.37,1.13,1.99,1.63Zm-44.78,318.38c-3.44-1.73-7.62-1.25-9.7-5.41-.41-.82-1.72-.66-2.49-.01-1.27,1.07-1.8,2.65-2,4.18-.16,1.29,1.18,1.21,2.04,1.22,4.05.05,8.1.02,12.15.02Zm-7.25-69.16c-3.53-2.21-6.5-.34-9.11.84-1.95.89-.73,3.94-1.82,6.08,2.67-3.23,7.17-1.96,10.17-4.51-1.62-1.56-3.45.51-4.91-.77,1.6-1.3,3.75.06,5.67-1.64Zm59.67-433.31c-.52,4.92-.2,9.73,2.08,14.21.37.72.89,1.86,2.06,1.29,1.17-.57,1.18-1.74.65-2.72-2.17-4.01-3.54-8.29-4.79-12.78Zm-59.23,474.5c-3.23,1.72-6.27,3.51-9.03,5.75-1.24,1.01-2.29,2.18-2.83,3.69-.15.41.04,1.02.26,1.45.09.18.9.26.99.12,2.86-4.29,7.64-6.19,11.47-9.26.42-.34.54-.95.1-1.39-.24-.23-.68-.26-.96-.36Zm-12.22,1.39c3.35-3.03,7.71-4.58,11.48-7.08.79-.53.06-1.6-.91-1.32-4.27,1.21-8.54,2.51-11.34,6.35-.61.83-.76,1.7.78,2.05Zm13.71-30.44c-5.13-.8-9.46.99-13.39,3.99-.52.4-.94,1.01-.63,1.71.26.6.93.56,1.35.27,3.89-2.68,8.58-3.59,12.68-5.97Zm-2.63-5.3c-2.67-.01-5.08.41-7.16,1.97-.51.39-1.09.9-.73,1.62.36.73,1.04.51,1.7.36,2.16-.48,4.38-.78,6.49-1.41.93-.28,2.8-.2,2.33-1.93-.36-1.31-1.8-.48-2.62-.61Zm.76,15.45c-4.84-1.21-10.59.7-12.28,3.43-.25.41-.52,1.01-.4,1.41.16.52.79.68,1.27.27,3.01-2.52,6.77-3.51,11.4-5.12Zm-.35,29.6c-.33-1.49-1.28-1.32-2.17-1.03-2.51.82-4.77,2.08-6.74,3.85-.53.48-.93,1.08-.6,1.71.48.89,1.32.67,2.03.24,2.13-1.28,4.23-2.59,6.34-3.9.42-.26.8-.6,1.15-.87ZM225.91,55.24c-1.3.49-3.58-.58-3.68,1.18-.09,1.72,2.2,1.97,3.68,1.94,1.58-.03,4.3.19,4.25-1.59-.05-1.94-2.81-.88-4.26-1.54Zm-18.97,261.72c-3.06,2.46-3.7,4.2-2.76,7.64,1.58-2.39,4.22-4.19,2.76-7.64Zm-12.64-244.84c.49-3.42.88-5.81,1.16-8.22.09-.77-.04-1.69-1.09-1.74-.78-.04-1.01.72-1.16,1.35-.64,2.61-.43,5.12,1.09,8.6Zm-78.21,524.54c2.88-.29,5.25-1.63,7.35-3.48.44-.39-.11-1.04-.68-1.04-2.95.03-4.92,1.84-6.76,3.84-.05.06.03.25.09.67Z"/>
      <path class="cls-2" d="m128.8,213.54c-2.04-4.56-3.63-7.6-.8-12.09,1.79-2.84,1.97-7.67,1.31-11.74-.19-1.16-.17-2.35-.21-3.53-.04-1.3.95-1.77,1.9-2.24.49-.24,1.01-.39,1.4.15.69.99.54,2.11-.05,2.98-2.5,3.65-2.14,7.57-1.39,11.58.48,2.55-1.02,4.77-1.37,7.21-.32,2.2-1.14,4.33-.79,7.68Z"/>
      <path class="cls-2" d="m49.09,546.54c-2.99,1.27-3.97-1.25-5.56-2-4.47-2.08-8.67-4.7-13.03-7.03-1.03-.55-1.37-1.3-.97-2.23.41-.94,1.25-.76,1.97-.25,5.58,4,11.25,7.86,17.59,11.5Z"/>
      <path class="cls-2" d="m57.61,542.12c-.97,1.36-1.02,4.03-3.8,2.62-2.44-1.23-4.84-2.56-7.22-3.91-.79-.45-1.78-1.16-.75-2.14,1.55-1.46,1.13.57,1.55,1.04,2.06,2.27,4.46,1.66,6.95.97,1.36-.38,2.95-.86,3.28,1.42Z"/>
      <path class="cls-2" d="m42.9,533.2c-1.35,4.69-1.54,4.75-5.36,1.87-.94-.71-1.93-1.34-2.88-2.03-1.07-.78-.87-1.82-.51-2.85.35-1.02,1.14-1.49,2.15-1.17.93.29,2.13.14,2.54,1.49,1.04,3.4,1.08,3.39,4.06,2.68Z"/>
      <path class="cls-2" d="m105.08,232.25c1.95.8,3.78,1.61,2.06,4.24-.67,1.03.37,1.56.83,2.32,1.27,2.04-.02,3.78-1.22,5.18-.91,1.07-2.05-.35-1.78-.94,1.18-2.52-.31-4.3-1.02-6.44-.4-1.21.75-2.94,1.2-4.43l-.07.07Z"/>
      <path class="cls-2" d="m87.28,279.32c-1.14-2.59-1.39-4.86-.76-7.19.21-.78.77-1.47,1.64-1.49.94-.02,1.23.81,1.48,1.57.88,2.7-.06,4.83-2.36,7.1Z"/>
      <path class="cls-2" d="m145.17,282.11c-.05-5.11,2.22-9.2,5.62-12.8-1.88,4.27-2.6,9.04-5.62,12.8Z"/>
      <path class="cls-2" d="m105.15,232.18c-2.16.78-2.98-.22-3.52-2.26-.59-2.25.53-3.56,2.04-4.67,1.14-.84,1.79.08,1.78,1.11,0,1.96-.24,3.93-.38,5.89,0,0,.07-.07.07-.07Z"/>
      <path class="cls-2" d="m42.08,359.86c-1.53,5.04-1.1,10.73-5.73,15.28,2.13-5.47,2.87-10.75,5.73-15.28Z"/>
      <path class="cls-2" d="m121.1,213.14c.31,2.11-.56,3.72-2.19,3.82-1.66.11-1.22-1.91-1.52-3.07-.53-2.06,1.14-3.16,2.46-3.3,1.38-.14,1.01,1.76,1.25,2.54Z"/>
      <path class="cls-2" d="m37.24,426.06c-.07,1.28-.84,2.16-1.92,2.08-1.49-.1-2.73-1.01-2.84-2.68-.07-1.12.52-2.19,1.77-2.15,1.67.05,2.2,1.61,2.99,2.74Z"/>
      <path class="cls-2" d="m81.1,281.67c.02,2.43-1.41,3.58-3.17,4.21-1.14.41-1.07-.72-1.15-1.49-.24-2.25,1.46-3.39,2.93-4.23,1.08-.62,1.12.96,1.39,1.51Z"/>
      <path class="cls-2" d="m28.43,504.17c-.99-.35-2.08-.79-1.67-1.85.52-1.37.69-3.31,2.51-3.61,1.09-.18,2.06.81,1.81,2.01-.31,1.52-1.04,2.92-2.66,3.45Z"/>
      <path class="cls-2" d="m17.95,510.89c1.83.46,4.02-.37,5.41,1.64.53.77,1.36,1.42.49,2.37-.7.76-1.48.32-2.07-.22-1.32-1.22-3.21-1.89-3.77-3.86,0,0-.07.07-.07.07Z"/>
      <path class="cls-2" d="m41.58,482.15c-.69,1-.38,3.01-2.32,3.01-.89,0-1.75-1.04-1.28-2,.57-1.16.37-3.13,2.3-3.15,1.07-.01,1.42.98,1.3,2.14Z"/>
      <path class="cls-2" d="m49.47,489.35c-.23.87.57,2.48-1.24,2.16-.84-.15-2.33-.67-1.96-2.02.29-1.06,1.12-2.69,1.85-2.77,1.81-.19,1.07,1.62,1.35,2.62Z"/>
      <path class="cls-2" d="m36.53,397.35c.07.78-.34,1.25-.86,1.04-1.85-.75-2.8-2.43-3.72-4.07-.08-.15.72-1.1.89-1.04,2,.69,2.84,2.46,3.69,4.07Z"/>
      <path class="cls-2" d="m29.94,482.63c1.26.21,1.81,1.19,2.04,2.14.25,1.04-.33,2.27-1.34,2.48-1.41.29-2.02-1.06-2.16-2.17-.13-.99.52-1.91,1.45-2.45Z"/>
      <path class="cls-2" d="m44.15,514.48c1.02-.93.66-3.16,2.73-3.25.69-.03,1.21.8.84,1.43-.68,1.19-.5,3.06-2.21,3.43-.76.16-1.43-.51-1.37-1.62Z"/>
      <path class="cls-2" d="m98.28,253.89c-1.35-2.12-2.26-3.66-1.4-5.54.24-.53.92-.68,1.3-.26,1.51,1.64,1.35,3.4.09,5.8Z"/>
      <path class="cls-2" d="m34.66,475.98c1.51.22,1.69.96,1.5,1.78-.31,1.34-.37,2.98-2.24,3.15-.64.06-1.46-.55-1.21-1.2.52-1.37,1.35-2.62,1.95-3.73Z"/>
      <path class="cls-2" d="m125.1,193.17c-.86-1.65-2.02-3.25-.56-5,.14-.17.92-.13,1.04.04,1.09,1.69.75,3.35-.48,4.95Z"/>
      <path class="cls-2" d="m167.07,333.16c-.89,2.34-2.6,3.74-4.78,4.61.68-2.58,3.1-3.17,4.78-4.61Z"/>
      <path class="cls-2" d="m43.82,473.21c.96.26,1.78.82,1.78,1.79,0,1.03-.48,2.11-1.65,2.31-1.15.19-1.75-.84-1.61-1.69.14-.87.12-2.16,1.48-2.4Z"/>
      <path class="cls-2" d="m31.18,436.53c-.07.78-.17,1.85-1.11,1.7-1.23-.2-1.75-1.46-2-2.58-.19-.88.39-1.5,1.37-1.33,1.18.21,1.76.99,1.73,2.21Z"/>
      <path class="cls-2" d="m39.87,506.94c-.85,1.04-.98,2.8-2.53,3.42-.56.22-.84-.55-.72-1.07.33-1.41.95-2.71,2.29-3.4.48-.25.9.28.96,1.05Z"/>
      <path class="cls-2" d="m94.47,255.1c0,.78-.24,1.64-.98,1.41-1.25-.39-1.48-1.67-1.53-2.82-.03-.69.43-1.39,1.2-1.11,1.16.41,1.14,1.6,1.31,2.53Z"/>
      <path class="cls-2" d="m44.74,494.11c.84.32,1.88.5,1.88,1.67,0,1.16-.74,1.57-1.83,1.45-1.06-.11-1.76-.61-1.58-1.76.13-.79.46-1.53,1.53-1.36Z"/>
      <path class="cls-2" d="m109.83,220.24c1.23.59,1.24,1.82,1.36,2.96.07.68-.15,1.55-.96,1.28-1.26-.43-1.36-1.81-1.61-2.93-.17-.77.38-1.18,1.21-1.31Z"/>
      <path class="cls-2" d="m68.91,290.39c.91,2.36.7,3.63-1.04,4.26-.71.26-1.51-.23-1.59-.8-.24-1.79,1.75-1.78,2.62-3.46Z"/>
      <path class="cls-2" d="m40.68,470.6c-.04,1.18-.54,2.01-1.82,2.09-.68.04-1.51-.26-1.31-1.01.3-1.07.91-2.23,2.11-2.48.69-.14.95.71,1.01,1.41Z"/>
      <path class="cls-2" d="m139.16,174.18c-1.69-1.41-1.33-3.09-.96-5.55,1.6,2.12,1.35,3.82.96,5.55Z"/>
      <path class="cls-2" d="m149.44,160.6c1.3,1.2,1.6,2.55.75,4.3-1.99-1.3-.92-2.88-.75-4.3Z"/>
      <path class="cls-2" d="m179.87,539.2c3.53-3.09,7.06-6.18,10.59-9.27-2.59,4.17-6.14,7.24-10.59,9.27Z"/>
      <path class="cls-2" d="m239.1,105.96c-.13-2.33.25-5.07,1.86-7.71,1.16-1.9,2.45-2.53,4.5-2.14,2.27.43,3.61,1.95,3.65,4.04.05,3.13.19,6.34-.91,9.38-.96,2.64-2.47,4.81-5.72,4.34-3.34-.49-3.47-3.08-3.38-5.72.02-.53,0-1.05,0-2.19Z"/>
      <path class="cls-2" d="m264.29,104.84c-.12,2.08-.14,4.28-.8,6.48-.66,2.21-1.93,3.49-4.18,3.36-2.37-.14-3.99-1.6-4.22-3.97-.4-4.18,1.18-8.03,2.78-11.75.46-1.08,1.98-2.22,3.66-1.78,1.8.47,2.43,1.86,2.54,3.57.08,1.31.14,2.63.22,4.1Z"/>
      <path class="cls-2" d="m205.13,97.92c-1.73-2.25-1.02-4.77-2.92-6.12-.69-.49-1.81-1.18-.6-2.08.78-.57,1.43.36,1.85.98,1.33,1.94,2.4,3.98,1.67,7.22Z"/>
      <path class="cls-2" d="m218.13,248.29c.06,1.85-1.23,2.75-2.54,3.69-.89.64-1.6,1.59-1.14,2.69.53,1.28,1.53.43,2.34.18,1-.3,1.81-.1,2.35.85.5.89-.09,1.5-.62,2.07-1.42,1.53-2.3,3.54-4.21,4.62-1.13-3.12-3.42-1.98-5.4-1.31-1.33.45-2.58,1.9-3.38-.56-.02-.06-.94.18-1.44.28l-.12-.13c4.77-4.06,10.02-7.57,14.15-12.37Z"/>
      <path class="cls-2" d="m204.1,260.79c-1.43,2.67-3.97,2.95-6.67,3.22,1.42-2.86,3.99-3.11,6.55-3.35,0,0,.12.13.12.13Z"/>
    </g>
  </g>
</svg>