<?xml version="1.0" encoding="UTF-8"?>
<svg id="personnage2" xmlns="http://www.w3.org/2000/svg" xmlns:xlink="http://www.w3.org/1999/xlink" viewBox="0 0 1849.91 1450.57">
  <defs>
    <style>
      .cls-1 {
        fill: url(#Dégradé_sans_nom_6);
      }

      .cls-1, .cls-2, .cls-3, .cls-4, .cls-5 {
        stroke-width: 0px;
      }

      .cls-3 {
        fill: #3b2f35;
      }

      .cls-4 {
        fill: #585254;
      }

      .cls-5 {
        fill: #aeb9b0;
      }
    </style>
    <linearGradient id="Dégradé_sans_nom_6" data-name="Dégradé sans nom 6" x1="1560.39" y1="441.42" x2="1428.41" y2="589.41" gradientUnits="userSpaceOnUse">
      <stop offset="0" stop-color="#beaa9a"/>
      <stop offset=".05" stop-color="#c39991"/>
      <stop offset=".2" stop-color="#d06f7b"/>
      <stop offset=".36" stop-color="#dc4d68"/>
      <stop offset=".51" stop-color="#e4325a"/>
      <stop offset=".67" stop-color="#eb1f50"/>
      <stop offset=".83" stop-color="#ee134a"/>
      <stop offset="1" stop-color="#f01048"/>
    </linearGradient>
  </defs>
  <g>
    <path class="cls-5" d="m1524.48,415.61c-.51-1.52-13.65-19.21-8.09-25.78,5.56-6.57,36.39-34.37,36.39-34.37,0,0,65.21,5.05,72.79,10.11,7.58,5.05,25.78,55.6,25.78,59.14s-1.52,15.67-.51,21.74c1.01,6.07,9.1,17.19,15.67,24.26s16.18,13.14,16.18,18.7-2.02,15.67-8.09,20.22c-6.07,4.55-4.04,9.1-11.12,15.67-7.08,6.57-10.61,13.65-16.68,14.15-6.07.51-18.2-.51-21.23-5.05-3.03-4.55-16.68-23.25-18.7-23.76s2.02-5.56,2.53-9.1c.51-3.54-2.02-8.59-2.02-10.61s-5.05-.51-8.09,2.02-9.1,11.12-9.1,4.04,7.58-54.59,2.02-74.3c-5.56-19.71-67.73-7.08-67.73-7.08Z"/>
    <path class="cls-5" d="m1582.1,543.5c-3.29,3.84-8.59,19.21-10.11,25.78s-4.04,32.35-4.04,34.88,0,36.9.51,43.47c.51,6.57,1.01,22.75,4.55,28.31,3.54,5.56,14.15,14.15,19.71,4.04,5.56-10.11,7.08-11.63,7.08-22.75s3.03-18.2-1.52-31.34c-4.55-13.14-6.57-26.28-6.57-26.28,0,0,8.09-7.58,10.11-10.61s7.58-6.57,10.11-9.1,7.08-1.01,6.07-11.63c-1.01-10.61-1.52-18.7-6.07-20.22s-4.55-3.54-8.09-5.05c-3.54-1.52-18.7-3.03-21.74.51Z"/>
    <path class="cls-5" d="m1649.33,547.04c-1.92,1.92-8.59,13.14-8.59,13.14,0,0-3.54,10.11-4.55,15.16s-7.58,12.64-.51,18.7c7.08,6.07,11.63,16.18,24.77,22.75,13.14,6.57,49.54,35.38,65.21,47.01,15.67,11.63,28.81,22.75,34.37,25.78,5.56,3.03,13.65,5.56,19.71,9.1,6.07,3.54,18.7,11.12,24.26,6.07,5.56-5.05,11.63-5.56,4.04-26.79-7.58-21.23-17.69-59.14-20.22-66.22-2.53-7.08-12.64-27.3-12.64-27.3,0,0-11.12-.51-20.22,1.52-9.1,2.02-16.68,6.07-19.71,9.6-3.03,3.54-4.55,8.59-9.6,9.1-5.05.51-26.28-14.66-31.34-15.67-5.05-1.01-14.15-7.08-17.69-13.65s-11.12-20.72-15.16-23.76c-4.04-3.03-9.1-7.58-12.13-4.55Z"/>
    <path class="cls-4" d="m1681.93,494.97s-15.16,28.81-21.99,34.88c-6.82,6.07-19.71,20.47-25.78,11.37-6.07-9.1-15.16-9.86-17.44-16.68-2.27-6.82-12.13-18.96-13.65-16.68-1.52,2.27-9.86,3.03-11.37,6.82s-4.55,13.65-5.31,19.71c-.76,6.07,7.58,8.34,7.58,8.34,6.82-2.27,14.66,1.52,17.94,5.31,3.29,3.79,4.8,4.55,4.8,12.89s6.07,9.86-.76,16.68c-6.82,6.82-14.41-3.79-16.68,14.41-2.27,18.2,6.82,53.07,7.58,68.24.76,15.16,13.65,59.14,19.71,63.69,6.07,4.55,15.92,18.96,28.05,18.96s62.17,11.37,73.55,6.82c11.37-4.55,32.6-8.34,35.64-17.44,3.03-9.1,6.07-9.1,2.27-20.47-3.79-11.37-21.06-34.25-28.73-39.87-7.67-5.62-32.69-23.06-38.75-30.64-6.07-7.58-28.05-28.81-37.15-32.6-9.1-3.79-26.54-17.44-26.54-19.71s1.26-13.65,1.26-13.65l7.08-20.47,8.34-4.55,12.89,3.03,12.13,21.99,6.82,5.31s18.2,12.13,21.99,12.13,15.42,13.9,20.22,11.88c4.8-2.02,8.59-9.6,16.18-12.64s23.5-4.55,28.05-6.07c4.55-1.52,11.37-5.31,7.58-9.86-3.79-4.55-33.36-37.91-37.91-40.94-4.55-3.03-38.67-34.12-38.67-34.12l-18.2-11.63-.76,5.56Z"/>
    <path class="cls-3" d="m1619,723.2c0,3.79,5.31,41.7,6.82,51.56,1.52,9.86,12.13,30.33,11.37,34.12s-3.79,32.6-5.31,40.19c-1.52,7.58-7.58,41.7-8.34,53.07-.76,11.37.76,61.42.76,65.96s4.55,36.39,3.79,47.77c-.76,11.37-2.27,34.88-2.27,34.88l-3.79,18.2s13.65,23.5,10.61,31.84c-3.03,8.34-3.79,23.5-13.65,26.54-9.86,3.03-28.81,10.61-28.81,15.16s10.61,12.13,25.02,6.07c14.41-6.07,15.92-12.89,25.02-10.61,9.1,2.27,17.44,14.41,22.75,10.61,5.31-3.79,3.79-32.6,3.79-32.6,0,0,10.61-45.49,11.37-50.04.76-4.55-3.79-38.67-3.03-49.28.76-10.61,6.82-47.01,6.82-47.01,0,0,12.89,18.2,14.41,22.75s15.92,24.26,18.2,24.26,12.13,12.13,14.41,18.2c2.27,6.07,12.13,24.26,11.37,32.6-.76,8.34-13.65,18.2-18.96,16.68s-16.68-.76-16.68,3.03,9.1,11.37,15.16,10.61c6.07-.76,25.78-4.55,30.33-8.34,4.55-3.79,6.82-10.61,6.82-18.96s2.27-15.16,7.58-25.78c5.31-10.61,12.89-8.34,3.03-24.26-9.86-15.92-18.2-28.05-18.2-28.05,0,0,.76-3.03,0-12.13-.76-9.1-9.1-13.65-12.13-21.99-3.03-8.34-12.89-38.67-14.41-43.22-1.52-4.55-9.86-22.75-10.61-26.54s21.99-44.73,25.02-54.59,21.99-67.48,21.99-67.48l4.55-34.12s-21.23,10.61-30.33,12.13c-9.1,1.52-39.43,5.31-43.22,6.07-3.79.76-31.84-7.58-31.84-7.58l-31.84-18.96-7.58-.76Z"/>
    <path class="cls-1" d="m1518.92,405.5c-1.52,0,3.03.51,2.02,8.09-1.01,7.58-4.04,36.9,1.01,40.94,5.05,4.04,9.6,27.8,16.18,30.83,6.57,3.03,11.63,13.65,25.27,12.13s17.69-.51,24.77-2.02c7.08-1.52,14.66-11.12,17.19-19.21,2.53-8.09,5.05-25.27,4.55-31.34-.51-6.07-6.57-25.78-10.61-40.44-4.04-14.66-30.83-25.78-37.91-28.31-7.08-2.53-22.15,2.66-24.26,4.04-13.14,8.59-14.66,18.2-14.66,18.2"/>
  </g>
  <g>
    <path class="cls-2" d="m1534.29,387.03c-9.81,6.36-9.45,17.52-12.45,27.02-3.12,9.9-2.14,20.15.07,29.92,2.8,12.35,5.81,24.92,15.42,34.35,3.94,3.87,6.46,9.13,11.15,12.22,10.41,6.83,21.03,7.93,32.86,2.66,9.83-4.38,11.65-13.09,13.79-21.52,2.14-8.41,3.14-17.09,3.79-25.88.85-11.56-2.3-21.51-7.27-31.44-3.92-7.83-7.78-15.71-13.87-22.08-9.76-10.22-22.18-11.72-35.41-10.08,8.08-3.89,16.14-3.91,24.37-.27,13.82,6.12,23.99,15.43,28.97,30.2,3.68,10.92,9.7,21.11,8.76,33.3-.23,2.98.21,6-.3,9.05-.42,2.52-.88,5.23.98,9.15,1.39-4.62,3.08-7.74,3.36-11.46.28-3.7-.77-7.6,1.47-11.87,1.9,5.47,2.07,10.67.73,14.96-1.3,4.15,2.11,8.98-2.34,12.73-.69.59-.21,5.1-1.16,7.47-1.05,2.61-.93,4.46.41,7.01,1.58,3,4.35,5.79,3.55,9.74-.53,2.61,0,5.12,1.28,7.34,1.39,2.42.89,4.1-1.31,5.53-2.72,1.76-2.49,3.94-1.1,6.5,4.58,8.49,11.9,14.56,18.72,20.99,7.52,7.09,17.39,7.07,25.39.77,5.26-4.14,8.99-9.33,11.79-15.37,3.49-7.52,9.78-13.18,13.82-20.36.91-1.62,1.93-3.21.31-5.07-2.62-3-5.74-5.22-9.93-7.28.47,2.25.67,3.73,1.11,5.13.34,1.09.53,2.06-.75,2.46-1.03.32-1.52-.57-1.77-1.36-1-3.2-3.3-6.17-2.75-9.61.52-3.27-1.17-4.55-3.49-5.9-1.4-.81-3-1.23-3.94-2.94-1.24-2.24-2.03-1.74-3.22.55-2.2,4.24-2.39,9.37-6.22,12.98,2.96-7.94,5.65-15.89,5.31-24.92-2.89,1.41-2.51,4.56-4.95,5.69-.45-2.21-.36-5.06-3.84-3.27l.07.07c.16-2.13,2.11-4.07.95-6.96-4.67,5.36-6.71,11.63-10.36,16.95,3.6-9.86,7.69-19.45,7.14-30.58-.98,3.38-2.31,4.08-4.73,1.6-2.41-2.47-3.94-1.08-5.06,1.48-.46,1.04-.09,2.55-1.95,3.54.36-1.36.59-2.15.78-2.95.43-1.82,1.07-4.24-.66-5.09-1.79-.88-3.14,1.22-4.27,2.68-1.27,1.64-2.91,2.85-4.85,3.53-2.2.77-4.15.27-4.88-2.12-.72-2.34.84-2.92,2.83-2.9,1.08,0,1.92-.58,2.53-1.46,4.2-5.99,7.86-12.26,8.1-19.81.1-3.27.23-6.59-3.13-9.03-5.85-4.24-14.41-2.26-17.77,4.06-1.79,3.38-2.77,6.74-2.14,12.01-1.75-3.6-2.77-5.71-3.8-7.83-4.25-8.74-6.07-18.67-12.5-26.32-9.78-11.64-21.76-19.59-37.47-19.82-8.33-.12-15.99,2.86-23.53,6.46-6.63,3.18-10.88,7.69-12.14,14.93-.22,1.26.16,2.75-2.31,3.72.13-4.06-.58-7.61,1.24-11.39,2.67-5.55,7.3-9.7,10.14-15.02,3.48-6.53,8.6-11.02,15.17-13.89,7.22-3.15,14.56-6.03,21.93-8.81,2.64-1,4.73-3.19,7.86-3.17,11.15.08,22.29-.03,33.44.03,1.3,0,2.67.44,3.87.98,6.88,3.08,13.75,6.29,19.52,11.23,16.35,14,28.7,29.94,25.32,53.39-1.36,9.42,2.27,16.32,10.95,20.54,3.57,1.74,4.55,4.1,2.54,8.17-2.38,4.83-5.82,6.23-10.65,5.43-2.75-.46-3.39.42-2.31,2.9,4.32,9.87,10.18,19.35,18.81,25.17,9.24,6.24,17.24,13.82,25.34,21.05,14.13,12.62,28.18,25.4,41.8,38.63,14.54,14.12,29.68,27.58,40.12,45.27,1.5,2.54,3.32,5.06,1.6,8.35-1.15,2.2-.13,4.28.97,6.23,11.78,20.92,17.44,44.06,22.84,67.05,2.81,11.95,4.41,24.55,3.73,37.15-.38,7.02-1.4,8.37-8.53,8.43-7.67.06-14.95-1.52-22-4.66-7.18-3.2-8.34-2.43-7.88,5.32,1.04,17.39,1.73,34.76-2.37,51.86-1.67,6.97-3.65,13.93-6.28,20.59-3.26,8.25-7,16.32-10.36,24.54-2.73,6.67-4.51,13.68-7.94,20.14-3.47,6.53-8,12.36-11.21,19.06-5.35,11.18-9.36,23.03-16.08,33.51-3.09,4.82-3.4,9.05-.51,14.09,2.15,3.75,3.39,8.05,4.78,12.18,4.98,14.79,9.53,29.74,14.85,44.4,3.94,10.86,11.5,20.12,14.61,31.45.83,3.04,1.51,5.77-.09,8.77-1.6,2.99-.63,5.42,2.15,7.35,4.06,2.83,7.34,6.43,10.04,10.58,2.28,3.5,5.47,6.41,7.76,9.73,2.47,3.58,6.34,8.12,4.19,12.76-2.8,6.05-4.21,12.85-8.54,18.13-6.19,7.53-7.87,15.96-5.82,25.37,1.31,6-3,14.75-8.71,17.26-8.78,3.86-17.68,7.45-27.28,8.8-8.65,1.22-15.7-2.36-22.16-7.6-1.45-1.17-2.39-2.77-1.54-4.44,1.9-3.72,3.74-7.92,8.86-7.84,4.25.07,8.16-1.35,11.58-3.22,8.83-4.82,12.28-10.3,8.75-19.7-1.77-4.72-2.99-9.67-5.05-14.25-3.95-8.82-6.75-18.33-14.85-24.76-4.93-3.91-7.89-9.18-10.68-14.93-3.86-7.96-6.76-16.51-12.26-23.64-.58-.75-.62-2.09-1.92-2.07-1.27.01-1.65,1.19-1.89,2.08-1.33,5.01-3.76,9.66-3.58,15.16.43,12.83.3,25.68.54,38.52.21,11.11,1.14,22.17,3.43,33.06.61,2.93,1.02,5.97-1.25,8.14-4.72,4.51-4.98,10.35-5.69,16.2-.9,7.35.07,14.9-2.4,22.09-2.03,5.91-.83,11.81,1.26,17.33,1.48,3.89,2.35,7.72,2.28,11.78-.05,2.85-.03,6.87-3.27,7.14-6.32.52-12.56,6.81-18.57,2.4-6.06-4.45-11.6-5.3-18.23-2.72-4.86,1.88-8.9,5.86-14.14,6.47-10.98,1.29-21.95-.17-32.62-2.52-7.97-1.76-8.49-6.42-4.77-12.94,1.41-2.47,3.78-4.64,6.42-5.58,9.98-3.56,19.04-9.1,28.81-13.04,4.25-1.71,5.62-3.87,5.07-8.74-1.2-10.84-1.25-21.79-3.78-32.51-.75-3.17-.43-6.28-4.47-7.45-2.16-.63-2.8-2.81-2.76-4.96.07-3.78.6-7.46,3.8-10.02,2.73-2.18,3.54-4.82,3.53-8.35-.11-29.2.59-58.41-2.87-87.51-.79-6.68,0-13.53-.53-20.26-1.71-21.83-.59-43.41,4.2-64.83,3.68-16.45,6.21-33.12,7.22-49.96.45-7.43.7-14.82-1.46-22.27-6.78-23.38-8.84-47.65-12.59-71.6-.46-2.95-.4-6.15.21-9.07.6-2.86.16-5.41-.74-7.92-4.28-11.87-8.71-23.69-13.06-35.53-1-2.73-2.45-2.99-4.38-.89-.79.86-1.42,1.91-2.31,2.65-4.36,3.61-8.52,8.76-14.87,6.8-6.97-2.15-12.38-6.49-13.92-14.51-.91-4.74-.18-9.39-.42-14.06-1.2-23.11-2.31-46.22-.44-69.33.31-3.86.44-7.61.27-11.51-.6-13.63,3.29-25.9,12.95-35.91,1.49-1.55,2.8-3.25,2.74-5.22-.11-4.2,1.37-8.02,2.6-11.8,2.54-7.8,4.78-16.05,14.32-18.68,1.85-.51,2.87-2.34,3.24-4.26.74-3.83-.04-7.77,1.85-12.51-7.78,4-13.59,8.58-20.41,11.42-3,1.25-6.4,2.1-8.8.82-5-2.69-10.12-1.54-15.18-1.93-5.33-.4-10.1-2.2-14.49-5.23-13.07-8.99-18.8-22.91-24.48-36.78-1.3-3.18-2.8-6.28-3.35-9.95-1.93-12.87-.19-25.63.26-38.42.56-15.66,8.99-25.6,22.98-27.97-2.73,1.63-5.51,3.17-8.17,4.89Zm168.44,543.98c-2.09,2.95-3.04,5.5-2.28,8.72,2.44.22,1.82-2.28,3.07-2.98-.1,4.36,4.04,8.45.73,13.06-2.69-.75-2.89-3.61-4.16-5.7-3.5,2,.25,6.55-3.86,8.85-1.72.97,4.13,4.95,2.48,8.85-2.39-.22-2.02-2.67-3.4-3.55-1.12-.72-2.1-2.1-3.53-1.28-1.48.85-.92,2.37-.4,3.62,1.27,3.03,2.61,6.03,3.45,9.37-1.41-1.73-2.9-3.41-4.2-5.22-.75-1.04-1.59-2.12-2.81-1.49-1.51.78-1.24,2.57-.45,3.55,3.13,3.89,4.69,8.52,6.62,12.99,3.12,7.21,7.29,13.84,9.81,21.47,2.91,8.81,10.15,15.91,23.18,9.15,8.6-4.46,13.77-12.04,20.23-18.49,1.36-1.36,2.13-3.45,1.88-5.13-1.21-8.12-.98-16.83-7.87-23.01-3.02-2.71-4.62-6.56-5.46-10.05-2.78-11.5-9.94-20.9-14.1-31.69-1.81-4.69-3.84-9.29-5.63-13.99-.61-1.6-1.22-3.06-2.7-4.05-2.52,3.67-2.21,8.56-6.05,11.34-.62.45-1.04,2.5-.72,2.75,5.34,4.2.14,8.76.3,13.08.06,1.67,1.45,6.11-3.4,5.67.01-1.63.88-3.3-.71-5.84Zm35.64-175.66c.42-1.72,4.04-2.13,2.47-4.28-1.47-2.01-3.69-.2-5.49.54-2.03.84-3.98,2.59-5.58-.89-.45-.97-2.75-1.18-4.24-.4-1.4.73-1.61,2.13-1.4,3.52.2,1.33.73,2.61.91,3.93.2,1.48,1.81,3.46-.67,4.29-2.04.68-2.93-1.22-3.81-2.63-.53-.85-1.07-1.8-1.2-2.76-.41-3.13-1.23-5.85-5.18-5.22-3.76.6-5.19,3.37-5.61,6.85-.04.33-.03.68.01,1.01.29,2.2,1.88,5.33-1.84,5.58-3.61.24-4.19-3.28-3.88-5.87.66-5.5-2.2-6.34-6.59-6.01-2.18.17-4.39.02-6.58.05-6.26.1-8.02,1.64-8.79,7.79-.17,1.35-.02,2.99-1.81,3.1-1.84.11-2.96-1.46-2.76-2.98,1.46-11.27-7.91-11.15-14.47-13.86-3.19-1.32-3.58,1.44-4.12,3.54-.31,1.23.21,3.12-1.78,3.02-2.07-.11-2.38-2.1-1.82-3.45,2.19-5.26-.72-7.33-4.99-8.84-2.06-.73-4.06-1.6-6.07-2.45-5.86-2.49-5.88-2.5-6.83,4.01-.15,1.04-.12,2.14-1.36,2.37-1.23.23-1.73-.83-2.24-1.69-1.49-2.53-.77-5.26-.67-7.93.07-1.91.21-3.93-2.56-3.98-2.35-.04-3.4,1.28-3.23,3.53.15,1.99-.29,3.58-1.99,4.85-1.18.88-1.21,2.42-1.08,3.76,1.35,14.08,3.52,28.03,7.28,41.69.35,1.26,1.09,2.22,2.5,1.98,1.99-.34,2.81-1.93,2.8-3.71-.03-5.06-.23-10.13-.4-15.19-.05-1.63-.9-3.28.15-4.89,1.88-.21,1.78,1.22,1.92,2.31,2.77,20.55,2.22,41-.42,61.57-1.29,10-2.33,20.07-3.75,30.06-1.61,11.32-2.52,22.79-6.29,33.74-.97,2.83-1.51,5.96-1.49,8.95.18,29.02-.53,58.05,3.15,86.99,2.35,18.45.47,37.13.7,55.7.02,1.78-.95,3.18-1.82,4.64-2.66,4.43-2.79,9.33-2.19,14.24.28,2.33,1.18,4.85,3.54,5.85,5.47,2.32,10.41,5.55,16.97,5.65,8.64.13,16.63-1.66,24.54-4.57,2.16-.79,3.56-2.36,4.2-4.7.82-2.98,1.14-6.03.75-9.03-.68-5.25-.62-10.46.18-15.64,2.03-13.17-.83-26.31-.19-39.43.57-11.58,2.5-23.03,5.21-34.35,2.65-11.12,4.7-22.38,7.24-33.52,2.1-9.19,5.61-17.88,10.41-26.03,4.86-8.26,8.27-17.22,11.58-26.15,2.68-7.25,5.04-14.5,9.77-20.82,7.02-9.37,10.18-20.73,15.35-31.05.68-1.35,1.03-3.55-.33-4.23-4.24-2.11-1.69-4.17-.31-6.31,7.29-11.28,14.7-22.49,19.56-35.13.48-1.25.82-2.55,1.26-3.81.37-1.05.38-2.06-.64-2.68-1.16-.7-2.18-.32-3.19.57-2.59,2.27-3.93,5.42-5.86,8.16-1.07,1.52-1.83,3.8-3.89,3.44-2.26-.39-.68-3.06-1.45-4.25-1.87-2.91-.1-4.74,1.14-7.07,1.99-3.75,1.49-8.18,2.56-12.27,1.12-4.26,2.66-7.79,5.31-11.08.85-1.05,1.79-2.08,2.37-3.27,1.13-2.33,5.54-4.63,2.47-6.96-2.08-1.58-4.51,2.54-6.28,4.58-2.71,3.14-5.02,6.63-9.15,9.41,0-1.23-.06-1.56.01-1.87Zm-149.53-227.01c-2.43,10.31-2.02,10.02,8.37,12.19,7.86,1.64,16.52,2.17,21.16,10.79,1.51,2.8,2.66,5.33,2.3,8.52-.32,2.85-.57,5.72-.55,8.58.03,4.41.22,8.11-4.62,11.22-2.11,1.36-7.11,4.86-4.78,10.09.38.85-3.72,4.6-5,4.71-1.82.17-1.28,1.09-.72,2.01,1.26,2.07,1.34,4.13.04,6.19-.56.88-1.17,1.77-.34,2.74.82.95,1.77.75,2.65-.01,1.89-1.63,2.95.82,2.78,1.25-1.45,3.75,1.14,7.31.6,10.79-2.26,1.34-2.51-3.09-4.2-1.25-1.42,1.54.59,3.1,1.29,4.49,1.53,3.08,3.35,6.01,5.53,9.85-4.87-1.64-5.23-6.1-8.16-8.34-1.09,9.81,3.62,17.64,7.54,25.79-3.52-2.02-3.62-7.07-8.32-8.14,4.42,6.6,1.95,15.37,7.94,21.6-1.42.09-1.93-1.39-2.97-.73-.71.45-.69,1.25-.2,1.73,1.87,1.81,2.22,3.48.35,5.64-.7.8.69,1.72,1.19,2.55,2.52,4.15,5,8.33,7.57,12.45,1.5,2.4,3.01,4.67-.16,6.98-1.3.95-.48,2.01.05,3.11,1.92,3.99,2.02,9.08,6.99,11.2.46.19.62,1.07.89,1.58-1.33,1.49-2.23-.59-3.81.17,2.19,5.56,5.97,10.16,9.29,15.02.27.39,1.04.53,1.16.92,3.91,12.29,15.45,14.49,25.24,17.75,14.86,4.95,30.46,8.48,46.24,5.73,12.28-2.14,25.21.33,36.9-4.88,8.15-3.63,15.41-8.89,21.6-15.53-4.66.08-8.54,2.74-13.86,2.99,3.44-3.32,7.95-3.64,10.5-6.87.57-.72,2.09-1.01,1.31-2.25-.65-1.05-1.79-.52-2.74-.13-3.9,1.57-7.75,3.27-11.74,4.57-1.17.38-3.53,1.13-3.89-.87-.37-2.06,2.07-.9,3.01-1.57,4.82-3.42,10.44-5.65,15.24-10.19-3.15-1.07-4.72,2.61-7.6,1.38,1.22-2.17,3.43-2.92,5.32-4.03,1.16-.68,2.88-1.43,2.05-2.91-.78-1.38-2.46-.45-3.65.1-2.49,1.17-4.76,3.09-7.88,2.08.07-2.22,1.68-2.34,3.13-2.74,1.12-.31,2.83-.78,2.21-2.13-.85-1.88-2.29-.46-3.3.26-3.13,2.23-5.37,1.73-8.23-1.08-2.29-2.25-2.46-3.44-.05-5.13-2.17-2.07-5.33,2.55-6.28-.98-.62-2.31,3.35-2.23,4.78-4.62-3.7.47-5.5-2.29-6.66-4.54-2.51-4.86-7.68-5.15-11.49-7.65-3.21-2.1-5.88-3.2-.16-5.21.75-.26,1.45-.91,1.28-1.97-1.05-1.42-2.08-.11-3.12.04-1.92.27-3.7-.73-3.87-2.34-.55-5.29-2.51-6.89-7.76-5.68-.29.07-.62-.07-1.5-.18,4.43-3.31-.44-3.56-2.23-5.06,2.43-1.31,4.09-2.21,6.01-3.25-1.94-1.3-3.52.09-4.81-.51-1.48-.69-5.4,3.49-4.46-2.15.02-.12-.51-.35-.79-.5-1.25-.69-4.14,1.11-3.69-1.79.29-1.89,2.78-2.06,4.67-2.24.43-.04.83-.46,1.75-1.01-3.69-1.98-7.08-2.03-10.55-.87-1.41.47-3.33,1.7-3.91-.25-.66-2.2,2-1.47,3.1-2.18.78-.51,2.04-.46,2.24-1.88-3.45-1.95-6.4,2.07-9.63,1.22-.38-1.27.29-1.47.87-1.84,1.46-.94,5.09-.25,4-3.01-1.07-2.71-3.39-5.41-7.47-3.3-3.71,1.92-7.87,2.4-12.49,3.19,1-3.27,3.79-2.6,5.43-3.69.83-.55,2.05-.91,1.48-2.18-.38-.86-1.44-.77-2.27-.56-1.62.41-3.22.91-4.97,1.41-.28-2.11,2.77-1.78,2.54-3.79-1.22-1.55-3.04-.81-4.62-.99-1.46-.16-2.73-.54-3.01-2.15-.88-5.1-6.06-5.09-9.07-7.64-.42-.35-1.42.91-2.33.19-.02-1.23,3.3-1.54,1.35-2.82-1.7-1.12-2.64-3.99-5.89-2.79-4.34,1.59-5,.86-3.92-3.27.52-1.97-.93-2.59-1.99-3.65-4.12-4.1-8.88-7.64-11.39-13.17-.43-.95-.98-1.74-.65-2.78,3.53-11.32,6.34-22.83,9.14-34.35.65-2.68,4.57-4.15,2.3-8.04-2.14-3.66-5.71-4.76-8.34-3.12-2.42,1.5-3.92.68-5.91.46-3.33-.36-2.16-2.5-1.97-4.4.05-.47-.78-1.02-1.19-1.56-4.55-6.03-9.11-12.05-13.63-18.1-.85-1.15-1.96-1.93-3.23-2.29-5.19-1.46-5.62-1.99-5.2-7.96-9.15,2.83-12.36,9.9-14.16,17.53Zm53.07,36.81c-3.27,1.5-3.95,5.55-.97,7.54,2.42,1.62,1.41,2.27.18,3.74-5.06,6.05-5.03,10.86.04,17.11,1.12,1.38,2.17,3.33,4.49,2.35,2.05-.87,1.56-2.7,1.4-4.39-.09-.99-.02-1.99-.02-3.16,1.73.2,1.13,1.48,1.39,2.23,2.23,6.44,4.85,9.56,10.58,9.93,2.32.15,4.45.78,5.73,2.73,6.18,9.42,15.88,15.03,24.23,22.01,8.24,6.9,15.91,14.55,24.64,20.78,12.54,8.95,23.07,20.37,36.67,28.13,7.59,4.33,13.2,11.97,20.86,16.67,8.98,5.5,18.63,9.25,29.16,10.5,3.77.45,7.54-2.32,7.82-6.15.35-4.7.29-9.41-1.33-13.99-3.6-10.17-4.74-20.97-7.8-31.29-1.96-6.6-4.25-13.07-7.31-19.28-4.54-9.17-8.87-18.44-12.1-28.17-1.35-4.08-3.93-7.43-6.25-10.94-.71-1.08-1.75-1.59-2.98-1.65-8.97-.42-17.91-.51-26.2,3.76-1.19.61-2.35,1.38-3.32,2.29-4.35,4.06-4.01,7.63,1.67,9.36,9.81,2.98,18.21,8.55,27.12,13.2,4.59,2.39,4.37,2.91.79,6.49-2.16,2.16-3.3,4.65-6.35,1.3-6.1-6.7-14.1-10.25-22.54-12.7-6.99-2.03-13.09-6.21-19.98-8.19-14.1-4.06-26.24-11.81-38.5-19.37-4.78-2.95-8.67-7.06-11.22-12.03-3.75-7.29-9.41-13.48-12.11-21.36-.47-1.37-1.66-2.3-3.18-1.9-1.51.39-3.72.18-3.79,2.54-.05,1.69-.13,2.97-2.22,3.22-4.79.57-6.09,2.62-1.93,6.61-2.84.87-4.85,1.27-6.66,2.1Zm115.84-1.08c.66.54,1.65.54,2.26-.28.59-.8.26-1.65-.25-2.33-3.71-4.93-7.18-9.98-13.27-12.57-4.03-1.72-7.61-4.43-9.75-8.5-5.62-10.69-14.91-18.19-23.31-26.35-6.11-5.94-11.07-13.27-18.98-17.26-.88-.44-1.63-1.19-2.55-1.51-.83-.29-1.76.1-2.13.95-.48,1.1.33,1.43,1.24,1.63,3.31.71,2.08,3.12.83,4.03-2.41,1.76-3.94,5.14-8.01,4.41-2.14-.39-3.29,1.42-1.49,3.14,1.62,1.54,1.86,2.74.41,4.22-1.41,1.44-2.35,4.16-5.24,2.44-2.48-1.48-3.38.45-4.24,2.04-1.02,1.9-3.85,3.84-1.3,6.12,2.03,1.81,1.52,3.16.23,4.68-1.06,1.24-1.76,3.68-4.27,1.57-1.55-1.3-2.41.4-3.25,1.32-4.43,4.83-8.52,10.06-15.48,11.55-1.23.26-2.72,1.14-2.08,2.88.52,1.42,1.82,1.04,3.04.87,2.77-.4,5.78-2,8.32.04,5.29,4.25,11.58,7.15,15.37,13.43,3.55,5.88,6.76,11.93,10.28,17.8,1.25,2.08,3.2,4.32,6.01,4.01,10.25-1.12,18.01,4.42,26.04,9.34,1.58.97,3.16,1.93,4.77,2.85,6.9,3.93,7.63,3.71,12.99-1.5,8.19-7.95,18.03-11.01,29.35-9.28,2,.31,4.02.49,6.03.6,2.29.13,4.01-.72,4.3-3.25.29-2.51-1.28-3.84-3.41-4.29-2.96-.62-5.98-.98-9-1.29-1.54-.16-3.04-.24-4.2-1.4-.74-.73-2.75-.54-2.08-2.26.55-1.41,1.99-.89,3.12-.68,1.35.25,2.69.43,3.94-.31.77-.46,1.26-1.18.93-2.12-.25-.69-.89-1.18-1.58-.87-3.27,1.47-5.49-2.19-9.44-.72,1.87-3.19,2.68-5.69,5.83-3.12Zm-146.16.84c1.1-.59,2.07-1.42,1.78-2.75-.31-1.4-1.62-1.61-2.84-1.53-2.18.15-4.35.43-6.53.6-.88.07-1.83-.17-1.76-1.23.03-.46.78-1.01,1.32-1.28.74-.36,1.58-.55,2.4-.71,2.12-.44,5.07-.5,4.89-3.28-.22-3.38-3.5-2.33-5.67-2.55-1.84-.19-3.71-.06-5.56-.21-.96-.08-2.28-.24-2.03-1.6.1-.55,1.24-.93,1.92-1.36.13-.08.33-.04.49-.08,2.26-.5,6.11,1.19,6.27-2.2.12-2.57-3.93-2.4-6.1-3.41-4.34-2.02-8.79-1.65-12.2,1.82-5.77,5.86-10.41,12.19-12.81,20.61-8.93,31.41-5.98,63.39-5.63,95.25.06,5.34,1.88,10.59,5.24,15.04,1.8,2.39,3.99,3.97,7.14,4.22,4.19.33,3.82-3.13,5.15-5.48,5.77-10.13,7.75-21.01,7.23-32.49-.02-.51.12-1.06-.04-1.51-4.45-12.64-4.15-26.2-7.49-39.04-1.22-4.69.86-11.02,6.09-13.83,6.6-3.55,12.67-8.15,19.86-10.58,2.35-.79,3.71-2.3,3.98-4.68.41-3.66-1.95-5.53-5.29-4.05-2.47,1.1-4.74,2.6-8.82,1.08,3.56-1.88,6.29-3.31,9-4.76Zm118.16,530.14c5.66-2.58,11.88-3.28,17.31-6.51,5.34-3.18,7.82-7.83,7.16-13.36-.66-5.49,1.28-10.07,2.57-14.98,1.2-4.57-1.89-8.7-1.61-13.21,0-.13-.2-.41-.26-.4-7.02,1.61-6.42-5.92-10.04-8.4-1.16-.79-2.35-1.66-3.61-.7-.96.73-.5,1.97.29,2.64,2.88,2.44.96,5.42.83,8.07-.12,2.5-.06,3.82,2.38,5.68,4.4,3.35,3.3,9.46,4.85,14.3.69,2.15.3,4.69.2,7.04-.33,7.67-2.65,10.14-10.16,11.6-4.23.82-8.29,2.3-12.39,3.63-5.86,1.9-11.28-1.66-17.24-4.78,2.1,7.11,13.63,12.14,19.71,9.37Zm-77.35,31.72c1.76-4.49,1.06-5.56-3.12-6.46-1.52-.33-2.86-1.59-2.84-3.21.02-2.52,1.55-.94,2.75-.91,2.7.06,2.59-1.44,1.07-3.04-1.04-1.1-1.63-2.29-.85-3.62.92-1.57,2.29-.87,3.55-.33.79.34,1.74.64,2.32-.13.88-1.17-.28-1.71-.98-2.38-1.69-1.61-2.82-3.36-1.56-5.79.76-1.47-.03-2.56-1.01-3.58-3.14-3.27-6.26-6.58-9.43-9.83-.68-.7-1.64-1.6-2.59-.84-1.07.85-.13,1.8.45,2.6.2.27.47.49.65.77.99,1.53,4.22,2.85,2.32,4.65-1.83,1.74-2.72-1.39-3.86-2.63-.59-.65-1.38-1.21-2.12-.4-.36.39-.53,1.35-.3,1.81.74,1.5,1.73,2.87,2.59,4.32,1.05,1.77,4.2,3.95-.85,4.6,1.72,3.81-3.51,6.41-1.76,10.23,1.56,3.42,4.19,5.92,7.02,8.25,1.28,1.06,2.66,2,3.85,3.14,1.16,1.11.92,2.48.07,3.66-1.21,1.67-2.33.54-3.39-.28-1.78-1.37-3.01-3.14-3.79-5.25-.33-.89-.61-2.17-1.99-1.65-1.18.45-.89,1.64-.86,2.63.16,5.5,5.35,7.36,8.04,11.01,1.81,2.46,4.26-1.1,6.79.49-2.45-3.04-1.14-5.34-.16-7.85Zm-44.82,19.51c1.51-.2,3.41-.68,3.46-2.31.08-2.29-2.23-1.35-3.5-1.65-2.43-.57-4.92-.88-7.38-1.28-1.85-.3-4.05-.69-4.28,1.91-.21,2.29,1.82,2.93,3.73,3.17,1.32.17,2.66.14,3.99.2,0,.06,0,.11,0,.17,1.33-.06,2.66-.04,3.97-.21Zm-9.29-666.2c-1.66,3.96-2.82,8.16-5.74,11.51-.25.28-.27,1.03-.07,1.36.18.3.86.54,1.24.46,3.67-.84,8.52-9.24,7.68-13.13-.18-.84-.28-1.65-1.33-1.8-.95.16-1.44.83-1.77,1.62Zm146.29,551.67c-.05.58.01,1.45.4,1.76,4.03,3.28,8.12,6.5,12.24,9.67.68.52,1.64.66,2.26-.15.22-.29.21-1.09-.03-1.35-3.96-4.2-8.8-7.25-13.59-10.5-.48.2-1.27.35-1.29.57Zm-118.26,104.74c-.69.2-1.11.89-.69,1.55.49.77,1.42.88,2.24.67,4.29-1.14,6.41-4.07,7.32-9.24-4.01,2.22-5.34,5.97-8.87,7.02Zm111.06-95.59c1.45-4.66.82-8.36-.04-12.12-2.24,3.68-2.21,7.4.04,12.12Z"/>
    <path class="cls-2" d="m1612.89,432.08c1.17-2.72,2.23-5.4,3.83-7.94,1.89-3.01,3.66-5.38,7.54-3.12.63.37,1.4.67,1.64-.13.22-.71.17-1.89-.28-2.34-2.08-2.05-4.53-2.22-6.8-.39-4.38,3.54-6.63,8.12-5.94,13.92Z"/>
    <path class="cls-2" d="m1618.13,485.72c-.53-3.89-2.39-6.89-4.51-9.76-.57-.77-1.07-1.97-2.22-1.67-.65.17-1.23,1.04-1.59,1.73-.84,1.61.85,1.34,1.51,1.82,2.79,2.06,3.13,6.26,6.81,7.87Z"/>
    <path class="cls-2" d="m1645.67,464.16c-3.86,5.58-4.78,12.35-7.31,18.47,3.91-5.58,7.6-11.24,7.24-18.54,0,0,.07.07.07.07Z"/>
    <path class="cls-2" d="m1668.2,945.19c.91-.5,1.07-1.83,2.36-1.58,1.05.2.83,1.32.84,2.13.02,3.19,0,6.39.29,9.69,5.64-25.46,16.72-48.79,27.85-72.06-3.13,1.3-5.85,4.61-8.77,11.13-4.53,10.08-9.47,19.98-13.28,30.39-.45,1.24.26,5.8-4.07,3.37-.64-.36-1.08,1.04-1.28,1.83-1.32,5.04-2.62,10.08-3.93,15.12Z"/>
    <path class="cls-2" d="m1710.36,803.1c1.59-1.84-1.92-3.44.11-4.7,1.62-1.01,2.53,1.2,3.91,1.63.96.3,1.94.82,2.9.78,2.7-.12,6.75,1.31,7.4-2.19.54-2.9-3.39-2.85-5.71-3.56-5.98-1.84-10.44-7.81-10.55-13.84-.03-1.81,1.14-4.88-2.9-3.39-.18.07-.74-.3-.79-.53-.85-4.09-3.73-3.31-6.9-3.94-4.27-.85-3.94,1.29-3.82,3.5.15,2.85,1.33,5.42,3.7,7.37,1.25-1.52.08-2.49-.11-3.56-.17-.96-.38-1.91-.78-3.83,6.23,5.39,8.09,12.43,11.87,18.19.42.63-.12,1.24-.58,1.77-3.05,3.59-.03,4.69,2.24,6.3Z"/>
    <path class="cls-2" d="m1682.94,931.98c-6,12.21-9.72,24.9-7.68,38.7,2.56-12.9,5.12-25.8,7.68-38.7Z"/>
    <path class="cls-2" d="m1696.77,802.42c-5.43,2.01-8.12,5.93-8.07,11.69,2.28-4.18,5.52-7.66,8.07-11.69Z"/>
    <path class="cls-2" d="m1673.78,848.71c-2.34,3.31-5.26,6.35-4.03,11.91,2.13-4.37,4.24-7.71,4.03-11.91Z"/>
    <path class="cls-2" d="m1658.32,916.84c-2.87,5.02-2.2,9.21-1.93,13.35,1.75-3.81,2.34-7.82,1.93-13.35Z"/>
    <path class="cls-2" d="m1655.23,1065.53c0-4.74,0-9.48,0-14.41-1.86,4.86-1.09,9.63,0,14.41Z"/>
    <path class="cls-2" d="m1657.98,953.73c-1.21,2.47-1.6,4.95-.34,8.36,1.3-3.39.72-5.88.34-8.36Z"/>
    <path class="cls-2" d="m1730.54,714.72c.4,1.3,1.37,1.45,2.38,1.19,1.5-.39,3.59-.21,3.83-2.3.13-1.1-1.14-1.53-2.21-1.18-1.47.49-3.38.34-3.99,2.29Z"/>
    <path class="cls-2" d="m1735.51,718.66c.03,1.36.87,1.83,1.98,1.74,1.51-.12,3.1-.37,3.51-2.2.2-.92-.37-1.76-1.34-1.69-1.64.13-3.34.38-4.15,2.14Z"/>
    <path class="cls-2" d="m1724.84,699.87c.01,1.51,1.05,1.6,2.05,1.58,1.27-.02,2.86.4,3.48-1.13.53-1.32-.75-1.72-1.68-1.75-1.4-.05-2.99-.24-3.85,1.29Z"/>
    <path class="cls-2" d="m1558.27,475.16c16.51-.06,29.01-12.51,27.36-27.26-.27-2.4-.53-4.98-3.17-5.82-3.14-.99-3.28,2.27-4.39,3.86-8.37,11.96-28.25,15.28-40.7,6.64-.94-.66-1.65-2.03-2.95-1.28-1.4.8-.46,2.11-.17,3.18,2.06,7.55,4.56,14.61,12.29,18.67,3.91,2.06,7.74,1.89,11.73,2Z"/>
    <path class="cls-2" d="m1575.47,423.43c.79-4.26-1.1-8.29-4.77-11.78-2.93-2.79-5.27-2.46-7.38.85-2.75,4.31.2,17.72,4.49,20.37,3.19,1.97,7.1.21,7.62-3.55.23-1.65.04-3.36.04-5.89Z"/>
    <path class="cls-2" d="m1531.66,433.94c.39,2.32,1.95,3.31,3.51,1.79,3.15-3.06,6.15-4.36,10.32-1.97,1.75,1,2.41-.38,2.04-2.09-.7-3.18-5.52-5.33-10.13-4.54-3.87.66-4.81,3.74-5.73,6.81Z"/>
    <path class="cls-2" d="m1529.86,419.28c4.37-5.88,4.63-5.91,10.8-2.01.8.51,1.62,1.51,2.7.91.84-.47.69-1.51.51-2.31-.8-3.46-5.58-5.77-9.45-4.62-4.44,1.32-5.84,3.79-4.56,8.03Z"/>
  </g>
</svg>