<?xml version="1.0" encoding="UTF-8"?>
<svg id="personnage4" xmlns="http://www.w3.org/2000/svg" xmlns:xlink="http://www.w3.org/1999/xlink" viewBox="0 0 1849.91 1450.57">
  <defs>
    <style>
      .cls-1 {
        fill: url(#Dégradé_sans_nom_7);
      }

      .cls-1, .cls-2, .cls-3, .cls-4, .cls-5, .cls-6 {
        stroke-width: 0px;
      }

      .cls-2 {
        fill: url(#Dégradé_sans_nom_5);
      }

      .cls-4 {
        fill: #3b2f35;
      }

      .cls-5 {
        fill: #585254;
      }

      .cls-6 {
        fill: #beaa9a;
      }
    </style>
    <linearGradient id="Dégradé_sans_nom_5" data-name="Dégradé sans nom 5" x1="751.15" y1="96.53" x2="681.83" y2="133.2" gradientUnits="userSpaceOnUse">
      <stop offset="0" stop-color="#beaa9a"/>
      <stop offset=".05" stop-color="#c39991"/>
      <stop offset=".2" stop-color="#d06f7b"/>
      <stop offset=".36" stop-color="#dc4d68"/>
      <stop offset=".51" stop-color="#e4325a"/>
      <stop offset=".67" stop-color="#eb1f50"/>
      <stop offset=".83" stop-color="#ee134a"/>
      <stop offset="1" stop-color="#f01048"/>
    </linearGradient>
    <linearGradient id="Dégradé_sans_nom_7" data-name="Dégradé sans nom 7" x1="676.31" y1="349.11" x2="827.01" y2="349.11" gradientUnits="userSpaceOnUse">
      <stop offset="0" stop-color="#3b2f35"/>
      <stop offset=".88" stop-color="#aeb9b0"/>
    </linearGradient>
  </defs>
  <path class="cls-4" d="m768.42,40.76c2.73-3.19,18.23-6.83,20.96-6.38s15.95,9.11,18.68,11.39,7.75,10.02,10.94,13.67,8.2,9.57,9.11,15.49c.91,5.92,1.82,15.95,1.82,18.23s3.65,15.95,5.01,20.5,8.66,19.59,7.75,22.33-12.76-3.19-15.95.91c-3.19,4.1-5.92,10.02-11.85,7.75s-5.47-3.19-10.94-1.82-13.67.46-15.04.91-9.11.91-9.11.91c0,0-4.56-7.29-5.92-7.75s-22.33-3.65-22.33-3.65c0,0-5.92-9.57-7.75-10.02s-8.66-2.73-7.75,2.28-1.82,8.2-3.65,8.66-5.47,6.38-9.11,5.47-9.11-2.73-7.75-5.01,13.67-5.92,15.95-13.67c2.28-7.75-.91-46.02,6.83-55.59s30.07-24.6,30.07-24.6Z"/>
  <path class="cls-2" d="m757.94,45.77c-2.31,1.54-13.67,6.83-13.67,6.83,0,0-9.57,10.02-10.48,12.3s-5.01,10.94-5.01,15.04,1.37,21.42,1.82,27.79c.46,6.38,1.37,17.31,5.47,17.77s0-1.37,5.01-1.82,7.29,4.56,8.66,5.92,19.14.46,22.78.91,15.04-5.01,19.14-8.66,9.57-13.67,11.39-16.86,4.56-14.58,4.1-18.68-3.19-17.77-4.56-19.59-10.48-14.12-13.21-15.49-9.57-7.29-14.12-6.83-15.95.46-17.31,1.37Z"/>
  <path class="cls-1" d="m726.05,143.28c1.37-1.37,2.73-7.29,6.38-9.11s5.01-10.02,6.83-11.39,6.38-1.37,6.83,1.82c.46,3.19-.91,10.94,2.28,10.48s6.38-1.37,12.3-1.37,5.47.91,10.48,2.73,11.85-.91,12.3,3.65-.46,15.49.91,15.49,5.92,5.47,7.29,5.92.91,7.29,4.56,8.2,13.21,9.11,15.95,10.94,9.11,7.75,10.94,10.02,5.92,10.48,2.73,15.95c-3.19,5.47-7.29,15.04-9.57,19.59s-10.48,21.87-10.48,21.87c0,0,0,6.38,3.19,7.29s3.65,4.1,3.65,6.83-1.82,7.29-1.82,9.11,0,4.1-3.19,4.1-5.92.91-5.92,3.65,0,32.35-.46,34.17,2.73,27.79,3.65,33.26,4.56,33.72,4.56,33.72c-.46,8.2,1.37,27.79.91,31.9s-1.37,29.62-1.37,29.62c0,0-7.29,6.83-6.38,14.12s4.1,31.44,3.65,34.63c-.46,3.19-1.82,17.31-1.82,21.42s4.56,21.87,5.92,25.97,7.75,20.5,7.75,25.52,0,9.11-4.1,11.39c-4.1,2.28-15.49,1.37-17.31,1.37s-7.75-7.29-4.56-12.76,6.83-13.21,6.38-16.86-5.47-12.3-5.47-19.14-12.3-43.29-12.76-48.75-7.29-20.96-10.48-32.35-17.31-51.94-17.31-51.94c0,0-2.73,10.02-3.19,15.49-.46,5.47-3.19,26.88-3.19,26.88,0,0-3.65,37.82-5.92,41.92-2.28,4.1-5.01,10.02-5.01,11.85s1.37,11.39-.46,15.49-15.04,13.67-17.77,15.49-17.77,11.85-23.24,12.3-13.67-10.48-10.94-14.12c2.73-3.65,13.67-7.75,18.68-9.11,5.01-1.37,15.95-7.75,16.86-9.11s-2.73-35.54-3.19-41.92c-.46-6.38-3.65-16.86-5.47-22.78-1.82-5.92-3.65-27.34-3.19-37.36.46-10.02,4.1-45.11,5.92-50.12s6.83-20.5,6.83-21.87-.91,5.01-2.28-3.19-1.37-30.98-1.37-35.08-1.37-11.85-1.37-11.85c0,0-23.24,11.85-26.88,9.11-3.65-2.73-11.85-1.37-10.94-10.48.91-9.11,8.2-31.9,9.11-34.63s22.33-42.83,24.15-46.02c1.82-3.19,14.12-17.77,15.04-19.14s2.28-5.47,4.1-6.38,1.82-4.56-.91-8.2-4.56-8.2-4.56-10.02,2.73-8.2,2.73-8.2Z"/>
  <path class="cls-5" d="m787.1,161.96c-4.56,8.2-13.21,18.68-14.58,19.59s-8.2,6.83-8.2,6.83l-5.92-1.37s-3.19-19.14-5.01-20.5-20.05,4.56-21.87,4.56-4.56,3.19-6.83,5.01-18.23,13.67-31.44,48.75c-13.21,35.08-17.31,46.48-15.49,51.49s4.1,13.21,9.57,10.02c5.47-3.19,28.25-7.29,28.25-7.29v34.17c0,7.29,2.28,18.23,7.29,17.77s14.12-2.73,17.31-1.82,10.02,2.73,17.31,2.28,13.67,2.73,19.14-.46,15.95-5.92,19.14-11.85,5.47-8.66,4.1-12.3,1.82-30.98,0-29.62-15.04.46-15.04-1.82,8.2-8.2,10.02-11.39,10.48-20.96,12.76-23.69c2.28-2.73,12.76-22.33,15.04-29.16s2.73-18.23.46-20.5-17.77-15.04-20.5-16.86-9.11-1.82-9.11-5.92.46-12.3-3.19-11.85-3.19,5.92-3.19,5.92Z"/>
  <path class="cls-4" d="m715.57,336.01c0-2.28,12.3-1.82,23.69-3.19s26.88-1.82,32.35-1.82,21.42-9.57,24.15-11.85,11.39,23.69,10.94,25.52-.46-3.19-.46,1.82,3.65,38.73,3.19,49.21c-.46,10.48-5.01,49.21-5.01,49.21,0,0,3.19,41.46,1.82,45.56s-4.1,24.15-3.65,26.88-1.82,13.21-8.2,5.47c-6.38-7.75-11.85-53.77-16.86-63.33-5.01-9.57-15.49-28.71-16.4-33.72s-8.66-34.63-10.02-36-2.73,16.4-3.19,22.78-3.65,33.72-3.65,38.73-2.73,23.69-4.1,27.34c-1.37,3.65-3.19,9.11-5.01,11.85-1.82,2.73-16.86,6.38-16.4,2.28s-8.66-51.94-9.11-56.04c-.46-4.1-5.01-40.1-3.65-47.84,1.37-7.75,5.01-34.17,6.38-39.64s3.19-13.21,3.19-13.21Z"/>
  <path class="cls-3" d="m735.16,493.21c.46,3.65,1.82,18.68-.46,19.14s-25.52,13.67-31.44,16.86-17.77,6.83-18.68,0c-.91-6.83-.91-10.94,3.65-12.3,4.56-1.37,14.58-3.19,18.68-6.38s9.57-4.1,11.39-9.11c1.82-5.01-2.28-7.75.46-8.66s16.4.46,16.4.46Z"/>
  <path class="cls-3" d="m794.39,522.83c4.1-2.73,8.66-4.1,10.02-1.82s4.1,10.94,5.01,15.49,6.83,16.86,7.75,20.5,3.65,9.11.91,11.85c-2.73,2.73-9.11,7.75-12.76,6.83s-11.85,2.73-12.3-2.28c-.46-5.01,2.28-14.12,2.73-19.14s3.19-9.57,1.82-13.21-3.19-18.23-3.19-18.23Z"/>
  <path class="cls-6" d="m774.57,42.81c.68-1.59,5.92-4.33,11.39-.68,5.47,3.65,18.68,13.67,20.05,18.23,1.37,4.56,5.01,14.81,5.01,19.14s.68,14.35.23,17.09-6.83,19.14-7.52,21.19-10.02,9.8-12.76,11.85-11.62,7.29-11.85,5.7,2.96-5.92,7.29-8.89c4.33-2.96,9.57-9.8,10.94-11.62s4.1-3.19,5.01-6.38,2.96-12.53,3.42-19.82c.46-7.29-.46-15.04-1.82-19.59-1.37-4.56-6.61-10.02-8.43-12.99s-14.35-10.02-14.35-10.02l-6.61-3.19Z"/>
  <path class="cls-6" d="m753.39,59.32c-.51,0-5.13,3.25-5.81,4.44s-3.42,5.3-3.59,6.83.68,7.69,1.37,9.06,3.59,6.66,6.66,6.66,8.54-.17,11.28-3.08c2.73-2.9,4.96-4.27,5.64-7.01s1.2-4.1,1.2-6.15,0-5.13-1.88-6.83-5.13-4.27-7.01-4.27-7.86.34-7.86.34Z"/>
  <g>
    <path class="cls-3" d="m713.84,301.37c.52-5.67.99-11.34,1.58-17,.49-4.65-.57-5.73-5.15-4.22-6.16,2.03-12.51,3.31-18.72,5.1-3.3.95-6.6,1.27-10.07.2-3.76-1.16-5.41-3.71-5.54-7.26-.44-12.25,2.06-23.9,7.92-34.72,3.09-5.7,5.26-11.77,7.59-17.78,2.19-5.63,5.29-10.78,8.31-15.95,1.09-1.87,2.39-3.77,2.92-5.73,1.87-6.89,7.13-11.48,10.96-17.02,3.33-4.82,6.87-9.39,11.6-13.1,1.93-1.51,2.14-4.99,4.36-6.95.66-.58-.12-1.97-.57-2.88-1.27-2.53-2.54-5.08-3.96-7.53-1.85-3.2-1.93-6.63-.65-9.84.82-2.05.1-2.65-1.38-3.34-.21-.1-.42-.18-.63-.27-7.41-3.38-8.22-8.43-1.99-14.12,4.74-4.33,8.36-9.08,9.28-15.69.53-3.77-.83-7.22-1.5-10.66-1.62-8.35-.73-16.47-.05-24.78.99-11.96,7.79-20.3,15.98-27.82,5.01-4.6,11.32-7.11,18.02-8.26,1.83-.31,2.55-1.93,3.89-2.41,4.68-1.69,9.27-3.73,14.24-4.54,2.53-.41,4.63.23,5.97,2.72,1.56-2.91,4.84-3.68,8.74-2.19,7.13,2.72,12.86,7.42,18.23,12.72,5.95,5.87,10.78,12.45,13.92,20.22.38.94.89,1.85,2.15,1.92,3.31.18,3.49,2.7,2.54,4.65-2.38,4.83-1.97,9.45-.73,14.48,1.05,4.24.18,8.76,1.3,13.18,1.55,6.1,4.29,11.68,6.55,17.46,1.89,4.83,3.07,9.97,6.05,14.33.44.65.85,1.31,1.32,1.94,1.25,1.64,1.22,3.53.34,5.13-.82,1.51-2.65,1.91-4.24,1.5-3.58-.9-7.28-.17-10.86-1.03-1.77-.43-3.29.12-4.51,1.67-1.81,2.3-3.94,3.86-7.01,1.94-.99-.62-1.99.31-2.88.29-7.18-.13-13.65,4.46-20.93,3.19-2.92-.51-5.66-.13-8.46.41-.64.12-1.54-.01-1.65.86-.14,1.07.85,1.12,1.59,1.39,4.67,1.72,7.04,4.61,6.73,9.76-.27,4.4,1.65,6.83,5.02,9.17,7.73,5.36,15.23,11.04,22.79,16.64,2.19,1.62,3.57,3.91,3.93,6.59.99,7.37,1.25,14.52-2.55,21.53-5.23,9.66-9.61,19.78-15.23,29.25-2.15,3.62-1.9,6.64,1.37,9.82,4.97,4.83,3.33,11.29,2.8,17.14-.2,2.19-3.41,3.21-5.6,4-3.35,1.2-4.36,3.3-4.27,6.74.23,8.76-1.55,17.4-1.44,26.22.11,9.86,1.26,19.49,3.35,29.06,1.85,8.47,2.23,17.12,3.31,25.68,1.39,11.04,2.7,22.11,2.82,33.28.16,15.36.79,30.74-1.26,46.04-.33,2.46-.69,5.03-1.66,7.28-1.7,3.92-1.79,7.92-1.78,12.04.05,17.89.42,35.79-.15,53.66-.28,8.69,2.35,16.34,5.53,23.97,2.32,5.54,4.19,11.22,6.15,16.87.73,2.12,1.94,4,2.27,6.36,1.1,8.04-.03,9.75-7.59,13.41-4.77,2.3-9.84,2.63-15,2.47-3.37-.1-4-2.6-4.33-5.14-.28-2.19.2-4.38-1.84-6.25-1.11-1.02-.54-3.06-.05-4.59,1.23-3.77,1.86-7.73,3.62-11.35,1.76-3.61.99-7.37.02-10.97-2.19-8.18-3.57-16.54-5.96-24.69-2.51-8.57-4.95-17.22-6.54-25.99-1.44-7.96-3.49-15.72-5.92-23.38-1.95-6.16-4.9-11.94-7.52-17.84-3.12-7.02-6.54-13.92-8.63-21.37-1.78-6.35-2.07-13-4.18-19.28-.61-1.81-1.12-3.62-2.24-5.94-1.96,3.89-2.42,7.55-2.97,11.12-2.08,13.59-3.47,27.27-6.03,40.79-1.28,6.79-1.07,13.77-2.79,20.56-.98,3.86-1.81,7.7-3.81,11.17-.78,1.35-.98,2.72-1.05,4.23-.25,5.46-1.01,10.93-.79,16.36.25,6.12-3.75,8.66-8.12,10.75-7.25,3.46-14.29,7.15-21.17,11.38-6.9,4.24-14.96,6.44-22.84,8.65-.55.16-1.18.28-1.46-.4-.28-.7.31-.9.8-1.24,1.2-.82,3.29-1.03,3.51-2.4.27-1.69-2.04-1.73-3.07-2.69-4.8-4.49-3.5-13.42,2.73-15.67,7.31-2.63,14.43-6.18,22.47-6.23.42,0,.84,0,1.36,0-.44,1.54-1.79,1.63-2.73,2.02-4.03,1.67-7.9,3.76-12.4,4.12-5.12.41-6.01,1.4-6.54,6.34-1.36,1.18-2.02-3.4-3.51-.46-1.11,2.19-1.74,4.5.38,6.57,1.99,1.95,4.71,2.62,7.02,4.02,1.09.66,2.19-.19,3.16-.78,7.82-4.8,15.88-9.13,24.33-12.75,3.32-1.42,6.46-3.3,9.61-5.1,1.85-1.05,3.15-2.53,3.1-4.92-.03-1.47.36-2.94.4-4.42.06-2.27.74-4.99-.25-6.71-1.24-2.14-4.14-.06-6.27-.55-.55-.13-1.14-.09-1.7-.18q-4.19-.67-3.98,3.82c.03.68.11,1.37.08,2.05-.04.98-.4,1.94-1.46,2.02-1.1.08-1.56-.92-1.63-1.85-.26-3.17-.53-6.35-.58-9.53-.09-5.8.12-11.59-1.62-17.26-.59-1.91-.59-3.98.5-5.96.5-.91.46-2.23.37-3.33-1.07-13.83-1.87-27.69-4.31-41.39-.49-2.77-.26-5.68-.28-8.52-.06-9.57-.33-19.15-.03-28.71.25-7.95,1.19-15.87,2.31-23.78-.43,7.61-.83,15.22-1.29,22.83-.67,11.27-.92,22.58.44,33.78.73,6.02,1.1,12.43,3.22,17.89,2.85,7.33,1.29,14.6,2.18,21.82.99,8.11.97,16.35,2.3,24.45.4,2.45,1.22,4.83,1.87,7.23.15.57.4,1.09,1.13,1,.68-.08.88-.64,1.05-1.18.51-1.66.68-3.36.22-5.05-1.41-5.1-1.79-10.3-1.74-15.56.09-10.04-.6-20.03-1.47-30.02-.09-1.08-1.21-3.03,1.26-3.06,2.11-.02,1.73,1.71,1.72,3.02-.09,10.94-.2,21.87-.3,32.81-.02,2.14-.14,4.29,1.17,6.31,2.11-13.24,1.38-26.62,1.68-40.27,2.3.93,1.68,2.65,1.7,3.92.21,10.83-.31,21.63-1.26,32.42-.36,4.08-.35,8.19-.53,12.28-.03.76-.49,1.7.69,1.92.96.18,1.5-.57,1.72-1.34.39-1.4.63-2.85.93-4.29l-.05-.04c.97,2.25,1.58,1.85,2.36-.19,2.36-6.17,2.55-12.71,3.13-19.12,1.22-13.36,1.33-26.81,2.71-40.17.09-.91-.09-1.93.26-2.71,4.42-9.67,2.88-20.1,3.94-30.19.2-1.88.08-3.81,1.06-6.05-1.67,33.85-2.47,67.29-9.49,100.2,2.16-1.46,1.85-3.74,2.36-5.66,4.12-15.43,4.96-31.35,7-47.1,1.44-11.06,2.44-22.12,2.71-33.28.15-6.12,1.27-12.21,1.86-18.32.15-1.6,1.08-2.22,2.39-2.39,1.41-.18,1.61.97,1.76,2.02,1.11,7.64,2.83,15.14,5.2,22.62-1.52.14-.7-2.23-2.41-1.72-.02.29-.24.83-.06,1.1,2.65,4.04,2.9,8.91,4.7,13.24.37.89.71,2,2,2.09l-.03-.06c-.2.9-.22,1.77.11,2.68,3.74,10.31,7.46,20.62,11.18,30.93.23.64.36,1.36,1.33,1.19.78-.75.27-1.72.42-2.58,2.23,7.11,5.04,14.1,6.52,21.36,1.76,8.65,4.25,17.13,5.68,25.87.87,5.32,1.72,10.79,4.43,15.65.3.53.16,1.52,1.17,1.35.88-.15.69-1.04.93-1.64.49-1.18,1-2.53.52-3.65-2.79-6.49-1.43-13.49-2.65-20.18-1.8-9.83-3.35-19.7-4.86-29.57-.46-3-.46-6.08-.38-9.16.65,7.15,2.29,14.12,3.55,21.16,1.49,8.27,2.2,16.66,4.37,24.84.88,3.33.38,7.02.53,10.54.04.87-.26,2.23.84,2.3,1.35.08,1.1-1.4,1.32-2.33.5-2.18-.86-4.71,1.38-7.02.84,4.1-.12,7.75-.37,11.41-.05.76-.52,1.76.59,2,.79.17.91-.79,1.26-1.35,2.16-3.49,3.04-7.38,3.24-11.37.49-9.9.4-19.77-.94-29.66-1.52-11.21-1-22.57-.02-33.77.44-5.08,1.83-10.24,2.76-15.38,2.31-12.81,1.61-25.65.33-38.45-.77-7.73-1.26-15.45-1.19-23.18.1-10.21-2.28-20.12-2.99-30.22-.08-1.14-.27-2.49-1.8-3.49,1.61,33.71,5.88,67.07,2.97,100.61-1.77-6.08-.09-12.2-.41-18.33-.79-15.11-.53-30.28-1.33-45.4-.66-12.48-2.24-24.91-3.43-37.35-.08-.85-.02-2.11-1.33-1.9-1,.16-.68,1.26-.71,2.03-.39,9.93,1.42,19.75,1.46,29.65.01,2.36,0,4.71,0,7.9-1.52-10.45-3.59-20.01-4.21-29.78-.06-1.02-.21-2.04-.45-3.03-.17-.72-.24-1.86-1.3-1.66-1,.19-.64,1.29-.78,2.24-.05-.57,0-.96-.12-1.31-.38-1.15-.58-3.09-1.83-2.91-1.69.25-.71,2.12-.64,3.2.69,10.79,2.13,21.53,2.02,32.37,0,.8.02,1.6-.02,2.39-.03.53.14,1.3-.66,1.34-1,.05-.93-.82-.92-1.46.04-4.9-.1-9.79-.62-14.67-.56-5.32-1.01-10.65-1.56-15.97-.09-.89-.45-1.76-.76-2.6-.21-.56-.67-.98-1.32-.68-.93.44.66,3.5-2.36,2.22-.34-.14-.39,3.04-.2,4.68.45,3.84,1,7.68,1.4,11.53.09.91.77,2.42-.52,2.67-1.54.3-1.13-1.42-1.28-2.26-.64-3.58-1.71-7.09-1.71-10.78,0-.77-.23-1.58-.52-2.31-.58-1.4-.76-3.8-2.67-3.39-2.39.52-.46,2.65-.55,4.03-.09,1.43.38,2.89.29,4.43-.49-1.34-.72-2.89-1.56-3.96-.82-1.03-1.48-3.02-3.24-2.44-1.63.53-.04,2.27-.6,3.27-2.42.65-3.41-.49-3.68-2.74-.28-2.36-1.56-2.92-4.01-2.85-8.42.21-16.85-.05-25.28.01-2.83.02-5.91-.71-8.14,2.09-1.45,1.83-2.57,3.88-2.94,6.05-1.32,7.71-3.73,15.31-2.83,23.35-1.75-1.91-1.79-4.12-1.69-6.4.27-6.49.98-12.93,1.84-19.36.14-1.06.52-2.17-.8-4-3.24,11.97-4.42,23.46-5,35.06-.33-9.25.83-18.37,2.33-27.42-1.37-.42-1.48.6-1.89,1.2-2.36,3.48-3.69,7.77-4.61,11.45-3.55,14.23-4.64,28.9-4.77,43.61-.11,12.16-1.13,24.36.87,36.44,1.07,6.48,2.58,12.88,3.07,19.46-.78-8.14-3.9-15.76-4.88-23.92-.97-8.03-1.07-16.1-2.03-24.12-1.14-9.45-.58-18.86.97-28.22.84-5.06,1.38-10.16,1.19-15.28-.24-6.37,1.54-12.39,3.02-18.44.89-3.66,1.67-7.24,1.64-11.03-.07-10.81.26-21.61,1.25-32.39,1.18,1.25,1.99.33,2.82-.48.58-.57.4-2.45,2.03-1.16,1.21.95,1.85,1.9.53,3.38-1.53,1.71-3.59,3.46-.83,5.94.51.46-.06,1.46-.33,2.23-.99,2.89-.75,5.57,1.89,7.6,1.78,1.37,3.58,2.72,5.37,4.08-2.25,1.73-2.29,1.99.08,3.17,2.94,1.46,5.98,2.74,8.97,4.11,2.71,1.24,4.76-1.36,7.28-1.29.14,0,.56-.88.42-1.13-1.21-2.25-.11-4.43.03-6.65.77-12.25,1.53-24.51,2.08-36.77.19-4.23,2.16-7.72,3.43-12.43,1.02,2.68-1.63,5.49,2.11,6.28.61.13.22,1.63-.62,1.88-5.36,1.59-2.51,6.29-3.53,9.48-.39,1.23,1.14.83,2.01.68,1.21-.21,2.07.39,2.22,1.55.15,1.15-.62,2.24-1.68,2.2-3.01-.11-3.28,1.89-3.31,3.99-.03,2.12-.98,4.5.3,6.32,1.84,2.61,2.08,4.83.18,7.49-1.53,2.13-2,5.25-.82,7.08,1.66,2.57,1.52,4.77,1.01,7.36-.47,2.37.64,3.18,3,3.3,3.73.19,7.44.89,11.17,1.14,7.3.47,14.42.46,21.02-3.8,4.64-3,9.06-6.4,13.95-8.95,2.87-1.5,4.22-3.8,4.2-6.39-.06-10.49,1.23-20.9,1.48-31.37.05-2.19-.78-2.46-2.57-2.35-2.95.18-6.16.78-8.79-.39-2.93-1.31-5.3-1.17-7.85.36,2.1-2.49,3.44-5.51,5.8-7.84,8.47-8.38,16.33-17.08,20.9-28.49,4.71-11.76,10.73-22.97,15.54-34.72,2.99-7.29,1.98-13.13-3.76-18.61-7.01-6.69-15.47-11.44-23.35-16.95-.73-.51-1.39-.88-2.11-.15-3.86,3.95-8.78,6.82-11.55,11.89-3.31,6.06-6.84,11.99-10.24,17.99-4.75,8.38-8.4,16.9-3.24,26.5.44.83.39,1.96,1.72,2.44.98-2.15-.36-3.85-.67-5.65-.15-.86-.55-1.89.63-2.36,1.02-.41,1.4.4,1.78,1.11.26.49.5,1.04,1.23.88,1.21-1.22-1.04-3.85.57-3.89,3.44-.09,2.64-2.11,2.86-4.05.12-1.08,1.47-1.33,2.31-1.86,1-.63,2.24-1.27,2.17-2.44-.21-3.5,1.6-4.48,4.72-4.24-.2-1.8-.32-3.61-.61-5.39-.15-.87-.26-1.59.69-1.99.97-.41,1.08.47,1.44.99.37.55.7,1.44,1.49,1.11.97-.4.61-1.31.3-2.05-.31-.74-.78-1.54.02-2.17.67-.52,1.27.08,1.81.49.84.62,2.11.84,2.32-.14.53-2.49,3.38-3.77,2.85-6.67,3.15,2.07,2.74,3.91.52,6.21-2.61,2.69-5.81,4.72-8.09,7.77-4.79,6.39-8.36,13.52-12.54,20.28-2.31,3.74-1.57,5.99,2.29,8.19,2.22,1.26,3.8,3.2,5.73,4.75.9.72,1.07,1.7,1,2.77-.04.7-.13,1.46-.9,1.68-.78.21-1.14-.37-1.53-1.01-1.07-1.79-2.15-3.6-4.25-4.64,2.01,3.58.88,7.63,1.91,11.4-1.54-2.84-2.94-5.72-4.63-8.43-.56-.91-1.14-1.87-2.37-1.43-1.19.43-.67,1.53-.58,2.38.23,2.07,1.11,4.13.32,6.17-.75.14-1.03-.15-1.32-.54-1.68-2.24-.68-4.53-.26-6.87.27-1.49,1.01-4-.39-4.32-1.68-.39-2.35,1.89-2.58,3.61-.02.11-.03.23-.05.34-.53,2.33-1.05,4.66-1.6,6.98-.15.65-.34,1.49-1.28,1.06-.61-.28-.49-.97-.24-1.51.23-.52.65-.97.8-1.5.96-3.47,3.52-7.2,2.47-10.37-2.45-7.34-3.33-15.05-6.08-22.29-1.8-4.75-2.97-9.75-4.35-14.66-.3-1.07-.07-2.45-1.46-2.79-1.17-.29-1.87.76-2.48,1.53-4.63,5.73-10.16,10.59-15.3,15.83-1.61,1.64-2.06,3.28-1.38,5.52,1.98,6.61,3.7,13.3,5.69,19.91,2.48,8.24,4.99,16.5,7.48,24.71,2.09,6.87,5.05,14,10.43,19.61,3.66,3.82,5.19,4.73,9.97,2.98,1.27-.46,2.41-1.26,3.62-1.9-.43.51-.82,1.06-1.3,1.53-2.04,2.02-5.2,1.6-7.28,2.98-2.61,1.73-3.95.65-5.43-.98-3.65-4.02-7.35-8.02-9.09-13.37-.32-.99-.57-2.63-1.96-2.47-4.07.47-8.32.31-11.62,3.64-1.91,1.93-4.27,3.62-6.67.58-1.27.73.84,3.01-1,2.67-4.06-.75-3.92,1.75-3.75,4.22.16,2.39-.79,3.08-2.98,2.7-.92-.16-1.77-.99-2.83-.39.22,1.35,1.52,1.69,2.19,2.56.68.89.32,1.98-.25,1.95-3.89-.19-1.35,2.57-1.9,3.87l.06-.06c-1.03.13-2.54-1.82-2.99.9-.53,3.23-2.38,5.85-4.65,8.16Zm87.72-28.8c2.39,1.88,5.26.93,6.73-.48,1.27-1.22.47-4.05-1.02-5.88-1.5-1.84-2.94-3.74-4.65-5.92,2.74.45,3.58,2.62,5.04,4.01.53.51,1.05,1.52,1.91.88.8-.59.13-1.41-.19-2.13-.85-1.91-3.38-2.9-3-5.47,1.77-.23,2.54,3.2,3.75,1.88,1.31-1.43-1.36-2.93-1.8-4.63-.16-.61-.73-1.13-1.16-1.66-.85-1.07-1.98-.96-3.11-.63-.95.28-1.63,1.03-1.67,1.95-.05,1.26,1.11.84,1.79.88,1.28.06,1.85.69,1.86,1.91-1.67.08-4.21-.61-4.75.91-1.07,3.04-3.98,3.79-5.76,5.85-1.27,1.47-2.19,3.31-2.06,4.92.12,1.38,2.36.63,3.62,1,.74.22,1.41.67,2.12,1.02-1.13-.06-2.25-.12-3.38-.16-1.99-.08-4.43.02-4.65,2.28-.23,2.4,2.6,2.43,4.21,2.88,3.52.98,5.77-.46,6.13-3.42Zm-112.13-1.58c.61-.85.89-1.33,1.24-1.73,3.84-4.41,8.02-8.57,10.5-13.98.25-.56,1.83-1.21.46-1.72-.94-.35-1.49,0-.59-1.12,3.33-4.06,5.44-8.84,7.89-13.41,2.67-4.98,6.54-9.31,8.22-14.83,1.16-3.83,4.54-5.78,6.69-8.75-.98,6.36.55,12.93-2.4,18.89-.29.58-.26,1.84.24,1.86,3.33.16,1.31,2.31,1.32,3.54,0,1.1-.53,2.2-.75,3.32-.86,4.35.21,5.64,4.72,5.78,1.06.03,1.8.45,1.63,1.64-.12.83-1,1.83.32,2.31,1.21.44,1.31-.87,1.91-1.46.66-.65,2.08-.75,2.06.39-.05,3.53,1.3,1.69,2.4.74.67-.57.95-.65,1.92-.13,1.9,1.02,3.95,1.04,5.91-.66,2.09-1.82,1.8-4.25,1.1-5.96-2.65-6.54-3.79-13.47-5.73-20.18-.53-1.84-.83-3.74-1.93-5.43-.97-1.49-2.02-2.02-3.69-1.36-.99.39-2.02,1.46-3.09.26-.97-1.1-.43-2.29-.11-3.53.94-3.72,2.33-7.32,2.26-11.29-.14-8.76-3.13-16.83-5.79-24.99-.87-2.65-2.62-2.17-4.03-.51-3.57,4.22-7.23,8.4-10.43,12.9-4.13,5.81-7.16,12.25-9.96,18.83-3.42,8.02-7.26,15.85-11.06,23.7-2.19,4.52-2.87,9.58-5.06,14.05-3.57,7.26-3.97,15.3-5.93,22.95-.33,1.29-.2,2.73-.1,4.09.44,5.93,4.01,9.68,9.22,9.1,4.71-.53,9.52-1.19,13.98-2.71,8.98-3.07,17.94-6.34,26.53-10.35,5-2.34,10.32-2.27,15.38-3.84,4.44-1.38,5.38-2.18,3.2-6.42-1.11-2.17-2.86-3.32-5.3-3.81-8.99-1.8-18.19-1.69-27.25-3.04-5.02-.75-10.32.45-13.45,5.49-2.34,3.78-6.47,5.8-9.05,9.37-.59.81-1.37,1.86-3.39,2.02Zm40.06-180.82c-.47,3.34.49,7.04.75,10.78.45,6.43,3.2,12.25,5.55,18.13.52,1.32,1.43,3.29,3.51,2.41,3.34-1.42,5.41.19,7.87,2.2,1.46,1.19.95,5.6,4.8,3.41.02-.01.38.36.34.5-.77,3.18,1.48,1.49,2.56,1.57,3.64.25,7.23-.42,10.96.19,2.45.4,6.03,1.06,7.71-.09,2.4-1.64,4.53-2.56,7.31-2.63.96-.02,1.86-.96,2.65-1.19,4.82-1.45,6.56-6.27,10.25-9.03,7.55-5.65,9.11-14.77,10.71-23.52.24-1.32.4-2.92-2.05-2.12-1.35.44-2.08-.76-2.26-1.95-.21-1.33.84-1.45,1.79-1.37,2.32.2,2.59-1.2,2.54-3.01-.23-8.84-2.59-17-7.8-24.21-5.18-7.17-12.08-11.81-20.79-13.62-4.51-.94-8.98-.51-13.53.13-13.9,1.95-22.84,10.42-28.98,22.16-3.34,6.38-3.91,13.64-3.87,21.27Zm49.92,50.21c-1.18,1.83-2.03,2.77-4.47,1.42-2.94-1.64-5.77,2.06-9.34,1.17-1.17-.29-4.35,1.14-6.4,2.38-4.21,2.54-6.61,6.46-8.16,10.84-.79,2.24-1.3,5.35,1.55,6.6,2.37,1.03,3.01,2.38,2.87,4.65-.12,1.97.94,3.73,1.26,5.6.65,3.89,3.83,6.91,3.57,11.08-.07,1.16-.55,2.74.81,3.41,1.39.68,2.78-.43,3.7-1.2,5.05-4.22,9.85-8.73,14.04-13.82,1.4-1.7,3.07-3.45,3.59-6.07-4.28,2.2-7.34,5.52-10.95,8.1.02-.64.19-1.07.48-1.4,2.21-2.48,3.48-5.43,4.95-8.37,1.17-2.34,2.05-4.55,2.56-7.04.26-1.29.06-1.76-1.44-1.9-2.51-.23-2.95-1.54-1.12-3.45,1.54-1.61,1.99-3.58,2.88-5.41,1.24-2.55-.31-4.31-.37-6.59Zm-53.62,10.16c.08,2.36.35,4.2,1.24,6.01,1.78,3.62,3.96,7.06,4.53,11.24.29,2.1,2.13,3.08,4.17,2.16,2.74-1.24,5.65-1.61,8.51-2.3,5.42-1.31,6.11-2.51,5-8.1-1.36-6.9,1.54-12.27,8.13-15.09,2.07-.89,4.16-1.75,6.17-2.77,1.02-.51,1.94-1.38,1.75-2.69-.19-1.37-1.48-1.7-2.54-1.96-4.2-1.01-8.11-.03-11.84,1.94-3.82,2.02-3.75,2.02-3.89-2.37-.1-3.17.53-6.4-.5-9.49-.59-1.76-1.46-3.4-3.82-3.17-2.35.24-2.77,1.88-3.06,3.83-.38,2.58-.9,5.15-1.52,7.69-.18.72-.49,2.39-1.57,1.64-3.39-2.33-3.12.74-3.71,2.35-.48,1.3-.98,2.31-2.24,3.2-2.79,1.97-5.62,4.15-4.81,7.88Zm75.04,424.73c4.8.52,9.29-1.56,13.66-4.11,2.4-1.4,3.29-3.42,2.49-6.06-1.54-5.09-3.17-10.15-4.78-15.21-2.12-6.66-5.85-12.8-6.31-20.02-.12-1.88-1.02-3.71-1.54-5.56-.2-.71-.56-1.51-1.34-1.05-1.92,1.12-3.97,1.6-6.14,1.9-1.08.15-.76,1.08-.64,1.92.69,4.6,1.23,9.2,2.51,13.73,1.05,3.72,1.45,7.76-.52,11.36-3.56,6.53-4.13,13.19-1.95,20.27.71,2.31,1.77,3.3,4.56,2.83Zm-44.41-393.78c-.27-3.03-.31-5.55-.74-8.01-.94-5.37-3.56-6.53-8.43-4.66-3.36,1.29-6.91,2-10.32,3.35-2.42.96-3.59,2-4.02,4.26-.19.99-.16,1.97-.65,2.95-1.91,3.79-.77,7.59,2.84,9.88,4.45,2.82,17.88-.41,20.51-5.02.54-.95.65-2.15.82-2.74Zm12.18,21.2c2.81-3.12,3.9-6.77,5.67-10.04,4.07-7.55,7.59-15.48,15.16-20.49,2.05-1.35,3.77-3.12,4.15-5.84.16-1.15.76-2.28-.46-3.06-1.13-.73-2.17-.1-3.11.63-3.43,2.68-6.44,5.81-8.7,9.5-2.67,4.37-6.15,7.66-10.56,10.23-2.31,1.35-5.32,3.76-4.67,6.12,1.15,4.17.31,8.66,2.51,12.95Zm-14.91-13.78c-4.09,1.09-6.78,4.07-10.5,3.42-2.77-.48-4.5.83-5.9,2.92-.61.92-1.9,1.84-1.44,2.9.71,1.66,2.1-.66,3.13.08-.09,1.22-2.01,1.33-1.58,2.79,1.02.95,1.84-.88,2.97-.04-.68,1.3-1.7,2.27-2.92,3.13-1.61,1.14-.73,2.96-.86,4.44-.08.89,1.1.57,1.64.27,4.67-2.53,8.78-5.76,10.92-10.74,1.24-2.9,2.51-5.76,4.55-9.17Zm66.08-47.37c1.86-2.01,1.86-3.75,1.85-5.44-.06-5.59.69-11.12,1.15-16.68.45-5.43,2.96-10.62,1.96-16.16-.85-4.71-1.49-9.44-1.89-14.2-.06-.75.08-1.85-1.13-1.63-1.12.21-.66,1.25-.61,1.99.24,3.75.42,7.5.79,11.24.86,8.89-2.16,17.32-3.04,25.99-.49,4.82-.83,9.64.93,14.89Zm-7.05-1.73c.98-2.34.86-4.48.91-6.56.17-7.29,1.77-14.36,3.35-21.42,1.57-7,.59-14.07,1-21.09.06-1.06-.37-2.14-1.73-2.05-1.35.09-1.51,1.21-1.54,2.27-.03.91.1,1.82.1,2.73,0,7.48.49,14.89-1.21,22.4-1.41,6.22-3.27,12.55-2.6,19.14.16,1.55.05,3.12,1.72,4.58Zm15.44-51.62c-.55.28-.44.76-.45,1.19-.02,8.75-.11,17.5-.04,26.25.05,6.23-.69,12.52,1.02,18.66.37,1.32.9,3.02,2.36,2.84,1.27-.16.62-1.92.76-2.97.11-.78-.02-1.59-.02-2.39-.07-13.78-2.46-27.39-2.93-41.14-.03-.85.26-1.84-.69-2.45Zm-46.99,44.32c7.64-1.76,13.1-5.91,18.02-10.88,5.86-5.91,7.46-13.75,9.36-21.42.68-2.74,1.68-5.45,1.26-8.37-.11-.8-.22-1.75-1.24-1.73-1.03.02-1.22.99-1.14,1.78.28,2.72-1.04,5.1-1.5,7.66-2.03,11.33-6.48,21.06-17.24,26.95-2.55,1.39-5.5,2.68-7.53,6.01Zm26.78-49.31c.35-.04.7-.08,1.05-.11.73-3.99.45-8.12-.9-11.83-3.48-9.56-9.69-17.19-17.91-23.24-2.38-1.75-4.74-3.46-7.43-4.67-.87-.39-2.21-1.19-2.75-.06-.59,1.24,1.05,1.61,1.82,1.97,6.4,3.02,11.27,8.12,15.94,13.04,4.24,4.48,7.71,10.03,8.39,16.71.28,2.76,1.17,5.46,1.79,8.19Zm8.63-4.02c-.73-3.67-1.72-7.25-3.29-10.67-4.35-9.43-8.28-19.15-18.36-24.25-.69-.35-1.34-1.28-2.01-.46-.89,1.1.37,1.42,1.02,2,2.54,2.25,5.36,4.14,7.47,6.93,4.89,6.48,8.11,13.79,10.99,21.27.72,1.88.63,4.05,1.64,5.88.39.72.83,1.45,1.84,1,.74-.33.85-1,.7-1.7Zm-99.09,158.55c-.08-.65-.15-1.56-.32-2.44-.13-.67-.36-1.47-1.21-1.37-.48.05-1.1.48-1.32.91-2.29,4.57-4.39,9.23-5.38,14.29-.25,1.29,0,2.67,1.58,2.96,2.19.39,4.44,1.32,6.63,0,.2-.12.34-.67.24-.92-1.59-4.36-.68-8.76-.22-13.42Zm91.19-186.96c-.38.76-.15,1.16.18,1.47,3.31,3.09,4.81,7.17,6.6,11.21,1.91,4.3,2.1,9.06,4.19,13.25.29.58.32,1.56,1.16,1.43,1.19-.19.72-1.23.6-1.93-1.37-8.09-3.71-15.81-9.03-22.29-1.01-1.23-2.12-2.49-3.7-3.13Zm-43.47,150.01c-.59-2.66-.22-5.6-1.33-8.28-.37-.89-.71-2.09-2.03-1.99-1.56.12-1.51,1.45-1.68,2.56-.49,3.11,1.16,5.72,2.02,8.52.29.96.4,2.31,1.74,2.1,1.5-.24,1.16-1.7,1.28-2.91Zm-34.85-74.31c-.25-.22-.49-.44-.74-.66-4.08,2.47-7.58,5.62-10.54,9.38-.6.76-.96,1.7-.21,2.47.65.66,1.63.38,2.15-.22,3.15-3.62,6.23-7.3,9.33-10.97Zm63.73-87.04c-.67.22-1.75-.36-1.98.71-.23,1.05.89,1.31,1.58,1.31,1.85,0,3.04,1.03,4.47,1.98,2.08,1.39,4,2.94,5.86,4.58.63.56,1.52.82,2.17.22.85-.78.36-1.77-.28-2.39-3.3-3.24-7.52-4.83-11.82-6.42Zm.38,98.19c.4.96-.96,3.26,1.24,3.3,2.06.04,1.87-2.19,1.86-3.74-.02-2.39.24-4.74.69-7.08.1-.52.12-1.21-.55-1.43-.71-.23-.92.39-1.2.89-1.37,2.42-2.11,4.99-2.03,8.06Zm9.58,4.53c.43-.01.85-.02,1.28-.03.94-5.1.41-10.3.62-15.45.02-.63-.2-1.45-1.11-1.39-.73.05-.77.76-.77,1.31-.02,5.19-.01,10.37-.01,15.56Zm31.69-17.6c-1.21,4.22.24,8.19.87,12.21.07.43.64.67,1.11.45.46-.22.48-.69.43-1.16-.41-3.91-.57-7.86-2.41-11.5Zm-47.06,20.24c1.73-4,1.58-7.61,2.65-10.89.07-.22-.21-.73-.44-.82-.44-.18-.92-.01-1.09.5-1.14,3.32-3.44,6.49-1.12,11.22Zm27.72-57.34c1.28-.18,1.18-1.15,1.09-2.06-.08-.91-.2-1.94-1.49-1.79-1.18.14-1.32,1.07-1.21,2.05.11.95.35,1.81,1.6,1.8Z"/>
    <path class="cls-3" d="m762.54,418.17c-1.25-6.02-1.37-12.22-3.16-18.16-1.92-6.4-3.71-12.85-4.36-19.67,1.2.56.94,1.65,1.14,2.48,2.88,12.35,6.38,24.51,10.3,36.58,2.05,6.3,4.82,12.46,5.54,19.17-1.21-.69-1.54-1.97-1.84-3.13-1.17-4.62-3.13-8.95-4.71-13.42-.58-1.64-1.22-3.17-2.95-3.91l.03.06Z"/>
    <path class="cls-3" d="m797.28,495.5c1.03-4.38-.48-8.56-1.18-12.75-.83-5.02.64-9.69,1.03-14.53.95-11.79.85-23.66,1.16-35.5.05-2.12,0-4.24.15-6.36.21,23.05.93,46.1-1.15,69.13Z"/>
    <path class="cls-3" d="m731.1,483.84c2.11-19.45,3.02-38.97,3.77-58.51.21-5.56.41-11.12.1-16.68,0,12.01-.07,24.03.02,36.04.08,11.05-.58,22.04-2.13,32.98-.3,2.12-.41,4.31-1.8,6.12,0,0,.05.04.05.04Z"/>
    <path class="cls-3" d="m792.96,354.63c2,8.09,1.37,16.41,1.36,24.69-1.99-8.1-1.26-16.39-1.36-24.69Z"/>
    <path class="cls-3" d="m795.77,431.44c1.62,4.12.77,8.36.68,12.73-1.48-3.44-1.91-9.14-.68-12.73Z"/>
    <path class="cls-3" d="m795.07,404.49v-18.82c-.11,5.24,1.3,11.96,0,18.82Z"/>
    <path class="cls-3" d="m783.15,365.92c-.8-3.55-1.94-7.01-1.41-10.69,1.79,3.38,1.33,7.11,1.41,10.69Z"/>
    <path class="cls-3" d="m780.41,451.43c-1.14-4.18-3.06-8.11-3.79-12.41,2.18,3.85,2.81,8.19,3.79,12.41Z"/>
    <path class="cls-3" d="m759.55,385.87c2.07,2.26,3.15,4.86,2.67,8.54-1.92-2.89-1.27-6.06-2.67-8.54Z"/>
    <path class="cls-3" d="m801.25,490.01v9.45c-.05,0-.11,0-.16,0v-9.33c.05-.04.11-.08.16-.13Z"/>
    <path class="cls-3" d="m721.42,292.37c1.95-.21,2.9.87,3.25,2.62.04.22-.37.77-.47.74-1.77-.43-2.49-1.74-2.72-3.42,0,0-.06.06-.06.06Z"/>
    <path class="cls-3" d="m768.65,116.04c-4.04-2.8-6.21.48-9.22,2.92-5.86,4.75-13.92,1.84-16.71-5.22-1.36-3.44-1.42-6.51.27-9.76,1.13-2.16-.65-3.9-1.4-5.63-1.19-2.72-1.49-5.44-1.41-8.3.03-1.17.06-2.45,1.21-2.99,1.06-.5,1.87.47,2.63,1.12,6.88,5.98,15.07,9.46,23.64,12.11,5.62,1.74,11.4,1.62,17.22.95,1.42-.17,3.59-1.08,4.33.62.59,1.36-1.41,2.38-2.34,3.41-4.08,4.59-8.43,8.87-14.83,10.06-1,.19-1.99.42-3.38.71Zm-19.24-10.02c-2.12-.41-3.53.88-4.95,2.11-.58.5-1.36,1.09-.55,1.91.61.62,1.22.03,1.74-.37,1.05-.82,2.09-1.66,3.14-2.49-.63,2.74-1.27,5.48-2,8.66,4.41-2.81,2.86,3.79,5.91,3.28-1.1-3.93-.73-4.9,2.14-5.71.44,1.32-2.51,2.58-.33,3.71,2.1,1.09,2.51-1.17,3.42-2.36.5-.65.83-2.27,1.78-1.64,2.28,1.52,3.39-.38,4.69-1.33,1.14-.83,3.72-.67,3.05-2.96-.57-1.94-2.43-2.45-4.41-2.97-1.45-.38-3.06.29-4.19-.53-4.28-3.11-5.92-3.06-9.43.69Z"/>
    <path class="cls-3" d="m771.89,73.01c.03,7.35-8.35,15.15-16.24,15.35-6.24.16-13.37-8.99-13.45-15.26-.1-7.51,8.77-15.94,13.98-15.75,9.2.33,16.04,5.54,15.71,15.66Zm-17.29,12.38c7.31.03,14.85-7.1,14.9-14.08.04-6.14-5.23-11.52-11.39-11.61-7.2-.11-13.5,6.31-13.57,13.82-.06,6.62,4.37,11.85,10.06,11.87Z"/>
    <path class="cls-3" d="m785.18,73.78c3.63.06,8.4,4.36,8.96,8.33.13.92.22,2.02-.72,2.42-.86.37-1.4-.61-1.82-1.23-1.27-1.87-2.58-3.79-4.56-4.87-2.59-1.42-5.36-2.66-8.36-.87-.58.34-1.31.76-1.64-.25-.2-.61.25-1.12.81-1.31,2.33-.8,4.43-2.38,7.33-2.22Z"/>
    <path class="cls-3" d="m791.2,65.4c-3.67.73-7.5.06-10.5,2.66-.38.33-.85.45-1.16-.04-.16-.24-.22-.7-.1-.94,1.25-2.46,3.21-4.18,5.89-4.77,2.54-.56,4.76,0,5.87,3.1Z"/>
    <path class="cls-3" d="m767.67,171.7c.72-2.53,3.01-3.71,5.25-6.07-1.33,3.09-3.54,4.37-5.25,6.07Z"/>
    <path class="cls-3" d="m761.01,73.99c-.43,1.78-.19,4.36-3.68,4.17-2.97-.16-4.93-1.94-4.96-4.87-.03-2.68,1.87-4.97,4.13-4.97,2.75,0,4.54,2.11,4.51,5.68Z"/>
  </g>
</svg>