<?xml version="1.0" encoding="UTF-8"?>
<svg id="homme-1" xmlns="http://www.w3.org/2000/svg" xmlns:xlink="http://www.w3.org/1999/xlink" viewBox="0 0 1080 1080">
  <defs>
    <style>
      .cls-1, .cls-2, .cls-3, .cls-4, .cls-5 {
        stroke-width: 0px;
      }

      .cls-2 {
        fill: #bfab9b;
      }

      .cls-3 {
        fill: url(#Dégradé_sans_nom_19);
      }

      .cls-4 {
        fill: url(#Dégradé_sans_nom_21);
      }

      .cls-5 {
        fill: url(#Dégradé_sans_nom_23);
      }
    </style>
    <linearGradient id="Dégradé_sans_nom_21" data-name="Dégradé sans nom 21" x1="429.31" y1="367.69" x2="527.15" y2="366.54" gradientUnits="userSpaceOnUse">
      <stop offset=".09" stop-color="#aeb9b0"/>
      <stop offset=".2" stop-color="#b0b2ac"/>
      <stop offset=".35" stop-color="#b7a1a1"/>
      <stop offset=".52" stop-color="#c28590"/>
      <stop offset=".7" stop-color="#d15d77"/>
      <stop offset=".9" stop-color="#e52b59"/>
      <stop offset="1" stop-color="#f01048"/>
    </linearGradient>
    <linearGradient id="Dégradé_sans_nom_23" data-name="Dégradé sans nom 23" x1="325.47" y1="502.41" x2="555.73" y2="622.64" gradientUnits="userSpaceOnUse">
      <stop offset=".5" stop-color="#aeb9b0"/>
      <stop offset="1" stop-color="#3b2f35"/>
    </linearGradient>
    <linearGradient id="Dégradé_sans_nom_19" data-name="Dégradé sans nom 19" x1="424.34" y1="467.86" x2="491.89" y2="388.3" gradientUnits="userSpaceOnUse">
      <stop offset="0" stop-color="#757473"/>
      <stop offset=".9" stop-color="#beaa9a"/>
    </linearGradient>
  </defs>
  <path class="cls-4" d="m397.09,293.77c-.39,2.75,1.96,23.56,2.75,32.59s1.96,35.34,2.36,41.62,2.36,22.77,3.14,29.05,3.53,13.74,0,16.1-7.07,3.93-7.85,8.25,3.93,8.64,1.18,11.78-6.67,4.71-6.67,10.6,6.28-15.31,10.21-11.39,9.82,4.32,11.78.39,1.96-16.88,1.18-20.02,5.1-16.49,8.64-19.63,12.96-5.89,16.1-6.28,16.49-.79,20.02-1.18,14.92,3.53,16.88,3.93,8.25,10.6,8.25,10.6c0,0,5.5,12.96,4.71,15.31s-5.1-37.69-6.67-43.97-8.25-26.31-10.6-33.77-16.88-36.51-19.63-38.87-9.42-9.03-14.13-7.85-10.21,5.89-12.56,4.71-6.67-4.71-11.39-4.32-17.67,2.36-17.67,2.36Z"/>
  <path class="cls-5" d="m366.86,483.02c9.75-7.4,28.78-6.39,32.59-3.93,3.3,2.13,5.89,1.57,9.03.39s3.53-7.85,4.32-6.28,4.32,7.46,10.99,12.56,25.13,10.99,27.88,9.03,13.74,0,19.24-8.64,10.21-18.06,10.21-12.17.79,19.63,3.53,20.81,38.48,16.1,42.4,16.1,14.92,7.07,17.67,11.39,7.17,70.08-3.14,91.78c-16.78,35.34-74.21,15.9-114.84,14.13-42.17-1.83-35.34-1.77-74.21-3.53-46.91-2.13-30.43-97.66-20.22-105.91s33.56-34.98,34.55-35.73Z"/>
  <path class="cls-3" d="m426.74,392.03c-6.48,4.12-13.25,17.67-12.37,23.26s1.18,15.9-.88,20.61-5.79-5.01-11.29-3.53c-5.5,1.47-8.15,5.89-8.74,9.42s-2.65,12.96,1.18,15.9,12.37,5.3,13.84,7.95,4.12,5.59,5.01,8.54,5.01,8.25,7.66,9.72,20.02,17.67,35.63,10.01,19.43-11.78,19.73-14.72,6.18-8.54,7.36-15.02,3.99-10.92,3.99-10.92c0,0,4.26,3.27,5.14.32s3.24-10.6,3.53-13.55.88-10.31-2.94-11.48-6.77-1.47-6.77-4.42,3.83-16.78,1.18-23.56-15.9-14.72-19.14-15.02-16.78.59-20.02,1.18c-3.24.59-22.09,5.3-22.09,5.3Z"/>
  <path class="cls-2" d="m446.46,409.4c-1.47.29-7.66.29-9.13.29s-6.18,4.42-6.48,6.48.29,5.89,2.65,7.95,3.53,3.83,6.18,3.24,7.66.88,9.13-2.06,3.24-4.12,2.94-8.25-5.3-7.66-5.3-7.66Z"/>
  <path class="cls-2" d="m469.14,415.88c3.24-.59,8.25-.59,8.54.88s2.65,4.42,1.77,7.07-1.84,9.23-4.45,9.33-5.56-1.96-6.44-2.85-3.53-5.89-3.53-8.54-.29-4.12.29-5.01,3.83-.88,3.83-.88Z"/>
  <g>
    <path class="cls-1" d="m541.05,514c-11.68-5.33-23.37-10.63-35.67-14.45-5.21-1.61-10.38-3.43-15.39-5.56-5.34-2.26-7.72-7.37-6.31-12.87.67-2.64,1.13-5.37.53-7.9-.87-3.66-.79-5,3.52-3.48,3.19,1.13,6.48.38,8.84-2.5.83-1.02,1.99-2.24,1.34-3.52-.91-1.79-2.35-.24-3.49.03-2.81.67-5.97,1.67-7.16-1.92-.9-2.71-1.32-6.04.6-8.59,5.27-7.01,5.45-14.58,3.09-22.56-.17-.58-.3-1.19.27-1.61.76-.56,1.42-.11,1.95.4,1.33,1.31,1.94,3.02,2.04,4.81.24,4.43.46,8.85-1,13.19-.85,2.54-2.08,5.05-2.03,8.71,5.43-6.92,5.7-14.24,5.53-21.65-.13-5.42-1.5-7.04-6.82-8.6-1.41-.41-3.95-1.14-1.66-2.97,3.31-2.65,3.35-5.44,2.29-9.04-.66-2.23-.58-4.68-.86-7.03-1.6-13.08-.72-26.42-7.04-38.88-4.25-8.37-5.69-18-8.31-27.1-4.81-16.69-10.55-32.98-23.05-45.84-5.49-5.65-15.12-5.71-20.57.08-1.06,1.12-2.26,1.25-3.61,1.27,2.48.5,5.04,1.06,7.4-.11,7.28-3.6,12.09.16,16.4,6.18,5.34,7.45,8.54,16.03,12.71,24.09,4.61,8.91,7.22,18.3,10.53,27.55,1.51,4.21,1.36,8.84,3.38,12.94.58,1.17-.21,2.02-1.56,1.91-1.07-.09-2-1.27-3.27-.56.29,2.6,4.81,1.86,3.83,4.68-.78,2.23-3.18-.68-4.93.65.75,2.21,3.47,2.02,4.58,3.68.56.84,1.74,1.59,1.08,2.64-.74,1.19-1.81.28-2.74-.11-2.86-1.2-5.71-3.46-9.18-.02,3.71,1.06,7.06,1.95,10.36,3,1.41.45,3.11,1.33,2.5,3.07-.72,2.07-2.47.83-3.78.43-8.7-2.71-17.43-4.56-26.41-1.15-.47.18-1.43.16-1.59-.11-3.21-5.27-7.84-3.03-11.82-1.89-8.34,2.4-14.1,8.34-19,15.22-1.45,2.04-2.96,4.05-4.46,6.06-.66.89-.87,2.51-2.4,2.18-1.2-.26-.73-1.78-1.29-2.62-1.51-2.32-.22-4.54.25-6.83.43-2.13,3.19-4.48-.64-6.44-.98-.5-.09-2.17.61-3.17,1.25-1.77,2.5-3.54,3.79-5.37-1.59-.83-1.86.31-2.45.84-.87.79-1.35,3.03-2.86,1.78-1.21-.99.4-2.35,1.05-3.42,1.37-2.26,2.79-4.49,4.27-6.84-1.28-.89-1.55.38-2.06.79-.75.59-1.51,1.1-2.38.51-1.13-.76-.65-1.79-.23-2.77,1.22-2.89,4.38-5.56.98-8.98-.18-.18-.03-1.02.23-1.24,3.96-3.42,1.36-9.15,5.28-12.83-2.03-.15-2.08,1.31-2.98,1.68-.68.29-1.37.85-2.05.36-.7-.5-.48-1.34-.17-2.02,1.05-2.29.77-4.99,2.22-7.17.32-.47.74-1.33.55-1.62-3.49-5.05,1.19-8,2.93-12.14-2.3,1.22-3.48,1.22-4-1.99-.52-3.2-2.86-6.06-.61-9.53.68-1.04-.57-1.9-1.42-2.43-1.87-1.15-2.61-3.01-3.52-4.83-.42-.84-.06-3.4-2.43-1.66-.07.05-.9-.65-1.09-1.12-1.95-4.67,1.73-12.24,6.6-13.73,5.68-1.75,11.11-.3,16.55,1.19-3.32-2.7-7.08-4.04-11.4-4.22-3.68-.16-7.36-.66-11-1.27-5.52-.92-9.32,1.76-9.85,7.36-.22,2.35-.07,4.69.4,7.06,1.83,9.1,3.44,18.16,4.05,27.53,1.61,24.76,2.05,49.69,7.41,74.1.37,1.68,1.16,3.76-.78,4.89-7.79,4.53-8.25,11.56-6.87,19.3.43,2.43-.13,4.35-1.75,6.48-7.91,10.37-4.1,25.41,7.38,27.84,5.3,1.12,5.78,4.04,5.94,7.99.2,4.81-3.36,7.06-7.81,5.11-2.71-1.19-5.39-2.56-8.24-3.27-8.71-2.18-17.79-1.14-24.64,3.82-16.24,11.76-30.5,25.73-39.09,44.46-.49,1.07-1.28,2.07-.4,3.28.95,1.3,2.12,1.21,3.55.8.86-.25,1.82-.57,2.73-.64.95-1.32,2.05-2.45,3.36-3.51.15-.12.3-.22.46-.32,1.26-3.24,3.12-5.58,5.12-7.8,8.61-9.57,17.16-19.19,25.93-28.61,4.47-5.7,10.18-8.34,18.9-6.25,2.02.48,4.02.66,6.13.63,5.06-.08,8.23,3.05,8.96,8.04.92,6.29,1.91,12.56,8.42,16.01,3.81,2.02,6.95,4.92,9.95,8.04,2.07,2.15,4.91,2.81,8.54,2.16-15.11-8.27-21.33-14.32-21.54-20.92,5.57,1.68,8.78,6.84,14.1,9.02-1.44-1.43.15-3.99-1.27-4.7-6.01-3.01-8.11-9.57-12.9-13.62-.85-.72-1.47-1.73-.93-2.72.81-1.51,1.61-.14,2.49.19,1.28.49,2.67.67,4.54,1.11-.57-1.1-.85-1.75-1.22-2.34-.54-.86-1.59-1.85-.77-2.75,1.16-1.27,2.11.2,2.99.81,1.64,1.14,3.18,2.42,4.76,3.65-4.43-4.83-7.94-10.08-10.01-16.19-1-2.97-2.56-4.1-5.76-4.2-5.39-.16-10.26-3.83-10.69-7.7-.48-4.3.06-8.54,1.39-12.7.92-2.9,2.78-4.46,5.76-4.68,2.92-.21,4.1,1.97,5.22,4.08,1.9,3.6,2.54,7.55,2.91,11.53.32,3.48,3.13,4.76,5.51,4.54,2.45-.23,1.08-3.14,1.17-4.92.02-.29-.03-.6-.12-.88-2.37-7.65-.21-14.66,3.32-21.33,2.32-4.38,2.63-8.41.67-13.09-4.34-10.34,1.31-21.45,12.19-23.49,6.54-1.23,12.92-3.31,19.51-4.04,6.87-.77,14.09-2,20.63.46,10.54,3.96,16.61,16.07,14.72,27.37-1.01,6.07-2.13,12.12-3.23,18.33,1.14-.78,2.26-1.28,3.01-2.11,2.07-2.28,3.4-1.2,3.35,1.08-.11,5.12-.73,10.24-1.23,15.35-.08.82-.48,1.82-1.61,1.8-.99-.02-1.04-.94-1.09-1.64-.49-6.09-5.13-7.81-9.88-9.24-1.65-.5-3.08-.74-3.41-2.81-.32-2.07.51-3.14,2.22-4.27,4.97-3.29,6.47-9.54,3.98-15.36-1.58-3.71-4.4-4.57-11.07-3.36-.86.16-1.8.63-2.25-.55-.34-.91-.09-1.84.75-2.34,1.91-1.13,3.93-2.06,5.82-3.22,3.1-1.9,4.78-.8,6.09,2.3,1.02,2.41,1.32,5.33,4.28,7.56-.57-4.81-1.06-8.93-2.53-12.77-1.05-2.73-2.79-5.29-5.32-6.88-2.74-1.72-4.64.61-6.68,1.96-.22.15-.58.17-.86.13-2.66-.43-3.52,1.36-3.69,3.37-.84,9.73.4,19.14,4.82,27.98,1.12,2.24,2.64,4.43,1.63,7.1-1.79,4.73-7.34,8.68-11.6,8.37-4.39-.31-9.65-5.59-10.57-10.67-.18-.97.11-2.16-1.65-2.35-.16.49-.56,1.05-.46,1.5,1.05,4.57-.81,5.06-5.01,4.65-8.16-.79-16.87,3.64-18.28,9.69-1.19,5.09-1.93,9.99-5.72,13.97-.92.96-.86,2.93.27,4.13,1.41,1.5,2.79.21,3.95-.53,2.64-1.67,5.1-3.62,6.57-6.47.94-1.82,2.29-2.12,4.25-2.76,4.87-1.59,10.64,2.84,14.79-2.39.22-.28,1.37-.27,1.65.02,2.82,2.94,5.26,1.24,7.71-.51.77-.55,1.64-.99,2.39-.25,1.12,1.11-.13,1.81-.68,2.59-2.38,3.37-1.46,6.49.92,9.31,2.33,2.77,5.91,2.1,6.82-1.38.71-2.73.79-5.57-1.69-7.81-.73-.66-2.36-1.03-1.37-3.02,3.17.64,6.31.71,9.71-.2,1.73-.46,5.98.17,6.72,4.4.83,4.81.81,9.39-1.03,13.94-.47,1.15-2.5,3.27,1.28,2.75.91-.12,1.22,1.24,1.01,2.13-.36,1.51.4,3,.21,4.35-.77,5.69,1.15,12.23-3.97,16.68-5.35,4.65-11.32,7.68-18.94,5.76-3.62-.92-7.53-2.64-11.24-.87-3.02,1.43-5.41.85-7.87-.77-2.43-1.6-4.92-2.4-8.17-1.11,2.61,2.12,5.95,1.99,8.13,3.83,2.03,1.71,4,2.6,6.44,1.62,2.58-1.04,3.89-.62,3.9,2.42,0,.99.39,2.21,1.83,1.94,1.11-.21,1.14-1.28,1.08-2.15-.28-3.73,1.53-3.71,4.4-2.83,3.38,1.02,6.92,1.49,10.35,2.36,3.5.89,6.33.03,8.87-2.52,2.5-2.51,5.28-4.72,7.52-7.51,2.67-3.31,4.23.92,6.35,1.35,2.16.44.72,2.3-.15,3.46-1.61,2.14-3.79,3.89-4.66,6.71,5.47-4.29,11.46-6.67,18.42-6.14,1.39.11,3.43-.75,3.87,1.03.53,2.12-1.68,2.5-3.17,2.88-3.64.92-6.39,2.78-8.03,6.66,2.02-.9,3.79-1.57,5.44-2.45,5.56-2.98,11.23-3.29,17.09-.99,2.76,1.08,5.6,1.81,8.63,1.77,9.28-.14,15.8,4.24,19.28,12.73.41,1.01.53,2.34,1.93,2.7,2.25-7.32.41-11.93-6.48-15.08Zm-136.69-197.27c2.62,4.53,2.21,9.26,1.07,14.04-1.99-4.54-1.94-9.26-1.07-14.04Zm1.19,105.83c-.15,1.45-.36,2.9-.52,4.35-.16,1.4.25,3.25-1.83,3.42-2.05.17-2.61-1.54-3.04-3.14-.15-.56-.17-1.16-.18-1.18-.11-2.23.28-3.82,1.26-5.13,1.03-1.37,2.28-3.31,4.16-2.53,2.21.92.3,2.77.15,4.21Zm7.22,1.22c-.82,2.1-.81,4.31-1.09,6.5-.21,1.66-.14,4.05-2.59,3.83-2.4-.21-1.87-2.55-2.08-4.06.51-2.93.64-5.8,3.04-7.78.69-.57,1.48-1.17,2.35-.52.63.47.66,1.33.38,2.04Zm59.19,7.89c-3.03-1.53-4.68-4.34-5.48-7.6-.21-.85-.15-1.75-.24-2.99.1-.67.14-1.72.44-2.69.33-1.07,1.13-1.75,2.36-1.4,1.06.3,1.21,1.13,1.03,2.1-.11.58-.29,1.16-.28,1.73,0,2.05,1.07,3.59,3.07,3.59,1.98,0,2.5-1.67,2.37-3.5-.06-.9-.94-2.24.72-2.48,1.27-.18,1.59,1.05,1.92,2.03,1.16,3.49.61,6.68-1.72,9.52-1.07,1.31-2.56,2.51-4.19,1.69Z"/>
    <path class="cls-1" d="m440.75,428.4c-.39-.07-1.9-.11-3.27-.59-4.72-1.66-7.7-6.2-7.06-10.53.65-4.44,4.1-7.26,9.4-7.86,1.62-.18,4.02.87,4.59-1.46.56-2.29-.78-4.19-2.66-5.69-4.72-3.76-5.35-3.83-10.14.13-1.35,1.12-2.48,2.51-3.72,3.77-.53.53-1.12,1.1-1.93.69-.8-.41-.68-1.22-.56-1.95.79-4.81,5.7-10.07,10.07-10.8,5.12-.85,8.77,1.11,11.74,6.75,2.69,5.1,5.37,10.25,5.51,16.24.15,6.58-4.46,11.36-11.97,11.31Zm10.26-9.9c.06-5.97-1.61-7.19-9.85-7.24-6.09-.04-8.56,1.84-8.54,6.48.02,4.47,4.99,9.07,9.82,9.09,4.73.02,8.52-3.66,8.56-8.32Z"/>
    <path class="cls-1" d="m472.76,482.97c-3.16,7.6-15.28,13.73-22.9,11.87,8.41-1.92,16.63-4.19,22.9-11.87Z"/>
    <path class="cls-1" d="m399.77,444.89c4.01-.75,5.24.31,5.34,4.84-1.89-1.71-3.57-3.23-5.34-4.84Z"/>
    <path class="cls-1" d="m458.54,477.38c-2.36.66-4.6,1.62-6.95,2.34,1.95-1.68,4.01-3.11,6.95-2.34Z"/>
    <path class="cls-1" d="m459.26,472.82c2.06-.7,4.13-1.4,7.34-2.5-2.61,2.71-4.71,3.32-7.34,2.5Z"/>
    <path class="cls-1" d="m424.07,378.76c7.75-8.18,24.89-10.9,30.36-4.75-10.37.88-20.72.46-30.36,4.75Z"/>
    <path class="cls-1" d="m418.27,349.94c.84-2.92,2.71-4.6,4.51-6.64.23,3.48.02,3.79-4.51,6.64Z"/>
    <path class="cls-1" d="m430.49,358.41c-3.1,2.38-6.2,4.75-10.26,7.86,3.14-4.08,6.45-6.19,9.39-8.7.29.28.58.56.87.83Z"/>
    <path class="cls-1" d="m445.43,421.02c-1.68-.53-3.34-1.01-3.28-3.06.06-2.01,1.21-3.31,3.28-3.29,1.78.02,2.41,1.29,2.44,2.97.03,1.82-.58,3.09-2.44,3.38Z"/>
  </g>
</svg>