<?xml version="1.0" encoding="UTF-8"?>
<svg id="homme-2" xmlns="http://www.w3.org/2000/svg" xmlns:xlink="http://www.w3.org/1999/xlink" viewBox="0 0 1080 1080">
  <defs>
    <style>
      .cls-1 {
        fill: url(#Dégradé_sans_nom_23-3);
      }

      .cls-1, .cls-2, .cls-3, .cls-4, .cls-5, .cls-6, .cls-7 {
        stroke-width: 0px;
      }

      .cls-2 {
        fill: url(#Dégradé_sans_nom_23-2);
      }

      .cls-4 {
        fill: #bfab9b;
      }

      .cls-5 {
        fill: url(#Dégradé_sans_nom_19);
      }

      .cls-6 {
        fill: url(#Dégradé_sans_nom_21);
      }

      .cls-7 {
        fill: url(#Dégradé_sans_nom_23);
      }
    </style>
    <linearGradient id="Dégradé_sans_nom_23" data-name="Dégradé sans nom 23" x1="129.63" y1="521.41" x2="329.42" y2="521.41" gradientUnits="userSpaceOnUse">
      <stop offset=".5" stop-color="#aeb9b0"/>
      <stop offset="1" stop-color="#3b2f35"/>
    </linearGradient>
    <linearGradient id="Dégradé_sans_nom_21" data-name="Dégradé sans nom 21" x1="141.19" y1="278.96" x2="200.53" y2="278.96" gradientUnits="userSpaceOnUse">
      <stop offset=".09" stop-color="#aeb9b0"/>
      <stop offset=".2" stop-color="#b0b2ac"/>
      <stop offset=".35" stop-color="#b7a1a1"/>
      <stop offset=".52" stop-color="#c28590"/>
      <stop offset=".7" stop-color="#d15d77"/>
      <stop offset=".9" stop-color="#e52b59"/>
      <stop offset="1" stop-color="#f01048"/>
    </linearGradient>
    <linearGradient id="Dégradé_sans_nom_19" data-name="Dégradé sans nom 19" x1="142.32" y1="372.85" x2="227.08" y2="372.85" gradientUnits="userSpaceOnUse">
      <stop offset="0" stop-color="#757473"/>
      <stop offset=".9" stop-color="#beaa9a"/>
    </linearGradient>
    <linearGradient id="Dégradé_sans_nom_23-2" data-name="Dégradé sans nom 23" x1="164.52" y1="330.71" x2="188.26" y2="330.71" xlink:href="#Dégradé_sans_nom_23"/>
    <linearGradient id="Dégradé_sans_nom_23-3" data-name="Dégradé sans nom 23" x1="189.28" y1="319.07" x2="209.55" y2="319.07" xlink:href="#Dégradé_sans_nom_23"/>
  </defs>
  <path class="cls-7" d="m321.83,524.4c-1.18,5.89,10.19,84.74,7.05,86.31s-13.1,4.06-15.85,4.84-11.49,2.94-15.41,1.76-22.3,2.2-24.66,2.2-65.21,8.8-69.58,9.25c-25.54,2.64-44.48-3.96-53.72-25.98-1.36-3.24-16.75-46.74-17.14-55.77s-3.53-31.41-2.75-38.08,5.5-24.34,8.64-28.27,16.51-17.89,17.87-21.11,8.43-18.15,8.43-20.11,1.18-8.07,4.32-7.07c2.85.91,2.04,6.13,9.03,8.25s8.64,3.93,12.96,5.5,12.56,2.36,12.56,2.36c0,0,1.96-5.89,6.28-4.71s10.99.39,12.96-2.75,4.71-8.64,3.14-12.17-7.07-5.1-5.89-9.82,2.36-5.1,5.1-5.5,9.82,6.28,9.82,6.28c0,0,8.64,18.45,17.28,21.99s22.38,18.85,22.38,18.85c7.85,2.36,14.92,11.78,17.28,14.13s10.21,12.56,10.6,15.31,10.6,7.46,10.6,13.35,8.72,20.96,8.72,20.96Z"/>
  <path class="cls-6" d="m178.05,298.88c-4.71,2.75-10.6,7.07-13.35,9.42s-5.5,9.42-8.25,10.21-6.28-10.21-6.67-16.1c-.39-5.89-5.5-33.37-5.5-33.37,0,0-4.32-14.13-2.75-17.28s7.85-7.46,9.82-7.46,6.28,1.57,9.42-1.96,3.93-3.53,7.07-1.96,7.85,3.93,9.42,9.42,15.31,31.8,16.1,35.34,6.28,12.96,7.07,16.1-3.14,1.57-7.07-.39-15.31-1.96-15.31-1.96Z"/>
  <path class="cls-5" d="m156.46,323.22c0,3.53,2.36,12.96.79,12.17s-7.07-6.67-9.82-5.5-5.1,8.64-5.1,8.64c0,0,4.71,12.96,7.85,13.74s7.85,6.67,8.25,7.85,0,13.35,0,15.7,1.18,10.21,3.53,12.56,8.25,11.39,9.03,15.7,2.36,11.78,1.18,14.92-4.71,12.56-3.14,13.35,9.42,11.39,14.13,12.17,10.6,1.96,14.92,2.36,5.5,0,9.42-1.57,7.07,1.96,10.6-1.18,7.46-9.82,8.64-10.99-.79-5.1-3.53-9.82-8.25-15.31-7.85-19.63,0-10.6,1.96-14.13,6.67-9.82,7.07-12.56,1.96-15.31,0-20.02-7.85-11.39-7.85-12.96-.79-9.03-.79-9.03l3.53-6.28s2.36-9.03.39-9.82-9.82,1.96-11.39.39-4.32-8.64-6.28-8.64-2.75-7.07-6.67-9.03-12.17-3.53-17.28-2.75-13.35,6.67-13.35,6.67l-8.25,17.67Z"/>
  <path class="cls-2" d="m168.23,320.47c-4.02,2.19-3.93,9.42-3.53,12.17s7.07,9.03,9.03,9.82,8.25,2.36,10.6,0,3.93-12.56,3.93-15.31-2.75-9.42-5.1-9.42-10.6.39-14.92,2.75Z"/>
  <path class="cls-1" d="m190.61,312.62c-2.75,2.75-.39,13.35-.39,13.35,0,0,8.25,3.93,10.99,3.53s7.85.79,8.25-3.93-.39-9.42-3.14-10.99-8.64-6.67-9.82-5.89l-5.89,3.93Z"/>
  <path class="cls-4" d="m191.4,318.12s1.18-2.75,3.14-1.96,5.1,3.14,5.1,3.14c0,0,.39,5.1-1.18,6.28s-5.89,0-5.89,0l-1.18-7.46Z"/>
  <path class="cls-4" d="m175.3,322.43s-3.14,1.96-3.14,4.71,1.57,6.28,3.53,7.07,5.89.79,6.67-2.75,1.57-4.71.79-6.67-5.5-4.32-7.85-2.36Z"/>
  <path class="cls-3" d="m163.13,330.48c-2.6,1.83-5.47,3.53-7.49,5.89,2.49,3.3,5.98-.73,7.44-3.62-.14-1.17-.46.05-1.13.08"/>
  <g>
    <path class="cls-3" d="m321.93,529.86c-.95-11.37-4-22.07-9.88-31.89-.45-.74-1.03-1.69-1.75-1.94-4.24-1.48-5.42-5.22-6.72-8.84-1.22-3.4-3.1-6.35-5.4-9.11-10.75-12.87-24.29-22.38-37.72-32.12-7.64-5.54-16.18-10.23-20.21-19.89-2.22-5.31-4.21-6.36-6.16-7.49,4.53,7.39,4.03,15.23,1.36,23.28-.48,1.45-2.88,3.43-.46,4.53,2.43,1.11,3.42-1.48,4.25-3.4.23-.54.31-1.16.59-1.67,1.4-2.52,2.66-3.32,5.93-1.71,6.46,3.18,11.87,7.73,17.54,11.92,7.18,5.3,14.48,10.6,19.12,18.57.36.61.6,1.66,1.46,1.35,4.79-1.72,3.94,2.17,4.25,4.45.44,3.25-.18,6.48-.98,9.67-1.51,6.05-2.91,12.13-4.36,18.2,3.56-5.52,4.16-12.18,7.18-18.59,1.41,2.68.55,4.43.15,6.06-2.73,10.99-6.54,21.53-13.51,30.66-1.04,1.37-2.45,2.73-1.56,5.47,7.48-10.21,12-21.22,17.42-31.71.41.19.81.38,1.22.56-1.24,3.48-2.49,6.96-4.11,11.48,3.44-4.01,3.53-8.66,6.91-11.49-1.69,3.67,2.68,6.76.49,10.48-2.93,4.96-4.81,10.63-8.21,15.2-3.29,4.42-3.52,12.16-12.23,11.7-2.74-.14-2.34,4.14-1.57,6.44.71,2.14.89,3.42.59,4.19,5.9-.07,11.19.85,11.89,6.4.38.09.75.17,1.13.26,1.48.38,2.9.03,4.36-.36,9.94-2.67,18.25-8.28,26.2-14.53,1.95-1.54,3.02-3.46,2.8-6.15Zm-38.58,12.22c-.68-.96.24-1.58.77-2.24,3.61-4.44,7.03-9,9.63-14.13-3.98,3.56-5.99,9.12-11.34,11.43-1.06-1.57.19-2.35.83-3.16,8.08-10.22,14.41-21.5,19.94-33.25.4-.86.42-2.39,1.84-1.95,1.33.41.73,1.77.54,2.69-1.13,5.57-4.59,10.17-6.56,15.39,3.38-2.59,3.89-7.16,6.91-10.32,1.73,1.82.71,3.46.11,4.98-3.07,7.85-7.17,15.16-11.6,22.31-.84,1.36-1.59,2.78-2.37,4.17-2.14,1.44-3.46,4.03-6.26,4.54-.86.16-1.86.33-2.44-.48Zm11.33,5.67c-2.61.4-3.61-.25-1.66-2.7-2.17.4-4.75,3.37-6.24,1.19-1.42-2.08,2.1-3.58,3.37-5.38.66-.93,1.28-1.89,1.92-2.84,6.29-5.9,9.69-13.61,13.26-21.21.31-.67.46-1.41.74-2.09.37-.93.62-2.27,2.02-1.76,1.26.46.91,1.73.66,2.7-2.08,7.91-4.58,15.64-9.9,22.1-1.88,2.28-3.64,4.66-5.45,6.99,8.38-4.54,13.08-12.46,18.07-20.41.56.65,1.03.94,1.05,1.25.45,7.89-10.08,20.96-17.83,22.16Z"/>
    <path class="cls-3" d="m140.57,544.28c-.03-.13-.04-.28,0-.44-.04-1.08-.01-2.22.08-3.41-1.28-.8-2.5-1.74-3.58-2.95,1.56-.4,2.72.5,3.93.97.14-.38.31-.73.52-1.05-2.26-1.77-4.47-3.48-6.6-5.27-1.87-1.56-.8-3.36.16-4.77,1.15-1.67,2.34-.18,3.38.47,1,.62,1.89,1.42,2.85,2.11,7.02,5.06,14.2,9.85,22.99,13.64-.82-1.09-1.01-1.5-1.33-1.76-8.81-7.07-19.76-11.76-23.42-24.3-.97-3.31-1.74-6.91-2.96-10.27-.78-2.15,1.03-1.44,2.44-.98,5.21,1.7,9.18,5.22,13.21,8.67,3.75,3.21,7.53,6.39,11.79,10.01.14-2.48-1.13-3.12-2.07-3.93-3.92-3.39-7.92-6.68-11.77-10.14-4.95-4.46-9.88-8.98-13-15-.7-1.36-1.57-3.42.12-4.41,1.6-.94,2.55,1.06,3.4,2.13,3.21,4.01,6.28,8.14,10.55,11.19-1.75-2.86-3.66-5.58-5.71-8.2-4.85-6.21-4.66-12.53-.43-18.88,3.94-5.91,7.83-11.86,11.16-18.14,1.12-2.11,2.84-3.57,5.32-3.3,3.06.34,6.18.72,9.09,1.64,2.26.71,4.03.93,5.64-.96-3.18-2.73-6.54-5.21-9.39-8.18-3.92-4.07-3.12-12.08,1.3-14.03,2.77-1.22,4.39,3.77,6.36,4.95,5.53,3.31,10.29,8.71,17.01,8.97,7.68.29,12.84,4.4,17.96,9.09,1.17,1.08,1.92,2.44,3.79,2.77,2.37.42,3.18,2.69,3.47,4.68.39,2.66-2.91.56-3.5,2.27.6.4,1.39.67,1.76,1.22.95,1.42,1.12,3.02.25,4.57-.15.26-.83.5-1.09.38-1.68-.82-1.19-2.49-1.38-3.89-.08-.58-.05-1.18-.07-1.77-3.3.75-2.32,3.34-2.12,5.38.2,2.1,1.54,3.54,3.7,3.83,2.08.28,3.37-.74,3.82-2.81.16-.76.49-1.53,1.4-1.32.95.22,1.27,1.16,1.6,1.98,4,9.99,9.29,19.44,11.49,30.17,1.99,9.69,4.38,19.3,5.97,29.08.22,1.34-.33,4,2.18,3.48,2.05-.42.76-2.48.58-3.81-3.22-24.42-10.85-47.45-21.97-69.36-1.19-2.35-2.07-5.2-4.64-6.3-2.73-1.17-4.59-3.13-6.42-5.24-1.23-1.42-3.16-2.8-2.22-4.92,1-2.26,3.26-1.43,5.12-1.23,4.45.48,8.42-.32,11.91-3.47,2.63-2.38,4.86-4.9,6.86-7.88,4.19-6.25,2.09-14.34-4.93-16.97,1.15,2.54,3.61,4.5,3.79,8.33-2.69-1.87-4.41-3.68-5.65-5.91-.84-1.52-.96-2.87,1.41-2.91.01-2.21,1.86-2.89,3.93-4.28-9.96,2.48-9.63-4.42-10.52-10.18-.07-.44-.26-.87-.27-1.3-.17-6.21-.46-12.52,3.65-17.78,2.56-3.29,3.98-6.8,4.11-10.97.05-1.68-.46-3.92,1.39-4.87,3.09-1.6,2.49-3.96,1.87-6.46-.6-2.44-1.35-4.85-1.79-7.31-.71-4.03-2.26-7.33-6.38-8.86-1.39-.52-2.04-1.73-2.21-3.1-.53-4.19-2.51-8.38,1.28-12.35,1.52-1.6,1.91-4.26,2.01-6.69.22-5.51-1.34-7-6.74-6.3-4.09.53-11.4-4.66-11.22-8.64.17-3.85-1.29-6.93-2.91-10.01-7.9-15.06-14.01-30.97-21.73-46.11-.87-1.7-1.47-3.59-3.29-4.61,2.87,7.6,7.02,14.62,10,22.2,2.96,7.54,4.45,15.65,8.68,22.71.14.24-.19.77-.39,1.47-3.51-1.83-4.11-6.18-7.57-8.05.15,2.68,1.87,4.49,2.66,6.66.53,1.44.86,2.85-1.4,2.5-11.61-1.78-19.02,5.23-26.31,12.5-1.05,1.04-2.02,2.16-3.02,3.25-1.05,1.14-1.98,3.2-3.82,1.56-1.52-1.36-.36-3.02.58-4.37,4.06-5.83,8.47-11.38,13.23-16.65,1.14-1.27,2.3-2.51,3.65-3.98-4.11-1.25-6.47-.07-7.65,3.48-1.16,3.46-4.1,5.73-5.88,8.78-.44.76-.95,1.75-1.96,1.45-1.34-.4-1.07-1.67-.81-2.63,1.19-4.42,2.45-8.83,3.73-13.23.37-1.28,1.05-2.47,1.33-3.76.39-1.8,1.35-4.45-1.11-4.89-2.12-.38-1.48,2.44-1.84,3.85-1.12,4.45-1.95,8.96-3.01,13.42-.27,1.15-.17,3.16-1.98,2.79-1.45-.3-.76-2.03-.63-3.11.84-6.91,2.15-13.73,3.84-20.48.3-1.18,1.29-2.42-.12-3.99-1.93,3.04-2.04,6.46-2.96,9.6-.29.98-.28,2.42-1.58,2.3-1.59-.15-1.37-1.67-1.24-2.82.41-3.69,1.35-7.26,2.51-10.79.53-1.6,1.64-3.24.18-5.25-1.48,1.02-1.54,2.76-2.3,4.05-.51.87-.99,2.1-2.22,1.78-1.58-.4-1.27-1.91-1.02-2.98.43-1.86,1.14-3.66,1.76-5.48.71-2.09,1.2-3.92-2.09-2.2-1.06.55-1.97.42-2.59-.76-1.83-3.52,1.9-10.65,5.89-11.31,4.42-.73,9.05-.32,12.87-3.73,2.07-1.85,4.8-.34,7.13.63-2.55-3.79-5.54-4.5-9.33-1.6-1.11.85-2.83,1.73-4.05,1.49-5.24-1.05-8.99,1.7-13,4.23-2.38,1.5-3.63,3.34-3.58,6.14.08,4.58.15,9.14,1.01,13.69,3.89,20.5,5.81,41.48,14.72,60.76.52,1.12.6,2.41-.11,3.41-1,1.42-2.11.15-3.13-.19-2.34-.79-4.57-2.19-6.97.12-4.17,4.03-5.05,10.97-1.9,15.9,2.02,3.17,4.57,6,7.61,8,5.59,3.69,7.48,8.09,6.04,14.84-1.03,4.82-.38,10.03.47,15.03.28,1.65.59,3.26,1.74,4.48,8.46,9.02,10.07,20.36,10.88,31.98.1,1.44.53,3.03-.71,4.23-4.05,3.92-4.7,9.36-6.69,14.26-2.74,6.75-5.39,13.69-10.54,19.21-7.78,8.33-14.72,17.36-21.46,26.54-1.96,2.67-2.9,5.76-3.24,9.09-1.64,16.44-.74,32.83.76,49.21.69,7.52,2.45,9.86,10.06,11.15,1.89.32,3.77.6,5.66.84-2.32-2.91-3.8-6.58-4.04-11.3Zm71.84-218.16c.93-2.32,3.09-3.69,5.25-4.33,2-.59,1.59,1.45,1.65,3.21-.74,2.04-1.57,4.55-2.55,7-.52,1.28-1.75,2.06-2.63.64-1.19-1.92-2.7-4.04-1.71-6.53Zm-12.04-12.62c2.75.93,7.06,7.68,6.42,10.46-.43,1.88-1.34,3.75-3.72,3.76-2.81.01-2.28-2.03-2.17-3.8.14-2.13-.31-4.06-2.04-5.5-.33-.81-.64-1.62-.98-2.42-.34-.8-.94-1.61-.01-2.38.78-.65,1.64-.42,2.51-.13Zm-1.76,6.52c-1.2.97-1.56,2.68-.66,3.72.24.27.4.83.3,1.15-.26.79-1.01,1.13-1.75.99-1.87-.36-3.82-.84-4.67-2.78-.69-1.56-.41-3.18.73-4.53,1.33-1.59,3-1.65,4.78-.95.51.2.98.52,1.47.79-.04.57.11,1.37-.19,1.61Zm-40.85,35.9c-1.83.66-2.72-1.86-3.87-3.07-2.53-2.67-5.12-5.35-7.2-8.35-2.44-3.52-1.97-7.26.56-10.7,1.27-1.73,3.17-1.98,3.72.04.95,3.51,3.76,5.52,5.49,8.35,1.69,2.77,1.96,5.83,1.87,9.33-.49,1.23,1.63,3.61-.56,4.4Zm11.12,42c-6.78-8.11-9.81-17.41-8.34-28.41,1.19-8.9,1.19-18.06.74-27.06-.32-6.27-1.85-12.45-1.79-18.85.1-12.31,11.04-22.86,23.35-21.98,2.06.15,4.15.51,6.19.36,3.88-.29,6.5,1.44,8.43,4.57.56.91,2.11,1.87.69,2.92-1.11.82-1.63-.65-2.28-1.4-2.34-2.68-5.25-2.29-8.09-1.18-1.09.43-1.97,1.73-1.34,2.93.78,1.49,1.7.31,2.45-.33.61-.52,1.32-.88,1.94-.21.85.92.11,1.66-.56,2.23-1.59,1.37-2.88,2.95-3.84,4.82-.85,1.65-2.32,1.59-3.85,1.3-1.59-.31-3.17-.73-4.78-.93-9.42-1.18-17.22,7.7-15,17.03,1.11,4.65,10.19,10.89,16.02,11.02,5.06.11,9.41-4.1,11.23-10.22.65-2.18-.66-5.42,1.72-6.38,2.08-.84,4.32,1.42,6.54,2.16,2.42.82,4.85,1.11,7.4,1.12,4.43.03,7.68,2.17,9.23,6.34,1.66,4.47.34,10.12-2.9,12.61-5.89,4.53-12.59,5.44-19.75,4.15-3.95-.71-5.21-4.48-8.18-6.78,1.17,3.94-1.1,5.35-3.83,6.64-12.65,5.97-13.26,18.15-7.52,29.01.76,1.44,1.65,3.08,3.62,2.7,2.09-.4,1.88-2.26,2.05-3.91.46-4.53,4.32-7.21,6.23-10.98.64-1.26,2.49-.28,3.57.48,1.83,1.3,3.77,2.36,5.93,2.93,7.1,1.88,9.82.01,11.25-8.66-3.16,4.91-7.16,4.81-11.3,4.04-.97-.18-2.25-.31-2.29-1.64-.03-1.2,1.02-1.95,2.03-2.01,2.51-.15,3.93-1.58,5.28-3.5,2.38-3.37,5.33-1.48,7.91-.35,3.12,1.36,6.46.45,7.42-2.74.76-2.51,1.4-2.57,3.06-.68,7.01,7.95,7.97,13.23,2.81,22.91-6.21,11.63-7.78,23.53-3.21,35.93,1.83,4.95,4.41,9.64,6.88,14.32,1.58,2.99.89,4.8-1.86,6.62-2.89,1.91-5.68,3.51-9.31,3.62-2.75.08-5.45.63-7.56,3.04-1.51,1.73-3.56,1.66-6.04.97-6.93-1.92-13.99-3-20.43-6.76-6.9-4.03-7.32-5.77-5.81-13.57,1.87-9.63,3.21-19.52-4.1-28.26Zm9-56.85c-3.62-.42-9.71-6.6-10.33-10.48-.69-4.29,2.31-9.58,6.55-11.55,5.8-2.69,12.88,2.77,13.46,10.37.55,7.19-3.73,12.35-9.68,11.66Z"/>
    <path class="cls-3" d="m227.54,503.12c3.25,4.28,3.91,11.05,1.84,14.66-.61,1.06-1.34,2.01-2.66,2.02-1.36,0-2.4-.91-2.46-2.1-.16-3.16-1.94-6.76,1.99-9.07,1.92-1.13.84-3.2,1.28-5.5Z"/>
    <path class="cls-3" d="m218.43,485.2c4.34.05,6.22,1.77,6.69,5.09.21,1.48.2,3.21-1.63,3.6-2.46.53-3.78-.9-4.26-3.29,1.49-1.28,2.68,3.03,3.71.39,1.22-3.09-2.22-3.55-4.52-5.79Z"/>
    <path class="cls-3" d="m189.36,458.65c-1.03-.08-1.82.03-2.47-.22-1.68-.63-4.62-.9-4.16-2.91.44-1.92,2.67.22,4.14.18.87-.02,1.77.08,2.6.33,1.22.38,3.62-.63,3.39,1.51-.2,1.87-2.53.54-3.5,1.11Z"/>
    <path class="cls-3" d="m225.75,451.11c1.46-.16,2.78-.18,2.35,1-.88,2.42-3.48,2.21-5.49,2.79-.77.22-2.29.11-2.03-.89.75-2.89,3.96-1.66,5.17-2.9Z"/>
    <path class="cls-3" d="m171.54,271.02c-3.34-6.24-5.9-12.79-8.2-19.44-.32-.92-1.02-2.13.51-2.57.99-.29,1.55.63,1.92,1.46,2.87,6.58,5.21,13.31,5.77,20.55Z"/>
    <path class="cls-3" d="m205.68,385.62c-4.67-.71-8.43.82-11.62,5.71.94-7.56,5.56-9.45,11.62-5.71Z"/>
    <path class="cls-3" d="m206.95,406.79c4.31,4.02,3.8,9.29,4.01,14.39-1.34-4.8-2.68-9.59-4.01-14.39Z"/>
    <path class="cls-3" d="m170.3,313.85c1.35-2.89,3.4-2.28,5.36-1.91-1.44,1.09-2.93,2.02-5.36,1.91Z"/>
    <path class="cls-3" d="m178.97,321.42c4.43.03,5.71,1.37,5.61,5.86-.11,4.55-3.55,8.66-7.17,8.57-3.48-.08-5.85-2.94-5.77-6.94.09-4.69,2.85-7.51,7.34-7.48Zm-5.46,6.85c.05.3-.03,1.16.34,1.7,1.15,1.67,2.49,3.62,4.84,2.72,2.23-.84,1.23-2.4.33-3.9-.66-1.1-.44-2.31.88-2.96.96-.48,2.69-.4,1.93-2.15-.66-1.52-2.22-1.12-3.5-.99-3.07.31-4.79,1.95-4.83,5.58Z"/>
  </g>
</svg>