<?xml version="1.0" encoding="UTF-8"?>
<svg id="femme-3" xmlns="http://www.w3.org/2000/svg" xmlns:xlink="http://www.w3.org/1999/xlink" viewBox="0 0 1080 1080">
  <defs>
    <style>
      .cls-1 {
        fill: url(#Dégradé_sans_nom_15);
        opacity: .37;
      }

      .cls-1, .cls-2, .cls-3, .cls-4, .cls-5, .cls-6 {
        stroke-width: 0px;
      }

      .cls-2 {
        fill: url(#Dégradé_sans_nom_6);
      }

      .cls-3 {
        fill: url(#Dégradé_sans_nom_4);
      }

      .cls-4 {
        fill: url(#Dégradé_sans_nom_4-2);
      }

      .cls-6 {
        fill: #beaa9a;
      }
    </style>
    <linearGradient id="Dégradé_sans_nom_15" data-name="Dégradé sans nom 15" x1="673.29" y1="760.12" x2="842.3" y2="467.73" gradientUnits="userSpaceOnUse">
      <stop offset="0" stop-color="#f01048"/>
      <stop offset=".2" stop-color="#3b2f35"/>
    </linearGradient>
    <linearGradient id="Dégradé_sans_nom_4" data-name="Dégradé sans nom 4" x1="714.86" y1="183.5" x2="802.81" y2="183.5" gradientUnits="userSpaceOnUse">
      <stop offset=".09" stop-color="#aeb9b0"/>
      <stop offset="1" stop-color="#beaa9a"/>
    </linearGradient>
    <linearGradient id="Dégradé_sans_nom_6" data-name="Dégradé sans nom 6" x1="762.67" y1="207.02" x2="779.02" y2="207.02" gradientUnits="userSpaceOnUse">
      <stop offset=".19" stop-color="#f01048"/>
      <stop offset=".75" stop-color="#3b2f35"/>
    </linearGradient>
    <linearGradient id="Dégradé_sans_nom_4-2" data-name="Dégradé sans nom 4" x1="649.9" y1="473.16" x2="996.58" y2="473.16" xlink:href="#Dégradé_sans_nom_4"/>
  </defs>
  <path class="cls-1" d="m961.85,573.5c-13.99,3.5-155.42-62.49-286.81-28.84-131.39,33.65-93.78,35.68-88.13,36.85,11.2,2.31,90.9,6.92,107.35,6.41,32.19-.99,16.45,5.22,43.48-1.4,27.02-6.61,66.89-20.7,92.62-14.46s111.5,26.68,137.89,14.25c26.39-12.43,0-14.42-6.41-12.82Z"/>
  <g>
    <path class="cls-6" d="m728.45,104.39c-3.56,2.49-7.12,10.33-12.46,12.46s-14.95,3.92-19.94,7.83-11.39,11.04-11.75,23.14c-.36,12.11,2.49,19.94,2.85,25.28s-10.33,12.46,1.42,7.12,17.8,0,26.35-7.83c8.55-7.83,9.97-2.85,12.82-12.11s1.42-21.01,4.63-22.43,6.77-4.98,9.61,3.2,19.58,26.7,27.77,14.6c8.19-12.11,12.11-23.14,13.17-30.62,1.07-7.48,6.05-6.41,10.68-8.55s15.67-.71,19.23-3.92,1.78-6.77-2.85-7.48-7.83-3.92-12.82.36-10.68,10.33-11.39,8.19-4.98-11.75-4.98-11.75c0,0-1.78-7.83-5.34-7.48s-13.53,8.19-15.31,6.41-6.77-4.27-9.97-3.2-13.89,6.77-13.89,6.77h-7.83Z"/>
    <path class="cls-3" d="m734.06,136.88c-1.6,2.67-2.4,11.22-2.4,16.02s1.6,10.68-2.4,14.42-9.08,15.76-11.48,16.56-4.27,4.81-1.6,7.21,12.82,12.28,15.76,13.62c2.94,1.34,10.15,13.35,14.69,13.89s11.48,4.54,12.55,5.34,3.47,5.34,6.94,5.61,9.35,1.87,12.55-1.87,8.28-7.74,10.15-12.02,8.01-16.02,9.61-23.5c1.6-7.48,5.07-22.43,4.27-23.23s-8.55-8.81-18.69-9.08-23.77-1.34-29.64-7.74c-5.88-6.41-20.3-15.22-20.3-15.22Z"/>
    <path class="cls-2" d="m769.04,201.06c-1.96,1.42-5.88,6.94-6.23,7.83s-.18,1.25,1.78,1.6,2.49,3.2,5.52,2.31,5.52-1.42,5.52-1.42c0,0,1.07-2.31,2.31-3.03s1.07-1.6,1.07-1.6c0,0-4.98-5.52-5.7-5.16s-4.27-.53-4.27-.53Z"/>
    <path class="cls-6" d="m750.89,171.86s-2.85-3.56-9.08-3.38c-6.23.18-11.75-1.07-13,1.25s-2.67,4.98-.89,6.41,7.83,4.09,7.83,4.09c0,0,8.37-.36,9.61-1.96s3.74-2.31,4.09-3.2,1.42-3.2,1.42-3.2Z"/>
    <g>
      <path class="cls-4" d="m796.82,137.15c6.41-1.6,11.75,9.61,11.22,14.95s-1.07,14.95-1.34,17.36,0,10.68-.27,13.89,2.67,13.89,2.67,13.89c0,0,9.08,9.08,14.15,14.15s10.41,11.48,10.68,16.02-10.41,10.41-15.22,7.74-30.98-5.34-31.78-7.21.8-9.88-5.88-7.48-16.82,8.28-23.77,1.07c-6.94-7.21-16.56-7.21-16.56-6.14s2.14,12.02-.27,14.15-8.55.8-10.95.53-12.28-8.28-15.22-6.68-9.08,5.88-12.55,9.88-10.15,11.75-10.95,17.63c-.8,5.88-2.94,20.56,2.14,34.45,5.07,13.89,12.55,33.11,17.36,42.19s22.16,33.65,19.76,47.53-6.94,18.69-10.68,27.24-57.68,69.17-59.28,82.52-13.89,45.4-9.08,53.94-1.6,24.03,12.28,29.91c13.89,5.88,22.43,12.82,33.11,13.89,10.68,1.07,22.43-9.61,26.17-1.6,3.74,8.01,8.01,24.57,8.55,43.8.53,19.23,9.08,74.24,10.68,82.25s6.41,34.72,3.74,41.13-9.61,17.63-5.88,21.36,9.61,3.2,10.68,10.15,7.48,28.84,6.94,34.72c-.53,5.88-6.41,14.42,1.6,14.95,8.01.53,15.49,2.14,20.3,1.6s15.49,3.74,19.23-1.6,6.94-9.08,4.27-14.42c-2.67-5.34-8.01-10.68-13.35-9.61s-9.08-4.27-9.08-8.01-.53-13.35-2.67-19.76-8.55-36.85-8.55-36.85l3.74-53.41s18.69-77.44,18.16-83.85c-.53-6.41,3.2-27.77,3.2-32.58s5.88.53,12.82,2.14c6.94,1.6,14.42,6.94,20.3,8.01s10.68,9.08,15.49,6.41,12.28-6.41,14.42-4.27,7.48,13.35,12.28,12.82c4.81-.53,5.88-5.88,9.08-3.2,3.2,2.67,7.48,6.41,8.01,1.6.53-4.81-12.82-16.02-17.63-24.57-4.81-8.55-17.63-22.97-17.63-22.97,0,0,4.81-8.01,6.94-9.08s18.69-12.82,21.9-17.09,26.17-21.36,26.17-21.36c0,0,6.41,19.76,2.67,31.51s-5.88,36.32-6.94,42.19-4.27,13.89-5.88,18.16,0,17.09,1.07,21.36,2.67,11.22-2.14,19.76-12.82,24.03-12.82,33.11-5.88,18.69,1.07,24.03,9.61,11.22,15.49,8.55,10.68-11.22,13.89-16.56c3.2-5.34,12.82-31.51,14.95-40.59s-3.2-37.39-1.07-44.86c2.14-7.48,27.77-57.68,32.58-67.3s23.5-50.2,27.77-58.22,9.08-42.73,9.61-48.07-14.95-19.76-16.56-20.83-20.3-5.88-22.43-5.34-16.56-1.07-31.51,6.41-41.66,21.9-41.66,21.9c0,0-3.2-1.07-4.81,0s-34.18,14.42-34.18,14.42l-8.01-14.42s1.07-11.22,3.2-14.42,6.94-14.42,10.15-20.3,2.67-15.49,6.41-21.36,13.89-6.94,19.23-15.49,11.22-18.69,11.22-18.69c0,0,4.81-20.3,3.74-24.57s3.74-5.34,5.34-8.01,5.88-9.61,4.27-17.63-11.75-22.97-13.89-25.64-5.34-11.22-13.35-20.83c-8.01-9.61-21.9-25.1-21.9-25.1,0,0-13.35-14.42-16.56-18.69s-6.94-5.34-6.94-10.68,2.14-27.77,3.2-36.32,2.14-24.03-5.34-26.7-14.42-8.55-22.97-4.27c-8.55,4.27-14.42.53-14.42,6.94s7.48,17.09,7.48,17.09l.53-2.67Z"/>
      <g>
        <path class="cls-5" d="m897.94,279.09c7.19,5.17,6.17,20.01-2.11,25.31-2.99,1.91-2.96,3.43-1.41,5.92,6.74,10.85,5.39,21.44-.74,32.08-3.17,5.5-6.36,10.88-10.51,15.76-4.65,5.48-10.24,8.68-17.28,10.07-9.44,1.87-8.43,1.74-9.57,10.54-1.5,11.62-6.23,22.36-12.77,32.2-1.54,2.32-3,4.69-4.39,7.1-.37.64-.67,1.6-.46,2.23,1.96,5.89,4.16,11.74,7.66,16.87,1.43,2.1,3.94.54,5.43-.57,11.45-8.49,24.68-13.57,37.36-19.68,4.59-2.21,9.16-4.47,13.7-6.78,12.16-6.18,24.58-11.92,38.07-14.24,9.18-1.58,18.67-1.04,27.94-.18,6.05.56,11.64,3.55,16.37,7.33,3.02,2.42,6.83,3.69,9.32,6.84,3.6,4.55,5.67,9.43,5.1,15.42-.35,3.7,0,7.47.1,11.2.15,5.18-.72,10.07-2.64,14.98-2.98,7.63-3.98,15.93-7.73,23.35-2.3,4.54-3.84,9.48-6.3,13.93-6.73,12.19-13.14,24.63-17.94,37.6-5.22,14.11-13.6,26.39-19.98,39.75-6.96,14.57-15.33,29.1-13.74,46.18,1.17,12.57-.77,24.74-2.9,36.97-.18,1.05-.31,2.22-.85,3.09-6.59,10.76-9.97,22.97-15.56,34.16-1.89,3.78-3.59,7.93-7.06,10.73-5.68,4.59-11.13,2.56-16.71-.5-6.66-3.65-10.37-8.45-10.07-16.65.42-11.68,2.54-22.6,8.4-32.89,3.65-6.4,6.32-13.37,9.23-20.16,1.42-3.31.84-6.53-.82-9.84-4.71-9.37-3.82-19.3-2.15-29.19.21-1.24,1.35-2.46,2.34-3.41,3.93-3.75,4.77-8.59,4.88-13.62.15-7.16.37-14.34-.02-21.49-.75-13.8,1.84-27.22,3.82-40.73.19-1.3,1.22-2.96-.3-3.82-1.25-.71-2.19.85-3.09,1.58-10.75,8.86-21.3,17.97-32.53,26.23-3.49,2.57-7.13,4.92-10.64,7.46-4.18,3.02-4.19,4.16-.31,7.48.59.5,1.2,1.04,1.59,1.69,8.55,14.03,19.31,26.6,27.22,41.05,2.39,4.37,1.55,8.86.35,13.17-.69,2.48-2.58,3.1-4.21.23-.61-1.07-1.51-1.97-2.17-3.02-2-3.19-3.74-6.19-7.5-1.41-1.43,1.81-3.46.44-4.65-1.25-1.78-2.53-3.52-5.09-5.22-7.68-2.85-4.36-6.25-5.34-10.65-2.65-4.32,2.65-8.7,3.21-13.32,1.15-4.73-2.11-9.97-2.79-14.05-6.71-4.55-4.36-10.43-4.17-16.22-2.42-3.05.92-5.69,1.22-7.61-2.21-1.13-2.01-2.76-1.65-3.97.31-2.03,3.29-2.37,7.04-2.77,10.72-1.54,14.2-2.11,28.57-4.68,42.57-3.26,17.7-5.13,35.6-8.95,53.22-3.02,13.91-4.62,28.14-6.88,42.22-.22,1.38-.52,2.77-1,4.07-2.02,5.42-1.43,10.28.23,16.06,3.3,11.47,7.41,22.88,7.51,35.2.05,6.99,2.92,13.54,7.08,19.32.93,1.29,2.07,2.34,3.85,2.28,7.57-.24,11.43,4.95,13.51,10.82,2.11,5.93.74,11.92-4.29,16.6-2.41,2.24-5.41,2.66-8.21,2.55-8.47-.31-16.89.83-25.4.33-5.33-.31-9.37-2.87-13.83-4.82-1.94-.85-1.38-2.7-.8-4.08,5.76-13.7,3.01-26.87-2.57-39.77-1.71-3.95-3.87-7.94-8.11-9.89-2.84-1.31-3.81-3.45-3.82-6.32-.01-6.41.69-12.77,3.51-18.54,1.93-3.96,1.47-7.67.94-11.72-2.43-18.45-6.37-36.71-7.31-55.37-.16-3.21-1.22-6.4-2.02-9.55-3.75-14.7-8.69-29.1-11.43-44.07-.99-5.41-.73-10.85-.68-16.29.07-8.1.15-16.19.48-24.28.15-3.65-1.5-4.38-4.1-2.73-12.74,8.09-25.28,4.6-37.91-.18-2.85-1.08-5.33-2.72-7.23-4.94-4.37-5.09-10.38-8.23-14.46-13.91-5.27-7.34-6.64-15.66-8.4-23.86-4.02-18.71-3.06-37.23,2.89-55.61,2.57-7.93,5.13-15.66,11.12-21.58,4.5-4.45,9.88-8.01,14.29-12.53,6.93-7.09,15.66-12.45,20.58-21.48,5.26-9.65,10.35-19.4,16.06-28.77,3.67-6.03,6.2-12.55,8.5-19.01,3.03-8.49,3.82-17.13-1.47-25.91-5.72-9.5-11.56-19.02-15.95-29.31-5.78-13.53-11.38-27.11-15.19-41.34-1.62-6.04-.88-12.36-1.29-18.55-.16-2.47.63-5.04.26-7.45-2.26-14.62,5.79-24.62,14.97-34.17,4.89-5.09,10.79-5.79,17.33-2.45,3.17,1.62,6.6,2.76,9.97,3.93,2.68.93,5.14-.03,6.53-2.3,2.24-3.63,2.96-7.66.26-11.41-4.27-5.94-10.09-10.41-15.24-15.52-1.31-1.3-2.91-2.23-3.9-3.93-.99-1.71-2.7-2.76-4.71-2.27-1.76.43-2.72,1.88-3.17,3.7-.41,1.65-1.04,3.25-1.63,4.85-.46,1.26-.34,3.28-1.96,3.37-1.92.11-2.79-1.67-3.27-3.39-.41-1.46-1.28-2.82-2.73-2.8-1.6.03-1.97,1.78-2.39,3.1-.69,2.17-1.29,4.37-2.21,6.53-.48-4.88.44-9.8-1.02-14.58-.48-1.59-.23-4.12-2.28-3.98-2.37.16-1.94,2.78-2.03,4.56-.49,9.38-3.64,18.67-.65,28.46-4.44-6.66-4.89.81-7.55,1.64-1.13-4.86-2.37-9.64-1.01-14.46,1.97-6.93.56-13.38-1.41-20.04-5.03-16.95-5.77-33.8,1.71-50.45,2.14-4.77,3.33-9.94,5.65-14.73,4.46-9.22,12.07-13.06,21.67-13.56,5.03-.26,8.56-.6,9.82-7.04,1.39-7.09,11.71-10.08,18.77-6.14,2.85,1.6,4.46,1.96,7.03-.84,3.84-4.18,8.96-5.37,14.44-2.74,2.65,1.27,4.76,1.6,7.47-.7,3.18-2.69,7.39-4.31,11.73-3.47,5.05.98,8.02,6.04,7.78,12.24-.1,2.62-.93,5.99,1.75,7.21,2.4,1.09,4.06-2.28,5.18-3.78,5.46-7.27,12.91-3.65,19.46-3.9,5.04-.19,8.65,3.8,12.09,7.12,2.43,2.35,4.38,5.18,6.6,7.75,2.81,3.27,3.81,6.97,4.56,11.3,1.03,5.9,3.61,11.66,2.46,17.71-2.16,11.35-1.39,23.22-6.46,34.07-2.95,6.31,0,7.34,6.04,14.51,6.16,7.31,13.53,13.53,19.04,21.41-4.4-1.9-7.33-5.61-10.57-8.87-5.62-5.65-11.26-11.27-16.09-17.69-3.24-4.31-6.35,0-9.48,1.58.08-3.44,2.11-6.24,1.24-9.38-1.85-.48-3.26,1.87-5.25.17,2.05-2.98,4.83-5.69,5.16-9.52.59-6.94.04-13.72,2.16-20.84,2.21-7.44.64-16.02-1.35-23.89-.65-2.55-.97-5.52-4.13-6.89-6.37-2.77-12.98-3.12-19.67-2.12-1.43.22-4.51.11-4.08,2.7.4,2.44,2.93,2.96,5.26,2.81.92-.06,1.84-.32,2.72-.62,4.59-1.57,8.77-.17,11,3.59,2.38,4.02,4.22,8.92,2.72,13.75-1.64,5.29-2.82,10.94-7.15,15.02-.21.2-.03.81-.03,1.12,1.37.86,2.78-1.1,4.08.5-1.94,4.89-7.25,8.22-6.56,14.4.33,2.9-.5,5.93-.24,8.85.7,7.74,1.63,15.39,7.92,21.2,3.83,3.54,8.47,6.22,11.43,10.69,7.67,11.57,11.34,24.77,14.7,37.94,3.94,15.46,10.44,29.36,21.16,41.24,3.87,4.28,7.69,8.79,13.58,10.05,6.29,1.34,12.95,3.08,18.7-1.42,6.77-5.3,7.61-12.21,3.31-22.17Zm-163.34-161.7c2.68-1.06,3.67.54,4.22,2.73.6,2.36,2.06,3.84,4.74,5.1-.41-3.74-2.43-6.25-3.15-9.15-.89-3.56-3.8-5.1-6.21-7.17-.99-.85-2.31-1.09-3.47-.31-1.42.96-.71,2.35-.16,3.33,1.11,1.96,1.34,4.54,3.72,5.68-.53,9.82,7.97,25.43,14.84,26.26-4.62-9.19-9.18-18.03-14.52-26.46Zm-5.72,59.82c-3.68,1.41-5.62,4.74-8.18,7.4-3.99,4.14-3.93,6.19.36,9.97,1.04.92,2.18,1.73,3.25,2.63,7.13,5.94,14.02,12.17,21.02,18.24,4.84,4.21,11.23,6.29,16.42,10.83,8.56,7.48,17.89,1.43,23.64-7,3.69-5.41,6.06-11.49,8.86-17.32,3.92-8.14,6.6-16.77,6.45-26.01-.04-2.58-.56-4.72-3.86-4.52-8.76.52-17.39-.45-25.9-2.47-2.57-.61-3.19.51-2.65,2.69.53,2.13,1.41,4.13,3.06,5.68,2.44,2.29,3.81,5.23,5.03,8.26,1.46,3.63.18,8.15-2.8,9.88-4.01,2.33-10.36,2.01-12.72-.6-.69-.76-.88-1.63-.88-2.57-.01-5.31,0-10.62,0-15.93.49,3.79.31,7.62.56,11.41.17,2.56.2,5.48,2.75,7.09,2.47,1.56,9.78.33,11.45-1.87,2.73-3.58-.76-5.5-2.2-8.06-2.53-4.5-7.39-8.14-6.82-13.82.51-5.07-2.03-6.33-6.04-7.36-6.23-1.61-11.79-4.37-15.73-9.92-2.28-3.21-4.23-6.42-5.17-10.26-.27-1.08-.94-2.7-2.37-2.52-1.63.19-1.22,1.93-1.34,3.08-.6,5.86-1.09,11.74-1.71,17.6-.32,2.97.93,4.44,3.86,4.48,3.42.06,6.85-.01,10.27.09,2.04.06,4.2.11,6.07,3.22-5.98-.71-11.05-.89-16.12-.57-6.69.42-7.8,1.46-8.67,8.32l.08-.08Zm-15.1,312.18c-1.71-.11-3.43-.41-5.12-.3-6.89.44-13.6,0-20.16-2.5-1.82-.69-3.5-2.33-6.01-2.02,1.56,3.58,4.62,4.45,7.39,5.78,1.08.52,3.2,1.02,2.06,2.85-.77,1.25-2.23.39-3.28-.36-3.77-2.7-7.98-4.1-12.84-4.65,2.53,4.02,6.27,6.04,9.53,8.59,2.09,1.64,1.87,3.32.57,5.25-.9,1.33-1.18,3.31-3.65,2.63-5.08-1.41-10.2-2.68-15.52-4.06.57,3.55,2.45,6.25,4.97,8.3,4.59,3.74,3.75,8.84,3.97,13.72.03.77-.22,1.69-1.14,1.76-.44.03-1.08-.53-1.38-.99-2.34-3.58-5.35-6.78-5.36-11.57,0-1.61.25-3.77-1.86-5.28-2.01,3.59-1.97,7.02-.64,10.65,2.49,6.8,6.95,12.26,11.65,17.58,1.16,1.32,2.81,2.36,2.52,4.61-.57-.14-.93-.13-1.13-.3-6.7-6.13-11.91-13.36-15.86-21.51-.89-1.83-1.89-3.48-4.39-3.85-.26,3.9,2.58,6.41,3.43,9.62.27,1.02,1.51,2.77-.53,2.84-3.77.12-1.83,1.92-1.58,3.64.92,6.45,7.58,9.63,8.84,15.89.31,1.51,1.52.91,2.61.33,1.56-.83,2.61.33,3.57,1.39.7.78.87,1.78.32,2.59-2.64,3.97-1.76,7.74.7,11.29.9,1.29,1.02,2.44-.06,3.26-1.63,1.22-1.84-.51-2.55-1.47-3.3-4.45-6.73-8.82-10.12-13.21-.8-1.04-1.22-3.14-2.9-2.37-1.9.88-.66,2.71-.24,4.11,1.73,5.86,5.95,10.09,9.91,14.36,3.39,3.65,7.1,7.14,12.51,9.77-1.53-2.76-2.59-4.65-3.63-6.55-1.39-2.51.35-4.47,1.28-6.51.38-.84,1.49-.73,1.99-.1,1.33,1.65,3.06,3.06,2.97,5.58-.06,1.73-1.74,3.24-.91,5.2,2.2-.63,1.94-3.69,4.7-3.88v7.23c2.57-.65,2.22-5.41,6.3-3.21,4.37,2.35,7.93-.53,7.74-5.5-.07-1.74.64-3.91,2.35-4,2.07-.11,1.74,2.08,1.7,3.63,0,.26.24.52.45.95,1.25-.49,2.27-3.22,3.95-.45,1.91,3.14,2.51.53,3.09-.94.33-.83.1-1.87.36-2.75.35-1.21.97-2.51,2.44-2.44,1.88.09,1.38,1.71,1.43,2.87.04.93-.05,1.87-.02,2.8.07,1.65-.47,3.76,1.85,4.21,2.52.49,2.53-1.78,2.94-3.33.96-3.59,1.73-7.23,2.71-10.81.27-.99.81-2.26,2.24-1.85,1.43.41.97,1.66.94,2.74-.14,5.91-.39,11.82-.25,17.72.06,2.59-.24,5.88,4.04,6.08,1.59.07,1.7,1.7,1.4,2.95-.77,3.21.19,6.1,1.3,9.04,1,2.67,1.5,7.5.24,7.85-3.87,1.06-1.86,3.3-1.6,4.77,1.27,7.26,4.76,14.07,4.37,21.69-.26,5.17,2.2,9.96,2.28,15.1,0,.37-.3.74-.44,1.07-1.47-.45-.44-2.67-2.97-2.73,1.85,9.48,2.43,19.01,4.17,28.31,1.12,5.95,4.04,12.14,3.55,17.85-.74,8.71,1.22,17.02,2.07,25.33,1.16,11.31,2.18,22.54,2.05,33.9-.04,3.67-.67,6.96-3.09,9.98-2.62,3.28-2.37,10.59.32,13.51,5.55,6,7.65,13.26,8.43,21.15,1.02,10.25,3.48,20.19,7.54,29.66,1.04,2.43,2.16,5.64,5.51,5.62,3.32-.02,2.76-3.64,4.09-5.56.1-.15.36-.19.8-.42-.32,1.27-.66,2.29-.83,3.35-.63,3.95,1.71,6.03,5.52,4.95,1.46-.41,1.97-1.32.55-2.17-2.7-1.62-2.15-3.8-1.49-6.12,1.03-3.63.26-6.79-2.71-9.53,2.01-1.47,4.45-1.31,6.61-1.96,2.49-.74,3.6-1.65,1.46-4.12-1.29-1.49-2.44-3.26-1.94-5.51,1.67-7.52.17-14.76-1.78-22.02-2.25-8.37-5.34-16.62-7.2-24.93-3.61-16.13-5.76-32.71-2.45-49.37.64-3.2,1.19-6.41,1.77-9.62,3.56-19.83,6.18-39.89,11.02-59.39,2.83-11.4,5.8-22.81,8.17-34.31,1.77-8.62,4.03-17.42,3.14-26.27-.74-7.34-2.43-14.48,2.12-21.2.49-.73.71-1.78.71-2.67-.07-8.85.73-17.7-.93-26.53-2.47-13.22-8.8-23.85-20.88-30.14-16.04-8.36-33.29-12.54-51.37-13.25-5.73-.22-11.38-.78-17.19-.25-4.92.44-10.01-1.12-15.03-1.66-1.85-.2-4.14-.32-4.5,2.15-.38,2.62,1.96,2.66,3.76,3.06,8.16,1.79,16.32,3.6,24.48,5.41,0,0,.06-.05.06-.05Zm219.74-20.57l-.03-.04c-1.71,4.05-5.03,6.97-7.6,10.39-6.07,8.08-9.55,17.3-12.88,26.65-.54,1.51-.15,2.93.77,4.4,3.76,6.01,2.69,12.58,2.55,19.5-2-1.21-.59-3.52-2.71-4.18-.21.79-.43,1.37-.5,1.97-1,7.97.61,16.25-2.96,23.92-.27.59-.15,1.9.26,2.18,3.64,2.51,1.31,5.13.29,7.73-.8,2.05-1.54,3.68.92,5.62,2.03,1.6,1.22,6.54.36,6.59-4.78.25-3.22,4.04-4.25,6.29-1.84,3.99-3.24,8.1-7.07,10.99-4.19,3.16-5.47,9.21-3.69,13.98,3.05-2.69,3.76-6.58,5.14-10.13,2.63,6.2.26,12.26-.52,18.27-1.6,12.31-3.24,25.16-10.59,35.25-7.71,10.59-8.08,21.8-7.7,33.67.07,2.21.09,4.77,2.85,5.2,2.71.43,3.51-2.08,4.42-4.03.52-1.12.48-2.65,2.22-2.96-.21,3.34-5.29,6.26-.78,9.26,3.62,2.41,4.95-2.09,7.16-3.95,1.35,2.38-.85,3.33-1.25,4.83-.33,1.24-.59,2.56.56,3.44,1.12.86,2.9.77,3.33-.32,1.63-4.19,6.22-5.53,8.38-8.98,3.97-6.33,7.25-13.15,8.53-20.52,1.46-8.41,4.13-16.5,5.67-24.91,2.14-11.7,3.92-23.21.93-34.95-.89-3.52-1.39-7.02.13-10.52,6.83-15.77,13.74-31.5,22.56-46.31,2.36-3.96,4.99-7.76,6.6-12.23,4.57-12.67,10.18-24.93,16.26-36.95,5.87-11.61,12.18-23.02,16.23-35.45,1.54-4.71,2.46-9.63,4.12-14.29,4.96-13.9,5.95-26.8-5.31-38.81-5.59-5.96-11.73-10.04-19.39-11.92-13.15-3.22-25.49.65-37.82,4.72-11.44,3.77-21.05,11.05-31.8,16.15-13.29,6.31-26.37,13.02-39.97,18.7-7,2.92-14.26,6.2-19.55,11.56-12.21,12.39-22.7,26.21-28.05,43.1-1.48,4.68-3.61,10.3,2.33,13.82,2.74,1.62,3.45,3.79,4.21,6.57.93,3.4-2.83,8.54,3.45,10.11.02,0-.15.58-.15.88.06,3.37,1.96,2.41,3.77,1.57,1.16-.54,1.67-2.29,3.58-1.81.13,3.52-1.13,6.26-3.88,8.46-1.05.84-2.17,2.19-.93,3.61.96,1.1,1.97,2.88,3.77,2.19,2.34-.9,5.21-.8,6.53-3.85,1.04-2.39,7.63-4.34,9.5-2.69,2.62,2.32,4.01.6,5.25-1.07,3.02-4.08,7.3-6.26,11.75-8.4-2.96,7.5-8.25,13.22-13.88,18.66-1.09,1.05-3.94,1.2-2.28,3.51,1.14,1.59,3.21.85,4.63-.24,5.13-3.94,10.22-7.93,15.23-12,1.05-.86,1.57-2.38,2.62-3.23,3.19-2.57.92-6.72,3.1-9.69,3.45-4.7,6.51-9.69,9.63-14.63,2.41-3.81,7.32,1.54,9.53-2.71.11.1.21.19.25.23.53,1.47-1.35,2.57-.3,4.29,5.91-2.55,7.81-9.02,12.61-12.84-2.63,6.8-9.32,11.01-11.28,18.73,2.23-.83,3.63-1.45,4.93-2.76,4.16-4.18,7.5-8.93,10.71-13.85,4.22-6.47,11.68-9.52,16.61-15.35,3.58-4.24,7.87-7.82,12.87-10.42Zm-117.75-160.69c7.46,5.62,12.01,13.33,15.51,21.75,1.31,3.16,1,8.02,6.87,5.63.53-.22,1.46.41,2.15.74,16.5,8.07,36.87-1.19,46.75-12.45,4.55-5.18,2.9-12.02-2.8-16.11-5.26-3.78-11.52-5.05-17.43-5.78-3.88-.48-6.46-.15-8.87-4-1.45-2.31-4.21-3.84-4.52-7.05-.11-1.13-.91-1.97-1.83-2.6-5.79-3.94-6.87-11.63-12.5-15.71-.3-.22-.54-.92-.42-1.26,1.28-3.56-1.25-5.79-2.8-8.39-2.06-3.45-2.05-7.51-2.49-11.24-.54-4.6-4.3-10.75-8.83-12.12-3.88-1.18-7.66-1.96-11.82-2.3-5.25-.44-11.05.74-16.29-2.48-1.12-.69-4.22-.8-6.41-1.66-1.59-.62-3.67-.7-4.84,2.69,0-2.5.05-3.74-.01-4.98-.06-1.36.45-3.08-.92-3.88-1.48-.86-2.5.73-3.64,1.41-.39.23-.69.63-1.07.9-5.38,3.78-16.19,2.54-20.35-2.25-2.31-2.65-5.22-4.37-8.7-5.03-3.85-.74-8.22,3.8-7.34,7.61.32,1.38,1.83,3.26-.58,3.82-2.43.57-4.19,4.6-7.18,1.89-5.12-4.65-12.04-5.61-17.73-9.08-2.14-1.31-5.02-.99-7.13.58-6.54,4.86-12.53,10.17-13.11,19.19-.06,1,.22,3.15-1.3,2.82-4.28-.94-2.71,2.32-3.05,3.95-2.18,10.49,1.02,20.64,3.24,30.55,1.72,7.67,3.54,15.61,6.89,22.93.32.7.54,1.99,1.21,1.78,4.51-1.45,3.12,2.33,3.92,4.2.42.98.73,2.3,1.88,2.53,3.05.61,3.1,2.83,3.45,5.25.58,4.01.82,7.76,5.71,10.16,3.65,1.8,5.97,6.37,8.77,9.79.53.64.74,1.74-.4,2.43-2.26-.77-2.99-3.01-4.39-4.59-.78-.88-1.76-1.4-2.88-.65-1.06.71-1.21,1.8-.68,2.89.48.97,1.07,1.9,1.71,2.78,6.89,9.38,12.33,19.67,18.47,29.51,1.86,2.99.78,6.6,3.41,9.6,4.1,4.68,7.18,10.26,10.82,15.64-2.22.16-5.4-.73-3.07,3.19,4.33,7.28,8.63,14.58,12.9,21.9.67,1.14,1.57,2.39.36,3.62-1.71.51-2.2-2.66-4.38-.88,1.06,2.32,2.14,4.68,3.22,7.04,2.51,5.49,6.04,10.75,7.27,16.51,1.69,7.92,4.9,14.94,8.62,21.94,1.49,2.8,1.83,6.53.05,8.96-3.45,4.72.49,6.9,2.47,9.83.49.72,1.67.98,2.15,1.7,7.66,11.55,16.02,22.59,16.03,37.68,0,9.92,1.66,19.75-1.82,29.51-1.11,3.11-1.3,7.95,2.1,9.27,3.22,1.24,5.92,3.47,9.4,4.27,7.63,1.76,15.64,2.57,22.34,7.26.7.49,1.44.69,2.12.07.8-.73.66-1.67.41-2.6-.43-1.65-1.76-3.28.26-5.79,1.58,4.3,2.94,8.04,4.96,11.45,1.1,1.85,2.6,2.86,4.63,1.75,2.3-1.26,1.45-3.01.44-4.76-1.77-3.07-3.48-6.18-5.1-9.34-.39-.76-.71-2.04.28-2.53,1.14-.56,1.38.64,1.88,1.44,2.13,3.4,4.33,6.77,6.6,10.08,1.07,1.57,2.64,3.33,4.56,2.14,1.97-1.23,1.31-3.3.52-5.41-1.73-4.66-5.72-7.57-8.79-12.13,3.27.94,5.54,2.12,6.81,4.59,4.32,8.44,12,14.62,15.72,23.49.6,1.43,2.33,2.22,4,1.39,1.76-.87,1.36-2.4,1.06-4.04-.42-2.3-2.81-3.66-2.48-6.4,3,6.05,8.35,9.59,13.91,13.42,1.16-2.16.87-4.07-.44-6.27-3.6-6.02-8.71-10.87-12.41-16.84-4.06-6.58-8.58-12.91-14.46-18.11-1.29-1.14-2.3-2.68-4.27-2.38-6.48.99-13.27-1.9-19.6,1.67-1.01.57-2.81.17-4.08-.26-4.4-1.51-8.81-2.96-13.49-3.12-2.64-.09-3.1-1.53-3.56-3.85-2.2-11.24-4-22.62-7.27-33.55-2.54-8.48-3.44-17.3-6.47-25.66-1.45-4-2.09-8.55-1.98-12.83.4-15.97-3.72-31.41-5.23-47.15-1.47-15.35-5.25-30.49-8.06-45.71-.48-2.59-1.37-5.11-1.76-7.71-1.7-11.32-4.24-22.44-7.58-33.38-3.11-10.18-6.27-20.35-9.48-30.5-1.19-3.77-4.08-7.01-3.89-11.79,2.48,2.7,4.31,5.28,6.7,7.17,4.27,3.38,5.62,7.38,4.54,12.66-.71,3.47-.55,6.94,1.2,10.38,2.06,4.04,4.18,7.97,3.65,13.12-.34,3.27,1.88,6.63,5.77,8.25,9.53,3.96,19.07,4.56,28.31-.18,4.11-2.11,9.31-3.52,11.17-8.54,1.45-3.9,2.42-8.01,3.25-12.11.45-2.22.73-5.34-2.21-5.85-2.81-.49-2.57-2.2-2.1-3.58,1.24-3.7-1.36-5.22-3.24-7.37-1.29,1.33,1.46,2.69-.45,3.74q-2.27-3.18-.4-8.34l-.07.07Zm13.53,110.96c-.2-1.21.93-1.47,1.55-2.05,4.55-4.24,9.08-8.51,12.44-13.82.69-1.09,2.29-2.51.56-3.58-3.27-2.01-1.25-3.37.18-5.05,3.14-3.66,6.53-7.29,6.31-12.56-.08-1.97.3-3.49,1.33-5.2,2.51-4.16,1.4-6.82-3.02-8.46-2.33-.86-4.63-1.8-6.89-2.81-3.32-1.48-5.43-1.56-6.01,3.06-.64,5.06-3.47,9.22-7.73,12.14-8.93,6.12-18.81,8.34-29.59,7.25-8.01-.81-9.44,1.02-7.49,8.94,3.34,13.55,5.91,27.25,8.32,40.98,1.26,7.17,1.67,14.48,2.66,21.7.59,4.27,2.95,5.2,6.48,2.8.89-.61,1.61-1.47,2.46-2.14,8.41-6.71,14.66-15.38,21.64-23.41,2.86-3.29,3.47-6.38,1.95-10.2-.5-1.26-1.51-2.37-.82-3.94.76-1.75,4.08-3.03,1.54-5.45-2.66-2.53-3.51,2.33-5.85,1.78Zm-119.58,25.12c-2.03-1-3.45-3.52-5.34-.59-4.65,7.2-4.55,9.1,1.08,15.68.91,1.06,1.79,2.18,2.86,3.06,4.49,3.73,8.68,7.51,15.4,7.25,6.14-.23,12.38.36,18.45,2.17,6.07,1.8,12.52,1.98,18.47,4.53,2.75,1.18,6.03,1.19,8.33-1.14,2.3-2.33,1.28-5.19.16-7.85-1.15-2.72-2.37-5.42-3.34-8.21-5.06-14.63-9.45-29.5-15.9-43.63-.84-1.85-1.54-2.92-3.93-3.11-3.09-.26-4.7-3.8-3.28-6.53,1.4-2.67-.46-3.45-2.21-4.03-3.15-1.04-4.84-2.71-3.68-6.21.76-2.28-.85-2.4-2.29-2.21-2.66.34-4.2,1.95-4.15,4.68.03,1.56.45,3.22-.74,4.46-2.08,2.16-1.57,4.49-.88,6.97.38,1.38,1.56,2.78.09,4.59-.8-1.04-1.48-2.02-2.26-2.92-.69-.8-1.34-2.08-2.55-1.68-1.54.51-.42,1.8-.42,2.78,0,2.53.71,4.89,1.59,7.22.35.92.29,1.88-.69,2.45-.6.35-1.26.2-1.65-.36-.77-1.13-1.59-3.08-3.04-1.84-1.66,1.41.8,2.18,1.41,3.21,2.08,3.52-1.44,4.54-2.83,6.45-1.67,2.3-2.09.06-2.82-.92-.64-.85-1.44-1.3-2.34-.51-.87.77-.51,1.7.07,2.51,2.31,3.24.93,6.05-1.39,8.33-1.48,1.45-1.96,3.03-2.19,5.38Zm106.63-211.78c4.2,0,8.4.05,12.59-.02,2.98-.04,4.49-1.78,3.64-4.57-1.32-4.31-2.85-8.85-6.36-11.75-4.61-3.81-8.79-8.1-13.49-11.77-5.21-4.07-8.31-8.73-7.12-15.75.59-3.49.25-7.14.27-10.72.01-2.53.85-7.03-1.36-6.93-3.24.14-2.14,4.43-2.08,7,.3,12.61-4.1,23.62-10.89,33.95-2.52,3.82-4.48,8.08-2.58,12.69,1.97,4.76,6.17,6.52,11.08,7.3,5.42.86,10.85.66,16.28.56Zm-27.55,585.58c.54,2.67.78,4.33,1.23,5.94,1.4,5.05,5.06,6.17,9.03,2.76,3.65-3.13,3.24-7.11,2.11-11.16-.97-3.49-5.47-7.02-8.95-6.91-4.52.14-7.16,2.75-8.17,6.96-.41,1.69-.51,2.83-2.64,3.64-2.95,1.12-2.62,4.38.24,5.93,2.11,1.14,4.99,1.02,6.09,3.83.24.62,1.06.76,1.62.42.87-.55.65-1.26,0-1.89-2.57-2.53-2.75-5.36-.57-9.51Zm-67.59-658.05c3.49-5.15,3.31-10.94,3.03-16.68-.07-1.33-.22-3.49-2.29-3.41-1.6.06-1.99,1.85-2.25,3.17-1.09,5.69-.1,11.28,1.51,16.92Zm-19.31-6.3c2.26-8.11,2.75-16.4,2.79-24.73-4.56,7.86-4.45,16.21-2.79,24.73Zm74.1-49.47c-.67-1.88,2.26-5.05-1.79-5.52-1.93-.22-4.52.08-4.92,3.02-.36,2.65,3.08,9.39,4.58,8.88,3.15-1.09,1.4-4.2,2.13-6.37Zm27.51,2.77c-3.34-.21-6.52.12-8.6,3.2-.49.73-1.29,1.62-.7,2.51.59.9,1.74.54,2.57.31,3.24-.88,6.06-3.07,9.63-2.98.87.02,2.01-.22,2.11-1.39.14-1.6-1.23-1.52-2.25-1.64-.91-.11-1.85-.02-2.77-.02Zm-42.66,7.4c-1.07-3.11-2.58-5.29-5.14-6.74-1.84-1.04-3.25-.2-4.68.75-.86.57-1.13,1.41-.86,2.41.48,1.79,1.79,2.25,3.48,2.42,2.26.23,4.49.71,7.21,1.15Zm-1.6,20.51c.15-2.9.44-5.21.33-7.5-.1-1.97-1.73-3.22-3.46-3.15-2.03.08-1.29,2.1-1.34,3.36-.12,3.04,1.16,5.36,4.47,7.29Zm40.65-3.11c2.86.08,5.61-1.45,5.34-3.94-.34-3.12-3.16-.36-4.85-.64-.29-.05-.62.04-.91.14-1.42.49-4.03-.66-3.89,1.98.13,2.33,2.37,2.48,4.31,2.45Zm-74.17-8.65c.09,5.61,2.38,9.21,4,13.02-.15-4.28.18-8.7-4-13.02Z"/>
        <path class="cls-5" d="m898.02,279.15c-4.04-3.55-4.51-9.05-7.28-13.32-6.99-10.75-13.84-21.6-20.75-32.41,12.3,11.02,20.33,24.89,26.68,39.88.77,1.81.92,3.89,1.35,5.85Z"/>
        <path class="cls-5" d="m815.84,308.05c-6.61-4.55-14.43-8.16-13.77-18.44,4.57,6.17,9.14,12.34,13.71,18.51,0,0,.07-.07.07-.07Z"/>
        <path class="cls-5" d="m866.28,578.38c-4.5-5.01-9.19-9.88-12.1-16.11,5.33,4.38,8.82,10.16,12.1,16.11Z"/>
        <path class="cls-5" d="m714.59,308.15c2.11.15,2.98,1.33,2.89,3.26-.04.88-.71,1.51-1.54,1.07-1.73-.93-1.92-2.5-1.35-4.33Z"/>
        <path class="cls-5" d="m933.52,468.82c1.88-5.25,8.11-5.26,11.08-9.37-.37,3.89-.62,7.79-4.28,9.92-6.16,3.58-8.73,9.82-11.64,15.66-3.38,6.76-6.07,13.87-9.08,20.82-.29.68-.6,1.77-1.07,1.87-1.12.23-1.18,2.79-2.87,1.34-1-.86-.62-1.98-.14-3,5.47-11.53,11.24-22.9,18.53-33.42.35-.51.83-.97,1.06-1.52.72-1.73,4.64-2.05,2.98-4.28-1.17-1.57-2.69,1.94-4.6,1.95,0,0,.03.04.03.04Z"/>
        <path class="cls-5" d="m937.12,485.32c.32,4.9-3.24,8.44-2.86,13.24.08.99-3.15,1.59-4.19,3.93-2.97,6.65-6.99,12.8-9.25,20.57-2.76-4.8-1.65-8.39.59-11.69,5.31-7.81,9.45-16.29,14.29-24.37.37-.62.94-1.12,1.42-1.68Z"/>
        <path class="cls-5" d="m938.17,453.79c-4.31,4.73-8.62,9.45-12.92,14.18,2.61-6.26,6.12-11.73,12.07-15.08.28.3.57.6.85.9Z"/>
        <path class="cls-5" d="m931.52,511.56c.01,5.22-1.59,9.89-4.88,13.96-.4-5.31,2.81-9.45,4.88-13.96Z"/>
        <path class="cls-5" d="m908.08,589.7c.91,1.32.17,2.49.04,3.6-.14,1.25.37,2.89-1.34,3.53-.32.12-.99-.11-1.19-.4-1.09-1.57-.08-2.85.73-4.12.54-.85,1.12-1.68,1.76-2.61Z"/>
        <path class="cls-5" d="m833.76,514.41c-1.01,2.04-2.02,4.07-3.08,6.21-1.8-2.36-1.65-2.71,3.08-6.21Z"/>
        <path class="cls-5" d="m710.99,563.8c-.86-2.52-5.57-1.19-5.35-5.19.09-1.58,1.7-3.18,2.63-2.34,1.79,1.59,5.48,1.43,5.24,4.99-.08,1.22-.52,2.47-2.53,2.55Z"/>
        <path class="cls-5" d="m699.58,562.25c-.17,1.32-.23,2.95-2.02,3-1.46.04-2.76-.96-2.67-2.54.08-1.42.29-3.35,2.32-3.34,1.53.01,2.31,1.26,2.37,2.88Z"/>
        <path class="cls-5" d="m716.11,553.25c.08,1.01-.71,2.05-1.06,1.73-1.61-1.47-4.51-1.2-5.24-3.66-.25-.84.61-1.94,1.62-1.75,2.17.42,3.82,1.7,4.68,3.68Z"/>
        <path class="cls-5" d="m713.72,489.44c5.03.18,10.07.35,15.17,3.14-5.76.44-10.37-1.66-15.11-3.2,0,0-.06.05-.06.05Z"/>
        <path class="cls-5" d="m751.04,677.13c2.35,3.1,1.95,6.3,1.53,9.5-1.11-2.93-1.98-5.9-1.53-9.5Z"/>
        <path class="cls-5" d="m722.69,551.96c-.21,2.82-1.67,4.49-2.91,6.76q-.97-3.24,2.91-6.76Z"/>
        <path class="cls-5" d="m728.8,177.28c6.65,1.55,13.06,1.89,19.16-2.28,1.35-.93,1.94-2.83,3.84-3.03-.02,3.61-5.43,12.33-8.34,12.12-2.72-.19-4.72.02-6.85,1.62-.9.68-1.74,0-1.67-1.27.04-.68-.19-1.55-.82-1.39-5.61,1.45-4.12-3.37-5.25-5.85,0,0-.08.08-.08.08Z"/>
        <path class="cls-5" d="m765.29,210.83c-3.62.13-5-1.48-2.23-4.15,1.95-1.88.78-5.25,4.93-6.39,6.68-1.82,8.56,2.52,11.51,6.62-4.42-2.1-8.71-3.09-12.96-.1-1.52,1.07-1.73,2.46-1.32,4.1l.07-.07Z"/>
        <path class="cls-5" d="m765.22,210.9c3.51.19,7.03.39,10.4.57.92,1.79-3.85,2.97-.12,4.92.7.37-.79.91-1.39,1.11-1.75.59-3.53,1.08-5.56,1.68,2.94-4.41-4.22-4.66-3.25-8.35,0,0-.07.07-.07.07Z"/>
        <path class="cls-5" d="m801.22,430.95c.17-2.89,1.03-5.24,2.41-7.32.93-1.4,2.28-2.97,4.18-1.55,1.59,1.18,1.57,3.03.51,4.6-1.06,1.57-1.78,3.2-2.37,5-.45,1.38,0,4.18-2.49,3.64-2-.43-2.13-2.8-2.24-4.36Z"/>
        <path class="cls-5" d="m732.06,404.66c1.26.29,1.87,1.12,1.7,2.34-.15,1.06-.5,2.26-1.93,2.1-1.11-.13-1.32-1.22-1.45-2.12-.17-1.23.41-2.06,1.68-2.33Z"/>
      </g>
    </g>
  </g>
</svg>