<?xml version="1.0" encoding="UTF-8"?>
<svg id="femme-2" xmlns="http://www.w3.org/2000/svg" xmlns:xlink="http://www.w3.org/1999/xlink" viewBox="0 0 1080 1080">
  <defs>
    <style>
      .cls-1 {
        fill: url(#Dégradé_sans_nom_15);
        opacity: .37;
      }

      .cls-1, .cls-2, .cls-3, .cls-4, .cls-5, .cls-6, .cls-7, .cls-8 {
        stroke-width: 0px;
      }

      .cls-2 {
        fill: url(#Dégradé_sans_nom_6);
      }

      .cls-3 {
        fill: url(#Dégradé_sans_nom_4);
      }

      .cls-4 {
        fill: url(#Dégradé_sans_nom_4-2);
      }

      .cls-5 {
        fill: url(#Dégradé_sans_nom_6-4);
      }

      .cls-6 {
        fill: url(#Dégradé_sans_nom_6-2);
      }

      .cls-7 {
        fill: url(#Dégradé_sans_nom_6-3);
      }
    </style>
    <linearGradient id="Dégradé_sans_nom_15" data-name="Dégradé sans nom 15" x1="661.97" y1="760.12" x2="830.98" y2="467.73" gradientUnits="userSpaceOnUse">
      <stop offset="0" stop-color="#f01048"/>
      <stop offset=".2" stop-color="#3b2f35"/>
    </linearGradient>
    <linearGradient id="Dégradé_sans_nom_4" data-name="Dégradé sans nom 4" x1="865.61" y1="471.7" x2="438.72" y2="515.22" gradientUnits="userSpaceOnUse">
      <stop offset=".09" stop-color="#aeb9b0"/>
      <stop offset="1" stop-color="#beaa9a"/>
    </linearGradient>
    <linearGradient id="Dégradé_sans_nom_6" data-name="Dégradé sans nom 6" x1="785.29" y1="253.6" x2="770.33" y2="255.12" gradientUnits="userSpaceOnUse">
      <stop offset=".19" stop-color="#f01048"/>
      <stop offset=".75" stop-color="#3b2f35"/>
    </linearGradient>
    <linearGradient id="Dégradé_sans_nom_6-2" data-name="Dégradé sans nom 6" x1="787.89" y1="161.17" x2="741.34" y2="165.92" xlink:href="#Dégradé_sans_nom_6"/>
    <linearGradient id="Dégradé_sans_nom_4-2" data-name="Dégradé sans nom 4" x1="808.98" y1="175.73" x2="772.22" y2="179.48" xlink:href="#Dégradé_sans_nom_4"/>
    <linearGradient id="Dégradé_sans_nom_6-3" data-name="Dégradé sans nom 6" x1="695.72" y1="572.39" x2="603.98" y2="581.74" xlink:href="#Dégradé_sans_nom_6"/>
    <linearGradient id="Dégradé_sans_nom_6-4" data-name="Dégradé sans nom 6" x1="496.69" y1="870.53" x2="403.9" y2="879.99" xlink:href="#Dégradé_sans_nom_6"/>
  </defs>
  <path class="cls-1" d="m950.53,573.5c-13.99,3.5-155.42-62.49-286.81-28.84-131.39,33.65-93.78,35.68-88.13,36.85,11.2,2.31,90.9,6.92,107.35,6.41,32.19-.99,16.45,5.22,43.48-1.4,27.02-6.61,66.89-20.7,92.62-14.46,25.73,6.24,111.5,26.68,137.89,14.25,26.39-12.43,0-14.42-6.41-12.82Z"/>
  <g>
    <path class="cls-3" d="m767.18,164.38c-2.4,0-20.83,11.22-20.83,11.22,0,0-5.61,17.63-5.61,24.84s7.21,23.23,6.41,25.64-2.4,16.82-2.4,16.82c0,0,.8,11.22,0,14.42s-5.61,17.63-8.81,19.23-16.82-7.21-20.83-1.6c-4.01,5.61-12.02,9.61-14.42,16.02-2.4,6.41-2.4,28.84-2.4,34.45s8.81,28.84,8.81,36.05,6.41,32.85-1.6,42.46c-8.01,9.61-24.03,31.24-36.85,43.26-12.82,12.02-24.84,28.84-33.65,41.66-8.81,12.82-16.02,36.05-20.03,41.66s-17.63,48.07-20.03,55.28c-2.4,7.21-6.41,29.64-13.62,36.85s-24.03,29.64-32.85,46.47-28.04,64.89-33.65,77.71c-5.61,12.82-16.82,36.85-20.03,44.86-3.2,8.01-10.41,23.23-12.82,26.44-2.4,3.2,1.6,6.41,8.01,8.01s15.22.8,23.23-10.41c8.01-11.22,18.43-16.82,27.24-30.44s34.45-57.68,40.86-71.3c6.41-13.62,19.23-34.45,29.64-49.67,10.41-15.22,54.48-65.69,64.09-72.9,9.61-7.21,12.02-16.82,19.23-18.43s10.41-4.01,16.02-2.4,27.24,12.82,38.45,10.41c11.22-2.4,19.23-.8,31.24-6.41,12.02-5.61,18.43-4.81,28.84-11.22,10.41-6.41,21.63-9.61,21.63-9.61,0,0,0,20.83,5.61,23.23,5.61,2.4,29.64,6.41,34.45,9.61s7.21,3.2,11.22,0c4.01-3.2,6.41,0,11.22,0s12.82.8,16.02-4.01c3.2-4.81,4.81-11.22,0-13.62-4.81-2.4-24.84-13.62-24.84-13.62,0,0-20.03-1.6-24.84-4.01-4.81-2.4.8-8.81.8-8.81,0,0,18.43-4.81,28.84-14.42,10.41-9.61,15.22-24.03,12.82-30.44-2.4-6.41-19.23-20.83-19.23-20.83l-17.63-8.81s-36.85-14.42-39.26-12.82-17.63-2.4-19.23-5.61-18.43-21.63-18.43-28.04,3.2-13.62,8.01-19.23,13.62-12.82,15.22-18.43,6.41-22.43,6.41-22.43c0,0,10.41-10.41,16.02-12.82s12.02-12.82,11.22-18.43c-.8-5.61-5.61-8.81-16.02-17.63-10.41-8.81-21.63-9.61-24.03-12.02s-28.04-3.2-32.05-12.82c-4.01-9.61-.8-18.43-.8-18.43l3.2-4.01s2.67,0,3.74-.8,3.74-5.34,3.74-6.68.27-7.74,1.07-8.55,5.07-6.14,5.07-6.14c0,0,3.74-5.07,4.54-6.14s4.01-4.81,4.27-6.14,1.6-7.48-1.07-8.81-1.34-4.81-.8-6.14,3.47-.8,5.07-1.34,3.74-7.21,4.54-9.35,2.4-5.88,3.2-8.28,1.07-9.08-1.07-8.28-19.76-2.14-23.23-1.87-12.55.53-12.82-1.34,2.4-9.61,2.67-11.22,1.87-9.61-.27-9.35-6.68-.53-6.68-.53Z"/>
    <path class="cls-2" d="m782.13,244.77s-10.95,1.87-11.75,3.2,1.34,11.48,1.34,11.48c0,0,2.4,4.27,3.47,4.27s6.94-.53,7.21-1.87,2.14-7.48,2.4-8.55,1.34-1.6,1.34-3.74-4.01-4.81-4.01-4.81Z"/>
    <path class="cls-6" d="m776.52,149.16c-2.11-.34-15.22,1.6-18.16,2.94s-8.01,5.88-9.08,6.94-6.68,9.08-5.88,14.15-.8,7.74,4.54,4.01,11.75-11.48,14.15-11.22,6.41-.53,8.55-2.14,2.14-1.07,6.94-2.14,6.41-1.87,9.35-1.07,5.61,2.4,4.54-1.87-3.2-7.74-14.95-9.61Z"/>
    <path class="cls-8" d="m767.71,142.22c.7,1.91-20.56,5.07-24.84,10.68s-6.14,28.57-6.68,33.38,4.01,25.1,6.41,31.78c2.4,6.68,3.74,10.15,3.47,14.69s.27,8.81-.27,16.56c-.53,7.74-1.34,17.63-5.07,21.36s-8.01,8.28-14.15,7.48-12.82.8-16.56,3.47-8.55,13.89-16.02,8.01-15.76-15.76-17.09-24.03-5.61-16.82-4.01-20.56,7.21-13.09,7.21-13.09c6.41,0,11.22-2.4,14.42-8.81,3.2-6.41-1.6-9.08-.8-17.36.8-8.28-6.41-21.63-.8-27.77,5.61-6.14,21.63-25.64,24.3-28.04s13.89-8.01,18.16-10.95,10.95-4.81,16.29-3.74,14.15,1.87,16.02,6.94Z"/>
    <path class="cls-4" d="m789.07,165.19c-3.62,2.26-12.02-6.14-13.09,0s-1.34,14.15-2.14,17.63,1.34,4.54,8.55,3.47,7.48,1.07,14.69,2.94,9.61,5.07,11.48.27,5.88-4.81,2.94-14.15c-2.94-9.35-20.3-11.48-22.43-10.15Z"/>
    <path class="cls-7" d="m689.2,541.46c-3.66,9.14-22.7,18.96-24.84,21.9s-5.61,2.4-10.95,2.14c-5.34-.27-10.41-2.67-16.02-2.14-5.61.53-5.88-5.07-15.49,6.14-9.61,11.22-19.76,14.69-12.28,23.23,7.48,8.55,14.42,14.42,22.97,13.35,8.55-1.07,7.21,4.54,16.02,2.67,8.81-1.87,8.81,0,15.22-8.28,6.41-8.28,3.2-11.48,9.35-17.09,6.14-5.61,6.68-4.81,11.75-6.94,5.07-2.14,2.14,1.6,9.35-3.47s10.68-2.94,7.21-10.95c-3.47-8.01-11.75-21.9-12.28-20.56Z"/>
    <path class="cls-5" d="m483.57,822.39c-3.3,1.07-6.41.53-11.22,7.48-4.81,6.94-8.55,11.22-15.76,21.9-7.21,10.68-11.75,15.22-17.63,20.83s-13.35,12.28-18.43,14.42c-5.07,2.14-9.08,1.6-11.48,6.94s1.07,12.02,4.81,18.43c3.74,6.41,6.14,8.81,11.75,9.88s6.68,8.55,13.09,1.6c6.41-6.94,9.08-15.76,12.55-22.43s5.34-6.94,11.22-14.95,9.08-8.55,16.56-18.16,7.74-6.94,13.62-16.02c5.88-9.08,11.22-15.49,6.41-21.9s-7.21-10.68-15.49-8.01Z"/>
    <g>
      <path class="cls-8" d="m806.7,202.04c.35-2.27.44-4.59,2.08-7.75-5.9,2.09-9.98-.03-14.24-2.29-5.99-3.18-12.73-1.47-19.12-2.08-1.81-.17-3.66,0-5.47-.18-1.74-.18-3.19-1.09-3.82-2.78-.7-1.86.49-3,1.75-4.23,5.16-5,5.22-8.05,1.05-13.56-2.06-2.72-4.23-3.07-6.79-1.24-5.19,3.7-10.31,7.5-15.39,11.35-1.62,1.23-2.85,3-2.84,5.07.03,6.28-.75,12.59.69,18.83,1.97,8.54,3.72,17.11,4.2,25.9.13,2.37-.03,4.65-.98,6.82-1.82,4.13-1.7,8.02,1.19,11.65.31.39.61.78.92,1.17-5.53,3.43,1.15,5.9.78,9.07-.41,3.54,5.31,3.42,5.17,7.22-1.69-.35-3.54-2.52-4.92-1.01-1.34,1.46-.16,3.71.62,5.56,1,2.36,2.96,3.93,4.59,5.76.65.73,1.4,1.56,2.51,1.1,1.08-.45.92-1.54,1.12-2.51.85-4.02-2.54-6.07-4.03-9,3.88,1.68,6.79,5.26,11.94,4.42,5.45-.89,7.15-2.97,3.64-7.34-3.11-3.87-1.56-8.32-2.97-12.3-.33-.92.34-1.71,1.37-2.31,5.63-3.24,12.07-2.54,18.09-3.85,2.08-.45,1.87,1.24,1.51,2.13-.93,2.31.04,5.38-2.96,6.93-1.53.79-.93,2.57-1.04,4.05-.3,4.19-1.54,7.57-6.68,8.26-5.66.76-8.27,8.6-4.52,12.9,3.1,3.56,3.43,8.43,6.02,12.33,1.83,2.76,3.58,4.48,6.92,4.71,22.9,1.57,41.05,12.47,56.29,28.92,1.15,1.24,2.39,2.22,3.73,3.2,2.81,2.07,3.54,8.5.76,9.49-3.29,1.17-3.82,3.79-5.19,5.96-3.91,6.16-9.67,9.93-16.13,12.69-4.14,1.76-6.16,4.24-7.41,8.86-3.88,14.36-9.33,28.08-20.69,38.62-3.9,3.62-6.39,8.39-8.28,13.36-1.13,2.97-.72,5.43,1.51,8.17,3.52,4.32,6.21,9.31,9.32,13.97,2.05,3.06,4.73,5.58,6.33,9.09,2.54,5.57,8.42,5.6,13.37,5.98,9.73.76,18.68,3.72,27.61,7.39,5.92,2.44,12.1,4.3,18.31,6.09,10.37,2.99,19.98,7.99,28.15,15.23,3.9,3.46,8.63,5.97,11.46,10.73,3.09,5.2,5.15,10.55,5.99,16.58,1.21,8.69-4.86,12.86-10.62,16.26-11.6,6.85-22.5,14.92-34.85,20.49-.45.2-.87.49-1.26.8-1.56,1.24-5.36.16-4.84,3.13.57,3.32,4.11,1.61,6.33,2.06,9.5,1.92,19.35,2.5,27.59,8.66,4.85,3.63,11.61,3.86,15.94,8.75,2.69,3.04,6.09,5.43,8.96,8.32,2.78,2.8,2.09,4.91-1.88,5.7-3.1.62-5.45,1.13-5.89,5.22-.31,2.9-3.52,3.16-6.08,2.54-6.21-1.52-12.77-1.16-18.74-4.21-2.87-1.47-5.48-.38-5.65,3.73-.23,5.54-2.36,6.59-7.08,3.44-6.18-4.11-12.63-7.73-19.85-9.44-4.47-1.06-9.08-1.13-13.46-3.12-5.43-2.46-7.99-6.54-8.94-12.04-.17-.97.05-2.01-.14-2.98-.49-2.39-.5-5.32-3.14-6.35-2.54-.99-4.7.62-6.71,2.24-5.34,4.34-11.73,6.55-18.37,6.69-7.91.17-15.08,3.19-21.79,6.08-18.18,7.83-36.29,11.85-55.93,6.75-5.91-1.53-11.2-3.9-16.09-7.32-5.65-3.95-16.92-2.25-20.87,3.36-10.36,14.7-19.73,30.13-31.41,43.86-12.32,14.48-22.35,31.05-37.57,42.89-5.48,4.26-9.01,9.89-13.45,14.88-2.69,3.03-4.51,6.54-5.67,10.35-3.37,11.05-12.21,18.71-17.58,28.52-6.16,11.25-13.55,21.73-19.47,33.19-6.54,12.67-14.83,24.44-23.49,35.94-8.83,11.73-20.42,21.08-28.24,33.54-4.74,7.56-8.09,15.86-10.73,24.36-1.21,3.91-3.7,7.18-6.56,8.98-6.95,4.39-10.47,11.52-15.8,17.14-3.25,3.43-7.06,6.33-10.1,10.02-4.05,4.93-8.46,9.57-12.35,14.6-3.92,5.08-4.16,11.74-6.8,17.42-3.66,7.89-9.78,16.61-17.83,15.07-1.85-.36-3.58-.51-4.8-2.1-.83-1.08-1.81-2.21-3.27-1.87-5.14,1.19-7.65-3.06-11.16-5.23-.27-.17-.66-.47-.66-.71-.03-8.4-7.2-15.42-4.65-24.37,1.05-3.67,4.17-5.58,6.86-6.71,8.59-3.57,14.37-10.46,21.02-16.32,8.68-7.65,15.41-16.96,22.17-26.26,6.31-8.68,13.36-16.72,21.28-24.06,4.78-4.43,7.89-10.07,9.83-16.66,2.5-8.48,6.27-16.59,10.03-24.67,5.56-11.94,11.29-23.83,15.65-36.31,2.71-7.76,5.92-15.35,8.95-22.99,3.76-9.47,6.97-19.14,11.3-28.44,4.58-9.83,9.73-19.35,14.54-29.05,5.44-10.98,12.46-20.97,20.18-30.47,1.13-1.39,2.31-2.86,3.76-3.88,7.81-5.52,9.05-14.73,12.64-22.55,2.59-5.67,4.34-11.74,6.2-17.72,3.82-12.26,7.06-24.71,11.31-36.81,2.66-7.58,6.82-14.62,10.18-21.96,5.17-11.3,11.45-22.05,15.98-33.71,2.44-6.28,6.18-12.13,10.44-17.74,4.32-5.69,8.08-12.01,12.07-18.08,4.26-6.48,9.33-12.24,14.79-17.69,6.96-6.94,13.64-14.2,20.96-20.75,4.63-4.14,9.04-8.3,12.99-13.15,7.84-9.62,7.17-20.1,5.47-31.47-2.24-15.05-5.62-29.84-8.44-44.75-2.2-11.68-1.42-23.46.47-35.11.55-3.36-.4-4.43-3.46-5.04-10.4-2.07-12.18-4.55-14-14.82-.77-4.36-4.75-7.6-6.51-11.94-3.69-9.06-3.94-17.49.37-26.53,2.14-4.49,3.15-8.76,9.45-7.26-1.17.46-2.43.75-3.44,1.41-2.5,1.63-2.52,3.92-1.68,6.58,1.01,3.2,3.2,2.24,5.24,1.74,10.38-2.55,15.92-15.88,10.75-26.21-7.94-15.87-5.66-31.8,2.63-46.01,5.53-9.47,14.26-17.41,24.12-23.31,4.39-2.63,8.92-5.01,13.33-7.61,3.48-2.06,7.86-1.27,11.21-3.67h12.96c2.54,2.28,5.96,1.69,8.85,2.73,5.12,1.84,8.66,5.97,12.04,9.93,1.37,1.61,2.73,2.63,4.5,3.46,4.18,1.97,8.48,3.78,10.4,8.54.84,2.08,2.37,2.59,4.72,2.52,7.42-.23,14.85,7.14,15.08,14.62.17,5.27.53,10.42-3.35,15.01-2.48,2.93-.93,7.94-4.48,10.69,0,0,.08.08.08.08Zm-79.59,66.77c-.97,2.35-3.06,3.62-5.59,5.04,4.67,3.05,8.17,1.75,11.54-1.18,5.32-4.63,7.08-11.23,9.62-17.37.63-1.51,1.07-3.43-.67-5.52-1.19,2.64-2.33,4.94-3.29,7.32-2.26,5.59-6.08,9.59-11.72,11.81,2.49-4.38,5.85-8.22,7.22-13.31,3.48-12.93,1.61-25.59-1.38-38.23-3.02-12.8-4.75-25.6-2.87-38.85.82-5.78,2.67-11.33,3.66-18.21-4.03,3.36-5.65,6.69-6.52,10.68-2.59,11.78-1.31,23.44,1.11,34.99,1.49,7.11,1.28,14.41,3.62,21.47,4.51,13.61-2.13,25.06-8.4,36.38-.91,1.64-3.34,2.83-1.78,5.02,1.59,2.22,3.63.18,5.47-.03Zm-30.96-11.8c-5.04,1.99-9.88,4.47-15.62,4.15-1.67-.09-1.75,2.09-1.34,3.65,1.37,5.22,8.17,7.85,12.83,4.94,2.23-1.4,4.21-3.37,6.61-4.28,6.04-2.3,9.57-6.87,11.92-12.44,4.78-11.32,3.66-23.05,1.19-34.56-3.2-14.88-5.54-29.53,1.65-43.97,1.32-2.65,2.78-5.31,4.26-7.75,3.54-5.84,5.64-12.61,10.77-17.45.98-.93,2.54-1.95,1.56-3.16-1.35-1.66-2.57.31-3.72.98-7.78,4.58-13.62,11.28-19.86,17.65-12.43,12.7-13.77,27.45-9.52,43.54,1.47-9.25.58-19.06,3.96-27.78,3.37-8.68,7.94-17.26,17.04-22.64-.62,2.82-1.76,4.77-3.07,6.67-3.11,4.51-5.98,9.21-6.93,14.67-1.59,9.15-2.62,18.39-1.3,27.68,1.84,12.9,4.68,25.69,2.27,38.9-1.22,6.69-4.29,11.79-10.28,14.77-1.85.92-3.59,4.61-5.67,2.32-1.44-1.58,2.7-2.77,3.01-4.97.05-.33.1-.65.15-.98,4.29-3.39,7.83-21.74,5.05-26.04-.6-.92-1.44-1.15-1.92-.3-1.13,2.01-3.4,3.53-2.3,6.52,1.86,5.05-2.18,12.81-7.31,14.28-1.35.39-3.23,1.04-4.15-.34-.89-1.33.85-2.22,1.54-3.29.66-1.02,2.27-2.07,1.2-3.41-.88-1.11-2.5-.64-3.77-.29-2.12.58-4.27,1.03-6.33.08-3.21-1.49-3.31.47-3.22,2.71.32,8.35,8.71,12.43,17.04,7.88,3.43-1.87,3.93-.54,4.25,2.26Zm-256.92,620.41c2.59.96,1.82,3.34,1.16,4.6-4.15,8.02-6.13,17.12-12.13,24.19-.63.74-1.79,1.46-1.07,2.47.97,1.35,2,.32,2.91-.4,1.14-.91,2.26-1.86,3.46-2.7,6.21-4.37,10.9-10.47,17.27-14.74,4.53-3.03,10.79-4.34,12.25-10.96.28-1.27,2.83-1.97,1.66-3.62-.91-1.3-2.41.11-3.66.29-1.04.15-2.53.99-2.98-.52-.44-1.49,1.21-1.8,2.22-2.17,4.83-1.76,9.11-4.52,13.39-7.28,1.12-.72,2.45-1.71,2.22-3.02-.29-1.72-2.41-.03-3.83-1.8,4.89-.88,8.38-4.16,12.91-5.26,1.14-.28,2.63-.29,2.46-1.82-.19-1.73-1.87-1.79-3.14-1.58-2.68.44-5.32,1.14-7.98,1.74,1.82-2.54,1.72-6.63,5.19-6.99,4.16-.43,7.33-2.98,11.08-4.16.95-.3,2.2-.43,1.92-1.74-.31-1.49-1.61-1.13-2.81-1.2-2.59-.14-4.66,1.92-7.31,1.52,1.82-1.17,3.75-2.02,5.75-2.6,2.26-.65,5.17-1.09,4.45-4.12-.79-3.3-3.98-3.22-6.58-2.49-3.23.9-6.45,1.98-9.44,3.99-1.29-3.37,3.15-6.17-.07-9.24-3.28,2.18-5.68,5.25-7.99,8.39-6.53,8.85-13.05,17.71-19.55,26.59-3.7,5.05-9,8.69-12.42,13.99-8.02,5.84-15.77,11.94-21.62,21.67,6.25-1.72,11.86-2.44,15.22-6.44,3.44-4.08,6.03-9.08,7.04-14.58Zm82.45-136.76c-1.39.92-1.82,2.36-1.87,3.88-.41,10.81-4.36,21.27-3.25,32.24.11,1.12-.39,2.3-.6,3.45-.76-3.93-.77-7.72-.3-11.45.5-3.87-3.3-3.63-4.86-4.44-1.87-.97-1.58,2.25-1.73,3.63-.92,8.91-1.07,17.86-.89,26.81.04,1.8.88,3.85-.95,5.78-2.16-5.45,1-11.12-2-16.99-2.71,8.52-1.44,16.35-1.27,24.1-1.18-5.06-2.37-10.12-3.55-15.17h-1.71c2.11,3.51.31,6.09-1.11,8.77-.61,1.15.93,3.56-1.42,3.48-1.85-.07-.77-2.16-1-3.34-.22-1.08.1-2.61-1.64-2.46-1.27.12-1.19,1.38-1.25,2.36-.28,4.8-.58,9.6-.82,14.4-.08,1.7-.12,3.5,2.48,3.24,4.06-.4,8.2-1.36,11.38-3.6,5.77-4.07,11.07-8.84,16.32-13.59,3.04-2.74,6.36-5.11,9.18-8.18,10.19-11.04,15.36-25.25,24.18-37.24,8.71-11.85,15.47-25.2,21.8-38.56,1.99-4.21,4.92-8.35,4.63-13.46-.1-1.83,1.67-2.27,2.56-3.38,1.95-2.42,5.84-3.12,6.5-6.76-.97-.56-1.53-.24-2.02.23-1.05,1-2.11,1.72-3.38.33-1.65-1.81.31-2.57,1.1-3.63.68-.91,2.48-1.1,2-2.83-2.4-.44-3.61,3.01-6.61,1.62,2.49-2.05,4.64-3.83,6.88-5.68-2.03-1.36-3.34,1.62-5.16-.18.86-3.58,3.37-5.87,6.54-7.47,1.55-.78,3.56-1.8,3.36-3.27-.93-6.57,3.79-8.09,8.24-10.1,1.93-.87,3.75-1.75,3.02-4.78-1.38-5.77,1-9.23,6.14-12.19,3.73-2.15,8.59-3.12,11.27-8.76-5.37,2.82-9.69,5.11-14.04,7.35-.79.41-1.88,1.35-2.49,0-.52-1.15.62-2.1,1.52-2.09,2.73.04,4.5-1.98,6.79-2.75,7.16-2.41,12.42-9.96,21.24-7.84.24.06.62-.22.87-.42,3.59-2.9,7.17-5.8,10.73-8.73.65-.53,1.2-1.3.81-2.17-.5-1.11-1.41-.34-2.18-.3-3.71.15-6.08,3.16-9.31,4.33-1.37.5-2.82,2.83-3.97.32-.87-1.89.56-3.56,2.51-4.18,2.38-.76,4.87-1.47,6.66-3.16.9-.84,3.61-1.38,2.3-3-.91-1.13-2.16-3.08-4.29-2.81-1.12.14-2.36.31-3.29.88-12.52,7.7-33.3,1.43-35.5-16.34-.15-1.2-.19-3-1.88-3.13-1.67-.13-2.64,1.28-3.19,2.7-2.05,5.23-3.86,10.56-6.07,15.72-2.38,5.57-2.95,12.27-7.71,16.37-5.2,4.48-9.1,9.42-11,16-.79,2.73-2,5.34-3.01,8-1.69-1.05.21-4.15-2.34-3.91-2.03.19-1.64,2.55-1.81,4.13-.14,1.32-.08,2.65-.19,3.98-.22,2.63-.22,7.47-.81,7.55-5.02.64-2.46,5.15-4.22,7.76-.33-3.75-.05-7.08-1.43-10.65-1.83,3.74-3.76,7.03-3.32,10.96.3,2.74-1.29,5.18-3.02,5.76-3.97,1.33-2.96,4.1-3.12,6.75-.1,1.74,1.06,4.64-.39,5-3.53.86-2.16,3.29-2.31,5.1-.24,2.85-.06,5.73-.06,9.48-1.14-2.84-.06-5.36-2.13-7.39-2.04,5.21-.14,10.35-1.59,15.09-1.84.01-.57-2.82-2.77-2.32-1.11,4.06-2.24,8.19-3.57,13.07-.97-3.63.07-6.92-1.99-10.06-2.71,7.42.68,14.31-1.06,21.07-.26-3.68-.52-7.36-.88-12.4-3.26,8.8,1.28,17.39-4.15,25.28-.83-5.21.22-9.9-3.11-13.93-2.24,2.66-1.81,5.43-1.49,8.18l.08-.07Zm280.94-390.13c.92,2.68,2.83,3.95,5.63,3.78,1.32-.08,2.97-.28,3.08-1.84.14-1.96-1.78-1.58-2.94-1.69-1.95-.19-3.92-.11-5.88-.15.1-.32.23-.63.29-.95.57-2.76-.24-6.35,4.04-6.92,2.93-.39,6.15.64,8.7-1.75.02-.02.78.58,1.01.99,1.7,3.07,3.55,6.14.78,9.6-.79.99-2.17,2.26-.71,3.36,1.55,1.16,2.7.04,3.36-1.6.3-.75.76-1.48,1.28-2.1,5.75-6.88,6.21-20.38.72-27.61-6.01-7.9-14.04-12.68-22.86-17.41-12.15-6.5-23.77-14.08-36.22-20.18-1.83-.9-4.54-1.69-5.2-4.1-1.89-6.88-7-10.43-12.8-13.47-1.39,1.51.48,3.99-1.73,4.57-4.69,1.24-3.2,3.75-1.31,6.28-3.01.9-5.7,1.03-8.63.45-3.55-.7-7.26-.64-10.9-.8-8.1-.35-22.07,10.7-22.5,20.56-.44,10.1-1.15,20.21.06,30.29.42,3.46.68,6.95,4.91,8.94,4.24,2,7.14,5.34,8.75,10.5,1.47,4.69,2.06,9.81,4.31,14.11,4.85,9.23,8.05,19.11,12.27,28.58,8.22,18.45,19.71,34.87,31.69,51,4.92,6.61,10.83,12.43,15.27,19.43,6.35,10.01,12.92,19.89,19.3,29.89,6.46,10.12,13.54,19.81,19.16,30.51,3.24,6.16,5.03,12.99,8.79,18.76,5.59,8.57,8.78,18.07,11.83,27.61,1.91,5.98,4.68,10.31,11.22,11.83,3.16.74,6.24.61,9.37.72,2,.07,3.83.16,5.63,1.42,2.16,1.51,4.28,4.68,7.31,2.59,2.71-1.88-.66-4.52-.28-6.5,8.56-2.04,16.1.53,23.37,4.53,2.69,1.48,5.49,3.01,9.13,1.47-6.44-9.2-17.06-11.1-26.1-15.54,4.27-.19,7.94,1.03,11.38,3.02,1.05.6,2.33.92,3.08-.35.67-1.14-.37-1.89-1.21-2.34-1.74-.94-2.02-2.74-2.84-4.35,5.22,5.3,13.01,3.49,18.83,7.03.89.55,2.07.46,2.68-.49.89-1.38-.36-2.02-1.22-2.78-4.79-4.22-11.2-5.61-16.28-9.36-3.7-2.74-8.03-3.65-12.65-3.87-6.61-.32-13.21-1-19.8-1.67-6.42-.66-11.89-2.58-13.11-10.16-.28-1.72-1.4-3.35-2.34-4.9-6.83-11.18-11.41-23.22-15.06-35.8-3.21-11.05-5.71-22.46-11.38-32.67-6.3-11.34-11.3-23.37-18.8-34.11-5.08-7.27-9.46-15-16.48-20.7-1.63-1.33-3.04-2.54-3.83-4.86-4.17-12.22-6.41-24.86-8.8-37.47-2.01-10.62-7.1-20.27-9.49-30.75-1.65-7.23-3.42-14.34-7.22-20.86-.81-1.38-3.04-2.52-2.31-5.09,8.62,8.97,8.67,8.97,11.3.62,2.79,2.29,4.14,5.46,4.25,8.94.15,4.82,2.92,7.98,6.2,10.83,1.06.92,2.04,1.62,2.12,3.25-1.65-.06-3.78-1.17-4.45,1.4-.5,1.89-.04,3.63,1.62,4.87,3.72,2.8,7.18,5.93,9.31,10.08,1.69,3.28,4.44,5.33,7.59,5.94,8.78,1.7,17.43.78,25.61-3.16,1.1-.53,2.14-1.12,1.84-2.56-.33-1.58-1.57-2.01-3.01-2.01-2.16,0-4.34.23-6.47.01-3.21-.32-4.75-1.71-2.27-4.84Zm-49.19,110.41c-.64-1.78.97-5.17-2.04-5.22-4.38-.06-4.07-2.74-4.25-5.58-.21-3.33,2.24-7.62-3.28-9.18-.69-.2.3-1.62.1-2.25-1.38-4.26,1.48-9.72-3.63-12.96-.42-.27-.43-1.21-.59-1.85-2.42-9.79-6.85-18.54-12.9-26.63-1.36-1.81-3.93-3.23-4.09-5.3-.5-6.29-3.49-11.37-6.35-16.72-1.47-2.75-4.1-6.3-5.57-5.86-3.47,1.05-1.82,5-1.58,7.78.3,3.42,3.26,7.75,2.6,9.56-2.09,5.7,1.39,9.48,2.61,14.03.2.75,1.03,1.24.07,2.45-4.02,5.07-7.03,10.99-9.8,16.64-3.8,7.73-10.4,11.97-16.55,16.52-3.43,2.54-4.78,4.92-5.36,8.52-.17,1.07.55,2.59-1,2.98-3.17.8-4.58,3.62-6.74,5.56-.58.52-.72,1.35-1.87,1.17-5.61-.87-8.04,1.48-7.71,7.29.05.94.83,2.42-.18,2.74-6.14,1.95-9.47,7.38-14.25,10.99-7.46,5.63-13.35,19.28-9.13,28.49.76,1.67,1.2,3.48.99,5.33-1.01,8.87,4.75,15.15,8.52,22.17.92,1.71,2.48,2.75,4.34,3.76,5.26,2.85,10.21,5.4,16.68,4.88,3.87-.31,6.27-1.14,7.7-4.64,1.05-2.57,1.45-5.91,3.34-7.53,5.22-4.47,7.67-10.09,8.98-16.52.2-.98.72-2.01,1.98-1.7,1.05.26.89,1.32.77,2.1-1.12,7.31.88,14.56.46,21.81-.48,8.24,2.63,15.61,6.74,21.87,7.95,12.09,19.55,19.24,34.56,20.06,3.9.21,6.03-1.55,6.07-4.81.04-3.34,1.88-4.88,4.18-5.96,2.31-1.08,3.69-2.62,4.64-4.85.5-1.17,1.02-2.76,2.76-2.18,1.56.51,2.07,2.03,2.36,3.54.29,1.49-2.43,3.26-.13,4.3,1.88.85,3.07-1.49,4.54-2.47.57-.38,1.19-.59,1.94.32-3.7,3.15-7.41,6.31-11.14,9.46-1.34,1.14-2.71,2.33-.85,4.02,1.77,1.61,8.89-.05,8.74-2.14-.44-5.92,4.22-7.15,7.67-9.65,2.97-2.15,7.27-4.96,6.9-7.97-.69-5.6,2.26-8.49,5.22-11.94,1.07-1.25,1.65-2.72,1.65-4.54,0-5.01-.16-10.02,1.4-14.95.84-2.64.57-5.62,1.34-8.29,1.68-5.89-3.84-10.1-3.37-15.69.1-1.19-1.24-1.93-2.57-1.78-1.47.17-1.74,1.35-1.87,2.55-.29,2.78-.43,5.6-2.64,7.62.18-3.97,0-7.95,2.52-11.32,1.05-1.4.22-2.49-1.25-3.08-1.58-.62-2.75-.16-2.77,1.61-.02,2.5-1.38,3.46-3.59,3.85.38-5.14.83-10.19,1.09-15.25.11-2.04.05-4.05-3.21-3.52-3.34.55-2.59-1.68-1.59-3.29.87-1.4,2.15-2.57,2.31-4.3.15-1.6-.67-3.08-2.24-2.05-5.56,3.66-4.98-.14-4.86-3.69.06-1.82.28-3.74-.2-5.43-.64-2.26,1.11-5.6-1.77-6.67-2.49-.93-2.31,3.3-4.87,3.75Zm130.3,24.34c.68-3.75-1.21-6.58-4.77-8.95-5.65-3.77-11.75-6.63-17.8-9.61-.97-.48-2.25-.57-3.36-.5-5.1.34-9.83.22-14.11-3.54-2.47-2.17-6.09-6.82-8.98.14-.59,1.41-2.14.28-2.97.56-3.31,1.13-7.83-.2-9.57,4.35-2.19,5.73.02,10.98,1.84,16.25.56,1.6,1.59,2.74,3.1,3.69,5.94,3.72,14.84,1.78,18.54,9.71,5.18.5,9.78,3.71,15.06,3.48,4.71-.2,5.2,1.81,3.77,5.59-2.49,6.62-4.89,13.28-7.21,19.96-.5,1.43-1.83,3.31.23,4.44,2.34,1.28,3.45-.7,4.78-2.26,4.44-5.2,5.7-11.79,8.04-17.9.27-.7.23-1.74-.1-2.41-1.2-2.42-2.7-5.15.8-6.49,2.95-1.13,2.46-5.24,5.65-5.64,6.33-.79,7.07-5.27,7.05-10.88Zm-232.94,78.61c1.83-.24,3.56.06,4.5-1.33,1.1-1.64-.8-2.25-1.51-3.19-2.71-3.52-8.59-7.38,1.35-9.08,1.24-.21,1.58-1.63.99-2.89-.62-1.32-1.63-1.58-2.86-.86-2.12,1.24-4.57.63-6.81,1.23-1.17.31-3.19.95-2.64-1.29.31-1.28.43-4.07,3.12-3.38,1.92.5,3.72.94,4.81-1.05,1.09-1.98-.59-3.34-1.56-4.86-4.43-7-8.69-14.08-9.22-22.66-.17-2.74-1.84-4.91-2.75-7.37-.74-2.01-1.82-2.02-3.16-.25-3.05,4.02-8.27,6.76-7.22,13.1.22,1.32-1.67,1.45-2.31,2.37-1.91,2.75-5.47,3.27-7.07,7.03-5.25,12.27-10.69,24.45-14.81,37.16-1.78,5.49-3.2,11.1-4.69,16.69-.33,1.25-.52,2.7.91,3.57.83.5,1.75.2,2.23-.48,4.69-6.76,11.61-11.24,17.33-16.94,6.18-6.15,13.47-10.06,22.67-7.95,3.04.7,6.02,1.69,8.69,2.45Zm125.4-168.14c.07,1.15-.32,2.88.28,3.35,4.21,3.32,3.83,7.88,4.11,12.45.14,2.24,2.19,3.68,4.5,4.05,2.86.46,2.96-2.09,3.74-3.77,3.56-7.76,7.54-15.18,13.55-21.47,4.17-4.36,8.27-8.93,8.8-15.55.23-2.8,1.51-5.71-1.76-7.47-4.1-2.21-9.38-1.31-11.99,1.81-3.89,4.63-5.17,4.82-9.82,1.75-2.48-1.64-5.04-3.14-7.61-4.63-1-.58-2.18-1.12-3.21-.12-1.14,1.11-.91,2.54-.16,3.67,1.96,2.97,3.97,5.92,6.2,8.68.74.91,2,1.5,1.16,2.78-.88,1.34-2.01.47-3.05-.06-1.5-.76-3.77-.87-3.02,1.18,1.81,4.92-1.81,8.84-1.73,13.35Zm-109.02,181.86c4.6-1.02,9.62-3.57,15.14-3.78,4.89-.19,9.42-1.79,14.01-3.14,3.49-1.03,4.22-3.15,2.49-6.48-2.06-3.95-3.75-8.09-5.6-12.15-2.35-5.17-4.1-5.66-8.56-2.34-8.24,6.13-13.95,14.87-21.92,21.3-1.39,1.12-1.4,2.88-.46,4.56.94,1.69,2.35,2.23,4.9,2.03Zm-29.51-13.35c-4.97-1.17-9.1,2.14-13.45,4.82-1.2.74-2.14,1.73-1.65,3.23.44,1.35,1.79,1.58,2.9,1.27,7.53-2.14,14.61-.17,21.75,1.99,3.13.95,10.28-2.32,12.21-4.97,1.66-2.28,1.21-4.21-1.47-4.1-6.69.28-12.95-2.59-20.28-2.24Zm195.26-222.97c-.03.33-.13.67-.07.99.34,1.79-1.44,4.49,1.18,5.22,2.31.64,3.61-1.9,5.08-3.4,1.72-1.75.87-3.06-.54-4.63-3.27-3.65-2.51-7.81-.1-11.32,1.93-2.81,1.63-4.76-.39-7.01-3.99-4.45-8.39-8.42-13.5-11.57-1.65-1.01-3.45-3.09-5.2-1.14-1.86,2.07.7,3.45,1.89,4.88,1.16,1.4,2.51,2.64,3.66,4.05,5.66,6.97,7.65,15.18,7.98,23.93Zm-87.77-165.56c4.68-2.74,9.79-3.88,10.82-8.06.77-3.13,2.25-5.21,3.9-7.56.83-1.18,1.99-2.47,3.09-1.59,1.35,1.08-.19,2.32-1.01,3.24-.63.7-1.95,1.17-1.2,2.28.67.99,1.72.16,2.68-.06,6.14-1.38,9.8-5.28,11.71-11.28-6.01.08-11.76.69-16.69,4.56-1.14.9-3.08,2.37-3.77,1.99-5.6-3.07-5.57,2.21-6.95,4.7-1.76,3.18-1.65,6.95-2.57,11.79Zm59.67,373.2c-.05.33-.47-.53-1.53-.92-1.76-.66-3.17.25-4.62,1.11-5.13,3.06-7.36,8.87-11.91,12.48-.53.42-.86,1.11-.41,1.76.56.8,1.42.57,2.26.49,2.78-.26,5.09-2.01,7.05-3.45,3.57-2.62,7.87-4.99,9.17-11.46Zm-69.89-398.83c9.03-5.65,17.47-10.88,28.05-10.62-7.39-1.49-14.57-2.69-21.79-.26-3.03,1.02-3.03.97-2.54,4.2.15.96-.53,1.44-1.16,2.02-1.04.96-2.57,1.61-2.58,4.66Zm-67.99,442.43c-.29-2.74-2.63-2.7-3.94-3.77-1.52-1.24-2.89-.15-3.8,1.02-1.3,1.66-2.47,3.47-3.45,5.34-1.33,2.54-4.91,5.81-3.21,7.6,2.55,2.66,4.82-1.79,7.33-2.9.3-.13.73-.12.91-.33,2.05-2.43,4.83-4.27,6.15-6.96Zm-230.36,328.36c1.85.04,2.91-1.44,3.95-2.89,3.32-4.61,4.52-10.18,6.84-15.24.28-.61.5-1.32-.2-1.76-.85-.54-1.45.06-2.13.58-6.34,4.86-10.47,10.69-8.46,19.3Zm259.7-632.43c4.27-.06,8.09-2.52,8.19-5.21.06-1.81-.68-2.71-2.67-2.6-4.47.26-9.96,3.24-9.66,5.44.36,2.57,2.6,2.01,4.14,2.38Zm71.95,285.34c2.51.12,5.01-1.26,7.51-2.53,1.49-.76,2.3-2.03,1.3-3.67-.92-1.51-2.24-2.55-4.14-1.61-2.22,1.1-4.36,2.33-6.56,3.46-1.24.64-2.44,1.36-1.91,2.98.53,1.64,2.06,1.35,3.81,1.36Zm-46.03-322.79c-2.89.41-3.14,2.26-3.82,3.67-1.84,3.86-4.42,7.16-7.44,10.14-1.02,1.01-2.78,1.94-1.31,3.54,1.15,1.24,2.91.84,4-.36,4.36-4.77,6.4-10.65,8.56-16.99Zm61.47-92.31c1.51-.48,4.64,1.06,5.13-1.43.39-1.98-2.47-3.15-4.4-4-2.55-1.12-4.36.25-5.96,2.06-.62.7-1.88,1.35-1.15,2.36,1.25,1.74,3.34.55,5.01.99.31.08.65.01,1.38.01Zm-40.62,85.25c.41,0,.81,0,1.22,0,1.13-6.8,1-13.61,0-20.42-.41,0-.81,0-1.22,0v20.42Zm33.92,12.73c-1.95.16-4.13.19-4.12,2.25,0,2.78,2.81,3.54,4.85,4.01,1.92.44,3.63-1.27,3.72-3.18.15-3.25-3.12-2.03-4.45-3.08Zm4.43-74.33c2.83-2.3,4.69-12.81,3.06-15.36-.31-.48-1.02-.91-1.59-.97-1.14-.12-.75.76-.6,1.34,1.3,5.06.73,10.01-.87,15Zm-363.72,707.67c-2.1,1.51-3.76,2.73-5.46,3.9-.9.62-1.44,1.41-1.13,2.48.43,1.51,1.74,1.82,3.09,1.99,1.21.15,2.02-.48,1.97-1.6-.09-2.19,2.08-3.72,1.54-6.77ZM804.24,173.01c.77,4.32.24,8.5-2.24,13.55,6.05-4.26,6.56-8.9,2.24-13.55Zm-107.4,103.45c-2.61.94-5.34-.26-6.73,2.21-.6,1.07.67,1.73,1.69,1.8,2.41.15,4.7-.03,5.04-4.01Zm99.74-104.95c1.41,4.12-1.06,8.07-.16,12.16,2.65-3.89,2.49-7.97.16-12.16Zm-74.06,74.32c3.85-3.66,3.24-8.29,2.9-12.87.05,4.52-2.14,8.5-2.9,12.87Zm-302.97,669.21c.1,1.23-.21,2.9,1.73,2.79,2.13-.12,2.97-1.55,2.99-3.65.02-1.86-.85-2.74-2.59-2.71-2.54.04-1.91,2.07-2.13,3.57Zm478.58-408.86c-1.92.55-2,2.23-1.94,3.84.05,1.1.34,2.66,1.82,2.28,1.76-.46,2.08-2.34,2.25-3.92.14-1.25-.59-2.15-2.14-2.2Zm-85.47,52.32c1.74-1.2,3.75-2.52,4.68-4.86.25-.62-.35-1.51-.98-1.33-2.47.7-3.38,3.15-4.97,4.84-.38.4.09,1.22,1.27,1.35Z"/>
      <path class="cls-8" d="m793.73,208.16c2.14-2.74,5.35-3.57,8.33-3.13,2.97.44,3.67-1.12,4.64-2.99,0,0-.08-.08-.08-.08-.42,5.38.87,11.23-5.22,14.8-1.69.99-3.91-1.87-4.98,1.22-.3.86-1.2,1.13-.21,2.29,3.29,3.85,3.05,9.73-.35,14.15-.7.91-1.7,1.66-2.17,2.66-1.32,2.82-3.04,3.32-5.87,1.96-2.79-1.35-5.85-2.14-8.78-3.2-1.47-.53-2.68-1.29-2.28-3.78,2.82,2.83,6.35,3.28,9.67,4.33,2.52.8,4.74-.03,6.21-1.92,1.34-1.72-.11-3.27-1.16-4.83-4.82-7.17-3.66-17.22,2.36-21.56,1,6.45,5.61,1.39,8.17,2.86-2.19-2.77-5.51-1.82-8.25-2.78Zm4.23,17.38c.16-1.31-.41-2.76-2.81-3.06-1.75-.22-3.89-1.44-5.04.31-1.03,1.57.78,2.93,1.88,4.13.33.36.6.78.89,1.18.86,1.21.73,3.87,3.07,2.95,1.78-.7,1.88-2.91,2.01-5.52Z"/>
      <path class="cls-8" d="m777.1,219.05c-6.85-.36-12.52-4.86-14.2-10.92-.37-1.34.55-1.81,1.55-2.02,3.22-.69,6.44-1.7,9.7-1.86,6.72-.33,9.44,7.18,8.27,11.42-.83,3-3.07,3.62-5.31,3.37Zm-5.25-4.22c1.53,2.5,3.84,2.69,5.79,3.15,2.63.63,3.43-1.23,3.49-3.5.06-2.37-.01-4.75-2.86-5.59-.93-.27-1.77.4-1.65,1.3.46,3.45-1.89,4.28-4.77,4.63Z"/>
      <path class="cls-8" d="m784.33,203.87c-1.81.1-2.52-.78-3.39-1.57-3.91-3.52-8.28-4.38-13.15-2.05-1.33.64-3.37,1.41-3.94-.12-.72-1.93,1.5-2.53,2.99-3.07,8.06-2.95,14.71-.43,17.49,6.81Z"/>
      <path class="cls-8" d="m710.17,301.82c-.25-6.92,4.33-11.82,12.64-13.03-6.45,3.23-10.48,7.23-12.64,13.03Z"/>
      <path class="cls-8" d="m773.62,528.66c-.22-1.52-1.35-3.91.82-4.12,2.56-.26,1.42,2.69,1.89,4.15.49,1.54.12,4.02-1.74,3.91-2.56-.16-.51-2.59-.96-3.93Z"/>
      <path class="cls-8" d="m521.61,740.73c2.41,4.73,3.04,9.56,1.51,14.53-.48.02-.95.04-1.43.05,0-4.88,0-9.76,0-14.64,0,0-.08.07-.08.07Z"/>
    </g>
  </g>
</svg>