<?xml version="1.0" encoding="UTF-8"?>
<svg id="femme-1" xmlns="http://www.w3.org/2000/svg" xmlns:xlink="http://www.w3.org/1999/xlink" viewBox="0 0 1080 1080">
  <defs>
    <style>
      .cls-1 {
        fill: url(#Dégradé_sans_nom-2);
      }

      .cls-1, .cls-2 {
        stroke: #000;
        stroke-miterlimit: 10;
        stroke-width: .81px;
      }

      .cls-3 {
        fill: url(#Dégradé_sans_nom_15);
        opacity: .37;
      }

      .cls-3, .cls-4, .cls-5, .cls-6, .cls-7 {
        stroke-width: 0px;
      }

      .cls-4 {
        fill: url(#Dégradé_sans_nom_6);
      }

      .cls-5 {
        fill: url(#Dégradé_sans_nom_4);
      }

      .cls-2 {
        fill: url(#Dégradé_sans_nom);
      }

      .cls-7 {
        fill: #beaa9a;
      }
    </style>
    <linearGradient id="Dégradé_sans_nom_15" data-name="Dégradé sans nom 15" x1="620.09" y1="750.73" x2="800.28" y2="438.98" gradientUnits="userSpaceOnUse">
      <stop offset="0" stop-color="#f01048"/>
      <stop offset=".2" stop-color="#3b2f35"/>
    </linearGradient>
    <linearGradient id="Dégradé_sans_nom" data-name="Dégradé sans nom" x1="669.12" y1="460.35" x2="686.9" y2="460.35" gradientUnits="userSpaceOnUse">
      <stop offset="0" stop-color="#fff"/>
      <stop offset="1" stop-color="#000"/>
    </linearGradient>
    <linearGradient id="Dégradé_sans_nom_4" data-name="Dégradé sans nom 4" x1="910.27" y1="525.21" x2="576.04" y2="559.28" gradientUnits="userSpaceOnUse">
      <stop offset=".09" stop-color="#aeb9b0"/>
      <stop offset="1" stop-color="#beaa9a"/>
    </linearGradient>
    <linearGradient id="Dégradé_sans_nom-2" data-name="Dégradé sans nom" x1="927.83" y1="362.24" x2="950.46" y2="362.24" xlink:href="#Dégradé_sans_nom"/>
    <linearGradient id="Dégradé_sans_nom_6" data-name="Dégradé sans nom 6" x1="857.33" y1="369.24" x2="957.39" y2="369.24" gradientUnits="userSpaceOnUse">
      <stop offset=".19" stop-color="#f01048"/>
      <stop offset=".75" stop-color="#3b2f35"/>
    </linearGradient>
  </defs>
  <path class="cls-3" d="m892.95,523.83c-13.99,3.5-116.97-22.43-248.35,11.22-131.39,33.65-79.36,50.1-73.71,51.27,11.2,2.31,106.93,2.11,123.38,1.6,32.19-.99,16.45,5.22,43.48-1.4,27.02-6.61,66.89-20.7,92.62-14.46s26.58,13.86,52.97,1.43c26.39-12.43,16.02-51.27,9.61-49.67Z"/>
  <g>
    <g>
      <path class="cls-7" d="m727.54,179.34c-3.2-.53-22.97-3.2-27.77.53s-15.49,10.68-16.56,16.56-2.14,11.75,3.2,14.42,12.28,12.82,14.42,18.16,10.15,5.34,14.42-2.67c4.27-8.01,11.75-20.83,16.02-24.03s13.35-4.27,15.49-4.27,4.81,3.2,7.48,4.27,12.82,5.34,14.42,9.61,4.81,17.09,4.81,17.09c0,0-2.67,14.95-4.27,20.83s-11.22,27.24-11.22,28.84,1.07,17.63,6.94,12.82c5.88-4.81,11.22-33.65,12.28-42.73,1.07-9.08,2.67-37.39,2.14-39.52s-9.61-19.23-13.89-24.03-15.49-11.22-19.23-11.22-18.69,5.34-18.69,5.34Z"/>
      <path class="cls-7" d="m673.6,231.15c1.07,4.27,13.35,15.49,17.09,16.02s13.35-7.48,13.35-4.81-8.01,7.48-9.61,12.28c-1.6,4.81-5.34,41.13-13.89,42.73s-16.56,11.75-21.36,14.95-17.63,9.61-20.3,11.22-14.42,34.72-14.95,40.06,3.2,35.78,2.14,43.8c-1.07,8.01-1.07,34.18-1.6,39.52s.53,16.56-2.14,20.3-2.14,7.48-9.08,4.27c-6.94-3.2-22.97-35.78-19.23-51.27s12.82-31.51,16.56-44.86,22.97-50.74,24.03-55.01,7.48-17.63,16.02-32.05c8.55-14.42,15.49-22.43,17.09-34.72s5.88-22.43,5.88-22.43Z"/>
      <path class="cls-2" d="m669.86,453.33c-2.14,6.41.53,19.23,5.34,19.76s13.89,0,11.22-8.55c-2.67-8.55-10.68-17.09-10.68-17.09l-5.88,5.88Z"/>
      <path class="cls-5" d="m690.69,247.17c-.63-1.47-17.09-12.28-14.42-16.56,2.67-4.27-2.67-17.09,6.41-17.63s18.16,3.74,18.16,8.55-1.6,18.69,2.67,14.42,12.28-5.88,15.49-13.35c3.2-7.48,11.22-18.16,14.42-20.3s6.41-2.67,11.22-1.6,8.55-5.88,12.82-1.07,15.49,12.28,14.95,21.9c-.53,9.61,0,18.69-2.67,25.1s-6.41,19.23-11.22,26.7-17.63,20.83-14.95,22.97,22.97,2.14,27.24,2.14,13.35,5.34,16.56,6.94,9.08,11.75,10.15,18.16c1.07,6.41,5.34,21.36,7.48,22.97s14.95,20.3,18.69,26.7,3.74,12.28,9.08,13.35,21.9-10.68,27.24-13.35,19.76-12.28,21.36-11.75,19.23,4.27,21.9,5.88,12.82,3.74,12.82,3.74l7.48,8.01s-14.42,4.27-17.63,2.67-14.95-5.88-17.63-5.88-30.44,21.36-34.72,24.57c-4.27,3.2-28.31,17.09-31.51,14.42s-29.38-25.64-30.98-25.1-8.01,6.94-10.15,10.68-2.14,6.41-2.14,10.68,4.27,12.82,4.27,14.95,5.34,2.14,6.94,3.74,36.32,17.63,40.06,18.16,25.1,6.41,29.38,9.61,26.17,23.5,28.84,33.11c2.67,9.61,14.42,38.99,13.35,49.14-1.07,10.15,1.6,45.4,1.6,45.4,0,0,0,36.85-1.6,41.13s-4.81,18.16-7.48,25.1c-2.67,6.94-5.34,25.64-9.61,30.98-4.27,5.34-9.08,23.5-10.15,27.24s-2.67,27.77-2.67,27.77v35.25l1.07,10.68s3.2,21.9,5.88,28.31c2.67,6.41,18.69,30.98,21.36,36.32s5.88,12.28,3.2,14.95-16.56,4.27-19.76,5.88c-3.2,1.6-10.68-2.67-13.35-2.14s-11.75,6.94-14.95,6.94-11.22,3.74-16.56-2.14-17.63-5.34-21.36-6.41,1.6-12.82,5.34-20.83c3.74-8.01-1.6-20.3-4.81-22.43s-3.2-12.82-1.6-17.09,12.28-10.15,12.28-12.28,1.6-16.02,1.6-16.02c0,0-2.67-9.61-2.14-16.02s2.67-26.17,3.2-31.51-6.41-9.61-6.94-16.56c-.53-6.94-4.81-20.3-4.27-27.24.53-6.94-3.74-25.64-4.81-30.44s-26.17-18.69-30.44-22.43-8.01-9.61-11.75-11.75c-3.74-2.14-29.38-4.81-34.18-19.23-4.81-14.42-20.83-37.92-21.9-44.86s-3.74-35.25-3.2-40.59-.53-32.05-1.6-34.72-33.65-30.44-33.65-30.44c0,0-9.08-23.5-11.22-19.76s-6.41,51.81-7.48,55.01-14.42,43.26-14.42,44.86-2.14,25.64-2.67,30.44,2.67,12.82-9.08,19.76-32.58,14.42-32.58,14.42c0,0-6.94,9.08-8.55,7.48s-4.81-16.56-4.81-18.16-.53-12.82,4.27-14.42c4.81-1.6,17.09-5.88,20.83-8.01s13.89-13.35,15.49-20.83c1.6-7.48,0-46.47,1.6-53.41,1.6-6.94,2.67-41.66,2.67-49.14s-5.88-76.91-5.88-76.91c0,0,3.74-32.05,6.41-34.18s19.76-11.75,26.17-15.49,17.63-9.08,22.97-17.63,11.75-40.06,8.55-47.53Z"/>
      <path class="cls-1" d="m947.59,349.72s-7.48-.53-8.55,2.14-5.34,9.61-6.94,9.61-4.27,2.67-4.27,2.67l7.48,4.81s4.81,4.27,6.41,4.27,6.94,1.6,6.94,1.6c0,0,3.2-5.34,1.07-4.81s-6.41-1.07-6.41-1.07l5.34-5.34-3.74-2.14-1.07-4.27,3.74-7.48Z"/>
      <path class="cls-4" d="m920.89,360.93s-8.55-8.55-14.95-9.61-21.36-3.2-21.36-3.2c0,0-18.16-1.07-20.3,0s-6.94,5.34-6.94,5.34c0,0,25.1,6.94,26.7,7.48s21.36,8.55,21.36,8.55c0,0,10.15,5.34,13.89,4.81s17.63,4.27,19.23,5.34,12.28,9.08,12.28,9.08c0,0,5.34,4.81,6.41,0s-2.67-11.22-6.94-11.75-17.09-6.41-18.69-6.94-10.68-9.08-10.68-9.08Z"/>
      <path class="cls-7" d="m729.68,232.93c-1.6.53-4.98,5.34-4.98,5.34,0,0,3.03,7.66,4.27,7.66s5.34.71,7.66.89,4.63-.89,4.63-2.67.71-4.09-1.42-5.88-4.45-2.85-6.05-3.38-4.09-1.96-4.09-1.96Z"/>
      <path class="cls-7" d="m754.07,250.73c-1.01,2.01,5.34,5.7,6.94,5.16s5.34-1.78,5.88-4.09-4.27-7.83-5.34-7.48-7.3,6.05-7.48,6.41Z"/>
    </g>
    <g>
      <path class="cls-6" d="m956.24,381.41c2.24.09,3.49,1.03,3.66,3.49.2,2.91-1.09,4.9-3.39,6.26-2.07,1.22-4.35,1.11-6.26-.38-9.55-7.46-20.59-9.76-32.39-9.61-2,.03-3.75.76-5.5,1.6-4.26,2.04-8.04,1.28-11.37-1.98-4.99-4.88-12.48-5.21-18.25-.98-5.11,3.74-9.56,8.21-14.24,12.43-7.56,6.81-15.86,12.62-24.2,18.41-4.23,2.93-8.19,6.22-12.51,9.05-2.49,1.63-5.13,2.27-7.57,1.31-5.03-1.98-9.87-4.07-13.81-8.41-5.58-6.15-9.59-13.77-16.92-18.36-1.97-1.23-3.14-1.67-4.68.56-1.41,2.05-3.37,3.71-5.06,5.57-2.02,2.23-2.77,4.33-.2,6.9,2.6,2.6,2.36,5.66-.05,8.33-2.2,2.44-2.35,4.99-1.09,7.81.63,1.4,1.83,2.33,3.16,1.28,3.87-3.08,7.04-.69,8.66,2.05,3.32,5.62,8.56,6.73,14.08,7.84,5.38,1.09,10.42,2.94,15.4,5.36,7,3.4,14.64,5.5,21.64,8.9,7.81,3.79,15.45,7.87,23.79,10.41.49.15,1.1.67,1.22,1.13,2.32,8.44,9.23,13.54,14.63,19.63,5.81,6.54,8.11,14.67,11.24,22.37,5.57,13.68,7.09,28.22,8.29,42.87,1.62,19.69,1.82,39.39,1.53,59.11-.11,7.53-.84,15.08-1.77,22.56-.29,2.31-2.56,4.31-3.21,6.65-1.62,5.82-2.68,11.79-4.1,17.67-1.3,5.38-3.99,10.12-5.41,15.37-.62,2.31-.92,4.24-.26,6.77,2.02,7.8-1.49,13.98-7.01,19.23-.75.71-1.75,1.19-2.04,2.26-2.66,9.82-7.19,19.11-8.23,29.38-1,9.89-1.95,19.77-2.15,29.73-.07,3.62,1.19,5.77,4.21,7.49,5.53,3.15,5.63,6.39.33,9.92-2.4,1.6-4.71,2.87-4.15,6.51.4,2.59.16,4.83,3.98,3.36,1.74-.67,4.04-.56,5.28,1.28,1.44,2.14-.68,3.15-1.9,4.3-.88.83-.93,1.74-.82,2.82.52,5.4,1.02,10.7,3.67,15.7,3.75,7.05,7.03,14.37,6.82,22.64-.06,2.31,2.3,2.49,3.14,4,2.22,3.97,4.59,7.86,7.98,10.97,4.91,4.5,4.63,11.02,6.19,16.7,1.11,4.05-5.15,10.51-9.73,11.1-2.11.27-3.95.85-5.74,2.1-5.72,3.98-11.92,3.12-16.34-2.33-1.13-1.39-2.05-1.59-3.3-.67-2.56,1.88-5.66,2.72-8.35,4.58-2.41,1.66-5.99,3.19-9.37,3.61-3.46.43-6.13-1.01-9.19-3.08-4.13-2.79-9.31-4.33-14.71-4.24-4.42.07-8.92.64-13.24-.9-4.44-1.59-4.58-3.36-2.43-7.42,5.69-10.78,8.71-21.83,4.38-34.25-1.93-5.54-4.87-10.95-5.33-16.93-.54-7.03,2.79-12.59,7.92-17.07,2.28-1.99,3.8-3.81,2.72-7.14-.56-1.72-.02-3.58,1.04-5.45,3.61-6.34,5.8-12.85,2.97-20.41-1.18-3.14-2.03-7.14.86-10.38.19-.21.47-.58.4-.74-3.04-6.97,3.31-14.52-1.46-21.51-1.12-1.65-.99-4.29-1.05-6.48-.07-2.58-.36-4.73-3.37-5.43-.84-.2-2.04-.96-1.69-1.77,2.51-5.86-4.39-10.24-2.42-16.05.39-1.13-1.19-1.98-2.34-2.32-4.69-1.37-4.77-5.09-4.63-8.92.02-.57.15-1.57.41-1.63,7.58-1.9,2.98-7.59,2.92-11.17-.1-5.81-1.18-11.7-2.43-17.5-1.07-4.94-4.05-7.33-8.06-9.39-4.2-2.16-7.29-5.86-11.15-8.5-5.39-3.69-10.25-7.81-14.53-12.84-2.63-3.09-6.92-4.46-11.12-4.98-12.92-1.58-22.46-8.44-29.72-18.9-4.02-5.79-8.68-11.13-12.39-17.16-.85-1.37-2.3-1.69-4.27-1.1-7.64,2.3-10.33.03-10.33-7.91,0-5.37.03-10.65,2.84-15.5,1.19-2.06.99-4.19.12-6.41-3.6-9.18-3.54-18.77-3.1-28.43.47-10.51.48-21.05,1.11-31.55.41-6.91-4.03-10.11-8.99-12.87-1.56-.87-3.82-.98-5.53,1.14-2.59,3.2-5.61,6.06-7.55,9.73-.45-.23-.83-.3-.88-.47-.51-1.65.69-4.13-1.06-4.9-1.7-.75-2.96,1.5-4.43,2.42-3.74,2.35-6.88,5.63-10.99,7.37-3.47,1.48-3.42,4.89-4.73,8.31-1.29-6.39-1.45-12.12-.43-17.93.26-1.47,1.01-2.36,1.88-3.37,1.35-1.55,3.01-2.86,3.81-4.85.46-1.15,2.19-2.29.82-3.5-1.57-1.39-2.07.9-3.11,1.43-11.71,5.97-12.7,17.85-15.07,28.56-1.41,6.35-3.38,12.52-5.14,18.72-1.9,6.68-3.44,13.42-5.06,20.15-1.4,5.82-.98,11.84-.67,17.73.29,5.48-1.22,9.9-5.24,13.4-9.33,8.12-18.94,15.82-31.41,18.76-2.69.64-5.24,1.69-6.14,4.89-.76,2.71-2.84,4.37-5.3,5.64-6.19,3.23-10.11,1.26-11.1-5.43-.89-6.01-1.71-11.94-.19-18.02,1.75-6.97,3.57-13.3,11.98-15.49,8.16-2.12,15.47-6.6,21.22-12.74,7.34-7.83,9.23-17.94,9.5-28.31.38-14.8-.54-29.63,1.74-44.39,1.02-6.61-.74-8.21-7.67-8.47-3.68-.14-6.11-1.64-8.5-4.51-8.66-10.41-10.27-22.98-11.31-35.64-.7-8.54-.81-17.16,1.25-25.65.6-2.48.65-5.18-.13-8.48-2.03,2.98-1.34,5.74-1.72,8.27-1.6,10.59-2.37,21.27-1.57,31.92.57,7.58,2.33,15.04,5.6,22.11,1.97,4.27,3.04,8.94,7.86,11.15.32.15.51,1.1.39,1.57-.31,1.18-1.39.86-2.23.8-7.98-.53-17.64-9.04-18.97-17.38-1.53-9.59-4.5-18.9-3.97-28.91.65-12.17,2.14-24.26,4.25-36.15,1.65-9.34,7.47-17.47,12.52-25.63,5.97-9.65,13.45-18.31,18.52-28.54,2.72-5.49,4.16-11.43,5.47-17.26,3.02-13.41,7.58-25.88,16.6-36.57,4.38-5.19,6.56-11.82,9.35-17.97,3.4-7.49,6.31-15.21,9.6-22.75,4.56-10.46,7.97-21.21,9.39-32.59,2.7-21.65,18.85-37.63,41.16-40.3,6.02-.72,11.89-.37,17.67.43,4.7.65,9.44,2.47,13.65,4.72,2.61,1.39,4.93,2.47,7.83,2.16,2.26-.24,3.91.82,5.58,2.18,7.99,6.5,13.02,15.07,17.15,24.27,1.14,2.53,2.47,4.95,3.52,7.57,7.78,19.36,4.05,38.69.48,58.08-.99,5.37-4.16,9.71-6.25,14.55-3.42,7.89-1.15,13.46,6.75,16.75,4.55,1.89,7.93,5.39,10.39,9.69.95,1.66,1.87,3.35,2.88,4.98,2.02,3.25,3.84,6.41,4.56,10.4,2.35,12.99,8.4,24.3,16.4,34.8,5.17,6.79,9.28,14.37,14.03,21.49,3.17,4.75,3.45,4.74,7.76,1.04,6.82-5.87,15.3-8.63,23.19-12.46,5.28-2.56,10.71-4.84,16.07-7.24.76-.34,2.01-.24,1.92-1.44-.08-1.11-1.03-1.88-2.01-2.2-6.14-2.04-12-5.23-18.8-4.57-1.02.1-2.07-.1-3.11-.2-.74-.08-1.56-.21-1.6-1.16-.04-.88.73-1.2,1.41-1.51,4.15-1.92,8.2-4.2,13.05-3.53l-.06-.04c-2.37,1.12-4.75,2.24-7.86,3.72,4.96,1.84,9.61,1.96,14.06,2.95,5.27,1.18,10.24,3.13,14.45,6.64.84.7,1.75,1.26,2.79,1.16,5.22-.48,9.45,2.03,13.68,4.47,3.36,1.94,6.33,2.14,8.79-1.36.08-.12.21-.21.31-.31,6.7-6.32,6.33-7.85-2.72-11.17-2.06-.76-4.12-1.51-6.27-2.3,3.45-4.44,7.7-4.6,10.84-.23,1.91,2.66,3.63,5.01,7.28,4.74.14-.01.34-.01.43.07,2.51,2.44,5.01,3.83,8.11.72,2.24-2.25,5.25-3.68,6.6-6.87,1-2.34,8.54-4.45,10.8-3.28,1.42.73,1.64,1.98,1.54,3.39-.13,1.87-1.2,3.08-2.94,3.44-1.85.38-3.36.86-3.89,2.99-.53,2.16.39,2.73,2.35,3.25,3.39.91,4.07,3.3,1.56,5.74-1.91,1.87-1.72,2.91.53,3.85.84.35,2.26.95,1.94,1.47-3.22,5.19,2.32,5.64,4.18,8.07.43.56.59,1.32.87,1.99-1.15-.31-2.28-.62-3.11-1.57-3.11-3.55-7.75-4.1-11.79-5.73-1.71-.69-4.92-.61-5.18,1.49-.24,1.89,2.75,1.57,4.41,1.62,3.32.11,5.23,1.29,6.26,4.81.91,3.12,4.43,4.47,6.85,6.51.85.72,2.07-.12,2.95-1.18,1.89-2.28.52-4.1-.49-6.04Zm-146.71,143.95c.41-.62.68-1.53,1.25-1.8,3.69-1.73,2.54-4.13.71-6.21-2.31-2.62-4.21-5.65-7.34-7.54-5.42-3.28-10.76-6.68-16.07-10.14-3.08-2.01-5.97-4.3-9.05-6.31-1.27-.83-3.17-2.16-4.26-.73-.96,1.24.82,2.55,1.89,3.57,3.28,3.13,6.61,6.21,9.78,9.45,6.19,6.3,11.17,13.6,16.71,20.44.96,1.19,1.64,2.44,3.35,2.46-.71,2.37.46,3.53,2.62,3.13,1.7-.32,3.18-1.65,3.97-3.25.71-1.44,3.43-2.43,1.97-4.27-1.17-1.46-2.42.94-3.78,1.13-.58.08-1.17.05-1.75.07Zm57.82,340.41l-.08-.06c2.02,1.95,4.7,1.43,7.11,1.87,2.5.46,3.47-.44,3.01-3.18-.48-2.84-.23-2.88.9-4.87,1.95,2.53-.48,7.87,4.79,8.16,4.26.24,4.56-3.34,4.8-6.57,4.38,2.84,10.02,3.3,11.99,1.06,2.69-3.06,3.07-9.47-.32-12.2-4.39-3.54-6.17-8.52-9-12.92-2.45-3.82-4.76-7.77-6.93-11.72-3.4-6.19-8.45-11.59-9.33-19.16-.34-2.93-2.64-5.07-6.42-4.75-3.38.29-6.82,0-10.22-.16-5.94-.27-6.77.66-5.59,6.73.5,2.58,2.1,5.12.96,7.77-1.95,4.56,4.04,8.27,1.19,12.84-.03.05.15.24.25.35,4.07,4.83,5.49,10.66,6.28,16.71.62,4.76,2.91,9.2,1.85,14.32-.65,3.12,1.49,5.24,4.78,5.8Zm-154.05-581.31c3.8,1.86,7.79,3.42,11.35,5.65,4.89,3.07,9.34,2.26,14.26.08,5.33-2.36,7.89-7.08,10.61-11.52,2.48-4.05,9.7-6.5,5.32-13.36-.07-.11.56-.63.8-.99,1.29-2.03.89-4.06-.48-5.76-4.23-5.31-5.11-10.78-2.58-17.31,2.55-6.56,7.47-10.11,14-7.8,4.53,1.6,4.5-.85,4.49-3.69-.02-5.28-1.78-10.23-3.92-14.91-1.54-3.37-5.81-4.76-7.86-7.33-2.97-3.73-4.73-3.9-7.86-1.1-.29.26-1.15-.02-1.71-.19-10.93-3.34-13.82-1.91-20.14,7.15-4.05,5.8-7.11,12.46-13.87,16.29-5.52,3.12-8.1,8.95-8.67,15.08-.58,6.32-.93,12.83-.01,19.06.93,6.33-1.37,13.6,4.38,18.85-1.45-.71-3.23-2.65-3.29,1.09-.04,2.51-.43,5-.55,7.51-.48,9.48-4.7,17.23-11.24,23.77-3.43,3.43-3.94,6.77.07,9.31,6.31,4,11.49,8.97,16.33,14.6,4.11,4.79,12.08,3.51,13.78-1.78,1.59-4.95,3.82-9.55,6.38-14.04,2.62-4.59,5.25-9.19,7.6-13.91,2.35-4.73,1.25-7.18-3.61-8.64-3.77-1.14-7.29-2.48-8.39-6.83-.25-.99-.87-1.57-1.88-1.55-6.04.14-9.61-3.92-13.33-7.74Zm-64.15,120.1c-.24-.69-.58-1.36-.71-2.07-2.12-11.13.61-21.74,3.6-32.3.82-2.91,1.71-5.66-.58-8.33-3.19-3.72-3.78-8.28-4.48-13.42,1.91,1.64,1.56,3.35,1.78,4.89.13.9.27,1.92,1.43,1.88.91-.03.87-1.02,1.09-1.69.91-2.74.52-5.59.69-8.39.04-.63-.82-2.86,1.41-1.09,1.01.8,1.04-.44,1.34-1.04,2.99-6.07,7.09-11.37,11.17-16.72,4.19-5.49,8.31-11.02,12.29-16.67.91-1.29,1.19-3.38-.06-4.57-1.22-1.17-2.43.38-3.43,1.12-8.31,6.17-16.63,12.27-26.94,14.83-5.04,1.25-8.04,5.13-10.08,9.38-7.68,15.99-8.27,33.05-6.94,50.35,1.82,23.66,5.43,47.04,3.64,71.14-1.73,23.41-4.07,46.96-3.14,70.55.39,9.77-1.63,19.03-6.06,27.72-1.13,2.22-1.76,4.82-3.75,6.5-6.8,5.72-14.02,10.76-22.71,13.25-4.88,1.4-7.44,4.73-7.06,9.21,1.32-.08,1.46-1.3,2.01-2.11.53-.79,1.23-1.55,2.14-.9.89.64.46,1.65-.13,2.35-3.89,4.55-3.77,10.44-5.25,15.77-.73,2.63-.58,5.38.6,8.27,1.07-10.98,4.15-20.76,13.64-27.42.86,1.47-1.59,2.76.05,3.74,1.19.71,2.15-.62,3.13-1.18,1.36-.77,2.65-1.67,4.55-2.9-1.65,4.07-5.61,6.01-6.01,10.35,6.4-2,10.25-6.8,14.79-10.79-2.51,7.09-8.76,11.52-12.34,17.91,10.92-5.38,21.48-11.17,30.06-19.99,1.91-1.96,2.5-4.15,2.46-6.8-.1-7.56.05-15.13-.04-22.69-.03-2.86.45-5.58,1.23-8.3,4.07-14.16,9.23-28.01,12.43-42.41,1.88-8.47,3.69-16.99,4.93-25.57,1.73-11.97,2.67-24.06,4.43-36.03.62-4.19-.21-6.84-3.95-8.69-7.13-3.52-10.4-9.62-11.3-17.24,3.03,5.32,5.92,10.25,11.6,13.92,8.32,5.38,16.05,4.68,24.26,1.35,5.5-2.23,10.66-5.19,15.4-10.13-1,5.29-6.41,9.24-12.38,11.55-4.33,1.68-3.29,5.6-4.89,8.27-1.06,1.77,3.2,3.53,6.05,1.85,8.85-5.23,17.88-9.83,28.18-11.76,6.14-1.15,8.15-5.23,6.65-11.43-2.15-8.86-4.51-17.67-7.54-26.28-.5-1.41.24-3.55-2.05-3.95-2.41-.43-2.6,1.91-4.18,4.38,2.65-10.12,1.77-19.23,2.58-28.21.21-2.35-.55-4.57-2.3-5.99-2.6-2.11-4.32-4.78-6.09-7.52-2.65-4.11-5.44-8.51-10.17-10.15-3.74-1.3-6.67-2.87-8.57-6.38-.82-1.53-1.94-.51-3,.06-6.2,3.31-11.86,7.22-15.96,13.11-.87,1.26-1.63,2.99-3.56,3.05-4.03.12-3.65,3.14-3.73,5.71-.15,4.73,1.56,9.09,3.48,13.44-5.88.49-5.82.61-6.05,5.57-.14,3.21-.98,6.64-.66,9.6.47,4.28-3.68,6.44-3.26,10.45.26,2.5,1.07,5.54-1.07,7.67-3.5,3.48-3.44,7.57-2.65,11.91Zm204.6,204.7c1.15,2.68,2.04,5.27.13,7.33-1.94,2.11-1.27,3.52.12,5.32.89,1.16,1.49,2.54,2.27,3.79,4.88,7.74,6.36,16.69,8.88,25.23,2.84,9.61,6.12,19.17,5.47,29.47-.13,2.04.2,4.13.47,6.18.13,1.03.57,1.97,1.98,1.92,2.75-.11,8.93-4.47,9.09-7.38.36-6.57,4.63-11.46,6.78-17.23,5.14-13.82,11.47-27.01,11.02-42.53-.26-9.09.42-18.34.46-27.52.14-26.93-.51-53.78-6.94-80.18-1.9-7.81-5.56-14.82-8.77-22.01-3.34-7.48-10.41-12.18-15.6-18.28-4.17-4.9-8.95-6.47-14.75-5.21-7.02,1.53-12.96,4.86-17.25,11.07-3.51,5.07-3.42,10.96-4.55,16.49-.8,3.91-3.35,7.52-2.82,11.52,1.1,8.38-3.41,15.38-5.35,22.96-1.64,6.43-1.98,5.47,4.3,8.35,3.84,1.77,3.39-.76,4.42-2.14,1.37-1.82,1.22-4.49,3.54-6.66-.2,3.46-.32,6.15-2.18,8.49-4.19,5.26-3.33,11.85-4.58,17.88-.12.56.21,1.53.79,1.32,2.67-.99,6.94,1.97,7.99-3.21.15-.73.56-2.13,2.28-1.57-.2.57-.26,1.2-.59,1.59-1.2,1.41-3.69,3.34-2.01,4.6,2.07,1.56,2.68-1.61,3.7-3.02.21-.29.69-.38,1.36-.72-.14,2.92-3.57,4.78-2.14,7.67,1.55.49,1.58-1.94,3.08-1.23-1.88,5.16-6.48,9.25-6.4,15.44,3.79-.67,3.36-4.96,6.94-6.2-1.51,3.71-3.47,6.44-4.5,9.65-1.11,3.48-.24,4.66,3.3,4.18-1.28,3.29-4.14,6.65-.43,9.95,2.16,1.92,2.71-2.19,5.03-1.7-.55,3.15-2.85,5.78-2.95,8.95,1.39.83,1.54-1.49,2.88-.73.27,2.42.15,4.87-.46,7.33-.24.96.03,2.93.27,2.77,3.98-2.55,2.18,2.49,3.73,3.04,1.38-1.39,1.17-3.18,2-4.98Zm-112.84-59.14c.65-2.13.51-3.87-.99-5.42-.96-.99-2.13-1.07-2.65-.18-1.32,2.3-3.34,3.29-5.62,4.38-1.81.87-2.38,3.18-1.61,5.11,1.79,4.5,2.23,9.1,2.06,13.88-.06,1.7.53,4.8,1.82,4.58,3.97-.67,2.45,2.19,2.47,3.43.13,10.08,2.25,20.03,9.3,27.05,6.34,6.31,14.83,10.46,22.36,15.58,5.35,3.63,11.49,5.3,16.54,10.3,7.27,7.19,16.37,12.79,25.71,17.54,3.7,1.88,6.18,4.64,7.65,8.7,2.82,7.74,3.71,15.75,4.46,23.85.86,9.15.94,9.39,10.08,10.35,9.57,1,19.14,2.36,28.81,2.21,3.3-.05,5.19-1.15,4.3-4.82-1.5-6.16-3.29-12.27-4.43-18.5-1.27-6.96-4.61-13.61-4.23-20.74.36-6.78-3.12-11.95-6.01-17.29-3.07-5.67-6.72-11.12-8.92-17.13-2.71-7.41-6.31-14.27-10.36-20.94-5.27-8.68-10.74-17.22-16.18-25.8-1-1.57-1.81-3.49-4.43-2.74-1.77.51-2.64-.53-3.11-2.26-2.12-7.76-8.05-12.57-18.59-8.93-.74.25-1.21.48-2.22-.2-4.92-3.34-9.89-6.61-16.5-4.64-2.33.69-3.77,2.89-6.54,3.09.29-3.12.71-5.53,4.83-5.13,2.15.21,4.4-.52,6.6-.8,1.1-.14,2.16-.38,1.92-1.83-.23-1.39-1.13-2.03-2.56-1.77-5.31.94-10.54.65-15.86-.34-3.46-.65-7.08-.43-10.64-.51-1.46-.03-3.57-.07-3.33,1.92.41,3.47-1.71,5.42-4.14,8Zm30.07-147.56c2.08-.18,3.11-1.16,4.18-2.21,1.64-1.61,2.71-4.37,5.99-2.98.45.19,1.58-.74,2.15-1.38,2.78-3.15,4.66-6.65,5.07-11.02,1.01-10.71-4.67-18.6-11.58-25.25-7.08-6.82-12.19-14.2-13.43-24.01-.16-1.24-.68-3.21.51-3.59,1.08-.35,2.83-.31,4.13.73,1.69,1.35,2.62,3.16,3.58,5.01,1.34,2.59,2.65,5.04,4.88,7.2,4.82,4.67,9.98,8.97,13.83,14.72,3.09,4.62,4.2,10.07,7.36,14.55,7.19,10.22,14.39,20.44,21.54,30.69,2.98,4.27,12.72,7.64,16.22,5.02,7.28-5.45,14.85-10.49,22.12-15.96,8.53-6.42,16.64-13.45,26.47-18.13,7.38-3.51,13.61-2.48,19.58,2.5.91.76,1.61,1.84,2.92,1.79,4.77-.19,9.44-1.02,13.99-2.41,1.46-.45,1.97-1.44.38-2.48-2.71-1.78-5.49-3.68-8.71-4.11-5.74-.77-11.19-2.06-16.52-4.54-2.74-1.28-5.81-4.49-9.01-2.39-3.49,2.29-7.46,2.59-11.06,4.17-9.16,4.02-18.31,8.04-27.51,11.95-4.25,1.81-7.98,4.41-11.76,6.97-1.76,1.19-3.87,2.68-5.85.17-1.37-1.73-2.7-3.5-3.91-5.34-4.36-6.64-8.35-13.56-13.06-19.95-8.37-11.36-13.87-23.72-16.7-37.64-1.13-5.56-3.18-11.56-8.18-15.8-7.87-6.67-16.09-9.94-26.99-9.28-6.68.41-9.36,1.67-12.23,7.53-5.46,11.15-13.56,20.95-17.04,33.2-.95,3.35-2.97,6.3-5.14,9.18-2.71,3.59-5.97,7.1-5.92,12.14.07,8.21,2.02,16.02,4.9,23.63.2.53.29,1.38.65,1.51,3.15,1.18,4.42,4.46,7.07,6.16.58.37,1.83.5,1.37,1.34-2.13,3.83,1.42,4.35,3.22,6.01,2.29,2.1,4.6,1.92,7.4,1.08,1.68-.5,3.82-2.56,5.31-.82,1.8,2.09,3.25,1.07,4.57.17,1.54-1.05,3.14-1.35,4.94-1.93-1.65,3.7-5.97,4.14-8.16,7.92,10.71-.56,14.84-11.38,24.18-13.42-1.03,3.58-4.93,5.18-5.75,9.32Zm45.82,83.21c.01-8.23.57-8.94,8.08-11.2.63-.19,1.21-.8,1.65-1.34,3.98-4.89,8.34-9.45,13.06-13.61,2.87-2.53,1.75-3.68-.81-5.21-3.96-2.37-8.48-3.28-12.58-5.29-7.93-3.88-15.84-7.82-24.26-10.61-2.95-.98-4.68-.82-5.67,2.53-1.09,3.71-3.26,6.95-5.66,9.97-5.54,7-12.67,12.53-18.17,19.59-1.49,1.92-2.07,3.02.52,4.38,2.74,1.44,5.51,2.99,7.86,4.96,9.99,8.38,20.5,16.04,31.43,23.13,3.5,2.27,5.01,1.24,5.94-2.92,1.15-5.18-2.26-9.74-1.39-14.39Zm-86.04,42.51c.48,5.35,2.27,4.76,4.84,3.62,2.66-1.18,5.63-1.7,8.5-2.34,1.81-.4,4.18.78,4.42-2.73.1-1.44,2.75-1.31,3-.08,1.09,5.36,5.48,3.07,7.15,2.2,2.67-1.39,1.26-4.59.07-6.99-.78-1.58-2.12-3.01-2.44-4.65-1.31-6.81-2.5-13.65-3.39-20.52-.59-4.6-.47-9.31-6.83-9.84-.72-.06-1.35-1.08-2.03-1.66-.92-.77-1.85-1.5-3.17-1.33-5.71.74-11.43,1.49-17.14,2.22-1.46.19-2.44.76-2.75,2.38-.37,1.9-1.65,3.13-3.52,3.62-2.07.55-2.22,2.09-2.17,3.81.13,4.59.21,9.18.35,13.77.04,1.45-.17,3.25,1.76,3.62,2.53.48,2.03,2.14,1.67,3.7-.36,1.58-1.08,3.08-1.43,4.66-1.49,6.78-3.39,13.63-.14,20.39,1.66,3.44,3.2,3.12,5.85.37,3.47-3.6,5.04-8.11,7.38-14.23Zm113.72,275.59c.21-2.3-.06-4.01-2.79-4.76-2.18-.6-3.52-2.59-4.95-4.31-3.51-4.23-4.3-3.98-6.94.73-1.48,2.63-2.87,6.52-7.48,3.76-.93-.56-1.99.64-2.33,1.61-1.83,5.25-4.37,10.36-2.23,16.26,1.02,2.83,2.77,4.94,4.53,7.26,5.09,6.73,3.75,14.95,4.37,22.66.15,1.88-1.8,2.91-3.38,3.8-4.12,2.31-3.66,6.71-3.78,10.23-.07,2.16,3.47,3.16,5.71,4.17,2.39,1.08,4.69-.19,6.88-.87,2.56-.8,4.44-1.05,6.77,1.07,2.56,2.32,5.83,2.02,8.27-.83,2.27-2.64,2.4-5.34-.37-7.79-1.42-1.25-1.85-2.97-2.42-4.65-1.5-4.47-.93-9.09-1.13-13.66-.29-6.63.05-13.26-.34-19.91-.27-4.74-.07-10,1.58-14.78Zm-125.49-372.88c-3.19.11-5.5.35-7.85.74-7.19,1.2-12.31,6.17-18.33,9.45-3.46,1.89-3.02,4.63.42,7.23,3.46,2.61,7.5,4.04,11.33,5.87,2.13,1.02,2.87,3.92,5.09,4.04,6.22.33,8.94,5.62,13.18,8.73.18.14,2.37,1.89-.52,1.34-1.28-.25-1.14.91-.79,1.41,1.83,2.66,3.47,5.75,7.45,5.37,2.94-.28,5.91-.54,8.78-1.17,6-1.32,6.54-2.66,4.62-8.64-.59-1.85-1.73-3.43-2.26-5.2-1.99-6.59-6.11-12.47-6.31-19.67-.05-1.98-.42-4.79-2.37-5.44-4.37-1.47-8.09-5.31-12.45-4.05Zm60.25,16.48c-1.34-7.04-.6-14.76-.77-22.45-.05-2.27-.11-4.78-2.3-5.85-2.11-1.03-3.99.69-5.48,2.08-5.78,5.38-12.79,7.13-20.41,7.12-9.88-.01-11.71.23-7.18,11.78,2.68,6.85,5.79,13.58,9.33,20.01,1.34,2.44,2.71,6.67,6.82,5.61,8.42-2.17,13.65-8.87,19.39-14.73.76-.78.69-1.92.6-3.57Zm91.57,300.14c0-.89,0-1.78,0-2.67q.03-8.45-7.43-11.59c-.95-.4-2.12-.44-2.89-1.03-2.02-1.56-3.33-.86-4.88.8-3.73,4.01-7.59,7.9-11.49,11.74-1.34,1.32-1.6,2.24-.7,4.15,1.94,4.1,3.62,8.39,4.76,12.78.68,2.62,2.14,3.66,4.31,4.46,2.22.82,3.73.16,5.46-1.53,1.79-1.74,2.58-4.31,4.92-5.54,1.34-.7,1.8-3.89,3.42-2.62,2.12,1.66-1.05,2.71-1.66,4.14-.62,1.43-2.3,3.34-.69,4.3,1.78,1.07,3.28-.57,4.45-2.41,3.01-4.71,2.27-9.89,2.41-14.99Zm-35.94-47.69c-1.77-.09-3.55-.16-5.32-.26-1.33-.08-2.24.25-2.51,1.8-.89,4.96,5.02,13.05,10.01,14.11,5.33,1.14,10.78,1.53,16.04,3.21,2.11.67,4.53,2.24,7.17.45,5.12-3.48,8.9-7.37,7.34-14.32-.45-1.99-.72-3.4-3.1-3.26-9.94.58-19.75-1.18-29.62-1.72Zm-158.29-456.56l-1.25-.55c-1.4,3.45-3.2,6.79-4.11,10.36-2.97,11.6-7.5,22.6-12.59,33.35-3.97,8.39-9.95,15.52-15.94,22.57-2.18,2.57-4.07,5.37-5.25,8.55-.32.86-.84,2.14.38,2.77.89.45,1.67-.35,2.34-.9.8-.66,1.59-1.35,2.25-2.13,8.44-9.88,16.39-19.89,22.08-31.89,6.43-13.56,8.82-27.89,12.08-42.14Zm93.13,262.45c.24,6.44,4.1,10.86,6.28,15.95,3.62,8.44,9.08,15.13,18.97,16.55,1,.14,2.11.66,2.99-.11,1.08-.95,0-1.9-.29-2.81-.31-.97-.56-2.16-1.25-2.79-6.34-5.82-10.42-13.49-16.23-19.7-2.81-3-5.85-6.1-10.48-7.09Zm-145.16-127.12c-4.73,5.13-6.77,10.93-7.79,17.22-.83,5.06-1.43,10.17-2.63,15.14-1.08,4.46-2.15,8.79-2.07,13.47.09,5.43,2.35,10.35,2.82,15.64.17,1.88.06,4.79,2.25,4.54,2.16-.25,1.25-3.14,1.13-4.94-.14-2.21-.48-4.4-.7-6.61-.41-4.11-1.71-8.21-.92-12.33,2.02-10.55,4.47-21.01,6.35-31.58.59-3.3,3.17-6.36,1.57-10.55Zm244.5,412.06c-1.18-2.06-2.62-4.23-.43-6,2.71-2.18,2-5.03,2.09-7.75.05-1.59-.74-2.8-2.44-2.07-4.37,1.86-8.92,1.92-13.53,1.78-1.32-.04-2.89.66-2.37,1.88,1.5,3.47,1.46,7.13,2.08,10.7.23,1.29,1.63,1.73,2.82,1.81,3.81.25,7.63.67,11.78-.35Zm-170.99-558.63c-.34-2.5-.28-4.52-.93-6.28-1.22-3.28-3.21-5.9-7.08-6.62-3.21-.6-4.67,1.45-5.97,3.57-3.61,5.86.5,16.77,6.99,19.09,2.77.99,4.84.97,5.48-2.53.48-2.61,1.08-5.19,1.5-7.23Zm2.6,16.08c-1.87,2.23-1.75,4.71-2,7.15-1.4,13.64-2.39,27.37-7.54,40.31-1.25,3.14-2.65,6.22-4.04,9.29-.67,1.47-.95,3.01.27,4.13,1.65,1.51,2.27-.61,3.06-1.34,4.04-3.75,6.24-8.77,6.9-13.93,1.45-11.25,1.06-22.69,3.24-33.92.73-3.76.12-7.78.12-11.68Zm156.28,600.97c1.19-7.05-2.2-12.95-4.81-19.03-.34-.78-.85-1.71-1.9-1.57-1.23.17-.85,1.33-1.04,2.12-1.31,5.55-1.36,10.97.51,16.53,1.8,5.34,3.82,10.75,2.3,16.67-.36,1.39.97,2.53,2.43,2.61,1.43.07,1.37-1.31,1.45-2.3.38-5.01.7-10.02,1.05-15.02Zm-128.93-664.95c-1.91-1.2-3.57-1.19-5.34-.86-7.99,1.48-11.96,7.36-15.09,13.98-2.73,5.78-3.38,12.6-8.75,17.06-.86.72-2.31,1.67-1.44,2.86.9,1.23,2.4.56,3.63-.12,4.61-2.53,6.63-6.79,8.07-11.58,2.95-9.81,6.99-18.78,18.91-21.33Zm-24.7,47.06c5.91-3.88,9.55-9.57,12.47-15.37,5.09-10.12,12.2-17.37,23.25-20.43.96-.27,2.49-.25,2.31-1.52-.25-1.84-1.83-.98-2.85-.74-10.15,2.4-18.29,7.46-23.31,17.01-3.75,7.12-7.89,14.04-11.86,21.05Zm-18.49,22.23c-4.19,15.93-13.79,29.59-18.6,45.18,8.58-14.11,17.16-28.22,18.6-45.18Zm141.74,316.4c-.2-3.2-1.82-6.16-3.34-9.17-1.58-3.15-3.61-1.41-5.55-.64-2.36.94-2.63,2.53-1.19,4.49,1.8,2.45,3,5.3,5.42,7.35,1.01.85,1.65,2.13,3.24,1.59,1.68-.57,1.3-2.07,1.42-3.61Zm9.82,156.38c.43,2.46.86,4.93,1.3,7.39.43,2.42,1.81,2.48,3.46,1.23,2.2-1.67,4.25-3.54,6.45-5.2.75-.57,1.47-1.01,1.31-2.04-.17-1.07-1.12-1.33-1.95-1.53-3-.72-6.16-.38-9.11-1.57-1.53-.62-1.67.56-1.45,1.73Zm-147.25-520.83c2.32-.65,3.48-2.01,4.58-3.56,4.11-5.83,8.29-11.6,12.4-17.43.65-.92,2.77-1.67,1.18-3.05-1.21-1.04-2.36.23-3.23,1.34-3.43,4.38-7.37,8.46-10.19,13.2-1.69,2.83-4.44,5.41-4.74,9.51Zm72.17,31.48c-1.57.88-3.33,1.84-5.06,2.85-.94.55-1.66,1.43-1.38,2.52.25.99,1.38.93,2.23,1.07,2.28.38,4.76-.37,6.84,1.1.98.69,1.88,1.61,3.03.36,1.14-1.24,1.34-3.02.47-4.08-1.46-1.77-3.44-3.13-6.13-3.83Zm182.09,115.45c0-.79-.18-1.4-.85-1.51-1.27-.21-1.19.85-1.52,1.65-1.71,4.17-1.34,9.54-6.74,11.62-.75.29-1.5,1.14-.88,2.15.54.89,1.26,1.69,2.52,1.29,1.3-.41,2.34-1.17,3.25-2.19,3.37-3.77,2.42-8.91,4.22-13.02Zm-109.62,422.66c1.22,1.6-1.38,5.17,1.73,4.84,2.05-.22,6.13-1.4,6.1-4.75-.03-2.91-3.36-4.5-5.67-4.73-3.48-.34-.9,3.17-2.16,4.64Zm-62.84-510.31c-.5-.18-1-.36-1.5-.54-2.2,7.03-6,13.67-5.1,21.47.48.12.97.25,1.45.37,1.72-7.1,3.43-14.2,5.15-21.3Zm2.92-39.91c1.63-3.69,4.5-6.82,3.81-11.33-.77-5.04-2.85-8.54-6.4-9.06,5.62,6.32,3.08,13.4,2.59,20.39Zm-8.95,25.16c-.69-1.99-1.2-4.95-3.56-4.38-2.66.64-1.99,4.14-2.69,6.36-.39,1.25,1.06,2.4,2.62,2.28,2.6-.2,3.19-2.21,3.63-4.27Zm-8.84-49.73c.48-7.13-2.96-12.15-4.25-17.64-.08-.33-1.1-.77-1.48-.62-.84.33-.6,1.14-.39,1.88.77,2.68,1.55,5.36,2.23,8.06.66,2.61,1.14,5.29,3.88,8.32Zm162.29,166.14c2.43,5.83,6.88,2.8,10.81,3.7-2.49-5.54-6.98-2.71-10.81-3.7Zm20.76,2.7c3.45.04,5.54-1.86,7.82-3.4.88-.59,1.94-1.4,1.2-2.47-.89-1.27-2.5-1.18-3.51-.2-1.96,1.89-3.68,4.03-5.5,6.07Zm-152.84,66.19c-.21-1.28.17-3.03-1.75-2.96-1.47.05-1.59,1.52-1.51,2.68.09,1.28.3,3.05,1.7,3.17,1.95.16,1.19-1.84,1.56-2.89Zm-29.77-178.38c.35,1.71,1.53,2.94,3.1,3.36,1.65.44,2.51-1.18,2.51-2.39,0-1.93-2-1.8-3.32-2.19-1.01-.3-2.12-.38-2.29,1.22Zm181.06,115.72c-2.73-.61-4.53-4.78-8.07-1.95-.54.43-1.54.5-1.14,1.45.17.4,1.02.9,1.37.78,2.61-.89,5.15.57,7.84-.29Zm3.15-.91c3.1.85,4.86,2.79,7.36,1.68.89-.39.94-1.76.24-2.27-2.06-1.51-4.29-1.14-7.6.6Zm-71.52,350.65c-.22-1.04.46-2.9-1.06-2.88-1.63.02-2.58,2.02-2.99,3.33-.48,1.56,1.43,2.08,2.63,2.15,1.81.11,1.3-1.51,1.43-2.6Zm-193.79-261.39c.14,2.53-1.02,5.16.43,7.57,1-2.59.44-5.1-.43-7.57Z"/>
      <path class="cls-6" d="m868.92,348.41c8.52-.78,17.04-1.36,25.39,1.37-8.43-1.39-16.92-1.69-25.45-1.41,0,0,.06.04.06.04Z"/>
      <path class="cls-6" d="m839.15,539.3c-1.45,2.05-1.47,5.06-4.39,6.32.31-3.05,1.95-4.98,4.39-6.32Z"/>
      <path class="cls-6" d="m779.89,553.51c-3.12,1.18-5.43,3.52-8.15,5.22-1,.63-2.6,1.01-3.22-.02-.77-1.29.74-2.1,1.74-2.56,3.04-1.38,6.06-2.95,9.63-2.64Z"/>
      <path class="cls-6" d="m746.14,573.65c-.06-3.58,1.2-6.8,3.09-9.84-.87,3.31-.56,6.96-3.15,9.79l.06.05Z"/>
      <path class="cls-6" d="m744.71,596.84c-3.21-1.77-2.82-4.25-3.36-7.58,2.37,2.61,3.97,4.33,3.36,7.58Z"/>
      <path class="cls-6" d="m743.74,556.87c-1.23.02-1.74-.49-1.58-1.03.52-1.79.79-3.82,2.74-4.73.66-.31.98.42,1.04,1.02.2,2.2-1.84,3.15-2.19,4.74Z"/>
      <path class="cls-6" d="m746.08,573.6c-.37,2.01-.74,4.03-1.21,6.56-1.57-2.68-2.04-5.05-1.96-7.7,1.25.79.25,3.08,2.18,3.02.37-.01.7-1.18,1.05-1.82,0,0-.06-.06-.06-.06Z"/>
      <path class="cls-6" d="m752.24,559.69c-1.28-3.08-.38-4.74,1.46-6.47,1.44,2.55-.24,4.07-1.46,6.47Z"/>
      <path class="cls-6" d="m773.5,380.05c.9,2.91,5.54,5.5.07,7.88-.77.34-2.86,1.45-2.75-.36.15-2.47-5.63-2.73-2.04-5.48.93-.71,2.86-1.64,4.73-2.04Z"/>
      <path class="cls-6" d="m654.6,391.46c1.38,2.14,2.56,4.27,5.06,1.22.27-.33,1.44-.46,1.62-.23,1.41,1.79,2.18,5.06,5.18,1.36,1.59-1.96,3.84,3.3,5.86-.25.3-.53,1.34,1.06,1.52,2.09.62,3.54-.42,6.42-3.4,8.49-2.74,1.9-5.04,1.32-8.08-.19-5.31-2.64-5.72-7.82-7.77-12.49Z"/>
      <path class="cls-6" d="m705.04,363.48c-.46-5.11.32-10.24.25-15.4,2.16,5.15,1.71,10.26-.25,15.4Z"/>
      <path class="cls-6" d="m701.13,347.18c1.24,4.21.2,8.41,0,12.62v-12.62Z"/>
      <path class="cls-6" d="m736.09,247.61c-6.23.21-9.49-3.54-12.41-7.42-1.84-2.44.02-5.87,2.96-7.68,4.59-2.82,15.54,4.26,15.64,9.16.08,4.07-1.95,5.99-6.19,5.93Zm-8.67-6.64c1.54,2.46,3.29,3.95,5.68,4.63,2.56.73,5.52,1.07,7.04-1.06,1.68-2.35-1.35-4.13-2.46-5.99-.97-1.63-2.61-2.38-3.91.28-1.23,2.52-3.26,3.82-6.35,2.13Z"/>
      <path class="cls-6" d="m725.42,264.48c1.45-.25,2.1.31,2.43.89,2.39,4.18,5.04,5.86,9.74,2.6,2.02-1.4,7.25,4.45,6.51,7-.4,1.37-1.25,2.03-2.63,1.6-3.65-1.14-7.44-2.01-10.85-3.66-3.19-1.54-4.12-5.02-5.2-8.42Z"/>
      <path class="cls-6" d="m744.81,237.12c-3.27-.71-3.6-3.73-5.16-5.52-4.86-5.6-7.31-6.17-13.47-2.17-1.54,1-3.31,3.96-5.03,1.31-1.26-1.95,1.58-3.56,3.13-4.6,8.01-5.39,12.84-4.02,17.6,4.8,1.02,1.89,3.17,3.22,2.92,6.19Z"/>
      <path class="cls-6" d="m738.15,283.59c-5.17.19-11.06-4.65-11.15-8.13,0-.37.19-.98.45-1.08.8-.31,1.61.19,1.83.82,1.33,3.9,4.55,5.91,8.87,8.39Z"/>
      <path class="cls-6" d="m737.59,257.18c2.54,2.3,6.88.65,9.34,4.63-3.59-1.72-7.35-1.23-9.34-4.63Z"/>
      <path class="cls-6" d="m867.35,865.77c-.47-2.02-2.34-3.41-2.47-5.59-.08-1.46-.5-3.18,1.28-3.81,2-.69,2.94.89,3.62,2.4,1.39,3.07,1.38,5.73-2.51,6.94,0,0,.08.06.08.06Z"/>
      <path class="cls-6" d="m694.65,235.23c-1.58-4.36-2.86-8.67-7.58-10.43-.92-.34-1.11-1.44-.51-2.28.71-.99,1.71-.9,2.79-.49,4.04,1.53,7.01,8.52,5.29,13.2Z"/>
    </g>
  </g>
</svg>