<?xml version="1.0" encoding="UTF-8"?>
<svg id="mains-homme-1" xmlns="http://www.w3.org/2000/svg" xmlns:xlink="http://www.w3.org/1999/xlink" viewBox="0 0 1080 1080">
  <defs>
    <style>
      .cls-1 {
        fill: url(#Dégradé_sans_nom_15);
        opacity: .37;
      }

      .cls-1, .cls-2, .cls-3 {
        stroke-width: 0px;
      }

      .cls-3 {
        fill: #aeb9b0;
      }
    </style>
    <linearGradient id="Dégradé_sans_nom_15" data-name="Dégradé sans nom 15" x1="327.59" y1="541.77" x2="548.25" y2="541.77" gradientUnits="userSpaceOnUse">
      <stop offset="0" stop-color="#f01048"/>
      <stop offset=".2" stop-color="#3b2f35"/>
    </linearGradient>
  </defs>
  <path class="cls-1" d="m327.6,524.64c-1.21-2.37,220.65.39,220.65.39,0,0-3.93,11.78-18.85,15.7-14.92,3.93-18.06,25.52-49.08,17.28s-32.59-14.92-57.32-11.39-30.62,5.89-54.57-3.14c-23.95-9.03-38.32-13.93-40.83-18.85Z"/>
  <path class="cls-3" d="m488.97,521.1c-1.18-.39-8.25-.39-8.25-.39,0,0-4.71.39-5.89,2.75s-.79,8.25.79,9.42,4.32,1.96,5.5,3.14,0,4.32,2.36,5.5,6.67,3.53,9.03,0c2.36-3.53.79-1.57,4.71-1.57s7.46-1.57,9.42-1.57,4.71.39,7.07,0,.39-1.18,3.93-1.57,9.42,1.18,7.85-3.14-7.85-10.6-10.99-9.42-8.64-3.14-9.82-1.96-5.5-1.18-8.64-1.57-7.07.39-7.07.39Z"/>
  <path class="cls-3" d="m375.11,523.06c-1.18-1.18-4.32-3.53-6.67-3.14s-6.67,3.14-8.25,3.53-2.36,1.57-2.36,1.57c0,0-.79,4.71,2.75,6.28s5.1.39,5.89,3.14-1.18,5.1,3.14,6.28,8.25,1.57,9.82-.39,1.57-.79,5.5-.79,6.67,0,8.64-1.18,2.36.39,4.71-.39,1.18.39,6.28-.79,9.42-.39,8.25-3.93-6.67-7.07-10.21-7.85-5.5-3.53-10.6-3.93-6.67-.39-11.39-.79-5.5,2.36-5.5,2.36Z"/>
  <path class="cls-2" d="m504.82,523.73c.58-.92,1.53-2.03,2.45-1.45,5.23,3.24,11.88,1.5,17.02,5.15,2.53,1.8,3.86,4,2.81,6.72-1.16,3-3.94,2.86-6.7,2.25.12-.57.09-.92.24-1.1,1.23-1.41,4.96-.1,4.3-3.3-.69-3.37-4.02-4.48-6.79-5.78-.91-.43-1.73.26-1.74,1.37,0,1.33.07,2.66.18,3.99.44,5.49-1.39,7.81-6.73,7.61-5.2-.19-10.14,2.08-15.38,1.25-.58-.09-1.35.45-1.9.87-5.36,4.03-10.49,2.34-12.53-4.2-.23-.73-.4-1.69-1.16-1.71-7.31-.16-4-6.78-5.54-10.17-.53-1.17,4.4-4.6,7.68-5.73,1.92-.66,3.87-1.12,6.02-.2.98.42,1.86.47,2.17,0,.24-.36.15-1.02-.46-2.05-1.02-1.72-.46-3.03,1.73-4.67-3.05,6.21,2.52,6.04,4.87,7.59,2.75,1.81,6.31,2.39,9.51,3.5,2.64,2.8,2.78,6.38,3.17,9.91.22,1.98,1.15,3.37,3.51,2.97,2.04-.35,3.02-1.3,2.91-3.61-.25-5.36-3.71-8.78-9.64-9.21Zm-12.9,9.01c.57-3-1.06-5.81-3.01-8.09-1.94-2.27-4.49-4.53-8-3.33-2.33.8-5.55,1.82-5.35,4.51.22,3.05-.32,7.47,4.93,7.9,1.56.13,1.8,1.72,1.89,3.1.24,3.53,3.12,4.09,5.63,4.48,2.63.41,2.57-2.16,3.26-3.87.58-1.42.65-2.84.65-4.69Zm13.21.13c.03-4.92-6.57-11-11.37-10.46-2.3.26-1.6,1.67-.95,2.84,1.39,2.52,1.88,5.23,1.91,8.05.02,2.63-.03,5.04,3.81,4.85,5.22-.26,6.57-1.18,6.6-5.28Z"/>
  <path class="cls-2" d="m410.4,527.42c-5.14-3.65-11.8-1.91-17.02-5.15-.9-.56-1.82.48-2.4,1.39-3.2-1.11-6.76-1.69-9.5-3.49-.7-.46-1.7-.77-2.66-1.15-1.15.3-2.31.42-3.52.34-.35.4-1.18.34-2.12-.06-2.15-.92-4.1-.46-6.02.2-3.28,1.13-8.21,4.56-7.68,5.73,1.55,3.39-1.76,10.01,5.54,10.17.75.02.93.98,1.16,1.71,2.04,6.54,7.17,8.23,12.53,4.2.56-.42,1.33-.96,1.9-.87,5.23.83,10.18-1.44,15.38-1.25,5.34.19,7.18-2.13,6.73-7.61-.11-1.33-.18-2.66-.18-3.99,0-1.12.82-1.8,1.74-1.37,2.78,1.3,6.1,2.41,6.79,5.78.66,3.2-3.07,1.88-4.3,3.3-.16.18-.13.53-.24,1.1,2.76.61,5.54.76,6.7-2.25,1.05-2.72-.28-4.92-2.81-6.72Zm-32.37,5.32c0,1.85-.08,3.27-.65,4.69-.69,1.71-.63,4.29-3.26,3.87-2.5-.39-5.39-.96-5.63-4.48-.09-1.38-.34-2.97-1.89-3.1-5.25-.43-4.71-4.85-4.93-7.9-.19-2.69,3.02-3.71,5.35-4.51,3.5-1.2,6.06,1.06,8,3.33,1.96,2.29,3.58,5.09,3.01,8.09Zm6.62,5.41c-3.85.19-3.79-2.22-3.81-4.85-.02-2.82-.52-5.53-1.91-8.05-.65-1.17-1.35-2.59.95-2.84,4.8-.53,11.39,5.55,11.37,10.46-.02,4.09-1.37,5.02-6.6,5.28Zm13.02-1.61c-2.35.4-3.29-.99-3.51-2.97-.39-3.5-.53-7.05-3.11-9.83,5.86.46,9.27,3.87,9.52,9.19.11,2.3-.87,3.26-2.91,3.61Z"/>
</svg>