<?xml version="1.0" encoding="utf-8"?>
<!-- Generator: Adobe Illustrator 28.0.0, SVG Export Plug-In . SVG Version: 6.00 Build 0)  -->
<svg version="1.1" xmlns="http://www.w3.org/2000/svg" xmlns:xlink="http://www.w3.org/1999/xlink" x="0px" y="0px"
	 viewBox="0 0 372 778.6" style="enable-background:new 0 0 372 778.6;" xml:space="preserve">
<style type="text/css">
	.st0{fill:url(#SVGID_1_);}
	.st1{fill:url(#SVGID_00000104698173310441598010000016876654559178117262_);}
	.st2{fill:url(#SVGID_00000102541103677099139390000012399096100528908935_);}
	.st3{fill:url(#SVGID_00000168810548314088448560000016156566280639253381_);}
	.st4{fill:url(#SVGID_00000049215664889477593640000015168687173817630624_);}
	.st5{fill:url(#SVGID_00000163788786724022341040000013266929144252950144_);}
	.st6{fill:url(#SVGID_00000174592736701233097720000011880878297190620573_);}
	.st7{fill:url(#SVGID_00000077314885983233781560000002757901166361719174_);}
	.st8{fill:url(#SVGID_00000063630799733790160460000010552033661189896581_);}
	.st9{fill:url(#SVGID_00000085215281396105171930000010897510806143812757_);}
	.st10{fill:url(#SVGID_00000070106755384455776150000014468883875510054024_);}
	.st11{fill:url(#SVGID_00000175321135303824750540000000051312185650188721_);}
	.st12{fill:url(#SVGID_00000003815118721526064350000004994585096771829671_);}
	.st13{fill:#F4DAC9;}
	.st14{display:none;}
	.st15{display:inline;fill:#7F1936;}
	.st16{display:inline;}
	.st17{fill:#7F1936;}
</style>
<g id="Calque_1">
	<g id="amit-corp">
		
			<linearGradient id="SVGID_1_" gradientUnits="userSpaceOnUse" x1="333.6743" y1="461.0713" x2="262.0244" y2="133.4012" gradientTransform="matrix(1 0 0 -1 0 778)">
			<stop  offset="0" style="stop-color:#F01048"/>
			<stop  offset="0.92" style="stop-color:#544045"/>
		</linearGradient>
		<path class="st0" d="M282.5,785.3c-27.7,9.2-78.8,9.2-88,7s0.6-6.5,0.4-9.7c-1.6-24.6-3-96.1-5.1-120.7
			c-1.5-18.4-3.2-36.7-2.4-55.2c0.6-13.8-0.2-27.7,0.1-41.6c0.2-8.7,1.5-17.3,5.6-25.1c0.7-1.3,1.6-3.6,2-5.1c3.9-14,7.9-28,11.6-42
			c3.4-12.8,8.1-24.9,15.8-35.6c5.4-7.5,8.2-15.6,7.7-24.9c-0.2-4.4,0.5-9,0-13.3c-0.6-4.9,1.4-7.9,5.1-10.5c2.4-1.7,4-1.7,6.4,0.1
			c4.9,3.7,6.3,9.2,8,14.5c1.6,5.2,2.3,11,4.9,15.7c3.1,5.7,7.6,10.6,11.6,15.8c0.6,0.8,1.8,1.5,2.8,1.5c1.5,0,3-0.5,4.5-0.8
			c-0.2-1.2-0.3-2.5-0.8-3.6c-3.1-8.2-7.1-16.1-9.1-24.5c-2.8-11.9,0.7-23.8,2.7-35.6c0.9-5.4,1.2-10.9,1.3-16.4
			c0.1-5.2-0.5-10.5-0.7-15.7c3.2,1.8,6.6,3.6,10,5.5c13.1,7.4,26.1,15,39.4,22c10.3,5.4,21.1,10,31.7,14.9c3.4,1.5,4.8,4,4.8,7.6
			c0.2,10.2,0.8,20.5,0.5,30.7c-0.8,25.9-2,51.7-3,77.5c-1.1,30-2.7,60.1-3.2,90.1c-0.6,34.9-17.8,94.7-18,129.6
			c-0.1,10.9-0.9,21.8-1.3,32.7l-41,12.3c2-15.2,22.6-67.6,24.1-82.9c2.4-26.3,4.5-52.6,6.3-78.9c2.6-37.1,0.2-74.1-2.1-111
			c-0.9-15.1,0.6-29.8,6-44c1.5-4,2.9-8,3.9-12.1c3.4-14.1,9.1-27.1,17-39.2c0.9-1.4,1.4-2.9,2.1-4.4c-0.3-0.2-0.6-0.3-1-0.5
			c-5.8,6-10.1,13-12.9,20.9c-3.9,10.9-7.5,21.9-11,32.9c-3.1,9.8-6.4,19.5-6.2,29.9c0.2,16,0.4,32.1,1.2,48.1
			c1.6,32.1,1.9,64.2-0.7,96.2C310.8,673.5,310.1,776,282.5,785.3L282.5,785.3z M210.4,704c-3.8-2.5-6.5-6.8-11.2-3
			c-1.1,0.9-3.1,2.7-2.8,3.2c1,2,3.2,5.3,4.1,5C203.9,708.1,206.9,706,210.4,704L210.4,704z M193.8,659.4c3.4-0.7,5.7-1,8-1.6
			c0.9-0.2,1.6-1.1,2.4-1.7c-0.9-0.6-1.8-1.2-2.7-1.7c-1.1-0.7-2.1-1.4-3.2-1.9c-1.5-0.6-3.9-1.9-4.6-1.3c-1.4,1.2-2.6,3.4-2.7,5.2
			C190.9,657.5,193.1,658.7,193.8,659.4L193.8,659.4z M200.7,565.8c-1.9-1.2-3.7-2.8-5.8-3.4c-1.5-0.4-4.5,0.1-4.9,1
			c-0.8,1.9-0.6,4.4-0.2,6.6c0.1,0.5,2.7,1.3,3.6,0.8C196.1,569.3,198.6,567.3,200.7,565.8L200.7,565.8z M202.4,607.9
			c-2.7-1.7-4.6-3.3-6.7-4.1c-1.5-0.5-4.1-0.5-5,0.4c-0.9,1-1.2,3.8-0.5,5c2.7,4.2,6.7-1.8,9.9,0.7
			C200.3,610,201.8,608.4,202.4,607.9L202.4,607.9z M198.9,536.6c0.4,0.1,0.9,0.3,1.4,0.4c2.8-2.4,5-10,3-13.4
			C201.8,527.9,200.3,532.2,198.9,536.6L198.9,536.6z M210.6,498.9c-0.5-0.1-1-0.3-1.5-0.4c-1.6,4.1-3.9,8.1-2.9,12.8
			c0.6,0.1,1.2,0.3,1.8,0.4C208.8,507.4,209.7,503.1,210.6,498.9L210.6,498.9z M197.1,546.6c-0.5,0-0.9-0.1-1.4-0.1
			c-0.7,2.2-1.5,4.5-2,6.8c-0.1,0.6,0.4,1.7,0.9,1.9c0.5,0.2,1.9-0.2,2-0.5C197.4,552,198.7,549.2,197.1,546.6L197.1,546.6z
			 M211.9,493.3c0.8,0.1,1.6,0.3,2.4,0.4c0.5-3.3,1-6.7,1.5-10c-0.7-0.1-1.4-0.2-2.1-0.4C213.2,486.6,212.6,490,211.9,493.3
			L211.9,493.3z M224.1,468.7c-0.3-0.2-0.6-0.4-0.9-0.6c-4.3,3.2-5.6,5.5-4.2,9.1C220.9,474,222.5,471.4,224.1,468.7z M191.9,580.2
			c-2.9,4.6-2.6,8.4,0.6,10.3C192.3,586.8,192.1,583.5,191.9,580.2z"/>
		
			<linearGradient id="SVGID_00000103229579537797500230000014976072960953840007_" gradientUnits="userSpaceOnUse" x1="18.4977" y1="195.09" x2="193.14" y2="195.09" gradientTransform="matrix(1 0 0 -1 0 778)">
			<stop  offset="0" style="stop-color:#F01048"/>
			<stop  offset="1" style="stop-color:#544045"/>
		</linearGradient>
		<path style="fill:url(#SVGID_00000103229579537797500230000014976072960953840007_);" d="M89.2,779.5h-4c-1.5-8.6-5.4-51.4-7.3-60
			c-4.1-19.1-8.5-38.1-12.7-57.2c-1.1-4.9-1-10-2.6-14.7c-6.3-18.4-6.7-37.9-10.5-56.7c-4.2-20.4-7.2-41.1-11.7-61.5
			c-6.7-30.2-14.3-60.3-21.5-90.4c-0.9-3.7-0.2-6.9,3.2-9.1c3.7-2.3,7.7-4.4,11.2-7c10.5-7.7,20.8-15.8,31.3-23.4
			c8.6-6.2,17.7-11.8,26.3-17.9c3.1-2.2,5.7-5.2,8.8-8.1c2,6.1,4.7,11.6,5.5,17.5c2.3,16.2-2.7,30.3-13.9,42.2
			c-5,5.3-10,10.6-14.7,16.1c-0.9,1.1-1.5,3.5-0.9,4.6c0.5,1.1,2.9,2,4.3,1.7c2.3-0.4,4.5-1.6,6.5-2.9c2.6-1.6,5.1-3.3,7.5-5.2
			c6.9-5.4,14.1-10.5,20.4-16.6c5-5,8.7-11.3,13.1-16.9c1.5-1.9,3.5-3.3,5.1-4.7c1.6,2.8,2.8,5,3.9,7.1l1-0.4
			c-0.4-1.5-0.9-2.9-1.4-4.7c4,0.3,5.8,2.5,7.2,5.5c3.1,7,6.2,14,9.4,20.9c3.9,8.3,8.4,16.3,11.6,24.9c8.8,23.3,17,46.8,25.5,70.2
			c1.3,3.6,1.1,6.7-1.4,9.8c-0.8-1.2-1.4-2.2-1.5-2.5c-0.5,5.1-1,10.7-1.6,16.3c0,0.2,0,0.4,0,0.5c-0.1,11.2-0.2,22.5-0.1,33.7
			c0.1,19.1-0.1,38.3,0.7,57.4c0.8,18.4,2.6,36.8,4,55.2c1.1,14,2.2,74.8,3.2,88.8c-34.2,0-74.4-3.1-103-11.9
			c-1.6-15.3-3.1-65.5-4.2-80.8c-1.6-20.5-2.4-41.1-3.8-61.7c-1.1-17.3-2.6-34.6-3.8-52c-0.8-11.7-1-23.4-2-35.1
			c-2.1-23.6-5.7-47-12-70c-3.9-14-9.4-27-18.3-38.5c-2.5-3.2-5.1-6.3-7.9-9.2c-2.8-2.9-6.2-4.6-10.6-3.9c1.2,1.5,2.7,2.5,4.1,3.5
			c2.4,1.6,5.3,2.8,7,4.9c7.5,9.9,14.6,19.8,18.5,32.1c3.1,9.9,7,19.5,8.6,29.7c2.8,17.9,5.5,35.9,7.4,54
			c1.7,15.2,2.3,30.6,3.3,45.9c0.8,11.6,1.3,23.1,2.1,34.7c1.2,16.5,3.4,33,3.6,49.6C82.7,704.4,86.3,759.1,89.2,779.5L89.2,779.5z"
			/>
		<path d="M193.1,792.3c-1.1-14-2.2-74.8-3.2-88.8c-1.4-18.4-3.2-36.8-4-55.2c-0.8-19.1-0.6-38.2-0.7-57.4
			c-0.1-11.2,0.1-22.5,0.1-33.7c0-0.2,0-0.4,0-0.5c0.5-5.6,1.1-11.2,1.6-16.3c0.1,0.2,0.8,1.2,1.5,2.5c2.5-3.1,2.7-6.2,1.4-9.8
			c-8.5-23.4-16.7-46.9-25.5-70.2c-3.2-8.5-7.8-16.6-11.6-24.9c-3.2-6.9-6.3-13.9-9.4-20.9c-1.3-3-3.2-5.2-7.2-5.5
			c0.5,1.7,1,3.2,1.4,4.7l-1,0.4c-1.2-2.2-2.4-4.3-3.9-7.1c-1.6,1.4-3.6,2.9-5.1,4.7c-4.4,5.6-8.1,11.9-13.1,16.9
			c-6.2,6.1-13.5,11.2-20.4,16.6c-2.4,1.9-4.9,3.6-7.5,5.2c-2,1.2-4.2,2.4-6.5,2.9c-1.3,0.2-3.7-0.6-4.3-1.7c-0.6-1.2,0-3.5,0.9-4.6
			c4.7-5.5,9.8-10.8,14.7-16.1c11.2-11.9,16.2-26,13.9-42.2c-0.8-5.8-3.5-11.4-5.5-17.5c-3.1,2.9-5.7,5.9-8.8,8.1
			c-8.7,6.1-17.7,11.7-26.3,17.9c-10.6,7.6-20.8,15.7-31.3,23.4c-3.5,2.6-7.5,4.6-11.2,7c-3.4,2.1-4.1,5.3-3.2,9.1
			c7.2,30.1,14.8,60.1,21.5,90.4c4.5,20.4,7.5,41,11.7,61.5c3.9,18.8,4.2,38.3,10.5,56.7c1.6,4.7,1.6,9.8,2.6,14.7
			c4.2,19.1,8.6,38.1,12.7,57.2c1.8,8.5,5.8,51.4,7.3,60h-4c-5.3-24.8-13.6-83.6-18.3-108.5c-2.3-12-4.6-24-7.5-35.9
			c-2.8-11.7-3.5-24-5.3-36c-2.1-14.4-4-28.8-6.8-43.1c-2.4-12.4-5.9-24.6-8.8-36.9c-5.5-23.2-11-46.4-16.3-69.6
			c-1-4.5-1.5-9.3-1.4-14c0.1-4.9,2.5-8.6,7.3-10.6c2.1-0.8,4.1-2.1,5.9-3.4c17.3-12.3,34.6-24.6,51.8-37.1c5.9-4.2,11.4-9,17-13.6
			c0.8-0.7,1.3-2,1.5-3.1c1.3-7,5.1-12.4,9.9-17.6c10.7-11.4,22.7-21.4,34.8-31.2c4.7-3.8,9.8-7.2,14.2-11.2c1.9-1.8,5.3-6.1,5.2-14
			c-0.1-7.2-1.2-14.5-1.8-21.7c-1.1-12-6.6-21-17.1-27.1c-3.7-2.1-5-5.8-5-10c0-8.5-0.3-11.8-0.1-20.3c0.1-4.3-1.9-7.6-3.6-11.2
			c-1.8-3.9-4.1-7.6-6.3-11.6c-5.6,1.8-9.2-1.6-12.8-5.4c-3.1-3.3-6.8-6.1-10.1-9.2c-0.9-0.9-1.6-2.1-2.2-3.3
			c-3.4-6.9-7-13.6-10-20.6c-1.6-3.6-3.2-7.7-2.8-11.4c0.8-8.4,4.1-15.8,11.6-20.7c3.6-2.3,6.2-1.3,8.9,1.2c2.7,2.5,5.5,4.9,8.2,7.4
			l0.9-0.1c2.6-3.1,1.8-4.2,1.7-6.9c-0.6-11.1-0.4-12.9-3.2-19.6c-0.4-0.8,0.2-3.4,0.2-4.3c-0.2-5.3,4.6-9.5,0.9-13
			c-3.2-2.9-6.5-6.1-4.4-10.1c1.4-2.6-6.8-4.2-9.8-4.3c-3.6-0.2-4.4-1.8-3.8-5.3c1.2-6.3,1.3-12.8,2.8-19.1c0.7-2.8,3.3-5.3,5.4-7.6
			c2.9-3.2,3.9-6.1,6.9-9.1c7.9-7.8,11.3-14.7,21.4-19.5c8.3-4,16.9-4.6,25.9-3.1c4.9,0.9,10.1,0.6,15.2,0.4c3.3-0.1,6.6-1.2,10-1.5
			c8.2-0.8,16.4-0.8,23.8,4c1.8,1.1,3.9,1.9,6,2.3c10.7,2.1,18.1,8.1,26.9,14c2.7,1.8,1.6,5.1,3.4,8c0.6,1.1-0.1,3-0.8,4.5
			c0.4,2.4,3.8,4.6-0.1,7.2c1.1,1.7,2,3.4,3.1,4.8c1.5,1.9,2.5,3.1-0.4,5.1c-1.5,1-1.3,4.3-2.6,6c-2.3,2.7,0.6,3.8,1.2,5.6
			c1.4,4.6,3.7,8.9-1.2,13.3c-3.4,2.9-5.8-0.3-8.1,3.5c-1.3,2.1-1.1,11.5-1.4,14.2c-1.1,7.8-1.9,20.2-3,29.2
			c4.3-3.4,11.2-10.1,14.6-12.5c3.5-2.6,7.3-1.6,9.9,2.2c-7.9-4.5-16.8,4.8-19.6,12.1c2.7-1.5,5.1-2.9,7.6-4.2
			c6.4-3.5,10.9-1.8,13.1,5c0.3,1,0.7,1.9,1,2.9c0.3-0.1,0.5-0.2,0.8-0.3c-1-5.2-2.1-10.4-3.1-15.6c1.1,2.2,2.6,4.3,3.3,6.6
			c2.2,7.4-0.5,13.9-4.4,20.1c-4.5,7.2-6.2,15.3-7.9,23.6c-1.5,7.1-5.1,13.3-10.5,18.2c-2.9,2.7-9.2,1.9-12.9-1.4
			c-0.6,2.1-1.3,4-1.7,5.9c-2.9,14.8-5.3,24.6-3.7,39.8c0.7,6.2-1.7,11.5-5.9,15.2c-6.9,6.1-9.4,14-11.1,22.3
			c-3.6,17.2-5.4,17.7-3.3,35.3c0.8,6.3,2.5,11.4,8.4,15.4c13.4,9,26.1,19,39,28.5c4.5,3.3,8.8,6.9,13.6,9.9c4.3,2.7,9.1,4.5,13.5,7
			c8.6,4.7,17,9.8,25.6,14.4c7.1,3.8,14.4,7.1,21.7,10.6c7.2,3.4,14.5,6.5,21.5,10.1c5,2.6,7.4,6.8,7.2,12.9
			c-0.2,7.8,0.7,15.6,0.5,23.4c-0.5,17.8-1.4,35.5-2.1,53.3c-0.1,2.1-0.4,4.3-0.4,6.5c-0.1,21.3-2.4,57-2.8,78.3
			c-0.5,28.8-7.9,72.5-8.4,101.3c-0.4,22.1-9,39.9-9.1,62c-0.1,11.2-0.6,22.3-1,33.5h-4c0.5-10.9,1.3-21.8,1.3-32.7
			c0.2-34.9,14-73.7,14.5-108.6c0.5-30,5.5-81.1,6.6-111.1c1-25.8,2.2-51.7,3-77.5c0.3-10.2-0.4-20.5-0.5-30.7
			c-0.1-3.6-1.4-6.1-4.8-7.6c-10.6-4.8-21.4-9.5-31.7-14.9c-13.3-7-26.3-14.6-39.4-22c-3.4-1.9-6.8-3.8-10-5.5
			c0.3,5.2,0.8,10.4,0.7,15.7c-0.1,5.5-0.4,11-1.3,16.4c-2,11.8-5.6,23.6-2.7,35.6c2,8.4,6,16.3,9.1,24.5c0.4,1.1,0.5,2.4,0.8,3.6
			c-1.5,0.3-3,0.8-4.5,0.8c-1,0-2.2-0.7-2.8-1.5c-4-5.2-8.5-10.1-11.6-15.8c-2.6-4.8-3.2-10.5-4.9-15.7c-1.7-5.4-3-10.9-8-14.5
			c-2.4-1.8-4-1.8-6.4-0.1c-3.8,2.6-5.7,5.6-5.1,10.5c0.5,4.4-0.2,8.9,0,13.3c0.5,9.3-2.3,17.4-7.7,24.9
			c-7.7,10.7-12.5,22.9-15.8,35.6c-3.7,14-7.7,28-11.6,42c-0.4,1.5-1.3,3.8-2,5.1c-4.1,7.9-5.4,16.5-5.6,25.1
			c-0.3,13.9,0.4,27.8-0.1,41.6c-0.8,18.5,0.9,36.8,2.4,55.2c2.1,24.6,3.5,96.1,5.1,120.7c0.2,3.2,0.4,6.5,0.6,9.7L193.1,792.3
			L193.1,792.3z M181.1,78.1c-2.2,2.4-5.2,5.7-8,9c-2.3,2.6-6,2.7-5.9,0.1c0.3-5.5-4.9-6.5-7.2-10c0,3.2,0.6,6.3,0.8,9.4
			c0.1,1.1-0.9,2.3-1.3,3.4c-1-0.5-2.2-0.8-3-1.5c-3.8-3.8-7.5-7.8-11.2-11.7c-0.4,1.9,0.2,3.3,0.3,4.7c0.1,1.7-0.3,3.4-0.5,5.1
			c-1.8-0.6-3.9-0.7-5.4-1.7c-3.2-2.3-6.1-5.1-9.3-7.8c-4.6,3.8-1.1-1-5.1-2c-0.7,2-0.1,2.7-0.7,4.2c-1.8,4.6-0.3,9.6,1.7,14.2
			c1.4,3.1-0.6,6.2,0.7,9.3c6.7,15.4,1.5,31.3-4.8,47.3c-1.7,4.3-3,10.1-1.4,14c5.2,12.5,11.8,24.4,17.7,36.7c1.4,2.9,2.9,5.9,3.1,9
			c0.6,8.6,0.5,12.1,0.7,20.7c0.1,3.8,0.2,7.6,3.4,10.4c4.3,3.7,8.4,7.5,12.7,11.2c2.1,1.8,4.4,3.3,6.4,5.2c4,4,7.5,6.9,11.7,10.7
			c5.2,4.7,11.5,4.8,16.8,0.1c3.6-3.1,6.3-5.8,9.4-9.5c2-2.3,4-4.7,6.3-6.6c8.1-6.9,14.4-14.2,13-26.1c-0.8-6.3-0.2-7.7,0.4-14.1
			c0.8-7.8,2.2-15.4,3.4-23.1c0.2-1.2,0.6-2.4,1.1-3.4c2.5-5.2,5.1-10.3,7.6-15.4c4.7-9.8,4.7-20.1,2.9-30.4
			c-1.8-10.3-4.1-20.7-0.8-30.7c1.5-4.4,0.6-11,0.9-15.6c0.2-3.5-1.7-6.2-2.9-9.6c-2.5-7.2,0.1-6.8-6.5-3.1
			c-1.5,0.8-3.2,1.3-5.3,2.1c0.9-7,6.5-12.6,1.3-18.9c-0.5,1.4-0.8,2.8-0.6,4.2c0.6,4.2-1,7.6-4.2,9.9c-3.4,2.5-7.4,4.2-11,6.4
			c-1.3,0.8-2.4,1.9-3.4,3c-0.8,0.9-1.3,2-2,3c-1-1.2-2.1-2.2-2.8-3.5c-0.5-0.9-0.5-2.1-0.4-3.2c0.6-3.9,1.3-7.7,2-11.7
			c-4,4.1-3.9,9.2-3.9,14.3c0.1,4.4-1.7,5.8-5.2,3.2C188.6,86,185.1,81.9,181.1,78.1L181.1,78.1z M163.5,258.7
			c1.2,18.1,2.6,18.3,3.5,35.5c0.2,3.9-0.7,8.2-2.4,11.7c-4.2,8.6-8.9,16.8-13.7,25.1c-7.5,13-16.4,25-27.2,35.4
			c-1.8,1.8-2.3,3.3-0.8,5.6c3.6,5.9,6.9,11.9,10.3,17.8c0.7,1.1,1.7,2.1,2.7,2.9c10.4,8.2,15.8,18.7,14.6,32.2
			c-0.1,1.4,0.3,3,0.9,4.2c5.6,12.2,11.6,24.3,16.7,36.7c6.2,15.3,11.6,31,17.3,46.5c2.3,6.2,4.4,12.5,6.9,19.8
			c4.2-14.2,8.2-27,11.7-39.9c3.5-13,8.3-25.4,16.2-36.3c5.5-7.6,7.9-15.7,7.3-25c-0.2-3.9,0.1-7.8,0-11.7
			c-0.4-13.6,2.9-25.4,14-34.5c6.4-5.3,6.4-11.6,0.1-18.1c-1.3-1.4-2.3-3-3.5-4.4c-8.8-10.6-17.3-21.3-26.3-31.6
			c-5.9-6.8-10-14.5-10.4-23.1c-1.1-21.1,0.4-25.2,5.5-45.7c0.2-0.8,0-1.6,0-3.3c-2.1,2.2-3.6,3.7-4.9,5.3c-2,2.5-3.6,3.9-5.9,6.1
			c-5.2,4.9-16.1,7-22.1-1.2C171.1,264.5,167.2,262.6,163.5,258.7L163.5,258.7z M140.8,402.1c0.3-0.6,0.7-1.2,1-1.9
			c-2-1.5-4.1-2.9-6.1-4.5c-3.1-2.6-6.6-5-9.2-8.1c-2.8-3.4-5.2-7.3-7-11.3c-5.9-12.9-6.1-17.5,2.6-27.4c7.6-8.7,16.2-16,25.4-22.9
			c4.9-3.7,8.4-8.8,11.2-15.6c-4.5,3.6-8.4,6.4-11.8,9.6c-12.6,11.5-25.3,22.9-37.5,34.8c-6.8,6.6-8,17.3-4.4,25.9
			c6.4,15.1,5.5,30-3.2,44c-2.9,4.6-6.4,8.8-9.3,12.6c1.2,1.8,2.3,3.3,3.9,5.6c6-5.4,12.6-10.9,18.5-17c3.6-3.7,6.3-8.4,9.1-12.8
			C128,406.9,132.6,401.8,140.8,402.1L140.8,402.1z M233.3,397.9c6.3-0.9,9.2,3.3,11.3,7.4c3.7,7.3,6.9,14.9,9.7,22.5
			c1.4,3.8,2.6,6.6,7.6,5.4c-4.2-13.3-1.6-26.5,1.3-39.4c2.1-9.1,2.2-18.1,1.6-27.3c-0.4-5.9-2.9-10.5-8.6-13.1
			c-1.5-0.7-2.9-1.5-4.1-2.5c-11.8-8.8-23.5-17.5-35.2-26.4c-2.2-1.7-4.2-3.7-6.3-5.5c-0.3,0.3-0.6,0.6-0.9,0.9
			c3.8,4,7.2,8.3,11.3,11.8c10.5,9.2,18.4,20.3,24.7,32.6c5.6,10.8,4.5,16.4-4.5,24.6C238.4,391.6,236,394.9,233.3,397.9
			L233.3,397.9z M240.3,139.4c3.4,0,6.7-0.4,9.9,0.1c4.1,0.7,5.2,5.4,2.2,8.3c-1.4,1.4-2.8,2.7-4.2,4c0.1-1.9,1.2-3.4,1.9-5
			c0.6-1.3,0.8-2.8,1.1-4.1c-2.5-0.4-5.1-1.4-7.4-0.9c-1.7,0.4-2.9,2.8-4.3,4.2c0.3,0.2,0.5,0.5,0.8,0.8c1.1-0.3,2.2-0.6,4.1-1.1
			c-1.7,2.8-3,4.9-4.4,7c0.1,0.1,0.3,0.2,0.5,0.2c1.7-1.8,3.3-3.6,5-5.4c0.2,0.2,0.5,0.5,0.7,0.7c-2.3,3.8-4.6,7.6-6.9,11.4
			c0.3,0.2,0.6,0.4,0.9,0.5c1.6-2,3.1-4,4.7-6c0.3,0.2,0.6,0.4,0.8,0.6c-0.3,0.7-0.5,1.4-0.9,2.1c-1.9,3.3-4.2,6.4-5.9,9.8
			c-2.2,4.7-4.1,9.6-5.8,14.6c-0.4,1,0.7,3.7,1.2,3.7c2.6,0.1,6.4,0.5,7.6-0.9c3.9-4.8,8.4-10.1,9.7-15.9c2.1-9.6,3.9-19,9.8-27
			c3.6-4.9,1.2-9.2-0.9-13.5c-0.4-0.9-2.1-1.5-3.3-1.6c-5.1-0.4-14.9,6.2-16.5,11.1C240.4,138.1,240.3,139.2,240.3,139.4
			L240.3,139.4z M119.4,152.2c2-3.4,1.4-6.3-0.7-8.9c-2.9-3.5-5.8-7-8.7-10.6c-3-3.6-6.8-3.4-9.1,0.6c-4.1,7.6-4.4,15.4-0.7,23.3
			c2.5,5.4,5,10.7,7.5,16c0.4,0.8,0.8,1.7,1.5,2.3c3.9,3.7,7.9,7.3,11.8,10.9c2.2,1.9,4.4,3.8,8.1,2.7c-2.8-6.5-5.4-12.9-8.4-19
			c-1.1-2.2-3-4.1-4.8-5.9c-0.6-0.6-2-0.3-3.8-0.5c-5.6-6.2-6.7-9.5-3.8-12.5C111.8,147.2,114.8,147.5,119.4,152.2L119.4,152.2z
			 M95.1,144.4c1.2-3.6,2.1-7.4,3.6-10.9c2.5-6,9.9-6.9,13.1-1.6c2.9,4.7,6.9,8.7,10.4,13.2c2.8-5.5,2.4-9.6-1.6-13.5
			c-3.1-3-6.3-5.9-9.7-8.3c-1.2-0.8-3.6-0.8-5-0.2C98.7,126.5,93.8,136.5,95.1,144.4L95.1,144.4z M113.3,154.4l1.1-1
			c1.3,0.9,2.6,1.9,4,2.9c-0.2-1.5-0.7-2.7-1.5-3.4c-1.2-1-3.1-2.6-3.9-2.3c-1.6,0.7-3.4,2.6-3.5,4.1c-0.1,1.6,1.2,3.8,2.6,4.9
			s3.7,0.9,6.3,1.4C116.4,158.5,114.8,156.4,113.3,154.4z M270.7,453.9c-2.4-5.5-4.3-9.8-6.3-14.5c-1.4,0.9-2.4,1.5-3.9,2.5
			C264.1,445.5,264.8,451,270.7,453.9z M86.5,442.4c-2.6,3.2-5.1,6.3-7.6,9.3c0.4,0.4,0.8,0.8,1.2,1.3c2.9-1.9,5.9-3.8,8.7-5.6
			C88,445.6,87.3,444.3,86.5,442.4z"/>
		<path d="M89.2,779.5c-2.9-20.5-6.5-75.1-6.8-95.8c-0.2-16.5-2.4-33-3.6-49.6c-0.8-11.5-1.3-23.1-2.1-34.7
			c-1-15.3-1.7-30.7-3.3-45.9c-2-18-4.6-36-7.4-54c-1.6-10.2-5.5-19.9-8.6-29.7c-3.9-12.4-11-22.3-18.5-32.1c-1.7-2.2-4.6-3.3-7-4.9
			c-1.5-1-2.9-2-4.1-3.5c4.3-0.7,7.8,1,10.6,3.9c2.8,2.9,5.4,6,7.9,9.2c8.9,11.5,14.4,24.5,18.3,38.5c6.3,23,9.9,46.3,12,70
			c1,11.7,1.2,23.4,2,35.1c1.2,17.3,2.6,34.6,3.8,52c1.3,20.6,2.2,41.2,3.8,61.7c1.2,15.3,4,65.5,5.6,80.8
			C90.1,780.4,90.5,779.5,89.2,779.5L89.2,779.5z"/>
		<path d="M282.9,782.6c4.3-36,27.9-109.1,30.8-145.2c2.6-31.9,2.3-64.1,0.7-96.2c-0.8-16-1-32-1.2-48.1
			c-0.1-10.4,3.1-20.2,6.2-29.9c3.5-11,7.2-22,11-32.9c2.8-7.9,7-15,12.9-20.9c0.3,0.2,0.6,0.3,1,0.5c-0.7,1.5-1.2,3-2.1,4.4
			c-7.2,11-12.6,22.8-16,35.5c-1.7,6.2-3.6,12.4-5.7,18.5c-4.6,13.5-5.9,27.3-5,41.4c2.3,37,4.8,74,2.1,111
			c-1.9,26.3-3.9,52.7-6.3,78.9c-1.4,15.3-22.1,67.7-24.1,82.9L282.9,782.6L282.9,782.6z"/>
		<path d="M210.4,704c-3.6,2-6.6,4.2-9.9,5.2c-0.8,0.3-3.1-3-4.1-5c-0.2-0.5,1.7-2.3,2.8-3.2C204,697.2,206.6,701.4,210.4,704
			L210.4,704z"/>
		<path d="M193.8,659.4c-0.6-0.6-2.8-1.9-2.8-3c0-1.8,1.2-4,2.7-5.2c0.7-0.6,3.1,0.7,4.6,1.3c1.1,0.5,2.2,1.2,3.2,1.9
			c0.9,0.5,1.8,1.1,2.7,1.7c-0.8,0.6-1.5,1.5-2.4,1.7C199.5,658.4,197.2,658.7,193.8,659.4L193.8,659.4z"/>
		<path d="M200.7,565.8c-2.2,1.5-4.6,3.5-7.3,5c-0.9,0.5-3.5-0.3-3.6-0.8c-0.4-2.2-0.6-4.7,0.2-6.6c0.4-0.9,3.4-1.4,4.9-1
			C197,563,198.8,564.6,200.7,565.8L200.7,565.8z"/>
		<path d="M202.4,607.9c-0.6,0.5-2.1,2.2-2.2,2c-3.3-2.5-7.2,3.5-9.9-0.7c-0.8-1.2-0.5-4,0.5-5c0.9-0.9,3.5-1,5-0.4
			C197.8,604.6,199.6,606.2,202.4,607.9L202.4,607.9z"/>
		<path d="M198.9,536.5c1.4-4.3,2.9-8.7,4.3-13c2.1,3.4-0.2,11-3,13.4C199.8,536.8,199.3,536.7,198.9,536.5L198.9,536.5z"/>
		<path d="M210.6,498.9c-0.9,4.3-1.8,8.5-2.6,12.8c-0.6-0.1-1.2-0.3-1.8-0.4c-1.1-4.7,1.3-8.7,2.9-12.8
			C209.6,498.6,210.1,498.7,210.6,498.9L210.6,498.9z"/>
		<path d="M197.1,546.6c1.6,2.7,0.3,5.4-0.4,8c-0.1,0.4-1.5,0.8-2,0.5c-0.5-0.2-1.1-1.3-0.9-1.9c0.5-2.3,1.3-4.5,2-6.8
			C196.2,546.5,196.6,546.5,197.1,546.6L197.1,546.6z"/>
		<path d="M211.9,493.3c0.6-3.3,1.3-6.6,1.9-9.9c0.7,0.1,1.4,0.2,2.1,0.4c-0.5,3.3-1,6.7-1.5,10
			C213.5,493.6,212.7,493.4,211.9,493.3L211.9,493.3z"/>
		<path d="M224.1,468.7c-1.6,2.6-3.2,5.3-5.1,8.5c-1.4-3.6-0.1-5.9,4.2-9.1C223.4,468.3,223.8,468.5,224.1,468.7z"/>
		<path d="M191.9,580.2c0.2,3.3,0.4,6.6,0.6,10.3C189.3,588.6,189,584.7,191.9,580.2z"/>
		
			<linearGradient id="SVGID_00000154385639026761688130000012538196187804481156_" gradientUnits="userSpaceOnUse" x1="201.9144" y1="433.1905" x2="180.3844" y2="642.2104" gradientTransform="matrix(1 0 0 -1 0 778)">
			<stop  offset="3.000000e-02" style="stop-color:#3B2F35"/>
			<stop  offset="9.000000e-02" style="stop-color:#5D585A"/>
			<stop  offset="0.98" style="stop-color:#AEB9B0"/>
		</linearGradient>
		<path style="fill:url(#SVGID_00000154385639026761688130000012538196187804481156_);" d="M181.1,78.1c4,3.8,7.5,7.9,11.6,11
			c3.5,2.6,5.2,1.2,5.2-3.2c-0.1-5.1-0.2-10.2,3.9-14.3c-0.7,4-1.4,7.9-2,11.7c-0.1,1-0.1,2.3,0.4,3.2c0.7,1.3,1.9,2.4,2.8,3.5
			c0.6-1,1.2-2.2,2-3c1-1.1,2.1-2.2,3.4-3c3.6-2.2,7.6-3.9,11-6.4c3.2-2.3,4.7-5.7,4.2-9.9c-0.2-1.4,0.1-2.8,0.6-4.2
			c5.2,6.3-0.4,11.9-1.3,18.9c2.1-0.8,3.2-3.3,4.7-4.2c6.6-3.8,10.8-2.7,9.7,5.6c-0.5,3.5,1.9,7.8,1.7,11.3
			c-0.3,4.6-0.5,8.1-0.7,14.5c-0.9,11.5-2.5,19.4-0.7,29.7c1.8,10.3,1.8,20.6-2.9,30.4c-2.5,5.2-5.1,10.3-7.6,15.5
			c-0.5,1.1-0.9,2.2-1,3.3c-1.2,7.7-2.6,15.4-3.4,23.1c-0.6,6.4-1.2,7.8-0.4,14.1c1.4,11.8-4.9,19.2-13,26.1c-2.3,2-4.3,4.3-6.3,6.6
			c-3.2,3.6-5.9,6.3-9.4,9.5c-5.3,4.7-11.6,4.5-16.8-0.1c-4.2-3.7-7.7-6.7-11.7-10.7c-1.9-1.9-4.3-3.4-6.4-5.2
			c-4.3-3.7-8.4-7.5-12.7-11.2c-3.2-2.8-3.3-6.6-3.4-10.4c-0.2-8.6-0.1-12.1-0.7-20.7c-0.2-3.1-1.8-6.1-3.1-9
			c-5.9-12.2-12.6-24.1-17.7-36.7c-1.6-3.9-0.3-9.7,1.4-14c6.3-16,6.3-30.6-0.3-46c0.4-5.2,2.2-10,1.8-19.4
			c-0.1-2.7,0.4-5.6,0.3-7.8c-0.2-2.3,2.8-4.3,4.2-2.4s-0.3,4.5,2.2,2.5c3.1,2.7,6,5.5,9.3,7.8c1.4,1.1,3.6,1.2,5.4,1.7
			c0.2-1.7,0.6-3.4,0.5-5.1c-0.1-1.4-0.7-2.8-0.3-4.7c3.7,3.9,7.4,7.9,11.2,11.7c0.8,0.8,2,1,3,1.5c0.5-1.1,1.4-2.3,1.3-3.4
			c-0.2-3.1-0.8-6.2-0.8-9.4c2.2,3.5,7.5,4.4,7.2,10c-0.1,2.6,3.6,2.6,5.9-0.1C176,83.7,178.9,80.5,181.1,78.1L181.1,78.1z
			 M161.7,181.2c0.5,5.1,0.5,5,4.1,6.1c1.6,0.5,3.4,1.3,4.4,2.6c3.3,4.1,7.6,5,12,3.1c6.1-2.6,11.9-6,18.8-9.6
			c-2.6-0.6-3.9-0.9-5.4-1.3c-2.6-24.8-12.2-48.4-10.2-74.6c-1.4,1.1-1.7,1.3-1.8,1.4c-0.2,1.1-0.2,2.1-0.4,3.2
			c-1.2,12.8,0.9,25.2,3.7,37.7c2.1,9.7,4,19.5,5.9,29.3c0.8,4.1-1.1,7.5-4.4,9.2c-4.4,2.2-9.2,4.9-14.5,2c-0.8-0.4-1.5-1.2-1.9-2.1
			C170.1,183.9,165.8,183.5,161.7,181.2L161.7,181.2z M171.6,169.7c3.9-17,2.4-34.2,1.5-51.3C172.6,135.5,172.1,152.6,171.6,169.7z
			 M162.1,173.1c-3.2,0.2-6.3,0.5-6.4,5c-0.2,8.2,0.5,10.2,4.4,10.7C155.6,182.9,156.5,176.6,162.1,173.1L162.1,173.1z M201.7,170.3
			c0.3,6.1,0.6,11.3,0.8,16.6C204.7,184.7,204.5,174.2,201.7,170.3z"/>
		
			<linearGradient id="SVGID_00000056386864045885317810000011744733065763172000_" gradientUnits="userSpaceOnUse" x1="121.9172" y1="382.755" x2="246.4052" y2="382.755" gradientTransform="matrix(1 0 0 -1 0 778)">
			<stop  offset="3.000000e-02" style="stop-color:#3B2F35"/>
			<stop  offset="0.32" style="stop-color:#5D585A"/>
			<stop  offset="1" style="stop-color:#AEB9B0"/>
		</linearGradient>
		<path style="fill:url(#SVGID_00000056386864045885317810000011744733065763172000_);" d="M163.5,258.7c3.7,3.9,7.6,5.8,10.6,9.8
			c6,8.2,16.9,6,22.1,1.2c2.3-2.2,3.9-3.6,5.9-6.1c1.3-1.6,2.8-3,4.9-5.3c0,1.7,0.2,2.5,0,3.3c-5.1,20.6-6.6,24.7-5.5,45.7
			c0.5,8.6,4.6,16.4,10.4,23.1c9,10.3,17.6,21,26.3,31.6c1.2,1.5,2.2,3.1,3.5,4.4c6.3,6.5,6.3,12.9-0.1,18.1
			c-11.1,9.1-14.4,20.9-14,34.5c0.1,3.9-0.3,7.8,0,11.7c0.6,9.3-1.9,17.4-7.3,25c-7.9,10.9-12.7,23.3-16.2,36.3
			c-3.5,13-7.6,25.8-11.7,39.9c-2.5-7.2-4.6-13.5-6.9-19.8c-5.7-15.5-11.1-31.2-17.3-46.5c-5.1-12.5-11.1-24.5-16.7-36.7
			c-0.6-1.3-1-2.9-0.9-4.2c1.2-13.5-4.2-24-14.6-32.2c-1-0.8-2.1-1.8-2.7-2.9c-3.5-5.9-6.8-11.9-10.3-17.8c-1.4-2.3-1-3.8,0.8-5.6
			c10.8-10.4,19.7-22.4,27.2-35.4c4.8-8.3,9.6-16.5,13.7-25.1c1.7-3.5,2.6-7.8,2.4-11.7C166.1,277.1,164.7,276.8,163.5,258.7
			L163.5,258.7z M194.8,462.1c-3.9,1.8-3.4,5.2-3.1,8.2c0.1,1.3,1.7,2.5,3.1,4.4V462.1z M193.8,502.3c0.2-3.6,0.3-6.4,0.4-9.1
			c0-0.4,0.3-0.9,0.1-1.2c-0.3-0.7-0.8-1.6-1.4-1.7c-0.5-0.1-1.4,0.6-1.8,1.1C189.7,494,190.6,499.2,193.8,502.3L193.8,502.3z
			 M182.6,467.8c-3.4,3.8-2,9.6,2.6,11.7C184.3,475.7,183.5,471.9,182.6,467.8z M203.4,441.2c-0.4,0.2-0.8,0.4-1.2,0.5
			c-0.7,2.2-1.5,4.4-2.2,6.6c0.2,0.2,0.4,0.5,0.7,0.7c1.3-1.2,3.1-2.2,3.7-3.7C204.8,444.2,203.8,442.5,203.4,441.2L203.4,441.2z
			 M210.9,438l-1.1,0.2c0.4,2.4,0.9,4.8,1.5,8.3C213.8,442.5,212.9,440.2,210.9,438L210.9,438z"/>
		
			<linearGradient id="SVGID_00000124151083183316707620000000522828967289135011_" gradientUnits="userSpaceOnUse" x1="92.56" y1="401.375" x2="158.78" y2="401.375" gradientTransform="matrix(1 0 0 -1 0 778)">
			<stop  offset="0" style="stop-color:#F01048"/>
			<stop  offset="1" style="stop-color:#544045"/>
		</linearGradient>
		<path style="fill:url(#SVGID_00000124151083183316707620000000522828967289135011_);" d="M140.8,402.1c-8.3-0.2-12.8,4.9-16.8,11
			c-2.9,4.4-5.5,9.1-9.1,12.8c-5.9,6.1-12.5,11.6-18.5,17c-1.6-2.3-2.7-3.8-3.9-5.6c2.8-3.8,6.4-8,9.3-12.6c8.7-14,9.6-28.9,3.2-44
			c-3.6-8.6-2.5-19.3,4.4-25.9c12.3-11.8,24.9-23.3,37.5-34.8c3.5-3.2,7.3-6,11.8-9.6c-2.8,6.7-6.3,11.9-11.2,15.6
			c-9.2,6.9-17.8,14.2-25.4,22.9c-8.7,9.9-8.5,14.5-2.6,27.4c1.8,4,4.2,7.9,7,11.3c2.6,3.1,6,5.5,9.2,8.1c1.9,1.6,4,3,6.1,4.5
			C141.5,400.8,141.2,401.5,140.8,402.1L140.8,402.1z"/>
		
			<linearGradient id="SVGID_00000147193352214188388650000002473529801744288685_" gradientUnits="userSpaceOnUse" x1="209.77" y1="401.7315" x2="265.1551" y2="401.7315" gradientTransform="matrix(1 0 0 -1 0 778)">
			<stop  offset="0" style="stop-color:#F01048"/>
			<stop  offset="1" style="stop-color:#544045"/>
		</linearGradient>
		<path style="fill:url(#SVGID_00000147193352214188388650000002473529801744288685_);" d="M233.3,397.9c2.6-3,5.1-6.2,8-8.9
			c8.9-8.2,10-13.8,4.5-24.6c-6.3-12.3-14.1-23.4-24.7-32.6c-4.1-3.6-7.6-7.9-11.3-11.8c0.3-0.3,0.6-0.6,0.9-0.9
			c2.1,1.9,4.1,3.8,6.3,5.5c11.7,8.8,23.4,17.6,35.2,26.4c1.3,1,2.7,1.8,4.1,2.5c5.7,2.5,8.2,7.2,8.6,13.1
			c0.5,9.1,0.5,18.1-1.6,27.3c-2.9,12.9-5.6,26.1-1.3,39.4c-5,1.2-6.2-1.6-7.6-5.4c-2.8-7.7-6-15.2-9.7-22.5
			C242.5,401.2,239.6,397,233.3,397.9L233.3,397.9z"/>
		
			<linearGradient id="SVGID_00000070831002876372734170000006430977173811651769_" gradientUnits="userSpaceOnUse" x1="269.73" y1="649.7911" x2="249.65" y2="627.261" gradientTransform="matrix(1 0 0 -1 0 778)">
			<stop  offset="0" style="stop-color:#5D585A"/>
			<stop  offset="3.000000e-02" style="stop-color:#3B2F35"/>
			<stop  offset="0.74" style="stop-color:#AEB9B0"/>
		</linearGradient>
		<path style="fill:url(#SVGID_00000070831002876372734170000006430977173811651769_);" d="M240.3,139.5c0.1-0.3,0.1-1.4,0.4-2.3
			c1.7-4.9,11.4-11.5,16.5-11.1c1.2,0.1,2.9,0.7,3.3,1.6c2,4.3,4.5,8.7,0.9,13.5c-5.9,8-7.8,17.4-9.8,27c-1.2,5.8-5.8,11-9.7,15.9
			c-1.2,1.5-5,1-7.6,0.9c-0.5,0-1.6-2.7-1.2-3.7c1.7-4.9,3.6-9.9,5.8-14.6c1.6-3.4,3.9-6.6,5.9-9.8c0.4-0.6,0.6-1.4,0.9-2.1
			c-0.3-0.2-0.6-0.4-0.8-0.6c-1.6,2-3.1,4-4.7,6c-0.3-0.2-0.6-0.4-0.9-0.5c2.3-3.8,4.6-7.6,6.9-11.4c-0.2-0.2-0.5-0.5-0.7-0.7
			c-1.7,1.8-3.3,3.6-5,5.4c-0.1-0.1-0.3-0.2-0.5-0.2c1.3-2.1,2.6-4.2,4.4-7c-1.8,0.5-2.9,0.8-4.1,1.1c-0.3-0.2-0.5-0.5-0.8-0.8
			c1.4-1.5,2.6-3.9,4.3-4.2c2.3-0.5,4.9,0.5,7.4,0.9c-0.4,1.4-0.6,2.9-1.1,4.1c-0.7,1.6-1.8,3.1-1.9,5c1.4-1.3,2.8-2.7,4.2-4
			c3-2.9,1.9-7.6-2.2-8.3C247,139,243.7,139.5,240.3,139.5L240.3,139.5z"/>
		
			<linearGradient id="SVGID_00000071536571400853362640000012665512303326048926_" gradientUnits="userSpaceOnUse" x1="73.8112" y1="644.8919" x2="121.4112" y2="615.0719" gradientTransform="matrix(1 0 0 -1 0 778)">
			<stop  offset="0" style="stop-color:#5D585A"/>
			<stop  offset="3.000000e-02" style="stop-color:#3B2F35"/>
			<stop  offset="0.9" style="stop-color:#AEB9B0"/>
		</linearGradient>
		<path style="fill:url(#SVGID_00000071536571400853362640000012665512303326048926_);" d="M119.4,152.2c-4.6-4.6-7.6-5-11-1.6
			c-3,3-1.9,6.3,3.8,12.5c1.8,0.2,3.2-0.1,3.8,0.5c1.8,1.8,3.7,3.6,4.8,5.9c3,6.1,5.6,12.5,8.4,19c-3.7,1.1-5.9-0.8-8.1-2.7
			c-4-3.6-7.9-7.2-11.8-10.9c-0.7-0.6-1.1-1.5-1.5-2.3c-2.5-5.3-5.1-10.7-7.5-16c-3.6-7.9-3.4-15.7,0.7-23.3
			c2.2-4.1,6.1-4.2,9.1-0.6c2.9,3.5,5.8,7,8.7,10.6C120.8,145.9,121.3,148.8,119.4,152.2L119.4,152.2z M115.7,166.1
			c-0.5,0.3-1,0.5-1.5,0.8c1.9,2.8,3.7,5.6,5.6,8.4c0.5-0.4,1-0.7,1.5-1C119.4,171.5,117.5,168.8,115.7,166.1z"/>
		
			<linearGradient id="SVGID_00000116918147747991315290000004851648066191054984_" gradientUnits="userSpaceOnUse" x1="94.8624" y1="644.1988" x2="123.946" y2="644.1988" gradientTransform="matrix(1 0 0 -1 0 778)">
			<stop  offset="3.000000e-02" style="stop-color:#3B2F35"/>
			<stop  offset="0.32" style="stop-color:#5D585A"/>
			<stop  offset="1" style="stop-color:#AEB9B0"/>
		</linearGradient>
		<path style="fill:url(#SVGID_00000116918147747991315290000004851648066191054984_);" d="M95.1,144.4c-1.2-7.9,3.6-18,10.8-21.4
			c1.4-0.7,3.8-0.6,5,0.2c3.5,2.5,6.7,5.4,9.7,8.3c4,3.9,4.4,8,1.6,13.5c-3.6-4.4-7.6-8.5-10.4-13.2c-3.2-5.3-10.6-4.4-13.1,1.6
			C97.1,137,96.2,140.8,95.1,144.4L95.1,144.4z"/>
		
			<linearGradient id="SVGID_00000031885997196555019590000010649536133923745184_" gradientUnits="userSpaceOnUse" x1="238.403" y1="635.0884" x2="269.673" y2="661.2284" gradientTransform="matrix(1 0 0 -1 0 778)">
			<stop  offset="3.000000e-02" style="stop-color:#3B2F35"/>
			<stop  offset="0.32" style="stop-color:#5D585A"/>
			<stop  offset="1" style="stop-color:#AEB9B0"/>
		</linearGradient>
		<path style="fill:url(#SVGID_00000031885997196555019590000010649536133923745184_);" d="M262.5,117.7c1,5.2,2.1,10.4,3.1,15.6
			c-0.3,0.1-0.5,0.2-0.8,0.3c-0.4-1-0.7-1.9-1-2.9c-2.3-6.8-6.7-8.5-13.1-5c-2.5,1.3-4.9,2.7-7.6,4.2c2.9-7.3,11.8-16.6,19.6-12.1
			L262.5,117.7L262.5,117.7z"/>
		
			<linearGradient id="SVGID_00000090989596120631940690000006706475296853595297_" gradientUnits="userSpaceOnUse" x1="109.3402" y1="622.188" x2="118.2902" y2="622.188" gradientTransform="matrix(1 0 0 -1 0 778)">
			<stop  offset="3.000000e-02" style="stop-color:#3B2F35"/>
			<stop  offset="0.32" style="stop-color:#5D585A"/>
			<stop  offset="1" style="stop-color:#AEB9B0"/>
		</linearGradient>
		<path style="fill:url(#SVGID_00000090989596120631940690000006706475296853595297_);" d="M113.3,154.4c1.5,2,3.1,4.1,5,6.6
			c-2.7-0.5-4.9-0.4-6.3-1.4s-2.8-3.3-2.6-4.9c0.1-1.5,2-3.4,3.5-4.1c0.8-0.4,2.7,1.3,3.9,2.3c0.8,0.7,1.3,1.9,1.5,3.4
			c-1.3-0.9-2.6-1.9-4-2.9C114.3,153.4,113.3,154.4,113.3,154.4z"/>
		
			<linearGradient id="SVGID_00000031916740767596862610000014922428070517717683_" gradientUnits="userSpaceOnUse" x1="260.39" y1="331.305" x2="270.64" y2="331.305" gradientTransform="matrix(1 0 0 -1 0 778)">
			<stop  offset="3.000000e-02" style="stop-color:#3B2F35"/>
			<stop  offset="0.32" style="stop-color:#5D585A"/>
			<stop  offset="1" style="stop-color:#AEB9B0"/>
		</linearGradient>
		<path style="fill:url(#SVGID_00000031916740767596862610000014922428070517717683_);" d="M270.6,454c-5.9-2.9-6.6-8.5-10.2-12
			c1.5-1,2.5-1.6,3.9-2.5C266.4,444.1,268.3,448.5,270.6,454z"/>
		
			<linearGradient id="SVGID_00000093894155596466593840000012301452478922820520_" gradientUnits="userSpaceOnUse" x1="78.87" y1="330.275" x2="88.81" y2="330.275" gradientTransform="matrix(1 0 0 -1 0 778)">
			<stop  offset="0" style="stop-color:#F01048"/>
			<stop  offset="1" style="stop-color:#544045"/>
		</linearGradient>
		<path style="fill:url(#SVGID_00000093894155596466593840000012301452478922820520_);" d="M86.5,442.4c0.9,1.8,1.5,3.2,2.3,5
			c-2.8,1.8-5.8,3.7-8.7,5.6c-0.4-0.4-0.8-0.8-1.2-1.3C81.3,448.7,83.8,445.6,86.5,442.4z"/>
		<path d="M161.8,181.2c4.1,2.2,8.4,2.6,10.3,7c0.4,0.8,1.1,1.6,1.9,2.1c5.3,2.9,10.1,0.3,14.5-2c3.3-1.7,5.2-5.1,4.4-9.2
			c-1.9-9.8-3.8-19.5-5.9-29.3c-2.7-12.4-4.9-24.9-3.7-37.7c0.1-1.1,0.2-2.1,0.4-3.2c0-0.2,0.4-0.3,1.8-1.4
			c-2,26.2,7.6,49.8,10.2,74.6c1.6,0.4,2.9,0.7,5.4,1.3c-7,3.6-12.7,7-18.8,9.6c-4.4,1.8-8.7,0.9-12-3.1c-1-1.2-2.8-2.1-4.4-2.6
			C162.3,186.2,162.2,186.3,161.8,181.2L161.8,181.2z"/>
		<path d="M149.2,207.2c0,1.9-0.4,2.2,2.1,3.6c7,2.3,13.7,5.8,20.9,4c2.2-0.6,4.9-0.2,7.1,0.5c2.5,0.8,4.4,1.5,6.3-1.1
			c0.6-0.8,2.5-1.1,3.7-0.9c8.8,1.1,17.6-0.5,26.4,0.7c0.7-1.1-1.2-7,0.1-6.9c0.2,0.5,0.7,6.8,0.7,7.2c0,0,0,0,0,0
			c0,0.8-0.7,1.4-1.5,1.3c-7.9-0.4-15.6,1.6-23.4,1c-0.8-0.1-1.8,0-2.3,0.4c-4.4,3.4-9.1,2.8-14.1,1.8c-7.8-1.5-14.3-4.7-22.2-5.7
			c-0.9-0.1-2.1-0.3-2.9-0.6c-5.3-1.6-3.9-1.8-3.9-1.9c2.2-10.8,8-10.5,4.3-7.5C149.3,204.3,149.1,205.9,149.2,207.2L149.2,207.2z"
			/>
		<path d="M171.6,169.7c0.5-17.1,1-34.2,1.5-51.3C174,135.5,175.6,152.7,171.6,169.7z"/>
		<path d="M162.1,173.1c-5.6,3.5-6.5,9.8-2,15.8c-3.9-0.5-4.6-2.5-4.4-10.7C155.8,173.6,158.9,173.2,162.1,173.1L162.1,173.1z"/>
		<path d="M201.7,170.3c2.8,3.9,3,14.4,0.8,16.6C202.3,181.6,202,176.4,201.7,170.3z"/>
		<path d="M194.8,462.1v12.6c-1.4-2-3-3.1-3.1-4.4C191.4,467.3,190.8,463.9,194.8,462.1z"/>
		<path d="M193.8,502.3c-3.1-3.2-4.1-8.3-2.5-10.9c0.4-0.6,1.3-1.2,1.8-1.1c0.6,0.1,1,1,1.4,1.7c0.1,0.3-0.1,0.8-0.1,1.2
			C194.1,496,194,498.7,193.8,502.3L193.8,502.3z"/>
		<path d="M182.6,467.8c0.9,4.1,1.7,7.9,2.6,11.7C180.6,477.3,179.2,471.5,182.6,467.8z"/>
		<path d="M203.4,441.1c0.4,1.4,1.4,3.1,1,4.1c-0.7,1.5-2.4,2.5-3.7,3.7c-0.2-0.2-0.4-0.5-0.7-0.7c0.7-2.2,1.5-4.4,2.2-6.6
			C202.6,441.5,203,441.3,203.4,441.1L203.4,441.1z"/>
		<path d="M210.9,438c2,2.2,2.9,4.5,0.4,8.5c-0.6-3.5-1.1-5.9-1.5-8.3L210.9,438L210.9,438z"/>
		<path d="M115.7,166.1c1.9,2.7,3.7,5.4,5.6,8.1c-0.5,0.4-1,0.7-1.5,1c-1.9-2.8-3.7-5.6-5.6-8.4
			C114.7,166.6,115.2,166.3,115.7,166.1z"/>
	</g>
	<g id="fond-yeux">
		<ellipse class="st13" cx="152.1" cy="125.4" rx="19.5" ry="17.5"/>
		<ellipse class="st13" cx="214.3" cy="120.5" rx="19.5" ry="17.5"/>
	</g>
</g>
<g id="Calque_2" class="st14">
	<path id="Tracé_3320_00000109732836001526215190000009826152536389166001_" class="st15" d="M66.6,155.6c-0.2,0.1-0.3,0.1-0.5,0.2
		c-1.7,0.5-3.4,1-5.1,1.5c-0.7,0.2-1.3,0.4-1.9,0.7c-0.7,0.3-1.2,0.9-1.4,1.6c-0.2,0.6-0.1,0.9,0.5,1c0.6,0.2,1.3,0.2,1.9,0.1
		c1.5-0.2,3-0.5,4.6-0.8c3.3-0.7,6.5-1.5,9.7-2.3c1.2-0.3,2.4-0.8,3.4-1.4c1.2-0.6,2-1.8,2.3-3.1c0.2-0.6,0-1.2-0.4-1.6
		c-3-2.7-5.9-5.5-8.8-8.2c-1.1-1-2.1-1.9-3.2-2.9c-0.1-0.1-0.2-0.2-0.4-0.3c-0.5-0.3-0.7-0.3-1.2,0.1c-0.9,0.8-1.5,1.9-1.6,3.1
		c0,0.3,0,0.5,0.1,0.8c0.4,1,0.9,2,1.6,2.9c0.7,0.9,1.3,1.9,1.9,2.8c0.1,0.1,0.2,0.3,0.3,0.6c-0.7-0.2-1.3-0.3-1.9-0.5
		c-3.9-1.1-7.6-2.7-11.1-4.7c-3.6-2-6.8-4.6-9.6-7.6c-2-2.1-3.5-4.6-4.4-7.4c-0.2-0.7-0.4-1.4-0.6-2.1c-0.1-0.2-0.1-0.4-0.3-0.6
		c-0.1-0.2-0.2-0.2-0.4-0.2c-0.1,0-0.1,0.1-0.1,0.1c-0.2,0.2-0.4,0.5-0.6,0.7c-0.2,0.6-0.4,1.2-0.5,1.8c-0.3,1.7-0.1,3.5,0.4,5.2
		c0.7,2.2,1.8,4.3,3.2,6.1c1.9,2.5,4.2,4.7,6.8,6.5c2.7,1.9,5.6,3.6,8.6,4.9c2.7,1.2,5.4,2.1,8.2,2.7c0.2,0,0.3,0.1,0.5,0.1
		L66.6,155.6"/>
	<g class="st16">
		<path class="st17" d="M43.8,113c0.1,0.3,0.1,0.7,0.1,1.2c-0.1,1.2-0.6,2.2-1.5,3.1c-0.9,0.8-1.9,1.4-3.1,1.8
			c-2,0.6-3.7,0.3-5.2-0.9c-1.3-1-2.2-2.6-2.8-4.6c-0.5-1.7-0.7-3.4-0.6-5c0.1-1.9,0.6-3.4,1.5-4.7c0.7-1,1.5-1.7,2.5-1.9
			c1.4-0.4,2.6-0.1,3.6,0.9c0.9,0.8,1.5,1.9,1.9,3.4c0.2,0.7,0.3,1.5,0.2,2.6c0,1.3-0.3,2.1-0.8,2.2c-0.6,0.2-1.1-0.1-1.6-0.7
			c0.1-0.2,0.3-0.4,0.5-0.7c0.2-0.4,0.2-1.2-0.1-2.2c-0.3-1-0.6-1.8-1-2.4c-0.6-0.9-1.3-1.3-2-1.1c-0.5,0.1-1,0.6-1.4,1.5
			c-0.3,0.6-0.6,1.3-0.7,2c-0.3,1.8-0.2,3.8,0.5,6.1c1,3.3,2.7,4.6,5.2,3.9c1.1-0.3,1.8-0.9,2.3-1.6c0.2-0.3,0.4-1,0.6-2
			c0.2-0.7,0.4-1.1,0.8-1.2c0.3-0.1,0.5,0,0.8,0.1S43.7,112.7,43.8,113z"/>
		<path class="st17" d="M42.2,101.9c-0.1-0.4,0-0.7,0.2-1.1c0.2-0.4,0.6-0.6,1-0.8c0.5-0.1,0.9,0,1.4,0.3c0.5,0.3,0.8,0.8,1,1.4
			c0.2,0.7,0.3,1.2,0.3,1.7c0,0.5-0.1,1-0.3,1.4c-0.2,0.5-0.5,1-0.8,1.4s-0.6,0.7-1,0.8c-0.3,0-0.5,0-0.7-0.1
			c-0.2-0.1-0.2-0.3-0.1-0.6c0.3-0.3,0.5-0.6,0.7-0.9c0.2-0.3,0.3-0.7,0.3-1.2c0-0.2,0-0.5-0.1-0.8c-0.1-0.3-0.3-0.4-0.6-0.5
			c-0.3-0.1-0.6-0.2-0.8-0.3C42.4,102.5,42.3,102.2,42.2,101.9z"/>
		<path class="st17" d="M57.6,110.9c0.2,0.8-0.1,1.6-1.1,2.3c-0.7,0.6-1.6,1-2.5,1.3c-2.5,0.7-4.1-0.3-4.9-3.1
			c-0.3-1.2-0.4-2.5-0.3-4.1c0.2-1.9,0.8-3,1.7-3.3c0.9-0.3,1.9-0.1,3.2,0.4c1.2,0.5,2,1.2,2.2,2c0.3,1.1,0.1,2-0.7,2.9
			c-0.7,0.8-1.6,1.4-2.7,1.7c-0.2,0.1-0.6,0-1.2-0.1c0.5,1.5,1.2,2.1,2,1.9c0.7-0.2,1.3-0.6,1.9-1.2c0.6-0.6,0.9-0.9,1.1-1
			C57.1,110.5,57.5,110.6,57.6,110.9z M53.7,107.2c-0.1-0.4-0.3-0.7-0.7-1c-0.3-0.3-0.7-0.4-1.1-0.3c-0.5,0.2-0.9,0.5-1,1.1
			c-0.1,0.5-0.1,1,0,1.5c0.1,0.3,0.3,0.5,0.5,0.7c0.3,0.1,0.6,0.2,0.9,0.1C53.5,108.8,53.9,108.1,53.7,107.2z"/>
		<path class="st17" d="M66.6,108c0.2,0.8,0.1,1.5-0.4,2.2c-0.5,0.8-1.4,1.4-2.6,1.7c-0.5,0.2-1.1,0.2-1.7,0.2
			c-2.1-0.2-3.3-0.5-3.4-0.9c-0.2-0.7,0.2-1.2,1.2-1.5c0.1,0,0.3-0.1,0.5-0.1c0.2,0.5,0.7,0.7,1.5,0.8c0.7,0.1,1.3,0,1.9-0.2
			c0.5-0.2,0.6-0.4,0.5-0.7c0,0,0-0.1-0.1-0.2c-0.1-0.1-0.1-0.2-0.1-0.2c0-0.1-0.4-0.1-1-0.1c-0.7,0-1.2,0-1.3,0
			c-2.1-0.6-3.4-1.6-3.9-3.1c-0.3-0.9-0.3-1.9,0-2.8c0.3-1,1-1.7,1.8-1.9c0.7-0.2,1.5-0.2,2.5,0.1c1,0.3,1.7,0.7,2,1.2
			c0.2,0.4,0.4,0.7,0.5,1c0.1,0.3,0.1,0.5,0.1,0.8c0,0.3-0.1,0.5-0.1,0.8c-0.2,0.3-0.5,0.5-0.8,0.6c-0.2,0-0.5,0-0.9-0.1
			c-0.4-0.1-0.7-0.2-0.7-0.4c0-0.1,0-0.3,0.1-0.7c0.1-0.2,0.1-0.4,0-0.6c-0.3-1-0.8-1.3-1.5-1.1c-0.4,0.1-0.7,0.5-0.8,1.2
			c0,0.5,0,1,0.2,1.5c0.2,0.6,0.8,1.1,1.9,1.3c0.9,0.1,1.9,0.3,2.8,0.4C65.9,107.3,66.5,107.6,66.6,108z"/>
		<path class="st17" d="M72,99.7c0.1,0.4-0.4,0.9-1.7,1.5c0.1,0.4,0.3,1.2,0.6,2.4l0.5,1.6c0.1,0.3,0.3,0.8,0.6,1.4
			c0.3,0.6,0.5,1,0.5,1.4c0.1,0.3,0,0.5-0.2,0.8c-0.2,0.3-0.4,0.4-0.7,0.5c-0.4,0.1-0.8-0.1-1.3-0.7c-0.4-0.5-0.6-0.9-0.8-1.4
			l-1.5-5.1c-0.8,0.1-1.2,0.2-1.3,0.2c-0.5,0-0.7-0.1-0.8-0.4c0-0.1,0-0.1,0-0.2c0.2-0.7,0.6-1.1,1.1-1.3c0,0,0.1,0,0.1,0
			c0.1,0,0.1,0,0.2,0c0.3-0.1,0.4-0.5,0.1-1.3L67,97.1c-0.1-0.2-0.2-0.3-0.3-0.4c-0.1-0.2,0-0.4,0.2-0.7c0.2-0.2,0.4-0.4,0.6-0.5
			c0.3-0.1,0.7,0,1.1,0.2c0.4,0.2,0.6,0.5,0.7,0.9c0.1,0.4,0.2,0.8,0.2,1.2c0,0.4,0,0.8,0.2,1.2l0,0.1C71.1,98.9,71.8,99.1,72,99.7z
			"/>
		<path class="st17" d="M91.8,103.3c-0.4,0.5-0.8,0.8-1.1,0.9c-0.2,0.1-0.6,0-1-0.1c-0.1-0.3-0.2-0.7-0.4-1.3
			c-0.2-0.6-0.3-1-0.4-1.3c-1.2-4.3-2.2-6.3-2.9-6.1c-0.5,0.2-0.8,0.9-0.7,2.3c0,1,0.2,1.9,0.4,2.7l0.6,2.2c0,0.1,0.1,0.3,0.3,0.5
			c0.1,0.2,0.2,0.3,0.3,0.5c0.1,0.3,0,0.5-0.2,0.8c-0.2,0.3-0.5,0.5-0.7,0.5c-0.3,0.1-0.6,0-0.9-0.2c-0.4-0.2-0.6-0.4-0.6-0.7
			L83,99.5c-0.5-1.8-1-2.7-1.4-2.5c-0.1,0-0.2,0.2-0.3,0.6c-0.7,1.9-0.8,3.7-0.3,5.4c0.1,0.3,0.2,0.6,0.4,1.1
			c0.2,0.5,0.4,0.8,0.4,1.1c0.1,0.3,0.1,0.6-0.1,0.9c-0.1,0.3-0.4,0.4-0.7,0.5c-0.4,0.1-0.7,0.1-1-0.1c-0.1-0.1-0.3-0.4-0.6-1
			c-0.3-0.6-0.4-1-0.5-1.2L77.5,99c-0.1-0.4-0.2-0.9-0.2-1.6c0-0.8,0.2-1.3,0.4-1.4c0.3-0.1,0.6-0.1,1,0.1c0.3,0.2,0.5,0.4,0.6,0.7
			c0.2-0.9,0.7-1.5,1.5-1.7c0.9-0.3,1.8,0.1,2.8,1.2c0.1-0.8,0.2-1.4,0.4-1.7c0.3-0.6,0.7-1,1.3-1.1c0.6-0.2,1.3,0,2.1,0.4
			c1.4,0.8,2.4,2.4,3.2,5L91.8,103.3z"/>
		<path class="st17" d="M100.8,95.6c0.4,1.4,0.4,2.8,0,4c-0.5,1.4-1.4,2.3-2.8,2.7c-1.4,0.4-2.6,0.2-3.6-0.5c-0.9-0.7-1.6-1.7-2-3.2
			c-0.4-1.4-0.5-2.9-0.1-4.4c0.4-1.8,1.3-2.8,2.6-3.2c0.4-0.1,1-0.1,1.7,0.1C98.7,91.6,100.1,93.1,100.8,95.6z M98.7,96.1
			C98,93.7,97,92.6,95.9,93c-0.8,0.2-1.3,1-1.5,2.1c-0.1,0.9,0,1.8,0.3,2.8c0.6,2.1,1.6,3,2.8,2.6c0.8-0.2,1.3-0.9,1.4-1.9
			C99,97.9,99,97.1,98.7,96.1z"/>
		<path class="st17" d="M103.2,86.3c0.1,0.4,0.1,0.7-0.1,1c-0.2,0.3-0.4,0.5-0.8,0.6c-0.4,0.1-0.8,0.1-1.3-0.1
			c-0.4-0.2-0.7-0.5-0.8-0.9c-0.1-0.4-0.1-0.7,0.1-1c0.2-0.3,0.5-0.5,0.8-0.6c0.4-0.1,0.9-0.1,1.3,0.1
			C102.8,85.6,103.1,85.9,103.2,86.3z M104,89.8c0.1,0.3,0.1,0.7,0.2,1.3c0,0.6,0.1,1,0.2,1.3l1.4,4.9c0.1,0.3,0.3,0.8,0.7,1.4
			c-0.1,0.4-0.3,0.7-0.6,0.8c-1,0.3-1.7,0-2.1-1c-0.7-1.8-1.2-3.2-1.5-4.2c-0.5-1.6-0.8-2.9-1-4c0-0.1,0-0.2-0.1-0.2
			c-0.1-0.3,0.1-0.5,0.5-0.6c0.4-0.1,0.8-0.1,1.3-0.1C103.6,89.2,103.9,89.4,104,89.8z"/>
	</g>
</g>
</svg>
