<?xml version="1.0" encoding="UTF-8"?><svg id="Calque_2" xmlns="http://www.w3.org/2000/svg" viewBox="0 0 372 778.58"><defs><style>.cls-1{fill:#7f1936;stroke-width:0px;}</style></defs><path id="Tracé_3320" class="cls-1" d="m66.63,155.63c-.17.05-.34.11-.51.16-1.7.49-3.41.97-5.11,1.48-.66.19-1.31.43-1.94.71-.66.3-1.16.88-1.36,1.58-.2.6-.06.86.5,1.03.62.17,1.27.2,1.9.08,1.52-.24,3.05-.48,4.56-.81,3.25-.72,6.5-1.51,9.75-2.26,1.19-.34,2.35-.8,3.45-1.38,1.2-.62,2.05-1.77,2.29-3.1.19-.56.02-1.19-.44-1.57-2.96-2.72-5.88-5.46-8.83-8.19-1.06-.98-2.13-1.93-3.2-2.89-.12-.1-.24-.2-.38-.28-.46-.31-.7-.31-1.15.09-.92.8-1.5,1.92-1.64,3.13-.02.27.02.55.12.8.39,1.02.92,1.98,1.57,2.85.66.93,1.3,1.86,1.95,2.79.1.14.17.29.33.56-.73-.19-1.34-.35-1.95-.52-3.89-1.09-7.63-2.67-11.13-4.68-3.56-2-6.79-4.55-9.55-7.56-1.97-2.13-3.47-4.64-4.42-7.38-.23-.69-.4-1.4-.61-2.09-.06-.23-.15-.44-.26-.65-.06-.16-.25-.24-.41-.18-.05.02-.1.06-.13.1-.24.21-.44.46-.58.75-.24.57-.42,1.17-.53,1.78-.26,1.74-.11,3.52.42,5.2.68,2.21,1.76,4.28,3.19,6.1,1.91,2.5,4.18,4.71,6.75,6.53,2.68,1.93,5.57,3.56,8.6,4.85,2.66,1.16,5.42,2.07,8.25,2.75.17.04.33.08.5.13v.11"/><path class="cls-1" d="m43.76,112.97c.09.3.12.69.08,1.17-.09,1.17-.61,2.21-1.54,3.14-.85.83-1.88,1.42-3.08,1.77-1.97.57-3.7.27-5.18-.91-1.29-1.03-2.23-2.57-2.82-4.61-.49-1.69-.69-3.36-.59-5,.1-1.87.59-3.45,1.46-4.74.7-1.01,1.51-1.66,2.46-1.93,1.36-.39,2.57-.1,3.61.88.85.79,1.49,1.92,1.92,3.38.19.66.26,1.53.21,2.62-.05,1.33-.32,2.07-.82,2.21-.56.16-1.09-.07-1.58-.69.13-.16.3-.41.51-.75.22-.44.18-1.18-.12-2.2-.29-.99-.63-1.8-1.04-2.43-.62-.95-1.3-1.31-2.04-1.1-.51.15-.98.64-1.4,1.47-.32.63-.55,1.29-.7,2-.34,1.76-.18,3.78.48,6.07.96,3.32,2.69,4.62,5.19,3.9,1.07-.31,1.83-.86,2.28-1.64.18-.34.39-1.02.64-2.02.16-.72.43-1.13.81-1.24.26-.07.51-.04.76.1s.41.33.48.57Z"/><path class="cls-1" d="m42.17,101.93c-.11-.37-.04-.74.21-1.13.24-.38.58-.64,1.01-.76.46-.13.92-.04,1.38.28.46.32.78.79.96,1.41.2.67.29,1.24.29,1.71,0,.47-.11.95-.31,1.44-.2.51-.46.97-.77,1.38s-.63.67-.95.76c-.26.04-.48,0-.65-.14-.17-.13-.2-.34-.09-.61.27-.27.51-.57.71-.91.21-.34.31-.72.33-1.16.02-.25-.03-.5-.13-.76-.1-.26-.31-.43-.64-.53-.32-.1-.61-.21-.85-.33-.24-.12-.41-.34-.5-.66Z"/><path class="cls-1" d="m57.59,110.94c.23.8-.13,1.58-1.09,2.35-.75.6-1.58,1.03-2.51,1.3-2.46.71-4.1-.33-4.92-3.13-.33-1.15-.43-2.51-.27-4.09.19-1.93.77-3.03,1.74-3.32.88-.26,1.94-.14,3.19.35,1.24.49,1.99,1.16,2.23,2.01.31,1.06.08,2.03-.69,2.93-.67.8-1.58,1.37-2.73,1.7-.22.06-.62.03-1.2-.09.51,1.5,1.17,2.13,2.01,1.89.7-.2,1.34-.61,1.9-1.2.56-.6.94-.92,1.13-.98.69-.2,1.09-.11,1.2.28Zm-3.93-3.78c-.12-.4-.34-.75-.68-1.04-.34-.29-.7-.38-1.08-.27-.53.15-.87.5-1.02,1.05-.12.47-.11.98.05,1.52.09.3.26.52.53.65.26.13.56.15.88.06,1.17-.34,1.61-1,1.33-1.97Z"/><path class="cls-1" d="m66.58,108c.22.75.09,1.5-.39,2.25-.53.81-1.38,1.39-2.57,1.73-.51.16-1.09.22-1.75.17-2.13-.16-3.26-.47-3.39-.92-.2-.7.2-1.2,1.21-1.49.14-.04.3-.08.46-.11.19.47.68.74,1.49.82.7.08,1.33,0,1.89-.21.45-.17.64-.4.55-.71-.01-.05-.05-.12-.1-.21-.05-.09-.09-.16-.1-.22-.02-.06-.36-.09-1.02-.11-.75,0-1.17-.02-1.26-.03-2.14-.56-3.43-1.61-3.88-3.14-.27-.93-.25-1.86.05-2.8.34-1.04.95-1.68,1.83-1.94.66-.19,1.48-.15,2.47.12.99.27,1.66.67,2.03,1.21.25.38.41.71.49.98.08.29.11.54.09.76-.03.27-.05.54-.08.8-.24.3-.52.49-.82.58-.16.05-.46.02-.89-.07-.43-.09-.67-.21-.71-.35-.02-.06.02-.3.11-.71.05-.24.06-.43.01-.58-.28-.96-.79-1.33-1.55-1.11-.45.13-.71.52-.78,1.16-.05.5,0,1.01.15,1.52.19.64.81,1.08,1.87,1.33.94.13,1.89.26,2.85.4,1.03.15,1.61.44,1.74.88Z"/><path class="cls-1" d="m72.01,99.73c.12.43-.44.93-1.71,1.48.07.36.29,1.17.65,2.41l.46,1.58c.09.32.28.78.55,1.38.28.6.46,1.05.55,1.35.07.26.01.52-.19.8-.2.27-.43.45-.68.52-.4.12-.84-.13-1.31-.74-.36-.47-.61-.95-.76-1.45l-1.48-5.09c-.77.1-1.21.15-1.34.15-.45,0-.71-.13-.78-.37-.02-.06-.03-.14-.02-.23.24-.71.62-1.14,1.14-1.29.03,0,.08-.02.14-.04.07,0,.12,0,.15-.02.34-.1.38-.54.14-1.32l-.51-1.75c-.13-.15-.22-.29-.25-.42-.06-.21,0-.43.21-.67.2-.24.41-.39.63-.46.33-.1.69-.03,1.09.19.39.22.64.51.74.87.11.38.16.78.15,1.19-.01.41.05.81.18,1.21l.03.1c1.29-.23,2.02-.03,2.21.61Z"/><path class="cls-1" d="m91.76,103.27c-.44.49-.8.78-1.09.86-.21.06-.55.04-1.05-.06-.07-.26-.2-.7-.38-1.32-.16-.56-.29-1-.38-1.32-1.23-4.26-2.2-6.29-2.9-6.08-.52.15-.76.92-.7,2.31.04,1.01.17,1.92.4,2.72l.64,2.21c.03.11.12.27.26.46.14.19.23.35.26.46.07.26,0,.52-.21.8-.21.28-.45.46-.71.53-.27.08-.58.02-.94-.17-.35-.19-.56-.42-.64-.67l-1.3-4.47c-.52-1.81-.99-2.65-1.4-2.54-.07.02-.16.21-.28.58-.71,1.87-.81,3.69-.3,5.45.07.26.22.62.43,1.09.21.47.36.82.43,1.06.09.32.07.61-.07.88-.14.27-.37.45-.69.54-.37.11-.7.06-1-.13-.11-.09-.32-.44-.62-1.04-.27-.56-.43-.96-.5-1.18l-1.51-5.22c-.11-.38-.16-.92-.16-1.62.02-.84.16-1.29.43-1.37.32-.09.64-.05.97.11.33.17.52.42.58.74.24-.9.73-1.46,1.47-1.68.91-.26,1.83.13,2.76,1.18.1-.81.22-1.38.38-1.73.27-.58.7-.96,1.29-1.13.59-.17,1.28-.03,2.07.41,1.37.77,2.43,2.45,3.18,5.04l1.25,4.3Z"/><path class="cls-1" d="m100.82,95.57c.42,1.44.41,2.78,0,4.01-.49,1.41-1.43,2.31-2.8,2.71-1.41.41-2.61.24-3.61-.51-.9-.66-1.56-1.72-1.99-3.17-.42-1.44-.45-2.91-.1-4.39.39-1.76,1.25-2.84,2.58-3.22.42-.12.99-.09,1.72.1,2.1.55,3.51,2.05,4.21,4.48Zm-2.13.56c-.71-2.45-1.66-3.5-2.84-3.16-.85.25-1.34.95-1.47,2.12-.09.88,0,1.81.29,2.8.62,2.13,1.56,3.01,2.82,2.64.82-.24,1.3-.85,1.44-1.85.11-.76.03-1.61-.25-2.56Z"/><path class="cls-1" d="m103.22,86.34c.1.35.07.68-.11.97-.18.29-.44.49-.79.59-.42.12-.85.09-1.29-.1-.44-.18-.73-.48-.85-.9-.1-.35-.06-.68.12-.97.18-.3.46-.5.83-.6.43-.12.86-.1,1.27.09.42.18.69.49.81.92Zm.76,3.42c.08.29.14.71.16,1.28.02.57.08.99.16,1.28l1.44,4.95c.09.3.32.76.71,1.36-.13.44-.35.7-.64.78-1.02.29-1.72-.05-2.11-1.03-.7-1.83-1.19-3.21-1.47-4.16-.46-1.58-.78-2.93-.96-4.04-.02-.08-.05-.16-.07-.24-.08-.29.1-.5.54-.62.4-.12.82-.15,1.26-.11.56.03.89.21.98.55Z"/></svg>