<?xml version="1.0" encoding="UTF-8"?><svg id="casch_yeux_-_copie_2" xmlns="http://www.w3.org/2000/svg" xmlns:xlink="http://www.w3.org/1999/xlink" viewBox="0 0 574 813.33"><defs><style>.cls-1{fill:url(#Dégradé_sans_nom_8);}.cls-1,.cls-2,.cls-3,.cls-4,.cls-5{stroke-width:0px;}.cls-3{fill:url(#Dégradé_sans_nom_20);}.cls-4{fill:url(#Dégradé_sans_nom_21);}.cls-5{fill:url(#Dégradé_sans_nom_25);}</style><linearGradient id="Dégradé_sans_nom_8" x1="302.26" y1="122.21" x2="323.66" y2="101" gradientUnits="userSpaceOnUse"><stop offset=".03" stop-color="#3b2f35"/><stop offset=".32" stop-color="#5d585a"/><stop offset=".98" stop-color="#aeb9b0"/></linearGradient><linearGradient id="Dégradé_sans_nom_25" x1="304.16" y1="116.83" x2="321.93" y2="134.11" gradientUnits="userSpaceOnUse"><stop offset=".03" stop-color="#3b2f35"/><stop offset=".13" stop-color="#5d585a"/><stop offset=".98" stop-color="#aeb9b0"/></linearGradient><linearGradient id="Dégradé_sans_nom_20" x1="-2252.15" y1="123.49" x2="-2232.29" y2="103.8" gradientTransform="translate(-1988.12) rotate(-180) scale(1 -1)" gradientUnits="userSpaceOnUse"><stop offset=".08" stop-color="#5d585a"/><stop offset=".32" stop-color="#5d585a"/><stop offset=".98" stop-color="#aeb9b0"/></linearGradient><linearGradient id="Dégradé_sans_nom_21" x1="-2245.28" y1="129.79" x2="-2225.68" y2="148.84" gradientTransform="translate(-1988.12) rotate(-180) scale(1 -1)" gradientUnits="userSpaceOnUse"><stop offset="0" stop-color="#5d585a"/><stop offset=".42" stop-color="#aeb9b0"/></linearGradient></defs><path class="cls-2" d="m329.42,104.19c9.52,7.85,10.17,20.73,1.51,28.88-7.38,6.95-19.74,5.94-26.4,2.21-9.33-5.23-11.35-12.03-7.58-22.18.41-1.1-.11-5.75,9.45-8.65-2.22,0-11.43,5.81-13.75,5.81-.14-3.1-1.23-6.95-1.12-9.95.03-.85,1.06-2.08,1.92-2.42,10.82-4.28,21.85-10.04,32.67-14.33,4.08-1.62,7.47-1.47,10.19,2.36,4.44,6.25,8.86,14.09,13.16,20.44.6.88-.01,2.57-.06,3.88-1.06-.6-2.18-1.11-3.17-1.82-3.68-2.62-8.35-13.97-12.75-14.67-5.57-.89-27.82,10.88-26.99,10.68,13.22-3.21,21.26-1.6,22.92-.23Zm6.03,13.5c-4.87-16.08-32.02-10.4-37.03-1.99-1.58,2.65-.99,10.07.81,10.92,2.77,1.3,10.08,5,13.06,5.46,9.03,1.39,24.25-5.34,23.16-14.39Zm-34.82-8.19c10.84-3.61,15.64-6.51,30.02-1.25-.52-1.77-3.21-4.49-8.16-3.89-5,.6-9.98,1.43-14.99,1.88-4.81.43-4,.32-6.88,3.27Zm.52,20.51c4.65,5.83,9.15,7.68,16.97,6.69,7.75-.98,11.73-2.63,14.23-8.31-9.57,8.13-20.88,7.38-31.2,1.62Z"/><path class="cls-2" d="m303.66,138.76c4.94,3.21,9.91,6.22,16.68,4.87-4.64,3.21-13.58.56-16.68-4.87Z"/><path class="cls-2" d="m264.33,144.34c-3.66,4.82-9.02,6.64-14.65,5.2,4.51-1.6,9.83-3.49,14.65-5.2Z"/><path class="cls-1" d="m300.62,109.5c1.03-1.92,2.88-3.39,7.82-4.93,5.23-1.62,8.83-.99,15.61-.25,4.96.54,5.72,1.56,7.04,4.07-11.49-3.54-15.2-2.88-30.47,1.11Z"/><path class="cls-5" d="m301.14,130.01c10.99,5.83,22.01,6.14,31.57-1.99-3.32,6.79-6.85,7.7-14.6,8.68-7.82.99-12.77-.86-16.97-6.69Z"/><path class="cls-2" d="m241.4,105.75c-2.67-.11-5.8-1.16-7.9-.13-4,1.97-7.39,5.15-11.07,7.77-.99.7-2.11,1.22-3.17,1.82-.05-1.31-.66-3-.06-3.88,4.3-6.34,8.86-12.51,13.29-18.76,2.72-3.83,6.11-3.97,10.19-2.36,10.82,4.29,21.71,8.37,32.53,12.65.86.34,1.89,1.57,1.92,2.42.12,3-.17,6.02-.31,9.13h-6.45c.54,1.46.94,2.56,1.35,3.67,3.76,10.15,1.75,16.95-7.58,22.18-6.66,3.73-19.02,4.74-26.4-2.21-8.66-8.15-9.23-22.8,1.51-28.88.88-.5,1.57-1.32,2.35-1.99-.07-.48-.14-.95-.2-1.43Zm11.86,30.9c4.32-.14,11.43-.52,15.64-4.5,1.44-1.37,2.71-11.18.59-13.43-5.16-5.46-27.16-14.67-35.19,4.65,1.4,9.3,9.96,13.57,18.96,13.28Zm7.91-25.43c-5.01-.45-9.99-1.27-14.99-1.88-4.95-.6-7.61,1.86-7.9,3.55,4.65-1.92,13.72-5.16,28.99.66-1.72-4.35-1.29-1.91-6.1-2.34Zm-23.92,21.97c2.73,5.53,5.56,7.51,13.31,8.5,7.82.99,11.11-1.27,15.02-4.73-3.32,1.62-20.8,4.87-28.33-3.76Z"/><path class="cls-3" d="m267.28,113.55c-1.72-4.35-.86-3.95-9.04-4.94-5-.61-8.59-.39-14.12.66-4.9.93-5.24,3.17-5.83,3.61,14-4.42,20.54-2.14,28.99.66Z"/><path class="cls-4" d="m266.1,136.79c-9.15,2.14-19.28,4.74-28.84-3.39,2.95,5.53,5.56,7.29,13.31,8.28,7.82.99,12.29-1.34,15.53-4.88Z"/></svg>