<?xml version="1.0" encoding="UTF-8"?><svg id="casch_yeux_-_copie" xmlns="http://www.w3.org/2000/svg" xmlns:xlink="http://www.w3.org/1999/xlink" viewBox="0 0 574 813.33"><defs><style>.cls-1{fill:url(#Dégradé_sans_nom_8);}.cls-1,.cls-2,.cls-3,.cls-4,.cls-5{stroke-width:0px;}.cls-3{fill:url(#Dégradé_sans_nom_20);}.cls-4{fill:url(#Dégradé_sans_nom_21);}.cls-5{fill:url(#Dégradé_sans_nom_25);}</style><linearGradient id="Dégradé_sans_nom_8" x1="295.16" y1="138.05" x2="327.53" y2="105.97" gradientUnits="userSpaceOnUse"><stop offset=".03" stop-color="#3b2f35"/><stop offset=".32" stop-color="#5d585a"/><stop offset=".98" stop-color="#aeb9b0"/></linearGradient><linearGradient id="Dégradé_sans_nom_25" x1="305.7" y1="114.1" x2="323.36" y2="131.27" gradientUnits="userSpaceOnUse"><stop offset=".03" stop-color="#3b2f35"/><stop offset=".13" stop-color="#5d585a"/><stop offset=".98" stop-color="#aeb9b0"/></linearGradient><linearGradient id="Dégradé_sans_nom_20" x1="-2258.96" y1="139.27" x2="-2227.38" y2="107.97" gradientTransform="translate(-1988.12) rotate(-180) scale(1 -1)" gradientUnits="userSpaceOnUse"><stop offset=".08" stop-color="#5d585a"/><stop offset=".32" stop-color="#5d585a"/><stop offset=".98" stop-color="#aeb9b0"/></linearGradient><linearGradient id="Dégradé_sans_nom_21" x1="-2245.62" y1="125.16" x2="-2223.04" y2="147.11" gradientTransform="translate(-1988.12) rotate(-180) scale(1 -1)" gradientUnits="userSpaceOnUse"><stop offset="0" stop-color="#5d585a"/><stop offset=".42" stop-color="#aeb9b0"/></linearGradient></defs><path class="cls-2" d="m329.81,104.19c9.52,7.85,10.17,20.73,1.51,28.88-7.38,6.95-19.74,5.94-26.4,2.21-9.33-5.23-11.35-12.03-7.58-22.18.41-1.1-.11-5.75,9.45-8.65-2.22,0-11.43,5.81-13.75,5.81-.14-3.1-1.23-6.95-1.12-9.95.03-.85,1.06-2.08,1.92-2.42,10.82-4.28,21.85-10.04,32.67-14.33,4.08-1.62,7.47-1.47,10.19,2.36,4.44,6.25,8.86,14.09,13.16,20.44.6.88-.01,2.57-.06,3.88-1.06-.6-2.18-1.11-3.17-1.82-3.68-2.62-8.35-13.97-12.75-14.67-5.57-.89-27.82,10.88-26.99,10.68,13.22-3.21,21.26-1.6,22.92-.23Zm5.16,14.63c-10.61-2.36-26.05-1.94-34.32-.92-3.06.38-1.18,3.27.62,4.11,2.77,1.3,5.68,2.62,8.66,3.08,9.03,1.39,18.17,2.56,25.05-6.27Zm-36.05-4.94c12.18-1.49,23.77-2.33,35.26,1.21-.82-6.11-6.35-11.33-11.3-10.73-5,.6-9.98,1.43-14.99,1.88-4.81.43-7.25,3.3-8.97,7.65Zm3.58,13.52c3.04,7.3,8.19,10.28,16.01,9.29,7.75-.98,14.62-7.06,15.48-13.74-9.57,8.13-20.85,3.99-31.49,4.44Z"/><path class="cls-2" d="m304.05,138.76c4.94,3.21,9.91,6.22,16.68,4.87-4.64,3.21-13.58.56-16.68-4.87Z"/><path class="cls-2" d="m264.72,144.34c-3.66,4.82-9.02,6.64-14.65,5.2,4.51-1.6,9.83-3.49,14.65-5.2Z"/><path class="cls-1" d="m298.36,124.55c-3.1-9.89,4.83-18.85,10.47-19.98s8.83-.99,15.61-.25c4.96.54,10.22,6.43,11.1,16.02-9.15,7.23-21.39,7.01-37.18,4.2Z"/><path class="cls-5" d="m302.5,127.4c10.64-.45,21.92,3.69,31.49-4.44-.86,6.68-7.73,12.75-15.48,13.74-7.82.99-12.96-2-16.01-9.29Z"/><path class="cls-2" d="m241.8,105.75c-2.67-.11-5.8-1.16-7.9-.13-4,1.97-7.39,5.15-11.07,7.77-.99.7-2.11,1.22-3.17,1.82-.05-1.31-.66-3-.06-3.88,4.3-6.34,8.86-12.51,13.29-18.76,2.72-3.83,6.11-3.97,10.19-2.36,10.82,4.29,21.71,8.37,32.53,12.65.86.34,1.89,1.57,1.92,2.42.12,3-.17,6.02-.31,9.13h-6.45c.54,1.46.94,2.56,1.35,3.67,3.76,10.15,1.75,16.95-7.58,22.18-6.66,3.73-19.02,4.74-26.4-2.21-8.66-8.15-9.23-22.8,1.51-28.88.88-.5,1.57-1.32,2.35-1.99-.07-.48-.14-.95-.2-1.43Zm17.74,24.32c2.74-.48,5.89-.21,10.13-1.4,1.91-.53,2.61-.17-.44.3-3.65.56-24.49,10.7-34.73-5.17,6.87,8.84,16.05,7.84,25.05,6.27Zm2.03-18.86c-5.01-.45-9.99-1.27-14.99-1.88-4.95-.6-13.51,8.5-11.3,15.36,8.41,9,20.8,6.12,33.64,4.35,3.76-3.84-2.55-17.4-7.36-17.84Zm-26.09,16.73c.86,6.68,7.73,12.75,15.48,13.74,7.82.99,12.96-2,16.01-9.29-10.64-.45-21.92,3.69-31.49-4.44Z"/><path class="cls-3" d="m270.33,129.19c1.25-7.67-3.52-19.59-11.69-20.58-5-.61-8.59-.39-14.12.66-4.9.93-10.85,8.56-9.86,15.56,12.73,11.29,30.88,4.13,35.68,4.35Z"/><path class="cls-4" d="m266.97,132.38c-10.64-.45-21.92,3.69-31.49-4.44.86,6.68,7.73,12.75,15.48,13.74,7.82.99,12.96-2,16.01-9.29Z"/></svg>