<?xml version="1.0" encoding="UTF-8"?><svg id="smilingvilain-gone" xmlns="http://www.w3.org/2000/svg" viewBox="0 0 574 813.33"><defs><style>.cls-1{stroke-width:0px;}</style></defs><path class="cls-1" d="m304.41,57.3v.03c.64-.02,1.28-.03,1.92-.03h-1.92Z"/><path class="cls-1" d="m302.43,57.3c.64,0,1.28.02,1.92.03v-.03h-1.92Z"/><path class="cls-1" d="m469.43,413.77c-16.03-15.22-34.36-23.78-52.05-33.27-15.88-8.52-32.43-13.34-48.38-21.54-9.24-4.75-15.59-11.79-19.17-20.75-5.69-14.25-4.33-33.36,3.71-55.93,7.19-20.16,12.26,1.46,17.91-20.34,1.68-6.48,2.54-8.08,5.06-13.64,11.76-25.92,7.67-21.15,9.32-33.62,3.24-24.35-6.1-10.94-6.12-19.35-.16-78.76-36.14-136.66-91.69-138h0s-.02,0-.03,0c0,0-.02,0-.03,0h0c-55.54,1.35-91.52,59.24-91.69,138-.02,8.41-9.36-5-6.12,19.35,1.66,12.47-2.44,7.7,9.32,33.62,2.52,5.56,3.37,7.16,5.06,13.64,5.65,21.79,10.73.18,17.91,20.34,8.05,22.57,9.4,41.68,3.71,55.93-3.57,8.96-9.92,16-19.17,20.75-15.95,8.2-32.5,13.02-48.38,21.54-17.69,9.49-36.02,18.06-52.05,33.27-17.29,16.41-20.39,119.07-18.4,150.12,1.49,23.25,10.97,135.67,19.68,147.97,4.32,6.1,26.74,27.56,31.96,32.26,42.66,38.4,94.42,52.88,145.22,57.07,1-.06,1.99-.1,2.97-.13.98.03,1.97.07,2.97.13,50.8-4.18,102.56-18.67,145.22-57.07,5.22-4.7,27.64-26.17,31.96-32.26,8.71-12.3,18.19-124.72,19.68-147.97,1.99-31.05-1.11-133.71-18.4-150.12Z"/></svg>