<?xml version="1.0" encoding="UTF-8"?><svg id="smilingvilain-gone" xmlns="http://www.w3.org/2000/svg" xmlns:xlink="http://www.w3.org/1999/xlink" viewBox="0 0 1080 1080"><defs><style>.cls-1{stroke-width:0px;}.cls-2{fill:url(#Dégradé_sans_nom_8);stroke:#000;stroke-miterlimit:10;stroke-width:7px;}</style><linearGradient id="Dégradé_sans_nom_8" x1="127.85" y1="542.14" x2="956.43" y2="542.14" gradientUnits="userSpaceOnUse"><stop offset=".03" stop-color="#3b2f35"/><stop offset=".32" stop-color="#5d585a"/><stop offset=".98" stop-color="#aeb9b0"/></linearGradient></defs><circle class="cls-2" cx="542.14" cy="542.14" r="414.29"/><path class="cls-1" d="m536.62,955.29c-80.67-4.18-131.53-17.11-199.27-55.51-8.29-4.7-43.9-26.17-50.75-32.26-13.84-12.3-28.89-74.72-31.25-97.97-3.16-31.05,1.77-63.71,29.22-80.12,25.45-15.22,54.57-23.78,82.66-33.27,25.22-8.52,51.5-13.34,76.83-21.54,38.02-12.31,45.35-39.92,24.54-76.68-11.41-20.16-17.88-43.54-26.85-65.34-2.67-6.48-5.61-13.08-9.62-18.64-18.68-25.92-26.45-54.07-17.98-86.62,2.08-8.01,2.42-16.74,2.44-25.15.26-79.7,39.09-132.9,111.6-148.12,77.56-16.27,168.21,35.83,167.4,142.55-.1,12.79,3.41,25.58,4.87,38.42,3.3,29.14-2.51,55.52-20.25,78.55-4.13,5.37-7.05,12.02-9.72,18.47-9.2,22.31-15.9,46.19-27.51,66.9-20.07,35.81-13.16,63.16,24.52,75.46,33.93,11.08,68.82,18.74,103.21,28.25,10.76,2.98,21.45,6.52,31.85,10.74,32.15,13.07,50.94,37.39,54.58,75.06,2.49,25.75,2.61,52.03-12.24,72.22-32.76,32.38-47.49,48.7-79.87,70.03-93.64,58.23-159.34,62.16-228.4,64.56Z"/></svg>