<?xml version="1.0" encoding="UTF-8"?><svg xmlns="http://www.w3.org/2000/svg" xmlns:xlink="http://www.w3.org/1999/xlink" viewBox="0 0 372 778.58"><defs><style>.cls-1{fill:url(#Dégradé_sans_nom_42-4);}.cls-1,.cls-2,.cls-3,.cls-4,.cls-5,.cls-6,.cls-7,.cls-8,.cls-9,.cls-10,.cls-11,.cls-12,.cls-13,.cls-14,.cls-15,.cls-16,.cls-17,.cls-18,.cls-19,.cls-20{stroke-width:0px;}.cls-2{fill:url(#Dégradé_sans_nom_42-2);}.cls-3{fill:url(#Dégradé_sans_nom_42-3);}.cls-4{fill:url(#Dégradé_sans_nom_8);}.cls-5{fill:url(#Dégradé_sans_nom_6);}.cls-6{fill:url(#Dégradé_sans_nom_6-4);}.cls-7{fill:url(#Dégradé_sans_nom_6-2);}.cls-8{fill:url(#Dégradé_sans_nom_6-3);}.cls-9{fill:url(#Dégradé_sans_nom_6-5);}.cls-11{fill:#f4dac9;}.cls-12{fill:#f9dfcd;}.cls-13{fill:url(#Dégradé_sans_nom_42);}.cls-14{fill:url(#Dégradé_sans_nom_12);}.cls-15{fill:url(#Dégradé_sans_nom_24);}.cls-16{fill:url(#Dégradé_sans_nom_20);}.cls-17{fill:url(#Dégradé_sans_nom_22);}.cls-18{fill:url(#Dégradé_sans_nom_21);}.cls-19{fill:url(#Dégradé_sans_nom_25);}.cls-20{fill:url(#Dégradé_sans_nom_23);}</style><linearGradient id="Dégradé_sans_nom_12" x1="333.68" y1="316.93" x2="262.03" y2="644.6" gradientUnits="userSpaceOnUse"><stop offset="0" stop-color="#f01048"/><stop offset=".92" stop-color="#544045"/></linearGradient><linearGradient id="Dégradé_sans_nom_42" x1="18.49" y1="582.92" x2="193.11" y2="582.92" gradientUnits="userSpaceOnUse"><stop offset="0" stop-color="#f01048"/><stop offset="1" stop-color="#544045"/></linearGradient><linearGradient id="Dégradé_sans_nom_24" x1="201.91" y1="344.81" x2="180.38" y2="135.79" gradientUnits="userSpaceOnUse"><stop offset=".03" stop-color="#3b2f35"/><stop offset=".09" stop-color="#5d585a"/><stop offset=".98" stop-color="#aeb9b0"/></linearGradient><linearGradient id="Dégradé_sans_nom_6" x1="121.93" y1="395.24" x2="246.41" y2="395.24" gradientUnits="userSpaceOnUse"><stop offset=".03" stop-color="#3b2f35"/><stop offset=".32" stop-color="#5d585a"/><stop offset="1" stop-color="#aeb9b0"/></linearGradient><linearGradient id="Dégradé_sans_nom_42-2" x1="92.56" y1="376.63" x2="158.78" y2="376.63" xlink:href="#Dégradé_sans_nom_42"/><linearGradient id="Dégradé_sans_nom_42-3" x1="209.79" y1="376.25" x2="265.17" y2="376.25" xlink:href="#Dégradé_sans_nom_42"/><linearGradient id="Dégradé_sans_nom_23" x1="269.72" y1="128.2" x2="249.64" y2="150.73" gradientUnits="userSpaceOnUse"><stop offset="0" stop-color="#5d585a"/><stop offset=".03" stop-color="#3b2f35"/><stop offset=".74" stop-color="#aeb9b0"/></linearGradient><linearGradient id="Dégradé_sans_nom_22" x1="73.81" y1="133.11" x2="121.41" y2="162.93" gradientUnits="userSpaceOnUse"><stop offset="0" stop-color="#5d585a"/><stop offset=".03" stop-color="#3b2f35"/><stop offset=".9" stop-color="#aeb9b0"/></linearGradient><linearGradient id="Dégradé_sans_nom_6-2" x1="94.86" y1="133.81" x2="123.95" y2="133.81" xlink:href="#Dégradé_sans_nom_6"/><linearGradient id="Dégradé_sans_nom_6-3" x1="238.41" y1="142.92" x2="269.68" y2="116.78" xlink:href="#Dégradé_sans_nom_6"/><linearGradient id="Dégradé_sans_nom_6-4" x1="109.34" y1="155.81" x2="118.29" y2="155.81" xlink:href="#Dégradé_sans_nom_6"/><linearGradient id="Dégradé_sans_nom_6-5" x1="260.4" y1="446.7" x2="270.64" y2="446.7" xlink:href="#Dégradé_sans_nom_6"/><linearGradient id="Dégradé_sans_nom_42-4" x1="78.87" y1="447.72" x2="88.81" y2="447.72" xlink:href="#Dégradé_sans_nom_42"/><linearGradient id="Dégradé_sans_nom_8" x1="197.96" y1="130.86" x2="224.29" y2="104.76" gradientUnits="userSpaceOnUse"><stop offset=".03" stop-color="#3b2f35"/><stop offset=".32" stop-color="#5d585a"/><stop offset=".98" stop-color="#aeb9b0"/></linearGradient><linearGradient id="Dégradé_sans_nom_25" x1="203.31" y1="114.1" x2="220.97" y2="131.27" gradientUnits="userSpaceOnUse"><stop offset=".03" stop-color="#3b2f35"/><stop offset=".13" stop-color="#5d585a"/><stop offset=".98" stop-color="#aeb9b0"/></linearGradient><linearGradient id="Dégradé_sans_nom_20" x1="-2358.43" y1="133.84" x2="-2330.57" y2="106.23" gradientTransform="translate(-2192.12) rotate(-180) scale(1 -1)" gradientUnits="userSpaceOnUse"><stop offset=".08" stop-color="#5d585a"/><stop offset=".32" stop-color="#5d585a"/><stop offset=".98" stop-color="#aeb9b0"/></linearGradient><linearGradient id="Dégradé_sans_nom_21" x1="-2347.23" y1="125.16" x2="-2324.65" y2="147.11" gradientTransform="translate(-2192.12) rotate(-180) scale(1 -1)" gradientUnits="userSpaceOnUse"><stop offset="0" stop-color="#5d585a"/><stop offset=".42" stop-color="#aeb9b0"/></linearGradient></defs><g id="amit-corp"><path class="cls-14" d="m282.47,785.27c-27.67,9.25-78.75,9.25-88,7.05s.65-6.46.44-9.69c-1.63-24.6-3.04-96.12-5.09-120.68-1.54-18.39-3.18-36.71-2.43-55.23.56-13.85-.21-27.74.12-41.6.21-8.67,1.53-17.26,5.61-25.14.69-1.35,1.6-3.64,2.01-5.09,3.9-13.99,7.89-27.96,11.6-42,3.37-12.75,8.13-24.87,15.83-35.6,5.41-7.54,8.2-15.61,7.7-24.92-.24-4.43.5-8.95-.04-13.33-.61-4.92,1.35-7.89,5.11-10.55,2.38-1.68,4-1.71,6.39.08,4.94,3.71,6.31,9.18,7.99,14.55,1.64,5.25,2.33,10.98,4.88,15.73,3.07,5.72,7.6,10.65,11.62,15.83.6.78,1.81,1.47,2.76,1.5,1.48.05,2.99-.49,4.48-.79-.25-1.21-.34-2.49-.77-3.63-3.07-8.17-7.1-16.1-9.1-24.51-2.84-11.92.74-23.76,2.72-35.57.9-5.38,1.21-10.89,1.3-16.36.09-5.24-.45-10.5-.72-15.66,3.21,1.78,6.61,3.65,9.99,5.54,13.13,7.35,26.09,14.99,39.42,21.96,10.34,5.4,21.1,10.02,31.73,14.85,3.4,1.55,4.75,4.04,4.81,7.61.17,10.23.84,20.48.53,30.7-.78,25.85-2.02,51.68-3,77.52-1.14,30.03-2.68,60.06-3.16,90.1-.56,34.91-17.78,94.71-17.97,129.63-.06,10.91-.87,21.81-1.33,32.71l-40.95,12.33c1.95-15.22,22.64-67.61,24.06-82.88,2.44-26.28,4.47-52.61,6.34-78.94,2.63-37.07.18-74.07-2.12-111.05-.94-15.07.57-29.75,6-44.04,1.51-3.97,2.86-8,3.85-12.14,3.36-14.15,9.12-27.15,16.99-39.23.88-1.35,1.42-2.91,2.11-4.38-.32-.17-.64-.33-.97-.5-5.82,5.99-10.06,13.05-12.85,20.94-3.85,10.9-7.51,21.88-11,32.9-3.09,9.75-6.35,19.55-6.2,29.94.23,16.02.43,32.06,1.21,48.06,1.58,32.07,1.89,64.22-.69,96.15-2.92,36.08-3.54,138.55-31.21,147.8Zm-72.04-81.32c-3.83-2.54-6.47-6.76-11.16-3-1.15.92-3.07,2.74-2.83,3.2,1.03,1.97,3.24,5.28,4.09,5.02,3.34-1.03,6.33-3.21,9.9-5.21Zm-16.64-44.59c3.38-.66,5.71-.99,7.97-1.61.89-.24,1.61-1.11,2.41-1.7-.89-.57-1.77-1.15-2.68-1.7-1.07-.65-2.1-1.41-3.24-1.88-1.54-.63-3.89-1.93-4.61-1.35-1.43,1.16-2.63,3.39-2.67,5.21-.02,1.18,2.18,2.4,2.82,3.04Zm6.94-93.59c-1.88-1.15-3.7-2.77-5.82-3.37-1.49-.42-4.48.08-4.86.99-.81,1.93-.58,4.42-.23,6.59.08.49,2.74,1.27,3.62.79,2.7-1.46,5.12-3.47,7.29-5.01Zm1.63,42.12c-2.7-1.69-4.57-3.31-6.74-4.06-1.51-.52-4.06-.49-4.98.44-.94.95-1.23,3.81-.47,4.97,2.72,4.18,6.66-1.82,9.94.66.17.13,1.66-1.48,2.25-2.02Zm-3.49-71.34c.45.13.91.27,1.36.4,2.8-2.44,5.02-9.95,2.97-13.39-1.45,4.33-2.89,8.66-4.34,12.99Zm11.7-37.67c-.5-.14-1.01-.28-1.51-.42-1.55,4.14-3.94,8.09-2.88,12.81.58.13,1.17.27,1.75.4.88-4.27,1.76-8.53,2.64-12.8Zm-13.46,47.69c-.47-.03-.93-.07-1.4-.1-.68,2.25-1.46,4.47-1.98,6.75-.13.57.41,1.67.93,1.91.51.24,1.9-.15,2.01-.53.78-2.65,2.06-5.37.44-8.03Zm14.84-53.3c.82.14,1.63.29,2.45.43.5-3.34,1.01-6.68,1.51-10.02-.68-.12-1.37-.24-2.05-.35-.63,3.31-1.27,6.62-1.9,9.94Zm12.15-24.53c-.31-.2-.63-.4-.94-.6-4.34,3.2-5.6,5.45-4.18,9.06,1.91-3.16,3.52-5.81,5.12-8.46Zm-32.21,111.43c-2.87,4.58-2.58,8.42.64,10.35-.23-3.75-.44-7.05-.64-10.35Z"/><path class="cls-13" d="m89.15,779.54h-4.04c-1.5-8.62-5.44-51.43-7.27-59.98-4.07-19.1-8.49-38.12-12.65-57.19-1.06-4.86-1.04-10.04-2.64-14.68-6.33-18.41-6.68-37.89-10.55-56.74-4.2-20.43-7.16-41.13-11.67-61.48-6.69-30.23-14.26-60.26-21.47-90.38-.9-3.74-.23-6.9,3.22-9.06,3.74-2.34,7.69-4.38,11.24-6.98,10.51-7.72,20.75-15.81,31.33-23.43,8.61-6.2,17.65-11.8,26.31-17.94,3.12-2.21,5.68-5.22,8.81-8.15,1.96,6.07,4.66,11.64,5.49,17.48,2.29,16.18-2.71,30.3-13.86,42.24-4.96,5.3-9.97,10.57-14.71,16.06-.94,1.09-1.49,3.49-.92,4.64.53,1.07,2.92,1.97,4.26,1.71,2.28-.43,4.49-1.64,6.53-2.86,2.62-1.56,5.12-3.31,7.51-5.2,6.88-5.42,14.14-10.47,20.36-16.58,5.03-4.95,8.68-11.28,13.12-16.86,1.48-1.86,3.5-3.3,5.05-4.72,1.55,2.8,2.75,4.97,3.95,7.14l1-.42c-.45-1.48-.9-2.94-1.42-4.67,4,.27,5.83,2.53,7.16,5.52,3.11,6.99,6.23,13.98,9.44,20.92,3.85,8.31,8.38,16.34,11.6,24.88,8.77,23.29,16.96,46.8,25.48,70.18,1.31,3.58,1.12,6.68-1.35,9.8-.75-1.21-1.38-2.23-1.52-2.46-.49,5.13-1.02,10.72-1.56,16.32-.02.18-.03.37-.03.55-.05,11.24-.21,22.49-.14,33.73.11,19.13-.1,38.27.69,57.37.76,18.43,2.62,36.81,4,55.21,1.05,13.97,2.19,74.82,3.24,88.78-34.18,0-74.38-3.07-103.01-11.88-1.56-15.26-3.08-65.5-4.23-80.79-1.55-20.54-2.44-41.13-3.79-61.69-1.13-17.33-2.59-34.64-3.75-51.96-.78-11.69-.97-23.43-2.01-35.09-2.1-23.63-5.68-46.99-12.01-69.95-3.87-14.04-9.37-27.01-18.29-38.48-2.48-3.18-5.08-6.29-7.86-9.2-2.8-2.93-6.25-4.63-10.59-3.9,1.21,1.49,2.67,2.49,4.14,3.49,2.36,1.62,5.31,2.78,6.96,4.94,7.54,9.87,14.61,19.75,18.54,32.14,3.12,9.85,7.04,19.48,8.64,29.71,2.82,17.94,5.48,35.93,7.45,53.98,1.67,15.24,2.31,30.6,3.31,45.91.76,11.56,1.27,23.13,2.09,34.68,1.18,16.53,3.38,33.03,3.62,49.57.3,20.66,3.96,75.33,6.82,95.78Z"/><path class="cls-10" d="m193.11,792.3c-1.05-13.97-2.19-74.82-3.24-88.78-1.38-18.4-3.23-36.78-4-55.21-.79-19.1-.58-38.24-.69-57.37-.07-11.24.09-22.49.14-33.73,0-.18,0-.37.03-.55.53-5.6,1.07-11.19,1.56-16.32.14.23.77,1.25,1.52,2.46,2.47-3.12,2.66-6.22,1.35-9.8-8.52-23.38-16.71-46.89-25.48-70.18-3.21-8.54-7.75-16.58-11.6-24.88-3.22-6.94-6.33-13.93-9.44-20.92-1.33-2.99-3.16-5.25-7.16-5.52.53,1.73.97,3.2,1.42,4.67l-1,.42c-1.2-2.17-2.4-4.34-3.95-7.14-1.55,1.43-3.57,2.86-5.05,4.72-4.44,5.58-8.09,11.91-13.12,16.86-6.21,6.11-13.48,11.16-20.36,16.58-2.39,1.89-4.89,3.64-7.51,5.2-2.04,1.22-4.25,2.43-6.53,2.86-1.34.25-3.73-.65-4.26-1.71-.57-1.16-.02-3.55.92-4.64,4.74-5.49,9.75-10.76,14.71-16.06,11.16-11.93,16.15-26.05,13.86-42.24-.83-5.84-3.53-11.41-5.49-17.48-3.13,2.94-5.69,5.94-8.81,8.15-8.66,6.14-17.7,11.74-26.31,17.94-10.58,7.62-20.82,15.72-31.33,23.43-3.55,2.6-7.5,4.64-11.24,6.98-3.44,2.15-4.11,5.31-3.22,9.06,7.21,30.11,14.78,60.15,21.47,90.38,4.51,20.36,7.47,41.05,11.67,61.48,3.87,18.84,4.22,38.32,10.55,56.74,1.6,4.65,1.58,9.82,2.64,14.68,4.16,19.08,8.58,38.1,12.65,57.19,1.82,8.55,5.77,51.36,7.27,59.98h-4.04c-5.27-24.77-13.63-83.59-18.35-108.46-2.29-12.04-4.58-24.01-7.46-35.94-2.83-11.73-3.51-23.97-5.29-35.96-2.13-14.39-4.02-28.83-6.77-43.11-2.39-12.42-5.87-24.62-8.77-36.93-5.48-23.2-10.99-46.4-16.26-69.64-1.03-4.53-1.46-9.3-1.39-13.95.07-4.87,2.46-8.64,7.34-10.56,2.09-.82,4.05-2.11,5.9-3.43,17.3-12.31,34.63-24.59,51.82-37.06,5.86-4.25,11.4-8.97,16.98-13.6.81-.67,1.29-2.02,1.49-3.13,1.26-7.05,5.08-12.43,9.92-17.59,10.72-11.42,22.7-21.37,34.82-31.18,4.69-3.8,9.75-7.17,14.19-11.23,1.92-1.76,5.27-6.15,5.16-14.05-.09-7.25-1.19-14.49-1.84-21.74-1.07-11.97-6.62-21.04-17.09-27.12-3.67-2.13-5-5.79-5-9.99-.02-8.47-.33-11.8-.05-20.26.14-4.31-1.92-7.64-3.57-11.17-1.82-3.89-4.09-7.57-6.32-11.63-5.6,1.77-9.2-1.57-12.83-5.45-3.1-3.31-6.78-6.05-10.1-9.16-.93-.87-1.58-2.11-2.16-3.28-3.4-6.85-6.98-13.63-10.01-20.65-1.55-3.59-3.17-7.72-2.83-11.42.78-8.37,4.12-15.76,11.61-20.7,3.57-2.35,6.23-1.29,8.95,1.22,2.7,2.49,5.46,4.91,8.2,7.37l.95-.08c2.56-3.08,1.82-4.18,1.67-6.9-.61-11.14-.36-12.94-3.19-19.62-.36-.85.22-3.37.19-4.28-.2-5.34,4.64-9.54.86-13.03-3.15-2.91-6.48-6.09-4.4-10.08,1.37-2.64-6.8-4.17-9.75-4.35-3.56-.22-4.44-1.82-3.78-5.35,1.17-6.32,1.35-12.85,2.83-19.07.67-2.8,3.28-5.27,5.36-7.58,2.87-3.19,3.88-6.07,6.93-9.1,7.86-7.82,11.27-14.67,21.36-19.47,8.34-3.96,16.89-4.61,25.94-3.05,4.95.85,10.14.59,15.21.4,3.33-.12,6.62-1.19,9.97-1.51,8.25-.78,16.38-.77,23.78,3.99,1.77,1.13,3.92,1.86,6,2.27,10.74,2.08,18.13,8.06,26.94,13.95,2.7,1.8,1.6,5.12,3.35,8.03.64,1.06-.12,2.96-.76,4.51.38,2.41,3.76,4.61-.14,7.18,1.1,1.72,1.99,3.37,3.13,4.81,1.49,1.89,2.53,3.12-.4,5.06-1.51,1-1.29,4.33-2.63,5.96-2.26,2.73.65,3.77,1.19,5.57,1.37,4.55,3.74,8.94-1.18,13.26-3.35,2.94-5.77-.34-8.11,3.48-1.3,2.11-1.08,11.53-1.44,14.17-1.06,7.85-1.86,20.17-3.03,29.19,4.27-3.43,11.17-10.05,14.58-12.51,3.54-2.56,7.32-1.59,9.87,2.24-7.87-4.51-16.75,4.77-19.64,12.09,2.71-1.5,5.14-2.88,7.6-4.21,6.42-3.49,10.86-1.79,13.14,5.03.32.97.7,1.92,1.05,2.88.27-.1.55-.2.82-.3-1.03-5.21-2.07-10.42-3.1-15.62,1.13,2.19,2.63,4.27,3.33,6.59,2.24,7.45-.55,13.93-4.38,20.15-4.46,7.24-6.19,15.34-7.9,23.57-1.46,7.05-5.14,13.3-10.51,18.24-2.9,2.67-9.16,1.89-12.94-1.44-.6,2.14-1.28,4-1.66,5.93-2.87,14.82-5.33,24.58-3.67,39.75.68,6.25-1.71,11.54-5.91,15.23-6.93,6.08-9.36,13.98-11.08,22.31-3.56,17.23-5.36,17.72-3.26,35.33.75,6.34,2.48,11.44,8.43,15.44,13.35,9,26.05,18.97,39.02,28.53,4.5,3.32,8.84,6.91,13.57,9.86,4.29,2.67,9.09,4.51,13.53,6.96,8.58,4.72,16.97,9.79,25.62,14.39,7.1,3.78,14.43,7.13,21.71,10.58,7.16,3.4,14.48,6.46,21.51,10.09,5.01,2.58,7.42,6.83,7.25,12.87-.22,7.8.74,15.63.52,23.43-.49,17.76-1.39,35.51-2.13,53.27-.09,2.15-.36,4.3-.37,6.45-.12,21.3-2.43,56.99-2.81,78.28-.51,28.83-7.91,72.45-8.37,101.28-.35,22.11-8.95,39.93-9.1,62.04-.08,11.18-.62,22.35-.95,33.52h-4.04c.47-10.9,1.28-21.81,1.33-32.71.19-34.92,13.96-73.73,14.52-108.64.48-30.04,5.47-81.06,6.61-111.09.98-25.84,2.22-51.67,3-77.52.31-10.22-.36-20.46-.53-30.7-.06-3.57-1.41-6.06-4.81-7.61-10.63-4.83-21.39-9.45-31.73-14.85-13.32-6.96-26.29-14.61-39.42-21.96-3.38-1.89-6.78-3.76-9.99-5.54.26,5.16.8,10.41.72,15.66-.09,5.46-.4,10.98-1.3,16.36-1.98,11.81-5.56,23.65-2.72,35.57,2,8.42,6.04,16.34,9.1,24.51.43,1.14.52,2.42.77,3.63-1.5.29-3,.84-4.48.79-.95-.03-2.16-.73-2.76-1.5-4.01-5.18-8.55-10.12-11.62-15.83-2.55-4.75-3.24-10.47-4.88-15.73-1.67-5.37-3.04-10.85-7.99-14.55-2.39-1.79-4.01-1.77-6.39-.08-3.76,2.65-5.72,5.63-5.11,10.55.54,4.38-.2,8.89.04,13.33.49,9.3-2.29,17.38-7.7,24.92-7.71,10.72-12.47,22.85-15.83,35.6-3.71,14.04-7.69,28.01-11.6,42-.41,1.46-1.32,3.75-2.01,5.09-4.07,7.88-5.4,16.47-5.61,25.14-.34,13.86.44,27.76-.12,41.6-.75,18.51.9,36.83,2.43,55.23,2.05,24.57,3.46,96.08,5.09,120.68.21,3.23.41,6.45.62,9.68h-2.42Zm-12-714.21c-2.2,2.45-5.16,5.67-8.03,8.97-2.29,2.63-6.01,2.66-5.88.08.29-5.54-4.94-6.46-7.19-9.97-.04,3.22.58,6.29.79,9.39.07,1.1-.86,2.26-1.34,3.4-1-.49-2.23-.77-2.98-1.52-3.82-3.83-7.52-7.79-11.25-11.7-.36,1.91.24,3.29.3,4.7.07,1.69-.31,3.4-.49,5.11-1.81-.55-3.92-.69-5.37-1.74-3.23-2.33-6.12-5.12-9.27-7.81-4.62,3.75-1.13-.97-5.07-1.98-.69,2.03-.11,2.65-.73,4.24-1.79,4.63-.32,9.61,1.7,14.17,1.36,3.08-.63,6.24.71,9.33,6.65,15.42,1.54,31.32-4.76,47.32-1.68,4.28-3,10.14-1.41,14.01,5.16,12.53,11.81,24.44,17.74,36.67,1.38,2.85,2.94,5.92,3.14,8.97.58,8.58.51,12.08.68,20.69.08,3.81.18,7.57,3.41,10.37,4.26,3.69,8.45,7.48,12.71,11.17,2.08,1.8,4.43,3.32,6.37,5.25,3.98,3.97,7.51,6.94,11.68,10.67,5.24,4.69,11.51,4.82,16.81.15,3.58-3.15,6.27-5.84,9.45-9.47,2-2.29,3.97-4.67,6.28-6.63,8.07-6.85,14.39-14.23,12.99-26.07-.75-6.32-.19-7.74.43-14.12.76-7.75,2.19-15.43,3.39-23.12.18-1.17.56-2.36,1.08-3.43,2.49-5.16,5.1-10.26,7.6-15.41,4.73-9.76,4.74-20.11,2.94-30.4-1.81-10.33-4.09-20.73-.79-30.67,1.47-4.42.57-10.99.85-15.62.21-3.5-1.74-6.2-2.91-9.57-2.47-7.16.05-6.85-6.54-3.1-1.5.85-3.24,1.27-5.31,2.05.91-7.04,6.5-12.61,1.28-18.92-.49,1.38-.78,2.82-.6,4.2.55,4.15-.97,7.58-4.16,9.86-3.44,2.46-7.4,4.2-11.04,6.39-1.28.77-2.41,1.87-3.42,2.99-.8.88-1.32,2.01-1.97,3.03-.96-1.17-2.11-2.23-2.81-3.54-.47-.88-.52-2.14-.36-3.17.58-3.86,1.32-7.7,2.03-11.74-4.04,4.1-3.95,9.22-3.86,14.29.08,4.38-1.7,5.83-5.17,3.23-4.16-3.11-7.64-7.14-11.64-10.97Zm-17.61,180.65c1.24,18.07,2.61,18.34,3.46,35.51.19,3.87-.71,8.2-2.4,11.68-4.16,8.57-8.94,16.84-13.71,25.1-7.5,13-16.38,24.96-27.21,35.39-1.85,1.78-2.26,3.26-.85,5.58,3.56,5.86,6.85,11.88,10.34,17.78.66,1.12,1.69,2.09,2.73,2.91,10.44,8.21,15.78,18.69,14.62,32.2-.12,1.39.3,2.96.88,4.25,5.55,12.25,11.63,24.28,16.69,36.73,6.22,15.31,11.64,30.95,17.34,46.48,2.29,6.24,4.38,12.55,6.9,19.77,4.19-14.15,8.23-26.96,11.74-39.92,3.52-12.99,8.31-25.39,16.2-36.32,5.46-7.57,7.92-15.74,7.32-25.02-.25-3.89.15-7.82.02-11.73-.43-13.6,2.91-25.37,14.02-34.49,6.42-5.27,6.43-11.62.15-18.14-1.3-1.35-2.31-2.98-3.51-4.43-8.75-10.56-17.3-21.28-26.33-31.59-5.91-6.75-9.99-14.47-10.45-23.12-1.12-21.06.42-25.16,5.49-45.74.19-.76.02-1.61.02-3.27-2.07,2.23-3.56,3.67-4.86,5.27-2.02,2.48-3.63,3.92-5.93,6.09-5.22,4.89-16.09,7.03-22.07-1.16-2.98-4.07-6.92-5.97-10.58-9.82Zm-22.66,143.34c.34-.62.68-1.24,1.02-1.86-2.03-1.51-4.12-2.93-6.06-4.54-3.15-2.61-6.6-5.02-9.18-8.13-2.81-3.38-5.19-7.27-7.02-11.28-5.9-12.89-6.11-17.48,2.58-27.39,7.61-8.66,16.24-16.01,25.42-22.89,4.91-3.68,8.39-8.83,11.19-15.58-4.51,3.62-8.35,6.4-11.83,9.57-12.6,11.49-25.27,22.92-37.54,34.76-6.85,6.61-7.99,17.31-4.36,25.91,6.39,15.13,5.54,29.96-3.2,44-2.87,4.61-6.45,8.76-9.29,12.58,1.22,1.76,2.3,3.33,3.86,5.59,5.98-5.43,12.59-10.88,18.5-16.99,3.6-3.72,6.28-8.39,9.14-12.78,3.97-6.11,8.51-11.2,16.77-10.98Zm92.49-4.18c6.32-.9,9.24,3.28,11.31,7.36,3.69,7.28,6.89,14.86,9.69,22.53,1.39,3.81,2.62,6.56,7.63,5.37-4.25-13.26-1.61-26.48,1.32-39.41,2.07-9.15,2.17-18.12,1.62-27.26-.36-5.92-2.9-10.55-8.57-13.1-1.46-.66-2.85-1.53-4.14-2.48-11.76-8.75-23.5-17.52-35.2-26.35-2.23-1.68-4.23-3.67-6.34-5.52-.28.31-.56.62-.85.92,3.75,3.96,7.21,8.26,11.31,11.82,10.53,9.16,18.38,20.29,24.68,32.57,5.56,10.83,4.47,16.44-4.47,24.62-2.93,2.68-5.33,5.93-7.97,8.91Zm6.97-258.45c3.42,0,6.74-.43,9.9.11,4.09.69,5.16,5.36,2.17,8.29-1.39,1.36-2.8,2.68-4.21,4.02.13-1.92,1.19-3.37,1.93-4.97.59-1.29.78-2.76,1.15-4.15-2.48-.36-5.11-1.38-7.4-.87-1.67.37-2.89,2.76-4.31,4.25.27.25.54.5.81.76,1.12-.32,2.24-.63,4.05-1.15-1.73,2.79-3.04,4.9-4.35,7.01.15.08.31.17.46.25,1.67-1.8,3.34-3.6,5-5.41.24.24.47.48.71.72-2.3,3.81-4.6,7.61-6.9,11.42.3.18.61.35.91.53,1.57-2.01,3.13-4.02,4.7-6.03.27.19.55.37.82.56-.29.68-.5,1.41-.88,2.05-1.95,3.28-4.23,6.39-5.85,9.82-2.23,4.73-4.12,9.64-5.82,14.59-.36,1.04.73,3.69,1.2,3.7,2.59.07,6.39.52,7.56-.95,3.86-4.84,8.44-10.09,9.68-15.85,2.07-9.59,3.93-18.97,9.83-26.99,3.59-4.87,1.16-9.21-.89-13.53-.42-.88-2.14-1.5-3.31-1.6-5.15-.41-14.86,6.18-16.54,11.11-.33.96-.37,2.02-.42,2.31Zm-120.92,12.72c1.97-3.44,1.42-6.28-.73-8.91-2.89-3.54-5.81-7.04-8.72-10.56-2.96-3.58-6.81-3.44-9.05.65-4.14,7.57-4.36,15.39-.72,23.26,2.48,5.36,5,10.7,7.53,16.03.39.82.83,1.71,1.48,2.31,3.91,3.66,7.86,7.28,11.85,10.85,2.17,1.94,4.43,3.84,8.12,2.69-2.85-6.52-5.42-12.85-8.39-18.99-1.08-2.22-3-4.11-4.81-5.87-.59-.58-2.02-.3-3.83-.49-5.64-6.22-6.74-9.51-3.76-12.53,3.41-3.45,6.44-3.07,11.02,1.55Zm-24.32-7.73c1.15-3.59,2.06-7.38,3.56-10.92,2.54-6,9.87-6.94,13.12-1.63,2.88,4.71,6.86,8.74,10.44,13.17,2.79-5.54,2.37-9.61-1.62-13.51-3.06-2.99-6.27-5.87-9.74-8.34-1.16-.83-3.62-.84-4.98-.18-7.13,3.43-11.99,13.49-10.77,21.43Zm18.22,9.95l1.06-.96c1.32.95,2.64,1.91,3.96,2.86-.2-1.5-.65-2.68-1.5-3.4-1.19-1.01-3.13-2.65-3.93-2.27-1.55.73-3.38,2.6-3.51,4.14-.13,1.58,1.24,3.84,2.64,4.86,1.4,1.02,3.65.89,6.31,1.42-1.95-2.57-3.49-4.61-5.03-6.65Zm157.38,299.56c-2.37-5.45-4.27-9.81-6.32-14.53-1.38.88-2.43,1.55-3.93,2.51,3.68,3.54,4.34,9.08,10.25,12.02Zm-184.18-11.53c-2.62,3.21-5.11,6.26-7.6,9.31.4.42.81.84,1.21,1.26,2.94-1.88,5.88-3.76,8.73-5.57-.84-1.78-1.48-3.15-2.34-5Z"/><path class="cls-10" d="m89.15,779.54c-2.86-20.45-6.51-75.12-6.82-95.78-.24-16.54-2.44-33.04-3.62-49.57-.82-11.55-1.33-23.13-2.09-34.68-1.01-15.31-1.65-30.67-3.31-45.91-1.97-18.05-4.63-36.04-7.45-53.98-1.61-10.23-5.53-19.86-8.64-29.71-3.92-12.39-10.99-22.27-18.54-32.14-1.65-2.16-4.6-3.32-6.96-4.94-1.46-1-2.93-2-4.14-3.49,4.34-.73,7.78.98,10.59,3.9,2.79,2.91,5.39,6.02,7.86,9.2,8.92,11.47,14.42,24.45,18.29,38.48,6.33,22.97,9.91,46.33,12.01,69.95,1.04,11.66,1.22,23.4,2.01,35.09,1.16,17.33,2.61,34.63,3.75,51.96,1.34,20.56,2.24,41.15,3.79,61.69,1.15,15.29,3.99,65.53,5.55,80.79-1.35,0-.93-.88-2.28-.88Z"/><path class="cls-10" d="m282.91,782.62c4.26-35.97,27.85-109.07,30.77-145.15,2.58-31.93,2.27-64.08.69-96.15-.79-16-.98-32.03-1.21-48.06-.15-10.4,3.1-20.19,6.2-29.94,3.5-11.02,7.16-22,11-32.9,2.78-7.88,7.03-14.95,12.85-20.94.32.17.64.33.97.5-.7,1.46-1.23,3.03-2.11,4.38-7.18,11-12.59,22.78-16.04,35.48-1.69,6.23-3.64,12.4-5.74,18.49-4.65,13.46-5.93,27.28-5.05,41.43,2.3,36.99,4.76,73.99,2.12,111.05-1.87,26.33-3.9,52.65-6.34,78.94-1.42,15.27-22.11,67.66-24.06,82.88h-4.04Z"/><path class="cls-10" d="m210.43,703.95c-3.57,2.01-6.56,4.19-9.9,5.21-.84.26-3.06-3.05-4.09-5.02-.24-.46,1.69-2.28,2.83-3.2,4.69-3.76,7.33.47,11.16,3Z"/><path class="cls-10" d="m193.79,659.36c-.64-.64-2.84-1.86-2.82-3.04.04-1.82,1.24-4.05,2.67-5.21.72-.58,3.07.72,4.61,1.35,1.14.47,2.17,1.23,3.24,1.88.9.55,1.79,1.13,2.68,1.7-.8.59-1.52,1.46-2.41,1.7-2.26.62-4.59.95-7.97,1.61Z"/><path class="cls-10" d="m200.72,565.77c-2.17,1.54-4.58,3.54-7.29,5.01-.87.47-3.54-.3-3.62-.79-.35-2.17-.58-4.67.23-6.59.38-.91,3.37-1.41,4.86-.99,2.11.6,3.94,2.23,5.82,3.37Z"/><path class="cls-10" d="m202.35,607.89c-.59.54-2.08,2.15-2.25,2.02-3.28-2.49-7.22,3.52-9.94-.66-.75-1.16-.47-4.02.47-4.97.92-.93,3.47-.97,4.98-.44,2.17.76,4.04,2.37,6.74,4.06Z"/><path class="cls-10" d="m198.85,536.55c1.45-4.33,2.89-8.66,4.34-12.99,2.05,3.44-.17,10.96-2.97,13.39-.45-.13-.91-.27-1.36-.4Z"/><path class="cls-10" d="m210.56,498.87c-.88,4.27-1.76,8.53-2.64,12.8-.58-.13-1.17-.27-1.75-.4-1.06-4.73,1.33-8.68,2.88-12.81.5.14,1.01.28,1.51.42Z"/><path class="cls-10" d="m197.09,546.57c1.62,2.66.34,5.39-.44,8.03-.11.38-1.5.77-2.01.53-.52-.24-1.06-1.34-.93-1.91.52-2.28,1.3-4.51,1.98-6.75.47.03.93.07,1.4.1Z"/><path class="cls-10" d="m211.93,493.27c.63-3.31,1.27-6.62,1.9-9.94.68.12,1.37.24,2.05.35-.5,3.34-1.01,6.68-1.51,10.02-.82-.14-1.63-.29-2.45-.43Z"/><path class="cls-10" d="m224.08,468.74c-1.61,2.65-3.21,5.3-5.12,8.46-1.41-3.61-.15-5.86,4.18-9.06.31.2.63.4.94.6Z"/><path class="cls-10" d="m191.87,580.18c.21,3.3.41,6.61.64,10.35-3.23-1.93-3.52-5.78-.64-10.35Z"/><path class="cls-15" d="m181.1,78.09c3.99,3.84,7.48,7.86,11.64,10.97,3.47,2.6,5.25,1.15,5.17-3.23-.09-5.07-.18-10.19,3.86-14.29-.71,4.04-1.45,7.88-2.03,11.74-.15,1.03-.1,2.29.36,3.17.7,1.31,1.85,2.37,2.81,3.54.65-1.02,1.17-2.15,1.97-3.03,1.02-1.12,2.14-2.22,3.42-2.99,3.65-2.19,7.6-3.93,11.04-6.39,3.19-2.28,4.7-5.71,4.16-9.86-.18-1.38.11-2.82.6-4.2,5.23,6.31-.37,11.88-1.28,18.92,2.07-.78,3.21-3.31,4.71-4.16,6.59-3.76,10.77-2.66,9.68,5.57-.47,3.53,1.92,7.76,1.71,11.26-.28,4.63-.48,8.12-.73,14.53-.85,11.51-2.47,19.37-.66,29.7,1.8,10.3,1.79,20.64-2.94,30.4-2.51,5.18-5.14,10.31-7.65,15.5-.51,1.06-.85,2.18-1.03,3.34-1.2,7.7-2.63,15.38-3.39,23.12-.62,6.38-1.18,7.8-.43,14.12,1.41,11.84-4.92,19.22-12.99,26.07-2.31,1.96-4.28,4.34-6.28,6.63-3.17,3.63-5.87,6.32-9.45,9.47-5.3,4.67-11.57,4.54-16.81-.15-4.17-3.73-7.71-6.7-11.68-10.67-1.94-1.94-4.29-3.45-6.37-5.25-4.26-3.69-8.45-7.48-12.71-11.17-3.23-2.8-3.33-6.56-3.41-10.37-.17-8.61-.1-12.11-.68-20.69-.21-3.05-1.76-6.12-3.14-8.97-5.93-12.22-12.58-24.13-17.74-36.67-1.59-3.87-.28-9.73,1.41-14.01,6.3-16,6.32-30.56-.33-45.99.36-5.21,2.25-10.03,1.84-19.38-.12-2.69.43-5.62.26-7.75-.19-2.35,2.8-4.32,4.2-2.42s-.35,4.53,2.19,2.47c3.14,2.69,6.04,5.48,9.27,7.81,1.45,1.05,3.56,1.19,5.37,1.74.18-1.7.56-3.42.49-5.11-.06-1.4-.66-2.78-.3-4.7,3.74,3.91,7.44,7.87,11.25,11.7.75.75,1.97,1.02,2.98,1.52.48-1.13,1.41-2.3,1.34-3.4-.21-3.1-.83-6.17-.79-9.39,2.25,3.51,7.48,4.43,7.19,9.97-.13,2.57,3.58,2.55,5.88-.08,2.87-3.3,5.83-6.52,8.03-8.97Zm-19.36,103.14c.47,5.1.51,4.97,4.06,6.13,1.58.52,3.36,1.34,4.36,2.58,3.31,4.08,7.62,4.97,11.97,3.14,6.11-2.57,11.87-6,18.84-9.61-2.55-.6-3.88-.91-5.44-1.28-2.6-24.75-12.24-48.35-10.22-74.58-1.39,1.12-1.74,1.26-1.76,1.44-.16,1.06-.25,2.13-.35,3.19-1.18,12.79.94,25.23,3.67,37.65,2.14,9.72,3.99,19.5,5.91,29.26.81,4.11-1.07,7.5-4.39,9.19-4.44,2.25-9.24,4.86-14.5,1.98-.78-.42-1.51-1.25-1.86-2.07-1.9-4.38-6.21-4.78-10.3-7.02Zm9.89-11.54c3.93-16.99,2.36-34.18,1.51-51.35-.5,17.12-1.01,34.24-1.51,51.35Zm-9.51,3.38c-3.25.17-6.3.47-6.43,5.03-.23,8.23.47,10.23,4.41,10.74-4.49-5.93-3.62-12.28,2.02-15.77Zm39.6-2.79c.3,6.14.56,11.33.83,16.61,2.17-2.24,1.96-12.72-.83-16.61Z"/><path class="cls-5" d="m163.49,258.74c3.66,3.85,7.6,5.75,10.58,9.82,5.98,8.19,16.85,6.05,22.07,1.16,2.31-2.16,3.91-3.6,5.93-6.09,1.3-1.6,2.8-3.05,4.86-5.27,0,1.67.16,2.51-.02,3.27-5.08,20.59-6.61,24.68-5.49,45.74.46,8.64,4.55,16.37,10.45,23.12,9.03,10.31,17.59,21.03,26.33,31.59,1.2,1.45,2.21,3.08,3.51,4.43,6.29,6.52,6.28,12.87-.15,18.14-11.11,9.12-14.45,20.89-14.02,34.49.12,3.91-.27,7.83-.02,11.73.6,9.27-1.86,17.44-7.32,25.02-7.89,10.94-12.68,23.33-16.2,36.32-3.51,12.96-7.56,25.78-11.74,39.92-2.51-7.23-4.61-13.54-6.9-19.77-5.69-15.52-11.12-31.16-17.34-46.48-5.06-12.45-11.14-24.48-16.69-36.73-.59-1.3-1-2.86-.88-4.25,1.16-13.52-4.18-23.99-14.62-32.2-1.04-.81-2.06-1.79-2.73-2.91-3.5-5.9-6.78-11.93-10.34-17.78-1.41-2.32-1-3.8.85-5.58,10.83-10.43,19.72-22.39,27.21-35.39,4.76-8.26,9.55-16.53,13.71-25.1,1.69-3.49,2.59-7.81,2.4-11.68-.84-17.17-2.21-17.44-3.46-35.51Zm31.26,203.35c-3.93,1.79-3.39,5.21-3.11,8.16.13,1.3,1.66,2.46,3.11,4.43v-12.59Zm-.94,40.25c.18-3.59.31-6.37.45-9.15.02-.4.29-.88.14-1.17-.34-.66-.78-1.58-1.35-1.71-.49-.12-1.43.56-1.77,1.12-1.6,2.61-.63,7.75,2.53,10.91Zm-11.23-34.58c-3.4,3.75-2.02,9.57,2.58,11.73-.84-3.81-1.67-7.61-2.58-11.73Zm20.78-26.61c-.39.18-.79.36-1.18.54-.74,2.2-1.49,4.41-2.23,6.61.22.24.44.48.67.71,1.29-1.22,3.05-2.23,3.72-3.73.46-1.03-.59-2.73-.97-4.13Zm7.53-3.18l-1.13.21c.45,2.42.89,4.84,1.53,8.3,2.54-3.97,1.62-6.32-.4-8.51Z"/><path class="cls-2" d="m140.83,402.08c-8.26-.22-12.8,4.87-16.77,10.98-2.86,4.4-5.54,9.06-9.14,12.78-5.92,6.11-12.52,11.56-18.5,16.99-1.57-2.27-2.65-3.83-3.86-5.59,2.85-3.82,6.42-7.98,9.29-12.58,8.74-14.04,9.59-28.87,3.2-44-3.63-8.6-2.49-19.3,4.36-25.91,12.27-11.84,24.94-23.27,37.54-34.76,3.48-3.17,7.33-5.95,11.83-9.57-2.81,6.74-6.29,11.9-11.19,15.58-9.19,6.88-17.82,14.22-25.42,22.89-8.69,9.9-8.49,14.49-2.58,27.39,1.83,4.01,4.21,7.9,7.02,11.28,2.58,3.11,6.03,5.51,9.18,8.13,1.94,1.61,4.04,3.03,6.06,4.54-.34.62-.68,1.24-1.02,1.86Z"/><path class="cls-3" d="m233.32,397.91c2.64-2.99,5.05-6.24,7.97-8.91,8.95-8.18,10.03-13.79,4.47-24.62-6.3-12.28-14.15-23.41-24.68-32.57-4.1-3.56-7.56-7.86-11.31-11.82.28-.31.56-.62.85-.92,2.11,1.85,4.11,3.84,6.34,5.52,11.7,8.83,23.44,17.6,35.2,26.35,1.29.96,2.68,1.83,4.14,2.48,5.67,2.55,8.21,7.18,8.57,13.1.55,9.14.45,18.11-1.62,27.26-2.92,12.93-5.57,26.15-1.32,39.41-5.01,1.18-6.25-1.56-7.63-5.37-2.79-7.68-5.99-15.25-9.69-22.53-2.07-4.08-4.98-8.26-11.31-7.36Z"/><path class="cls-20" d="m240.29,139.46c.05-.29.09-1.35.42-2.31,1.68-4.93,11.38-11.53,16.54-11.11,1.17.09,2.89.72,3.31,1.6,2.04,4.32,4.48,8.66.89,13.53-5.91,8.02-7.77,17.4-9.83,26.99-1.24,5.75-5.82,11-9.68,15.85-1.17,1.46-4.98,1.02-7.56.95-.47-.01-1.55-2.66-1.2-3.7,1.7-4.95,3.59-9.86,5.82-14.59,1.62-3.43,3.9-6.55,5.85-9.82.38-.63.59-1.36.88-2.05-.27-.19-.55-.37-.82-.56-1.57,2.01-3.13,4.02-4.7,6.03-.3-.18-.61-.35-.91-.53,2.3-3.81,4.6-7.61,6.9-11.42-.24-.24-.47-.48-.71-.72-1.67,1.8-3.34,3.6-5,5.41-.15-.08-.31-.17-.46-.25,1.31-2.11,2.62-4.21,4.35-7.01-1.81.51-2.93.83-4.05,1.15-.27-.25-.54-.5-.81-.76,1.42-1.49,2.64-3.88,4.31-4.25,2.29-.51,4.92.51,7.4.87-.37,1.39-.56,2.86-1.15,4.15-.73,1.6-1.79,3.05-1.93,4.97,1.4-1.34,2.82-2.66,4.21-4.02,2.99-2.93,1.92-7.6-2.17-8.29-3.16-.53-6.48-.11-9.9-.11Z"/><path class="cls-17" d="m119.37,152.18c-4.58-4.62-7.61-5-11.02-1.55-2.98,3.02-1.88,6.31,3.76,12.53,1.81.19,3.24-.09,3.83.49,1.8,1.77,3.73,3.65,4.81,5.87,2.98,6.14,5.55,12.47,8.39,18.99-3.69,1.15-5.94-.75-8.12-2.69-3.99-3.57-7.94-7.19-11.85-10.85-.65-.61-1.09-1.49-1.48-2.31-2.53-5.33-5.05-10.67-7.53-16.03-3.64-7.86-3.43-15.69.72-23.26,2.24-4.08,6.09-4.22,9.05-.65,2.91,3.52,5.83,7.02,8.72,10.56,2.15,2.63,2.69,5.47.73,8.91Zm-3.69,13.91c-.51.26-1.02.52-1.53.78,1.87,2.79,3.74,5.58,5.6,8.36.51-.35,1.02-.7,1.53-1.04-1.87-2.7-3.73-5.4-5.6-8.1Z"/><path class="cls-7" d="m95.05,144.45c-1.22-7.94,3.64-18,10.77-21.43,1.37-.66,3.82-.64,4.98.18,3.47,2.47,6.69,5.35,9.74,8.34,3.99,3.9,4.4,7.98,1.62,13.51-3.58-4.43-7.56-8.46-10.44-13.17-3.24-5.31-10.58-4.37-13.12,1.63-1.5,3.54-2.41,7.33-3.56,10.92Z"/><path class="cls-8" d="m262.49,117.65c1.03,5.21,2.07,10.42,3.1,15.62-.27.1-.55.2-.82.3-.35-.96-.72-1.91-1.05-2.88-2.28-6.81-6.71-8.52-13.14-5.03-2.46,1.33-4.89,2.71-7.6,4.21,2.89-7.32,11.77-16.6,19.64-12.09,0,0-.14-.14-.14-.14Z"/><path class="cls-6" d="m113.27,154.4c1.54,2.04,3.08,4.07,5.03,6.65-2.66-.53-4.91-.4-6.31-1.42-1.4-1.02-2.78-3.27-2.64-4.86.13-1.54,1.96-3.41,3.51-4.14.8-.38,2.74,1.26,3.93,2.27.85.72,1.31,1.9,1.5,3.4-1.32-.95-2.64-1.91-3.96-2.86l-1.06.96Z"/><path class="cls-9" d="m270.64,453.96c-5.91-2.94-6.57-8.47-10.25-12.02,1.5-.96,2.55-1.63,3.93-2.51,2.05,4.72,3.95,9.08,6.32,14.53Z"/><path class="cls-1" d="m86.46,442.44c.86,1.84,1.51,3.21,2.34,5-2.85,1.82-5.79,3.7-8.73,5.57-.4-.42-.81-.84-1.21-1.26,2.49-3.05,4.97-6.1,7.6-9.31Z"/><path class="cls-10" d="m161.75,181.24c4.08,2.24,8.39,2.64,10.3,7.02.35.82,1.09,1.65,1.86,2.07,5.26,2.87,10.06.26,14.5-1.98,3.33-1.68,5.21-5.07,4.39-9.19-1.92-9.76-3.78-19.54-5.91-29.26-2.73-12.42-4.85-24.86-3.67-37.65.1-1.07.19-2.14.35-3.19.03-.18.37-.32,1.76-1.44-2.02,26.24,7.61,49.83,10.22,74.58,1.57.37,2.89.68,5.44,1.28-6.97,3.61-12.73,7.04-18.84,9.61-4.35,1.83-8.66.94-11.97-3.14-1.01-1.24-2.78-2.06-4.36-2.58-3.55-1.16-3.59-1.03-4.06-6.13Z"/><path class="cls-10" d="m149.18,207.25c0,1.85-.43,2.22,2.12,3.63,6.96,2.27,13.69,5.82,20.95,3.96,2.21-.57,4.91-.21,7.14.5,2.51.79,4.4,1.46,6.31-1.14.59-.8,2.49-1.07,3.71-.92,8.83,1.12,17.64-.52,26.45.72.69-1.09-1.25-7.02.05-6.86.17.48.72,6.75.73,7.22,0,0,0,0,0,.01,0,.78-.74,1.35-1.52,1.31-7.89-.43-15.62,1.59-23.36.98-.77-.06-1.76,0-2.32.44-4.39,3.4-9.06,2.81-14.12,1.81-7.83-1.54-14.31-4.67-22.23-5.72-.85-.11-2.07-.31-2.94-.57-5.28-1.57-3.95-1.81-3.94-1.88,2.24-10.78,7.99-10.48,4.3-7.51-1.24,1.08-1.39,2.66-1.33,4Z"/><path class="cls-10" d="m171.64,169.7c.5-17.12,1.01-34.24,1.51-51.35.85,17.17,2.42,34.37-1.51,51.35Z"/><path class="cls-10" d="m162.13,173.08c-5.63,3.49-6.51,9.83-2.02,15.77-3.94-.51-4.64-2.51-4.41-10.74.13-4.56,3.18-4.86,6.43-5.03Z"/><path class="cls-10" d="m201.73,170.3c2.79,3.89,2.99,14.38.83,16.61-.26-5.28-.52-10.47-.83-16.61Z"/><path class="cls-10" d="m194.75,462.09v12.59c-1.45-1.97-2.98-3.14-3.11-4.43-.29-2.95-.82-6.37,3.11-8.16Z"/><path class="cls-10" d="m193.81,502.34c-3.15-3.16-4.12-8.3-2.53-10.91.35-.57,1.29-1.24,1.77-1.12.57.14,1.01,1.05,1.35,1.71.15.29-.12.77-.14,1.17-.15,2.78-.28,5.55-.45,9.15Z"/><path class="cls-10" d="m182.58,467.76c.9,4.11,1.74,7.91,2.58,11.73-4.6-2.15-5.98-7.98-2.58-11.73Z"/><path class="cls-10" d="m203.37,441.15c.38,1.4,1.43,3.11.97,4.13-.67,1.5-2.43,2.51-3.72,3.73-.22-.24-.44-.48-.67-.71.74-2.2,1.49-4.41,2.23-6.61.39-.18.79-.36,1.18-.54Z"/><path class="cls-10" d="m210.9,437.97c2.01,2.19,2.94,4.54.4,8.51-.64-3.45-1.08-5.87-1.53-8.3l1.13-.21Z"/><path class="cls-10" d="m115.68,166.09c1.87,2.7,3.73,5.4,5.6,8.1-.51.35-1.02.7-1.53,1.04-1.87-2.79-3.74-5.58-5.6-8.36.51-.26,1.02-.52,1.53-.78Z"/></g><g id="fond-yeux"><ellipse class="cls-11" cx="152.12" cy="125.36" rx="19.49" ry="17.5"/><ellipse class="cls-11" cx="214.26" cy="120.49" rx="19.49" ry="17.5"/></g><g id="pupilles"><circle class="cls-10" cx="150.99" cy="126.79" r="9"/><circle class="cls-12" cx="151.08" cy="126.08" r="2.58"/><circle class="cls-10" cx="214.76" cy="121.54" r="9"/><circle class="cls-12" cx="214.85" cy="120.82" r="2.58"/></g><g id="casch_yeux"><path class="cls-10" d="m227.42,104.19c9.52,7.85,10.17,20.73,1.51,28.88-7.38,6.95-19.74,5.94-26.4,2.21-9.33-5.23-11.35-12.03-7.58-22.18.41-1.1-.11-5.75,9.45-8.65-2.22,0-11.43,5.81-13.75,5.81-.14-3.1-1.23-6.95-1.12-9.95.03-.85,1.06-2.08,1.92-2.42,10.82-4.28,21.85-10.04,32.67-14.33,4.08-1.62,7.47-1.47,10.19,2.36,4.44,6.25,8.86,14.09,13.16,20.44.6.88-.01,2.57-.06,3.88-1.06-.6-2.18-1.11-3.17-1.82-3.68-2.62-8.35-13.97-12.75-14.67-5.57-.89-27.82,10.88-26.99,10.68,13.22-3.21,21.26-1.6,22.92-.23Zm5.16,14.63c-10.61-2.36-26.05-1.94-34.32-.92-3.06.38-1.18,3.27.62,4.11,2.77,1.3,5.68,2.62,8.66,3.08,9.03,1.39,18.17,2.56,25.05-6.27Zm-36.05-4.94c12.18-1.49,23.77-2.33,35.26,1.21-.82-6.11-6.35-11.33-11.3-10.73-5,.6-9.98,1.43-14.99,1.88-4.81.43-7.25,3.3-8.97,7.65Zm3.58,13.52c3.04,7.3,8.19,10.28,16.01,9.29,7.75-.98,14.62-7.06,15.48-13.74-9.57,8.13-20.85,3.99-31.49,4.44Z"/><path class="cls-10" d="m201.66,138.76c4.94,3.21,9.91,6.22,16.68,4.87-4.64,3.21-13.58.56-16.68-4.87Z"/><path class="cls-10" d="m162.33,144.34c-3.66,4.82-9.02,6.64-14.65,5.2,4.51-1.6,9.83-3.49,14.65-5.2Z"/><path class="cls-4" d="m195.71,114.97c1.72-4.35,5.09-9.28,10.73-10.4s8.83-.99,15.61-.25c4.96.54,9.99,6.52,10.82,12.63-11.49-3.54-24.93-1.38-37.16-1.98Z"/><path class="cls-19" d="m200.1,127.4c10.64-.45,21.92,3.69,31.49-4.44-.86,6.68-7.73,12.75-15.48,13.74-7.82.99-12.96-2-16.01-9.29Z"/><path class="cls-10" d="m139.4,105.75c-2.67-.11-5.8-1.16-7.9-.13-4,1.97-7.39,5.15-11.07,7.77-.99.7-2.11,1.22-3.17,1.82-.05-1.31-.66-3-.06-3.88,4.3-6.34,8.86-12.51,13.29-18.76,2.72-3.83,6.11-3.97,10.19-2.36,10.82,4.29,21.71,8.37,32.53,12.65.86.34,1.89,1.57,1.92,2.42.12,3-.17,6.02-.31,9.13h-6.45c.54,1.46.94,2.56,1.35,3.67,3.76,10.15,1.75,16.95-7.58,22.18-6.66,3.73-19.02,4.74-26.4-2.21-8.66-8.15-9.23-22.8,1.51-28.88.88-.5,1.57-1.32,2.35-1.99-.07-.48-.14-.95-.2-1.43Zm17.74,24.32c2.98-.46,5.89-1.78,8.66-3.08,1.8-.84,3.66-3.56.62-4.11-7.21-1.3-24.13-1.96-34.32.92,6.87,8.84,16.02,7.66,25.05,6.27Zm2.03-18.86c-5.01-.45-9.99-1.27-14.99-1.88-4.95-.6-10.48,4.62-11.3,10.73,11.49-3.54,23.09-2.7,35.26-1.21-1.72-4.35-4.16-7.22-8.97-7.65Zm-26.09,16.73c.86,6.68,7.73,12.75,15.48,13.74,7.82.99,12.96-2,16.01-9.29-10.64-.45-21.92,3.69-31.49-4.44Z"/><path class="cls-16" d="m169.62,121.17c-1.72-4.35-5.2-11.56-13.38-12.55-5-.61-8.59-.39-14.12.66-4.9.93-8.41,4.68-9.23,10.79,11.49-3.54,24.55-.39,36.73,1.1Z"/><path class="cls-18" d="m164.57,132.38c-10.64-.45-21.92,3.69-31.49-4.44.86,6.68,7.73,12.75,15.48,13.74,7.82.99,12.96-2,16.01-9.29Z"/></g></svg>