<?xml version="1.0" encoding="UTF-8"?><svg id="smilingvilain" xmlns="http://www.w3.org/2000/svg" xmlns:xlink="http://www.w3.org/1999/xlink" viewBox="0 0 574 813.33"><defs><style>.cls-1{fill:url(#Dégradé_sans_nom_2);}.cls-1,.cls-2,.cls-3,.cls-4{stroke-width:0px;}.cls-2{fill:url(#Dégradé_sans_nom_2-2);}.cls-4{fill:#beaa9a;}</style><linearGradient id="Dégradé_sans_nom_2" x1="73.58" y1="221.95" x2="480.65" y2="599.12" gradientUnits="userSpaceOnUse"><stop offset="0" stop-color="#beaa9a"/><stop offset="1" stop-color="#f01048"/></linearGradient><linearGradient id="Dégradé_sans_nom_2-2" x1="283.85" y1="812.75" x2="408.78" y2="432.84" xlink:href="#Dégradé_sans_nom_2"/></defs><path class="cls-1" d="m207.59,155.91s8.18-16.36,7.55-35.87c-.63-19.51-3.15-40.27-.63-44.68s5.03-10.7,5.03-10.7c0,0-16.36,8.18-13.84,5.66s0-10.07,4.4-13.21,4.4-8.81,8.81-8.18,9.44,1.26,11.96,1.89,3.15,1.89,6.92.63c3.78-1.26,6.29.63,8.81,0s3.15-2.52,3.15-8.81,5.66-11.33,16.36-10.07c10.7,1.26,17.62,2.52,25.17.63s31.46-13.21,35.87-12.59,17.62-1.26,21.4-.63,8.18,3.78,8.18,5.66,3.78,1.89,3.78,1.89c0,0,5.66,2.52,6.92-3.15,1.26-5.66,3.78-13.21,3.78-13.21,0,0,3.78-1.26,5.03,5.66,1.26,6.92,1.26,11.96-.63,15.73-1.89,3.78-2.52,8.81-2.52,8.81l3.15,1.89,18.88-8.18s-2.52,1.26-5.66,6.29-8.81,9.44-8.81,9.44c0,0,8.18-6.29,14.47-6.29s8.81-2.52,15.1-4.4,10.7-6.29,14.47-6.92,6.92-4.4,6.29-1.26c-.63,3.15,1.26,8.81-1.26,15.73-2.52,6.92-8.18,13.21-12.59,18.25-4.4,5.03-8.81,9.44-8.81,9.44,0,0,10.07,5.03,12.59,10.07,2.52,5.03,7.55,9.44,8.81,16.36s3.15,10.07,3.15,10.07l-12.59-12.59,2.52,14.47s-2.52,10.07-3.78,12.59-3.78,7.55-6.92,16.99c-3.15,9.44-13.21,27.69-12.59,30.83s1.89,8.18,1.89,8.18c0,0,1.89-.63,6.29,5.03,4.4,5.66,7.55,9.44,6.92,13.84s-.63,10.7-3.78,13.84-6.92,5.66-8.81,7.55c-1.89,1.89-8.81,21.4-11.96,29.58-3.15,8.18-13.21,28.32-16.99,37.13-3.78,8.81-12.59,31.46-17.62,33.98-5.03,2.52-27.69,15.1-33.35,15.73,0,0,3.78,5.03,5.66,6.92s23.28,22.65,27.06,23.91c3.78,1.26,7.55,1.89,15.73,5.66,8.18,3.78,15.73,11.96,20.14,12.59,4.4.63,20.14,17.62,23.28,23.28,3.15,5.66,44.68,69.85,45.94,73.63,1.26,3.78,10.07,23.91,10.07,23.91l15.73-28.32s23.28-8.18,28.32-8.18,10.07,2.52,11.96,4.4,4.4,5.66,8.18,6.29,8.81,8.81,9.44,11.33,4.4,6.29,8.18,8.18,1.26,2.52,3.78,6.29c2.52,3.78,5.03,3.15,5.66,8.18.63,5.03-2.52,5.66-1.26,11.96,1.26,6.29,1.26,12.59-3.15,18.25-4.4,5.66-11.33,15.1-16.99,20.14-5.66,5.03-10.07,8.18-10.07,8.18,0,0,1.89,32.09,1.89,41.53s-2.52,26.43-5.03,33.98c-2.52,7.55-8.81,18.25-14.47,24.54s-12.59,18.88-16.99,16.99-15.1-6.92-22.02-10.7c-6.92-3.78-9.44-9.44-9.44-9.44,0,0-20.9,90.87-24.79,92.52-162.3,69.17-287.89,5.78-281.66,9.86,2.35,1.54,14.46-38.82,14.46-38.82,0,0-1.89-10.07-.63-18.88s-3.78-16.99-3.15-26.43-5.03-31.46-5.03-31.46c0,0-25.17,13.84-28.32,15.1-3.15,1.26-61.04,25.17-69.85,25.8s-37.76,1.26-44.05-5.03c-6.29-6.29-11.33-39.64-8.81-52.23,2.52-12.59,12.59-83.06,18.88-90.62s22.65-54.75,28.95-62.3c6.29-7.55,12.59-46.57,20.77-49.08,8.18-2.52,37.13-49.08,50.34-55.38,13.21-6.29,23.91-14.47,33.35-20.14s11.33-3.15,21.4-9.44c10.07-6.29,20.77-15.73,27.06-26.43,6.29-10.7,18.88-39.64,14.47-54.12s-10.7-35.87-11.96-42.16c-1.26-6.29-1.89-11.96-7.55-13.84-5.66-1.89-23.91-15.1-23.91-21.4s-2.52-27.06,1.89-32.72,16.36-14.47,22.02-9.44"/><path class="cls-4" d="m290.43,153.62s-7.97,1.26-9.23,2.52-6.29,7.13-6.29,7.13c0,0,7.13,10.91,11.75,10.91s12.59,2.94,16.36,1.68c3.78-1.26,9.65-3.78,10.91-4.61s5.45-3.78,2.94-6.71c-2.52-2.94-5.03-8.81-10.49-9.65s-15.94-1.26-15.94-1.26Z"/><path class="cls-4" d="m357.55,164.11c-2.52,1.26-6.71,3.36-8.39,3.78s-4.2,4.2-2.1,7.55,9.23,5.45,12.17,7.97,5.03,1.26,10.49,1.26,9.23,0,10.07-1.68-2.1-7.97-3.78-9.23-5.45-9.23-10.49-8.81-7.97-.84-7.97-.84Z"/><path class="cls-4" d="m308.47,245.91c5.03.84,9.65,4.2,14.68,3.78s5.03.42,9.65.84,10.07,0,15.1.42,10.91-.84,5.87,2.1c-5.03,2.94-11.75,8.39-16.36,10.91s-3.78,7.13-11.33,5.87-15.52.42-19.72-1.26-6.29-5.03-12.17-6.29-8.39-5.03-8.39-7.55.42-6.29,4.61-6.29,7.55.42,10.49-.42,7.55-2.1,7.55-2.1Z"/><path class="cls-2" d="m435.95,488.17c-5.65.27-96.58-11.63-144.11,18.71,0,0-11.12,1.52-8.6,9.1s3.9,26.12,4.8,30.34c1.52,7.08,2.53,34.64,4.55,37.67,2.02,3.03,7.58,30.85,7.58,30.85,9.77,20.55,7.42,26.3,126.67,12.39,28.28-3.3,31.86-52.59,33.88-57.14s-1.01-24.78-3.03-34.39c-2.02-9.61-11.63-39.95-11.63-39.95,0,0,.51-8.09-10.11-7.58Z"/><path class="cls-3" d="m223.05,99.47c2.19-.36,4-2.54,7.52-1.1-7.52,4.57-8.92,12-11.34,19.13-1.67,4.92-.69,9.8-1.35,14.66-.79,5.85-3.31,11.02-4.41,16.67-.69,3.58,3.44,9.79,7.24,9.54,3.02-.19,5.54-1.1,8.68,1.25,2.58,1.93,5.83-.69,7.85-3.43,3.37-4.55,4.9-10.02,7.54-14.93,0,0,6.8-9.02,6.9-9.15-1.54-1.8-5.11.52-6.08-2.82,4.94,1.29,9.59-1.01,11.84-5.88,3.14-6.8,5.82-13.77,4.95-21.46-.42-3.72.86-6.47,3.81-8.51,4.5-3.12,6.17-7.65,6.08-12.81-.13-7.17,1.54-14.62-2.84-21.24-.48-.73-.59-1.67.26-2.21,1.21-.78,2.85-.78,3.82-.12,6.19,4.25,13.17,2.38,19.84,2.83,2.69.18,5.23-.14,7.33-1.73,1.09.76.45,1.28.17,1.83-2.62,5.15-2.53,5.3,3.15,5.87,7.17.72,13.52,4.03,20.19,6.35.9.31,1.66,1.14,3.06.51-.29-2.71-3.6-2.89-4.49-5.06,1.58-.74,2.85.42,3.57,1.16,7.6,7.82,17.78,7.05,27.21,7.78,12.05.94,24.21.62,36.26-.95,8.47-1.1,15.41-5.58,21.99-10.69.64-.5,1.47-1.09.71-1.96-.65-.75-1.48-.28-2.24.13-15.66,8.5-32.47,10.95-49.95,9.03-8.85-.97-17.96.22-26.57-3.1-2.42-.93-4.27-2.08-5.6-5.42,11.72,6.99,23.95,5.35,35.77,4.81,8.35-.38,16.8-.21,25.17-2.38,13.96-3.62,27.43-7.48,36.76-19.69,3.3-4.32,3.9-9.58,6.05-14.55-13.64,11.02-26.03,23.42-43.8,28.4-17.32,4.85-34.11,8.71-51.33.37,13.62,4.16,26.73,2.51,39.58-2.32-.02-.59-.04-1.19-.06-1.78-7.84,0-15.68.03-23.52-.01-4.29-.02-8.12-.42-9.41-5.87-.7-2.96-7.8-2.99-10.51-.22-1.22,1.24-2.13,2.78-3.2,4.2-1.8-.84-1.09-1.88-.52-2.88,3.12-5.44,9.54-7.01,15.22-4.22,6.3,3.1,17.19,2.21,23.86-3.04,8.45-6.64,17.19-12.72,27.53-16.12.94-.31,1.94-.47,2.92-.61,1.17-.17,2.57-.28,2.9,1.13.27,1.17-1.07,1.41-1.89,1.93-5.77,3.59-9.97,9.25-16.15,12.34-.75.37-1.98,1.06-1.09,2.26.58.78,1.57.5,2.23-.04,10.15-8.28,23.08-10.23,34.69-15.19,3.35-1.43,7.23-1.28,10.23-4,1.2-1.09,2.7-1.82,3.29-3.44.37-1.02.08-2.69,1.83-2.28,1.56.36,1.04,1.98.9,2.97-2.4,17.01-6.75,33.19-20.87,44.65-2.76,2.24-2.68,3.17.23,4.87,7.44,4.35,13.25,10.1,15.57,18.77,1.61,5.99,3.46,11.92,5.11,17.9.28,1.03.75,1.76,1.51,2.46.96.88,2.27,2,.87,3.27-1.18,1.06-2.64.24-3.52-.77-3.33-3.82-8.17-6.35-9.76-11.67-.3-.99-.85-2.24-2.36-2.12-1.01,1-.06,1.83.23,2.7,2.15,6.49,2.84,12.89-.72,19.19-4.71,8.32-7.43,17.66-12.25,25.83-4.5,7.64-6.02,15.9-7.93,24.2-.48,2.11-.42,3.36,2.46,4.18,6.56,1.86,11.48,9.22,11.6,16.15.12,6.93,1.71,15.21-5.07,19.19-8.68,5.09-9.11,13.93-11.48,21.36-3.99,12.51-9.78,24.01-15.47,35.67-4.87,9.98-11.21,19.11-14.55,30.05-2,6.56-8.4,11.65-11.96,17.89-5.83,10.21-15.35,15.26-25.53,19.38-2.49,1.01-2.27,1.85-1.51,3.44,3.82,7.95,10.72,12.85,17.56,17.87,4.86,3.57,9.98,4.58,15.76,3.11,3.3-.84,5.76,1.05,7.84,3.2,6.76,6.97,13.44,13.96,21.62,19.38,10.95,7.26,17.68,18.43,25.37,28.61,15.35,20.29,28.9,41.81,41.67,63.8,3.34,5.76,4.12,12.87,8.88,18.03.88.96.86,2.45-.45,2.95-1.49.58-3.24.9-4.44-.9-2.74-4.1-4.48-8.65-6.46-13.14-5.4-12.21-12.73-23.41-20-34.53-5.33-8.16-9.29-17.08-14.86-25.04-7.42-10.61-14.83-21.26-23.55-30.86-2.45-2.7-5.41-4.98-8.73-6.67-.33,4.08,3.04,6.16,4.96,8.97,6.76,9.96,11.5,21.01,17.3,31.49,1.66,3.01,3.43,5.98,4.87,9.09,1.37,2.98,2.81,5.1,6.72,4.11,2.82-.71,3.73,2.12,4.34,3.9,2.57,7.52,6.37,14.42,10.13,21.35,1.32,2.43,4.43,4.42,4.67,6.82.86,8.6,7.78,14.01,10.44,21.63,1.75,5,4.23,9.83,7.59,14.14,1.05,1.35,1.99,2.31,3.48,3.16,2.44,1.4,3.27,1.11,3.88-1.72,2.63-12.1,11.2-21.41,15.59-32.7.59-1.52,2.18-2.02,3.53-2.53,9.76-3.69,20.02-5.51,30.12-7.95,3.5-.85,6.04.77,7.21,3.62,1.35,3.27,3.6,4.3,6.71,4.74,5.56.8,10.66,3.68,12.73,8.42,2.48,5.69,4.44,10.98,10.5,13.86,1.08.51,1.16,3.28,1.58,5.04.43,1.8,1.02,3.2,2.71,4.45,4.16,3.07,5.34,10.8,2.58,15.49-.62,1.06-1.46,1.99-.74,3.12,4.65,7.26,1.16,13.79-2.27,19.9-5.83,10.39-12.98,19.76-24.16,25.09-1.87.89-2.79,2.06-2.67,4.21.2,3.47.05,6.95.95,10.38,3.84,14.55,3.24,29.45,1.13,43.97-2.2,15.14-7.21,29.56-17.42,41.86-4.08,4.92-6.79,11.18-10.85,16.28-5.28,6.63-8.66,7.53-14.72,4.29-7.41-3.96-15.06-7.36-20.98-13.58-.87-.92-1.71-2.08-3.29-2.13-3.86,6.62-3.28,14.38-5.42,21.45-2.76,9.11-5.01,18.38-7.71,27.51-1.35,4.57-1.82,9.36-3.98,13.75-1.15,2.34-8.1,29.29-10.52,29.21-1.81-.06-6.49,4.02-6.07,2.28,2.77-11.52,15.13-53.94,18.01-65.43,5.02-19.99,9.51-40.02,12.88-60.41,2.61-15.77,2.18-31.4,2.42-47.11.26-16.45-2.74-32.62-4.48-48.9-.85-7.91-1.51-15.77-3.12-23.61-2.11-10.28-6-19.79-10.29-29.22-1.43-3.14-3.14-6.15-4.76-9.2-1.94-3.64-4.9-5.09-8.61-3.02-4.75,2.65-9.73,1.62-14.7,1.71-6.79.12-13.61.24-20.37.82-15.09,1.31-30.21.63-45.31.75-11.97.1-23.45,1.02-34.91,5.69-12.13,4.94-25.13,7.73-36.65,14.38-2.76,1.59-4.83,2.7-1.59,5.97,2.67,2.7,3.53,6.29,3.17,10.14-.58,6.33,3.12,11.99,4.35,17.59,2.53,11.54.69,18.07-2.08,22.31-2.56,3.92-1.39,7.83-1.9,11.66-1.03,7.66-4.71,13.68-11.6,16.41-4.06,1.61-3.41,4.15-2.46,5.92,5.64,10.53,5.91,22.11,7.51,33.5,2.14,15.14,3.17,30.29,3.3,45.6.12,13.89-2.89,27.28-4.38,40.91-1.35,12.36-4.67,24.25-8.39,36.03-1.24,3.92-7.4,5.89-10.82,3.82-2.09-1.26-.66-2.96-.29-4.4,1.45-5.57,3.15-11.08,4.53-16.67,6.39-25.86,9.8-52.06,8.36-78.73-.53-9.79-.99-19.56-.71-29.35.07-2.26-.53-3.33-3.04-3.26-9.69.28-18.75-4.06-28.42-3.96-1.08.01-2.25-.41-2.26-1.45-.01-1.66,1.58-2.21,2.84-2.08,4.43.44,8.88.87,13.23,1.79,4.71,1,9.33,2.22,14.2,2.38,2.35.07,3.18-.44,3.42-2.87.77-7.9-2.13-15.42-2.12-23.23,0-2.1-1.76-2.05-3.32-1.94-2.69.18-5.21-.39-7.78-1.25-4.4-1.47-8.63-2.82-7.69-10.14-6.3,7.04-10.3,13.9-11.63,21.66-2.49,14.51-11.62,21.91-25.05,24.76-4.57.97-7.78,3.49-10.96,6.24-9.99,8.64-21.07,15.48-33.11,20.81-3.66,1.62-1.51,4.47-.89,6.36.86,2.62,2.58.7,3.85-.21,7.26-5.19,14.52-10.38,22.38-16.01.34,3.46-2.09,4.84-3.83,5.8-7.12,3.94-12.11,10.62-19.23,14.51-1.06.58-1.82,1.62-1.46,2.91,2.23,8.2,1.82,17,6.39,24.71,4.3,7.25,3.25,15.63,2.31,23.38-1.4,11.62-3.62,23.16-4.84,34.84-.57,5.41-12.36,28.04-17.3,25.94-1.88-.8-.05-6.62.16-7.87,2.05-11.99,9.09-39.95,12.46-51.76,2.33-8.18,1.62-16.66-1.76-24.8-2.36-5.69-2.36-11.94-3.23-17.97-.63-4.36-1.54-8.7-1.84-13.08-.24-3.59-1.72-2.75-3.65-1.55-8.47,5.29-16.83,10.67-26.01,14.84-8.41,3.83-17.05,6.95-25.74,9.88-4.9,1.65-8.98,4.61-13.62,6.64-7.2,3.15-14.63,4.82-22.21,6.26-8.14,1.54-16.28,2.58-24.66,2.45-10.86-.17-20.49-4.65-30.58-7.51-5.77-1.64-7.1-6.79-7.67-12.05-1.16-10.65.23-21.17,1.5-31.72,1.52-12.63,2.75-25.3,3.84-37.97.87-10.08,3.06-19.95,6.13-29.45,6-18.59,12.47-37.06,19.66-55.22,5.42-13.68,9.87-27.89,18.85-40.01,3.54-4.77,3.7-11.18,6.06-16.67,6.74-15.65,14.04-30.73,24.5-44.51,15.29-20.15,34.5-35.6,54.61-50.27,3.16-2.31,6.48-4.4,9.77-6.53.73-.47,1.63-.95,1.42-1.8-1.27-5.11,2.28-6.1,5.87-7.44,2.29-.85,4.3-2.46,6.48-3.63,3.11-1.66,5.73-4.79,10.07-2.1,1.54.96,4.33.42,6.2-.88,12.8-8.86,24.82-18.65,32.65-32.37,7.67-13.46,9.64-28.06,7.88-43.51-1.4-12.32-3.6-24.47-5.87-36.61-1.29-6.87-3.93-13.49-6.05-20.2-.46-1.43-2.12-1.52-3.29-1.95-12.69-4.66-20.29-13.95-24.38-26.49-3.14-9.64-1.07-18.93,2.09-28.05,2.51-7.26,11.88-12.3,19.41-10.46,2.64.65,3.46-.21,4.44-2.36,5.82-12.7,6.18-26.16,4.35-39.49-1.83-13.35-1.09-26.44.68-39.61.4-3.02,2.08-5.36,4.74-7.36-2.27,5.63-1.89,11.52-2.61,17.27-.83,6.65-.62,13.25.08,19.85.14,1.3-.53,3.48,1.31,3.87,1.5.32,2.37-1.54,3.45-2.51.49-.43.87-.99,1.3-1.49,0,0,0,0,0,0Zm172.96-13.56c-1.92-1.27-4.32-2.25-5.68-.02-1.26,2.07,1.77,2.18,2.78,3.22,7.74,7.89,14.32,16.35,16.98,27.5,1.31,5.48,1.78,10.95,1.85,16.86,2.64-3.29,2.67-3.28,2.84-5.32,1.36-16-3.39-29.49-16.35-39.56-1.06-.83-2.19-1.47-2.59-2.85,6.84.61,10.42,5.73,13.91,10.58,5.03,6.99,8.31,14.8,8.6,23.69,2.88-.66,2.52-2.7,2.61-4.43.68-12.78-8.83-27.59-21-32.59-2.71-1.11-4.61-.72-3.95,2.93Zm-17.27,3.58c-3.93-2.08-8.12-.78-12.17-.83-12.35-.14-24.13-1.51-35.07-8.37-6.3-3.96-12.41-8.69-19.82-10.7-4.54-1.24-9.14-4.48-13.71-2.81-5.97,2.18-11.61,2.35-17.43.54-2.42-.75-2.95-.38-2.52,2.15,1.22,7.02-1.69,13.76-5.41,18.59-5.56,7.21-5.63,15.24-7.28,23.16-.26,1.25-.17,2.35,1.14,3.46,3.8,3.24,4.6,9.17,1,11.95-1.8,1.39-4.62,7.53-8.29,1.15-.7-1.21-1.47,0-2.09.86-1.29,1.8-1.23,3.73-.94,5.71.7,4.79-1.35,8.02-5.68,9.8-1.17.48-2.26.76-2.13,2.23.29,3.2-1.38,5.68-2.69,8.37-.59,1.21-1.31,2.69-.64,4.27,2.78,6.62.41,9.88-6.78,11.41-4.45.95-11.83-1.29-11.46,7.5,0,.09-.56.21-1,.36-.48-3.32.2-6.54-1.84-9.89-2.99-4.91-7.27-8.1-11.65-11.2-7-4.94-15.84-3.44-20.7,3.08-4.99,6.7-6.44,14.92-5.52,22.48,1.45,11.94,9.58,20.47,19.57,26.6,3.65,2.24,8.44,2.71,12.77,3.74,3.82.91,7.06.34,7.43-4.98,2.77,5.76.96,9.71-4.12,10.03-4.62.29-5.44,1.57-3.82,6.27,3.53,10.28,6.97,20.59,8.28,31.44,1.25,10.35,3.15,20.71.1,31.07-.71,2.41-.58,4.95-1.04,7.36-2.16,11.45-3.7,22.96-10.74,33.06-6.33,9.08-14.64,16.06-22.24,23.79-2.47,2.51-3.52,6.98-8.4,6.92-1.48-.02-1.13,1.58-.61,2.77,1.01,2.34,2.64,4.2,4.38,5.97,7.47,7.61,13.97,16.1,20.15,24.68,13.36,18.56,25.85,37.74,35.13,58.81.91,2.06,1.88,5.06,4.96,5.04,3.77-.02,5.6,2.3,7.26,5.07,5.83,9.77,12.77,18.98,15.25,30.42.51,2.37,1.62,3.2,3.75,1.51,1.13-.9,2.53-1.11,3.73-2.19,3.73-3.36,10.56-2.17,13.32,2.14,1.02,1.59,1.72,1.03,2.72.34,3.49-2.41,6.69-5.5,10.51-7.09,13.58-5.67,26.86-13.14,42.58-9.4,1.05.25,2.38,0,3.41-.41,3.71-1.5,7.62-1.39,11.31-.74,8.03,1.43,15.87-1.06,23.82-.56.88.05,2.16.28,2.23-1.23.12-2.63-6.08-6.61-8.64-5.52-.6.26-1.19.81-1.69.13-.35-.49-.69-1.34-.5-1.82,1.07-2.64,3.45-4.55,5.8-2.95,3.07,2.08,6.99,4.15,7.1,8.73.06,2.4,1.27,2.69,3.14,2.7,6.31.04,12.63.12,18.94.19,2.69.03,3.78-.51,2.01-3.42-5.58-9.16-8.12-19.73-13.29-29.09-.71-1.29-.63-2.51.64-2.88,3.36-.96,1.69-2.81,1.03-4.52-3.9-10.22-10.83-18.73-16-28.24-4.38-8.07-9.51-15.74-15.04-23.13-3.75-5-10.34-11.54-13.23-13.33-12.46-7.72-23.33-17.12-30.91-29.9-.79-1.33-1.49-2.52-3.35-2.43-14.88.75-27.25-7.24-40.11-12.58-12.65-5.25-21.42-16.22-29.37-27.32-1.34-1.87-3.84-3.45-2.25-6.94,2.97,3.55,5.35,7.38,8.63,10.12,7.99,6.68,15.98,13.49,24.73,19.07,11.5,7.33,23.5,13.88,38.2,12.12,11.6-1.39,21.05-6.23,28.4-15.2,16.15-19.71,24.87-43.53,36.23-65.89,3.66-7.21,5.3-15.22,8.12-22.77,1.63-4.38,3.72-8.58,2.68-13.34-2.8-12.9-3.1-26.31-7.94-38.81-1.16-2.98-1.61-6.13-1.09-9.78,3.66,2.7,2.21,6.86,4.05,9.71.69,1.06.87,2.68,2.74,2.21,1.43-.35,2.38-1.16,2.39-2.74.05-7.63,3.47-14.41,5.25-21.61,1.82-7.33,2.3-15.33-.33-22.11-5.76-14.85-13.44-28.88-23.99-41.07,1.25-.09,2.18.44,3.05,1.34,8.6,8.92,15.83,18.8,21.13,30.02,1.08,2.29,1.28,5.01,3.34,7.09,2.41-14.7-10.49-33.26-19.49-39.78-2.86-2.07-6.25-1.47-9.38,0Zm-169.84,463.68c1.53.07,1.73-1.16,2.05-1.98,3.3-8.4,6.7-16.76,9.7-25.27,1.64-4.64,4.49-8.87,5.01-13.88,1.09-10.45,1.04-10.43,11.39-11.42,1.2-.11,2.86.53,3.43-1.2.55-1.66-1.19-2.15-1.9-3.17-5.53-8.01-10.66-16.28-13.72-25.56-1.43-4.32-.42-9.2-2.79-13.48-7.87-14.18-14.65-29-24.47-42.05-11.73-15.59-22.16-32.28-37.93-44.44-2.12-1.63-2.95-2.46-5.48,0-6.77,6.57-14.19,12.46-21.34,18.63-14.02,12.11-28.6,23.5-39.98,38.52-9.92,13.1-17.35,27.22-23.36,42.39-2.3,5.82-2.39,12.78-6.61,17.46-11.91,13.22-15.33,30.32-21.87,45.96-3.6,8.62-5.96,17.75-9.1,26.56-4.35,12.21-8.85,24.27-11.39,37.15-3.22,16.36-4.44,32.73-4.66,49.28-.05,3.3-.32,6.64-.96,9.87-1.18,5.94-.56,11.86-.52,17.81.04,7.12,1.34,12.47,9.86,13.72,5.47.8,10.64,4.14,16.07,4.54,17.83,1.31,35.22-.96,51.8-8.34,3.74-1.66,7.18-3.85,10.99-5.38,16.41-6.62,33.52-11.69,48.05-22.44,3.75-2.77,7.62-5.51,12.35-6.96,4.49-1.38,9.33-3.15,12.75-6.18,9.24-8.2,21.25-11.76,30.78-19.35,1.44-1.15,3.3-1.38,5.07-1.89,9.43-2.7,18.17-6.22,20.14-17.64.64-3.69,1.52-7.58,3.36-10.76,4.1-7.1,8.48-14.12,13.55-20.54,2.26-2.87,5.76-6.41,10.79-4.03-.87,2.77-5.25,1.03-4.64,4.01.41,1.97,3.7.42,5.1,2.02.25.29.43.65.68,1.04-2.81.85-7.85-1.24-6.81,3.92.62,3.09,2.49,7.24,6.57,7.94,10.44,1.79,20.79-4.91,20.54-17.01-.04-1.93.71-4.34-1.28-5.56-7.67-4.7-14.61-10.58-23.85-12.65-5.23-1.17-10.07-4.1-15.09-6.23,1.65-.95,3.23-1.39,4.4-.88,9.95,4.26,20.93,5.67,30.5,10.91,2.37,1.3,4.15,4.29,7.24,3.34,3.49-1.07,1.86-4.92,3.12-7.35,2.28-4.36.77-7.73-3.3-10.55-5.74-3.99-12.24-6.27-18.49-9.17-7.8-3.63-16.74-4.02-24.1-8.84,15.39,2.01,29.8,7.03,44.53,15.31-2.17-7.99-7.47-12.08-12.73-14.91-8-4.31-16.94-6.83-25.33-10.47-3.79-1.65-8.12-2.87-10.41-7.04,4.73.3,9.54.39,13.57,2.21,8.48,3.83,17.17,7.09,25.84,10.42,1.32.51,2.15,3.52,3.89,1.41,1.12-1.35.38-3.53-.34-5.24-.98-2.36-2.44-3.88-5.13-4.81-5.72-1.97-11.61-2.83-17.51-3.44-7.73-.8-15.1-3.68-23-3.5-3.11.07-4.47,1.17-5.07,4.11-.59,2.91-.08,5.94-1.37,8.79-6.86,15.13-11.51,31.18-19.04,46.04-4.74,9.36-11.07,17.49-18.67,24.65-1.56,1.47-3.53,2.58-5.87,2.23-14.12-2.11-28.39-.52-42.58-1.81-9.71-.88-19.57-.07-29.36-.14-12.7-.09-25,2.91-37.2,5.64-10.36,2.32-20.24,6.82-30.3,10.44-2,.72-3.87,1.17-6.83.29,4.76-3.84,7.1-8.84,12.06-11.4,11.43-5.89,23.62-8.97,36.29-10.64,6.95-.92,13.84-2.28,22.21-3.69-8.37-5.12-16.46-6.46-24.75-7.87,5.12-2.71,8.41-2.75,13.98-.68,10.6,3.94,20.12,11.35,32.35,10.13.63-.06,1.32.17,1.93.42,10.69,4.28,19.39-.4,27.38-6.62,11.32-8.81,17.43-20.65,18.83-34.95.11-1.07.83-2.94,1.37-2.98,4.33-.32,3.03-3.4,2.67-5.55-1.76-10.46,1.06-20.9-.03-31.34-.02-.17.41-.39.74-.68,1.48,1.39,2.31,3.24,2.6,5.1,1.75,11.01,2.22,22.04.69,33.14-.59,4.25-.44,8.61-.57,12.92-.04,1.2.24,2.43,1.72,2.61,1.55.19,1.96-1.05,2.18-2.2,1.16-6.02,2.66-12,1.77-18.22-.74-5.2-1.38-10.4-2.15-16.27,2.69,1.88,1.57,4.64,3.79,6.47.35-3.85.66-7.21.96-10.57,3.38,11.97-.45,24.03.96,36.06,4.57-9.62,2.26-20.45,5.92-31.52v21.3c.35.08.7.17,1.06.25,1.74-5.2,3.49-10.4,5.6-16.69,2.08,9.5-2.83,16.68-3.96,24.46,1.39.16,2-.37,2.24-1.23.5-1.82,1.13-4.04,3.4-3.2,2.03.75,1.37,2.95,1.02,4.83-.47,2.47-2.17,4.84-1.01,7.52Zm309.31-80.05c-1.99,1.62-3.38,3.88-6.32,4.17-6.37.65-9.63,4.81-11.22,10.57-3.28,11.9-9.17,22.38-17.11,31.77-3.52,4.16-2.03,7.09,3.17,8.97,5.27,1.9,8.25,2.55,10.82-4.14,3.07-8,8.06-15.31,12.52-22.73,4.17-6.94,7.6-15.46,18.37-12.73,2.3.58,6.34-1.76,6.39,1.04.05,2.37-4.49,1.92-7.1,2.26-2.94.39-6.38.04-8.11,2.86-5.49,8.95-11.1,17.87-15.84,27.22-5.08,10.01-4.67,10.21,2.12,16.47-8.83.7-17.39,1.57-21.13,11.99-1.36-6.8,3.56-11.45,12.3-12.82-1.93-4.08-1.95-3.81-5.91-4.19-5.46-.52-11.31-1.08-13.7-7.16-2.03-5.19-7.27-7.34-10.08-11.72-1.1-1.71-3.06-.68-4.6-.53-1.06.1-.84,1.04-.6,1.94,5.11,18.81,9.33,37.75,10.79,57.29,2.15,28.7,3.02,57.31-2.8,85.71-.61,2.99-.45,5.34,1.43,7.87,5.84,7.84,13.81,12.72,22.52,16.53,1.99.87,3.93.36,5.39-2,3.62-5.85,7.89-11.32,12.88-16.02,11.04-10.38,14.48-24.46,16.81-38.13,3.01-17.62,1.56-35.73.4-53.63-.11-1.74-.29-2.93-2.59-2.16-7.12,2.37-14.5,1.25-21.73.99-7.85-.29-9.94-3.21-9.09-11.33,1.8,3.95,4.8,6.01,8.18,6.44,10.77,1.37,21.59,1.14,31.36-4.19,9.97-5.44,16.59-14.33,21.76-24.22,1.17-2.24,3.41-4.23,2.9-7.21-.97-5.58-2.31-10.6-.29-16.85,2.13-6.57-8.13-10.37-8.05-17.9,0-.92-3.47-2.06-5.45-2.77-1.95-.71-2.74-1.84-3.14-3.89-1.7-8.75-6.33-12.79-15.47-13.56-2.47-.21-3.95-.93-4.55-3.56-1.07-4.72-4.36-6.56-8.9-5.36-8.27,2.19-16.47,4.66-24.68,7.08-1.81.53-2.78,1.85-3.77,3.57-4.03,7.01-6.16,14.85-9.93,22-1.82,3.45-3.72,7.39-3.66,11.75.04,3.1,2.25,4.92,4.12,6.3,1.75,1.29,2.37-1.77,3.3-2.82,7.04-8,11.76-17.53,15.54-27.3,3.97-10.26,10.76-15.92,22.75-15.82Zm-261.94,24.28c2.81-.65,4.22-.97,5.63-1.31,6.34-1.49,5.59-1.32,4.2-7.52-2.49-11.16-10.42-19.33-14.88-29.35-.66-1.48-2.01-2.52-3.6-1.3-4.55,3.49-9.65,4.8-15.33,4.84-1.54.01-4.42-.18-4.14,3.01.31,3.55-.12,7.04,2.38,10.37,2.75,3.65,4.5,8.06,6.61,12.17.65,1.26.78,3.56,2.64,2.77,1.59-.67.55-2.56,0-3.95-1.78-4.52-5.1-8.05-7.58-12.12-.9-1.48-2.49-3.25-.61-4.87,1.54-1.33,3.61-1.39,5.59-.58,3.26,1.34,5.73,3.77,8.35,5.99.83.71,1.37,2.25,2.75,1.53,1.72-.9.27-2.33.25-3.53-.02-1.31-.94-2.02-1.73-2.87-1.48-1.59-2.37-4.08-.82-5.33,1.84-1.49,3.7.41,5.27,1.96,4.44,4.36,5.04,10.58,7.86,15.72q4.53,8.23-2.87,14.37Zm165.72-44.01c0-2.19-.03-3.81.01-5.43.02-.79-.08-1.84,1.04-1.89.48-.02,1.23.53,1.45,1.01,2.96,6.25,5.85,12.54,8.77,18.81,1.19,2.55-.1,4.97-2.18,4.96-2.9-.02-6.81,4.08-8.74-.64-2.45-5.99-5.94-11.33-8.78-17.04-.98-1.96-5.85-5.12-.19-8.02,1.24-.64-.16-2.49-1.22-3.08-1.4-.79-3.03-1.35-4.62-1.59-2.33-.35-4.31-.37-2.94,3.25,3.66,9.63,7.69,19.07,12.57,28.14.85,1.58,1.8,3.01,4.15,2.88,5.89-.3,11.76-1.74,17.69-.3.82.2,2.08.29,2.56-.92.36-.91-.25-1.55-.85-2.14-6.92-6.8-9.38-16.1-13.57-24.41-2.26-4.48-5.03-5.82-9.66-3.8-1.32.57-2.16,1.2-1.22,2.48,1.78,2.45,2.19,5.91,5.71,7.72Zm8.29-349.17c-3.15-8.91-3.6-18.37-11.76-24.98-7.28-5.89-8.59-6.33-15.55-.42-2.57,2.18-2.07,2.48.49,4.31,7.51,5.39,15.9,9.66,22.24,16.64,1.31,1.44,1.16,4.27,4.58,4.44Zm-84.34-51.94c.97,1.76,2.43,1.65,3.67,1.7,8.45.31,16.87.2,25.3-1,9.24-1.31,17.76-4.92,26.52-7.7,5.91-1.87,11.55-4.67,16.55-8.52.84-.65,1.55-1.52,1.1-2.46-.4-.82-1.47-.6-2.21-.13-5.8,3.69-12.46,5.32-18.91,6.98-6.47,1.66-10.95,8.93-18.73,6.42-9.63,5.11-20.08,4-30.38,4.02-.98,0-1.98-.38-2.91.7Zm66.98,144.31c0-1.67.07-3.5-.03-5.32-.05-.98-.37-2-1.59-2.17-2.43-.35-8.85,4.4-9.42,7.01-1.11,5.09-.21,10.16.38,15.21.36,3.06,1.69,2.96,3.81,1.01,4.61-4.23,7.76-9,6.85-15.74Zm-138.18,309.77c1.5.5,2.54-.39,3.55-1.25,2.11-1.81,4.26-3.58,6.25-5.51,1.32-1.28,3.53-2.26,2.37-4.83-.77-1.7-1.56-3.29-3.79-3.46-2.49-.19-4.78.14-5.88,2.65-1.09,2.48-3.28,3.64-5.29,5.08-2.36,1.69-7.25,2.51-6.87,4.68.58,3.33,5.11,1.12,7.77,2.05.62.22,1.26.39,1.9.59Zm73.81-425.89c13.66,2.14,27.32,4.46,40.97.05-13.65.42-27.31.26-40.97-.05Zm60.77,104.58c-2.76-4.81-6.12-6.8-11.25-4.96-1.59.57-2.49,1.29-1.4,2.75,1.7,2.27,1.28,5.53,3.66,7.39.11.08,1-.7,1.41-1.18,1.84-2.21,4.28-3.29,7.58-3.99Zm-19.32-150.55c-9.1,1.71-13.21,9.53-21.09,13.79,5.75.82,17.91-7.65,21.09-13.79Zm-131.44,465.6c-4.41-.94-6.91-3.64-10.44-2.56-1.04.32-2.59-.21-2.87,1.26-.27,1.44.8,2.43,2.07,3.01,3.63,1.67,6.82.4,11.23-1.72Z"/><path class="cls-3" d="m305.43,33.75c-7.08,2.76-14.38,5.17-19.09,12.02-1.35-4.48-.41-6.06,4.23-8.92,6.61-4.08,13.98-6.9,20.96-12.57-7.64,1.47-13.48,4.3-18.89,8.03-3.01,2.08-5.79,4.32-9.75,4.42-2.75.07-2.86,3.18-4.41,4.73-1.23-1.44,1.34-4.34-1.91-4.88-3.62-.6-5.76,2.04-8.16,3.96-.74.59-.57,2.78-2.17,1.73-1.24-.82-.19-2.06.6-2.93,1.42-1.56,2.85-3.11,4.3-4.68q-4.94-1.84-11.84,5.12c-1.07-1.46.21-2.77.24-4.12.02-1.23.5-2.46.79-3.73-6.76-.17-7.23.49-7.47,10.27-4.79-5.33-2.8-11.05,3.93-13.34,9.1-3.1,18.08-3.59,27.37-1.31,5.22,1.28,10.24-.44,15.04-2.2,7.54-2.75,14.79-6.32,22.4-8.8,9.99-3.26,20.41-1.22,30.64-1.27,2.96-.01,4.05,3.19,5.15,5.53,1.38,2.92,2.6,2.97,5.24,1.11,4.44-3.14,6.07-7.67,7.47-12.44,1.14-3.87,2.8-4.56,5.97-2.01,5.22,4.2,6.54,9.99,5.2,16.09-1.29,5.88-3.9,11.37-8.83,15.46-.66-1.36.36-2.07.6-2.99.21-.81.41-1.78-.55-2.13-.47-.17-1.36.13-1.77.52-9.64,9.4-21.72,10.66-34.28,10.33-6.19-.16-12.44-.52-16.49,5.93-.34-3.9,2.26-6.6,6.89-7.58,4.56-.96,9.17-1.38,13.83-1.34,4.54.04,8.74-1.67,13.1-2.51,3.27-.62,3.15-5.07,7.16-5.51,3.86-.43,8.42-.68,10.9-5.1,2.41-4.3,5.29-8.31,4.4-13.69-.25-1.54-.46-2.9-1.74-3.91-.85-.68-1.14-2.4-2.56-1.93-1.75.58-.95,2.22-.89,3.45.3,6.06-3.48,10.27-7.53,13.29-8.29,6.19-17.98,5.84-27.21,7.83-.44.09-.81.47-1.53.91,3.56,2.76,7.16.13,11.25.73-4.21,1.93-7.79,3.71-11.98,3.45-9.19-.56-16.84,3.04-23.75,8.7-.31.26-.91.18-1.4.26.76-5.14,4.4-7.67,10.56-10.71,11.12-5.49,23.34-6.77,34.93-10.39,4.13-1.29,2.94-3.03,1.25-5.19-3.84-4.91-9.43-4.3-14.63-4.14-7.44.23-13.95,3.83-20.65,6.6-3.18,1.31-6.19,3.03-9.31,4.5-1.41.66-2.71,1.32-2.66,3.17-.99.73-1.98,1.46-2.96,2.19Z"/><path class="cls-3" d="m432.61,597.61c-2.21-11.08,1.5-17.89,10.8-20.93,2.96-.97,5.7-.55,8.22,1.84,2.22,2.1,1.83,3.97,1.33,6.65-2.1,11.26-11.14,15.24-19.85,19.57-13.75,6.84-28.13,5.7-42.7,3.47-9.43-1.44-19-1.94-27.76-6.33-6.35-3.18-12.65-7.15-16.44-12.72-2.98-4.39-2.44-11.08-3.85-16.66-3.15-12.43-3.14-25.27-5.3-37.84-1.68-9.77-1.09-19.87-3.63-29.58-.21-.81-.44-2.2,1.05-2.26,1.29-.05,1.37,1.08,1.53,2.11,2.29,14.19,4.92,28.31,6.27,42.68,1.12,11.82,3.98,23.47,5.77,35.24.44,2.86,2.97,2.79,4.37,4.18,6.46,6.43,13.62,11.78,22.99,13.62,4.71.93,9.32-.15,14.17.98,7.12,1.66,14.5,3.13,22.08,2.5,9.79-.82,19.12-2.93,27.7-7.78,3.46-1.96,5.81-5.19,8.18-8.25,1.29-1.67,2.15-4.32-.07-5.82-1.97-1.33-4.4-.89-6.29.96-3.87,3.8-6.47,8.44-8.58,14.37Z"/><path class="cls-3" d="m313.98,533.39c-1.98,14.89,6.29,29.44,1.34,44.48-.09-1.84-.12-3.68-.29-5.51-1.71-18.92-3.27-37.86-6.31-56.64-.16-.98-.23-1.98-.31-2.97-.13-1.64.18-2.98,2.17-3.24,1.86-.24,2.69.88,3.32,2.35.8,1.87-.56,4.3,2.01,6.6.16-3.08.38-5.45.38-7.81,0-2.78,1.91-4.14,4.03-4.1,2.92.06.97,2.49,1.12,3.86.48,4.27.66,8.54,1.47,12.82,2,10.55,2.98,21.31,5.3,31.78,1.84,8.3,3.28,16.55,3.39,25.03.02,1.23.87,3.24-.88,3.36-2.03.13-1.54-2.1-1.57-3.42-.26-11.5-3.9-22.48-5.09-33.83-.09-.83-.42-1.6-1.7-1.91-1.24,4.85.35,9.43,1.31,13.95,1.58,7.42,1.17,14.85.9,22.3-.05,1.27.2,3.11-1.62,3.02-1.64-.09-1.47-1.91-1.6-3.2-1.03-10.87-1.89-21.77-3.15-32.62-.56-4.86-1.91-9.62-2.91-14.43-.44.04-.87.09-1.31.13Z"/><path class="cls-3" d="m378.2,509.7c-2.69-2.39-2.08-5.74-4.33-7.7-1.68-1.47-2.59-1.56-2.83.73-.68,6.44,1.66,12.35,3.53,18.32.54,1.7,2.04,1.72,3.29,1.16,4.55-2.05,5.81,1.48,6.62,4.33,3.93,13.82,7.1,27.81,8.44,42.17.31,3.28,1.13,6.52,1.71,9.77.51,2.85-.73,5.02-3.21,6-2.42.95-4.71-.17-5.96-2.4-1.77-3.14-3.14-6.3-3.46-10.17-.46-5.7-2.03-11.35-3.42-16.94-3.79-15.19-7.93-30.29-11.49-45.53-.95-4.08-.84-8.66,2.84-11.96,1.2-1.08,2.78-1.5,4.04-.2,3.17,3.27,5.06,7.08,4.23,12.43Zm11.72,65.89c.13-.99.39-1.65.27-2.24-2.42-12.48-3.46-25.24-7.32-37.43-.74-2.34-.62-4.94-2.22-7.04-1-1.31-1.87-3.45-3.62-2.85-2.16.73-.8,2.78-.42,4.25,3.52,13.58,7.04,27.16,10.66,40.71.39,1.47.12,3.41,2.65,4.61Z"/><path class="cls-3" d="m357.63,518.25c3.12,22.65,7.25,45.13,11.9,67.54-3.17-9.14-5.38-18.5-7.21-27.96-1.41-7.3-2.96-14.56-4.35-21.86-1.61-8.44-3.27-16.89-4.56-25.38-.42-2.78-.58-5.6-1.42-8.29-.43-1.4-.7-2.84.97-3.29,1.45-.39,2.37.69,2.85,2.11,1.1,3.28,2.15,6.58,3.46,9.78.5,1.22.23,3.14,2.68,3.56.7-4.3-.62-8.42-.7-12.57-.03-1.5-.99-3.84,1.35-4.14,2.88-.37,2.19,2.22,2.33,3.9,1.25,15.19,4.64,30.04,6.97,45.06,1.78,11.44,3.71,22.85,6.72,34.06.25.94.22,1.98.2,2.97-.03,1.44.42,3.46-1.43,3.79-2.06.37-2.74-1.7-3.07-3.25-2.12-9.85-3.93-19.76-6.17-29.58-2.82-12.3-5.13-24.75-10.5-36.44Z"/><path class="cls-3" d="m295.01,551.24c2.3,5.8,3.32,11.41,3.11,17.25-.12,3.17.1,6.29.85,9.38.25,1.05-.09,2.71,1.59,2.54,1.24-.13,1.51-1.53,1.8-2.7,1.55-6.21,1.59-12.55.75-18.78-.96-7.13.52-14.74-3.7-21.27-3.19-4.94-6.61-9.72-9.77-14.67-1.93-3.02-2.03-6.23.18-9.22,2.45-3.31,5.82-3.28,9.33-2.25,3.39,1,4.42,3.73,5.4,7.66-2.66-1.87-2.6-5.3-5.78-5.22-1.4.04-2.97-1.23-4.13.31-.95,1.27-.71,2.93-.29,4.32.37,1.22,1.04,2.61,2.02,3.36,7.54,5.76,9.33,14.49,10.43,22.8,1.35,10.13,1.98,20.47,1.26,30.77-.26,3.65-.79,7.4-4.45,9.38-4.5,2.44-9.28.83-10.94-5.65-2.28-8.85-3.11-18.23,1.08-27.09.12-.25.5-.38,1.27-.92Z"/><path class="cls-3" d="m442.22,507.97c-.1-3.42-1.99-6.28-2.94-9.42-.47-1.55-1.27-4.1.91-4.77,2.24-.68,2.83,1.68,3.31,3.44,4.87,17.77,9.72,35.55,14.58,53.33.09.32.31.64.29.94-.17,2.22,1.67,5.7-.43,6.4-3.32,1.1-1.73-2.96-2.76-4.52-3.24-4.9-4.11-11.01-7.8-15.84,1.52,8.67,4.52,17.07,4.36,26.03-1.62-5.56-3.18-11.13-4.37-16.74-2.23-10.5-6.12-20.44-9.48-30.56-1.86-5.6-4.14-11.07-6.38-16.54-.54-1.32-1.32-2.55.33-3.32,1.57-.73,3.25-.69,4.13,1.28.94,2.1,1.78,4.26,2.78,6.33.78,1.63.65,4.2,3.57,3.87-1.02,8.83,4.37,15.69,6.96,23.4-1.87-7.92-2.94-16.09-7.06-23.31Z"/><path class="cls-3" d="m380.94,497.16c3.98,11.36,7.43,21.21,10.9,31.12,1.72-.59,1.34-1.73,1.22-2.55-1.38-8.83-2.8-17.66-4.26-26.48-.23-1.38-1.58-3.27.44-3.82,2.16-.59,2.67,1.82,2.8,3.27.6,6.94,2.33,13.66,3.58,20.48,1.99,10.87,4.15,21.74,5.52,32.69,1.23,9.84,1.8,19.76,3.49,29.55.2,1.18.55,2.93-1.25,3.31-2.12.45-3.09-1.19-3.35-2.87-.93-6.05-2.76-11.93-3.72-17.92-2.49-15.5-5.29-30.84-10.53-45.74-2.2-6.26-4.18-12.81-4.83-21.04Z"/><path class="cls-3" d="m428.47,573.17c-.97-5.32-2.16-10.61-2.86-15.97-1.5-11.5-5.04-22.55-7.29-33.89-1.6-8.04-2.35-16.05-2.55-24.17-.04-1.73-.21-3.91,2.18-4.45,2.05-.46,2.7,1.34,3.77,2.61,2.76,3.26,2.4,7.38,3.5,11.1,4.33,14.58,8.51,29.19,11.57,44.09,1.06,5.17,1.94,10.39,2.91,15.58.26,1.4.21,3.01-1.26,3.37-1.46.36-2.17-.92-2.46-2.41-1.95-10.04-3.96-20.06-5.95-30.09-.34-1.73-.15-4.02-2.86-3.76-2.72.26-3.32,1.85-2.85,4.57,1.93,11.06,3.61,22.16,5.38,33.24-.41.06-.83.11-1.24.17Zm-8.19-72.33c-.45.09-.91.17-1.36.26-.08,1.14-.18,2.27-.25,3.41-.53,7.9,1.81,15.43,3.04,23.1.25,1.57-.66,4.12,2.58,3.53,2.5-.45,3.21-2.1,2.72-4.38-.59-2.74-1.25-5.47-1.97-8.18-1.56-5.92-3.17-11.82-4.76-17.73Z"/><path class="cls-3" d="m429.42,579.59c-3.3,2.28-5.63,3.78-7.83,5.45-2.7,2.05-4.2,1.11-5.07-1.8-.09-.32-.21-.65-.19-.97.48-11.82-1.91-23.37-3.06-35.05-.85-8.62-2.66-16.97-4.76-25.27-2.32-9.15-2.73-18.52-4.06-27.86,3.31,3.18,3.69,7.73,4.75,11.64,3.61,13.38,7.08,26.88,8.73,40.64,1.22,10.15,3.97,20.13,3.73,30.44-.06,2.72.65,3.66,3.42,2.64.95-.35,2.17.04,4.35.15Z"/><path class="cls-3" d="m226.07,57.21c-1.66-1.17-2.75-.6-4.27.7-5.54,4.72-12.71,7.13-17.99,12.55,3.03-9.94,3.92-20.97,14.88-26.07,3.93-1.83,8.16-1.12,12.12.3,4.16,1.5,8.04,2.26,12.39.12,4.14-2.04,7.8-.15,11.45,3.12-3.43,1.17-5.58-1.59-8.49-1-9.77,1.99-21.76,15.89-23.01,25.82-1.13,8.98-.23,17.82-.09,26.73,0,0,0,0,0,0-2.59-9.32-3.31-18.78-2.53-28.44.43-5.28,1.54-10.07,5.53-13.82.68-.7,1.57-1.29,2-2.12.52-.99,2.42-1.11,1.86-2.58-.54-1.39-2-.81-3.09-.87-5.97-.33-8.52,1.1-11.93,7.04,2.17-1.07,4.23-1.53,5.46-2.79,2.93-3.04,4.42-1.66,5.74,1.32Zm-14.4.3c5.9-7.27,11.67-11.87,20.26-6.15,1.09.73,2.41-.68,2.79-2.09.41-1.54-.56-1.91-1.84-2.25-3.37-.9-6.77-1.53-10.25-1.33-4.92.29-10.62,5.9-10.96,11.82Z"/><path class="cls-3" d="m216.96,146.64c4.21-4.86,6.36-10.69,8.95-16.33.53-1.14,2.75-1.63,4.29-2.15,8.28-2.82,15.36-12.08,15.4-20.74.03-5.92.72-10.86,4.9-16.13,7.35-9.25,9.05-20.63,6.19-32.38-.15-.61-.08-1.3,0-1.94.04-.27.38-.5,1.26-1.57,1.1,11.2,3.63,21.93-1.36,31.77-4.32,8.52-5.14,17.83-8.22,26.57-2.51,7.12-6.58,13.12-11.5,18.66-.4.45-1.39,1.06-1.56.92-4.97-4.02-5.58,1.96-6.38,3.6-2.54,5.18-6.86,7.68-11.96,9.71Z"/><path class="cls-3" d="m305.43,33.75c.99-.73,1.98-1.46,2.96-2.19,8.71-1.95,16.69-5.93,24.9-9.22,5.3-2.12,10.62-2.41,16.1-2.04,1.34.09,3.31-.14,3.25,2.13-.06,2.22-1.46,3.18-3.6,3.26-4.13.14-8.24.04-12.38.81-11.81,2.19-22.93,5.91-32.56,13.3-1.91,1.47-3.3,3.25-4.27,5.7-1.79,4.54-4.77,8.32-10.33,8.68-5.25.34-10.31.09-13.98-4.5-.73-.92-1.72-1.93-.67-3.01.96-.99,1.65.37,2.48.74,5.24,2.34,10.65,1.52,16.08.9,3.41-.39,2.93-3.63,4.12-5.5,2.21-3.45,6.51-4.99,7.88-9.07Z"/><path class="cls-3" d="m347.15,499.88c.79,4.98,1.53,9.97,2.37,14.94,1.95,11.56,6.76,22.48,7.91,34.2,1.04,10.69,2.58,21.29,4.41,31.87.22,1.26,1.23,3.63-1.42,3.98-2.64.35-2.82-2-3.07-3.66-2.09-13.36-3.51-26.86-6.22-40.09-2.22-10.85-3.26-21.84-5.39-32.68-.57-2.88-.77-5.75,1.42-8.56Z"/><path class="cls-3" d="m228.76,122.08c.06-3.27-.7-6.29,1.92-9.51,2.05-2.52,3.51-5.86,4.15-9.42.79-4.36,2.51-8.41,5.89-11.58,6.61-6.21,6.82-14.66,7.89-22.83.47-3.58-1.66-9.57,4.09-9.26,3.04.17,1.58,6.07,1.24,9.2-.92,8.51-4.68,16.09-9.33,23.16-2.02,3.07-3.88,5.31-3.53,9.92.49,6.55-3.98,12.39-8.36,17.4-.91,1.04-1.38,3.22-3.95,2.92Z"/><path class="cls-3" d="m397.54,493.97c2.34,2.8,3.38,5.45,3.81,8.11,1.9,11.69,3.7,23.41,5.24,35.16,1.56,11.94,2.57,23.95,5.59,35.66.25.95.37,1.96.38,2.94.02,1.11.34,2.6-1.17,2.91-1.72.35-1.98-1.11-2.49-2.41-2.52-6.41-2.38-13.31-3.44-19.93-2.75-17.12-4.39-34.42-6.37-51.66-.39-3.37-3.2-6.29-1.56-10.77Z"/><path class="cls-3" d="m426.5,494.4c3.74,5.56,4.6,11.02,5.85,16.1,2.29,9.27,5.36,18.29,7.88,27.46,2.62,9.52,4.32,19.3,6.28,28.99.26,1.27.72,3.4-1.41,3.64-1.92.21-2.15-1.61-2.39-3.13-2.76-17.47-8.07-34.34-12.04-51.51-1.54-6.64-4.31-13.12-4.19-21.54Z"/><path class="cls-3" d="m249.35,125.36c3.75-7.83,6.49-15.84,5.31-24.65-.37-2.79,1.9-3.64,3-5.32,5.09-7.79,6.83-16.32,5.92-25.47-.43-4.28-.94-8.54-1.52-12.8-.17-1.24-1.23-2.7.96-3.01,1.44-.21,2.78.42,3,1.97,1.3,8.99,2.63,18,1.68,27.11-.27,2.56-2.16,4.42-3.81,6.27-3.63,4.04-6.01,8.27-5.6,14.18.59,8.47-4.01,15.26-8.94,21.72Z"/><path class="cls-3" d="m327.56,504.55c3.25,9.12,5,18.03,6.12,27.2,1.91,15.62,3.84,31.22,5.24,46.89.12,1.32.06,2.65.03,3.98-.02.97.09,2.2-1.28,2.26-1.39.07-1.38-1.17-1.43-2.13-.33-6.3-2.2-12.43-2.63-18.65-.83-11.89-2.1-23.73-3.5-35.55-.64-5.4-1.69-10.76-2.51-16.14-.37-2.42-1.27-4.84-.04-7.85Z"/><path class="cls-3" d="m187.7,704.67c-1.54-.87-1.22-2.09-.31-3.14,2.47-2.85,4.98-5.67,7.61-8.38,9.83-10.13,20.85-19.07,29.98-29.9.76-.91,1.53-2.78,3-1.23,1.03,1.09-.52,1.96-1.18,2.83-10.74,14.06-24.65,25.09-36.43,38.15-.63.7-1.66,1.05-2.66,1.66Z"/><path class="cls-3" d="m281.97,597.15c1.88.18,2.72,1.25,3.61,2.21,6.81,7.35,13.62,14.7,20.45,22.03.84.9,2.85,1.56,1.78,2.95-.98,1.27-2.79.38-4.07-.4-5.86-3.61-10.75-8.33-15.5-13.28-2.75-2.86-5.28-5.87-7.4-9.17-1.08-1.68-1.53-3.81,1.13-4.34Z"/><path class="cls-3" d="m216.43,653.59c-3.88,4.87-8.97,7.98-13.91,11.33-6.5,4.41-12.36,9.61-17.76,15.32-.93.99-2.11,2.1-3.37.96-1.36-1.23-.04-2.4.8-3.37,6.72-7.75,14.9-13.66,23.82-18.6,3.46-1.91,6.95-3.77,10.42-5.65Z"/><path class="cls-3" d="m251.7,50.46c-14.69,7.44-17.27,21.09-18.55,35.54-3.57-10.33-2.06-19.75,4.97-27.89,3.56-4.12,7.34-8.61,13.58-7.65Z"/><path class="cls-3" d="m319.84,62.54c-5.86.14-9.33-2.82-12.64-6.09-1.09-1.07-1.26-2.49-.43-3.61.91-1.23,2.32-1.06,3.56-.22,3.78,2.59,7.97,3.63,12.54,3.56,1.46-.02,3.67-.82,4.15,1.45.41,1.91-1.69,2.65-2.78,3.75-1.36,1.38-3.36,1.18-4.4,1.15Z"/><path class="cls-3" d="m203.45,647.17c-7.38,9.74-17.33,16.68-26.3,24.72-.96.86-2.32,1.11-3.04-.06-.91-1.47.55-2.6,1.44-3.33,6.18-5.1,12.43-10.13,18.76-15.04,2.92-2.26,6.08-4.21,9.13-6.29Z"/><path class="cls-3" d="m208.22,702.96c.32,3.95-1.84,5.13-3.11,6.62-6.91,8.13-14.01,16.1-21.03,24.14-.76.87-1.39,2.22-2.72,1.51-1.05-.56-.67-1.71-.03-2.58,7.83-10.47,16.85-19.83,26.88-29.69Z"/><path class="cls-3" d="m244.08,65.89c-4.92,7.12-3.44,16.49-8.57,23.53-.73-9.1,1.71-17.09,8.57-23.53Z"/><path class="cls-3" d="m238.5,135.64c-2.79,6.81-6.8,12.43-12.8,16.5-.81.55-1.57,1.61-2.49.73-1.07-1.02-.41-2.36.55-2.98,4.79-3.11,8.3-7.17,10.45-12.53.57-1.43,3.06-.36,4.29-1.72Z"/><path class="cls-3" d="m282.36,589.81c6.4,4.6,12.8,9.19,19.19,13.79-7.94-2.29-15.2-5.59-19.95-12.66.25-.38.51-.75.76-1.13Z"/><path class="cls-3" d="m200.4,744.13c-3.55,3.37-7.13,6.73-10.65,10.13-1.19,1.15-2.96,2.02-3.88.76-.98-1.35,1.11-1.74,2.01-2.56,3.7-3.37,7.52-6.54,12.53-8.34Z"/><path class="cls-3" d="m270.05,45.95c-2.14,3.25-4.66,4.23-7.85,3.35-.31-.09-.68-1.08-.66-1.09,2.49-1.65,5.27-2.06,8.5-2.26Z"/><path class="cls-3" d="m269.57,218.24c1.36-3.02,4.86-1.21,4.23-3.53-.63-2.31-3.54-1.58-5.21-.98-2.74.98-5.07,2.81-6.56,7.58,2.92-3.25,4.52-2.29,5.76-.44,1.02,1.52,13.39,26.95,18.64,36.56l1.28,1.87c7.22,7.95,15.43,11.12,25.8,12.94,10.42,1.82,19.78-.31,28.13-6.47,4.44-3.28,7.95-7.73,12.77-10.68,1.39-.85,3.39-2.02,3.46-4.73-5.06,0-9.88.42-14.6-.08-14.71-1.55-37.44-2.33-50.34-11.05m14.76,19.55c-2.52,1.98-5.06-1.51-8.36-1.66,5.79-.69,6.13-2.83,2.6-6.12.88-1.42,2.02-1.19,2.87-.98,2.03.51,4.99-1.81,6.04,1.42.99,3.06-1.21,5.82-3.14,7.34Zm13.62-4.06c-.44,6.19-2.27,7.38-10.21,5.95,1.33-2.4,3-4.14,2.72-6.63-.31-2.68.15-4.3,3.61-4.05,3.37.24,4.09,1.77,3.88,4.73Zm5.76,6.94c-7.29.1-1.8-5.06-3.27-7.07-.02-2.21-1.19-5.14,2.61-4.44,2.78.51,7.13-1.35,7.12,4.36,0,4.61-1.4,7.08-6.46,7.15Zm19.44-5.75c-1.22.82-2.42,1.66-3.69,2.4-1.75,1.02-3.32,3.81-5.36,2.42-1.62-1.11-.61-4-.46-5.99.34-4.48,3.82-1.19,5.51-1.98,1.19.07,2.17.1,3.15.18.91.07,2.13-.68,2.62.54.61,1.52-.9,1.84-1.79,2.43Z"/><path class="cls-3" d="m352.7,151.19c-4.32,4.71-6.32,10.12-6.27,16.61,8.93-6.08,25.12-6.05,33.61,4.78,1.92,2.45,2.65,5.29,3.83,7.94,1.03,2.32-1.42,2.9-3.11,3.52-10.12,3.71-19.78,2.83-29-2.86-.98-.61-1.88-2.59-3.28-1.31-1.48,1.35.34,2.67.75,4,1.94,6.18,6.37,9.78,12.18,12.16,8.98,3.68,11.06,10.54,5.67,18.59-2.11,3.15-4.05,6.75-6.97,8.95-7.87,5.92-16.41,11.14-26.83,10.12-13.65-1.34-25.77-5.69-31.91-19.52-.54-1.22-2.15-2.7.24-3.56,1.86-.67,2.63.8,3.21,2.28,4.61,11.95,15.27,14.99,26.14,17.5,9.49,2.19,17.74-2.21,25.16-6.84,5.09-3.17,8.68-8.96,10.86-14.91,1.45-3.97-.79-8.3-5.38-9.16-15.09-2.83-21.56-24.57-17.5-36.71,1.65-4.94,3.01-9.58,8.6-11.58Zm16.23,32.18c3.32.56,6.53-1.02,9.9-1.69,2.38-.47,1.64-1.36,1.19-3.04-1.37-5.13-5.65-7.48-9.28-10.46-1.58-1.29-3.1-1.03-2.51,1.36,1.11,4.52-.89,7.61-4.02,10.37-.71.62-2.07.89-1.84,2.06.28,1.44,1.79,1.22,2.85,1.36,1.13.16,2.3.04,3.71.04Z"/><path class="cls-3" d="m316.27,170.33c-1.98,3.4-5.79,3.9-8.91,4.71-10.29,2.67-20.23,2.24-28.46-5.84-.82-.8-1.72-1.52-2.6-2.26-3.67-3.11-3.58-5.04-.39-8.48,12.41-13.42,34.07-7.75,42.36,5.82,1.84,3.01-.18,4.52-2.11,6.14,3.08-5.22-1.9-7.12-4.19-10.11-.63-.82-1.58-1.39-2.59-1.18-1.66.35-1,1.84-1.05,2.87-.13,2.23-1.41,3.86-2.35,5.75-1.45,2.93-4.94,2.84-6.73,5.3,6.43,2.16,11.44-1.96,17.01-2.73Zm-24.4,1.68c-4.35-3.53-7.62-6.39-6.72-11.49.24-1.37,1.33-3.72-1.15-4.12-3.62-.58-5.57,2.44-7.72,4.61-1.43,1.44-.18,2.61,1.02,3.68,3.78,3.36,7.63,6.57,14.57,7.32Z"/><path class="cls-3" d="m275.94,129.41c13.61-14.18,25.16-19.68,41.94-10.93,4.53,2.37,9.47.81,14.2,1.27,1.24.12,2.89-.64,3.63.71.85,1.56-.46,2.8-1.37,3.96-5.64,7.19-16.1,9.7-24.99,5.18-11.22-5.71-22.13-6.42-33.4-.2Z"/><path class="cls-3" d="m395.72,149.05c0-.18.24.76-.7,1.17-.89.39-1.64.05-1.89-.93-2.21-8.61-9.35-7.8-15.8-8.27-4.7-.34-9.56.95-13.92-2.17-5.76-4.11-6.01-6.27-1.92-12.05,1.59-2.25,2.99-2.33,4.86-1.22,4.07,2.43,8.51,2.14,12.96,2.12,9.66-.05,12.91,2.49,15.16,12.04.64,2.72.76,5.56,1.25,9.3Z"/><path class="cls-3" d="m195.14,179.11c-1.86-5.79-.7-10.08,3.7-12.94,4.1-2.67,8.38-2.6,12.43.38,6.42,4.73,9.26,11.16,9.05,19.05-.03,1.05-.21,2.21-1.26,2.46-1.65.39-1.74-1.21-2.01-2.22-.63-2.38-1-4.76-2.05-7.09-5.58-12.35-10.7-9.92-17.75-2.58-.67.7-1.14,1.59-2.09,2.95Z"/><path class="cls-3" d="m241.51,340.42c1.28,11.27-9.3,33.48-21.38,35.76,11.17-9.06,15.76-22.06,21.38-35.76Z"/><path class="cls-3" d="m261.65,371.04c.83,16.38-7.48,30.86-20.33,35.51,12.81-8.39,17.78-21.19,20.33-35.51Z"/><path class="cls-3" d="m345.32,431.96c-.15,3.23-.29,6.46-.44,9.85-2.8-2.21-3.62-10.73-1.23-12.72,1-.83,2.33-1.92,3.94-.54,3.98,3.41,3.46,16.29-1.44,20.12,1.48-5.93,3.3-11.45.74-16.82-.52.04-1.04.07-1.57.11Z"/><path class="cls-3" d="m296.85,429.52c8.16,1.36,9.54,7.85,10.51,14.72.39,2.71-.66,4.85-4.02,5.12-.57-7.14-.18-14.54-6.5-19.84Z"/><path class="cls-3" d="m293.14,467.83c-1.5-5.11-5.13-9.44-4.69-15.11.13-1.6.36-3.22,2.08-3.51,1.75-.29,1.96,1.6,2.33,2.71,1.73,5.21,1.87,10.5.27,15.91Z"/><path class="cls-3" d="m335.89,463.78c-.13.48-.41,1.93-.91,3.3-.47,1.28-1.49,2.51-2.86,2.2-1.48-.33-.6-1.94-.8-2.99-.52-2.73,1.78-6.49-2.85-7.75-.6-.16-1.01-.88-.66-1.61.38-.79,1.07-1.14,1.95-1.3,3.37-.6,6.26,2.72,6.14,8.14Z"/><path class="cls-3" d="m346.89,460.01c2.22-4.1,4.95-3.81,7.29-1.82,2.82,2.4,2.66,6.04.52,8.48-2.49,2.84-5.94,2.17-9.91.14,2.97-2.13,8.45.62,7.54-5.12-.5-3.13-2.86-2.35-5.44-1.69Z"/><path class="cls-3" d="m372.94,458.95c-.17,1.3-.03,2.75-.59,3.86-.92,1.82-2.24,4.85-4.14,4.08-2.15-.87.73-2.8.91-4.39.22-1.96.52-3.92.63-5.89.05-.9-.57-1.7-1.56-1.19-.86.45-1.18,3.18-2.56.58-.61-1.15-.54-2.67.49-3.73,1.02-1.06,2.47-1.13,3.69-.57,3.15,1.45,3.08,4.37,3.14,7.25Z"/><path class="cls-3" d="m360.58,440.22c-1.11-2.33-1.13-4.61.48-6.72,1.02-1.34,2.51-1.52,3.97-.55,2.22,1.49,2.59,3.69,2.14,6.12-.15.81-.19,1.79-.68,2.35-1.73,1.99-1.18,7.03-4.46,5.96-2.13-.7,1.2-4.03,1.86-6.25.23-.79.56-1.56.66-2.37.14-1.09.69-2.63-.77-2.98-1.66-.4-1.43,1.34-1.75,2.34-.23.72.06,1.68-1.46,2.09Z"/><path class="cls-3" d="m327.86,411.49c-4.4,4.3-7.88,1.3-11.11-.42-3.2-1.71-2.53-5.14-2.24-8.05.26-2.7,2.32-2.21,4.18-1.86-4.15,6.06-3.33,7.02,9.17,10.33Z"/><path class="cls-3" d="m331.31,439.17c-11.04-2.08-6.53,7.4-9.61,11.21-3.12-4.21-2.6-10.24,1.4-12.98,2.6-1.77,5.36-1.92,8.21,1.77Z"/><path class="cls-3" d="m335.45,394.05c1.07,4.68,3.7,7.34,7.74,8.59.72.22,1.72-.23,1.72,1.06,0,.89-.21,1.58-1.28,1.78-4.37.81-6.5-2.2-8.82-5-1.72-2.07-2.11-3.97.64-6.43Z"/><path class="cls-3" d="m316.98,467.85c-.5-2.04-1.65-4.21,1.08-5.8,2.28-1.33,4.43-.12,5.9,1.28,1.81,1.74,1.25,4.31.61,6.55-.12.43-1.05.86-1.6.87-.86,0-.77-.83-.8-1.48-.06-1.39.84-3.14-1.17-3.85-2.22-.78-1.64,2.77-4.01,2.42Z"/><path class="cls-3" d="m359.4,413.44c-4.22-2.38-6.48-5.38-5.17-10.12.42-1.53,1.45-2.67,3.23-2.34,2.15.4.87,1.9.94,3.07.18,3.02.62,6.03,1,9.39Z"/><path class="cls-3" d="m305.55,465.64c-3.16-1.12-4.33-5.16-2.37-8.55.8-1.39,2.06-2.59,3.32-3.61,1.21-.97,3.06-2.61,4.19-.6,1.15,2.05-1.59,1.3-2.44,1.99-3.6,2.94-3.72,6.67-2.71,10.78Z"/><path class="cls-3" d="m356.55,414.47c1.29,2.61-1.53,7.51,4.36,7.15.09,0,.5,1.5.36,2.21-.35,1.69-1.82,1.78-3.14,1.59-3-.43-3.73-3.03-4.23-5.32-.49-2.27-.79-4.98,2.66-5.63Z"/><path class="cls-3" d="m382.19,453.98c0-3.19.05-5.17-.02-7.15-.05-1.4.68-3.26-1.31-3.83-2.09-.61-2.14,1.6-3.04,2.62-.32.36-.7.68-1.2,1.16-1.16-2.14-1.7-4.56.4-5.71,1.73-.95,4.52-.76,5.87,1.32,2.25,3.45,1.73,7.01-.71,11.59Z"/><path class="cls-3" d="m335.94,427.67c-3.83,1.94-4.85-1.12-6.13-2.84-1.57-2.11-.49-5.3,2.74-9.26.87,4.37-1.35,9.22,3.39,12.1Z"/><path class="cls-3" d="m205.63,200.98c.25-4.99-.83-8.94,1.58-12.44.81-1.17,2-2.67,3.56-1.42,1.34,1.07.29,2.34-.63,3.34-2.42,2.64-1.18,6.74-4.52,10.52Z"/><path class="cls-3" d="m314.33,431.69q.55-8.49-4.45-10.87c2.62-.55,4.75-1.31,6.21,1.31,1.81,3.22,1.33,6.42-1.76,9.56Z"/><path class="cls-3" d="m261.93,408.3c-.6,5.73-5.42,8.53-8.73,12.33-1.5,1.72-3.53,2.97-5.63,4.17,4.96-5.35,10.05-10.6,14.5-16.39l-.15-.11Z"/><path class="cls-3" d="m262.08,408.41c4.25-5.44,4.55-12.06,5.51-18.84,1.72,9.04-.61,16.57-5.64,18.73-.01,0,.13.11.13.11Z"/><path class="cls-3" d="m257.81,201.08c3.17,1.01,4.72,2.78,4.31,5.88-.13.94-.88,1.52-1.75,1.16-3.06-1.27-2.97-3.88-2.56-7.04Z"/><path class="cls-3" d="m309.53,479.57c-.39,1.24-1.32,1.62-2.23,1.59-2.26-.07-2.97-1.75-3.03-3.62-.04-1.33.54-2.83,2.1-2.81,3.42.04-.2,4.67,3.16,4.84Z"/><path class="cls-3" d="m285.57,470.06c3.45,2.77,1.88,6.74,3.69,9.94q-3.96-2-3.69-9.94Z"/><path class="cls-3" d="m276.51,189.99c1.24,4.03,1.56,7.99-.59,11.79-.94-4.01-1.07-7.96.59-11.79Z"/><path class="cls-3" d="m244.71,240.8c-.86,1.05-1.11,1.45-1.46,1.77-1.74,1.59-3.79,1.68-5.92,1.06-.35-.1-.87-.88-.78-1.05,1.12-2.09,3.44-1.29,5.16-1.99.64-.26,1.52.08,2.99.21Z"/><path class="cls-3" d="m214.73,350.94c2.33-4.01,4.66-8.01,7.01-12.06.12,3.67-1.28,6.43-7.01,12.06Z"/><path class="cls-3" d="m547.79,535.61c-1.57.62-3.1.92-4.38-.08-4.55-3.54-7.65-1.55-10.75,2.29-5.35,6.63-10.8,7.93-17.83,4.68-4.97-2.3-5.96-4.94-3.63-9.82,1.61-3.37,2.9-6.98,5.01-10.01,2.06-2.96,2.77-7.08,7.16-8.3,7.43-2.06,14.76-4.28,23.43-1.58-4.78,2.48-9.19,1.2-13.32,2.14-8.83,2.01-12.46,8.2-15.1,15.73-.27.78-.57,1.55-.86,2.33-.65,1.74-2.88,3.42-.94,5.34,1.97,1.95,4.71,2.58,7.37,1.83,4.7-1.31,7.49-4.75,8.68-9.33.38-1.48.86-2.81,1.64-4.07.59-.95.99-2.38,2.43-1.99,1.16.31.64,1.65.92,2.52,1.01,3.24,2.1,1.12,3.06-.1.78-.99,1.69-1.73,2.9-.99,1.16.7.31,1.61.09,2.56-.83,3.5,3.94,3.5,4.12,6.84Z"/></svg>