<?xml version="1.0" encoding="UTF-8"?><svg id="MARCHE7" xmlns="http://www.w3.org/2000/svg" xmlns:xlink="http://www.w3.org/1999/xlink" viewBox="0 0 1080 1080"><defs><style>.cls-1{fill:url(#Dégradé_sans_nom_5-26);}.cls-1,.cls-2,.cls-3,.cls-4,.cls-5,.cls-6,.cls-7,.cls-8,.cls-9,.cls-10,.cls-11,.cls-12,.cls-13,.cls-14,.cls-15,.cls-16,.cls-17,.cls-18,.cls-19,.cls-20,.cls-21,.cls-22,.cls-23,.cls-24,.cls-25,.cls-26,.cls-27,.cls-28,.cls-29,.cls-30,.cls-31,.cls-32,.cls-33,.cls-34,.cls-35,.cls-36{stroke-width:0px;}.cls-2{fill:url(#Dégradé_sans_nom_5-25);}.cls-3{fill:url(#Dégradé_sans_nom_5-24);}.cls-4{fill:url(#Dégradé_sans_nom_5-15);}.cls-5{fill:url(#Dégradé_sans_nom_5-14);}.cls-6{fill:url(#Dégradé_sans_nom_5-19);}.cls-7{fill:url(#Dégradé_sans_nom_5-18);}.cls-8{fill:url(#Dégradé_sans_nom_5-21);}.cls-9{fill:url(#Dégradé_sans_nom_5-20);}.cls-10{fill:url(#Dégradé_sans_nom_5-22);}.cls-11{fill:url(#Dégradé_sans_nom_5-23);}.cls-12{fill:url(#Dégradé_sans_nom_5-17);}.cls-13{fill:url(#Dégradé_sans_nom_5-16);}.cls-14{fill:url(#Dégradé_sans_nom_5-11);}.cls-15{fill:url(#Dégradé_sans_nom_5-10);}.cls-16{fill:url(#Dégradé_sans_nom_5-12);}.cls-17{fill:url(#Dégradé_sans_nom_5-13);}.cls-18{fill:url(#Dégradé_sans_nom_9);}.cls-19{fill:url(#Dégradé_sans_nom_6);}.cls-20{fill:url(#Dégradé_sans_nom_5);opacity:.72;}.cls-21{fill:url(#Dégradé_sans_nom_5-2);}.cls-22{fill:url(#Dégradé_sans_nom_5-3);}.cls-23{fill:url(#Dégradé_sans_nom_5-9);}.cls-24{fill:url(#Dégradé_sans_nom_5-4);}.cls-25{fill:url(#Dégradé_sans_nom_5-8);}.cls-26{fill:url(#Dégradé_sans_nom_5-7);}.cls-27{fill:url(#Dégradé_sans_nom_5-6);}.cls-28{fill:url(#Dégradé_sans_nom_5-5);}.cls-29{fill:url(#Dégradé_sans_nom_6-2);}.cls-30{fill:url(#Dégradé_sans_nom_6-3);}.cls-32{fill:#afbab1;}.cls-33{fill:#beab9c;}.cls-34{fill:#ee194c;}.cls-35{fill:url(#Dégradé_sans_nom_12);}.cls-36{fill:url(#Dégradé_sans_nom_10);}</style><linearGradient id="Dégradé_sans_nom_5" x1="361.19" y1="628.8" x2="525.4" y2="628.8" gradientUnits="userSpaceOnUse"><stop offset="0" stop-color="#3b2f35"/><stop offset="1" stop-color="#afbab1"/></linearGradient><linearGradient id="Dégradé_sans_nom_5-2" x1="342.09" y1="436.25" x2="342.15" y2="436.25" xlink:href="#Dégradé_sans_nom_5"/><linearGradient id="Dégradé_sans_nom_5-3" x1="342.15" y1="437.11" x2="342.24" y2="437.11" xlink:href="#Dégradé_sans_nom_5"/><linearGradient id="Dégradé_sans_nom_5-4" x1="342.03" y1="435.53" x2="342.09" y2="435.53" xlink:href="#Dégradé_sans_nom_5"/><linearGradient id="Dégradé_sans_nom_5-5" x1="342.24" y1="438.58" x2="342.39" y2="438.58" xlink:href="#Dégradé_sans_nom_5"/><linearGradient id="Dégradé_sans_nom_5-6" x1="342.47" y1="440.76" x2="342.52" y2="440.76" xlink:href="#Dégradé_sans_nom_5"/><linearGradient id="Dégradé_sans_nom_5-7" x1="341.7" y1="431.33" x2="341.72" y2="431.33" xlink:href="#Dégradé_sans_nom_5"/><linearGradient id="Dégradé_sans_nom_5-8" x1="341.78" y1="433.64" x2="342.03" y2="433.64" xlink:href="#Dégradé_sans_nom_5"/><linearGradient id="Dégradé_sans_nom_5-9" x1="341.72" y1="431.52" x2="341.74" y2="431.52" xlink:href="#Dégradé_sans_nom_5"/><linearGradient id="Dégradé_sans_nom_5-10" x1="341.7" y1="431.22" x2="341.7" y2="431.22" xlink:href="#Dégradé_sans_nom_5"/><linearGradient id="Dégradé_sans_nom_5-11" x1="342.52" y1="441.67" x2="342.62" y2="441.67" xlink:href="#Dégradé_sans_nom_5"/><linearGradient id="Dégradé_sans_nom_5-12" x1="341.77" y1="432.07" x2="341.78" y2="432.07" xlink:href="#Dégradé_sans_nom_5"/><linearGradient id="Dégradé_sans_nom_5-13" x1="341.74" y1="431.82" x2="341.77" y2="431.82" xlink:href="#Dégradé_sans_nom_5"/><linearGradient id="Dégradé_sans_nom_5-14" x1="342.39" y1="439.96" x2="342.47" y2="439.96" xlink:href="#Dégradé_sans_nom_5"/><linearGradient id="Dégradé_sans_nom_5-15" x1="343.03" y1="447.28" x2="343.04" y2="447.28" xlink:href="#Dégradé_sans_nom_5"/><linearGradient id="Dégradé_sans_nom_5-16" x1="343.04" y1="447.44" x2="343.06" y2="447.44" xlink:href="#Dégradé_sans_nom_5"/><linearGradient id="Dégradé_sans_nom_5-17" x1="342.94" y1="446.53" x2="343.01" y2="446.53" xlink:href="#Dégradé_sans_nom_5"/><linearGradient id="Dégradé_sans_nom_5-18" x1="343.01" y1="447.07" x2="343.03" y2="447.07" xlink:href="#Dégradé_sans_nom_5"/><linearGradient id="Dégradé_sans_nom_5-19" x1="361.18" y1="508.49" x2="361.19" y2="508.49" xlink:href="#Dégradé_sans_nom_5"/><linearGradient id="Dégradé_sans_nom_5-20" x1="320.67" y1="363.4" x2="504.12" y2="363.4" xlink:href="#Dégradé_sans_nom_5"/><linearGradient id="Dégradé_sans_nom_5-21" x1="342.92" y1="445.99" x2="342.94" y2="445.99" xlink:href="#Dégradé_sans_nom_5"/><linearGradient id="Dégradé_sans_nom_5-22" x1="342.76" y1="444.04" x2="342.77" y2="444.04" xlink:href="#Dégradé_sans_nom_5"/><linearGradient id="Dégradé_sans_nom_5-23" x1="342.71" y1="443.67" x2="342.76" y2="443.67" xlink:href="#Dégradé_sans_nom_5"/><linearGradient id="Dégradé_sans_nom_5-24" x1="342.9" y1="445.73" x2="342.92" y2="445.73" xlink:href="#Dégradé_sans_nom_5"/><linearGradient id="Dégradé_sans_nom_5-25" x1="342.77" y1="444.85" x2="342.9" y2="444.85" xlink:href="#Dégradé_sans_nom_5"/><linearGradient id="Dégradé_sans_nom_5-26" x1="342.62" y1="442.79" x2="342.71" y2="442.79" xlink:href="#Dégradé_sans_nom_5"/><linearGradient id="Dégradé_sans_nom_6" x1="702.61" y1="205.36" x2="542.12" y2="327.74" gradientUnits="userSpaceOnUse"><stop offset="0" stop-color="#3b2f35"/><stop offset=".88" stop-color="#afbab1"/></linearGradient><linearGradient id="Dégradé_sans_nom_6-2" x1="691.37" y1="547.26" x2="441.39" y2="634.44" xlink:href="#Dégradé_sans_nom_6"/><linearGradient id="Dégradé_sans_nom_6-3" x1="735.86" y1="372.57" x2="671.65" y2="394.97" xlink:href="#Dégradé_sans_nom_6"/><linearGradient id="Dégradé_sans_nom_9" x1="774.5" y1="519.85" x2="443.16" y2="396.57" gradientUnits="userSpaceOnUse"><stop offset=".2" stop-color="#3b2f35"/><stop offset=".2" stop-color="#3c3036"/><stop offset=".23" stop-color="#5f5a5b"/><stop offset=".26" stop-color="#7b7c7a"/><stop offset=".29" stop-color="#929792"/><stop offset=".32" stop-color="#a2aaa3"/><stop offset=".36" stop-color="#abb6ad"/><stop offset=".39" stop-color="#afbab1"/></linearGradient><linearGradient id="Dégradé_sans_nom_10" x1="669.41" y1="132.5" x2="802.34" y2="275.51" gradientUnits="userSpaceOnUse"><stop offset=".16" stop-color="#3b2f35"/><stop offset=".16" stop-color="#3c3036"/><stop offset=".2" stop-color="#5f5a5b"/><stop offset=".23" stop-color="#7b7c7a"/><stop offset=".27" stop-color="#929792"/><stop offset=".31" stop-color="#a2aaa3"/><stop offset=".35" stop-color="#abb6ad"/><stop offset=".39" stop-color="#afbab1"/></linearGradient><linearGradient id="Dégradé_sans_nom_12" x1="693.02" y1="204.18" x2="851.16" y2="374.32" gradientUnits="userSpaceOnUse"><stop offset=".19" stop-color="#3b2f35"/><stop offset=".21" stop-color="#64293a"/><stop offset=".24" stop-color="#8e243f"/><stop offset=".27" stop-color="#b02044"/><stop offset=".3" stop-color="#cb1d47"/><stop offset=".33" stop-color="#de1a4a"/><stop offset=".36" stop-color="#ea194b"/><stop offset=".39" stop-color="#ee194c"/></linearGradient></defs><path class="cls-32" d="m777.14,202.07c-2.63-.76-4.24-2.06-5.94-2.41.51-4.35,1.46-8.15,1.3-11.91-.38-8.96-.2-18.17-2.36-26.75-1.36-5.39-5.63-12.66-10.19-14.11-12.58-4.02-26.13-5.06-39.2-1.32-17.77,5.09-35.2,11.24-48.87,24.52-3.81,3.7-6.63,4.72-11.07.61-1.88-1.74-6.5-2.17-8.99-1.12-2.24.95-3.79,4.57-4.68,7.33-.77,2.42.08,5.32-.32,7.92-.26,1.68-1.12,3.62-2.36,4.75-3.92,3.56-8.05,6.91-12.27,10.13-5.77,4.4-11.18,9.72-17.64,12.68-14.09,6.45-29.42,7.66-44.81,8.27-19.56.77-39.09,2.49-58.65,3.06-10.38.3-21.07.26-31.15-1.85-11.4-2.39-22.25.13-33.21.8-1.82.75-4.23.43-6.3.15-5.95-.81-11.49-.79-16.38,3.67-2.66,2.43-5.91,4.3-9.11,6.03-17.97,9.69-33.07,21.83-37.34,43.26-.76,3.82-3,5.82-6.13,7.85-12.95,8.39-22.33,19.43-24.04,35.46-.72,6.77-1.15,13.58-1.4,20.38-.15,4.14-.91,7.72-4.01,10.83-4.7,4.72-7.68,10.58-8.4,17.2-1.3,11.88-3.2,23.82-2.96,35.7.22,10.99-2.51,20.86-7.45,30.06-4.98,9.27-2.1,14.95,3.34,21.08,4.6,5.17,8.66,10.91,12.35,16.78,6.09,9.68,11.32,19.91,17.6,29.45,7.76,11.77,12.32,23.46,8.04,38.1-2.21,7.56-.64,16.18-1.13,24.3-.85,14.15,4.48,25.93,13.16,36.65,1.19,1.47,1.72,3.8,1.82,5.77.43,8.64,2.51,16.9,7.52,23.85,3.02,4.2,3.91,8.21,3.33,13-2.77,22.69,6.73,41.12,23.54,54.71,10.19,8.24,18,15.16,30.48,20.02,1.55.6,5.79,2.85,6.73,4.62,1.48,2.79-.85,8.32.87,10.94,1.81,2.76,4.25,4.93,6.62,7.25,1.56,1.53,6.61.98,8.64,1.6,6.41,1.97,8.56,8.3,11.39,14.57,2.25,4.99,5.39,9.76,8.79,13.9,3.58,4.36,9.97,5.57,14.71,8.79,7.83,5.3,8.72,14.21,6.89,23.05-.54,2.59,2.49,5.82,2.58,8.45.44,12.41-7.16,25.81-6.2,38.18.5,6.54,2.49,14.94,5.59,20.74,3.28,6.13,9.16,32.36,5.56,37.88-9.21,10.79-14.34,27.08-11.15,33.52,3.23,6.53,11.41,20.38,11.98,23.78,1.86,11.16-9.73,30.06-8.26,33.76,4.06,10.24,16.71,3.47,22.87-.4.94-.59,11.09,20.82,30.64-3.3,12.28-15.15-15.82-6.04-14.7-13.38,1.91-12.42,2.82-43.27,4.2-43.1.57-2.04-.03-12.83,2.07-20.87,4.89-18.65,14.4-42.03,15.72-46.76,1.32-4.72,3.24-6.37,4.88-10.97,1.14-3.19,2.18-9.91,3.69-12.99,1.39-2.82,2.73-5.14,4.07-7.99,4.18-8.91,7.22-20.16,11.33-29.11,7.38-16.09,14.28-32.42,22.09-48.29,2.89-5.88,4.8-11.5,4.67-18.02-.12-6.06-.12-12.19.64-18.19.55-4.38,3.49-8.6,3.47-12.89-.02-7.73.86-14.85,3.59-22.27,3.16-8.59,4.01-18.01,6.09-27.01.5-2.19,1.53-4.48,2.95-6.19,6.87-8.3,13.88-16.48,20.98-24.58,18.73-21.35,28.24-45.58,23.97-74.36-.27-1.79.9-4.05,1.98-5.72,3.05-4.73,7.06-8.95,9.52-13.94,6.88-13.97,7.16-28.81,4.53-43.88-.26-1.48.09-3.15.49-4.65,1.16-4.4,2.98-8.68,3.61-13.14.96-6.73.95-13.59,1.71-20.36.75-6.67,2.8-12.79,7.04-18.36,6.05-7.94,8.83-16.97,6.92-27.23-.39-2.07,1.19-4.76,2.43-6.83,2.19-3.66,5.51-6.76,7.13-10.61,5.56-13.21,6.06-26.71.84-40.26-.51-1.33-.37-2.92-.45-4.4-.25-4.97-.34-9.94-.7-14.9-.48-6.54-4.17-19.61-.28-25.86.9-1.44-1.11-1.26-1.07-3.06.07-3.04,5.35.25,8.34.44,5.69.35,9.8-2.4,12.87-7.09.93-1.41,2.4-3.24,3.81-3.43,8.32-1.12,13.91-4.26,18.58-12.4,7.41-12.92,10.36-24.25,4.76-38.94-1.29-3.39.96-6.96,3.52-10.03,3.46-4.15,2.14-7.1-2.83-8.92-2.72-1-5.29-2.41-7.77-3.56,2.43-4.37,5.66-5.82,10.17-5.44,4.33.36,3.98-1.27,4.77-4.4.67-2.68.12-7.09-4.04-8.29Z"/><path class="cls-20" d="m511.42,802.24c.48,2.61-.99,5.29-.9,7.92.44,12.41-5.58,29.38-4.62,41.76.5,6.54,3.2,11.53,4.2,18.04.9,5.89,6.16,14.58,6.5,20.49.7.06.62-3.27,1.32-3.22l7.5-19.98s-.44-30.99-.13-42.38c.31-11.38-1.52-28.65-4.66-36.58-3.15-7.93-28.56-31.71-37.07-42.68-8.51-10.98-37.73-73.57-44.5-87.33-6.77-13.76-24.94-62.87-27.69-80.87-2.75-18.01,0-78.05,0-78.05,0,0,33.19-99.47,47.57-111.27,0,0,52.6-40.1-6.17-9.34-54.89,28.74-87.5,118.07-91.57,129.74,4.7,9.23,6.72,18.81,3.39,30.19-2.21,7.56-.64,16.18-1.13,24.3-.85,14.15,4.48,25.93,13.16,36.65,1.19,1.47,1.72,3.8,1.82,5.77.43,8.64,2.51,16.9,7.52,23.85,3.02,4.2,3.91,8.21,3.33,13-2.77,22.69,7.56,39.55,24.37,53.14,10.19,8.24,20.49,16.46,32.98,21.32,1.55.6,2.47,3.12,3.41,4.9,1.48,2.79.19,7.4,1.92,10.02,1.81,2.76,4.75,4.41,7.12,6.73,1.56,1.53,3.68,3.04,5.71,3.67,6.41,1.97,10.57,6.02,13.4,12.29,2.25,4.99,3.46,10.08,6.86,14.22,3.58,4.36,11.27,6.92,16.02,10.14,7.83,5.3,8.88,15.47,10.37,23.58Z"/><path class="cls-21" d="m342.09,435.92c.02.22.04.43.05.65-.02-.22-.04-.44-.05-.65Z"/><path class="cls-22" d="m342.15,436.57c.03.35.06.71.09,1.07-.03-.35-.06-.71-.09-1.07Z"/><path class="cls-24" d="m342.03,435.14c.02.25.04.52.06.78-.02-.25-.04-.52-.06-.78Z"/><path class="cls-28" d="m342.24,437.65c.05.66.11,1.28.15,1.86-.05-.63-.1-1.25-.15-1.86Z"/><path class="cls-27" d="m342.47,440.41c.02.24.04.48.06.71-.02-.23-.04-.47-.06-.71Z"/><path class="cls-26" d="m341.7,431.25c0,.06,0,.11.01.16,0-.07-.01-.13-.01-.16Z"/><path class="cls-25" d="m341.78,432.15c.09,1.06.17,2.06.25,2.99-.1-1.23-.19-2.28-.25-2.99Z"/><path class="cls-23" d="m341.72,431.41c0,.06.01.14.02.23,0-.08-.01-.15-.02-.23Z"/><path class="cls-15" d="m341.7,431.2s0,.02,0,.05c0-.02,0-.03,0-.05Z"/><path class="cls-14" d="m342.52,441.11c.03.38.06.75.09,1.12-.03-.35-.06-.72-.09-1.12Z"/><path class="cls-16" d="m341.77,432s0,.1.01.15c0-.05,0-.1-.01-.15Z"/><path class="cls-17" d="m341.74,431.64c.01.12.02.24.03.36-.01-.13-.02-.26-.03-.36Z"/><path class="cls-5" d="m342.39,439.51c.02.3.05.6.07.9-.02-.29-.05-.59-.07-.9Z"/><path class="cls-4" d="m343.03,447.2c0,.07.01.12.01.17,0-.05,0-.1-.01-.17Z"/><path class="cls-13" d="m343.04,447.37c.02.21.02.19,0,0h0Z"/><path class="cls-12" d="m342.94,446.13c.03.32.05.59.07.8-.02-.21-.04-.47-.07-.8Z"/><path class="cls-7" d="m343.01,446.93c0,.1.02.19.02.26,0-.08-.01-.16-.02-.26Z"/><polygon class="cls-6" points="361.19 508.49 361.19 508.49 361.18 508.49 361.19 508.49"/><path class="cls-9" d="m504.12,223.85c-8.14.05-16.19-1.28-24.16-1.98-10.08-.89-21.07-2.52-33.21.8-1.9.52-4.23.43-6.3.15-5.95-.81-11.49-.79-16.38,3.67-2.66,2.43-5.91,4.3-9.11,6.03-17.97,9.69-33.07,21.83-37.34,43.26-.76,3.82-3,5.82-6.13,7.85-12.95,8.39-22.33,19.43-24.04,35.46-.72,6.77-1.15,13.58-1.4,20.38-.15,4.14-.91,7.72-4.01,10.83-4.7,4.72-7.68,10.58-8.4,17.2-1.3,11.88-3.2,23.82-2.96,35.7.22,10.99-2.51,20.86-7.45,30.07-4.98,9.27-2.1,14.95,3.34,21.08,4.6,5.17,8.66,10.91,12.35,16.78,6.09,9.68,11.32,19.91,17.6,29.45,1.22,1.85,2.35,3.7,3.38,5.55-4.52-8.5-19.93-37.74-24.41-50.09-5.28-14.53,6.19-24.84,6.19-24.84-2.95-35.52,24.9-56.86,26.74-60.65-.72,4.58-5.05,44.23-.48,7.04.18-1.45.37-3.01.57-4.69,5.95-48.79,53.5-56.24,49.79-62.65-3.7-6.42,8.99-41.8,20.71-53.49,10.11-10.08,52.37-29.06,65.07-32.9Z"/><path class="cls-8" d="m342.92,445.85c0,.09.02.19.02.28,0-.09-.01-.18-.02-.28Z"/><path class="cls-10" d="m342.76,443.98s0,.08.01.12c0-.04,0-.08-.01-.12Z"/><path class="cls-11" d="m342.71,443.35c.02.22.04.43.05.63-.02-.2-.03-.41-.05-.63Z"/><path class="cls-3" d="m342.9,445.6c0,.09.01.17.02.25,0-.08-.01-.17-.02-.25Z"/><path class="cls-2" d="m342.77,444.1c.05.55.09,1.05.12,1.5-.03-.42-.08-.92-.12-1.5Z"/><path class="cls-1" d="m342.62,442.23c.03.4.06.78.09,1.12-.03-.36-.06-.74-.09-1.12Z"/><path class="cls-19" d="m724.83,303.01s4.94,44.6-5.34,46.8c-10.28,2.2-40.37,28.12-97.17,10.21-27.23-8.59-27.53-60.74-27.53-60.74,0,0-10.21-35.29-21.15-40.08-6.56-2.87-7.62-18.91-21.91-27.41-11.33-6.74-79.14-9.69-77.83-9.78s115.72,1.11,126.5-2.34c10.78-3.45,48.89-34.48,45.75-32.51,0,0-1.13,13.95,3.12,21.26,3.31,5.69,11.61-.08-6.16,29.73,0,0-7.65,11.79-1.43,21.72,6.22,9.93,42.58,30.7,45.76,35.23,3.18,4.53,7.54,7.87,18.38,7.56s19.02.37,19.02.37Z"/><path class="cls-29" d="m687.43,555.12s-24.99,16.56-87.49,22.29c-62.5,5.72-189.78-22.29-189.78-22.29,0,0-27.78,75.29,23.95,91.9,51.73,16.61,113.08,21.69,126.13,17.08,13.05-4.61,36.39,7.65,60.03-1.89,56.96-23,64.91-78.11,67.14-107.09Z"/><path class="cls-30" d="m680.8,361.4s12.88,24.43,1.44,37.41c-11.44,12.97-11.95,17.23-10.57,17.52s33.1-1.1,38.13-4.47,18.12-15.21,20.26-21.84c2.15-6.63,1.05-15.51.15-23.72-.9-8.21-3.27-17.04-5.41-15.41s-41.09,12.54-44,10.52Z"/><path class="cls-18" d="m671.13,419.44s-7.5,22.5-3.45,28.78c4.05,6.28,1.58,18.82,1.71,24.22s3.73,14.5-2.91,21.84c-6.64,7.34-7.36,12.73-7.36,12.73,0,0,4.25,25,6.01,34.69,1.76,9.69-8.02,19.84-8.67,22.9-.66,3.06,25.66-5.63,31.34-13.98,5.68-8.35,10.45-20.74,10.45-20.74,0,0-1.98,4.84-1.68-2.26.3-7.09.53-22.21.22-26.13-.32-3.92,1.62-14.44,2.62-17.77,1.01-3.33.69-19.45,3.68-28.07,2.99-8.63,4.94-22.47,8.92-27.57,3.97-5.1,5.6-12.78,5.05-18.02s-42.8,5.99-45.38,6.28"/><path class="cls-36" d="m770.15,161.01s-9.47,6.97-24.58,4.32c-11.03-1.93-48.16-15.43-54.36,31-.86,6.41,11.08,20.08-11.56,31.87-3.27,1.7-11.19-48.64-12.95-52.56-1.76-3.92,10.33-13.92,16.75-16.72,6.43-2.81,19.7-14.05,28.51-13.7,8.8.35,29.37-1.56,36.5-1.09,21.69,1.44,21.69,16.87,21.69,16.87Z"/><path class="cls-35" d="m711.36,230.9c-2.92,2.69-11.89,13.32-12.66,16.07-.77,2.75-3.3,12.88-.77,16.4,2.53,3.52,10.35,12.88,15.08,13.98,4.73,1.1,17.39,3.85,19.92,4.95,2.54,1.1,14.68,1.71,15.87,2.6,1.19.89,12.85,1.89,15.96-2.2,3.1-4.08,8.35-9.17,9.69-12.8s2.36-12.02,2.52-15.46c.16-3.44-2.8-7.77-3.66-11.76-.86-3.99-3.99-7.89-4.49-11.03-.49-3.14-7.53-3.66-10.98-3.42s-16.83.21-19.44,0-14.16-1.86-16.7-1.2-7.43,1.16-10.35,3.85Z"/><circle class="cls-33" cx="734.95" cy="192.85" r="8.09"/><ellipse class="cls-33" cx="761.77" cy="191.48" rx="6.6" ry="5.95"/><path class="cls-31" d="m387.74,636.91c-9.8-4.9-11.18-14.02-11.92-23.53-.13-1.71-.35-3.84-1.39-4.99-15.13-16.73-20.85-36.01-15.87-58.15,1.16-5.14,2.98-10.15,4.72-15.14.39-1.11,1.75-1.89,3.08-2.5-5.59,10.33-5.72,21.58-5.75,32.55-.05,14.73,6.61,27.32,15.6,38.59,5.17,6.48,10.4,13.07,16.52,18.61,5.47,4.96,12.2,8.52,18.36,12.73,12.22,8.35,26.92,10.14,40.36,15.26,7.11,2.71,14.36,5.08,21.55,7.59.78.27,1.59.56,2.4.6,15.37.91,30.75,1.72,46.12,2.72,3.14.2,6.25,1.04,9.34,1.7q11.69,2.49,20.34-4.98c-1.51,1.81-3.02,3.62-4.65,5.56,17.6.94,34.64,1.43,51.59-3.09,8.74-2.33,18.1-2.26,27.1-3.73,3.16-.52,6.48-1.86,9.08-3.73,18.63-13.4,33.42-30.29,41.89-51.68,5.43-13.71,6.36-28.45,3.27-44.02-1.97,1.26-3.54,2.26-6.07,3.87h3.91c.07.29.15.57.22.86-3.34,1.5-6.68,2.99-10.02,4.49-.25-.37-.49-.74-.74-1.11.88-1.2,1.75-2.4,2.74-3.74-.92-.43-1.69-.78-2.48-1.15,31.55-12.6,31.87-38.41,29.13-66.23.58.94,1.49,1.8,1.7,2.82,3.96,19.22,2.9,37.94-10.06,53.52-4.53,5.45-5.53,9.53-4.88,16.21,3.23,33.21-13,58.06-35.8,79.78-3.01,2.87-6.66,5.2-9.16,8.45-2.34,3.03-4.04,6.79-5.15,10.49-3.03,10.15-5.63,20.43-8.32,30.67-.45,1.73-.36,3.59-.73,5.35-1.84,8.74-3.7,17.47-5.71,26.17-.27,1.15-1.4,2.1-3.25,2.81.54-2.37,1.03-4.76,1.63-7.11,1.38-5.46,3.04-10.86,4.17-16.37,1.38-6.73,1.57-13.53,4.99-20,3.4-6.44-.11-11.63-7.32-12.08-9.97-.62-20.01-1.3-29.94-.69-5.05.31-10.18,2.93-14.8,5.38-6.6,3.51-13.04,4.42-20.59,3.63-11.25-1.19-22.51-2.76-34.05,1-13.7,4.47-28.03,7.03-42.12,10.31-9.97,2.32-18.1,7.45-24.24,15.63-1.13,1.5-1.83,3.32-3.34,6.13,4.66-2.91,8.14-5.08,11.62-7.25.23.32.47.64.7.97-3.57,2.79-6.95,5.88-10.76,8.29-3.98,2.52-3.57,4.92-1.66,8.68,3.95,7.77,10.3,12.37,18.04,15.59,4.4,1.83,7.17,4.57,9.74,9.21,5,9.05,9.06,19.54,19.98,23.99,1.92.78,3.56,2.43,5.09,3.93.52.51.31,1.76.43,2.68-.92.09-2.15.6-2.71.2-6.91-5.01-15.33-8.25-18.86-17.17-2.01-5.07-4.73-9.9-7.57-14.57-.99-1.63-3.18-2.73-5.04-3.58-8.36-3.8-15.72-8.67-19.95-17.23-.15-.3-.47-.53-.54-.83-2.32-10.66-12.27-12.95-19.7-18.01-3.24-2.2-6.28-4.71-9.62-6.74-1.11-.67-2.89-.13-4.33-.39-.98-.18-2.28-.5-2.77-1.22-9.27-13.55-20.51-26.13-24.9-42.32-1.81-6.67-.66-14.16-.64-21.28,0-.85,1.4-1.69,2.16-2.54.42,5.04,1.99,10.35.93,15.07-1.27,5.61.18,9.41,3.56,13.32.93,1.08,1.26,2.67,1.89,4.01,1.56,3.33,3.13,6.66,5.04,10.7,3.16-4.25,5.75-7.73,8.34-11.21.45.3.89.6,1.34.89-1.82,3.03-3.82,5.96-5.36,9.12-.72,1.48-.53,3.4-.75,5.11,1.89.22,3.78.45,4.66.55v5.43c2.74-.4,2.14,1.82,2.78,3.26.37.83,1.67,1.24,2.76,1.99,1.43-2.8,2.66-5.2,3.88-7.6-2.5,8.59-2.24,12.11,2.12,11.79.3-.52.95-1.62,1.6-2.73-2.27,3.98-.03,5.32,3.28,6.58.87-2.68,1.67-5.15,2.47-7.62.34.09.68.17,1.02.26-.42,3.11-.84,6.23-1.26,9.34.38.24.76.48,1.14.72,2.2-2.63,4.39-5.26,6.59-7.88l.66.52c-1.66,2.96-3.32,5.92-5.06,9.01,5,3.3,9.61,6.34,14.3,9.44,6.99-14.98,18.99-23.02,34.77-26.48,10.85-2.38,21.48-5.73,32.29-8.32,8.24-1.97,16.6-3.42,24.92-5.06.34-.07.77.3,1.32.54-.79.64-1.36,1.1-2.52,2.04,4.6.45,8.59.84,12.96,1.27-.64-1.7-1-2.66-1.58-4.22,10.02,4.16,19.29,4.84,28.66-.46,4.4-2.49,9.34-4.8,14.25-5.43,9.37-1.21,18.93-.93,28.37-1.73,3.43-.29,6.74-1.9,10.1-2.91-.16-.5-.32-1-.49-1.5-1.73.29-3.46.57-5.18.86-.07-.29-.14-.59-.22-.88,2.72-1.42,5.44-2.84,8.16-4.26-39.27,8.61-78.89,9.84-118.78,7.17h12.6c0-.48,0-.95,0-1.43-1.72-.18-3.44-.41-5.17-.52-21.57-1.46-43.25-2.01-64.68-4.63-16.47-2.01-32.45-7.09-47.38-14.83-6.11-3.17-12.34-6.11-18.51-9.15Zm59.46,18.5c.29-.74.58-1.48.87-2.21-26.89-6.45-51.08-17.63-69.73-39.01.68,4.9,1.64,9.31,3.52,13.29,1.12,2.37,3.36,4.66,5.68,5.94,7.23,4,14.46,8.31,22.21,11.01,12.27,4.29,24.95,7.38,37.46,10.97Zm181.86,11.47c-5.4,2.25-5.8,4.57-1.65,7.85.53-2.53,1.02-4.84,1.65-7.85Z"/><path class="cls-31" d="m562.57,809.8c1.28-8.69,3.33-16.18,3.43-25.7.11-10.72,3.07-30.76,1.98-29.42-2.31-21.75-4.57-43.13-6.84-64.5-.47.05-.94.11-1.41.16.75,11.26,1.49,22.51,2.26,33.77.82,11.95,1.94,23.88,2.44,35.84.7,16.45-2.34,32.8-4.1,49.77-1.16,11.14.47,12.09,2.23.08Z"/><path class="cls-31" d="m504.34,822.82c-3.38,17.31-2.97,33.88,4.24,49.92,2.06,4.58,6.48,9.89,6.9,15.09,1.28.7,2.88.35,3.94-.6-.7-6.84-6.33-14.73-8.28-21.3-3.44-11.61-6.55-20.85-4.39-33.59,1.44-8.46,4.61-20.6,4.09-29.12-.39-6.46-3.41-12.75-5.26-19.12-.43.14-.87.28-1.3.42,1.22,5.99,3.03,11.94,3.48,17.99.41,5.59-2.33,14.79-3.41,20.31Z"/><path class="cls-31" d="m745.57,218.4c-.71-.42-1.31-2.07-.53-1.82,3.63,1.16,6.66.61,10.73.91,4.8.35,9.95-1.2,14.76-1.49,5.05-.31,9.83-4.74,9.45-8.78-.39-4.23-6.27-8.23-11.29-7.67-8.1.9-10.76-.54-14.31-7.87-1.09-2.24-1.95-4.61-3.16-6.78-2.52-4.52-1.84-9.26,2.18-11.44,2.85-1.54,7.46-.51,11.07.29,2.19.49,3.98,2.74,6.39,4.52.38-6.11-2.06-10.83-5.86-14.16-4.17-3.66-9.2-2.72-13.62,1.45-1.2-4.06.5-6.03,3.16-7.5,5.18-2.87,9.25-.68,13.02,3.21-.96-9.22-7.33-14.55-16.56-14.85-5.75-.18-11.49-1.84-17.22-1.77-18.2.25-35.14,5.02-50.3,15.42-.5.34-1.19.42-2.12.73,4.29-5.02,23.27-14.12,30.58-15.61,13.88-2.83,27.76-2.01,41.71-1.16,11.13.68,15.07,8.9,18.05,17.51,4.16,12.02,1.98,24.15-.71,35.76,3.14,1.99,6.82,3.47,9.18,6.13,1.41,1.59,1.17,5.07.93,7.63-.78,8.34-7.91,5.56-12.68,6.74-1.17,3.81,1.06,4.31,3.87,4.59,6.69.67,8.69,3.86,5.19,9.67-2.89,4.79-2.96,8.62-1.42,14.16,3.44,12.39,1.75,24.56-7.63,34.42-2.3,2.42-2.82,7.73-6.72,6.62,1.69-2.42,3.57-5.67,5.98-8.45,8.96-10.33,10.36-21.99,6.3-34.58-.83-2.56-2.5-3.68-3.77-6.12-.64-1.23-1.06-3.76-1.72-4.97-.57-1.03-1.38-2.13-2.37-2.66-2.76-1.46-19.85-.47-22.74-.55-1.45-.04-23.38-2.76-26.5-.01-20.4,9.75-18.05,33.13-13.31,36.84,3.51,5.61,13.94,8.35,17.42,9.68,2.53.97,24.66,8.72,24.54,13.44-2.34-1.67-3.75-3.33-5.43-3.67-1.59-.32-29.59-6.02-33.36-8.37-12.25-7.64-15.53-19.24-13.84-32.84.58-4.63,2.92-7.95,7.21-10.07,5.32-2.62,10.22-6.71,15.81-8.02,6.77-1.59,23.39-.23,24.32-.21,6.18.16,11.79.66,18.35.66,14.85-.08,11.45,3.51,13.99,9.54,1.52-3.61,2.81-5.9,3.37-8.36.22-.95-.96-2.7-1.97-3.33-1.19-.74-3.05-1.18-4.33-.79-2.21.68-3.41.7-4.03-1.36-.45-1.49-.37-3.14-.55-5.07-5.56,1.57-9.04,1.85-14.5,1.53-1.37-.08-3.91-.5-5.01-1.16Zm22.81-32.87c-.21-5.05-3.74-10.7-8.3-11.68-1.89-.41-5.17.26-5.98,1.57-1.17,1.89-1.23,4.97-.61,7.23.26.94,3.44,1.22,5.33,1.55,3.09.54,6.21.87,9.56,1.32Zm-11.45,5.46q1.62,3.67,4.31,5.5c3.11,1.3,5.06-.13,5.68-3.53.61-3.39-2.6-6.86-5.81-6.59-2.86.24-5.14,1.19-4.18,4.63Z"/><path class="cls-31" d="m643.66,190.05c-2.85-6.87-3.62-14.33,2.47-20.25,4.28-4.16,11.02-3.03,18.82,1.93,2.53-2.07,5.17-4.23,7.82-6.4.35.27.69.53,1.04.8-1.99,2.71-3.98,5.42-6.1,8.31.52.7,1.2,1.62,2.05,2.76,2.08-1.45,4.01-2.8,5.94-4.15.17.2.34.41.51.61-1.36,1.55-2.71,3.11-4.86,5.57,2.15-.73,3.31-1.12,5.92-2.01-2.33,2.47-3.61,3.82-5.58,5.91,2.18-.27,3.44-.42,4.7-.57-6.73,4.29,1.52,10.88-2.25,15.03-1.62-5.02-2.73-10.39-5.09-15.14-1.86-3.72-4.95-7.03-8.09-9.85-3.48-3.12-11.09-3.8-12.84-.74-2.22,3.88-3.26,8.9-3.27,13.44-.02,5.15,2.11,10.27,2.51,15.46.63,8.21,1.89,9.84,10.89,10.27-1.95,1.74-3.4,3.05-4.59,4.11-12.07-3.38-8.53-13.57-9.21-23.65-7.18,5.79-13.31,10.65-19.36,15.62-8.77,7.21-18.12,12.63-30,13.11-16.44.67-32.86,1.93-49.27,3.22-4.24.34-8.4,1.77-12.84,2.76.71-.61,1.36-1.15,1.06-.9-23.7-.76-48.18-1.99-72.66-2.14-11.08-.07-22.21,1.67-33.22,3.26-4.3.62-8.67,2.56-12.42,4.87-8.48,5.23-16.59,11.06-24.84,16.67-1.47,1-2.86,2.11-4.29,3.17.35.43.69.86,1.04,1.28,4.5-1.89,9.01-3.77,13.51-5.66.36.36.72.73,1.08,1.09-16.63,3.81-24.93,14.41-26.12,30.81-.52-.14-1.03-.29-1.55-.43.53-3.78.91-7.59,1.61-11.34,2.09-11.2,7.71-20.42,17.37-26.34,11.08-6.79,20.85-16.64,34.75-17.65,16.25-1.19,32.53-2.24,48.81-2.51,12.8-.22,25.62,1.29,38.43,1.19,7.68.25-4.44.87,39.84-1.94,14.6-.95,29.24-1.79,43.77-3.48,9.83-1.14,17.79-7.05,25.65-12.74,6.16-4.47,12.42-8.8,18.89-13.37Z"/><path class="cls-31" d="m714.83,408.49c-24.35,17.96-48.68,11.81-73.04,3.1-.06-.5-.12-.99-.18-1.49,1.24-.19,2.51-.65,3.72-.54,16.03,1.36,32.05,2.83,48.08,4.17,1.77.15,3.76.03,5.37-.65,9.01-3.77,18.75-6.8,24.07-15.87,6.97-11.88,9.99-24.59,4.71-37.98-1.2-3.06-4.07-5.46-7.15-9.43,2.65,1.28,4.88,1.62,5.61,2.84,2.49,4.2,5.58,8.51,6.43,13.14,2.84,15.5-2.14,28.79-13.24,39.89-.93.93-1.88,2.49-1.79,3.67.92,11.24-3.62,20.87-9.06,30.06-3.94,6.65-4.97,13.63-4.61,21.08.45,9.51.96,19.06-4.22,27.69-.86,1.43-2.09,2.63-3.6,3.69,5.65-10.36,4.58-21.72,5.3-32.7.59-9.05,3.41-17.08,7.81-24.95,4.15-7.4,6.7-15.53,5.8-25.75Z"/><path class="cls-31" d="m744.6,294.34c-9.17-1.7-19.79,2.41-25.75-8.25,6.48,6.49,14.82,3.24,22.13,4.94,7.5,1.75,14.54,5.14,22.05-2.64-2.57,6.36-5.78,8.33-11.26,7.32-3.09-.57-4.63-.01-6.18,2.98-4.06,7.86-8.02,9.02-19.34,6.12,1.98,7.06-3.07,13.17-.49,20.63,1.82,5.29.35,11.71-.17,17.7-.91-9.65-.05-19.64-7.52-27.87.68-.21,1.36-.43,2.04-.64.66.7,1.32,1.41,2.52,2.67.68-2.35,1.52-4.15,1.69-6.02.55-6.14-1.53-8.64-7.66-8.95-3.6-.18-7.28.69-10.84.31-5.16-.56-11.15-.42-15.2-3.03-15.31-9.9-30.1-20.63-44.85-31.37-7.7-5.61-9.04-20.1-2.67-30.1-.28,1.98-.3,3.01-.58,3.96-3.28,10.93-.44,19.97,8.8,26.5,8.42,5.95,17.01,11.65,25.62,17.33,6.75,4.45,13.54,8.88,20.53,12.93,1.99,1.15,4.95,1.71,7.16,1.21,8.82-1.99,17.13-.47,25.43,2.46,7.51,2.66,12.2.13,14.55-8.19Z"/><path class="cls-31" d="m364.37,529.87c-1.2-2.31-2.5-4.57-3.57-6.93-2.66-5.85-4.68-12.06-7.92-17.56-7.08-12.02-14.72-23.73-22.23-35.49-3.12-4.89-6.23-9.84-9.85-14.36-3.94-4.92-4.21-10.07-3.1-15.93,1.54-8.15,3.83-15.94,7.56-23.27.41.11.81.22,1.22.33-1.16,4.48-2.33,8.96-3.47,13.45-.73,2.9-1.18,5.88-2.13,8.7-2.68,7.89,1.41,13.8,5.57,19.65,2.5,3.51,5.33,6.79,8.82,11.19.3-1.25.61-2.54,1.07-4.5,4.33,18.03,15.3,30.12,24.41,44.62,1.95-7.85,3.12-14.71,5.4-21.19,2.19-6.21,3.72-12.98,9.26-17.66-5.63,19.14-14.63,37.6-9.18,58.52-.62.15-1.24.29-1.87.44Z"/><path class="cls-31" d="m451.73,400.32c4.13,6.43,10.42,8.65,17.46,10.38,5.04,1.24,9.62,4.38,14.35,6.79,16.08,8.18,32.87,13.85,51.15,12.81,6.2-.36,12.36-2.25,18.44-3.85,7.39-1.94,14.7-4.19,21.97-6.53,3.44-1.11,6.69-2.79,10.08-4.09,1.76-.67,3.62-1.08,5.59-1.18-4.48,5.67-10.71,8.21-17.2,10.18-8.1,2.46-16.38,4.41-24.4,7.09-16.17,5.4-32.01,2.86-47.41-2.38-9.37-3.19-18.05-8.38-27.07-12.6-5.96-2.79-12.16-5.13-17.86-8.36-2.6-1.47-4.26-4.61-6.35-6.99.42-.42.85-.84,1.27-1.26Z"/><path class="cls-31" d="m368.54,285.93c-3.79,4.08-7.8,7.98-11.31,12.29-9.7,11.9-14.25,25.31-11.24,40.79.63,3.25-1.02,5.23-3.12,7.97-4.55,5.93-9.12,12.8-10.57,19.91-2.4,11.75-2.33,24-3.3,36.03-.08.97-.11,1.94-1.28,3.26-.68-1.84-1.92-3.67-1.95-5.52-.21-15.35-.14-30.74,7.54-44.7,2.11-3.85,5.46-7,7.99-10.64.96-1.37,2-3.41,1.68-4.83-4.05-17.74.88-32.82,13.36-45.59,3.5-3.58,7.68-6.51,11.54-9.73.22.25.45.5.67.75Z"/><path class="cls-31" d="m398.37,440.85c1.46.22,2.13.32,3.47.52-8.17,4.49-13.91,10.31-17.28,18.55-.83,2.03-3.91,3.13-6.43,5.02.45-5.14,37.28-52.84,43.72-56.15-1.34,1.73-2.76,3.39-3.99,5.19-3.03,4.43-5.83,9.02-8.97,13.36-3.27,4.51-6.84,8.81-10.52,13.51Z"/><path class="cls-31" d="m703.58,192.9c1.05-7.28,1.36-14.77,3.35-21.79,2.05-7.24,9.19-8.14,15.48-8.61,6.92-.52,11.78,3.83,15.99,9.03-3.16-1.25-6.26-2.69-9.49-3.71-11.92-3.76-21.82,3.02-22.67,15.44-.22,3.25-.41,6.51-.62,9.76-.68-.04-1.36-.08-2.05-.13Z"/><path class="cls-31" d="m728,188.65c1.68-5.19,5.81-5.41,10.12-4.73,4,.63,7.48,4.9,7.45,8.87-.05,4.78-2.46,7.91-7.2,8.74-3.72.66-7.57,1.42-10.38-2.49-2.61-3.64-2.51-6.67,0-10.15-.14.98-.17,1.58-.3,2.56-.46,3.66.64,6.88,4.18,8.06,3.33,1.1,8.75.06,9.98-3.96.87-2.84.9-5.35-.78-7.67-2.04-2.8-7.45-2.66-10.48-.53-.78.55-1.73.87-2.6,1.3Z"/><path class="cls-31" d="m530.05,422.26c-3.52,3.8-16.93,3.68-22.35-.2,7.82-5.49,14.52-5.43,22.35.2Z"/><path class="cls-31" d="m593.75,585.82c-.84.94-1.68,1.88-2.48,2.77,3.76,5.64,3.19,7.22-1.84,11.87-1.67,1.54-1.83,4.72-2.85,7.65-.54-.23-1.38-.6-2.23-.96,2.68-4.89-2.04-10.75,2.03-15.46,2.06-2.38,4.15-4.74,6.22-7.11.38.41.77.83,1.15,1.24Z"/><path class="cls-31" d="m606.67,773.45c9.01-12.06,13.09-25.08,8.22-40.9,8.51,8.7,4.51,33.73-8.22,40.9Z"/><path class="cls-31" d="m448.05,383.56c-5.52,6.05-11,12.14-16.58,18.14-2,2.15-4.22,4.09-6.99,5.44,8.84-13.18,19.69-24.36,31.89-34.24.38.34.76.67,1.13,1.01-1.58,1.62-3.17,3.23-4.75,4.85-1.62,1.65-3.24,3.31-4.86,4.96,0,0,.16-.16.16-.16Z"/><path class="cls-31" d="m669.39,404.48c9.14-2.96,16.99-6.56,25.71.58-8.92,2-16.65.07-25.71-.58Z"/><path class="cls-31" d="m605.13,401.2c-1.46.89-2.48,1.5-3.49,2.12-.35-.34-.71-.67-1.06-1.01,1.1-1.22,2.04-3.19,3.33-3.46,1.37-.28,4.19.82,4.4,1.76.52,2.36.67,5.37-.42,7.36-1.53,2.8-5.68,2.84-9.15.97q7.24-3.21,6.39-7.74Z"/><path class="cls-31" d="m667.63,197.93c-2.61-13.5-8.44-20.63-17.07-21.8,8.3-3,17.82,8.39,17.07,21.8Z"/><path class="cls-31" d="m655.76,195.11c1.2-1.74,2.48-3.59,4.13-5.99,3.5,1.84,3.13,5.69,3.69,9,.01.08-2.48,1.11-3.33.7-1.57-.75-2.79-2.24-4.49-3.71Z"/><path class="cls-31" d="m589.14,350.88c-1.34-4.28-1.19-8.09,2.25-10.19,1.82-1.12,5.08-.79,7.3,0,1.28.45,1.78,3.11,2.87,5.26-2.51-1.72-4.12-3.75-5.83-3.83-5.66-.28-3.95,5.53-6.58,8.77Z"/><path class="cls-31" d="m381.24,511.73c-2.02,2.75-4.04,5.5-6.06,8.25l.61.75c1.72-1.23,3.45-2.45,5.17-3.68.21.23.41.46.62.69-3.79,3.29-7.59,6.58-11.38,9.87-.36-.28-.71-.56-1.07-.84,3.6-5.31,7.2-10.62,10.8-15.93l1.31.89Z"/><path class="cls-31" d="m716.75,187.15c-.44-8.69,5.75-14.2,16.18-14.29-3.6,1.77-7.25,2.78-9.78,5.04-2.65,2.38-4.21,5.97-6.4,9.25Z"/><path class="cls-31" d="m736.15,216.93c2.84,6.44,4.96,5.65,12.85,3.96-1.05.97-9.04,4.13-12.63,1.12,0,0-3.19-1.97-1.79-5.1.3-.67,1.27-.66,1.57.02Z"/><path class="cls-31" d="m607.28,394.57c6.43-3.27,7.33-6.54,4.08-13,3.44-.02,5.46,1.81,5.4,4.9-.1,4.93-4.01,8.59-9.48,8.1Z"/><path class="cls-31" d="m615.38,373.68c1.5-1.2,2.92-3.27,4.53-3.43,3.27-.32,5.05,1.86,5.24,5.24.24,4.25-.95,6.05-3.59,6.63-.13-2.89-.27-5.93-.41-8.97-1.61.37-3.23.74-4.84,1.11-.31-.2-.62-.39-.93-.59Z"/><path class="cls-31" d="m645.36,333.99c-7.92,3.17-8.1,3.37-8.29,9.01,1.22-.37,2.3-.69,3.62-1.1.73,3.78-1.81,4.24-4.01,3.77-1.02-.21-2.4-2.53-2.27-3.75.61-5.84,3.35-7.9,10.95-7.94Z"/><path class="cls-31" d="m613.85,325.6c-.8,1.41-1.72,4.07-2.36,4.01-2.05-.21-4.76-.88-5.84-2.37-2.46-3.38-.08-9.84,3.57-11.97-.65,2.56-1.71,5.33-1.9,8.16-.09,1.37,1.47,2.86,2.29,4.29,1.1-.81,2.21-1.61,3.31-2.42.31.1.62.2.93.3Z"/><path class="cls-31" d="m633.25,384.91c6.31-4.36,6.54-4.9,2.84-8.77-.32,1.31-.58,2.34-1.03,4.19-.83-1.28-1.71-2.1-1.55-2.5.51-1.29,1.42-2.43,2.17-3.62,1.48,1.02,4.08,1.92,4.21,3.09.23,2.09-.59,4.66-1.83,6.41-.73,1.02-3.14.85-4.8,1.21Z"/><path class="cls-31" d="m447.89,383.71c4.37-2.17,8.74-4.34,12.42-6.17-1.14,2.88-10.9,10.24-16.78,11.78,1.63-2.08,3.08-3.92,4.53-5.76,0,0-.16.16-.16.16Z"/><path class="cls-31" d="m595.84,390.81c-2.5,1.96-3.6,2.81-4.69,3.66-.34-.28-.67-.57-1.01-.85,1.17-1.4,2.11-3.45,3.59-3.99,1.19-.43,3.54.54,4.51,1.65,2.08,2.39,1.34,5.54-1.5,9.22-.25-2.73-.51-5.52-.9-9.68Z"/><path class="cls-31" d="m721.71,215.49c-9.78-.83-11.6,10.22-19.42,12.71,7.55-10.82,13.16-14.55,19.42-12.71Z"/><path class="cls-31" d="m618.12,360.15c-.92,1.34-1.62,3.48-2.82,3.81-1.59.43-4.02,0-5.26-1.06-2.03-1.71-1.31-6.57.47-8.79.78,2.42,1.63,5.09,2.49,7.77,1.27-.75,2.54-1.49,3.8-2.24.44.17.88.34,1.31.52Z"/><path class="cls-31" d="m630.59,406.38c1.89-1.69,4.05-3.61,6.21-5.54-1.5-.49-3-.98-4.5-1.46-.15-.34-.31-.69-.46-1.03,1.7-.4,3.82-1.59,4.99-.97,1.26.66,2.33,3.05,2.25,4.62-.19,3.64-5.51,5.75-8.49,4.38Z"/><path class="cls-31" d="m632.97,320.42c-7.38,5.94-8.4,10.13-2.68,13.7-2.68,0-5.13.32-5.24-.05-.58-1.93-.99-4.12-.64-6.08.71-3.99,2.98-6.77,8.57-7.56Z"/><path class="cls-31" d="m749.36,254.92c2.63-1.68,5.27-3.36,8.49-5.42-.31,2.44.16,5.64-1.07,6.57-1.54,1.17-4.49.46-6.83.56-.19-.57-.39-1.14-.58-1.71Z"/><path class="cls-31" d="m616.67,335.33c-3.7.26-8.63-1.67-9.17,4.38-.07.81,1.88,1.79,3.45,3.19-.52.3-1.63,1.49-2.55,1.35-.92-.14-2.46-1.77-2.31-2.45.51-2.43.98-5.6,2.67-6.84,1.86-1.37,5.06-.94,7.67-1.29.08.55.16,1.11.24,1.66Z"/><path class="cls-31" d="m646.94,356.79c-1.13,3.1-2,6.32-3.5,9.23-.59,1.15-2.86,2.44-3.86,2.12-1.43-.46-2.41-2.35-3.18-3.94q4.1,3.16,9.3-7.81c.42.13.83.27,1.25.4Z"/><path class="cls-31" d="m651.26,224.71c-5.81-.06-10.93-4.76-11.34-9.79,3.44,2.97,7.35,6.35,11.34,9.79Z"/><path class="cls-31" d="m748.8,284.92c.52.39,1.05.78,1.62,1.21,2.28,1.7,5.18,2.38,7.98,1.86.66-.12,1.29-.26,1.78-.38-.56,1.26-3.85,2.69-4.12,2.68-2.39-.07-2.86-.34-5.13-.98-.6-.17-2.19-1.9-2.48-3.19.25-.31.09-.89.34-1.19Z"/><path class="cls-31" d="m627.35,344.38c-.57,1.99-.58,4.57-1.88,5.8-1.07,1.01-3.76.81-5.53.36-.9-.23-1.36-2.21-2.66-4.56q5.89,3.16,10.07-1.59Z"/><path class="cls-31" d="m513.15,833.4c-.88-5.3,1.2-9.3,6.08-11.87-2.03,3.96-4.05,7.92-6.08,11.87Z"/><path class="cls-31" d="m669.54,389c3.44,1.79,3.08,4.92,1.75,7.45-1.79,3.41-4.38,6.43-9.88,6.24,8.86-4.35,11.24-8.85,8.13-13.7Z"/><path class="cls-31" d="m625.83,355.9c1.62,1.71,3.74,3.2,4.68,5.23.58,1.24-.19,3.74-1.22,4.89-.8.89-2.95.58-5.05.88,2.05-2.03,4.53-3.47,4.4-4.59-.23-1.93-2.09-3.66-3.26-5.47.15-.31.3-.62.46-.94Z"/><path class="cls-31" d="m623.89,410.28c-2.45,1.3-4.9,2.6-7.34,3.91-.17-.23-.35-.46-.52-.69,1.05-.96,2.1-1.92,3.75-3.43h-6.92c0-.18,0-.36-.01-.54h10.66c.13.25.26.5.39.75Z"/><path class="cls-31" d="m654.33,383.14c3.68,1.51,4.85,4.41,3.34,7.84-1.34,3.05-3.38,5.92-8.41,4.55,8.06-3.56,9.09-6.64,5.07-12.39Z"/><path class="cls-31" d="m652.19,336.99c3.67,6.05,5.54.2,7.84-.79l.84.96c-1.56,1.47-2.93,3.3-4.75,4.26-.85.45-2.81-.51-3.84-1.35-.52-.43-.09-2.01-.09-3.08Z"/><path class="cls-31" d="m383.9,494.41c-2.59,2.36-5.17,4.72-7.76,7.07-.28-.28-.56-.55-.84-.83,2.43-2.54,4.87-5.09,7.3-7.63.44.46.87.93,1.31,1.39Z"/><path class="cls-31" d="m600.64,381.1c-1.19-.89-3.09-2.03-2.98-2.28.63-1.42,1.68-3.63,2.69-3.69,1.88-.1,3.84,1.09,5.33,2.68-1.6-.25-3.2-.49-4.8-.74-.06,1.07-.13,2.14-.24,4.02Z"/><path class="cls-31" d="m671.67,375.65c-1.53,1.31-2.88,3.22-4.64,3.75-1.34.4-3.21-.95-5.29-1.68,3.67-1.03,6.35-1.77,9.02-2.52.3.15.61.3.91.45Z"/><path class="cls-31" d="m644.67,320.45c-1.57.12-3.52.86-4.62.19-1.25-.75-1.75-2.76-2.58-4.22.35-.21.7-.42,1.05-.64,1.99,1.11,3.97,2.22,5.96,3.34.06.44.13.88.19,1.32Z"/><path class="cls-31" d="m650.49,403.18c2.64,1.6,5.36,3.25,8.03,4.87-4.38,2.41-6.94.85-8.03-4.87Z"/><path class="cls-31" d="m568.46,817.72c-3.69-3.08-3.2-6.11,1.19-8.01-.38,2.55-.76,5.11-1.19,8.01Z"/><path class="cls-31" d="m502.8,677.92c3.03-1.4,6.06-2.79,9.35-4.3h-21.46c13.28-4.13,26.83-3.08,40.49-1.64-2.63.55-5.25,1.09-7.88,1.64.02.27.04.54.07.81,1.54.25,3.09.5,5.99.97-9.59,1.45-17.85,2.7-26.1,3.94-.15-.47-.31-.95-.46-1.42Z"/><path class="cls-31" d="m352.93,536.03c-7.54,5.15-8.45,11.27-8.61,18.07-.16,6.93-1.32,13.83-1.94,20.76-.22,2.47-.13,4.98-.27,7.46-.05.93-.04,2.41-.57,2.68-3.81,2.02-7.75,3.79-12.13,5.86,1.52-10.18,2.97-19.6,4.31-29.03.4-2.79.73-5.64.68-8.45-.13-7.66,2.62-14.3,6.83-20.47,2.33-3.41,3.38-6.74,2.43-11.14-1.01-4.66-1.12-10.07,3.86-12.97,2.04-1.19,5.07-.62,7.63-.99,7.28-1.05,9.29,5.41,13.02,9.24,8.01,8.2,17.22,14.51,27.58,19.41,26.32,12.44,54.02,20.95,82.2,27.52,18.22,4.25,37.07,5.76,55.63,8.53,5.09.76,10.13,2.23,15.23,2.42,11.45.43,22.93.47,34.38.27,6.3-.11,7.33-1.53,7.85-7.66,1.12-13.09,2.23-26.17,3.44-39.25.33-3.58-.26-6.01-4.69-5.39-.93.13-2.46.02-2.82-.55-3.01-4.72-7.54-2.62-11.58-2.87-20.74-1.24-41.55-1.88-62.2-4.02-18.65-1.93-37.38-4.42-55.6-8.69-14.47-3.39-28.17-9.98-42.29-14.91-26.44-9.23-49.56-24.21-71.5-41.17-12.17-9.41-21.46-21.26-26.99-35.79-2.23-5.85-.57-12.06,4.06-14.59,2.55-1.39,5.39-2.54,6.29,2.1,3.03,15.77,12.1,28.15,24.11,37.8,14.26,11.45,27.31,24.9,45.33,31.08,4.83,1.66,9.33,4.38,13.8,6.92,13.3,7.57,27.77,11.78,42.45,15.64,28.42,7.48,57.34,11.58,86.63,13.18,6.3.34,12.65-.45,18.96-.22,6.96.25,13.92.85,20.83,1.73,3.19.41,5.09.13,6.86-3.01,1.56-2.76,4.1-5.38,6.85-6.95,3.05-1.74,4.9-3.77,5.4-7.1,2.3-15.27,4.55-30.55,6.85-45.82,1.06-7.01,2.19-14.01,3.37-21.52-13.29,1.14-26.03,3.33-38.57-.18-.04-.45-.09-.9-.13-1.35,1.49-.31,3.04-.46,4.46-.98,1.49-.54,3.57-1.08,4.14-2.23,3.01-6.17,8.63-6.62,14.33-7.21,4.45-.46,8.88-1.22,13.33-1.6,3.81-.33,5.3-2.34,5.79-5.98,1.31-9.71,2.88-19.38,4.13-27.62-3.33-4.22-5.91-7.48-8.49-10.74.38-.44.77-.89,1.15-1.33-8.72-1.08-17.48-1.94-26.16-3.3-13.46-2.11-26.93-4.25-40.28-6.95-26.86-5.44-53.46-12.59-80.53-16.5-21.56-3.11-41.64-9.77-61.54-17.73-5.07-2.02-9.76-5.01-14.54-7.7-1.43-.8-3.02-1.84-3.78-3.2-4.53-8.09-8.96-16.25-13.12-24.54-.71-1.42-.51-3.82.21-5.33,1.84-3.88,4.19-7.52,5.84-10.37,1.76,5.75,3.59,12.38,5.83,18.87,2.21,6.39,7.07,10.55,13.19,12.84,20.09,7.51,40.11,15.29,60.49,21.92,17.35,5.65,35.09,10.18,52.82,14.59,9.95,2.48,20.17,4.01,30.35,5.4,11.99,1.64,24.09,2.46,36.09,4.02,10.3,1.34,20.52,3.27,30.79,4.84,1.86.28,3.81.04,6.18.04-4.21-9.79-7.81-19.27-12.28-28.31-8.54-17.27-17.18-34.53-26.56-51.35-6.77-12.14-14.52-23.77-22.44-35.21-3.05-4.4-7.63-7.81-11.85-11.27-1.46-1.2-4-.99-5.9-1.78-1.7-.71-3.66-1.59-4.6-2.99-.62-.93-.12-3.23.67-4.4,4.61-6.87,9.78-6.74,15.68.11,4.99,5.79,9.68,11.93,15.22,17.16,8.81,8.32,16.81,17.26,21.86,28.24,4.35,9.46,7.26,19.58,11.16,29.26,4.27,10.62,8.87,21.1,13.45,31.59,3.72,8.52,7.63,16.96,11.17,24.8,3.86-.2,7.52-.39,11.19-.57.27.51.54,1.02.81,1.53,6.11-8.65,12.17-17.34,18.34-25.95,8.57-11.96,18.66-22.46,30.48-31.28,2.18-1.63,4.44-2.5,5.91.05.8,1.38.57,4.16-.35,5.54-1.71,2.58-4.11,4.79-6.49,6.84-13.19,11.33-25.41,23.44-33.9,38.89-1.88,3.42-4.81,6.26-7.25,9.37.12.52.23,1.03.35,1.55,4.46.17,8.96.76,13.38.43,21.56-1.59,43.11-3.36,64.65-5.23,4.56-.4,8.78-1.76,10.89-6.67,1.61-3.76,4.41-2.53,5.4.02.87,2.25,1.01,6.42-.37,7.62-4.91,4.24-10.16,9.12-16.13,10.88-8.12,2.39-17.01,2.57-25.59,2.9-17.78.7-35.58.96-53.38,1.19-4.05.05-4.6,3.28-5.28,5.59-2.68,9.08-4.89,18.29-7.08,27.51-.29,1.21.2,2.95.94,4,1.49,2.09,3.4,3.88,5.15,5.8h18.52c.43,2.1.71,3.45.98,4.76,6.08,1.32,12.07,2.62,18.07,3.92.04.49.08.97.12,1.46-1.36.54-2.7,1.5-4.07,1.55-10.27.33-20.55.59-30.83.61-3.66,0-8.95,3.93-9.37,7.63-1.64,14.2-2.87,28.47-5.04,42.59-1.23,8-3.89,15.8-6.1,23.63-.91,3.23.83,4.65,2.44,7.24,5.4,8.7,12.67,4.96,19.25,4.12,7.73-.99,15.36-2.93,22.93-4.88,10.76-2.78,21.38-6.06,32.13-8.88,6.06-1.59,10.98-4.63,14.08-10.06.9-1.58.64-3.82.91-5.8,8.39,2.67,10.31,9.32,5.07,15.61-10.32,12.38-24.25,17.36-39.45,20.06-5.39.96-10.68,2.52-16.09,3.29-9.19,1.31-18.43,2.17-27.65,3.29-2.47.3-4.97.66-7.35,1.34-6.06,1.73-7.28,4.07-6.15,10.22,2.31,12.59-1.12,24.06-7.13,34.99-.95,1.72-1.76,3.5-3.06,6.08,12-3.2,23.63-.34,35-4.69,8.8-3.37,19.03-2.83,28.33-5.17,7.17-1.8,13.91-5.31,20.81-8.16,2.96-1.22,5.82-2.69,8.62-4.14.78,1.06,1.21,7.51-1.82,11.49-3.74,4.91-8.51,8.6-14.74,9.52-23.48,3.46-46.96,6.89-70.5,9.94-4.1.53-5.56,2.1-6.52,5.81-4.8,18.5-9.7,36.98-14.92,55.36-1.47,5.19-4.16,10.04-6.68,15.95,1.52-.79,3.07-1.07,3.54-1.94,2.28-4.21,6.37-3.58,8.52-1.57,4.73,4.41,9.9,3.04,15,2.57,6.77-.62,13.56-1.45,20.2-2.85,5.32-1.12,10.48-3.07,15.6-4.97,2.43-.9,5.48-3.58,6.77-.26.98,2.5.2,7.72-1.63,8.9-5.33,3.43-11.37,6.74-17.51,7.71-10.47,1.65-21.22,1.56-31.86,2-3.42.14-5.3,1.55-6.87,4.6-1.76,3.43-4.39,6.42-6.86,9.92.7.1,1.46.4,2.15.29,12.63-2.01,24.82.99,37.08,3.16,6.1,1.08,10.92,12.05,7.32,17.06-.84,1.17-3.04,1.63-4.68,1.81-.47.05-1.59-2.01-1.69-3.16-.66-7.46-4.56-11.38-12.13-11.16-10.9.32-21.79,1.07-32.69,1.52-4.1.17-8.21.03-12.47.03v6.44c-4.27-2.44-7.61-4.39-11-6.26-1.51-.83-3.13-2.1-4.69-2.09-9.94.07-19.88.78-29.8.62-8.87-.14-17.15,1.54-25.12,5.33-8.08,3.85-16.51,7.05-24.3,11.4-9.64,5.37-14.73,14.59-18.23,24.73-.36,1.04-.34,2.21-.52,3.49,1.97.36,3.67.67,6.15,1.12-1.04,1.64-1.75,2.76-2.73,4.31,2.56.68,5.04,1.34,7.53,2,0,.31,0,.61,0,.92-1.86.2-3.93,1.02-5.53.48-4.67-1.6-9.48-3.24-13.53-5.92-1.66-1.1-2.73-5.36-1.99-7.43,5.11-14.2,11.36-27.55,26.36-34.52,11.17-5.19,22.84-7.86,34.9-9.5,5.43-.74,11.03-1.36,16.12-3.21,9.47-3.43,18.36-.9,27.41,1.2.78.18,1.55.41,2.98.8-3.71-7.23-7.12-13.89-10.4-20.28-3.16.95-6.49,1.96-9.81,2.96-.36-.59-.72-1.18-1.08-1.77,1.52-1.48,2.89-4,4.58-4.23,4.29-.6,6.12-3.32,7.67-6.64,1.81-3.88,4.27-4,7.62-1.81,4.32,2.83,6.34,6.41,7.18,11.75.96,6.07,3.89,11.84,6.18,17.65.28.7,2.23,1.51,2.87,1.19,5.2-2.56,11.61-3.65,13.19-10.86-1.18,1.84-2.37,3.68-3.55,5.51-.57-.47-1.13-.95-1.7-1.42,1.64-2.65,3.28-5.3,5.05-8.16-4.68,0-9.07.64-13.12-.26-2.11-.47-3.88-3.5-5.19-5.73-.29-.5,2-2.47,3.06-3.81,1.81-2.29,3.95-4.42,5.3-6.95,11.72-21.88,16.93-45.99,23.87-69.44-10.85.54-21.44,1.19-32.03,1.54-3.63.12-7.28-.7-10.93-.76-5.73-.09-11.48.38-17.19.11-13.43-.63-27.04-.43-40.23-2.65-14.7-2.47-28.98-7.33-43.5-10.97-3.52-.88-7.29-.78-10.81-1.64-4.77-1.17-9.48-2.68-14.12-4.32-18.43-6.52-35.39-15.82-49.94-26.27-5.32.95-9.72,1.73-14.97,2.66.6,2.05,1.5,4.93,2.28,7.84.51,1.88,1.43,3.9,1.14,5.7-.7,4.32-1.95,8.56-3.07,12.81-.93,3.52-2.62,6.99,1.95,9.59.65.37.31,3.58-.43,5.04-1.19,2.36-1.1,3.34.73,5.79,2.9,3.88,9.26,5.1,9.11,11.38-.01.54,1,1.25,1.68,1.63,13.46,7.47,27.27,14.36,40.34,22.45,18.62,11.52,38,21.25,58.6,28.65,7.36,2.64,14.58,5.66,21.75,8.78,1.32.57,2.05,2.48,3.06,3.78-1.44.46-2.91,1.36-4.32,1.28-3.14-.19-6.32-.63-9.37-1.4-14.96-3.81-30-7.34-44.77-11.77-19.46-5.83-37.1-15.53-53.03-28.06-4.34-3.41-7.54-8.35-10.93-12.85-2.71-3.59-5.45-6.25-10.49-5.91-3.99.27-6.81-.55-6.96-6.3-.21-7.71-2.51-15.36-3.75-23.06-.36-2.26-.34-4.62-.2-6.92.65-10.16,1.41-20.31,2.21-31.75Zm113.64,33.34c8.98,4.97,40.6,10.06,48.25,7.22-15.81-2.36-31.61-4.73-48.25-7.22Zm-55.21,57.87c-7.9-4.88-15.17-9.37-22.43-13.86l-.82,1.14c6.38,5.33,12.75,10.66,19.4,16.21.97-.88,2.04-1.85,3.86-3.5Zm269.44-127.88c13.71-2.12,20.76-6.47,21.31-12.33-3.07,2.24-6.19,4.92-9.69,6.94-3.68,2.13-7.73,3.62-11.62,5.39Zm-108.52-143.63c-.04.25-.07.49-.11.74,8.96,1.18,17.93,2.37,26.89,3.55.08-.75.17-1.49.25-2.24-9.01-.68-18.02-1.37-27.03-2.05Zm-134.32,291.29c-4.76-6.64-11.22-9.16-15.56-6.18,5.1,2.02,9.7,3.85,15.56,6.18Zm198.41-134.58c.07.35.14.7.21,1.05,9.03-1.8,18.07-3.61,27.1-5.41l-.21-1.07c-9.03,1.81-18.07,3.63-27.1,5.44Zm-240.35-34.22c.19-.43.38-.87.58-1.3-5.8-3.42-11.6-6.85-17.4-10.27-.31.57-.63,1.14-.94,1.72,5.92,3.28,11.85,6.57,17.77,9.85Zm62.48,175.18c.14-.34.29-.68.43-1.02-6.38-2.95-12.77-5.89-19.15-8.84-.24.57-.49,1.14-.73,1.71,6.48,2.72,12.97,5.43,19.45,8.15Zm-121.82-218.19c-.39.38-.78.76-1.17,1.14,3.72,3.96,7.44,7.91,11.17,11.87.41-.4.81-.8,1.22-1.19-3.74-3.94-7.48-7.88-11.22-11.82Zm50.88,185.84c.38-.43.77-.87,1.15-1.3-4.28-1-2.85-9.62-10.88-6.99,3.67,3.12,6.7,5.71,9.73,8.29Zm21.74,13.85c2.71,1.29,5.25,2.5,9.03,4.3-4.71-7.98-5.4-8.27-9.03-4.3Zm297.79-279.79c.09.45.19.9.28,1.35,4.04-.81,8.08-1.62,12.12-2.42-.08-.35-.16-.7-.23-1.06-4.05.71-8.11,1.42-12.16,2.13Z"/><path class="cls-31" d="m506.55,861.92c-3.82-1.51-9.78-.4-13.73-.97-5.65-.81-7.61,4.45-10.14,8.19-1.19,1.76-1.24,4.48-2.68,5.82-1.72,1.6-4.38,2.19-6.64,3.21-.3-2.15-1.61-4.94-.73-6.33,3.39-5.28,7.28-10.28,11.47-14.97.98-1.1,3.83-.53,6.28-.77,2.53-4.58,4.29-4.73,8.91-.95,1.97,1.61,6.87-.29,9.32-.06,16.02,1.49,45.86-.07,61.92.95,1.87.12,3.86-1.57,5.19-3.41-17.99-2.43-40.05-4.83-58.01-7.51-6.25-.93-15.11.69-16.04-7.08-.46-3.82.81-7.85,1.91-11.99,2.42,6.65,10.94,2.4,15.52,3.81,6.6,2.03,13.61,2.72,20.78,3.48-4.89-2.8-9.95-5.34-14.61-8.47-6.47-4.34-12.9-8.8-18.85-13.8-4.55-3.82-4.31-9.21.62-13.69.89,4.33.97,7.49,3.99,9.64,12.57,8.95,25.05,18.04,37.81,26.72,2.14,1.46,5.47,1.29,8.29,1.57,1.44.14,2.95-.53,4.43-.58,7.15-.22,17.82-1.61,23.47-6.42.99-.84,2.9-.59,4.39-.84-.1,1.55.41,3.67-.42,4.54-3.07,3.24-6.57,6.06-10.19,9.29,2.35-1.02,4.54-1.96,6.7-2.9,1.73,4.75.52,8.63-3.66,11.22-.83.52-1.77.87-2.66,1.3,3.15,6.19-6.08,8.99-4.17,15.15.4,1.28-1.77,4.57-3.29,4.98-3.6.98-11.63,1.26-15.33.81-10.37-1.26-20.66-3.18-31.01-4.61-5.21-.72-22.5,5.36-27.71,4.9.81,5.08,1.52,9.59,2.25,14.12-8.27.87-10.05-.93-9.04-8,.3-2.09.41-4.29.08-6.36-.71-4.43,2.48-7.9,6.97-7.31,2.14.28,6.56-3,8.72-2.82,8.54,6.28,27.68-.11,36.72.27l.11-1.32c-9.06-.59-27.89,1.76-36.95,1.17Zm38.23-20.1c-12.6-3.54-27.46-3.7-40.07-7.24-.14.48-.27.97-.41,1.45,11.29,8.31,26.98,5.46,40.47,5.79Zm28.36,23c-.45-.37-.9-.74-1.35-1.11-8.58.65-21.2,1.17-29.78,1.82,0,.45-.01.91-.02,1.36,7.88.5,19.78,1.29,27.67,1.46,1.14.02,2.32-2.3,3.49-3.54Z"/><path class="cls-31" d="m343.39,336.42c1.07,4.52,1.9,8.02,2.73,11.51.26.03.53.05.79.08.3-1.09.6-2.18,1.25-4.55,2.36,2.95,4.58,5.09,6.02,7.66,6.4,11.4,16.17,19.54,27,26.01,7.45,4.45,16.11,6.99,24.41,9.86,14.89,5.15,29.94,9.85,44.88,14.88,3.76,1.27,7.52,2.76,10.93,4.75,1.83,1.07,2.6,3.94,4.42,5.05,3.2,1.96,6.79,3.34,10.32,4.71,2.53.98,5.31,1.32,7.78,2.4.78.34,1.28,2.18,1.2,3.28-.04.48-2.04,1.38-2.86,1.13-6.11-1.83-12.12-3.97-18.2-5.89-7.84-2.47-15.59-6.1-23.61-6.93-12.57-1.31-25.6-.94-37.01-6.62-13.49-6.7-27.11-13.89-38.85-23.17-12.07-9.54-24.26-20.14-28.22-36.36-.46-1.88.66-4.71,2.01-6.3,1.01-1.2,3.54-1.12,5.04-1.51Z"/><path class="cls-31" d="m482.05,767.05c-2.53-1.79-4.63-3.39-6.84-4.82-9.24-5.95-10.49-14.72-2.1-21.65,5.62-4.64,12.26-8.26,18.88-11.43,18.32-8.8,38.21-10.88,58.11-11.83,14.55-.69,29.19-.22,43.77.36,10.33.41,19.62,4.53,28.16,10.31,3.31,2.24,3.16,5.69,1.98,8.47-.78,1.85-3.45,3.36-5.59,4.07-2.25.75-3.13-.69-2.54-3.21,1.37-5.82-.28-8.21-6.03-9.05-6.84-1.01-13.68-2.21-20.56-2.69-4.06-.28-8.28.31-12.29,1.13-10.08,2.06-20.22,2.23-30.45,2.76-9.95.52-19.73,4.29-29.61,6.47-2.88.63-5.88.99-8.82,1-9.22.05-16.87,4.49-24.57,8.67-2.57,1.4-4.72,3.61-6.96,5.57-2.76,2.42-3.04,4.44.79,6.32,4.97,2.45,4.88,2.62,4.67,9.55Z"/><path class="cls-31" d="m540.46,759.58c10.37-.6,19.1-1.36,27.86-1.55,7.31-.16,14.65.03,21.93.65,8.36.71,14.94,5.34,20.35,11.38,1.27,1.42,1.23,4.4,1.09,6.61-.18,2.81-3.21,3.54-5.56,1.93-3.86-2.66-7.66-5.65-11.94-7.42-16.82-6.94-34.36-7.17-51.97-4.05-7.62,1.35-15.15,3.51-22.52,5.92-3.54,1.15-6.92,3.35-9.82,5.74-3.01,2.49-3.08,6.19-1.27,9.57,1.65,3.09,2.78,6.26-1.04,8.08-3.53,1.68-5.32-1.33-6.86-4.03-4.9-8.59-4.37-12.38,3.09-18.75,11.01-9.4,23.89-13.8,36.67-14.08Z"/><path class="cls-31" d="m599.93,796.42c-1.44,16.36-14.71,20.22-25.13,26.58-5.71,3.49-12.27,5.61-18.56,8.06-1.25.49-1.52.41-3.04.2.43-1.63,6.64-12.76,7.69-13.54,4.77-3.53,1.77.83,7.09-1.7,8.93-4.24,17.27-9.1,24.51-15.92,1.9-1.79,4.86-2.45,7.44-3.68Z"/><path class="cls-31" d="m700.21,413.72c3.08-1.3,6.27-2.39,9.2-3.98,2.52-1.37,4.66-3.4,7.1-4.94,1.02-.65,2.53-1.32,3.52-1.02.98.3,2.19,1.79,2.22,2.79.04,1.26-.72,3.41-1.62,3.71-6.45,2.15-13.02,3.94-19.55,5.83-.29-.8-.58-1.6-.86-2.4Z"/><circle class="cls-31" cx="733.35" cy="193.66" r="2.67"/><circle class="cls-31" cx="760.36" cy="192.85" r="2.67"/><path class="cls-34" d="m756.53,146.22c6.55,2.09,10.58,7.4,12.5,13.8,2.18,7.25,3.45,14.97,3.44,22.53,0,4.8,0,9.99-2.02,14.45-.34.76.78,1.42,1.12.66,1.88-4.14,2.13-8.84,2.19-13.32.07-5.31-.35-10.54-1.39-15.76-1.13-5.69-2.27-11.8-5.73-16.6-2.43-3.38-5.81-5.75-9.77-7.01-.8-.26-1.14,1-.35,1.25h0Z"/><path class="cls-34" d="m777.68,202.55c1.38,2.12,2.02,4.93,1.51,7.42-.26,1.25-.82,2.41-1.77,3.29-1.17,1.07-2.75,1.49-4.3,1.59-.83.05-.84,1.35,0,1.3,2.67-.17,5.25-1.25,6.56-3.7,1.14-2.13,1.18-4.71.62-7.01-.3-1.24-.8-2.46-1.5-3.54-.45-.7-1.58-.05-1.12.66h0Z"/><path class="cls-34" d="m775.92,225.82c.06,0,.13,0,.19,0,.02,0-.08,0,.05.02-.11-.02-.02-.02.04.03-.04-.03,0-.02.05.06-.06-.09.1.21.07.14.06.15.1.32.12.48.12.73-.01,1.72-.17,2.52-.4,2.06-1.12,4.19-2.28,5.95-.23.35-.49.68-.81.97-.11.1-.2.17-.38.26-.03.02-.17.06-.23.06-.83.02-.84,1.32,0,1.3.9-.02,1.6-.68,2.12-1.35.75-.96,1.28-2.06,1.73-3.18.48-1.19.87-2.44,1.1-3.71.2-1.04.34-2.14.15-3.19-.17-.89-.77-1.73-1.77-1.63-.83.08-.83,1.38,0,1.3h0Z"/><path class="cls-34" d="m743.73,296.4c-.06,1.76-1.39,3.31-2.71,4.34s-3.14,1.94-4.83,1.64c-.82-.15-1.17,1.11-.35,1.25,2.14.38,4.3-.58,5.97-1.87,1.66-1.29,3.15-3.17,3.22-5.36.03-.84-1.27-.84-1.3,0h0Z"/><path class="cls-34" d="m720.92,319.19c3.97,6.68,7.18,15.01,2.64,22.24-.45.71.68,1.36,1.12.66,4.79-7.63,1.57-16.47-2.64-23.55-.43-.72-1.55-.07-1.12.66h0Z"/><path class="cls-34" d="m726.31,343.1c1.53,1.56.53,4.29-.54,5.82-.2.29-.05.72.23.89.32.19.69.06.89-.23,1.43-2.04,2.3-5.39.34-7.39-.59-.6-1.51.32-.92.92h0Z"/><path class="cls-34" d="m727.9,358.23c.88,2.87,2,5.68,2.73,8.6.81,3.23.96,6.59.59,9.89-.77,6.89-4.09,13.06-7.66,18.88-.44.71.68,1.37,1.12.66,3.62-5.91,6.93-12.13,7.79-19.11.41-3.32.31-6.7-.42-9.97-.71-3.17-1.95-6.2-2.9-9.29-.24-.8-1.5-.46-1.25.35h0Z"/><path class="cls-34" d="m710.29,433.19c-2.61,7.36-8.44,13.26-9.93,21.07-1.58,8.29,1.88,16.79-.77,24.94-1.34,4.12-3.78,7.82-5.97,11.53-.43.72.7,1.38,1.12.66,1.95-3.3,4.02-6.56,5.47-10.12,1.35-3.31,1.88-6.83,1.74-10.4-.18-4.71-1.03-9.38-.63-14.11.36-4.16,2.05-7.94,4.09-11.53,2.17-3.83,4.64-7.51,6.13-11.69.28-.79-.97-1.13-1.25-.35h0Z"/><path class="cls-34" d="m706.49,480.94c4.46,5.69-3.81,11.8-7.8,14.83-.66.5-.01,1.63.66,1.12,4.8-3.65,13.25-10.26,8.06-16.87-.52-.66-1.43.27-.92.92h0Z"/><path class="cls-34" d="m698.02,502.61c-.99,1.93-.59,4.23-.19,6.26.44,2.24,1.18,4.54.99,6.84-.07.83,1.23.83,1.3,0,.18-2.17-.44-4.36-.88-6.46-.39-1.84-1-4.2-.08-5.98.38-.74-.74-1.4-1.12-.66h0Z"/><path class="cls-34" d="m698.82,518.35c.22,2.49-.46,4.88-.86,7.31-.06.35.09.7.45.8.31.09.74-.11.8-.45.41-2.54,1.14-5.06.9-7.66-.03-.35-.28-.65-.65-.65-.33,0-.68.3-.65.65h0Z"/><path class="cls-34" d="m696.64,530.95c-.63,4.06-2.68,7.81-4.95,11.17-2.29,3.39-4.99,6.57-8.1,9.24-.64.55.29,1.46.92.92,3.19-2.74,5.95-6.02,8.3-9.5,2.32-3.44,4.43-7.33,5.08-11.48.13-.82-1.13-1.17-1.25-.35h0Z"/><path class="cls-34" d="m681.67,565.74c-2.77,7.76-.01,16.21-1.67,24.14s-3.94,16.31-8.84,22.82c-.5.67.62,1.32,1.12.66,4.92-6.53,7.15-14.91,8.89-22.78,1.77-8.03-1.06-16.66,1.74-24.5.28-.79-.97-1.13-1.25-.35h0Z"/><path class="cls-34" d="m690.1,552.14c.78,1.77.1,3.73-.71,5.36-.85,1.71-1.97,3.28-2.81,5-.36.75.76,1.41,1.12.66,1.73-3.56,5.37-7.45,3.52-11.66-.34-.76-1.45-.1-1.12.66h0Z"/><path class="cls-32" d="m559.89,998.95s5.12.33,5.28.83,4.46,2.48,1.82,4.79-1.49,2.48-4.46,1.98-5.4-.72-5.4-.72l-2.41-2.96,5.17-3.91Z"/><path class="cls-31" d="m562.07,999.58c2.84-.66,6-1.56,6.25,2.86.21,3.66-2.04,5.46-5.64,5.41-1.49-.02-3.18.07-4.42-.58-5.05-2.62-9.73-1.18-14.89-.07-3.31.71-7.3-1.64-10.97-2.71-1.8-.52-3.6-1.89-5.3-1.74-3.57.32-7.13,1.21-10.6,2.2-5.73,1.63-13.29-4.36-11.78-10.02,1.26-4.74,3.38-9.4,5.9-13.63,4.7-7.9,4.77-16.22,2.79-24.62-.6-2.54-3.42-4.53-5.14-6.84-2.12-2.85-5.64-5.63-5.96-8.7-1-9.72.49-19.1,6.75-27.4,2.58-3.42,4.84-7.85,5.2-12,.95-10.91.1-21.46-4.5-32.1-6.47-14.96-9.03-30.89-3.51-47.18,1.25-3.7,1.28-7.84,1.64-11.81.4-4.44.52-8.91,1.84-13.51.25,2.14.57,4.28.72,6.42.66,9.08,1.19,18-.97,27.16-3.13,13.26.8,25.96,5.62,38.36,1.79,4.61,3.99,9.42,4.21,14.22.39,8.38-.39,16.85-1.15,25.24-.21,2.27-1.65,4.83-3.3,6.51-6.52,6.65-7.75,15.01-7.54,23.57.07,2.71,2.63,5.4,4.22,8,2.03,3.32,5.38,6.29,6.13,9.84,1.98,9.39,2.05,18.84-3.5,27.51-1.77,2.77-3.08,5.92-4.12,9.06-1.74,5.26-.45,6.79,5.84,7.29.25-3.75-2.61-8.74,2.67-10.41.98,3.63,1.9,7.06,2.82,10.48.56-.02,1.12-.04,1.69-.05.33-4.58-1.15-9.98,4.75-12.2v10.47c.38.06.75.13,1.13.19,1.4-3.1,2.8-6.21,4.2-9.31.72.14,1.43.29,2.15.43-.18,2.72-.45,5.43-.51,8.15-.03,1.31.34,2.62.52,3.93,1.3-.73,3.38-1.17,3.77-2.24,1.57-4.3,2.62-8.79,5.02-13.52.3,2.5,1.12,5.07.81,7.49-.86,6.59,1.67,8.98,8.25,7.27,4.46-1.16,8.63-7.72,7.68-12.03-.58-2.65-1.91-4.22-4.9-3.55-8.17,1.84-15.22-.25-19.38-7.58-2.34-4.12-3.79-9.24-4.03-13.99-1.3-25.53.55-50.87,6.08-75.89.86-3.89,1.73-7.84,1.92-11.8.16-3.31-1.52-6.88-.79-9.95.66-2.79,4.34-4.8,5.21-7.61,5.21-16.85,9.99-33.83,14.92-50.76.18-.61.46-1.18,1.48-1.62-.42,2.8-.85,5.6-1.28,8.45,2.92-1.39-.15-4.84,2.73-6.21.22.48-3.26,14.64-3.04,15.12-6.28,3.33-.63-3.75-2.62,3.61-7.7,28.48-13.71,57.31-17.29,86.52-2.08,16.94-1.71,34.2-2.02,51.32-.08,4.59.41,9.71,6.93,12.59.67-15.85,1.72-31,1.81-46.16.07-11.86,4.32-22.3,8.3-33.11,9.66-26.23,22.05-50.41,31.25-76.8.26-.75,18.76-42.33,20.03-42.93-.27,1.94-17.22,40.06-17.8,41.91-9.66,30.77-21.49,64.79-34.47,94.52-1.99,4.55-2.3,10.03-2.55,15.11-.51,10.46-.19,20.97-.74,31.43-.25,4.76-1.72,9.47-2.69,14.19-.63,3.04.4,4.21,3.63,4.13,13.33-.34,17.43,6.79,10.96,18.82-.15.28-.18.63-.27.95-1.69,1.07-3.38,2.13-5.07,3.2.55.78,1.09,1.56,1.64,2.34,2.43-.38,4.87-.76,7.3-1.15-.06-.53-.11-1.05-.17-1.58-1.27-.96-2.55-1.92-3.82-2.88Z"/><path class="cls-31" d="m567.41,829.05c-3.24,3.52-5.41,5.86-7.98,8.65-.82-2.88-.18-5.62,2.11-7.42,1.33-1.04,3.65-.82,5.87-1.24Z"/><path class="cls-31" d="m524.87,838.53c-1.12-1.76-3.01-3.39-2.84-4.77.26-2.11,1.94-4.04,3.95-5.37-.32,2.91-.64,5.82-1.12,10.14Z"/><path class="cls-31" d="m535.5,847.11c-2.25,4.01-3.78,6.75-5.31,9.49-.28.04-.55.08-.83.12.3-2.1.1-4.48,1.07-6.22.79-1.42,2.97-2.07,5.07-3.39Z"/><path class="cls-31" d="m557.14,880.98c-1.11,2.79-2.27,5.72-3.39,8.55-2.84-4.6-1.35-8.15,3.39-8.55Z"/></svg>