<?xml version="1.0" encoding="UTF-8"?><svg id="_2" xmlns="http://www.w3.org/2000/svg" xmlns:xlink="http://www.w3.org/1999/xlink" viewBox="0 0 1080 1080"><defs><style>.cls-1{fill:url(#Dégradé_sans_nom_74-4);}.cls-1,.cls-2,.cls-3,.cls-4,.cls-5,.cls-6,.cls-7,.cls-8,.cls-9,.cls-10,.cls-11{stroke-width:0px;}.cls-2{fill:url(#Dégradé_sans_nom_74-3);}.cls-3{fill:url(#Dégradé_sans_nom_74-6);}.cls-4{fill:url(#Dégradé_sans_nom_74-5);}.cls-5{fill:url(#Dégradé_sans_nom_74-2);}.cls-6{fill:url(#Dégradé_sans_nom_4);}.cls-8{fill:#beaa9a;}.cls-9{fill:#f01048;}.cls-10{fill:url(#Dégradé_sans_nom_74);}.cls-11{fill:url(#Dégradé_sans_nom_81);}</style><linearGradient id="Dégradé_sans_nom_74" x1="323.34" y1="963.38" x2="286.87" y2="256.94" gradientUnits="userSpaceOnUse"><stop offset="0" stop-color="#aeb9b0"/><stop offset="1" stop-color="#413139"/></linearGradient><linearGradient id="Dégradé_sans_nom_74-2" x1="543.06" y1="964.22" x2="505.08" y2="228.57" xlink:href="#Dégradé_sans_nom_74"/><linearGradient id="Dégradé_sans_nom_74-3" x1="752.04" y1="969.82" x2="714.72" y2="246.86" xlink:href="#Dégradé_sans_nom_74"/><linearGradient id="Dégradé_sans_nom_81" x1="859.61" y1="519.93" x2="911.94" y2="541.06" gradientUnits="userSpaceOnUse"><stop offset="0" stop-color="#aeb9b0"/><stop offset=".58" stop-color="#f01048"/><stop offset="1" stop-color="#413139"/></linearGradient><linearGradient id="Dégradé_sans_nom_74-4" x1="552.34" y1="61.75" x2="528.02" y2="902.66" xlink:href="#Dégradé_sans_nom_74"/><linearGradient id="Dégradé_sans_nom_74-5" x1="311.19" y1="181.21" x2="309.65" y2="234.56" xlink:href="#Dégradé_sans_nom_74"/><linearGradient id="Dégradé_sans_nom_74-6" x1="346.38" y1="178.62" x2="344.57" y2="241.04" xlink:href="#Dégradé_sans_nom_74"/><linearGradient id="Dégradé_sans_nom_4" x1="877.85" y1="507.57" x2="894.14" y2="565.59" gradientUnits="userSpaceOnUse"><stop offset="0" stop-color="#883046"/><stop offset=".18" stop-color="#a72646"/><stop offset=".4" stop-color="#c71d47"/><stop offset=".62" stop-color="#dd1647"/><stop offset=".82" stop-color="#eb1247"/><stop offset="1" stop-color="#f01148"/></linearGradient></defs><path class="cls-10" d="m260.14,566.78c-3.31,3.31-3.78,16.53-3.31,18.89s.15,15.89-1.81,21.64c-1.96,5.75.4,19.45-.07,24.17-.47,4.72,0,26.92.94,30.7s8.5,25.03,9.92,25.98,1.89,32.12,3.31,39.2c1.42,7.08,6.14,48.65,6.61,56.68.47,8.03,4.72,29.28,2.83,31.64s-5.2,11.34-10.86,13.22c-5.67,1.89-8.97,9.45-18.89,17-9.92,7.56-17,12.75-18.42,17.95s11.34,9.92,15.11,10.39c3.78.47,8.03,6.14,14.17,5.67,6.14-.47,13.22,2.36,17-8.97,3.78-11.34.94-10.86,7.08-16.06s14.17-15.11,17-17.95,10.39-7.56,6.61-12.28c-3.78-4.72-11.81-9.92-10.39-17.48s3.78-12.28,5.2-18.42,3.31-25.03,2.83-29.28-1.89-17-1.89-22.2-3.78-48.17-3.31-52.43,5.67-23.14,7.56-31.64,12.75-30.7,14.64-35.89c1.89-5.2,3.31-11.34,5.2-11.34s5.2-.94,5.2,2.83,4.72,25.98,5.2,27.39,3.31,18.89,3.31,21.73-8.03,19.84-7.56,22.67-2.83,11.81-4.72,19.84-5.67,19.84-8.97,27.39c-3.31,7.56-11.81,21.25-11.81,21.25,0,0-8.5,6.61-8.03,10.39s5.2,26.45,5.67,28.34,6.14,20.31,5.67,23.62,2.83,4.25,4.72,3.78,6.61-3.31,10.39-4.25c3.78-.94,5.67,1.89,8.03-1.89s5.67-7.56,8.03-10.86c2.36-3.31-3.78-16.06-5.67-20.31s-9.09-15.47-6.14-21.73c4.28-9.08,23.14-32.59,23.14-32.59,0,0,16.06-33.06,17.95-35.42s14.17-20.31,14.17-20.31c0,0,3.78-25.03,4.25-26.92s2.83-24.56,2.83-31.17-.94-18.89-1.42-31.17c-.47-12.28-7.56-25.98-11.34-31.17-3.78-5.2-47.23-30.7-55.73-30.23s-36.37-2.83-36.37-2.83l-30.23,20.78.47,31.64"/><path class="cls-5" d="m475.27,570.09c-2.13,11.34,1.42,30.46,1.42,36.13s-6.38,27.63-5.67,35.42c.71,7.79,2.83,19.84,4.96,24.8,2.13,4.96,7.08,14.88,8.5,19.84s0,37.55,2.83,42.51,6.38,44.63,7.79,53.13,3.54,27.63,2.83,31.17-.71,9.21-7.08,12.04c-6.38,2.83-12.75,12.04-18.42,16.29s-17.71,17.71-20.55,25.5c-2.83,7.79-2.13,13.46,5.67,11.34s7.79-3.54,14.88-1.42c7.08,2.13,14.88-.71,19.13-4.96s2.83-12.75,9.92-18.42,14.88-10.63,18.42-16.29,9.92-4.96,4.96-12.75c-4.96-7.79-12.04-10.63-6.38-23.38,5.67-12.75,7.08-37.55,5.67-42.51s-4.25-32.59-4.25-32.59c0,0,2.13-21.96.71-29.76-1.42-7.79-3.54-23.38.71-29.76s9.21-24.09,12.04-31.88,9.92-25.5,9.92-25.5c0,0,4.25-9.92,6.38-4.25,2.13,5.67,2.83,25.5,4.25,27.63s4.25,19.13,2.83,29.76-4.96,25.5-7.79,36.84c-2.83,11.34-9.21,31.88-13.46,39.67-4.25,7.79-22.67,7.08-24.8,19.13s9.92,40.38,12.04,45.34,5.67,12.04,12.04,10.63,12.75-3.54,16.29-4.96c3.54-1.42,8.5-4.96,11.34-12.04,2.38-5.94-14.2-27.85-19.6-34.75-1.03-1.32-1.66-2.09-1.66-2.09,0,0,.71,2.83,7.08-4.25,6.38-7.08,14.88-19.13,17-21.96s10.63-19.13,12.75-22.67,14.88-23.38,18.42-28.34c3.54-4.96,12.75-21.25,12.75-26.92s.71-43.22,1.42-46.05,1.42-9.21.71-29.05c-.71-19.84-9.92-42.51-21.25-52.43-11.34-9.92-60.93-43.22-77.93-29.05-17,14.17-38.26,68.01-38.26,68.01v5.67"/><path class="cls-2" d="m697.73,533.25c-.66.44-1.32,1.06-1.99,1.84-7.89,9.22-15.72,39.96-15.72,39.96l.71,41.09s-4.25,32.59-3.54,36.84,9.21,29.05,11.34,32.59c2.13,3.54,1.42,13.46,2.13,21.25.71,7.79,5.67,33.3,6.38,44.63s4.25,39.67,4.25,46.05,2.13,19.13-2.13,24.09c-4.25,4.96-14.88,17.71-19.13,20.55-4.25,2.83-11.34-4.96-14.88,11.34-3.54,16.29-4.96,21.96,4.96,24.09s14.88,14.17,24.8,1.42c9.92-12.75,10.63-15.59,17.71-26.92,7.08-11.34,9.92-15.59,14.17-19.84s7.08-12.04,1.42-13.46c-5.67-1.42-7.79-8.5-5.67-14.17,2.13-5.67,7.08-14.17,7.08-14.17,0,0-2.13-42.51-2.83-46.05s-.71-38.96-.71-45.34-.71-33.3.71-35.42,12.75-21.25,14.17-29.76,5.67-24.8,5.67-24.8c0,0,3.54,4.96,7.08,1.42,3.54-3.54,4.96,2.13,4.96,9.21s9.21,31.17,7.79,38.26c-1.42,7.08-9.92,32.59-12.04,39.67s-7.08,29.05-11.34,36.84c-4.25,7.79-6.38,13.46-10.63,14.88-4.25,1.42-14.17,4.25-13.46,12.75s14.17,21.96,13.46,24.09,0,10.63,0,10.63c0,0,2.83,11.34,2.83,14.17s5.67,4.96,7.79,3.54c2.13-1.42,8.5-8.5,10.63-7.08,2.13,1.42,7.79,0,11.34-3.54,3.54-3.54,9.92-5.67,4.96-11.34s-10.63-13.46-13.46-21.96c-2.83-8.5-4.25-15.59,0-20.55,4.25-4.96,12.75-23.38,18.42-30.46,5.67-7.08,17-23.38,21.25-28.34,4.25-4.96,11.34-13.46,14.88-27.63,3.54-14.17,2.83-24.09,2.83-34.01s1.42-24.8,1.42-33.3v-34.01c0-6.38-1.42-18.42-5.67-32.59-4.25-14.17-36.84-23.38-56.68-21.25-19.84,2.13-46.76,9.92-51.01,15.59-4.25,5.67-5.58,10.27-5.58,10.27"/><path class="cls-7" d="m311.62,598.69c4.56,1.09,5.43,4.77,9.11,4.03.23-4.95-4.62-7.65-5.09-12.55,2.51.56,3.49,2.73,4.52,4.68,3.23,6.16,3.19,6.18,8.9,3.37,2.15,3.52-5.95,2.92-2.75,6.32,1.97,2.09,4.32-1.29,7.21-1.03-.89,16.75,4.6,32.4,8.81,48.29.75,2.85,1.73,5.81.39,8.48-5.95,11.88-6.92,25.29-11.78,37.54-2.63,6.63-3.56,13.93-5.37,20.9-2.6,9.97-5.94,19.27-12.86,27.6-6.86,8.26-7.14,18.88-5.55,29.66,1.47,9.89,2.73,19.82,4.19,29.73,1.11,7.54,1.9,8.54,8.9,6.61,2.27-.63,4.1-1.45,4.82-3.78.83-2.65-1.88-2.96-2.99-4.33-1.76-2.16-5.9-3.03-3.92-7.62,3.96,2.83,7.91,5.33,11.41,8.35,1.22,1.05,1.74,2.91,3.8,2.53,1.63-.3,2.4-1.51,2.47-3.11.09-2.05-.38-3.83-2.54-4.71-1.47-.6-2.91-1.26-5.27-2.29,2.98-.97,4.93-1.65,6.91-2.24,8.99-2.66,9.37-4.05,2.29-10.72-5.94-5.6-4.65-10.6-6.51-18.08-2.13-8.51,1.41-15.59,5.52-20.9,11.8-15.29,19.38-33.03,29.83-49.06,3.63-5.56,7.07-11.25,10.63-16.85.73-1.15,2.35-2.16.93-3.63-1.02-1.06-2.23-.23-3.21.51-5.37,4.04-11.39,2.82-17.44,2.28q2.64-2.33,9.15-2.61c9.63-.41,21.38-11.48,21.54-21.08.34-20.98,3.47-41.74,4.57-62.66.45-8.54.32-17.04-1.07-25.53,3.09,8.92,3.04,18.14,2.79,27.29-.56,20.45-.91,40.94-2.45,61.32-.6,7.88-4.64,15.6-9.59,21.85-13.5,17.04-21.66,37.07-32.49,55.58-4.94,8.44-10.55,16.65-16.95,24.01-3.39,3.89-2.6,6.48-1.13,10.2,4.09,10.34,12.75,17.31,18.92,26.11,1.73,2.47,5.44,4.61,3.14,7.98-2.1,3.09-5.33,6.05-9.73,4.47-3.06-1.11-4.58-.45-5.26,2.59-.27,1.2-.67,2.89-1.92,2.69-6.94-1.11-11.12,5.02-17.2,6.26-7.87,1.61-12.18-2.23-10.72-10.23.26-1.4,1.25-2.75,1.22-4.11-.07-3.56-1.53-7.46-4.81-8.12-3.46-.69-2.77,3.82-3.48,5.97-1.53,4.62-2.33,9.88,1.32,13.76,12.91,13.7,4.84,19.89-5.13,29.02-3.18,2.91-6.29,5.91-9.38,8.91-1.18,1.15-2.77,2.74-2.09,4.37,2.73,6.57-2.37,10.59-5.25,14.72-5.97,8.56-17.95,11.43-28.16,8.94-11.95-2.91-23.79-9.04-36.54-2.94-.18.09-.68-.5-1.09-.82.15-3.01,3.2-2.38,4.71-3.66,1.17-.98,2.56-1.68,1.45-3.35-4.63-6.95,1.32-9.24,5.59-10.16,5.62-1.21,8.43-4.48,12.07-8.38,7.6-8.13,15.67-16.14,25.33-21.87,9.89-5.86,14.47-13.83,11.7-24.99-4.47-17.99-2.58-36.49-5.08-54.64-2.66-19.31-4.18-38.78-6.6-58.13-1.17-9.36-7.5-17-9.74-26.12-.67-2.74-2.37-5.31-2.36-8.25.09-16.62-.82-33.24,2.71-49.74,1.95-9.12,2.39-18.49.3-27.86-.92-4.13,2.18-8.15,1.05-12.76,2.3,1.27,3.4,2.32,2.47,4.73-.66,1.73-.81,3.83-.6,5.7.28,2.51-1.07,6.1,1.58,7.29,3.05,1.37,3.61-3.21,7.26-4.57-2.4,3.22-4.35,5.54-5.95,8.08-2.05,3.26-5.55,6.31-.81,10.5,2.26,2-1.69,3.44-1.83,5.5-.21,3.16-3.75,7.93,4.68,7.22-7.97,5.35-5.87,13.29-6.52,20.15-1.23,12.86-3.62,26.09,1.7,38.48,2.9,6.76,4.66,15.35,15.03,16.85-6.03.83-6.33,4.24-6.09,8.78,1.17,21.65,5.35,42.91,7.83,64.38,2.04,17.67,3.4,35.42,5.15,53.13.47,4.71-1.62,7.46-4.89,10.93-8.34,8.86-18.43,15.78-26.43,24.97-3.01,3.45.38,5.02.92,7.43,6.41-1.6,9.38,7.56,16.33,4.29-.82,3.44-2.74,4.39-5.04,4.16-4.88-.48-6.47,3.71-8.91,6.34-1.7,1.83.83,3.68,2.21,4.61,3.5,2.35,7.68,3.22,11.62,1.71,2.57-.99,5.61-3.02,5.98-5.88,1.83-14.05,13.1-21.24,21.94-29.87,3.52-3.43,6.78-7.23,10.45-10.58,2.96-2.69,1.32-6.6-1.1-9.09-8.3-8.57-7.07-18.06-3.86-28.24,4.92-15.57,2.78-31.67,1.57-47.39-1.13-14.71-.39-29.44-1.74-44.04-1.06-11.49-.52-22.74,2.35-33.64,2.66-10.11,7.58-19.57,9.96-29.86,1.95-8.44,5.7-16.18,9.17-24.07,1.69-3.84,3.63-8.54-2.98-10.72-1.85-.61-3.22-2.65-6.22-5.25Zm-8.22,119.35c.46,7.43-.49,15.43,1.09,23.3.3,1.49-.24,3.69,2.02,4.16,1.94.4,2.94-1.19,4.1-2.42,6.15-6.51,9.08-14.83,10.9-23.09,3.98-18.04,10.05-35.48,14.7-53.31,1.86-7.14,4.09-14.13,2.39-21.05-1.88-7.67-3.83-15.29-5.03-23.11-.62-4.03-1.34-8.04-2.22-12.02-.38-1.7-2.24-2.03-4.16-2.15-2.39-.15-1.57.79-2.11,2.36-2.27,6.54-4.76,13-7.04,19.53-4.64,13.28-10.01,26.37-13.56,39.93-4.06,15.51-.5,31.57-1.09,47.87Zm-48.2,144.52c-.9-2.69-2.83-2.06-4.33-2.02-4.22.12-5.91,3.45-7.04,6.65-.34.97,2.32,2.62,3.93,2.19,3.67-.99,4.91-4.73,7.44-6.82Z"/><path class="cls-7" d="m593.89,675.8c-1.02-4.48,3.72-4.41,5.54-6.6,6.66-8.05,7.06-17.36,7.53-27.09.92-19.41,4.14-38.67,2.69-59.34,3.32,1.86,3.11,3.86,3.05,5.51-.64,17.55-1.05,35.12-2.2,52.63-.62,9.42-.33,18.97-5.22,27.97-2.29,4.22-4.94,7.97-7.64,11.81-11.28,16.09-19.77,33.78-28.95,51.05-4.98,9.37-12.14,17.14-18.21,25.69-1.58,2.23-2.74,4.09-1.62,6.42,2.48,5.18,4.58,10.82,8.18,15.13,4.13,4.94,8.48,9.66,12.24,14.93,1.64,2.3,4.96,4.24,2.8,7.31-2.04,2.9-5.24,5.5-9.19,4.5-3.12-.79-4.55-.53-6.13,2.61-1.97,3.92-20.95,10.15-25.07,9-2.72-.76-4.59-3.63-7.76-3.18-.25.5-.73,1.04-.61,1.28,6.85,13.57,5.22,18.71-8.57,28.92-8.01,5.93-9.58,13.18-8.49,21.99,1.1,8.85-3.7,15.12-13,15.74-7.4.49-14.73,3.25-22.37-1.04-3.84-2.16-9.28-1.89-14.18-.82-3.25.71-6.75.75-9.94-.81-3.56-1.74-4.74-3.98-1.45-7.18,4.69-4.56,8.07-9.78,9.46-16.39,1.41-6.68,7.72-9.77,12.32-13.61,7.7-6.44,14.04-14.49,23.05-19.43,3.54-1.94,4.84-5.37,4.89-9.67.16-13.55-3.38-26.68-3.8-40.24-.79-25.99-5.43-51.7-7.67-77.6-.82-9.56-6.11-17.05-9.14-25.55-6.04-16.93-4.1-34.4-2.41-51.53,1.01-10.33,1.5-20.62,1.94-30.95.08-1.99-1-4.36,2.34-6.35,0,9.21-.16,17.89.03,26.56.37,16.2-3.27,32.11-3.33,48.28-.04,10.71,6.74,18.66,11.12,27.55,1.33,2.69,5.7.41,7.92,3.98-5.86.01-6.38,3.12-6.11,7.89,1.2,21.41,5.74,42.41,7.55,63.7,1.59,18.69,5.3,37.16,5.46,55.98.02,2.76-.1,4.81-2.55,6.9-10.38,8.84-20.33,18.19-30.71,27.03-5.42,4.62,3.1,3.94,2.16,6.66,6.06.51,10.18,6.56,16.82,5.65-.7,3.36-3.17,3.36-5.57,3.67-4.77.61-8.2,3.37-8.29,8.11-.05,2.9,10.2,6.43,13.33,4.78,2.71-1.43,6.24-3.27,6.48-6.31,1.1-13.84,12.28-20.33,20.57-28.76,2.93-2.98,5.97-6.1,9.25-8.68,5.86-4.61,4.57-9.24.53-13.47-5.95-6.22-6.75-13.53-4.31-20.82,6.1-18.2,4.3-36.81,2.91-55.18-1-13.27-.54-26.5-1.37-39.7-.7-11.1-1.48-22.15,1.59-32.98,2.73-9.63,5.78-19.17,8.91-28.67,3.14-9.53,5.94-19.2,10.6-28.17,2.89-5.57,1.88-9.91-4.5-12.43,10.44,3.79,9.83,3.6,6.59,14.11-5.57,18.08-14.38,35.08-18.35,53.62-1.99,9.3-2.65,18.85-1.57,28.6,1.11,10.02.47,20.23.66,30.36.1,5.5.31,11,2.04,16.68,5.64-2.23,8.63-6.47,10.74-11.33,4.71-10.82,7.21-22.28,9.96-33.71,2.63-10.91,6.22-21.61,9.39-32.39,3.05-10.37,2.34-20.28,1.42-30.5l.24-.2c4.58,9.86,6.98,18.83,2.27,30.49-6.68,16.51-9.52,34.56-14.34,51.86-2.55,9.16-5.2,18.16-12.28,25.5-7.37,7.64-7.5,17.99-6.44,27.85,1.28,11.97,1,24.43,8.64,34.95,1.47,2.03,2.29,4.14,5.37,3.69,2.11-.3,3.69-1.13,4.46-3.12,1.32-3.39-2.52-3.54-3.59-5.46-.54-.97-1.87-1.46-2.75-2.27-1.14-1.05-1.98-2.59-.82-3.77,1.44-1.47,2.56.1,3.41,1.2,2.26,2.94,6.58,3.08,8.57,6.34.93,1.53,2.01,2.8,4.03,2.16,1.27-.41,1.85-1.49,1.97-2.76.19-2.04-.1-3.92-2.35-4.72-1.53-.55-3.36-.45-4.6-2.71,2.98-.87,5.81-2.01,8.74-2.47,6.07-.96,5.58-4.52,2.18-7.21-6.92-5.48-9.37-13.22-12.07-20.87-1.18-3.33-1.75-6.33-6.13-3.64-.82.5-1.73,1.34-2.38.09-.39-.76-.6-2.24-.16-2.71,4.7-4.94,7.46-11.67,13.81-15.09,7.54.13,7.24-7.77,11.38-11.13.92-.75,2.17-1.71,1.04-2.84-1.36-1.36-2.45.63-3.73.88,3.59-7.7,11.72-11.67,15.42-19.49,5.56-11.77,12.64-22.75,20.05-33.46,1.99-2.88,1.82-3.96-1.89-3.35l.14.12Zm-129.29,196.63c.84-.04,9.06-9.77,8.92-10.52-.23-1.22-1.22-1.24-2.14-1.44-4.76-1.02-10.25,5.01-8.9,9.66.36,1.24.61,2.25,2.11,2.3Z"/><path class="cls-7" d="m733.52,798.93c-1.63-1.27-2.25-4.43-4.83-3.7-2.25.64-2.46,3.43-3,5.45-1.26,4.75-2.07,9.75,1.6,13.74,12.58,13.65,4.52,19.82-5.23,29.24-3.37,3.26-8.08,13.31-7.17,18.23.54,2.91-1.54,3.95-3.06,5.18-7.02,5.71-15.18,9.97-21.44,16.69-.56.6-2.09,1.19-2.51.88-7.87-5.78-19.12-5.98-25.08-14.71-5.02-7.35-3.06-20.98,7.29-23.43,17.18-4.07,33.07-24.79,29.97-41.82-3.31-18.18-1.97-36.56-4.82-54.67-3.08-19.52-4.74-39.21-5.8-58.95-.09-1.61-.54-3.41-1.41-4.75-14.1-21.7-13.52-45.8-10.13-69.76,2.3-16.25,2.89-32.44,3.38-48.74,1.53,20.9.34,41.76-.51,62.65-.57,14-4.33,28.52,3.36,41.73,3.18,5.46,3.94,13.61,13.53,14.13-6,1.32-6.29,4.88-6,9.59,1.19,19.46,4.54,38.64,6.94,57.94,2.44,19.57,4.45,39.2,6.03,58.86.79,9.82-7.07,15.75-12.74,22.19-4.86,5.51-10.9,9.99-16.51,14.82-1.6,1.37-2.67,2.84-2.27,4.95.51,2.67,2.88,2.71,4.57,2.19,5.45-1.69,6.29,8.35,12.52,3.35-.5,4.74-3.07,4.54-5.48,4.52-4.36-.05-6,3.69-8.06,6.33-1.46,1.88,1.28,3.66,2.56,4.51,3.19,2.12,6.96,3.62,10.73,1.42,2.67-1.56,5.16-3.64,5.95-6.92,3.06-12.8,13.8-19.8,22.15-28.37,3.39-3.48,7.11-6.98,10.48-10.52,3.85-4.03.75-8.97-2.58-11.29-7.78-5.44-6.49-12.68-4.1-19.25,6.68-18.37,4.74-37.23,3.41-55.82-1.02-14.23-.49-28.44-1.52-42.6-.69-9.44-.71-18.64,1.02-27.99,2.36-12.79,8.62-24.25,11.9-36.73,2.06-7.82,5.64-15.23,8.44-22.87.65-1.78.32-4.22,1.44-5.44,1.52-1.66-2.34-4.17.45-4.18,4.36-.02,3.07,3.97,2.25,5.99-6.92,17.06-11.4,34.99-18.86,51.88-3.73,8.44-4.08,18.01-3.56,26.92.91,15.42.36,30.84,1.22,46.24.18,3.24-.47,8.26,2.63,8.92,3.83.82,6.28-3.63,8.19-6.91,6.52-11.17,8.16-23.9,11.49-36.11,3.4-12.46,6.47-25.06,10.89-37.16,2.47-6.75,3.54-13.76,1.43-19.72-4.3-12.16-3.19-25.31-8.12-37.17-1.16-2.79.48-3.95,2.3-5.27,3.98-2.89,7.29-6.21,7.42-11.7,2.27,3.85.67,7.49-2.23,9.45-4.2,2.85-4.37,6.35-4.15,10.63.66,13.1,4.34,25.51,8.12,37.93,1.87,6.12,2.03,11.85-1.82,17.88-3.28,5.14-3.03,11.89-5.03,17.85-4.05,12-6,24.7-9.86,36.77-2.72,8.5-4.72,17.52-11.6,24.31-5.77,5.71-7.82,13.66-7.16,21.18.92,10.44,1.11,21.06,3.75,31.33-.25.22-.5.44-.75.66Zm-63.02,73.44c2.92-3.21,6.1-6.56,9.03-10.12.46-.56-.76-1.53-1.8-1.69-3.02-.46-5.19.42-7.48,2.79-2.15,2.22-2.63,4.1-1.86,6.78.27.94.42,1.84,2.1,2.24Z"/><path class="cls-7" d="m758.5,737.92c2.45-4.8,4.42-9.97,10.24-11.94,1.04-.35,2.01-1.38,2.65-2.34,8.73-13.1,19.16-25.07,25.94-39.46,2.11-4.47,2.59-6.86-3.81-5.18-3.17.83-6.69.86-10.19-.86,2.47-1.87,5.14-1.95,7.83-2.08,7.88-.4,19.72-11.05,20.91-18.76.04-.24.15-.56.05-.71-7.29-10.23,1.54-19.87,1.51-29.93-.03-8.17,3.82-17.35,1.84-24.95-4.48-17.24,1.67-34.59-2.58-51.54-.32-1.29-.73-2.87.87-4.02,2.91.26,2.03,2.63,2.23,4.32,3.41,28.81,2.28,57.66.21,86.47-.38,5.3,1.81,10.18.69,15.51-2.16,10.28-6.94,19.05-12.98,27.56-11.51,16.21-20.29,34.08-29.59,51.6-4.98,9.38-11.8,17.39-18.02,25.84-1.81,2.47-2.78,4.32-1.52,7.06,3.12,6.76,6.13,13.48,11.75,18.83,4.12,3.92,7.37,8.76,10.89,13.29,1.32,1.69,1.41,3.9-.21,5.27-2.49,2.11-5.07,5.39-8.72,3.91-3.39-1.37-4.88-.69-5.9,2.52-.27.86-1.04,2.31-1.48,2.27-7.51-.63-12.26,6.1-19.18,7.03-6.32.85-10.37-3.41-9.15-10.25.5-2.81,1.94-5.48.74-8.42.25-.22.5-.44.75-.66,2.92,2.2,1.94,5.05,1.46,7.92-.53,3.2.66,6.4,3.75,6.82,3.38.45,7.25-.18,9.57-3.59,1.28-1.88.06-2.9-1.32-4.16-2.36-2.14-5.64-3.81-5.28-8.61,4.1,2.91,8.04,5.31,11.47,8.3,1.71,1.48,2.98,3.84,5.07,1.47,1.99-2.25,1.62-4.98-1.2-6.72-1.37-.84-3.3-.63-4.61-2.66,3.01-.89,5.88-1.8,8.78-2.55,1.76-.46,4.2.39,4.92-2.04.73-2.47-1.14-4.06-2.78-5.43-5.14-4.28-7.95-9.93-10.71-15.92-3.45-7.49-1-15.37-2.64-23-.8-3.71,4.18-7.58,7.86-10.32.07,1.78-1.52,5.62,2.6,3.23,3.21-1.86,5.62-5.13,8.3-7.85.92-.93,1.21-2.27.12-3.19-1.25-1.06-2.05.19-2.94.96-2.7,2.36-5.46,4.66-8.19,6.98Z"/><path class="cls-7" d="m339.85,714.33c4.41-.09,5.55.64,3.51,3.66-4.97,7.35-9.84,14.77-14.75,22.17-1.06,1.6-2.57,2.39-4.31,1.44-1.57-.86-1.22-2.38-.6-3.8,3.12-7.08,5.63-14.44,11.08-20.33,1.91-2.06,3.12-4.46,5.06-3.13Z"/><path class="cls-7" d="m555.72,637.94c-4.36-10.44-2.91-22.13-6.98-32.66-.32-.83,1.26-1.88,3.17-1.93.06,11.6,2.5,22.94,4.04,34.4,0,0-.24.2-.24.2Z"/><path class="cls-7" d="m593.76,675.67c-4.7,4.56-10.18,4.2-17.04,2.53,6.15-3.12,11.81-1.76,17.17-2.41,0,0-.13-.12-.13-.12Z"/><path class="cls-7" d="m535.99,592.72q7.39,7.64,12.19,5.61c-1.03,3.44-4.42,4.63-5.97,3.87-3.23-1.59-5.54-4.74-6.22-9.48Z"/><path class="cls-11" d="m903.41,509.63c0-1.42-.94-6.14-6.14-8.97s-8.03-3.31-13.22-3.78-12.28,1.42-13.7,2.83-3.78,5.2-7.08,8.97c-3.31,3.78-7.08,14.64-7.56,20.78-.47,6.14,4.25,21.25,6.61,24.09s15.11,9.45,19.36,8.97,9.45-1.42,14.64-4.72,13.22-7.56,14.17-13.7,2.83-10.86.47-17-7.56-17.48-7.56-17.48Z"/><path class="cls-8" d="m741.89,211.84c-1.89.71-2.83,9.45-2.83,11.81s2.13,4.01,4.49,5.2,3.78,2.13,5.43,1.89,4.72-1.42,6.38-4.01c1.65-2.6,3.78-7.08,2.6-9.21s-4.01-5.43-5.43-5.67-5.2-1.65-6.61-1.42-4.01,1.42-4.01,1.42Z"/><path class="cls-1" d="m227.31,494.28s-21.43-20.9-25.68-26.57-9.74-6.02-11.87-10.27-3.54-15.59-4.25-21.96,1.77-26.74,1.77-26.74l-.53-1.06s-2.66-4.07-9.03-1.24c-3.36,1.49-10.04,3.59-14.17,7.08-3.71,3.14-4.86,7.68-8.32,9.39-7.33,3.6-11.51-7.97-11.51-7.97h-14.17l-4.96-14.17s-6.38-13.46-2.13-15.59,10.63-5.67,12.75-7.08,1.42-5.67,4.25-6.38,13.46,3.54,17.71,3.54,15.05,3.54,20.72,2.13,12.58-6.38,17.53-4.96,8.5-1.42,10.63-2.13,3.54-7.08,6.73-10.63c3.19-3.54,17-24.44,20.9-27.63,3.9-3.19,17-19.84,20.55-20.55s21.77-13.71,25.41-18.54,12.85-17.94,13.91-19.71-3.12-6.46-2.98-9.61-3.4-13.24-3.93-18.91-2.3-9.74-3.9-10.1-6.91-7.08-9.92-8.5-8.32-5.67-8.32-8.68-.89-7.26.71-9.74,5.14-4.07,7.26-4.78,10.63.71,10.63.71c0,0,8.32-17.71,12.93-21.61s12.58-14.17,12.58-14.17c0,0-3.19,0,0,0s15.59-4.43,18.77-3.54,16.47,1.59,19.13,4.07,6.2,6.91,7.26,8.15,2.83,2.3,3.37,4.43,2.48,6.38,5.14,9.56c2.66,3.19,7.44,8.68,12.93,10.27,5.49,1.59,7.97,3.19,7.97,5.14s1.59,6.2.35,8.68-8.32,7.44-9.21,9.92-2.83,5.49-2.13,8.32,3.9,7.08,3.01,11.69-1.06,10.63-3.01,14.35-3.37,4.6-4.07,9.74-.53,13.81,5.67,19.13c6.2,5.31,10.1,12.4,13.28,14.17,3.19,1.77,10.1,7.26,13.64,11.51s9.92,10.8,13.81,15.59,12.75,18.95,15.05,25.15,6.02,16.29,9.03,21.61c3.01,5.31,8.5,11.51,8.5,11.51l46.58-58.45s6.02-13.64,6.38-18.24-2.3-11.16-6.91-21.25c-4.6-10.1-10.45-17.71-11.87-24.62s-3.54-17.53-2.13-21.25,2.83-9.21,2.13-9.92-4.78-2.3-4.6-6.91,3.01-10.27,4.78-10.98,5.84.89,7.97.89,3.72-1.06,4.43-3.01.18-10.63,2.3-14.88c2.13-4.25,9.92-15.76,13.99-18.77s13.11-8.86,17.18-8.68,13.46,5.67,15.76,6.2,5.14,2.66,7.62,10.1c2.48,7.44,6.55,13.81,7.26,19.84s-3.54,10.1.89,9.21,7.97-1.42,11.16-1.24,5.14-.18,5.84,3.19,1.24,8.5-.18,10.63-2.66,7.79-4.96,9.03-6.91,7.79-6.91,7.79c0,0,4.6,9.39,4.07,11.87s-1.77,9.21-3.37,14.17c-1.59,4.96-6.73,18.07-7.26,21.43s-1.24,13.28,1.59,16.12,25.33,25.15,28.16,28.52,17,13.28,19.31,16.65c2.3,3.37,12.04,16.83,13.46,18.6s7.44,9.21,9.39,14.35,4.6,18.07,8.5,20.9,3.37,7.79,7.44,7.26,12.04-4.43,13.99-7.08c1.95-2.66,12.75-35.6,15.41-39.67,2.66-4.07,10.8-26.21,13.81-27.98s7.97-1.77,12.04-7.44,7.26-9.74,10.1-13.64,6.38-11.34,7.08-15.76,1.59-9.39-1.42-12.4c-3.01-3.01-13.11-15.76-14.88-23.38s-8.5-13.46-10.1-15.41-4.6-4.25-6.55-3.9-6.38,2.66-9.92-.53-8.5-11.69-7.08-14.88c1.42-3.19,2.83-8.32,6.91-14.17,4.07-5.84,8.15-17.36,8.15-17.36,0,0,10.45-23.02,13.64-24.97s17.53-13.81,37.73-9.74c20.19,4.07,23.2,9.21,25.33,9.92s10.98,8.32,12.04,12.04c1.06,3.72,4.43,16.29,5.49,17.71s9.39,10.27,10.8,12.75,3.19,7.79,3.01,11.16-.35,8.32-2.13,11.16c-1.77,2.83-5.48,6.72-7.61,6.81s-8.68-1.68-9.92,1.51-4.07,13.28-5.67,16.65c-1.59,3.37-4.96,7.44-7.44,9.74s-3.01,2.48-5.84,5.31c-2.83,2.83-7.26,3.72-3.9,10.27,3.37,6.55,21.08,28.34,23.02,30.82s6.02,4.43,11.51,8.32,17.36,8.5,19.31,15.23,9.03,24.44,10.27,29.4c1.24,4.96,7.26,19.84,8.86,33.12s8.15,21.43,10.8,27.63c2.66,6.2,8.86,16.83,11.87,20.37s10.8,4.6,14.88,5.67,11.51,1.42,16.65-.71,17.18-10.45,21.08-12.75,6.73-7.62,10.45-9.39,4.78-2.3,7.79-1.95,4.78,2.13,6.2,4.07-2.13,6.2,3.01,5.14,10.63-.18,19.48,1.95c8.86,2.13,14.88,4.25,18.07,16.12,3.19,11.87-3.72,54.37-7.79,55.26s-11.34-1.06-12.58,2.66-1.95,10.1-4.6,12.04-13.11,3.54-16.47,3.01-9.74,6.55-13.46,9.92c-3.72,3.37-23.91,18.24-27.63,15.59s-29.93-24.44-29.05-29.05,6.38-18.6,6.38-21.25-4.96-6.2-7.97-8.15-10.8-.53-13.64.89-6.02,11.16-6.02,11.16c0,0-.35,10.8-1.59,14.52s-2.48,11.69-5.84,13.46c-3.37,1.77-13.11,7.44-14.88,8.5s-3.54,3.37-4.25,4.25-7.97,7.08-10.8,8.86-17.53,5.84-19.66,5.31-7.97,2.83-10.27,5.67c-2.3,2.83-12.58,14.17-17.36,14.52-4.78.35-10.1,5.49-13.64,5.49s-28.69-7.44-29.76-9.21-8.86-13.81-8.86-15.41-1.42-5.84-1.42-5.84c0,0-5.14.71-6.2.89s-5.49,1.24-7.08,2.3-5.31,1.77-6.73,1.77-6.38.89-6.38.89c0,0-10.63-3.37-14.52-4.78s-9.21,4.96-13.81,6.02-12.4,11.77-13.46,8.45-6.02-4.74-7.08-2.43-4.43,7.62-6.2,7.44-9.03,4.07-10.8,3.54c-1.77-.53-7.97-1.24-10.45-1.24s-7.62,1.24-8.32.89-13.46-6.73-15.23-8.5-6.91,2.66-9.56,1.59-11.16-3.01-12.22-2.3-2.83,4.07-4.78,3.54-10.45-.35-12.22-.18-18.95-2.3-20.01-2.13-6.02-.71-6.73-1.06-2.48,2.48-4.6,2.48h-2.13l-3.72-4.43s-.89,6.38-4.07,4.96-5.14-4.96-5.14-4.96c0,0-3.03,2.17-3.47,2.41s-7.52-.82-8.22-1.17-4.6-1.59-6.02-3.01-1.77-4.07-4.96-4.96-7.44-.18-10.8-1.06-22.85-7.26-23.56-5.31,0,7.79-5.67,9.56c-5.67,1.77-12.22.53-13.99-.53s-9.03-3.72-9.74-4.25-4-2.19-4-2.19c0,0-2.02,4.31-8.05,7.68-6.02,3.37-17.18,4.78-18.24,5.84s-17.71,5.84-19.31,6.38-26.57,1.42-29.05.18-38.96-6.2-44.1-11.16-22.85-15.05-26.04-24.62-12.04-31.53-12.04-34.01-4.25-26.04-4.25-26.04"/><path class="cls-4" d="m316.11,188.23c-1.65.47-8.27-1.18-9.45-.71s-4.72,2.36-5.43,2.83-4.01,3.78-4.49,5.43-.24,10.86,1.65,12.99,4.49,4.25,7.08,5.43,6.14,1.42,9.45-.24,4.25-.47,6.85-4.72c2.6-4.25,3.31-5.2,2.83-8.5s1.42-7.08-1.65-8.27-6.85-4.25-6.85-4.25Z"/><path class="cls-3" d="m340.67,185.87c-1.89.94-8.97,9.92-8.27,12.75s4.01,11.57,4.49,13.22,3.31,7.79,6.61,6.14,6.38-3.54,8.27-4.96,5.43-4.01,6.38-8.03c.94-4.01,1.89-8.5.24-10.86s-7.08-7.32-8.5-7.56-9.21-.71-9.21-.71Z"/><path class="cls-8" d="m335.71,196.26c1.42-.47,4.49.94,5.43.94s4.01,2.83,4.01,2.83c.47,4.25.71,5.2-1.18,6.14s-4.72,3.31-6.14,2.83-4.72-1.65-4.25-4.49,2.13-8.27,2.13-8.27Z"/><path class="cls-8" d="m321.07,196.49c-.94-1.42-3.54-1.42-4.96-1.18s-4.01,2.83-4.01,2.83c0,0-.94,3.31-.94,4.49s2.83,4.49,4.96,5.2,4.72-.24,5.43-2.36-.94-9.92-.94-9.92l.47.94Z"/><path class="cls-8" d="m519.2,205.23c-2.6.47-5.9,1.89-6.61,3.31s-2.6,5.67-2.6,7.08,0,4.25,1.18,5.43,2.6,3.78,5.43,3.07,4.96-1.89,6.38-3.54c1.42-1.65,2.6-3.78,1.65-6.61s-5.43-8.74-5.43-8.74Z"/><path class="cls-8" d="m538.09,206.65c-.94.24-2.83,2.83-4.25,4.01s-1.18,3.78-1.42,4.96-.71,6.85.71,7.32,4.96,2.6,6.85,1.65,3.54,0,4.49-3.07,2.83-7.08,1.42-9.68c-1.42-2.6-1.42-5.67-4.01-5.9s-3.78.71-3.78.71Z"/><path class="cls-8" d="m707.88,209.96c-.71.71-3.78,4.96-4.01,6.38-.24,1.42-.71,6.14.47,7.08s4.49,4.49,6.38,4.01,4.72.47,6.61-.94,3.78-3.07,4.25-4.25,1.42-3.78.94-5.43-3.31-6.38-5.2-6.85-6.61-.71-7.32-.94-2.13.94-2.13.94Z"/><path class="cls-8" d="m928.92,483.18l-6.61,5.2-.8,9.06s4.58,5.58,6.94,4.64,4.25-1.89,5.67-4.72c1.42-2.83-.97-8.32-1.67-10.07s-3.53-4.1-3.53-4.1Z"/><path class="cls-8" d="m938.84,516.72c-1.89-.94-6.61-.47-6.61.94v7.56s1.89,1.89,4.25,0,3.31-1.42,4.25-5.2c.94-3.78-1.89-3.31-1.89-3.31Z"/><path class="cls-7" d="m495.05,295.06c-2.88-4.86-6.01-9.58-7.95-14.95-.64-1.78-1.49-4.46-3.56-4.05-2.55.51-.96,3.25-1.19,5.03-.1.75-.17,1.5-.3,2.71-.69-.63-1.35-.95-1.34-1.25.44-14.01-5.45-27.77-1.62-41.91.56-2.07-.76-3.82-1.56-5.54-1.93-4.14-1.8-8.4-.97-12.67.9-4.64,3.94-6.93,8.64-7.31,2.21-.18,5.29,2.01,6.45-.67,1.41-3.28,4.18-6.32,3.38-10.32-.83-4.21,2.94-8.11.76-12.38-.06-.11.07-.43.2-.52,10.06-6.95,13.61-22.91,29.82-21.48,2.67.24,5.25-.82,7.14,2.31,1.31,2.16,3.93,1.19,6.01.92,5.87-.74,9.49,1.55,11.74,7.2,3.9,9.78,8.96,19.13,9.66,29.96.18,2.78,1.4,3.76,4.73,3.05,10.27-2.17,15.06,2.78,12.91,12.94-1.11,5.25-3.1,10.32-7.52,13.57-2.68,1.97-3.29,4.16-2.97,7,1.59,14.08-.71,27.14-6.4,40.42-3.48,8.11-4.31,17.71,4.71,26.12,7.58,7.08,14.21,15.42,21.98,22.56,3.11,2.86,7.5,3.5,10.18,6.75,6.31,7.62,12.97,15.01,18.69,23.06,3.17,4.47,7.37,8.14,10.04,12.85,5.8,10.22,13.57,19.45,16.14,31.34.87,4.02,2.75,4.62,6.69,3.19,6.02-2.18,10.49-4.37,12.27-11.79,3.86-16.09,10.09-31.52,16.76-46.67,3.1-7.03,8.74-12.32,14.63-17.32,10.93-9.28,19.36-20.32,22.67-34.69,1.05-4.57.54-8.03-3.49-11.34-5.68-4.66-6.97-11.92-8.97-18.62l-.1.04c2.68,4.78,6.71,8.55,9.84,12.96,8.94,12.58,25.95,12.87,34.61.14,2.87-4.22,5.8-8.29,9.58-11.78,5.55-5.12,7.86-11.97,9.39-19.13.25-1.18.66-2.7-.45-3.24-3.61-1.76-2.54-4.91-2.61-7.7-.24-9.41,3.05-18.54,2.26-28.01-.15-1.8.98-3.31,2.11-4.71,5.52-6.84,5.88-13.24,1.19-20.95-1.92-3.15-3.92-6.24-5.89-9.36,0,0-.09.12-.09.12,6.37,3.47,9.51,9.42,11.56,15.91.91,2.88,2.36,4.97,4.13,7.36,6.55,8.84,12.96,17.97,12.3,29.87-.17,3.04-1.21,5.69-3.33,7.9,1.08-5.76,2.13-11.47.55-17.37-.78-2.92-2.63-4.32-5.26-4.72-2.74-.41-4.9,1.05-6.54,3.13-.88,1.12-1.15,2.59-.33,3.84.92,1.4,2.11.42,3.03-.13,2.37-1.41,3.93-.37,5.85,2.05-8.04-1.2-9.38,4.96-11.2,9.77-1.06,2.79-1.65,7.27,1.74,9.02,2.9,1.49,6.44.12,8.98-2.43,1.1-1.1,2.19-2.19,3.29-3.29-.37,4.35-2.86,6.99-7.05,7.24-6.93.4-9.49,4.36-10.57,10.64-1.06,6.22-5.75,10.93-8.06,16.7-.94,2.36-3.88,2.5-5.88,3.44-5.39,2.54-6.15,6.81-4.94,11.68,1.02,4.12,3.76,7.52,5.83,11.19,5.08,9.06,13.71,15.11,18.82,23.98l.1-.09c-2.54.03-4.41-1.22-6.15-2.96-3.3-3.31-7.06-6.23-10.02-9.81-4.81-5.82-11.66-10.18-13.22-18.47-.51-2.69-2.63-2.02-3.83-.29-3,4.33-6.59,4.34-11.3,2.88-4.39-1.36-9.77-2.9-10.54,4.94-.17,1.73-2.06,3.26-3.08,4.94-4.95,8.16-9.55,16.53-14.88,24.48-2.18,3.26-3.5,5.97-8.03,5.91-3-.04-4.21,2.85-5.62,5.32-6.14,10.73-10.92,21.98-14.51,33.8-2.27,7.48-5.18,14.76-7.72,22.15-.58,1.67-1.93,4.99.88,4.39,3.21-.69,5.51,1.83,8.34.85-.15.36-.24.98-.47,1.04-9.79,2.53-18.24,7.86-26.91,12.73-1.97,1.11-3.49,2.49-1.78,4.54,2.31,2.77,1.85,7.44,6.06,8.76.38.12,1.22-.79,1.66-1.37,3.42-4.4,6-4.89,9.55-1.02,3.33,3.63,7.01,4.8,11.43,2.95,8.15-3.41,16.42-2.87,24.82-1.36,7.29,1.31,14.37,3.98,21.94,3.62,2.11-.1,4.16.2,5.93-1.72,3.26-3.55,7.92-4.39,13.38-6.57-3.02,3.28-5.88,4.15-8.43,5.55-1.1.6-2.91,1.06-2.25,2.86.56,1.5,2.24,1.32,3.58,1.45,2.02.2,3.16-.57,3.87-2.65,1.03-3.02,3.27-2.64,4.83-.62,5.97,7.72,9.74,16.67,13.23,25.65,3.81,9.8,4.2,20.18,3.84,30.61-.05,1.4-.25,5.05,1.81,3.44,2.96-2.31,5.05-.64,7.57-.54,6.51.26,14.77-6.05,16.37-12.31,2.26-8.81,3.28-18.08,1.54-26.72-3.64-18.15-9.87-35.69-16.65-52.93-4.35-11.05-5.95-11.74-17.63-9.3-17.25,3.6-34.7,5.92-52.16,7.91-8.16.93-16.39.71-23.72,5.15.86-2.88,1.72-5.76,2.73-9.14,1.83,1.99,1.91,4.35,4.92,3.4,10.18-3.22,21.48-1.14,31.26-6.57,2.15-1.19,4.77-2.48,7.06-2.3,6.62.53,10.78-1.74,12.15-8.44,0-.04.62.03.94.06-1.26,7.24-1.26,7.27,6.45,7.24,3.91-.01,7.84.04,11.73-.27,7.88-.63,11.74-2.1,8.57-11.17-.04-.12.43-.41,1.29-1.18,1.58,5.24,2.44,10.41,5.04,14.96,2.12,3.71,4.27,7.56,5.45,11.62,3.9,13.47,9.72,26.25,13.12,39.95,2.89,11.62,4.54,22.88,1.71,34.59-1,4.16-2.11,8.31-2.78,12.53-2.98,18.78-4.74,37.87-16.13,54.19-3.1,4.44-6.57,8.78-7.97,14.22-.51,1.98-1.97,4.64,1.01,5.33,2.66.62,2.9,2.15,3.2,4.09.22,1.37.73,3.59,1.98,3.07,4.9-2.04,9.92,1.52,14.76-.82,5.26-2.54,10.61-4.88,15.19-8.61l.06.07c-.15,6.16-2.27,9.28-9.46,9.41-5.53.1-9.88,6.05-16.14,5.81-.53-.02-1.28.78-1.58.61-6.5-3.74-8.13,2.17-11.86,5.21-6.64,5.42-12.78,12.27-22.26,13.03,7.08-3.23,12.07-9.11,17.78-14.07,5.17-4.49,5.21-6.41,1.81-12.67-2.56-4.7-4.32-9.85-6.4-14.7,2.1-1.45,2.81,1.65,4.67.51.97-3.84-1.93-7.55-1.19-11.51,2.17.31,1.63,3.33,4.27,3.3,2.15-12.2-.83-24.29-1.13-36.41-.07-2.69-3.23-2.61-4.41-.89-2.76,3.99-6.63,3.8-10.72,4.4-7.28,1.08-13.49,5.64-20.97,6.87-2.72.45-5.42,2.5-8.65,1.94-2.85-.49-4.76,1.04-6.59,2.98-1.74,1.84-4.02,4.24-6.5,2.3-3.31-2.6-5.22-1.03-7.5,1.09-3.04,2.83-6.31,5.46-4.73,10.4.64,2.02.72,3.97,3.86,4.08,3.87.13,5.02,2.81,4.57,6.6-.91,7.68-3.87,14.97-3.03,23.03.95,9.07,6.27,15,13.49,18.38,9.79,4.57,20.54,6.19,31.49,4.29-5.54,3.93-13.42,4.1-17.86,2.42-7.64-2.87-16.6-3.64-22.96-10.18-4.14-4.25-7.82-8.16-7.06-14.57.45-3.81-1.09-4.72-4.26-2.6-2.3,1.54-6.62.44-7.08,1.43-2.84,6.15-7.53.98-10.82,2.34-4.84,2.01-8.6.55-13.07-1.5-6.15-2.82-21.87,4.23-25.15,10.34-2.97,5.52-4.17,5.68-8.26.92-1.89-2.19-3.84-2.43-4.74.46-1.34,4.33-4.61,5.38-8.37,6.12-3.06.61-6.18,1.1-8.58,3.43-.51.5-1.63,1.17-1.93.97-5.55-3.75-11.64-.55-17.28-1.51-4.48-.76-8.84-3.05-12.84-5.37-1.98-1.15-3.28-1.71-5.66-1.27-4.02.74-8.08,0-12.13-1.16-4.21-1.2-8.79-2.19-11.03,3.63-.8,2.07-2.76,2.37-4.15.68-2.68-3.25-6.22-3.14-9.69-2.72-8.98,1.09-17.4-1.34-25.86-3.67,9.37.29,18.5,3.23,27.96,2.58,2.36-.16,5.3.13,5.4-3.02.08-2.61-2.3-3.93-4.81-4.26-7.62-.98-12.5-7.79-19.89-9.3-.67-.14-1.1-1.52-1.63-2.32,10.64,5.24,21.47,9.99,32.83,13.35.83-2.23-.39-2.85-1.08-3.71-6.21-7.71-13.67-14.75-18.33-23.31-5.46-10.02-12.42-18.64-19.45-27.36-1.09-1.35-1.83-4.21-4.21-3.13-1.96.89-1.31,3.51-1.3,5.36.01,1.71.3,3.63,1.12,5.09,2.22,3.97,1.95,8.23,2.24,12.52.51,7.5-.63,15.79,7.93,20.2.24.12.24.71.35,1.08-2.08.27-5.14-5.98-6.06.37-.76,5.21-1.99,10.57-.95,15.97-2.17.02-3.93-.06-3.03-3.22.86-2.98,1.37-6.1,1.69-9.19.19-1.83-.69-3.65-2.68-4.05-1.99-.4-2.36,1.59-3.18,2.86-1.82,2.8-1.39,6.04-1.93,9.09-.24,1.38.79,3.89-1.37,3.84-2.38-.05-.93-2.39-.98-3.73-.14-4.28.91-8.55-.08-12.84-.39-1.69-.1-3.82-2.58-3.86-2.02-.03-3.28,1.45-3.61,3.29-.65,3.65-1.95,7.54-1.27,10.99,1.08,5.47-.81,7.1-5.75,6.87.03-5.07.83-10.15-.15-15.2-.27-1.41-1.02-2.78-2.65-2.6-1.36.15-1.59,1.54-1.66,2.74-.2,3.7-.51,7.4-.48,11.1.02,3.24,1.93,4.47,5.07,3.85-5.84,1.34-12.09-.74-14.95-5.53-2.28-3.82-6.22-2.59-9.33-3.81-1.14-.45-3.22.15-2.89-1.94.31-1.97,2.2-1.15,3.41-1.08,1.94.12,3.85.64,5.78.84,1.42.15,3.21-.04,2.49-2.03-1.68-4.62,1.07-4.96,4.38-5,.59,0,1.54.15,1.7-.12,3.43-5.98,9.92-2.91,14.65-5.01,2.36-1.05,4.49.07,6.76.66,2.12.56,4.87.25,3.81-3.01-3.17-9.75-1.42-19.56-.85-29.37.15-2.64,2-6.46-3.51-5.57,9.8-7.42,5.87-17.14.46-23.23-1.83-2.06-3.27-1.75-4.75.12-2.8,3.53-6.02,6.62-9.48,9.49-2.2,1.82-2.78,3.38.68,4.37,1.17.33,2.11.99,2.07,2.28-.59,2.33-5.37-1.08-4.09,2.99.63,1.99,2.13,4.72,5.03,3.92,2.41-.67,4.31-2.58,5.78-4.71.95-1.38,2.12-2.68,3.81-1.84,2.4,1.2.5,2.58-.27,3.73-.96,1.42-.15,2.12.9,2.81-5.41,3.25-6.86,7.51-2.96,13.6-6.21-5.33-10.05-.7-13.01,2.96-4.75,5.87-10.28,11.11-14.05,17.88-1.79,3.22-5.73,5.14-9.26,6.84-2.27,1.09-3.76,2.08-2.86,5.31,1.86,6.7-4.23,7.97-8.17,10.11-3.91,2.12-5.28-1.88-7.02-4.29-.68-.93-.97-2.14-1.63-3.1-.77-1.13-1.72-2.26-3.27-2.1-1.66.18-2.13,1.56-2.37,2.94-.65,3.65-2.05,6.59-5.96,7.86-1.91.62-3.56,1.43-5.44-.08-1.82-1.45-3.81-1.74-5.96-.41-.56.35-2.02.35-2.17.06-2.99-5.96-11.04-4.19-14.39-9.5l-.12.12c4.51,1.04,7.58-.23,8.86-5.06.43-1.63,1.64-3.1,3.67-3.62,1.05,2.48-1.02,3.9-1.77,5.74-.66,1.62-3.67,3.17-1.46,4.87,1.89,1.46,4.81,1.4,7.01-.49,1.29-1.11,2.5-2.31,3.85-3.58,1.42,2.43-2.7,5.93,1.89,7.11,4.24,1.08,6.41-1.66,7.35-4.94,2.2-7.65,6.28-15.81,5.15-23.07-1.16-7.48-.12-14,3.09-19.38,5.67-9.51,8.4-20.15,13.45-29.9-1.1,2.64,2.2,5.65-.87,8.05-.81.63-.37,1.73.6,2.42,3.1,2.24,10.64.07,11.33-3.53,2.38-12.45,4.29-24.98,7.22-37.33.47-1.99,1.24-4.53-1.07-7.3-4.38,10.56-9.84,19.87-13.11,30.23,2.68-9.46,3.83-19.24,8.09-28.27,9.72-20.63,7.83-40.97-2.77-60.76-1.3-2.42-2.72-4.6-2.71-7.56.01-2.57-1.03-5-3.01-6.8-4.08-3.7-6.19-8.69-7.77-13.63-2.65-8.3-8.01-15.23-11.1-23.11-3.81-9.73-11.37-17.17-14.78-26.96l-.11.11c13.25,9.11,18.66,23.4,24.98,37.23,3.37,7.38,7.85,14.26,12.1,21.85,16.54-19.11,31.51-39.06,48.71-57.1l.41.29c-.71,3.96-2.07,7.95-5.28,10.23-5.09,3.61-8.06,8.81-11.96,13.34-8.5,9.89-16.34,20.28-23.91,30.84-3.38,4.72-6.91,10.33-3.56,16.8,1.77,3.42,3.88,6.67,6.05,10.37.69-.9,1.03-1.58,1.57-2.02,4.08-3.29,6.67-8.81,14.09-5.87,3.88,1.54,7.91,4.37,13.1,2.91,8.95-2.53,18.28-1.36,27.46-1.35,3.71,0,6.79-.44,9.23-3.78,1.58-2.17,4.69-4.3,6.59-.8,1.95,3.6,4.64,3.5,7.8,3.75,2.85.22,6.24-1.34,8.81,2.02q-11.74-.26-18.98,9.53c-.93,1.25-1.88,2.93-3.17,3.37-6.79,2.32-8.15,8.47-10.27,14.04-4.11,10.81-6.72,22.04-8.29,33.45-1.46,10.64-5.66,20.82-5.27,31.75.05,1.44-1.27,3.43.76,4.14,1.58.56,2.88-1.02,3.87-2.15,2.57-2.91,4.56-6.5,7.54-8.85,4.04-3.18,5.96-7.12,8.01-11.7,2.45-5.48,4.04-11.32,7.3-16.55,6.15-9.89,13.34-19.2,17.65-30.2,1.43-3.64,3.9-6.2,7.84-7.92,3.85-1.69,7.06-4.93,5.11-10.62,4.32,4.09,9.39,3.25,14.24,4,.16-2.52-3.41-3.6-1.11-6.45,5.12,5.04,9.33,11.08,15.76,14.33,10.82,5.48,18.96,14.22,27.83,22.08,4.67,4.14,7.12,9.03,6.85,15.85-.36,8.96-2.95,17.39-5.24,25.72-3.91,14.22-8.62,28.38-14.71,41.78-5.68,12.49-9.35,25.67-14.99,38.08-2.59,5.71-4.26,12.23-9.74,16.26-1.4,1.03-3.57,1.53-3.25,3.64.29,1.91,2.39,2.44,3.96,3.15,3.04,1.38,5.06.38,6.74-2.54,2.5-4.35,5.42-8.46,8.72-13.54.45,5.62-2.24,8.61-4.23,11.93-.74,1.24-1.94,2.92-.15,4.16,1.39.96,3.12.57,4.38-.49,1.03-.86,1.68-2.15,2.63-3.12,3.24-3.3,4.64-8.11,9.18-11.75-1.21,4.42-3.43,6.9-5.44,9.53-1.16,1.52-2.74,3.27-1.57,5.24.55.94,2.33,1.59,3.55,1.59,2.41,0,2.98-2.37,3.65-4.06.9-2.26,1.13-4.8,3.85-6.45.14,1.04.32,1.58.26,2.1-.14,1.37-2.91,2.53-.81,3.93,1.97,1.31,3.11-.94,4.16-2.18.71-.84,1.08-2.08,1.32-3.2,1.32-6.09,2.91-12.08,3.18-18.43.41-9.52-.38-19.68,4.24-28.19,7.08-13.06,9.8-28.1,18.78-40.24,1.08-1.46,1.14-3.68,1.72-5.53,3.18-10.15,2.94-21.26,9.43-30.52,4.44-6.34,3.55-12.29-1.6-18.33-1.64-1.93-3.56-3.59-4.25-6.2-3.08-11.66-8.8-22.3-13.03-33.52-2.45-6.49-8.55-11.33-8.36-19.03.03-1.15-1.06-3.09-2.02-3.39-7.54-2.36-9.03-9.6-12.68-15.12-2.99-4.51-6.02-8.65-10.98-11.78-6.96-4.4-13.94-8.98-19.31-15.83-5.47-6.98-11.59-13.69-19.26-18.52-2.17-1.37-2.86-3.09-2.85-5.31.04-7.24-.78-14.66.51-21.68,1.44-7.84-5.33-13.3-4.35-20.75.37-2.8.35-6.59-4.64-3.15-2.38,1.64-5.3.1-6.23-2.51-2.43-6.78-7.85-8.08-14-8.67-5.57-.54-11.12.54-16.58.9-2.98.2-10.35-1.11-9.63,7,.27,3.06-1.62,5.3-5.23,1.9-2.55-2.4-6.29-5.53-6.81,1.81-.06.77-1.01,1.91-1.76,2.13-4.52,1.27-2.69,3.74-1.38,6.22,3.63,6.91,7.74,13.62,9.1,21.49l-.36.27Zm23.57-114.34c-6.69.5-9.84,6.52-14.89,9.58-1.01.61-2.24,1.4-1.68,2.71.77,1.78,2.28.81,3.52.45.93-.27,1.84-.63,2.76-.95-5.66,4.17-10.62,8.85-12.29,16.09-.83,3.6-1.78,7.17-2.78,10.72-1.99,7.08-6.79,12.71-10.02,19.15-1.66,3.31-3.58,6.66-1.41,11.91,1.13-5.64,4.62-7.08,8.36-7.79,5.79-1.09,11.65-1.55,17.29.92,3.31,1.45,5.19.7,5.6-3.16.4-3.79,2.09-7.22,4.39-10.13,2.59-3.27,1.43-4.02-1.99-4.82-6.16-1.43-8.49-4.99-6.45-10.72,1.25-3.51,1.16-5.92-2.81-8.23,4.6-1.28,8.14-2.29,11.71-3.23.9-.24,2.01-.63,2.75-.31,2.45,1.05,6.01,11.19,5.44,14.14-1.41,7.31-7.08,12.47-9.52,19.26-1.18,3.29-2.42,6.55.68,9.19,3.6,3.07,7.99,2.98,12.17,1.42,3.69-1.38,3.68-4.95,3.22-8.02-1.16-7.81-.63-15.64-.83-23.46-.07-2.87.52-5.52,2.77-7.44,1.97-1.68,3.34-2.99-.28-4.32-1.25-.46-1.44-1.82-.86-2.99.17-.35,1.07-.68,1.48-.54,5.3,1.67,8.91,5.86,12.98,9.24,2.16,1.79-.56,4.28-.8,6.49-1.02,9.35-1.2,9.54-10.02,9.51-4.03-.01-4.75,1.84-4.18,5.06.57,3.27,1.78,6.5,1.84,9.76.08,3.76,1.59,4.49,5.01,4.51,6.92.04,14.04-1.93,20.64,2.21,2.25,1.41,3.44.26,2.15-2.37-.75-1.53-1.19-2.44,1.15-3.46,6.11-2.67,11.1-12.08,10.42-18.69-.21-2.08.06-4.46-2.55-5.44-2.66-1-4.96-.33-7.09,1.43-3.2,2.64-5.4,6.01-6.86,10.43-2.63-5.27-2.42-5.24-2.2-6.98,1.47-11.58,1.77-22.89-8.04-31.63-1.6-1.43-2.94-3.08-3.56-5.28-1.33-4.71-3.82-5.95-8.19-2.91-2.51,1.75-5.63,3.47-8.62,1.14-2.9-2.26-5.46-1.26-8.2-.09.02-.71.05-1.41.07-2.12.58.05,1.17.22,1.72.13,2.67-.44,5.98,1.42,7.81-1.95.49-.9-.42-1.74-1.35-2.22-3.61-1.86-5.6,1.03-7.98,2.73-.26.19-.3.69-.44,1.05Zm-37.24,232.04c-2.12,1.69-4.24,3.39-6.37,5.07-.82.65-1.46,1.47-.78,2.43.65.91,1.69.77,2.61.22,3.37-2.04,6.01-4.89,8.61-7.79,2.38,1.12.16,1.66-.35,2.27-3.29,3.96-7.96,5.41-5.11,13.87,3.93,11.67,5.23,24.7,6.72,37.27,1.17,9.84,4.46,18.87,7.46,28.12,1.5-.57,1.53-1.37,1.6-2.14,2.32-25.13,7.05-49.68,17.17-72.99,1.54-3.55,2.98-7.18,4.03-10.99,1.07-3.89-.45-4.32-3.56-4.45-10.58-.42-20.99.47-31.49,2.07-6.88,1.05-8.22,4.77-8.86,10.43,3.59.06,5.24-3.39,8.33-3.4Zm246.28,33.36c-5.05-3.67-8.12-7.55-12.87-9.42-3.37-1.32-7.17.81-9.64-.81-6.47-4.25-13.4-2.74-19.96-2.17-9.32.8-17.13,4.77-20.47,14.74-2.84,8.51-6.54,16.74-9.2,25.3-1.58,5.08-1.21,10.39,2.25,15.08,2.88,3.91,5.8,7.82,8.69,11.69,2.05,2.74,4.92,7.21,10.09,4.24.35-.2,1.04.03,1.49.25.47.22,1.43,6.19,1.25,6.9-.27,1.08.45,1.79.95,2.63,2.13,3.52,5.66,3.55,8.84,2.87,19.24-4.12,38.42-8.54,57.64-12.75,3.35-.73,4.8-2.17,5.11-5.83,1.3-15.04-2.49-28.96-8.3-42.58-1.76-4.12-4-8.43-4.17-12.72-.24-5.87-3.1-6.92-7.75-6.57-3.23.24-7.66-2.82-9.26.05-1.48,2.66,3.49,4.92,5.29,9.1Zm-122.58,5.85c4.42-2.56,2.78-4.23.66-7.16-5.96-8.22-14.88-12.86-22.19-19.4-2.32-2.08-5.92-2.91-9.08-3.83-2.35-.68-4.86.26-3.76,3.21.82,2.2,1.01,4.91.94,6.5-.28,5.67,2.45,4.3,5.54,2.79.06,2.9-1.8,3.88-3.17,5.17-1.17,1.1-2.22,2.26-2.17,3.97.24,9.16.68,18.31.74,27.47.07,10.95-.21,21.9-.27,32.85-.01,2.26-.55,4.91,2.71,5.68,7,1.66,13.97,3.41,20.99,4.95,2.99.65,4.7-.97,5.58-3.84,1.66-5.42,3.31-10.83,3.3-16.58,0-3.17-.25-6.44,3.97-7.36,1.08-.23,1.45-1.18,1.7-2.17,2.2-8.86,5.9-17.4,5.05-26.88-.63-7.08-3.82-8.93-10.54-5.36Zm-40.49-25.55s-.29-1.37-.67-2.67c-.43-1.47-.37-3.51-2.07-3.96-2.02-.54-2.4,1.73-3.12,2.91-3.34,5.44-6.72,10.88-9.63,16.55-3.97,7.73-6.6,16.21-13.47,22.21-1.42,1.24-2.37,3.11-3.29,4.83-5.27,9.93-11.97,19.04-16.07,29.67-1.32,3.43-.58,4.25,2.06,5.69,10.13,5.53,20.66,9.44,32.37,9.97,6.97.31,11.43-1.86,11.43-7.06.02-25.63.05-51.26,2.44-78.13Zm-3.49,101.61c.15-1.46-.01-3.1-1.32-4.16-5.24-4.29-9.85-9.7-16.82-11.22-8.24-1.8-16.32-3.96-23.69-8.15-4.44-2.53-7.37-1.75-10.06,2.76-1.63,2.74-3.09,5.78-6.06,7.74-1.97,1.3-1.63,3.5.35,4.9,5.85,4.15,9,10.68,13.79,15.8,4.24,4.54,9.11,8.48,13.02,13.32,6.75,8.35,13.51,16.65,22.07,23.33,3.1,2.42,3.84,1.51,4.36-1.76,2.25-14.05,1.33-28.43,4.36-42.56Zm21.58-7.15c-4.27-.49-9.56,3.37-10.87,7.89-3.32,11.44-5.45,23.14-7.28,34.9-.35,2.25-1.19,5.78.66,6.64,4.08,1.88,2.75,3.61.97,5.96-.6.79-.95,1.79-.1,2.64.68.68,1.44.31,2.03-.25,4.65-4.42,10.77-8.06,13.64-13.43,6.68-12.5,11.01-26.13,15.12-39.74.95-3.14-.48-3.81-3.09-3.93-3.7-.17-7.39-.44-11.08-.66Zm-98.56-29.43c-1.51-14.68-9.55-27.11-13.84-40.82-.34-1.09-1.59-1.87-2.85-1.66-1.4.23-1.61,1.49-1.73,2.7-.81,7.96-3.25,15.62-3.99,23.64-.68,7.35-.79,14.87-3.04,21.99-1.73,5.45-1.82,9.15,5.51,9.85,2.24.21,3.36-.02,4.99-1.19,4.11-2.94,7.31-7,12.05-9.23,1.72-.81,3.12-2.93,2.91-5.27Zm168.72-28.41c-2.73,5.85-4.77,11.32-7.72,16.24-3.58,5.95-.37,13.9-6.12,19.07-.61.55.09,1.63.89,1.78,3.09.57,2.55,3.01,2.67,5.05.2,3.51.36,7.02.39,10.53.07,8.68,4.5,11.69,12.99,8.65,3.71-1.33,7.45-2.29,11.43-2.14,2.04.08,4.19-.08,4.21-2.81.05-4.66,1.88-9.96-4.48-12.51-1.71-.69-3.07-2.38-4.47-3.74-10.4-10.16-15.89-21.63-9.41-36.2.38-.86.91-1.76-.38-3.92Zm-3.23,69.08c-3.03.89-8.12-1.64-8.42,3.09-.55,8.88-2.86,17.28-4.85,25.81-.46,1.98-.26,3.58,2.71,2.28,7.88-3.46,19.55.05,22.52-12.46.2-.84,1.87-1.29,2.76-2.03,4.55-3.78,8.77-7.71,7.07-14.57-.4-1.61-.67-3.54-2.8-2.62-6.34,2.74-12.72,1.1-19,.5Zm-225.3,28.27c.07,2.54-.49,4.41,1.79,5.28,8.32,3.16,9.32,2.68,11.93-6.07.44-1.49.85-2.99,1.18-4.51,2.53-11.76,5.93-23.31,7.34-35.35.38-3.3,1.73-6.32-1.66-7.86-3.32-1.51-4.68,1.93-6.73,3.98-6.06,6.08-5.82,14.83-9.55,21.99-3.43,6.59-2.39,15.59-4.3,22.53Zm344.04-17.23c2.28-.31,2.74-1.95,3.35-3.33,5.34-12.17,9.61-24.66,11.45-37.89.28-2.01,1.4-4.93-1.99-4.91-2.94.02-7.37-1.75-8.36,2.86-.82,3.79-2.93,5.49-6.2,5.97-3.21.47-4.29,2.24-4.31,5.13-.08,11.14,1.26,22,6.07,32.16Zm-321.23,6.68c.69.2,1.09.47,1.38.38.73-.23,1.41-.63,2.11-.96,7.37-3.51,9.44-11.44,14.23-17.1,3.78-4.48,8.21-7.45,3.09-15.37-3.17-4.89-4.07-3.74-7.03-2.06-3.1,1.75-5.75,4.04-6.99,7.57-3.15,8.98-5.42,18.16-6.79,27.55Zm171.32,12.49c-.8,3.17,1.19,3.95,5.19,3.63,4.91-.39,5.54-3.95,5.83-7.31.36-4.27.83-8.5,1.76-12.67.66-2.96.94-5-3.1-5.92-3.96-.9-5.72,0-6.78,3.83-1.57,5.66-2,11.46-2.89,18.44Zm21.27-54.81c-.03-1.25-.07-2.39-1.17-2.7-1.53-.44-1.83.98-2.39,1.95-4.79,8.41-6.68,17.83-9.43,26.95-.62,2.06.58,2.86,2.2,3.41,1.97.67,3.46.38,3.98-1.97,1.05-4.77,2.06-9.55,3.23-14.29,1.12-4.55,2.42-9.06,3.58-13.35Zm-158.76-45.56c1.56-2.9-.4-21.98-2.28-24.01-1.59-1.72-3.61-1.27-5.44-.74-1.49.44-1.1,1.82-.69,2.94,2.66,7.24,4.47,14.83,8.41,21.82Zm52.26-249.37c2.88.69,6.57-2.08,6.85,1.95.2,2.94-2.16,4.36-5.26,3.56-.81-.21-1.8-.24-1.94.58-.15.84.04,2.15.6,2.65,2.95,2.57,6.52,2.78,9.69.91,2.56-1.51,2.23-9.13-.33-11.24-3.1-2.55-6.4-3.85-9.6,1.59Zm-53.51,13.28c.09,2.19.37,4.77,2.44,5.57,2.35.91,3.03-1.98,4.06-3.39,1.36-1.85,2.25-4.09,3.11-6.25.81-2.03-.25-3.41-2.14-4.13-1.87-.71-3.91-1.35-5.09,1.01-1.13,2.26-2.27,4.56-2.39,7.19Zm194.56,334.44c-.56-1.85,1.86-4.83-1.14-5.55-2.79-.67-3.49,2.61-4.7,4.43-1.78,2.66-2.05,5.75-1.79,8.94.16,1.93,1.17,2.82,2.87,3.03,1.75.21,3.26-.58,3.45-2.34.31-2.86,2.22-5.47,1.31-8.51Zm-151.66-349.91c-1.63-3.34-4.4-3.04-6.89-2.13-3.95,1.45-4.52,5.03-4.52,8.71,0,2.57.9,4.65,3.63,5.32,1.76.43,3.52.4,4.75-1.33.84-1.18.82-2.17-.67-2.74-2.86-1.09-2.98-3.99-2.59-5.91.63-3.15,4.09-.5,6.29-1.92Zm142.44,352.54c.94-3.34.15-4.57-1.26-5.53-1.03-.7-2.07-.36-2.39.64-1.11,3.49-3.36,6.66-3.22,10.51.09,2.38,1.68,3.46,3.87,3.51,2.06.04,2.43-1.49,2.52-3.2.14-2.51.39-5.01.46-5.93Zm18.38-11.23c.07-1.06.75-2.52-.79-2.95-1.56-.43-1.69,1.08-2.17,2.11-2.43,5.13-3.32,10.71-4.87,16.1-.28.97-.37,2.14.62,2.57,1.49.65,2.07-.74,2.4-1.76,1.73-5.31,4.85-10.21,4.8-16.07Zm1.41,14.98c.42-.18.98-.33,1.44-.64,2-1.35,6.91-14.02,6.23-16.17-.14-.46-.63-1.01-1.07-1.14-.9-.26-1.41.46-1.73,1.19-2.06,4.65-4.12,9.29-6.12,13.97-.5,1.16-.5,2.32,1.25,2.79Zm-147.32,1.17c-.41.39-.82.78-1.23,1.17,3.21,3.52,6.38,7.08,9.66,10.54,1.2,1.27,2.89,2.73,4.5,1.16,1.8-1.75-.85-2.45-1.49-3.64-2.54-4.72-6.7-7.36-11.44-9.23Zm-69.83,6.74c.44-2.82.73-5.86-2.47-6.43-2.73-.48-3.32,2.2-3.16,4.46.2,2.78-.8,6.92,2.86,7.41,3.65.49,2.65-3.31,2.77-5.44Zm-3.67-165.68c-1.39,2.26-6.51-2.55-6.65,3.23-.05,2.24.68,4.94,3.25,4.33,2.81-.67,5.96-2.29,6.97-5.35.6-1.81-1.45-2.34-3.57-2.21Zm72.09,152.61c-4.11-3.83-7.58-8.11-10.56-12.78-.21-.32-.48-.66-.8-.83-.65-.34-1.4-.87-2.02-.78-.89.13-.87,1-.73,1.84.58,3.43,9.56,12.03,14.11,12.55Zm206.36-122.79c-.58.28-1.17.56-1.75.84,1.68,4.44,3.32,8.9,5.06,13.32.39,1,.76,2.49,2.24,2.18,1.44-.3,1.28-1.78,1.29-2.89.09-5.83-5.33-8.53-6.84-13.46Zm-179.43-184.06c-.97,4.29-1.12,7.15.99,10.64,2.37-3.81,2.07-6.66-.99-10.64Zm125.75,272.13c1.76-1.21,1.8-2.99,3.39-3.76,1.34-.65,4.5-.91,3.28-2.95-1.3-2.19-3.7-.3-5.55.69-2.66,1.43-2.6,3.34-1.12,6.01Zm-8.49,7.43c-2.09.83-1.61,2.8-1.9,4.4-.29,1.59.09,2.84,2.04,2.31,1.43-.39,3.32-.87,2.98-2.85-.28-1.65-1.25-3.19-3.13-3.87Zm-54.6,34.63c-.2-.28-.45-.99-.84-1.07-1.93-.4-3.23,1.02-4.54,2.01-1.31.99-2.97,1.97-2.92,3.98.01.42.5,1.01.92,1.2.8.36,7.31-4.93,7.37-6.12Z"/><path class="cls-7" d="m269.35,204.33c-6.18,6.75-4.71,15.05,2.64,20.32,5.18,3.71,9.4,8.76,15.84,8.51-.94,17.84,2.34,33.38,19.82,44.07-4.65.98-6.6-.47-7.92-2.21-2.76-3.63-3.64-1.82-5.77.86-4.6,5.79-8.43,11.97-14.33,17.09-10.27,8.91-20.98,17.41-30.62,27.14-6.1,6.17-13.36,11.22-19.12,17.89-7.4,8.58-15.7,17.34-17.25,28.43-.76,5.42,2.27,12.67,3.64,19.09.22,1.03,2.48,2.23,3.87,2.32,7.18.44,12.11,5.2,17.45,8.96,7.91,5.57,10.73,4.42,13.42-4.69,2.95-9.99,7.83-19.48,5.8-30.53,2.88,6.93,1.81,19.23-1.28,26.36-1.88,4.34-4.21,8.38-2.36,13.79,1.42,4.15,4.74,5.83,7.33,5.1,6-1.69,10.55,1.17,15.5,3.02,8.28,3.09,16.37,5.27,24.53-.51,2.51-1.78,3.1-4.84,5.37-6.81,1.34,7.73-4.06,10.84-12.33,12.09-4.88.74-10.18.98-14.87-1.91-.97-.59-2.21-.84-3.39.94,4.57,3.1,8.91,6.67,13.8,9.17,4.86,2.48,9.87,4.56,14.11,8.1,1.17.98,2.79,1.3,3.78.23,4.95-5.38,7.73-.9,10.55,2.34,1.56,1.79,3.2,2.38,5.48,2.68,6.31.82,12.49,2.73,18.97,1,1.17-.31,2.19-.55,3.06-1.39,2.98-2.89,5.99-2.8,9.53-.68,5.28,3.15,18.55-.63,21.95-5.94,3.3-5.16,4.46-5.19,8.25-.43,1.61,2.02,3.98,1.46,6.01,1.04,2.13-.44,4.9.14,5.91-2.85,2.46-7.31.91-14.7.04-21.96-.37-3.09-2.68-.91-3.79.17-11.26,10.98-27.16,11.9-39.95,2.24-.46-.35-.91-.74-1.43-.99-.87-.43-2.77.37-2.19-1.69.24-.84.95-1.75,1.7-2.2,1.05-.63,1.67.43,2.39,1.09,12.02,11.02,21.5,11.57,35.04,2.01,6.43-4.54,12.8-9.16,14.36-17.87.77,4.12,1.11,4.89-.76,7.35-2.98,3.91-1.84,7.92-1.79,12.21.16,13.38,4.89,25.57,8.74,38.02.67,2.18,2.72,3.52,3.17,5.51.74,3.27,1.87,6.88-1.56,9.6-1.92-3.7.65-8.55-2.64-11.74-2.86-2.76-3.78-6.15-4.39-9.74-.45-2.62-1.41-6-4-5.29-3.21.88-7.86,2.23-7.88,6.67-.02,4.46-.49,8.84-.7,13.26-.69,14.93-5.23,29.12-8.02,43.62-1.47,7.64-1.92,8.06,5.58,8.52,1.75.11,3.51.28,5.25.55,7.5,1.2,9-.04,9.91-7.57,1.56-12.95,3.5-25.84,6.97-38.45-.79,17-4.31,33.63-6.84,50.39-.7,4.62-1.07,9.27-2.44,13.8-1.09,3.6-1.74,7.12-5.83,8.79-2.32.95-2.84,3.68-3.73,5.79-1.53,3.62-3.55,6.98-5.16,10.52-2.56,5.66-6.23,6.08-11.28,3.74-1.95-.91-3.9-1.68-5.65-3.01-3.53-2.7-6.7-5.73-11.6-1.3-2.45,2.21-6,.52-7.72-2.83-2.17-4.22-9.67-8.02-14.33-7.41-2.25.29-2.41,2.34-3.54,3.56-3.71,4-7.67,3.39-9.3-1.61-.73-2.25-1.83-3.52-4.21-4.27-8.21-2.59-14.93-8.26-22.22-11.98-6.82-3.47-10.2-9.96-16.74-12.85-2.31-1.02-4.08-2.5-5.47,1.07-.78,1.99-2.75,2.07-4.53,1.29-5.16-2.27-10.35-3.89-16.05-4.83-3.38-.56-6.43-4.83-10.31-6.72-3.19-1.55-7.99-.51-9.57-5.3-.18-.54-2.73-.86-3.81-.4-1.52.65-.69,2.34-.53,3.66,1.64,13.45,5.15,26.45,10.13,39,2.22,5.58,5.74,10.63,8.37,16.06.97,2.01,1.99,4.26,1.18,7.61-5.75-4.09-9.28-9.4-10.84-15.47-2.01-7.8-4.94-15.24-7.6-22.76-2.86-8.11-4.51-16.41-3.76-24.71.67-7.4-3.24-10.74-8.32-13.89-7.94-4.93-14.49-12.16-19.22-18.29-2.35-3.05-4.73-5.92-8.24-8.08-6.54-4.02-10.03-10.4-9.8-18.2.29-9.9-.9-20.02,3.49-29.45.92-1.97.09-2.94-1.89-3.23-6.19-.91-19.59,3.79-23.12,10.85-3.43,6.85-9.89,7.53-13.45.76-2.57-4.9-5.24-4.57-9.33-2.96-6.34,2.49-9.18,1.43-11.31-4.96-2.09-6.27-5.64-12.01-6.38-18.79-.71-6.42,1.43-9.8,7.43-12.29,3.59-1.49,7.35-2.87,7.85-8.26.56-6.08,7.48-7.9,13.92-4.8,7.67,3.69,15.37,7.5,24.14,7.98,4,.22,7.73-.49,11.33-2.37,4.71-2.46,9.61-4.28,15.13-4.01,3.06.15,5.15-1.2,7.1-4.06,8.11-11.91,16.38-23.73,25.21-35.1,4.88-6.29,11.69-11.05,17.18-16.6,7.93-8.02,17.62-13.46,25.69-21.12,6.96-6.61,12.28-13.81,16-22.51,1.11-2.59,1.12-4.54-.18-7.1-3.66-7.22-4.92-15.14-5.74-23.11-.14-1.33.49-3.39-.84-3.77-5.69-1.64-7.82-7.39-12.35-10.23-6.12-3.82-9.15-10.32-7.89-17.36.59-3.28,2.52-4.68,5.68-4.75l-.07-.09Zm-116.15,208.17c-1.11,1.31-2.4,2.51-3.3,3.95-1.07,1.72.17,2.87,1.49,3.85.89.66,2.18,2.28,2.81,1.26,1.67-2.72,5.05-5.09,4.58-8.26-.32-2.13-3.67-.74-5.69-.71,5.97-1.8,11.83-4.11,17.92-5.28,7.76-1.5,16.02-3.51,23.29,1.14,6.73,4.31,13.06,9.29,18.79,14.99,13.96,13.9,27.19,28.58,43.4,40.06,2.8,1.98,4.8,6.01,7.72,6.68,3.71.85,5.53-4.24,8.79-5.91,2.42-1.24,4.8-2.26,6.83.35,1.98,2.55,1.78,5.06-.87,7.18-2.08,1.67-4.27,3.31-3.31,7.41,4.45-4.51,9.24-7.25,14.7-8.8.64-.18,1.36-.89,1.61-1.53,2.63-6.82,8.64-11.69,10.57-19.01.99-3.74,2.99-7.36,2.64-11.26-.29-3.25-4.21-2.97-6.29-4.64-10.93-8.76-22.11-17.05-35-23.06-17.14-7.99-35.01-14.28-51.87-22.93-4.09-2.1-7.48-2.05-2.67-7,1.81-1.86,2.82-5.04.07-7.37-2.97-2.52-4.93-.73-6.55,1.96-.75,1.24-2.22,2.51-3.21.85-2.68-4.49-6.31-1.85-9.37-1.38-16.37,2.51-32.02,12.13-49.41,4.58-2.19-.95-3.88.31-2.84,3.18.42,1.17,2.19,1.87,1.21,3.65-3.07.05-5.45-3.11-8.79-1.93-1.52.54-4.04-.69-4.37,1.78-.32,2.43,2.13,2.24,3.72,2.76,2.78.91,5.55,1.87,8.32,2.82-3.67.66-7.02.1-10.38-.36-1.13-.16-2.52-.38-2.94,1.12-.41,1.44.67,2.15,1.87,2.46,2.1.55,3.83,1.49,4.93,3.36-1.52,1.52-4.29-.66-4.7,1.88-.47,2.93,2.44,2.43,4.05,3.16,2.58,1.17,5.2,2.26,8.16,3.53-2.13,1.57-3.59.56-4.95.13-1.98-.63-3.62-.42-4.43,1.54-.83,2.01.5,3.26,2.09,4.3,2.12,1.39,4.44,1.36,6.8,1.11,4.86-.53,9.73-1.07,14.59-1.6Zm103.34,65.95c4.52-2.96,3.68-5.33-.08-7.63-.97-.59-1.69-1.62-2.48-2.48-2.73-2.95-4.75-3.53-6.82.94-2,4.33-7.92,5.63-9.91,2.26-5.41-9.11-14.19-14.96-21-22.67-.97-1.1-1.87-2.15-1.8-3.49.24-4.44-2.58-7.08-5.27-9.93-3.09-3.26-6.55-6.48-7.32-11.1-.95-5.7-5.01-8.66-9.24-11.4-2.7-1.75-4.93-1.59-5.7,2.64-1.64,8.96-1.35,17.9-.64,26.88.56,7.03,3.26,12.74,9.42,16.62,1.78,1.12,3.58,2.56,4.75,4.27,9.51,13.97,21.98,24.68,36.77,32.51,5.94,3.15,12.76,4.57,18.67,8.07,2.99,1.78,5.4,5.14,9.12,5.03,10.19-.3,20.04-1.9,27.34-10.13,1.13-1.28,2.9-2.59,1.36-4.5-1.66-2.05-3.28-.34-4.53.67-4.6,3.69-9.83,5.36-15.79,5.24,7.25-1.66,12.51-6.53,18.2-10.7,1.12-.82,2.55-1.6,1.81-3.21-.87-1.89-2.75-1.47-4.07-.77-1.33.7-2.42,1.96-3.44,3.12-4.49,5.09-10.65,4.67-16.48,5.48,4.11-1.66,6.62-5.86,10.76-6.95,5.68-1.49,7.59-6.22,10.16-10.48.62-1.04,1.09-2.28.08-3.23-1.31-1.24-2.58-.38-3.55.63-2.16,2.26-4.93,3.74-7.14,6.03-5.03,5.21-11.57,7.53-18.81,8.26,7.3-3.95,10.41-11.39,15.09-17.48.87-1.13,2.82-2.43,1.39-3.98-1.78-1.93-3.06.32-4.41,1.23-5.24,3.53-8.97,9.34-16.42,10.26Zm120.75-30.12c.41-2.04,2.13-2.37,3.3-3.28,1.66-1.31,3.44-2.12,1.91-5.13-1.17-2.31-2.08-3.47-4.66-3.02-5.39.94-10.8,1.74-16.18,2.71-2.88.52-5.07,2.25-3.7,5.27,1.29,2.83,1.06,5.28.89,8.24-.85,14.79,2.4,29.38,2.79,44.12.1,3.92,2.17,4.67,5.48,5.28,3.57.66,4.88-1.15,5.26-3.84,1.55-10.71,6.68-20.34,9.11-30.82,1.28-5.51.86-11.12,2.28-16.57.34-1.33,2.1-3.98-.28-5.28-1.87-1.03-2.93,1.49-4.58,1.9-.5.12-.99.26-1.63.42Zm-25.97,30.14c.53-7.81,1.21-15.66-.26-23.42-.25-1.3,0-3.2-1.6-3.45-2.27-.35-1.9,1.98-2.43,3.27-5.4,13.21-6.15,27.33-8.18,41.23-1.6,10.95-3.06,21.86-2.67,32.94.07,2.02-.76,4.54,2.4,5.14,4.03.78,8.04,1.71,12.1,2.24,2.31.3,2.35-.5,2.5-3.27.33-6.37-2.11-12.2-1.94-18.46.32-12.07.09-24.15.09-36.22Zm-14.56-20.44c-.14,0-.27-.02-.41-.03,0-1.17.07-2.35-.01-3.52-.19-2.6.67-6.79-2.8-6.66-4.04.15-9.99-.9-11.55,4.63-3.69,13.16-9.92,25.46-12.66,38.91-.47,2.3-.77,4.37,2.52,4.64,5.84.47,11.59,1.87,17.52,1.51,2.29-.14,3.64-.75,3.87-3.29,1.12-12.07,2.33-24.13,3.51-36.19Zm-8.28,40.03c-6.11,1.62-12.38,1.18-18.6,1.22-2.05.01-3.33.91-3.88,2.84-1.4,4.94-3.96,9.27-6.71,13.57-1.5,2.35-1.69,5.11,1.53,6.28,3.99,1.45,6.85,4.39,10.12,6.8,3.77,2.78,8.42,4.12,12.52,3.28,2.84-.58,1.8-5.43,2.56-8.35.63-2.45,1.57-4.81,2.21-7.26,1.24-4.69,3.82-8.93,4.38-13.88.39-3.45-.72-4.81-4.13-4.5Zm61.02,28.47c-.13-.21-.25-.41-.38-.62,2.5-1.46,5.04-2.83,7.47-4.39,2.43-1.56,5.11-3.07,4.82-6.64-.13-1.57,1.94-3.53-.48-4.66-1.92-.9-2.68,1.2-3.7,2.18-2.75,2.66-5.49,5.26-9.43,6.85.66-3.14,4.42-3.01,4.84-5.89-1.75.53-2.28.33-2.7-1.26-.25-.94-.83-1.12-1.6-1.36-4.29-1.35-8.91.98-11.17,5.07-2.95,5.33-4.03,11.37-6.62,16.77-4.68,9.75-4.85,9.67,4.86,13.74.53.22,1.12.32,1.67.52,6.74,2.46,6.93,1.99,9.11-5.11,1.45-4.74-.38-11.02,5.72-13.93.51-.24,1.19-1.37-.14-1.68-.69-.16-1.51.25-2.27.4Zm-92.78-38.56c-.1,3.05-.01,3.48.78,3.4,1.59-.16,1.62-1.5,1.7-2.64.1-1.49,1.19-2.41,1.77-3.61,5.78-12.07,12.5-23.72,16.25-36.69.62-2.15-.2-3.38-1.89-4.34-1.96-1.12-3.14-.49-4.14,1.53-1.57,3.14-3.42,6.14-5.21,9.16-4.05,6.83-6.07,14.71-11.36,20.94-2.1,2.47-4.59,5.85.95,8.06,1.46.58,1.71,2.52,1.16,4.19Zm-92.59-65.42c.14,3.65,3.55,5.23,5.31,7.78,8.53,12.38,18.74,23.34,29.07,34.19.92.96,1.87,2.65,3.27,1.84,1.62-.94,3.22-2.43,4.03-4.08.85-1.74-1.53-1.78-2.42-2.64-5.56-5.36-11.25-10.59-16.62-16.13-6.19-6.38-12.04-13.07-18.18-19.5-.92-.96-2.07-2.52-4.45-1.47Zm78.86,87.14c1.39.65,2.75,1,3.73,1.81,1.99,1.63,3.55,1.25,4.81-.71,1.13-1.77,2.61-3.98.87-5.77-1.63-1.68-3.67.05-5.08,1.13-1.33,1.03-3.37,1.11-4.34,3.55Zm-128.23-132.91c-4.29-.04-7.27-3.99-11.55-3.64-1.13.09-2.47.08-2.9,1.46-.12.38.41,1.4.61,1.39,4.65-.24,8.9,4.23,13.84.8Zm210.9,135.35c.12-2.46,3.14-3.21,3.28-5.4.15-2.4-2.56-1.78-4.05-2.18-1.96-.52-2.81.52-2.56,2.58.24,1.95.42,3.84,3.34,5Z"/><polygon class="cls-6" points="905.54 501.88 900.83 494.18 888.1 488.99 875.05 489.3 866.09 496.85 861.54 503.61 857.61 513.82 854.15 531.11 857.76 548.71 869.87 557.99 882.91 562.39 896.59 560.03 904.29 552.48 913.09 538.65 914.82 526.55 905.54 501.88"/><path class="cls-7" d="m776.18,326.7c10.25,5.35,20.72,9.11,26.9,21.12,8.95,17.38,14.09,35.89,20,54.17,2.53,7.83,3.12,16.32,6.45,24.14,1.93,4.54,5.81,8.62,6.62,12.78,1.32,6.75,5.66,10.91,9.05,15.93,3.27,4.84,20.26,9.28,25.57,7.13,2.6-1.05,3.04-4.01,5.06-5.55,4.35-3.31,8.47-7.11,14.02-8.29,5.82-1.23,10.02-4.22,13.58-9.14,4.17-5.76,17.28-3.34,19.63,3.39,1.03,2.96,2.54,1.63,4.05,1.19,10.65-3.08,21.18-.73,28.68,6.05,15.18,13.74,23.77,26.1,16.6,50.9-1.29,4.45-2.18,8.97-4.36,13.19-3.1,6-2.07,12.25-.95,18.75,1.63,9.44,2.13,18.92-4.08,27.59-5.06,7.07-7.63,15.77-14.43,23.37,2.68-9.45,7.27-16.84,9.3-25.19,1.71-7,1.28-13.96.44-20.93-.15-1.29-.44-3.47-2.43-3.59-2.05-.12-2.14,1.94-2.7,3.32-.29.72-.69,1.54-.58,2.25,1.12,7.55-4.76,13.35-4.96,20.61-1.26-11.38-1.01-22.74-.96-34.14-3.33,2.83-3.24,6.76-4.68,10.06-1.79,4.09-2.64,8.57-5.96,11.95-1.6,1.64-1.3,4-1.4,6.16-.09,1.92.35,4.49-3.12,2.18-1.81-1.2-2.19,1.03-2.46,2.2-.66,2.86-1.06,5.77-1.64,8.65-.33,1.65-1.05,3.14-3.11,2.61-1.69-.43-1.84-1.93-1.47-3.34,1.5-5.79.34-11.72,1.04-17.55.09-.77.23-1.54.25-2.31,0-.31-9.9-2.63-10.07-2.34-6.69,10.97-18.17,19.05-20.09,32.91-1.35,9.76-4.74,18.83-8.45,27.91-4.61,11.31-8.33,22.98-12.59,34.44-.69,1.86-1.36,4.8-4.08,4.22-2.84-.6-1.9-3.49-1.8-5.49.3-5.74,5.81-10.16,4.79-16.09-2.46-14.17,3.98-26.74,6.56-40,.41-2.11.66-4.5-1.02-6.15-1.62-1.59-3.75-.27-5.6-.06-2.12.24-2.34,2.28-2.88,3.96-2.31,7.17-4.68,14.31-7.95,21.49.97-6.92-4.56-11.71-4.78-18.39-.21-6.17-2.69-12.26-2.03-18.68.13-1.29-.35-3.11-2.06-3.04-1.72.08-1.63,1.88-1.8,3.21-1.68,13.97-2.47,28.02-4.75,41.94-.94,5.73-2.91,10.9-4.96,16.16-.61,1.56-1.57,2.93-3.45,2.47-2.26-.56-2.53-2.75-1.88-4.28,3.08-7.22,2.09-15.05,3.76-22.47,3.98-17.65,5.64-35.52,4.47-53.6-.31-4.82.27-9.27,2.9-13.46,3.48-5.54,2.72-12.63,6.43-18.13.63-.93.52-2.01-.36-2.63-3.7-2.6-7.56-5.46-12.34-3.82-4.26,1.46-8.05,3.6-8.87,9.02-.87,5.77-1.74,11.55-2.58,17.31-1.56,10.72-9.91,16.69-18.65,21.78-2.89,1.68-6.93,1.7-7.31,6.5-.1,1.28-1.91.06-2.89-.37,0,0-.06-.07-.06-.07-1.34-3.21-.24-7.08-2.76-9.99-4.26-4.93-3.67-10.42-1.76-16.04,1.89-5.55,2.84-11.21,3.61-17.07,1.06-8.1.68-16.36,3.01-24.35,3.26-11.21,8.04-21.99,10-33.57,1.57-9.26,6.59-17.62,7.33-26.98,1.79-22.44-4.08-43.66-11.36-64.54-1.93-5.52-5-10.63-6.96-16.15-2.12-5.99-6.1-10.06-10.72-14.21-4.43-3.99-11.28-4.94-13.83-11.14l-.1.09Zm101.14,169.35c-.08-1.26.57-3.05-1.75-2.8-3.07.32-11.34,8.36-11.66,11.59-.4,3.97,1.76.68,2.72.83-.79,2.52-2.79,4.19-4.31,6.21-3.07,4.07-6.17,8.16-5.36,13.77.86,5.99,1.4,12.15,3.85,17.67,3.26,7.34,10.49,16.08,20.84,15.27,11.07-.87,20.28-2.73,25.43-15.74,3.64-9.18-4.3-15.35-1.58-23.1.04-.1-.59-.44-.91-.67-4.65-3.27-4.1-8.23-3.48-12.73.82-5.94-1.44-11.44-6.57-13.75-4.09-1.85-8.39-1.1-12.64-1.28-3.82-.16-.9,3.67-2.86,4.47-.53.21-1.15.18-1.74.26Zm-20.74-7.77c-2.54,4.72-4.82,9.42-4.77,14.87.02,2.61.91,4.52,3.88,4.96,2.7.4,4.24-.85,4.68-3.24,1.49-8.02,8.17-11.57,13.71-16.04,2.61-2.11,5.67-3.2,9.3-2.58,8.89,1.52,16.38,6.2,24.14,10.29,2.02,1.06,2.06,2.9,2.61,4.82,1.18,4.12-.14,9.81,5.04,11.74,4.02,1.5,3.93,3.79,3.76,7.21-.38,7.56,4.41,13.41,10.75,13.61,1.82.06,4.16.85,5.23-1.45,1.04-2.22.12-4.28-1.58-5.83-3.45-3.15-3.92-6.72-1.45-10.51,2.39-3.66,5.88-2.54,8.95-1.23,5.1,2.17,6.51.46,6.31-4.71-.31-8-.82-16.15,2.59-23.72,3.38-7.49,2.68-14.19-2.43-20.73-2.22-2.83-3.91-3.74-7.23-1.73-4.23,2.56-8.63,2.73-12.13-1.51-1.94-2.36-4.47-1.89-6.98-2.11-2.72-.24-6.19,3.21-7.98-.47-1.59-3.28,3.06-4.95,3.83-7.96.24-.93,1.71-1.51,2.53-2.34,3.45-3.49,2.65-7.25-1.92-9.18-6.84-2.88-15.33,3.79-15.39,12.66-.02,3.46-1.12,5.21-4.13,5.85-6.69,1.41-13.25,2.67-19.42,6.27-3.89,2.28-9.23.7-13.91.97-11.86.71-21.51-2.91-27.8-13.6-1.99-3.39-4.04-3.84-6.35.01-4.15,6.93-9.08,13.22-16.33,17.24-1.18.65-1.63,1.6-1.74,2.83-.7,8.06-3.58,15.6-5.62,23.34-.49,1.86-.84,3.28,1.68,4.06,4.96,1.54,8.94,4.74,12.57,8.35,3.69,3.66,6.93,3.81,10.14-.68,3.45-4.82,8.22-7.52,14.13-5.96,3.88,1.03,3.93-.42,4.41-3.49.66-4.14,1.92-8.38,6.89-10.01Zm-30.38,32.63c.17-1.53.69-3.45-1.29-4.01-5.79-1.62-9.95-6.06-15.24-8.58-3.81-1.82-4.63-.91-5.23,2.71-1.62,9.81-3,19.71-5.44,29.33-1.38,5.46,1.37,9.24,4.22,11.93,2.59,2.45,6.72-.53,9.29-2.75,2.36-2.04,5.11-3.44,7.44-5.59,7.04-6.49,5.41-15.04,6.25-23.04Zm2.85-84.19c-.82-2.56-.86-5.61-2.89-6.01-3.22-.65-1.4,2.74-2.22,4.15-1.57,2.68-3.09,5.38-4.6,8.09-1.03,1.85-2.08,3.7-2.96,5.63-.39.86-.44,2.07.58,2.54.53.24,1.48-.13,2.11-.47,5.75-3.12,4.99-10.66,9.98-13.92Zm106.01,87.07c1.65-.17,4.01-3.16,4-4.75-.01-1.58-.88-2.22-2.16-1.47-1.62.94-4.74.4-4.22,3.68.21,1.32.83,2.61,2.38,2.54Z"/><path class="cls-7" d="m348.74,231.12c-1.28-2.32-.25-5.33-2.63-7.03-1.49.12-1.29,1.25-1.44,2.15-.86,5.14-3.89,5.98-9.12,6.49-9.42.92-19.51,1.15-26.48,9.39-2.3,2.73-3.6,1.38-4.59-1.02-3.9-9.44,1.12-19.44,11.11-22.21,1.81-.5,3.96-.52,4.57-3.52-4.19-.11-7.93,1.62-11.92,1.77-7.04.26-9.54-4.56-12.02-9.39-2.44-4.75-2.41-9.74.28-14.58,2.57-4.64,7.88-6.59,10.53-11.4,1.56-2.83,8.43-.65,8.99,2.77.33,2.02,1.55,2.45,2.79,3.3,6.19,4.22,8.48,10.02,6.73,17.29-.91,3.8-1.78,7.67-3.3,11.23-1.35,3.17-1.42,6.04,1.33,7.86,3.49,2.32,7.59,1.96,11.09-.23,2.71-1.7,4.88-4.28,3.58-7.84-1.06-2.91-2.62-5.65-4.09-8.39-3.87-7.18-2.98-14.31,2.93-19.75,3.16-2.91,7.14-4.43,11.38-2.99,5.18,1.76,9.46,4.93,10.94,10.55,2.25,8.52.16,14.44-7.53,19.04-4.01,2.4-3.01,3.17-.38,5.99,6.13,6.55,6.43,14.72,4.48,23.06-.29,1.23-.89,2.95-2.72,2.29-1.71-.62-1.36-2.36-.83-3.55,1.53-3.45.62-6.96.58-10.45-.01-1.14.07-2.54-1.37-2.89-1.53-.37-1.06,2.01-2.9,2.05Zm-25.86-37.18c-8.69-7.68-17.28-8.02-23.18-1.75-4.18,4.45-3.33,14.2,1.62,18.53,5.18,4.53,12.85,4.12,17.8-1.38-5.82.33-8.54-2.39-8.43-7.86.15-7.66,6-7.22,12.19-7.54Zm18.38.37c.3,1.35,1.59,1.57,2.5,2.27,4.83,3.72,4.04,10.16-1.43,12.8-1.25.6-4.35-.71-3.4,2.41.73,2.39,2.77,3.77,5.52,3.33,3.96-.63,6.4-3.65,9.01-6.17,8.22-7.94,1.4-18.09-5.73-21.45-2.17-1.02-6.25-1.06-6.76,1.35-.65,3.06,3.2.99,4.77,1.97.3.19.51.52.82.84-1.39,1.68-4.48-.05-5.3,2.66Zm3.8,7.46c-.39-.81-.7-1.98-1.4-2.82-1.53-1.84-3.87-2.53-5.76-1.32-2.87,1.83.15,2.53,1.11,3.64,1.3,1.5.68,2.42-1.08,2.82-1.21.28-2.39.7-1.73,2.26.54,1.27,1.87,1.31,3.02,1.17,3.23-.38,5.35-2.01,5.84-5.75Zm-24.83,4.22c-1.08-2.11-6.74-4.24-.34-6.19.87-.27,1.39-1.01,1.02-1.74-.29-.57-1.14-1.01-1.83-1.2-2.4-.66-4.63-.53-6.28,1.74-1.25,1.73-1.88,3.82-.58,5.43,1.88,2.33,4.47,3.58,8.01,1.96Z"/><path class="cls-7" d="m703.4,272.55c-2.94-8.59-9.71-14.39-15.34-21.02-.94-1.11-1.86-1.47-3.53-1.05-9.32,2.33-16.03-2.57-17.52-12.62-.23-1.54-.58-3.19-.28-4.67,1.67-8.28,3.51-16.52,5.33-24.77.12-.55.4-1.23.83-1.52,9.16-6.26,12.62-16.87,19.12-25.15,11.22-14.28,26.04-17.34,42.95-14.47,7.91,1.34,15.8,2.76,22.64,7.35,2.4,1.61,5.26,2.86,5.66,6.29,0,0,.09-.12.09-.12-2.52-.15-4.14-1.96-6.11-3.2-3.28-2.06-5.65-5.65-9.62-6.43-9.4-1.84-18.87-3.21-28.51-2.58-11.46.75-21.12,6.73-25.01,16.38-3.69,9.16-8.31,19.53-4.51,30.45.62,1.78.37,3.86.47,5.81.21,3.84-.5,6.46-5.27,4.2-2.29-1.08-3.69-.05-2.86,2.34,2.83,8.2,7.92,15.55,9.06,24.41.07.53,1.03,1.31,1.61,1.35,1.42.09,1.17-1.12,1.24-2.08.07-.97-1.37-2.08-.22-2.74,6.4,6.73,8.87,14.98,9.67,23.87l.1-.04Zm-26.3-43.16c-3.64.18-7.52,3.47-7.8,6.12-.46,4.32,5.56,12.73,9.82,13.42,3.32.54,6.67-.67,5.68-4.39-1.33-5-4.09-9.62-6.34-14.36-.25-.52-1.21-.71-1.36-.8Z"/><path class="cls-7" d="m409.41,323.28c-9.89-9.34-19.1-19.45-30.93-26.55-5.61-3.37-7.2-9.5-9.73-14.94-3.21-6.91-3.18-6.95-9.25-2.9-2.27,1.51-4.56,2.68-7.93,2.16,14.62-9.88,22.31-22.8,21.72-40.11-.05-1.35,0-2.84-.53-4.02-3-6.61-1.66-12.03,4.52-16.07,3.98-2.61,7.45-5.37,6.16-10.78-.61-2.55-.82-5.52-4.29-6.34-3.21-.76-5.76.12-7.93,2.48-2.57,2.79-4.35,5.96-5.09,9.73-.29,1.47-.74,3.41-2.79,3.18-2.55-.28-2.13-2.46-1.92-4.14,1.15-9.34,1.48-18.63-1.33-28.36,5.1,7.25,11.02,12.22,19.3,13.88,2.04.41,3.54,1.6,4.45,3.49,2.85,5.87.69,15.03-4.84,18.75-4.59,3.08-6.85,6.82-4.7,12.19,4.04,10.12,1.58,20.56-2.6,28.99-3.64,7.35-3.7,11.5-.1,18.62,4.31,8.53,11.45,13.45,17.73,19.64,6.92,6.81,15.95,11.65,19.97,21.2,0,0,.11-.11.11-.11Z"/><path class="cls-7" d="m269.43,204.41c2.84-2.73,6.94-2.47,10.22-5.07,8.73-6.9,13.21-16.99,20.52-24.87,7.14-7.7,16.34-11.09,26.22-10.99,12.26.13,23.36,4.16,30.31,16.11-2.53-.14-3.58-1.94-4.56-3.39-6.94-10.32-17.71-10.35-28.26-10.29-9.8.05-17.53,4.71-23.4,12.51-.59.78-1.24,1.52-1.94,2.2-8.16,7.94-13.09,16.6-8.59,28.62,1.17,3.13,2.65,9.37-1.35,10.51-4.19,1.2-5.63-4.96-6.52-8.23-1.97-7.3-6.37-8.57-12.74-7.2,0,0,.07.09.07.09Z"/><path class="cls-7" d="m307.97,586.64c7.78.15,13.93,3.01,20.63,3.22,9.84.3,18.89-1.15,27.8-5.37,5.05-2.39,10.75-3.41,16.18-5.01,1.21-.36,2.88-1.34,3.19.91.24,1.75-1.18,2.03-2.65,2.36-5.52,1.24-10.98,2.74-16.49,3.99-2.33.53-4.55,1.26-6.45,2.67-6.2,4.61-13.26,4.2-20.52,4.51-7.92.34-14.9-.49-21.69-7.28Z"/><path class="cls-7" d="m388.39,570.02c-9.89-1.24-13.89-4.54-14.75-12.53,2.83.59,4.07,2.84,5.62,4.64,2.52,2.91,4.88,2.96,7.09-.27,1.85-2.69,3.87-5.19,7.7-8.2-2.51,6.35-7.8,10.28-5.78,16.48,0,0,.12-.12.12-.12Z"/><path class="cls-7" d="m495.08,325.37c.49-4.46,1.13-8.89,2.98-13.04,2.88-6.44-1.32-11.63-3.02-17.26,0,0,.36-.27.36-.27,7.55,7.61,6.85,16.15,2.79,25.05-.89,1.94-1.8,3.88-2.7,5.82l-.41-.29Z"/><path class="cls-7" d="m344.97,273.68c-7.71,6.96-21.38,5.11-27.33-3.38,8.38,7.5,17.67,6.93,27.33,3.38Z"/><path class="cls-7" d="m271.18,578.55c-6.39-2.53-14.47-2.89-16.13-12.91,5.83,4.66,10.98,8.79,16.13,12.91Z"/><path class="cls-7" d="m324.61,238.41c4.8-.89,8.9,3.54,13-2.7-1.95,8.15-5.71,8.55-13,2.7Z"/><path class="cls-7" d="m377.03,210.48c-4.82,2.78-4.6,8.65-7.83,12.83-.76-6.14,2.4-11.48,7.83-12.83Z"/><path class="cls-7" d="m272.4,399.48c2.64,2.66,4.94,4.47,7.72.58.56,4.31-.93,6.22-3.58,5.92-2.41-.27-4.83-1.69-4.14-6.5Z"/><path class="cls-7" d="m268.53,210.25c2.11-3.31,4.14-3.75,6.23-2.52,2.08,1.23,3.52,3.08,2.11,6.46-1.87-3.01-4.28-4.61-8.34-3.95Z"/><path class="cls-7" d="m275.96,365.71c3.8-.25,7.29.4,11.05,3.63-5.13.84-8.13-1.26-11.05-3.63Z"/><path class="cls-7" d="m309.39,344.56c-2.49,4.26-2.94,7.44-2.93,11.35-3.72-6.47-3.51-7.64,2.93-11.35Z"/><path class="cls-7" d="m383.57,400.74c2.18-1.75,3.28-4.12,6.14-3.89.24.02.75,1.56.49,1.97-1.41,2.17-3.17,3.73-6.62,1.92Z"/><path class="cls-7" d="m335.42,402.42c.48,2.66,1.9,5.65-1.78,7.62-1.13-3.19.49-5.37,1.78-7.62Z"/><path class="cls-7" d="m536.33,302.59c-5.28,6.02-10.94,6.27-16.12.6,5.51,2.87,10.84,1.65,16.12-.6Z"/><path class="cls-7" d="m516.4,262.27c4.67-1.91,7.99-1.48,11.32-.36-3.31,1.64-6.65,2.15-11.32.36Z"/><path class="cls-7" d="m532.49,372.88c-3.63,1.56-4.94,4.52-4.81,9.51-2.1-6.36-1.01-8.2,4.81-9.51Z"/><path class="cls-7" d="m702.56,384.65c-2.07-4.77-.69-7.65,2.18-10.29-.63,3-1.27,6-2.18,10.29Z"/><path class="cls-7" d="m749.34,240.86c2.45,5.81,12.33,8.05,8.16,17.06-.78,1.69-.4,5.47-1.84,4.93-2.42-.91-5.74-.24-7.23-2.26-2.26-3.06-3.36-2.06-4.28.54-2,5.63-7.09,4.21-11.06,5.83-.26-1.65.52-1.94,1.17-2.34,3.2-1.96,1.16-4.72.58-6.8-.83-3.01-3.05-.69-4.79-.56-4.76.35-8.41,5.69-14,2.88-1.01-.51-1.96,2.09-2.38,3.58-.59,2.07-.98,4.19-1.64,6.23-.2.6-.99,1.29-1.62,1.41-1.17.22-1.58-.76-1.92-1.75-1.82-5.16,1.44-17.1,6.06-20.81,2.32-1.87-.22-5.26,3.14-6.93,1.29,4.42,4.3,5.69,8.38,3.58,1.99-1.02,2.66.39,3.87,1.34,3.88,3.04,8.33,4.23,13.2,3.18,4.93-1.06,7.64-3.77,6.32-9.19,0,0-.11.11-.11.11Z"/><path class="cls-7" d="m751.55,228.98c-1.98,4.27-5.31,1.08-8.43,1.41.4,4.6,3.41,7.47,6.21,10.47,0,0,.11-.11.12-.11-6.54-.69-10.66-6.17-11.78-15.29-.85-6.9,1.46-13.53,1.4-20.37-.02-2.57,9.95-7.03,13.4-6.04,4.27,1.22,7.25,4.44,9.98,7.72.9,1.08,1.27,3.15-.41,4.13-1.52.89-2.64-.58-3.28-1.68-2.74-4.74-6.88-6.02-11.93-5.01-2.09.42-4.68,1.15-4.39,3.78.25,2.25,2.79,1.53,4.41,1.68,9.84.9,13.44,5.13,11.28,13.36-.91,3.49-2.61,6.12-6.72,6.06.93-1,1.87-1.97,2.77-2.99,2.89-3.28,3.88-7.23.85-10.44-2.87-3.04-7.06-5.98-11.37-2.91-3.72,2.66-3.78,7.25-2.05,11.19,1.79,4.09,5.17,6.24,9.94,5.05Z"/><path class="cls-7" d="m713.2,228.7c-7.06-.14-10.74-3.35-10.69-9.33.06-7.23,3.82-11.34,10.41-11.37,5.91-.03,10.28,4.74,10.18,11.11-.09,5.95-3.97,9.7-9.9,9.59Zm.46-18.79c-5.26.15-9.44,4.82-9.16,9.92.3,5.5,4.87,6.13,8.77,6.69,4.09.59,8.53-5.35,7.9-10.45-.56-4.49-4.5-5.23-7.5-6.17Z"/><path class="cls-7" d="m719.77,204.31c-.62-.07-1.8.15-2.52-.33-5.73-3.8-10.89-2.35-15.92,1.41-.91.68-2.25,1.49-3.1.33-1.28-1.74.86-1.97,1.6-2.92,7.22-9.31,15.28-3.16,23.1-1.37.84.19,1.32.83,1.23,1.69-.11,1.08-.97,1.31-4.39,1.19Z"/><path class="cls-7" d="m678.26,454.48c-1.26,4.33-1.9,7.33-.12,10.23.29.47.06,1.74-.37,2.07-.89.69-1.79-.07-2.54-.67-3.24-2.59-2.53-6.88,3.04-11.64Z"/><path class="cls-7" d="m723.02,579.93c-1.49.42-2.96.67-4.27,1.26-.96.43-1.59,1.97-2.88.62-.22-.23-.29-.73-.25-1.08.17-1.45,1.24-1.97,2.48-1.96,1.65,0,3.53-.7,4.92,1.17Z"/><path class="cls-7" d="m568.16,220.63c-2,3.88-3.56,6.92-5.15,9.95-.46.88-1.12,1.77-2.24,1.38-1.17-.41-1.18-1.55-.71-2.44,1.75-3.32,3.01-7.11,8.1-8.89Z"/><path class="cls-7" d="m582.7,545.07c-2.88-.25-5-.31-7.07-.65-1.67-.28-3.86-.51-3.53-2.95.27-2.04,1.65-3.68,3.88-3.73,2.83-.06,5.76-.63,8.46.59.13,1.05-.57.94-1.06,1.04-2.35.44-6.21-1.36-6.79,1.22-.69,3.06,4.15,1.45,6.11,4.48Z"/><path class="cls-7" d="m921.5,497.44c-4.2-7.1.76-12.02,1.63-17.58.07-.45,1.3-1.17,1.8-1.03,4.2,1.12,7.99,3.51,9.91,7.16,2.45,4.66,2,10.12-.86,14.53-2.27,3.51-6.45,3.4-10.47,2.29,2.17-.69,4.45-1.16,6.5-2.12,4.86-2.28,6.13-9.57,2.43-13.4-.93-.97-1.99-2.21-3.47-1.78-2.31.66-.44,2.16-.43,3.3.03,2.04-.9,3.64-3.01,3.52-3.45-.2-5.19.86-4.03,5.12Z"/><path class="cls-7" d="m936.68,476.29c3.54-.26,7.54-.44,9.09,2.37,1.71,3.1.8,7.2-.65,10.71-.37.9-1.06,1.76-2.24,1.23-1.07-.47-1.12-1.49-.92-2.48.16-.75.34-1.54.7-2.21,2.09-3.91.95-6.16-3.34-7.12-1-.22-2.21-.76-2.64-2.5Z"/><path class="cls-7" d="m890.94,546.21c-.19-5.83.07-11.45-5.72-15.49,3.13.49,6.52-2.74,7.73,1.9,1.26,4.79,1.91,9.52-2.02,13.59Z"/><path class="cls-7" d="m868.07,502.81c1.97-3.84,5.82-5.13,9.35-6.86-1.11,1.31-2.83,2.46-3.19,3.95-.93,3.85-3.11,4.06-6.16,2.91Z"/><path class="cls-7" d="m747.79,218.21c2.59.44,3.58,2.02,3.38,4.57-.18,2.25-1.49,3.12-3.53,2.85-2.38-.31-3.13-1.96-3.09-4.2.04-2.17,1.08-3.22,3.24-3.22Z"/><path class="cls-7" d="m713.39,216.56c1.55.11,2.65.83,2.64,2.44-.02,1.88-1.5,2.67-3.03,2.97-1.67.33-2.48-.7-2.47-2.35.02-1.89,1.22-2.68,2.86-3.06Z"/><path class="cls-9" d="m835.03,443.71c-1.73-.86-3.94-1.55-5.57-.11-1.23,1.08-1.6,2.85-1.92,4.38-.35,1.67-.55,3.18-1.8,4.41-1.62,1.59-3.92,2.23-5.96,3.1-2.52,1.07-4.53,2.59-5.54,5.21-.53,1.36,1.67,1.96,2.19.6,1.55-3.99,6.86-4.17,9.93-6.47,1.48-1.11,2.46-2.48,2.93-4.26.38-1.45.49-3.04,1.11-4.42.21-.47.55-.93.88-1.03.83-.26,1.82.18,2.61.57,1.31.65,2.46-1.31,1.15-1.96h0Z"/><path class="cls-9" d="m805,506c2.78-1.13,5.05-.69,7.65.65,2.2,1.14,4.07,2.53,6.12,3.92,1.72,1.17,3.42,1.78,5.49,1.95.64.05,1.3.07,1.89.33,1.08.47,1.78,1.59,2.36,2.55.76,1.25,2.73.11,1.96-1.15-1.15-1.89-2.58-3.53-4.86-3.87-.89-.13-1.8-.11-2.68-.31-1.24-.28-2.3-.96-3.33-1.68-4.5-3.16-9.5-6.91-15.21-4.59-1.34.54-.75,2.75.6,2.19h0Z"/><path class="cls-9" d="m783.54,493.48l-.71-.71c-.1-.11-.23-.19-.37-.24-.14-.07-.28-.1-.44-.1-.16,0-.3.03-.44.1-.14.05-.26.12-.37.24l-.18.23c-.1.18-.15.37-.16.57l.04.3c.05.19.15.36.29.5l.71.71c.1.11.23.19.37.24.14.07.28.1.44.1.16,0,.3-.03.44-.1.14-.05.26-.12.37-.24l.18-.23c.1-.18.15-.37.16-.57l-.04-.3c-.05-.19-.15-.36-.29-.5h0Z"/><path class="cls-9" d="m769.18,496.31c-2.76,3.32-7.62,4.02-11.67,4.41l1.1.83c-.26-1.25-.91-2.46-.95-3.74-.05-1.46-2.32-1.47-2.27,0s.72,2.88,1.03,4.34c.09.45.63.88,1.1.83,4.62-.45,10.13-1.29,13.28-5.08.39-.47.46-1.15,0-1.61-.4-.4-1.21-.47-1.61,0h0Z"/><path class="cls-9" d="m751.89,459.16c.02.13.04.27.06.4l-.04-.3c.08.62.12,1.25.05,1.87l.04-.3c-.04.27-.1.53-.2.78l.11-.27c-.06.14-.13.27-.22.39l.18-.23c-.08.1-.16.18-.26.26l.23-.18c-.1.08-.2.14-.31.19l.27-.11c-.14.06-.28.1-.43.12l.3-.04c-.23.03-.46.02-.69,0l.3.04c-.49-.07-.97-.23-1.43-.42l.27.11s-.06-.03-.1-.04c-.29-.13-.56-.2-.88-.11-.26.07-.55.28-.68.52-.14.26-.21.58-.11.88.08.26.26.57.52.68,1.21.52,2.58.94,3.85.33,1.08-.53,1.47-1.76,1.54-2.88.05-.76-.05-1.53-.18-2.28-.04-.26-.3-.55-.52-.68-.24-.14-.6-.2-.88-.11s-.54.26-.68.52c-.15.29-.17.56-.11.88h0Z"/><path class="cls-9" d="m755.43,471.91c.03.1.05.19.07.29l-.04-.3c.02.13.02.25,0,.38l.04-.3c-.02.12-.05.23-.09.34l.11-.27c-.05.11-.11.21-.19.31l.18-.23c-.1.12-.21.23-.34.33l.23-.18c-.22.17-.46.3-.71.41l.27-.11c-.05.02-.1.04-.16.06-.15.04-.28.1-.39.2-.12.08-.22.19-.29.32-.14.24-.2.6-.11.88s.26.54.52.68.6.22.88.11c.35-.14.71-.28,1.03-.5.37-.25.65-.52.9-.88.43-.61.5-1.44.28-2.14-.09-.28-.27-.53-.52-.68s-.6-.2-.88-.11-.54.26-.68.52-.21.58-.11.88h0Z"/><path class="cls-9" d="m757.52,484.36c0,.06-.01.13-.02.19l.04-.3c-.05.36-.14.72-.28,1.05l.11-.27c-.12.28-.27.54-.45.78l.18-.23c-.19.24-.4.45-.63.64l.23-.18c-.28.22-.59.4-.92.54l.27-.11c-.39.16-.8.27-1.22.34-.26.04-.55.3-.68.52-.14.24-.2.6-.11.88s.26.54.52.68c.29.15.56.17.88.11,1.11-.18,2.19-.67,2.99-1.47.86-.86,1.27-1.98,1.39-3.17.03-.27-.15-.62-.33-.8-.2-.2-.52-.35-.8-.33s-.6.11-.8.33c-.22.23-.3.49-.33.8h0Z"/><path class="cls-9" d="m763.04,539.35l-1.42.71c-.13.07-.24.17-.32.29-.1.11-.17.24-.2.39-.05.15-.05.3-.02.45,0,.15.05.29.13.42.16.24.39.46.68.52l.3.04c.21,0,.4-.05.57-.16l1.42-.71c.13-.07.24-.17.32-.29.1-.11.17-.24.2-.39.05-.15.05-.3.02-.45,0-.15-.05-.29-.13-.42-.16-.24-.39-.46-.68-.52l-.3-.04c-.21,0-.4.05-.57.16h0Z"/><path class="cls-9" d="m740.64,510.19c-.23.09-.45.17-.69.24-.11.03-.21.05-.32.07-.22.04.26-.02.09-.01-.05,0-.11,0-.16.01-.09,0-.19,0-.29,0-.04,0-.08,0-.13-.01-.16,0,.32.06.12.01-.08-.02-.17-.04-.25-.06-.04-.01-.07-.03-.11-.04-.13-.04.16.07.16.07,0-.01-.06-.03-.07-.03-.07-.04-.15-.08-.22-.13-.03-.02-.06-.05-.1-.07-.07-.04.15.12.15.12,0-.01-.05-.04-.06-.05-.06-.06-.13-.12-.19-.18-.03-.03-.05-.06-.08-.09-.14-.16.17.24.05.06-.11-.16-.21-.32-.29-.5-.02-.03-.04-.14-.07-.15,0,0,.1.25.07.16,0-.02-.02-.05-.03-.07-.04-.11-.08-.22-.12-.33-.08-.25-.14-.51-.19-.77-.03-.15-.05-.29-.07-.44,0-.04-.02-.16,0,.03.03.21,0,.01,0-.03,0-.08-.02-.17-.03-.25-.03-.31-.11-.58-.33-.8-.2-.2-.52-.35-.8-.33-.57.03-1.2.5-1.14,1.14.11,1.17.32,2.43,1,3.43s1.63,1.57,2.81,1.6c.64.01,1.29-.15,1.88-.39.29-.12.52-.25.68-.52.14-.24.2-.6.11-.88s-.26-.54-.52-.68-.6-.23-.88-.11h0Z"/><path class="cls-9" d="m723.13,514.02c-.18.15-.36.3-.54.45l.23-.18c-.13.1-.25.19-.4.25l.27-.11c-.08.03-.15.05-.23.07l.3-.04c-.07,0-.13,0-.2,0l.3.04c-.08-.01-.16-.04-.24-.07l.27.11c-.14-.06-.28-.15-.4-.24l.52.68c-.06-.21-.1-.42-.13-.63l.04.3c-.05-.37-.04-.75,0-1.12l-.04.3s.01-.08.02-.12c.05-.15.05-.3.02-.45,0-.15-.05-.29-.13-.42-.14-.24-.41-.46-.68-.52-.29-.07-.62-.05-.88.11-.23.15-.48.39-.52.68-.07.43-.12.87-.09,1.3.02.26.05.52.1.78.02.09.04.17.06.26,0,.04.02.08.03.12.03.08.08.22.12.29.1.17.25.29.41.41.37.28.81.43,1.27.47.1,0,.2-.01.3-.02s.21-.02.3-.06c.19-.06.38-.14.55-.25.35-.22.66-.51.97-.77.21-.17.33-.54.33-.8,0-.28-.12-.61-.33-.8s-.5-.35-.8-.33l-.3.04c-.19.05-.36.15-.5.29h0Z"/><path class="cls-9" d="m707.95,519.4c-.22-.03-.43-.09-.64-.17l.27.11c-.18-.08-.35-.18-.5-.29l.23.18c-.16-.13-.3-.27-.43-.44l.18.23c-.15-.2-.27-.41-.37-.64l.11.27c-.08-.19-.14-.39-.19-.58-.07-.27-.28-.54-.52-.68s-.6-.2-.88-.11-.54.26-.68.52-.19.57-.11.88c.18.72.53,1.42,1.05,1.96.24.24.53.46.84.62.33.16.67.29,1.03.35.15.05.3.05.45.02.15,0,.29-.05.42-.13.24-.14.46-.41.52-.68.07-.29.05-.62-.11-.88-.15-.23-.39-.48-.68-.52h0Z"/><path class="cls-9" d="m679.88,528.01c-.28-.14-.55-.3-.82-.47-.07-.04-.13-.09-.2-.14-.03-.02-.06-.05-.1-.07-.07-.05-.04-.03.08.06-.09-.03-.21-.18-.29-.24-.11-.1-.21-.2-.3-.31-.04-.04-.07-.09-.11-.13-.1-.1.14.21.03.04-.08-.11-.15-.22-.22-.33-.03-.05-.05-.09-.08-.14-.02-.04-.12-.25-.04-.07.08.18,0,0-.01-.04-.02-.06-.04-.12-.06-.18-.01-.05-.03-.1-.04-.16,0-.04-.04-.28-.02-.07s0,0,0-.04c0-.07,0-.13,0-.2,0-.12.01-.25.02-.37,0-.14-.05.26,0,.06.01-.07.03-.14.04-.21.03-.14.07-.27.11-.4.03-.11.16-.31.15-.41-.06.13-.07.16-.03.08.02-.04.04-.08.05-.12.04-.08.08-.16.12-.24.27-.53.15-1.26-.41-1.56-.52-.28-1.27-.16-1.56.41-.66,1.27-1.04,2.78-.5,4.17s1.72,2.38,3.03,3.06c.53.27,1.26.15,1.56-.41.28-.52.16-1.27-.41-1.56h0Z"/><path class="cls-9" d="m656.64,527.15c-.36.03-.7-.01-1.05-.01.36,0,.11.02,0,0-.08-.01-.16-.03-.24-.05-.13-.03-.27-.07-.39-.12-.07-.03-.14-.06-.22-.08.35.12.1.04.01,0-.13-.07-.26-.14-.39-.22-.06-.04-.12-.08-.18-.13-.16-.11.24.2.01,0-.11-.09-.21-.19-.3-.29-.05-.05-.09-.1-.13-.15-.06-.07-.2-.29,0,.01-.08-.13-.18-.25-.26-.38s-.16-.27-.22-.41c-.03-.07-.06-.15-.1-.22.16.32.04.1.01.02-.11-.31-.2-.62-.27-.95-.02-.09-.03-.17-.05-.26-.05-.32.02.18,0-.03-.02-.18-.04-.37-.05-.55-.03-.59-.5-1.17-1.14-1.14-.59.03-1.17.5-1.14,1.14.07,1.28.36,2.59,1.07,3.68s1.67,1.83,2.87,2.2c.69.21,1.44.27,2.15.22.59-.05,1.17-.49,1.14-1.14-.03-.58-.5-1.19-1.14-1.14h0Z"/><path class="cls-9" d="m638.92,530.84c1.46,0,1.47-2.27,0-2.27s-1.47,2.27,0,2.27h0Z"/><path class="cls-9" d="m581.95,515.85c-.25.1-.51.19-.78.25-.06.01-.11.02-.17.03-.12.02-.17-.03.07,0-.1-.01-.22.02-.32.02-.12,0-.23-.01-.35-.01-.14,0,.28.05.09.01-.06-.01-.12-.02-.18-.04-.1-.02-.2-.05-.29-.08s-.23-.13.05.03c-.04-.02-.09-.04-.14-.06-.19-.09-.36-.25-.55-.34.07.03.19.16.06.04-.04-.04-.08-.07-.12-.11-.09-.08-.18-.17-.26-.25s-.17-.18-.25-.28c-.03-.04-.06-.07-.09-.11.21.23.05.06,0,0-.16-.22-.3-.46-.44-.69-.3-.52-1.04-.74-1.56-.41s-.72,1-.41,1.56c.59,1.03,1.42,2.07,2.52,2.59,1.19.56,2.5.57,3.72.06.29-.12.52-.24.68-.52.14-.24.2-.6.11-.88-.17-.53-.81-1.04-1.4-.79h0Z"/><path class="cls-9" d="m571.32,515.15c-.5.19-1.01.34-1.54.45-.24.05-.48.09-.73.13-.14.02-.14.02-.02,0-.07,0-.14.02-.21.02-.14.02-.29.03-.43.04-.54.04-1.08.04-1.62,0-.14,0-.28-.03-.42-.04-.14-.02-.14-.02-.01,0-.07,0-.14-.02-.21-.03-.25-.04-.51-.09-.75-.16s-.48-.14-.71-.22c-.06-.02-.12-.05-.18-.07.12.05.13.05,0,0-.11-.05-.23-.11-.33-.17-.19-.1-.37-.22-.54-.35.23.17-.07-.07-.11-.11-.09-.08-.16-.17-.24-.25-.08-.1-.08-.09.01.03-.03-.05-.07-.09-.1-.14-.06-.1-.12-.2-.18-.3-.05-.09-.1-.24-.03-.06-.04-.12-.08-.23-.11-.35s-.06-.25-.08-.37c.05.28,0-.15,0-.2,0-.14,0-.29,0-.43,0-.07.01-.15.02-.22-.02.11-.02.1,0-.05.1-.61-.16-1.22-.79-1.4-.54-.15-1.3.18-1.4.79-.18,1.13-.13,2.22.35,3.27.39.85,1.1,1.54,1.89,2.02,1.68,1.02,3.83,1.24,5.76,1.07,1.13-.1,2.25-.31,3.31-.71.57-.22.97-.77.79-1.4-.15-.55-.82-1.01-1.4-.79h0Z"/><path class="cls-9" d="m568.08,508.73s-.04,0-.06,0l.3.04c-.24-.03-.48-.09-.71-.19l.27.11c-.18-.08-.34-.17-.5-.29l.23.18c-.14-.11-.27-.24-.38-.38l.18.23c-.12-.15-.21-.32-.29-.5l.11.27c-.09-.23-.16-.46-.19-.71l.04.3s0-.04,0-.06c0-.16-.03-.3-.1-.44-.05-.14-.12-.26-.24-.37-.2-.2-.52-.35-.8-.33s-.6.11-.8.33c-.19.21-.37.51-.33.8.03.25.06.49.12.73s.16.45.25.66c.15.32.37.63.62.88s.55.47.88.62c.21.1.43.19.66.25.24.06.49.09.73.12.27.03.62-.15.8-.33.2-.2.35-.52.33-.8s-.11-.6-.33-.8l-.23-.18c-.18-.1-.37-.15-.57-.16h0Z"/><path class="cls-9" d="m568.36,453.19c-.74,6.98.99,13.98.04,20.95-.19,1.43,2,2.05,2.19.6.98-7.19-.72-14.37.04-21.56.15-1.45-2.12-1.44-2.27,0h0Z"/><path class="cls-9" d="m565.57,538.61c-1.03,7.55-.88,15.27-2.83,22.67-.37,1.42,1.82,2.02,2.19.6,1.95-7.42,1.8-15.12,2.83-22.67.2-1.43-2-2.05-2.19-.6h0Z"/><path class="cls-9" d="m559.19,579.7c-.05.12-.04.11.01-.03-.02.05-.05.11-.07.16-.05.11-.1.21-.16.32-.1.18-.2.36-.32.53-.07.1-.13.2-.2.29-.04.05-.07.1-.11.14.09-.11.09-.12.01-.02-.14.16-.27.32-.42.47-.31.33-.65.63-1,.91.21-.17,0,0-.06.04-.1.07-.19.14-.29.21-.2.13-.39.26-.6.38h1.15c-.17-.09-.34-.2-.5-.31-.1-.07-.08-.06.05.04-.04-.03-.07-.06-.11-.09-.05-.05-.1-.09-.15-.14-.06-.06-.11-.15-.17-.19.09.06.14.19.03.03-.08-.12-.13-.26-.2-.38.17.25.06.15.02.04-.03-.08-.05-.16-.08-.24-.04-.15-.08-.3-.11-.45-.08-.34-.14-.68-.2-1.02-.11-.58-.85-.97-1.4-.79-.62.2-.92.77-.79,1.4.25,1.29.51,2.6,1.59,3.47.4.32.93.75,1.45.75.5,0,1-.41,1.39-.69.67-.49,1.31-1.03,1.86-1.66.67-.78,1.19-1.62,1.56-2.58.22-.55-.24-1.27-.79-1.4-.65-.15-1.16.2-1.4.79h0Z"/><path class="cls-9" d="m632.83,564.42c.06,2.52.18,5.02-.62,7.4l.79-.79c-.15.05-.31.08-.45.14.18-.07.11,0-.02-.02.19.03.23.03.12,0,.17.08.22.09.14.05-.23-.11.17.15.01.01-.41-.37-.84-.63-1.36-.8-.58-.19-1.24.22-1.4.79-.17.62.21,1.21.79,1.4.3.1-.13-.1.1.04.07.04.14.09.21.13-.13-.08-.13-.1,0,0,.04.03.08.07.12.1.38.31.77.52,1.27.54.55.03,1.33-.17,1.67-.61s.45-1.17.56-1.7c.46-2.2.39-4.45.34-6.69-.02-.61-.51-1.14-1.14-1.14s-1.15.52-1.14,1.14h0Z"/><path class="cls-9" d="m505.46,504.33c-.16.38-.37.75-.6,1.09-.06.09-.12.18-.19.27-.01.02-.1.11-.1.13,0-.03.14-.17.03-.03-.15.18-.3.36-.45.54-.29.32-.6.63-.91.92-.15.14-.3.27-.46.4-.07.06-.15.12-.22.18-.04.03-.07.06-.11.09-.11.09.23-.17.04-.03h1.15c.1.08.12.1.01,0-.05-.04-.1-.08-.14-.12-.08-.07-.16-.15-.24-.23s-.14-.15-.21-.23c-.13-.15.11.16.03.05-.02-.04-.05-.07-.08-.11-.11-.16-.2-.34-.29-.51s.07.21.03.08c-.01-.04-.03-.08-.04-.11-.03-.09-.06-.19-.09-.29-.02-.09-.04-.18-.06-.27,0-.04,0-.08-.02-.12.08.3.02.19.01.09-.02-.2-.03-.4-.03-.6,0-.44.04-.88.09-1.32.07-.59-.57-1.16-1.14-1.14-.67.03-1.06.5-1.14,1.14-.11.97-.16,1.98.12,2.94.33,1.15,1.09,2,2.02,2.72.28.22.86.22,1.15,0,.76-.58,1.49-1.21,2.13-1.92s1.28-1.54,1.66-2.45c.12-.29.2-.55.11-.88-.07-.26-.28-.55-.52-.68-.49-.26-1.31-.18-1.56.41h0Z"/><path class="cls-9" d="m552.4,426.88c-.37.37-.7.79-.99,1.22s-.51.92-.72,1.4c-.05.15-.05.3-.02.45,0,.15.05.29.13.42.14.24.41.46.68.52.29.07.62.05.88-.11l.23-.18c.14-.14.24-.31.29-.5v-.03c-.02.09-.06.18-.1.27.22-.53.51-1.02.86-1.47l-.18.23c.17-.22.35-.42.54-.62.21-.21.33-.51.33-.8s-.12-.61-.33-.8-.5-.35-.8-.33-.59.11-.8.33h0Z"/><path class="cls-9" d="m538.23,451.68c-1.82,1.95-3.33,4.18-4.43,6.61-.25.54-.17,1.25.41,1.56.5.26,1.29.17,1.56-.41.52-1.15,1.13-2.26,1.83-3.32.16-.25.33-.49.51-.73.1-.14.2-.27.3-.4.01-.02.14-.18.08-.11s.07-.09.08-.1c.4-.51.83-1,1.28-1.48.41-.43.46-1.18,0-1.61s-1.17-.46-1.61,0h0Z"/><path class="cls-9" d="m520.34,479.54c-1.58,2.26-2.98,4.64-4.25,7.08-.27.53-.15,1.26.41,1.56.52.28,1.26.16,1.56-.41,1.27-2.44,2.67-4.82,4.25-7.08.34-.49.11-1.28-.41-1.56-.58-.31-1.19-.11-1.56.41h0Z"/><path class="cls-9" d="m495.54,540.9c.12.21.23.42.32.64l-.11-.27c.17.41.28.83.34,1.26l-.04-.3c.04.31.05.62.04.93-.02.6.54,1.16,1.14,1.14.63-.03,1.12-.5,1.14-1.14.04-1.2-.26-2.37-.86-3.41-.14-.25-.41-.45-.68-.52s-.63-.04-.88.11c-.52.34-.73,1-.41,1.56h0Z"/><path class="cls-9" d="m514.24,536.51c.11,0,.22.02.33.03l-.3-.04c.37.05.73.15,1.08.29l-.27-.11c.25.11.49.23.72.38.24.16.6.19.88.11s.55-.28.68-.52c.14-.26.21-.58.11-.88s-.27-.51-.52-.68c-.81-.52-1.74-.8-2.7-.86-.28-.02-.61.14-.8.33s-.35.52-.33.8.11.6.33.8.49.31.8.33h0Z"/><path class="cls-9" d="m525.57,401.9c1.46,0,1.47-2.27,0-2.27s-1.47,2.27,0,2.27h0Z"/><path class="cls-9" d="m517.68,414.84c-.95.86-1.75,1.91-2.3,3.06-.13.28-.2.57-.11.88.07.26.28.55.52.68.26.14.58.21.88.11.27-.09.55-.26.68-.52.28-.57.61-1.11.99-1.62l-.18.23c.34-.44.72-.85,1.13-1.22.44-.4.44-1.21,0-1.61-.47-.43-1.14-.43-1.61,0h0Z"/><path class="cls-9" d="m502.63,458.99c-.7.92-1.21,1.99-1.53,3.11-.16.57.2,1.26.79,1.4s1.22-.18,1.4-.79c.09-.33.21-.66.34-.98l-.11.27c.28-.66.64-1.29,1.08-1.86.17-.22.18-.63.11-.88-.07-.26-.28-.55-.52-.68-.26-.14-.58-.21-.88-.11l-.27.11c-.17.1-.31.24-.41.41h0Z"/><path class="cls-9" d="m473.95,405.63c-1.16-1.26-2.68-2.17-4.42-2.29-.4-.03-.78.24-.98.56-.61.96-.9,2.11-.79,3.24.03.31.11.58.33.8.2.2.52.35.8.33.57-.03,1.2-.5,1.14-1.14-.02-.22-.03-.44-.02-.66,0-.06,0-.12.01-.18,0-.09.07-.23-.01.06.03-.1.04-.21.06-.31s.05-.2.09-.3c.01-.04.03-.09.05-.13.01-.04.09-.24.02-.06-.07.16,0,0,.02-.03.03-.05.05-.11.08-.16.06-.11.12-.21.19-.32l-.98.56c.11,0,.36.09.02,0,.07.02.15.02.23.04.16.03.32.08.48.13.06.02.13.04.19.07.04.02.08.03.12.05-.17-.07-.2-.08-.09-.03.14.07.29.14.43.22s.28.17.41.26c.04.03.19.17.23.16l-.12-.09s.07.06.11.09c.28.23.54.48.79.75.41.44,1.2.44,1.61,0,.43-.47.43-1.14,0-1.61h0Z"/><path class="cls-9" d="m467.21,435.35c.15.24.29.48.4.74l-.11-.27c.14.34.24.7.3,1.07l-.04-.3c.04.34.05.68.01,1.02-.03.27.15.62.33.8.2.2.52.35.8.33s.6-.11.8-.33c.22-.23.3-.49.33-.8.12-1.18-.21-2.42-.86-3.41-.16-.25-.39-.44-.68-.52-.27-.07-.63-.04-.88.11s-.46.39-.52.68-.05.62.11.88h0Z"/><path class="cls-9" d="m460.71,468.47c-.66,2.56-.74,5.23-1.42,7.79-.16.59.2,1.24.79,1.4s1.24-.2,1.4-.79c.68-2.56.75-5.23,1.42-7.79.15-.59-.2-1.23-.79-1.4s-1.24.2-1.4.79h0Z"/><path class="cls-9" d="m452.88,505.62c-.02.35-.05.7-.09,1.05-.01.11-.02.21-.04.32-.03.24.04-.24,0,.01-.02.17-.05.34-.08.51-.12.69-.27,1.38-.46,2.06-.16.57.2,1.26.79,1.4s1.23-.18,1.4-.79c.42-1.48.66-3.01.75-4.55.03-.6-.55-1.16-1.14-1.14-.65.03-1.1.5-1.14,1.14h0Z"/><path class="cls-9" d="m445.84,533.65c-.71,2.83-1.42,5.67-2.13,8.5-.15.6.19,1.23.79,1.4s1.25-.2,1.4-.79c.71-2.83,1.41-5.67,2.13-8.5.15-.6-.19-1.23-.79-1.4s-1.25.2-1.4.79h0Z"/><path class="cls-9" d="m438.16,565.26c-1.41,2.35-2.73,4.77-3.66,7.36-.2.56.23,1.27.79,1.4.64.15,1.18-.19,1.4-.79.84-2.34,2.11-4.62,3.43-6.81.31-.51.13-1.27-.41-1.56s-1.23-.14-1.56.41h0Z"/><path class="cls-9" d="m460.53,542.18c-1.68.99-3.21,2.25-4.48,3.72-.39.45-.47,1.17,0,1.61.43.39,1.19.48,1.61,0,.6-.69,1.25-1.34,1.95-1.92.08-.07.17-.14.25-.21.04-.03.08-.06.11-.09.02-.01.21-.16.06-.05s.03-.02.06-.04c.04-.03.08-.06.12-.09.1-.07.2-.14.3-.21.38-.27.77-.52,1.17-.75.51-.3.74-1.04.41-1.56s-1.01-.73-1.56-.41h0Z"/><path class="cls-9" d="m376.39,433.03c9.34-1.35,9.49,11.87,9.19,18.03-.07,1.46,2.2,1.46,2.27,0,.17-3.56.08-7.19-.66-10.69-.69-3.3-2.15-6.89-5.23-8.64-1.9-1.08-4.06-1.2-6.18-.9-1.44.21-.83,2.4.6,2.19h0Z"/><path class="cls-9" d="m382.78,484.06c-.87,2.33-1.65,4.64-2.72,6.81-.26.53-.16,1.26.41,1.56.51.27,1.28.16,1.56-.41,1.17-2.38,2.02-4.88,2.95-7.36.21-.56-.23-1.27-.79-1.4-.65-.15-1.17.2-1.4.79h0Z"/><path class="cls-9" d="m370.86,519.92c-2.05,3.47-3.85,7.08-5.77,10.62-1.29,2.37-2.8,4.62-4.04,7.01-.84,1.62-1.63,3.26-2.5,4.85s-1.69,3.2-2.93,4.44c-.23.24-.38.3-.6.49-.08.06.11.02.1.04,0,0,.03.05,0-.04-.05-.12-.13-.23-.17-.35-.21-.54-.31-1.14-.38-1.71-.18-1.43-2.46-1.45-2.27,0,.2,1.56.58,4.32,2.69,4.35,1.67.02,2.9-1.82,3.72-3.03,1.26-1.85,2.28-3.86,3.29-5.85s2.12-3.87,3.25-5.8c2.67-4.55,4.91-9.34,7.6-13.88.75-1.26-1.22-2.41-1.96-1.15h0Z"/><path class="cls-9" d="m346.91,443.55c1.39-.72,2.98-1.15,4.23-.38,1.14.7,1.83,2.25,2.25,3.61,1.18,3.86,1.16,8.13.9,12.13-.11,1.66-.22,3.09-.55,4.62-.31,1.43,1.88,2.04,2.19.6.82-3.72.89-7.76.66-11.55s-.74-9.11-4.26-11.34c-2.07-1.31-4.55-.7-6.58.35-1.3.67-.15,2.63,1.15,1.96h0Z"/><path class="cls-9" d="m358.81,503.36c1.74,2.47,1.03,6.18.46,8.92-.66,3.18-1.69,6.25-2.7,9.33-.46,1.39,1.74,1.99,2.19.6,1.1-3.32,2.21-6.65,2.85-10.09.58-3.13,1.12-7.13-.84-9.91-.84-1.19-2.81-.05-1.96,1.15h0Z"/><path class="cls-9" d="m336.69,475.86c.39,9.72-2.07,19.38-4.33,28.76-1.04,4.34-2.21,8.69-2.93,13.1-.6,3.67-.85,7.39-1.47,11.05s-1.49,8.07-4.42,10.7l1.79.23c-.93-1.56-1.33-3.22-1.25-5.04.07-1.46-2.2-1.46-2.27,0-.11,2.19.44,4.3,1.56,6.19.39.66,1.24.72,1.79.23,2.65-2.38,3.82-6.02,4.56-9.4.84-3.85,1.15-7.79,1.67-11.69.57-4.29,1.67-8.51,2.68-12.71,1.2-5.02,2.43-10.03,3.38-15.11,1-5.37,1.74-10.84,1.52-16.32-.06-1.46-2.33-1.47-2.27,0h0Z"/><path class="cls-9" d="m305.52,497.69c.8-1.1,1.54-2.23,2.58-3.11l-1.79-1.38c-2.22,4.3-4.35,8.65-6.78,12.83s-4.98,8.17-8.6,11.23l1.9.5c-.49-2.73-.84-5.48-1.37-8.2-.28-1.44-2.47-.83-2.19.6.53,2.72.87,5.47,1.37,8.2.17.91,1.31,1,1.9.5,3.66-3.09,6.36-7.27,8.76-11.36s4.69-8.75,6.97-13.16c.61-1.17-.8-2.21-1.79-1.38-1.18,1.01-2.03,2.32-2.93,3.57s1.11,2.32,1.96,1.15h0Z"/><path class="cls-9" d="m296.65,465.85c-1.46,1.55-2.52,3.42-3.13,5.46-.17.57.2,1.26.79,1.4s1.22-.18,1.4-.79c.07-.23.14-.45.22-.67s.2-.44.25-.66c-.02.07-.08.18-.02.04.02-.05.04-.1.07-.15.05-.11.1-.22.16-.33.1-.21.21-.41.33-.61.22-.39.47-.77.73-1.13.02-.03.13-.14.12-.16,0,.04-.13.17-.03.04.07-.09.14-.17.21-.26.16-.19.33-.38.5-.56.41-.43.46-1.18,0-1.61s-1.17-.46-1.61,0h0Z"/><path class="cls-9" d="m321.15,445.1c-.83,4.04-1.28,8.19-2.83,12.04-.23.57.25,1.25.79,1.4.65.18,1.17-.22,1.4-.79,1.56-3.86,2-8,2.83-12.04.29-1.43-1.9-2.04-2.19-.6h0Z"/><path class="cls-9" d="m309.8,434.45c.26-.05.42-.06.72-.07.12,0,.25,0,.37,0,.06,0,.4.04.21.01.22.04.44.09.65.17.12.05-.03-.01-.05-.02.06.03.12.05.17.09.09.06.19.11.28.17.04.03-.09-.1.05.05.07.08.15.15.22.23.14.16-.07-.12.04.06.06.09.11.19.17.28.04.07.15.32.07.12.04.09.07.18.1.28.08.23.13.46.18.7.01.06.05.31.02.13.02.13.03.26.04.39.02.25.02.5.02.75,0,.51-.06,1.13-.12,1.47-.18,1.13-.47,2.23-.86,3.3-.36.99-.81,1.99-1.45,2.96-.8,1.23,1.17,2.37,1.96,1.15,1.35-2.06,2.21-4.57,2.56-7s.31-5.22-1.76-6.76c-1.22-.91-2.77-.92-4.21-.66-.61.11-.95.85-.79,1.4.18.64.79.9,1.4.79h0Z"/><path class="cls-8" d="m747.24,211.15c-1.64-.04-4.17,1.67-4.83,2.41s-1.6,2.22-1.79,3.27-1.28,4.52,1.83,9.3,9.3,2.76,9.3,2.76c0,0,6.62-4.2,5.84-9.81-1.29-9.29-7.88-7.88-10.36-7.94Z"/><path class="cls-7" d="m747.79,218.21c2.59.44,3.58,2.02,3.38,4.57-.18,2.25-1.49,3.12-3.53,2.85-2.38-.31-3.13-1.96-3.09-4.2.04-2.17,1.08-3.22,3.24-3.22Z"/></svg>